<?xml version="1.0" encoding="utf-8" standalone="no"?>
<!DOCTYPE svg PUBLIC "-//W3C//DTD SVG 1.1//EN"
  "http://www.w3.org/Graphics/SVG/1.1/DTD/svg11.dtd">
<!-- Created with matplotlib (https://matplotlib.org/) -->
<svg height="503.420156pt" version="1.1" viewBox="0 0 452.213875 503.420156" width="452.213875pt" xmlns="http://www.w3.org/2000/svg" xmlns:xlink="http://www.w3.org/1999/xlink">
 <metadata>
  <rdf:RDF xmlns:cc="http://creativecommons.org/ns#" xmlns:dc="http://purl.org/dc/elements/1.1/" xmlns:rdf="http://www.w3.org/1999/02/22-rdf-syntax-ns#">
   <cc:Work>
    <dc:type rdf:resource="http://purl.org/dc/dcmitype/StillImage"/>
    <dc:date>2021-01-22T11:01:17.008551</dc:date>
    <dc:format>image/svg+xml</dc:format>
    <dc:creator>
     <cc:Agent>
      <dc:title>Matplotlib v3.3.2, https://matplotlib.org/</dc:title>
     </cc:Agent>
    </dc:creator>
   </cc:Work>
  </rdf:RDF>
 </metadata>
 <defs>
  <style type="text/css">*{stroke-linecap:butt;stroke-linejoin:round;}</style>
 </defs>
 <g id="figure_1">
  <g id="patch_1">
   <path d="M 0 503.420156 
L 452.213875 503.420156 
L 452.213875 0 
L 0 0 
z
" style="fill:#ffffff;"/>
  </g>
  <g id="axes_1">
   <g id="patch_2">
    <path d="M 54.916875 304.3 
L 340.148275 304.3 
L 340.148275 31.92 
L 54.916875 31.92 
z
" style="fill:#ffffff;"/>
   </g>
   <g id="matplotlib.axis_1">
    <g id="xtick_1">
     <g id="text_1">
      <!-- Irrigation High -->
      <g style="fill:#262626;" transform="translate(87.992984 434.888437)rotate(-90)scale(0.165 -0.165)">
       <defs>
        <path d="M 9.8125 72.90625 
L 19.671875 72.90625 
L 19.671875 0 
L 9.8125 0 
z
" id="DejaVuSans-73"/>
        <path d="M 41.109375 46.296875 
Q 39.59375 47.171875 37.8125 47.578125 
Q 36.03125 48 33.890625 48 
Q 26.265625 48 22.1875 43.046875 
Q 18.109375 38.09375 18.109375 28.8125 
L 18.109375 0 
L 9.078125 0 
L 9.078125 54.6875 
L 18.109375 54.6875 
L 18.109375 46.1875 
Q 20.953125 51.171875 25.484375 53.578125 
Q 30.03125 56 36.53125 56 
Q 37.453125 56 38.578125 55.875 
Q 39.703125 55.765625 41.0625 55.515625 
z
" id="DejaVuSans-114"/>
        <path d="M 9.421875 54.6875 
L 18.40625 54.6875 
L 18.40625 0 
L 9.421875 0 
z
M 9.421875 75.984375 
L 18.40625 75.984375 
L 18.40625 64.59375 
L 9.421875 64.59375 
z
" id="DejaVuSans-105"/>
        <path d="M 45.40625 27.984375 
Q 45.40625 37.75 41.375 43.109375 
Q 37.359375 48.484375 30.078125 48.484375 
Q 22.859375 48.484375 18.828125 43.109375 
Q 14.796875 37.75 14.796875 27.984375 
Q 14.796875 18.265625 18.828125 12.890625 
Q 22.859375 7.515625 30.078125 7.515625 
Q 37.359375 7.515625 41.375 12.890625 
Q 45.40625 18.265625 45.40625 27.984375 
z
M 54.390625 6.78125 
Q 54.390625 -7.171875 48.1875 -13.984375 
Q 42 -20.796875 29.203125 -20.796875 
Q 24.46875 -20.796875 20.265625 -20.09375 
Q 16.0625 -19.390625 12.109375 -17.921875 
L 12.109375 -9.1875 
Q 16.0625 -11.328125 19.921875 -12.34375 
Q 23.78125 -13.375 27.78125 -13.375 
Q 36.625 -13.375 41.015625 -8.765625 
Q 45.40625 -4.15625 45.40625 5.171875 
L 45.40625 9.625 
Q 42.625 4.78125 38.28125 2.390625 
Q 33.9375 0 27.875 0 
Q 17.828125 0 11.671875 7.65625 
Q 5.515625 15.328125 5.515625 27.984375 
Q 5.515625 40.671875 11.671875 48.328125 
Q 17.828125 56 27.875 56 
Q 33.9375 56 38.28125 53.609375 
Q 42.625 51.21875 45.40625 46.390625 
L 45.40625 54.6875 
L 54.390625 54.6875 
z
" id="DejaVuSans-103"/>
        <path d="M 34.28125 27.484375 
Q 23.390625 27.484375 19.1875 25 
Q 14.984375 22.515625 14.984375 16.5 
Q 14.984375 11.71875 18.140625 8.90625 
Q 21.296875 6.109375 26.703125 6.109375 
Q 34.1875 6.109375 38.703125 11.40625 
Q 43.21875 16.703125 43.21875 25.484375 
L 43.21875 27.484375 
z
M 52.203125 31.203125 
L 52.203125 0 
L 43.21875 0 
L 43.21875 8.296875 
Q 40.140625 3.328125 35.546875 0.953125 
Q 30.953125 -1.421875 24.3125 -1.421875 
Q 15.921875 -1.421875 10.953125 3.296875 
Q 6 8.015625 6 15.921875 
Q 6 25.140625 12.171875 29.828125 
Q 18.359375 34.515625 30.609375 34.515625 
L 43.21875 34.515625 
L 43.21875 35.40625 
Q 43.21875 41.609375 39.140625 45 
Q 35.0625 48.390625 27.6875 48.390625 
Q 23 48.390625 18.546875 47.265625 
Q 14.109375 46.140625 10.015625 43.890625 
L 10.015625 52.203125 
Q 14.9375 54.109375 19.578125 55.046875 
Q 24.21875 56 28.609375 56 
Q 40.484375 56 46.34375 49.84375 
Q 52.203125 43.703125 52.203125 31.203125 
z
" id="DejaVuSans-97"/>
        <path d="M 18.3125 70.21875 
L 18.3125 54.6875 
L 36.8125 54.6875 
L 36.8125 47.703125 
L 18.3125 47.703125 
L 18.3125 18.015625 
Q 18.3125 11.328125 20.140625 9.421875 
Q 21.96875 7.515625 27.59375 7.515625 
L 36.8125 7.515625 
L 36.8125 0 
L 27.59375 0 
Q 17.1875 0 13.234375 3.875 
Q 9.28125 7.765625 9.28125 18.015625 
L 9.28125 47.703125 
L 2.6875 47.703125 
L 2.6875 54.6875 
L 9.28125 54.6875 
L 9.28125 70.21875 
z
" id="DejaVuSans-116"/>
        <path d="M 30.609375 48.390625 
Q 23.390625 48.390625 19.1875 42.75 
Q 14.984375 37.109375 14.984375 27.296875 
Q 14.984375 17.484375 19.15625 11.84375 
Q 23.34375 6.203125 30.609375 6.203125 
Q 37.796875 6.203125 41.984375 11.859375 
Q 46.1875 17.53125 46.1875 27.296875 
Q 46.1875 37.015625 41.984375 42.703125 
Q 37.796875 48.390625 30.609375 48.390625 
z
M 30.609375 56 
Q 42.328125 56 49.015625 48.375 
Q 55.71875 40.765625 55.71875 27.296875 
Q 55.71875 13.875 49.015625 6.21875 
Q 42.328125 -1.421875 30.609375 -1.421875 
Q 18.84375 -1.421875 12.171875 6.21875 
Q 5.515625 13.875 5.515625 27.296875 
Q 5.515625 40.765625 12.171875 48.375 
Q 18.84375 56 30.609375 56 
z
" id="DejaVuSans-111"/>
        <path d="M 54.890625 33.015625 
L 54.890625 0 
L 45.90625 0 
L 45.90625 32.71875 
Q 45.90625 40.484375 42.875 44.328125 
Q 39.84375 48.1875 33.796875 48.1875 
Q 26.515625 48.1875 22.3125 43.546875 
Q 18.109375 38.921875 18.109375 30.90625 
L 18.109375 0 
L 9.078125 0 
L 9.078125 54.6875 
L 18.109375 54.6875 
L 18.109375 46.1875 
Q 21.34375 51.125 25.703125 53.5625 
Q 30.078125 56 35.796875 56 
Q 45.21875 56 50.046875 50.171875 
Q 54.890625 44.34375 54.890625 33.015625 
z
" id="DejaVuSans-110"/>
        <path id="DejaVuSans-32"/>
        <path d="M 9.8125 72.90625 
L 19.671875 72.90625 
L 19.671875 43.015625 
L 55.515625 43.015625 
L 55.515625 72.90625 
L 65.375 72.90625 
L 65.375 0 
L 55.515625 0 
L 55.515625 34.71875 
L 19.671875 34.71875 
L 19.671875 0 
L 9.8125 0 
z
" id="DejaVuSans-72"/>
        <path d="M 54.890625 33.015625 
L 54.890625 0 
L 45.90625 0 
L 45.90625 32.71875 
Q 45.90625 40.484375 42.875 44.328125 
Q 39.84375 48.1875 33.796875 48.1875 
Q 26.515625 48.1875 22.3125 43.546875 
Q 18.109375 38.921875 18.109375 30.90625 
L 18.109375 0 
L 9.078125 0 
L 9.078125 75.984375 
L 18.109375 75.984375 
L 18.109375 46.1875 
Q 21.34375 51.125 25.703125 53.5625 
Q 30.078125 56 35.796875 56 
Q 45.21875 56 50.046875 50.171875 
Q 54.890625 44.34375 54.890625 33.015625 
z
" id="DejaVuSans-104"/>
       </defs>
       <use xlink:href="#DejaVuSans-73"/>
       <use x="29.492188" xlink:href="#DejaVuSans-114"/>
       <use x="68.855469" xlink:href="#DejaVuSans-114"/>
       <use x="109.96875" xlink:href="#DejaVuSans-105"/>
       <use x="137.751953" xlink:href="#DejaVuSans-103"/>
       <use x="201.228516" xlink:href="#DejaVuSans-97"/>
       <use x="262.507812" xlink:href="#DejaVuSans-116"/>
       <use x="301.716797" xlink:href="#DejaVuSans-105"/>
       <use x="329.5" xlink:href="#DejaVuSans-111"/>
       <use x="390.681641" xlink:href="#DejaVuSans-110"/>
       <use x="454.060547" xlink:href="#DejaVuSans-32"/>
       <use x="485.847656" xlink:href="#DejaVuSans-72"/>
       <use x="561.042969" xlink:href="#DejaVuSans-105"/>
       <use x="588.826172" xlink:href="#DejaVuSans-103"/>
       <use x="652.302734" xlink:href="#DejaVuSans-104"/>
      </g>
     </g>
    </g>
    <g id="xtick_2">
     <g id="text_2">
      <!-- Irrigation Intermediate -->
      <g style="fill:#262626;" transform="translate(145.039264 503.420156)rotate(-90)scale(0.165 -0.165)">
       <defs>
        <path d="M 56.203125 29.59375 
L 56.203125 25.203125 
L 14.890625 25.203125 
Q 15.484375 15.921875 20.484375 11.0625 
Q 25.484375 6.203125 34.421875 6.203125 
Q 39.59375 6.203125 44.453125 7.46875 
Q 49.3125 8.734375 54.109375 11.28125 
L 54.109375 2.78125 
Q 49.265625 0.734375 44.1875 -0.34375 
Q 39.109375 -1.421875 33.890625 -1.421875 
Q 20.796875 -1.421875 13.15625 6.1875 
Q 5.515625 13.8125 5.515625 26.8125 
Q 5.515625 40.234375 12.765625 48.109375 
Q 20.015625 56 32.328125 56 
Q 43.359375 56 49.78125 48.890625 
Q 56.203125 41.796875 56.203125 29.59375 
z
M 47.21875 32.234375 
Q 47.125 39.59375 43.09375 43.984375 
Q 39.0625 48.390625 32.421875 48.390625 
Q 24.90625 48.390625 20.390625 44.140625 
Q 15.875 39.890625 15.1875 32.171875 
z
" id="DejaVuSans-101"/>
        <path d="M 52 44.1875 
Q 55.375 50.25 60.0625 53.125 
Q 64.75 56 71.09375 56 
Q 79.640625 56 84.28125 50.015625 
Q 88.921875 44.046875 88.921875 33.015625 
L 88.921875 0 
L 79.890625 0 
L 79.890625 32.71875 
Q 79.890625 40.578125 77.09375 44.375 
Q 74.3125 48.1875 68.609375 48.1875 
Q 61.625 48.1875 57.5625 43.546875 
Q 53.515625 38.921875 53.515625 30.90625 
L 53.515625 0 
L 44.484375 0 
L 44.484375 32.71875 
Q 44.484375 40.625 41.703125 44.40625 
Q 38.921875 48.1875 33.109375 48.1875 
Q 26.21875 48.1875 22.15625 43.53125 
Q 18.109375 38.875 18.109375 30.90625 
L 18.109375 0 
L 9.078125 0 
L 9.078125 54.6875 
L 18.109375 54.6875 
L 18.109375 46.1875 
Q 21.1875 51.21875 25.484375 53.609375 
Q 29.78125 56 35.6875 56 
Q 41.65625 56 45.828125 52.96875 
Q 50 49.953125 52 44.1875 
z
" id="DejaVuSans-109"/>
        <path d="M 45.40625 46.390625 
L 45.40625 75.984375 
L 54.390625 75.984375 
L 54.390625 0 
L 45.40625 0 
L 45.40625 8.203125 
Q 42.578125 3.328125 38.25 0.953125 
Q 33.9375 -1.421875 27.875 -1.421875 
Q 17.96875 -1.421875 11.734375 6.484375 
Q 5.515625 14.40625 5.515625 27.296875 
Q 5.515625 40.1875 11.734375 48.09375 
Q 17.96875 56 27.875 56 
Q 33.9375 56 38.25 53.625 
Q 42.578125 51.265625 45.40625 46.390625 
z
M 14.796875 27.296875 
Q 14.796875 17.390625 18.875 11.75 
Q 22.953125 6.109375 30.078125 6.109375 
Q 37.203125 6.109375 41.296875 11.75 
Q 45.40625 17.390625 45.40625 27.296875 
Q 45.40625 37.203125 41.296875 42.84375 
Q 37.203125 48.484375 30.078125 48.484375 
Q 22.953125 48.484375 18.875 42.84375 
Q 14.796875 37.203125 14.796875 27.296875 
z
" id="DejaVuSans-100"/>
       </defs>
       <use xlink:href="#DejaVuSans-73"/>
       <use x="29.492188" xlink:href="#DejaVuSans-114"/>
       <use x="68.855469" xlink:href="#DejaVuSans-114"/>
       <use x="109.96875" xlink:href="#DejaVuSans-105"/>
       <use x="137.751953" xlink:href="#DejaVuSans-103"/>
       <use x="201.228516" xlink:href="#DejaVuSans-97"/>
       <use x="262.507812" xlink:href="#DejaVuSans-116"/>
       <use x="301.716797" xlink:href="#DejaVuSans-105"/>
       <use x="329.5" xlink:href="#DejaVuSans-111"/>
       <use x="390.681641" xlink:href="#DejaVuSans-110"/>
       <use x="454.060547" xlink:href="#DejaVuSans-32"/>
       <use x="485.847656" xlink:href="#DejaVuSans-73"/>
       <use x="515.339844" xlink:href="#DejaVuSans-110"/>
       <use x="578.71875" xlink:href="#DejaVuSans-116"/>
       <use x="617.927734" xlink:href="#DejaVuSans-101"/>
       <use x="679.451172" xlink:href="#DejaVuSans-114"/>
       <use x="718.814453" xlink:href="#DejaVuSans-109"/>
       <use x="816.226562" xlink:href="#DejaVuSans-101"/>
       <use x="877.75" xlink:href="#DejaVuSans-100"/>
       <use x="941.226562" xlink:href="#DejaVuSans-105"/>
       <use x="969.009766" xlink:href="#DejaVuSans-97"/>
       <use x="1030.289062" xlink:href="#DejaVuSans-116"/>
       <use x="1069.498047" xlink:href="#DejaVuSans-101"/>
      </g>
     </g>
    </g>
    <g id="xtick_3">
     <g id="text_3">
      <!-- Rain-fed High -->
      <g style="fill:#262626;" transform="translate(202.085544 428.602969)rotate(-90)scale(0.165 -0.165)">
       <defs>
        <path d="M 44.390625 34.1875 
Q 47.5625 33.109375 50.5625 29.59375 
Q 53.5625 26.078125 56.59375 19.921875 
L 66.609375 0 
L 56 0 
L 46.6875 18.703125 
Q 43.0625 26.03125 39.671875 28.421875 
Q 36.28125 30.8125 30.421875 30.8125 
L 19.671875 30.8125 
L 19.671875 0 
L 9.8125 0 
L 9.8125 72.90625 
L 32.078125 72.90625 
Q 44.578125 72.90625 50.734375 67.671875 
Q 56.890625 62.453125 56.890625 51.90625 
Q 56.890625 45.015625 53.6875 40.46875 
Q 50.484375 35.9375 44.390625 34.1875 
z
M 19.671875 64.796875 
L 19.671875 38.921875 
L 32.078125 38.921875 
Q 39.203125 38.921875 42.84375 42.21875 
Q 46.484375 45.515625 46.484375 51.90625 
Q 46.484375 58.296875 42.84375 61.546875 
Q 39.203125 64.796875 32.078125 64.796875 
z
" id="DejaVuSans-82"/>
        <path d="M 4.890625 31.390625 
L 31.203125 31.390625 
L 31.203125 23.390625 
L 4.890625 23.390625 
z
" id="DejaVuSans-45"/>
        <path d="M 37.109375 75.984375 
L 37.109375 68.5 
L 28.515625 68.5 
Q 23.6875 68.5 21.796875 66.546875 
Q 19.921875 64.59375 19.921875 59.515625 
L 19.921875 54.6875 
L 34.71875 54.6875 
L 34.71875 47.703125 
L 19.921875 47.703125 
L 19.921875 0 
L 10.890625 0 
L 10.890625 47.703125 
L 2.296875 47.703125 
L 2.296875 54.6875 
L 10.890625 54.6875 
L 10.890625 58.5 
Q 10.890625 67.625 15.140625 71.796875 
Q 19.390625 75.984375 28.609375 75.984375 
z
" id="DejaVuSans-102"/>
       </defs>
       <use xlink:href="#DejaVuSans-82"/>
       <use x="67.232422" xlink:href="#DejaVuSans-97"/>
       <use x="128.511719" xlink:href="#DejaVuSans-105"/>
       <use x="156.294922" xlink:href="#DejaVuSans-110"/>
       <use x="219.673828" xlink:href="#DejaVuSans-45"/>
       <use x="255.757812" xlink:href="#DejaVuSans-102"/>
       <use x="290.962891" xlink:href="#DejaVuSans-101"/>
       <use x="352.486328" xlink:href="#DejaVuSans-100"/>
       <use x="415.962891" xlink:href="#DejaVuSans-32"/>
       <use x="447.75" xlink:href="#DejaVuSans-72"/>
       <use x="522.945312" xlink:href="#DejaVuSans-105"/>
       <use x="550.728516" xlink:href="#DejaVuSans-103"/>
       <use x="614.205078" xlink:href="#DejaVuSans-104"/>
      </g>
     </g>
    </g>
    <g id="xtick_4">
     <g id="text_4">
      <!-- Rain-fed Intermediate -->
      <g style="fill:#262626;" transform="translate(259.131824 497.134687)rotate(-90)scale(0.165 -0.165)">
       <use xlink:href="#DejaVuSans-82"/>
       <use x="67.232422" xlink:href="#DejaVuSans-97"/>
       <use x="128.511719" xlink:href="#DejaVuSans-105"/>
       <use x="156.294922" xlink:href="#DejaVuSans-110"/>
       <use x="219.673828" xlink:href="#DejaVuSans-45"/>
       <use x="255.757812" xlink:href="#DejaVuSans-102"/>
       <use x="290.962891" xlink:href="#DejaVuSans-101"/>
       <use x="352.486328" xlink:href="#DejaVuSans-100"/>
       <use x="415.962891" xlink:href="#DejaVuSans-32"/>
       <use x="447.75" xlink:href="#DejaVuSans-73"/>
       <use x="477.242188" xlink:href="#DejaVuSans-110"/>
       <use x="540.621094" xlink:href="#DejaVuSans-116"/>
       <use x="579.830078" xlink:href="#DejaVuSans-101"/>
       <use x="641.353516" xlink:href="#DejaVuSans-114"/>
       <use x="680.716797" xlink:href="#DejaVuSans-109"/>
       <use x="778.128906" xlink:href="#DejaVuSans-101"/>
       <use x="839.652344" xlink:href="#DejaVuSans-100"/>
       <use x="903.128906" xlink:href="#DejaVuSans-105"/>
       <use x="930.912109" xlink:href="#DejaVuSans-97"/>
       <use x="992.191406" xlink:href="#DejaVuSans-116"/>
       <use x="1031.400391" xlink:href="#DejaVuSans-101"/>
      </g>
     </g>
    </g>
    <g id="xtick_5">
     <g id="text_5">
      <!-- Rain-fed Low -->
      <g style="fill:#262626;" transform="translate(316.178104 423.173437)rotate(-90)scale(0.165 -0.165)">
       <defs>
        <path d="M 9.8125 72.90625 
L 19.671875 72.90625 
L 19.671875 8.296875 
L 55.171875 8.296875 
L 55.171875 0 
L 9.8125 0 
z
" id="DejaVuSans-76"/>
        <path d="M 4.203125 54.6875 
L 13.1875 54.6875 
L 24.421875 12.015625 
L 35.59375 54.6875 
L 46.1875 54.6875 
L 57.421875 12.015625 
L 68.609375 54.6875 
L 77.59375 54.6875 
L 63.28125 0 
L 52.6875 0 
L 40.921875 44.828125 
L 29.109375 0 
L 18.5 0 
z
" id="DejaVuSans-119"/>
       </defs>
       <use xlink:href="#DejaVuSans-82"/>
       <use x="67.232422" xlink:href="#DejaVuSans-97"/>
       <use x="128.511719" xlink:href="#DejaVuSans-105"/>
       <use x="156.294922" xlink:href="#DejaVuSans-110"/>
       <use x="219.673828" xlink:href="#DejaVuSans-45"/>
       <use x="255.757812" xlink:href="#DejaVuSans-102"/>
       <use x="290.962891" xlink:href="#DejaVuSans-101"/>
       <use x="352.486328" xlink:href="#DejaVuSans-100"/>
       <use x="415.962891" xlink:href="#DejaVuSans-32"/>
       <use x="447.75" xlink:href="#DejaVuSans-76"/>
       <use x="501.712891" xlink:href="#DejaVuSans-111"/>
       <use x="562.894531" xlink:href="#DejaVuSans-119"/>
      </g>
     </g>
    </g>
   </g>
   <g id="matplotlib.axis_2">
    <g id="ytick_1">
     <g id="text_6">
      <!-- 0 -->
      <g style="fill:#262626;" transform="translate(31.91875 298.187802)scale(0.165 -0.165)">
       <defs>
        <path d="M 31.78125 66.40625 
Q 24.171875 66.40625 20.328125 58.90625 
Q 16.5 51.421875 16.5 36.375 
Q 16.5 21.390625 20.328125 13.890625 
Q 24.171875 6.390625 31.78125 6.390625 
Q 39.453125 6.390625 43.28125 13.890625 
Q 47.125 21.390625 47.125 36.375 
Q 47.125 51.421875 43.28125 58.90625 
Q 39.453125 66.40625 31.78125 66.40625 
z
M 31.78125 74.21875 
Q 44.046875 74.21875 50.515625 64.515625 
Q 56.984375 54.828125 56.984375 36.375 
Q 56.984375 17.96875 50.515625 8.265625 
Q 44.046875 -1.421875 31.78125 -1.421875 
Q 19.53125 -1.421875 13.0625 8.265625 
Q 6.59375 17.96875 6.59375 36.375 
Q 6.59375 54.828125 13.0625 64.515625 
Q 19.53125 74.21875 31.78125 74.21875 
z
" id="DejaVuSans-48"/>
       </defs>
       <use xlink:href="#DejaVuSans-48"/>
      </g>
     </g>
    </g>
    <g id="ytick_2">
     <g id="text_7">
      <!-- 2 -->
      <g style="fill:#262626;" transform="translate(31.91875 247.586353)scale(0.165 -0.165)">
       <defs>
        <path d="M 19.1875 8.296875 
L 53.609375 8.296875 
L 53.609375 0 
L 7.328125 0 
L 7.328125 8.296875 
Q 12.9375 14.109375 22.625 23.890625 
Q 32.328125 33.6875 34.8125 36.53125 
Q 39.546875 41.84375 41.421875 45.53125 
Q 43.3125 49.21875 43.3125 52.78125 
Q 43.3125 58.59375 39.234375 62.25 
Q 35.15625 65.921875 28.609375 65.921875 
Q 23.96875 65.921875 18.8125 64.3125 
Q 13.671875 62.703125 7.8125 59.421875 
L 7.8125 69.390625 
Q 13.765625 71.78125 18.9375 73 
Q 24.125 74.21875 28.421875 74.21875 
Q 39.75 74.21875 46.484375 68.546875 
Q 53.21875 62.890625 53.21875 53.421875 
Q 53.21875 48.921875 51.53125 44.890625 
Q 49.859375 40.875 45.40625 35.40625 
Q 44.1875 33.984375 37.640625 27.21875 
Q 31.109375 20.453125 19.1875 8.296875 
z
" id="DejaVuSans-50"/>
       </defs>
       <use xlink:href="#DejaVuSans-50"/>
      </g>
     </g>
    </g>
    <g id="ytick_3">
     <g id="text_8">
      <!-- 4 -->
      <g style="fill:#262626;" transform="translate(31.91875 196.984904)scale(0.165 -0.165)">
       <defs>
        <path d="M 37.796875 64.3125 
L 12.890625 25.390625 
L 37.796875 25.390625 
z
M 35.203125 72.90625 
L 47.609375 72.90625 
L 47.609375 25.390625 
L 58.015625 25.390625 
L 58.015625 17.1875 
L 47.609375 17.1875 
L 47.609375 0 
L 37.796875 0 
L 37.796875 17.1875 
L 4.890625 17.1875 
L 4.890625 26.703125 
z
" id="DejaVuSans-52"/>
       </defs>
       <use xlink:href="#DejaVuSans-52"/>
      </g>
     </g>
    </g>
    <g id="ytick_4">
     <g id="text_9">
      <!-- 6 -->
      <g style="fill:#262626;" transform="translate(31.91875 146.383456)scale(0.165 -0.165)">
       <defs>
        <path d="M 33.015625 40.375 
Q 26.375 40.375 22.484375 35.828125 
Q 18.609375 31.296875 18.609375 23.390625 
Q 18.609375 15.53125 22.484375 10.953125 
Q 26.375 6.390625 33.015625 6.390625 
Q 39.65625 6.390625 43.53125 10.953125 
Q 47.40625 15.53125 47.40625 23.390625 
Q 47.40625 31.296875 43.53125 35.828125 
Q 39.65625 40.375 33.015625 40.375 
z
M 52.59375 71.296875 
L 52.59375 62.3125 
Q 48.875 64.0625 45.09375 64.984375 
Q 41.3125 65.921875 37.59375 65.921875 
Q 27.828125 65.921875 22.671875 59.328125 
Q 17.53125 52.734375 16.796875 39.40625 
Q 19.671875 43.65625 24.015625 45.921875 
Q 28.375 48.1875 33.59375 48.1875 
Q 44.578125 48.1875 50.953125 41.515625 
Q 57.328125 34.859375 57.328125 23.390625 
Q 57.328125 12.15625 50.6875 5.359375 
Q 44.046875 -1.421875 33.015625 -1.421875 
Q 20.359375 -1.421875 13.671875 8.265625 
Q 6.984375 17.96875 6.984375 36.375 
Q 6.984375 53.65625 15.1875 63.9375 
Q 23.390625 74.21875 37.203125 74.21875 
Q 40.921875 74.21875 44.703125 73.484375 
Q 48.484375 72.75 52.59375 71.296875 
z
" id="DejaVuSans-54"/>
       </defs>
       <use xlink:href="#DejaVuSans-54"/>
      </g>
     </g>
    </g>
    <g id="ytick_5">
     <g id="text_10">
      <!-- 8 -->
      <g style="fill:#262626;" transform="translate(31.91875 95.782007)scale(0.165 -0.165)">
       <defs>
        <path d="M 31.78125 34.625 
Q 24.75 34.625 20.71875 30.859375 
Q 16.703125 27.09375 16.703125 20.515625 
Q 16.703125 13.921875 20.71875 10.15625 
Q 24.75 6.390625 31.78125 6.390625 
Q 38.8125 6.390625 42.859375 10.171875 
Q 46.921875 13.96875 46.921875 20.515625 
Q 46.921875 27.09375 42.890625 30.859375 
Q 38.875 34.625 31.78125 34.625 
z
M 21.921875 38.8125 
Q 15.578125 40.375 12.03125 44.71875 
Q 8.5 49.078125 8.5 55.328125 
Q 8.5 64.0625 14.71875 69.140625 
Q 20.953125 74.21875 31.78125 74.21875 
Q 42.671875 74.21875 48.875 69.140625 
Q 55.078125 64.0625 55.078125 55.328125 
Q 55.078125 49.078125 51.53125 44.71875 
Q 48 40.375 41.703125 38.8125 
Q 48.828125 37.15625 52.796875 32.3125 
Q 56.78125 27.484375 56.78125 20.515625 
Q 56.78125 9.90625 50.3125 4.234375 
Q 43.84375 -1.421875 31.78125 -1.421875 
Q 19.734375 -1.421875 13.25 4.234375 
Q 6.78125 9.90625 6.78125 20.515625 
Q 6.78125 27.484375 10.78125 32.3125 
Q 14.796875 37.15625 21.921875 38.8125 
z
M 18.3125 54.390625 
Q 18.3125 48.734375 21.84375 45.5625 
Q 25.390625 42.390625 31.78125 42.390625 
Q 38.140625 42.390625 41.71875 45.5625 
Q 45.3125 48.734375 45.3125 54.390625 
Q 45.3125 60.0625 41.71875 63.234375 
Q 38.140625 66.40625 31.78125 66.40625 
Q 25.390625 66.40625 21.84375 63.234375 
Q 18.3125 60.0625 18.3125 54.390625 
z
" id="DejaVuSans-56"/>
       </defs>
       <use xlink:href="#DejaVuSans-56"/>
      </g>
     </g>
    </g>
    <g id="ytick_6">
     <g id="text_11">
      <!-- 10 -->
      <g style="fill:#262626;" transform="translate(21.420625 45.180558)scale(0.165 -0.165)">
       <defs>
        <path d="M 12.40625 8.296875 
L 28.515625 8.296875 
L 28.515625 63.921875 
L 10.984375 60.40625 
L 10.984375 69.390625 
L 28.421875 72.90625 
L 38.28125 72.90625 
L 38.28125 8.296875 
L 54.390625 8.296875 
L 54.390625 0 
L 12.40625 0 
z
" id="DejaVuSans-49"/>
       </defs>
       <use xlink:href="#DejaVuSans-49"/>
       <use x="63.623047" xlink:href="#DejaVuSans-48"/>
      </g>
     </g>
    </g>
    <g id="text_12">
     <!-- Yield (t/ha) -->
     <g style="fill:#262626;" transform="translate(13.677188 217.195156)rotate(-90)scale(0.18 -0.18)">
      <defs>
       <path d="M -0.203125 72.90625 
L 10.40625 72.90625 
L 30.609375 42.921875 
L 50.6875 72.90625 
L 61.28125 72.90625 
L 35.5 34.71875 
L 35.5 0 
L 25.59375 0 
L 25.59375 34.71875 
z
" id="DejaVuSans-89"/>
       <path d="M 9.421875 75.984375 
L 18.40625 75.984375 
L 18.40625 0 
L 9.421875 0 
z
" id="DejaVuSans-108"/>
       <path d="M 31 75.875 
Q 24.46875 64.65625 21.28125 53.65625 
Q 18.109375 42.671875 18.109375 31.390625 
Q 18.109375 20.125 21.3125 9.0625 
Q 24.515625 -2 31 -13.1875 
L 23.1875 -13.1875 
Q 15.875 -1.703125 12.234375 9.375 
Q 8.59375 20.453125 8.59375 31.390625 
Q 8.59375 42.28125 12.203125 53.3125 
Q 15.828125 64.359375 23.1875 75.875 
z
" id="DejaVuSans-40"/>
       <path d="M 25.390625 72.90625 
L 33.6875 72.90625 
L 8.296875 -9.28125 
L 0 -9.28125 
z
" id="DejaVuSans-47"/>
       <path d="M 8.015625 75.875 
L 15.828125 75.875 
Q 23.140625 64.359375 26.78125 53.3125 
Q 30.421875 42.28125 30.421875 31.390625 
Q 30.421875 20.453125 26.78125 9.375 
Q 23.140625 -1.703125 15.828125 -13.1875 
L 8.015625 -13.1875 
Q 14.5 -2 17.703125 9.0625 
Q 20.90625 20.125 20.90625 31.390625 
Q 20.90625 42.671875 17.703125 53.65625 
Q 14.5 64.65625 8.015625 75.875 
z
" id="DejaVuSans-41"/>
      </defs>
      <use xlink:href="#DejaVuSans-89"/>
      <use x="57.458984" xlink:href="#DejaVuSans-105"/>
      <use x="85.242188" xlink:href="#DejaVuSans-101"/>
      <use x="146.765625" xlink:href="#DejaVuSans-108"/>
      <use x="174.548828" xlink:href="#DejaVuSans-100"/>
      <use x="238.025391" xlink:href="#DejaVuSans-32"/>
      <use x="269.8125" xlink:href="#DejaVuSans-40"/>
      <use x="308.826172" xlink:href="#DejaVuSans-116"/>
      <use x="348.035156" xlink:href="#DejaVuSans-47"/>
      <use x="381.726562" xlink:href="#DejaVuSans-104"/>
      <use x="445.105469" xlink:href="#DejaVuSans-97"/>
      <use x="506.384766" xlink:href="#DejaVuSans-41"/>
     </g>
    </g>
   </g>
   <g id="PolyCollection_1">
    <defs>
     <path d="M 83.440015 -211.501065 
L 60.621503 -211.501065 
L 67.11117 -214.002259 
L 71.636353 -216.503453 
L 72.02488 -219.004647 
L 72.030743 -221.50584 
L 72.030759 -224.007034 
L 72.030759 -226.508228 
L 72.030759 -229.009422 
L 72.030759 -231.510615 
L 72.030759 -234.011809 
L 72.030759 -236.513003 
L 72.030759 -239.014197 
L 72.030759 -241.51539 
L 72.030759 -244.016584 
L 72.030758 -246.517778 
L 72.030715 -249.018972 
L 72.030335 -251.520165 
L 72.029608 -254.021359 
L 72.029361 -256.522553 
L 72.029627 -259.023747 
L 72.029298 -261.52494 
L 72.029141 -264.026134 
L 72.029895 -266.527328 
L 72.030107 -269.028522 
L 72.030317 -271.529715 
L 72.029596 -274.030909 
L 72.028655 -276.532103 
L 72.029714 -279.033297 
L 72.030141 -281.534491 
L 72.028721 -284.035684 
L 72.027939 -286.536878 
L 72.029171 -289.038072 
L 72.028531 -291.539266 
L 72.027402 -294.040459 
L 72.025803 -296.541653 
L 72.024673 -299.042847 
L 72.02713 -301.544041 
L 72.027976 -304.045234 
L 72.027577 -306.546428 
L 72.027521 -309.047622 
L 72.027366 -311.548816 
L 72.028474 -314.050009 
L 72.029294 -316.551203 
L 72.028708 -319.052397 
L 72.026737 -321.553591 
L 72.027358 -324.054784 
L 72.029434 -326.555978 
L 72.030073 -329.057172 
L 72.030418 -331.558366 
L 72.030543 -334.059559 
L 72.029642 -336.560753 
L 72.028664 -339.061947 
L 72.028295 -341.563141 
L 72.028324 -344.064334 
L 72.028508 -346.565528 
L 72.028008 -349.066722 
L 72.026677 -351.567916 
L 72.025815 -354.069109 
L 72.025777 -356.570303 
L 72.026751 -359.071497 
L 72.027638 -361.572691 
L 72.028065 -364.073884 
L 72.027825 -366.575078 
L 72.027993 -369.076272 
L 72.029373 -371.577466 
L 72.029263 -374.078659 
L 72.029102 -376.579853 
L 72.029225 -379.081047 
L 72.029174 -381.582241 
L 72.029872 -384.083434 
L 72.029104 -386.584628 
L 72.027498 -389.085822 
L 72.026954 -391.587016 
L 72.026658 -394.08821 
L 72.0284 -396.589403 
L 72.029403 -399.090597 
L 72.027882 -401.591791 
L 72.026877 -404.092985 
L 72.028533 -406.594178 
L 72.028763 -409.095372 
L 72.028339 -411.596566 
L 72.027624 -414.09776 
L 72.026932 -416.598953 
L 72.026787 -419.100147 
L 72.027372 -421.601341 
L 72.027302 -424.102535 
L 72.02777 -426.603728 
L 72.029922 -429.104922 
L 72.030652 -431.606116 
L 72.029962 -434.10731 
L 72.028192 -436.608503 
L 72.028853 -439.109697 
L 72.030437 -441.610891 
L 72.030747 -444.112085 
L 72.030759 -446.613278 
L 72.030759 -449.114472 
L 72.030725 -451.615666 
L 72.030103 -454.11686 
L 72.027988 -456.618053 
L 72.028078 -459.119247 
L 72.03344 -459.119247 
L 72.03344 -459.119247 
L 72.03353 -456.618053 
L 72.031415 -454.11686 
L 72.030793 -451.615666 
L 72.030759 -449.114472 
L 72.030759 -446.613278 
L 72.030771 -444.112085 
L 72.031081 -441.610891 
L 72.032665 -439.109697 
L 72.033326 -436.608503 
L 72.031556 -434.10731 
L 72.030866 -431.606116 
L 72.031596 -429.104922 
L 72.033748 -426.603728 
L 72.034216 -424.102535 
L 72.034146 -421.601341 
L 72.034731 -419.100147 
L 72.034586 -416.598953 
L 72.033894 -414.09776 
L 72.033179 -411.596566 
L 72.032755 -409.095372 
L 72.032985 -406.594178 
L 72.034641 -404.092985 
L 72.033636 -401.591791 
L 72.032115 -399.090597 
L 72.033118 -396.589403 
L 72.03486 -394.08821 
L 72.034564 -391.587016 
L 72.03402 -389.085822 
L 72.032414 -386.584628 
L 72.031646 -384.083434 
L 72.032344 -381.582241 
L 72.032293 -379.081047 
L 72.032416 -376.579853 
L 72.032255 -374.078659 
L 72.032145 -371.577466 
L 72.033525 -369.076272 
L 72.033693 -366.575078 
L 72.033453 -364.073884 
L 72.03388 -361.572691 
L 72.034767 -359.071497 
L 72.035741 -356.570303 
L 72.035703 -354.069109 
L 72.034841 -351.567916 
L 72.03351 -349.066722 
L 72.03301 -346.565528 
L 72.033194 -344.064334 
L 72.033223 -341.563141 
L 72.032854 -339.061947 
L 72.031876 -336.560753 
L 72.030975 -334.059559 
L 72.0311 -331.558366 
L 72.031445 -329.057172 
L 72.032084 -326.555978 
L 72.03416 -324.054784 
L 72.034781 -321.553591 
L 72.03281 -319.052397 
L 72.032224 -316.551203 
L 72.033044 -314.050009 
L 72.034152 -311.548816 
L 72.033997 -309.047622 
L 72.033941 -306.546428 
L 72.033542 -304.045234 
L 72.034388 -301.544041 
L 72.036845 -299.042847 
L 72.035715 -296.541653 
L 72.034116 -294.040459 
L 72.032987 -291.539266 
L 72.032347 -289.038072 
L 72.033579 -286.536878 
L 72.032797 -284.035684 
L 72.031377 -281.534491 
L 72.031804 -279.033297 
L 72.032863 -276.532103 
L 72.031922 -274.030909 
L 72.031201 -271.529715 
L 72.031411 -269.028522 
L 72.031623 -266.527328 
L 72.032377 -264.026134 
L 72.03222 -261.52494 
L 72.031891 -259.023747 
L 72.032157 -256.522553 
L 72.03191 -254.021359 
L 72.031183 -251.520165 
L 72.030803 -249.018972 
L 72.03076 -246.517778 
L 72.030759 -244.016584 
L 72.030759 -241.51539 
L 72.030759 -239.014197 
L 72.030759 -236.513003 
L 72.030759 -234.011809 
L 72.030759 -231.510615 
L 72.030759 -229.009422 
L 72.030759 -226.508228 
L 72.030759 -224.007034 
L 72.030775 -221.50584 
L 72.036638 -219.004647 
L 72.425165 -216.503453 
L 76.950348 -214.002259 
L 83.440015 -211.501065 
z
" id="m3ec711fd19" style="stroke:#545454;stroke-width:2.5;"/>
    </defs>
    <g clip-path="url(#pdb678836b0)">
     <use style="fill:#597dbf;stroke:#545454;stroke-width:2.5;" x="0" xlink:href="#m3ec711fd19" y="503.420156"/>
    </g>
   </g>
   <g id="PolyCollection_2">
    <defs>
     <path d="M 97.612068 -211.501065 
L 92.086474 -211.501065 
L 92.085326 -211.706598 
L 92.087385 -211.912131 
L 92.092621 -212.117664 
L 92.100992 -212.323197 
L 92.112441 -212.52873 
L 92.126901 -212.734263 
L 92.144291 -212.939796 
L 92.164519 -213.145329 
L 92.187484 -213.350862 
L 92.213072 -213.556395 
L 92.241161 -213.761928 
L 92.271621 -213.967461 
L 92.304311 -214.172994 
L 92.339085 -214.378527 
L 92.37579 -214.584059 
L 92.414267 -214.789592 
L 92.454354 -214.995125 
L 92.495884 -215.200658 
L 92.538686 -215.406191 
L 92.58259 -215.611724 
L 92.627424 -215.817257 
L 92.673016 -216.02279 
L 92.719195 -216.228323 
L 92.765792 -216.433856 
L 92.81264 -216.639389 
L 92.859578 -216.844922 
L 92.906447 -217.050455 
L 92.953094 -217.255988 
L 92.999372 -217.461521 
L 93.045141 -217.667054 
L 93.090266 -217.872587 
L 93.134623 -218.07812 
L 93.178092 -218.283652 
L 93.220565 -218.489185 
L 93.261939 -218.694718 
L 93.302125 -218.900251 
L 93.341039 -219.105784 
L 93.378607 -219.311317 
L 93.414766 -219.51685 
L 93.449461 -219.722383 
L 93.482648 -219.927916 
L 93.51429 -220.133449 
L 93.544361 -220.338982 
L 93.572843 -220.544515 
L 93.599727 -220.750048 
L 93.625012 -220.955581 
L 93.648706 -221.161114 
L 93.670823 -221.366647 
L 93.691386 -221.57218 
L 93.710424 -221.777713 
L 93.727973 -221.983245 
L 93.744073 -222.188778 
L 93.758772 -222.394311 
L 93.772122 -222.599844 
L 93.784178 -222.805377 
L 93.795002 -223.01091 
L 93.804658 -223.216443 
L 93.813211 -223.421976 
L 93.820732 -223.627509 
L 93.827291 -223.833042 
L 93.832963 -224.038575 
L 93.83782 -224.244108 
L 93.841938 -224.449641 
L 93.845392 -224.655174 
L 93.848257 -224.860707 
L 93.850608 -225.06624 
L 93.852518 -225.271773 
L 93.85406 -225.477306 
L 93.855305 -225.682838 
L 93.856324 -225.888371 
L 93.857182 -226.093904 
L 93.857947 -226.299437 
L 93.85868 -226.50497 
L 93.859443 -226.710503 
L 93.860292 -226.916036 
L 93.861284 -227.121569 
L 93.862469 -227.327102 
L 93.863896 -227.532635 
L 93.865611 -227.738168 
L 93.867657 -227.943701 
L 93.870071 -228.149234 
L 93.872891 -228.354767 
L 93.876148 -228.5603 
L 93.879871 -228.765833 
L 93.884087 -228.971366 
L 93.888817 -229.176899 
L 93.894081 -229.382431 
L 93.899895 -229.587964 
L 93.906271 -229.793497 
L 93.91322 -229.99903 
L 93.920747 -230.204563 
L 93.928857 -230.410096 
L 93.937551 -230.615629 
L 93.946827 -230.821162 
L 93.956679 -231.026695 
L 93.967101 -231.232228 
L 93.978084 -231.437761 
L 93.989615 -231.643294 
L 94.00168 -231.848827 
L 95.696862 -231.848827 
L 95.696862 -231.848827 
L 95.708927 -231.643294 
L 95.720458 -231.437761 
L 95.731441 -231.232228 
L 95.741863 -231.026695 
L 95.751715 -230.821162 
L 95.760991 -230.615629 
L 95.769685 -230.410096 
L 95.777795 -230.204563 
L 95.785322 -229.99903 
L 95.792271 -229.793497 
L 95.798647 -229.587964 
L 95.804461 -229.382431 
L 95.809725 -229.176899 
L 95.814455 -228.971366 
L 95.818671 -228.765833 
L 95.822394 -228.5603 
L 95.825651 -228.354767 
L 95.828471 -228.149234 
L 95.830885 -227.943701 
L 95.832931 -227.738168 
L 95.834646 -227.532635 
L 95.836073 -227.327102 
L 95.837258 -227.121569 
L 95.83825 -226.916036 
L 95.839099 -226.710503 
L 95.839862 -226.50497 
L 95.840595 -226.299437 
L 95.84136 -226.093904 
L 95.842218 -225.888371 
L 95.843237 -225.682838 
L 95.844482 -225.477306 
L 95.846024 -225.271773 
L 95.847934 -225.06624 
L 95.850285 -224.860707 
L 95.85315 -224.655174 
L 95.856604 -224.449641 
L 95.860722 -224.244108 
L 95.865579 -224.038575 
L 95.871251 -223.833042 
L 95.87781 -223.627509 
L 95.885331 -223.421976 
L 95.893884 -223.216443 
L 95.90354 -223.01091 
L 95.914364 -222.805377 
L 95.92642 -222.599844 
L 95.93977 -222.394311 
L 95.954469 -222.188778 
L 95.970569 -221.983245 
L 95.988118 -221.777713 
L 96.007156 -221.57218 
L 96.027719 -221.366647 
L 96.049836 -221.161114 
L 96.07353 -220.955581 
L 96.098815 -220.750048 
L 96.125699 -220.544515 
L 96.154181 -220.338982 
L 96.184252 -220.133449 
L 96.215894 -219.927916 
L 96.249081 -219.722383 
L 96.283776 -219.51685 
L 96.319935 -219.311317 
L 96.357503 -219.105784 
L 96.396417 -218.900251 
L 96.436603 -218.694718 
L 96.477977 -218.489185 
L 96.52045 -218.283652 
L 96.563919 -218.07812 
L 96.608276 -217.872587 
L 96.653401 -217.667054 
L 96.69917 -217.461521 
L 96.745448 -217.255988 
L 96.792095 -217.050455 
L 96.838964 -216.844922 
L 96.885902 -216.639389 
L 96.93275 -216.433856 
L 96.979347 -216.228323 
L 97.025526 -216.02279 
L 97.071118 -215.817257 
L 97.115952 -215.611724 
L 97.159856 -215.406191 
L 97.202658 -215.200658 
L 97.244188 -214.995125 
L 97.284275 -214.789592 
L 97.322752 -214.584059 
L 97.359457 -214.378527 
L 97.394231 -214.172994 
L 97.426921 -213.967461 
L 97.457381 -213.761928 
L 97.48547 -213.556395 
L 97.511058 -213.350862 
L 97.534023 -213.145329 
L 97.554251 -212.939796 
L 97.571641 -212.734263 
L 97.586101 -212.52873 
L 97.59755 -212.323197 
L 97.605921 -212.117664 
L 97.611157 -211.912131 
L 97.613216 -211.706598 
L 97.612068 -211.501065 
z
" id="m700de573ef" style="stroke:#545454;stroke-width:2.5;"/>
    </defs>
    <g clip-path="url(#pdb678836b0)">
     <use style="fill:#d98b5f;stroke:#545454;stroke-width:2.5;" x="0" xlink:href="#m700de573ef" y="503.420156"/>
    </g>
   </g>
   <g id="PolyCollection_3">
    <defs>
     <path d="M 140.486295 -211.501065 
L 117.667783 -211.501065 
L 124.061122 -213.071755 
L 128.650823 -214.642444 
L 129.070039 -216.213134 
L 129.077017 -217.783823 
L 129.077039 -219.354512 
L 129.077039 -220.925202 
L 129.077039 -222.495891 
L 129.077039 -224.06658 
L 129.077039 -225.63727 
L 129.077039 -227.207959 
L 129.077039 -228.778649 
L 129.077039 -230.349338 
L 129.077039 -231.920027 
L 129.077039 -233.490717 
L 129.077017 -235.061406 
L 129.076719 -236.632096 
L 129.075809 -238.202785 
L 129.075585 -239.773474 
L 129.076162 -241.344164 
L 129.075812 -242.914853 
L 129.075351 -244.485543 
L 129.075917 -246.056232 
L 129.07637 -247.626921 
L 129.076526 -249.197611 
L 129.076353 -250.7683 
L 129.075123 -252.338989 
L 129.075363 -253.909679 
L 129.076212 -255.480368 
L 129.075486 -257.051058 
L 129.07466 -258.621747 
L 129.075053 -260.192436 
L 129.075544 -261.763126 
L 129.074077 -263.333815 
L 129.073333 -264.904505 
L 129.071001 -266.475194 
L 129.071961 -268.045883 
L 129.074065 -269.616573 
L 129.074119 -271.187262 
L 129.073838 -272.757952 
L 129.073729 -274.328641 
L 129.073884 -275.89933 
L 129.07517 -277.47002 
L 129.075598 -279.040709 
L 129.074439 -280.611399 
L 129.072832 -282.182088 
L 129.074214 -283.752777 
L 129.076031 -285.323467 
L 129.076401 -286.894156 
L 129.076785 -288.464845 
L 129.076736 -290.035535 
L 129.075691 -291.606224 
L 129.074884 -293.176914 
L 129.074545 -294.747603 
L 129.074666 -296.318292 
L 129.074771 -297.888982 
L 129.074219 -299.459671 
L 129.072853 -301.030361 
L 129.07209 -302.60105 
L 129.072111 -304.171739 
L 129.073092 -305.742429 
L 129.073938 -307.313118 
L 129.074348 -308.883808 
L 129.074133 -310.454497 
L 129.074249 -312.025186 
L 129.075623 -313.595876 
L 129.075599 -315.166565 
L 129.075347 -316.737254 
L 129.075538 -318.307944 
L 129.075391 -319.878633 
L 129.076042 -321.449323 
L 129.075138 -323.020012 
L 129.073687 -324.590701 
L 129.073367 -326.161391 
L 129.073378 -327.73208 
L 129.074405 -329.30277 
L 129.075279 -330.873459 
L 129.074694 -332.444148 
L 129.073335 -334.014838 
L 129.073632 -335.585527 
L 129.074997 -337.156217 
L 129.075559 -338.726906 
L 129.074205 -340.297595 
L 129.073087 -341.868285 
L 129.073217 -343.438974 
L 129.071892 -345.009664 
L 129.072275 -346.580353 
L 129.075442 -348.151042 
L 129.076832 -349.721732 
L 129.076228 -351.292421 
L 129.074478 -352.86311 
L 129.075102 -354.4338 
L 129.076693 -356.004489 
L 129.077025 -357.575179 
L 129.077039 -359.145868 
L 129.077039 -360.716557 
L 129.077002 -362.287247 
L 129.076363 -363.857936 
L 129.074265 -365.428626 
L 129.074337 -366.999315 
L 129.079741 -366.999315 
L 129.079741 -366.999315 
L 129.079813 -365.428626 
L 129.077715 -363.857936 
L 129.077076 -362.287247 
L 129.077039 -360.716557 
L 129.077039 -359.145868 
L 129.077053 -357.575179 
L 129.077385 -356.004489 
L 129.078976 -354.4338 
L 129.0796 -352.86311 
L 129.07785 -351.292421 
L 129.077246 -349.721732 
L 129.078636 -348.151042 
L 129.081803 -346.580353 
L 129.082186 -345.009664 
L 129.080861 -343.438974 
L 129.080991 -341.868285 
L 129.079873 -340.297595 
L 129.078519 -338.726906 
L 129.079081 -337.156217 
L 129.080446 -335.585527 
L 129.080743 -334.014838 
L 129.079384 -332.444148 
L 129.078799 -330.873459 
L 129.079673 -329.30277 
L 129.0807 -327.73208 
L 129.080711 -326.161391 
L 129.080391 -324.590701 
L 129.07894 -323.020012 
L 129.078036 -321.449323 
L 129.078687 -319.878633 
L 129.07854 -318.307944 
L 129.078731 -316.737254 
L 129.078479 -315.166565 
L 129.078455 -313.595876 
L 129.079829 -312.025186 
L 129.079945 -310.454497 
L 129.07973 -308.883808 
L 129.08014 -307.313118 
L 129.080986 -305.742429 
L 129.081967 -304.171739 
L 129.081988 -302.60105 
L 129.081225 -301.030361 
L 129.079859 -299.459671 
L 129.079307 -297.888982 
L 129.079412 -296.318292 
L 129.079533 -294.747603 
L 129.079194 -293.176914 
L 129.078387 -291.606224 
L 129.077342 -290.035535 
L 129.077293 -288.464845 
L 129.077677 -286.894156 
L 129.078047 -285.323467 
L 129.079864 -283.752777 
L 129.081246 -282.182088 
L 129.079639 -280.611399 
L 129.07848 -279.040709 
L 129.078908 -277.47002 
L 129.080194 -275.89933 
L 129.080349 -274.328641 
L 129.08024 -272.757952 
L 129.079959 -271.187262 
L 129.080013 -269.616573 
L 129.082117 -268.045883 
L 129.083077 -266.475194 
L 129.080745 -264.904505 
L 129.080001 -263.333815 
L 129.078534 -261.763126 
L 129.079025 -260.192436 
L 129.079418 -258.621747 
L 129.078592 -257.051058 
L 129.077866 -255.480368 
L 129.078715 -253.909679 
L 129.078955 -252.338989 
L 129.077725 -250.7683 
L 129.077552 -249.197611 
L 129.077708 -247.626921 
L 129.078161 -246.056232 
L 129.078727 -244.485543 
L 129.078266 -242.914853 
L 129.077916 -241.344164 
L 129.078493 -239.773474 
L 129.078269 -238.202785 
L 129.077359 -236.632096 
L 129.077061 -235.061406 
L 129.077039 -233.490717 
L 129.077039 -231.920027 
L 129.077039 -230.349338 
L 129.077039 -228.778649 
L 129.077039 -227.207959 
L 129.077039 -225.63727 
L 129.077039 -224.06658 
L 129.077039 -222.495891 
L 129.077039 -220.925202 
L 129.077039 -219.354512 
L 129.077061 -217.783823 
L 129.084039 -216.213134 
L 129.503255 -214.642444 
L 134.092956 -213.071755 
L 140.486295 -211.501065 
z
" id="mab63cc6e59" style="stroke:#545454;stroke-width:2.5;"/>
    </defs>
    <g clip-path="url(#pdb678836b0)">
     <use style="fill:#597dbf;stroke:#545454;stroke-width:2.5;" x="0" xlink:href="#mab63cc6e59" y="503.420156"/>
    </g>
   </g>
   <g id="PolyCollection_4">
    <defs>
     <path d="M 154.656442 -211.501065 
L 149.13466 -211.501065 
L 149.133522 -211.631685 
L 149.135589 -211.762304 
L 149.140829 -211.892924 
L 149.1492 -212.023543 
L 149.160646 -212.154163 
L 149.175098 -212.284782 
L 149.192478 -212.415402 
L 149.212692 -212.546021 
L 149.23564 -212.676641 
L 149.261209 -212.80726 
L 149.289276 -212.93788 
L 149.319711 -213.068499 
L 149.352375 -213.199118 
L 149.38712 -213.329738 
L 149.423795 -213.460357 
L 149.462241 -213.590977 
L 149.502295 -213.721596 
L 149.54379 -213.852216 
L 149.586558 -213.982835 
L 149.630427 -214.113455 
L 149.675225 -214.244074 
L 149.720781 -214.374694 
L 149.766924 -214.505313 
L 149.813485 -214.635933 
L 149.860298 -214.766552 
L 149.907201 -214.897172 
L 149.954036 -215.027791 
L 150.00065 -215.158411 
L 150.046896 -215.28903 
L 150.092634 -215.419649 
L 150.137729 -215.550269 
L 150.182056 -215.680888 
L 150.225497 -215.811508 
L 150.267942 -215.942127 
L 150.30929 -216.072747 
L 150.34945 -216.203366 
L 150.388339 -216.333986 
L 150.425884 -216.464605 
L 150.46202 -216.595225 
L 150.496693 -216.725844 
L 150.529857 -216.856464 
L 150.561478 -216.987083 
L 150.591528 -217.117703 
L 150.619989 -217.248322 
L 150.646852 -217.378942 
L 150.672116 -217.509561 
L 150.695788 -217.64018 
L 150.717884 -217.7708 
L 150.738425 -217.901419 
L 150.757441 -218.032039 
L 150.774966 -218.162658 
L 150.791042 -218.293278 
L 150.805716 -218.423897 
L 150.81904 -218.554517 
L 150.83107 -218.685136 
L 150.841866 -218.815756 
L 150.851492 -218.946375 
L 150.860016 -219.076995 
L 150.867506 -219.207614 
L 150.874033 -219.338234 
L 150.879671 -219.468853 
L 150.884495 -219.599472 
L 150.888578 -219.730092 
L 150.891996 -219.860711 
L 150.894825 -219.991331 
L 150.897138 -220.12195 
L 150.89901 -220.25257 
L 150.900514 -220.383189 
L 150.901721 -220.513809 
L 150.9027 -220.644428 
L 150.90352 -220.775048 
L 150.904245 -220.905667 
L 150.90494 -221.036287 
L 150.905664 -221.166906 
L 150.906475 -221.297526 
L 150.907429 -221.428145 
L 150.908578 -221.558765 
L 150.909969 -221.689384 
L 150.91165 -221.820003 
L 150.913661 -221.950623 
L 150.916044 -222.081242 
L 150.918832 -222.211862 
L 150.92206 -222.342481 
L 150.925755 -222.473101 
L 150.929944 -222.60372 
L 150.934649 -222.73434 
L 150.93989 -222.864959 
L 150.945683 -222.995579 
L 150.95204 -223.126198 
L 150.958971 -223.256818 
L 150.966482 -223.387437 
L 150.974578 -223.518057 
L 150.98326 -223.648676 
L 150.992525 -223.779296 
L 151.002369 -223.909915 
L 151.012784 -224.040534 
L 151.023762 -224.171154 
L 151.035289 -224.301773 
L 151.047352 -224.432393 
L 152.74375 -224.432393 
L 152.74375 -224.432393 
L 152.755813 -224.301773 
L 152.76734 -224.171154 
L 152.778318 -224.040534 
L 152.788733 -223.909915 
L 152.798577 -223.779296 
L 152.807842 -223.648676 
L 152.816524 -223.518057 
L 152.82462 -223.387437 
L 152.832131 -223.256818 
L 152.839062 -223.126198 
L 152.845419 -222.995579 
L 152.851212 -222.864959 
L 152.856453 -222.73434 
L 152.861158 -222.60372 
L 152.865347 -222.473101 
L 152.869042 -222.342481 
L 152.87227 -222.211862 
L 152.875058 -222.081242 
L 152.877441 -221.950623 
L 152.879452 -221.820003 
L 152.881133 -221.689384 
L 152.882524 -221.558765 
L 152.883673 -221.428145 
L 152.884627 -221.297526 
L 152.885438 -221.166906 
L 152.886162 -221.036287 
L 152.886857 -220.905667 
L 152.887582 -220.775048 
L 152.888402 -220.644428 
L 152.889381 -220.513809 
L 152.890588 -220.383189 
L 152.892092 -220.25257 
L 152.893964 -220.12195 
L 152.896277 -219.991331 
L 152.899106 -219.860711 
L 152.902524 -219.730092 
L 152.906607 -219.599472 
L 152.911431 -219.468853 
L 152.917069 -219.338234 
L 152.923596 -219.207614 
L 152.931086 -219.076995 
L 152.93961 -218.946375 
L 152.949236 -218.815756 
L 152.960032 -218.685136 
L 152.972062 -218.554517 
L 152.985386 -218.423897 
L 153.00006 -218.293278 
L 153.016136 -218.162658 
L 153.033661 -218.032039 
L 153.052677 -217.901419 
L 153.073218 -217.7708 
L 153.095314 -217.64018 
L 153.118986 -217.509561 
L 153.14425 -217.378942 
L 153.171113 -217.248322 
L 153.199574 -217.117703 
L 153.229624 -216.987083 
L 153.261245 -216.856464 
L 153.294409 -216.725844 
L 153.329082 -216.595225 
L 153.365218 -216.464605 
L 153.402763 -216.333986 
L 153.441652 -216.203366 
L 153.481812 -216.072747 
L 153.52316 -215.942127 
L 153.565605 -215.811508 
L 153.609046 -215.680888 
L 153.653373 -215.550269 
L 153.698468 -215.419649 
L 153.744206 -215.28903 
L 153.790452 -215.158411 
L 153.837066 -215.027791 
L 153.883901 -214.897172 
L 153.930804 -214.766552 
L 153.977617 -214.635933 
L 154.024178 -214.505313 
L 154.070321 -214.374694 
L 154.115877 -214.244074 
L 154.160675 -214.113455 
L 154.204544 -213.982835 
L 154.247312 -213.852216 
L 154.288807 -213.721596 
L 154.328861 -213.590977 
L 154.367307 -213.460357 
L 154.403982 -213.329738 
L 154.438727 -213.199118 
L 154.471391 -213.068499 
L 154.501826 -212.93788 
L 154.529893 -212.80726 
L 154.555462 -212.676641 
L 154.57841 -212.546021 
L 154.598624 -212.415402 
L 154.616004 -212.284782 
L 154.630456 -212.154163 
L 154.641902 -212.023543 
L 154.650273 -211.892924 
L 154.655513 -211.762304 
L 154.65758 -211.631685 
L 154.656442 -211.501065 
z
" id="mb50698a8db" style="stroke:#545454;stroke-width:2.5;"/>
    </defs>
    <g clip-path="url(#pdb678836b0)">
     <use style="fill:#d98b5f;stroke:#545454;stroke-width:2.5;" x="0" xlink:href="#mb50698a8db" y="503.420156"/>
    </g>
   </g>
   <g id="PolyCollection_5">
    <defs>
     <path d="M 197.532575 -211.501065 
L 174.714063 -211.501065 
L 183.940737 -213.464044 
L 186.108039 -215.427022 
L 186.123315 -217.390001 
L 186.123319 -219.352979 
L 186.123319 -221.315958 
L 186.123319 -223.278936 
L 186.123319 -225.241915 
L 186.123319 -227.204893 
L 186.123319 -229.167872 
L 186.123319 -231.13085 
L 186.123319 -233.093829 
L 186.123319 -235.056807 
L 186.123319 -237.019786 
L 186.123319 -238.982764 
L 186.123319 -240.945743 
L 186.123319 -242.908721 
L 186.123319 -244.8717 
L 186.123319 -246.834678 
L 186.123316 -248.797657 
L 186.123124 -250.760635 
L 186.122665 -252.723613 
L 186.122677 -254.686592 
L 186.123081 -256.64957 
L 186.122021 -258.612549 
L 186.121081 -260.575527 
L 186.122346 -262.538506 
L 186.121832 -264.501484 
L 186.122559 -266.464463 
L 186.121802 -268.427441 
L 186.120258 -270.39042 
L 186.120901 -272.353398 
L 186.119365 -274.316377 
L 186.121634 -276.279355 
L 186.121841 -278.242334 
L 186.121136 -280.205312 
L 186.120431 -282.168291 
L 186.119622 -284.131269 
L 186.118657 -286.094248 
L 186.121645 -288.057226 
L 186.121459 -290.020205 
L 186.120582 -291.983183 
L 186.120577 -293.946162 
L 186.119624 -295.90914 
L 186.118687 -297.872119 
L 186.119975 -299.835097 
L 186.119936 -301.798076 
L 186.121943 -303.761054 
L 186.122634 -305.724032 
L 186.12222 -307.687011 
L 186.122718 -309.649989 
L 186.121576 -311.612968 
L 186.121621 -313.575946 
L 186.122098 -315.538925 
L 186.122138 -317.501903 
L 186.121903 -319.464882 
L 186.121594 -321.42786 
L 186.122101 -323.390839 
L 186.122514 -325.353817 
L 186.122176 -327.316796 
L 186.122832 -329.279774 
L 186.122908 -331.242753 
L 186.122337 -333.205731 
L 186.122329 -335.16871 
L 186.122324 -337.131688 
L 186.121553 -339.094667 
L 186.122196 -341.057645 
L 186.12276 -343.020624 
L 186.122915 -344.983602 
L 186.123302 -346.946581 
L 186.123209 -348.909559 
L 186.122735 -350.872538 
L 186.123204 -352.835516 
L 186.12319 -354.798495 
L 186.122737 -356.761473 
L 186.123222 -358.724451 
L 186.123318 -360.68743 
L 186.123319 -362.650408 
L 186.123319 -364.613387 
L 186.123319 -366.576365 
L 186.123319 -368.539344 
L 186.123319 -370.502322 
L 186.12328 -372.465301 
L 186.122468 -374.428279 
L 186.122627 -376.391258 
L 186.123232 -378.354236 
L 186.122756 -380.317215 
L 186.123142 -382.280193 
L 186.123317 -384.243172 
L 186.123299 -386.20615 
L 186.122483 -388.169129 
L 186.12187 -390.132107 
L 186.123213 -392.095086 
L 186.12324 -394.058064 
L 186.122745 -396.021043 
L 186.123165 -397.984021 
L 186.123312 -399.947 
L 186.123025 -401.909978 
L 186.121716 -403.872957 
L 186.121391 -405.835935 
L 186.125247 -405.835935 
L 186.125247 -405.835935 
L 186.124922 -403.872957 
L 186.123613 -401.909978 
L 186.123326 -399.947 
L 186.123473 -397.984021 
L 186.123893 -396.021043 
L 186.123398 -394.058064 
L 186.123425 -392.095086 
L 186.124768 -390.132107 
L 186.124155 -388.169129 
L 186.123339 -386.20615 
L 186.123321 -384.243172 
L 186.123496 -382.280193 
L 186.123882 -380.317215 
L 186.123406 -378.354236 
L 186.124011 -376.391258 
L 186.12417 -374.428279 
L 186.123358 -372.465301 
L 186.123319 -370.502322 
L 186.123319 -368.539344 
L 186.123319 -366.576365 
L 186.123319 -364.613387 
L 186.123319 -362.650408 
L 186.12332 -360.68743 
L 186.123416 -358.724451 
L 186.123901 -356.761473 
L 186.123448 -354.798495 
L 186.123434 -352.835516 
L 186.123903 -350.872538 
L 186.123429 -348.909559 
L 186.123336 -346.946581 
L 186.123723 -344.983602 
L 186.123878 -343.020624 
L 186.124442 -341.057645 
L 186.125085 -339.094667 
L 186.124314 -337.131688 
L 186.124309 -335.16871 
L 186.124301 -333.205731 
L 186.12373 -331.242753 
L 186.123806 -329.279774 
L 186.124462 -327.316796 
L 186.124124 -325.353817 
L 186.124537 -323.390839 
L 186.125044 -321.42786 
L 186.124735 -319.464882 
L 186.1245 -317.501903 
L 186.12454 -315.538925 
L 186.125017 -313.575946 
L 186.125062 -311.612968 
L 186.12392 -309.649989 
L 186.124418 -307.687011 
L 186.124004 -305.724032 
L 186.124695 -303.761054 
L 186.126702 -301.798076 
L 186.126663 -299.835097 
L 186.127951 -297.872119 
L 186.127014 -295.90914 
L 186.126061 -293.946162 
L 186.126056 -291.983183 
L 186.125179 -290.020205 
L 186.124993 -288.057226 
L 186.127981 -286.094248 
L 186.127016 -284.131269 
L 186.126207 -282.168291 
L 186.125502 -280.205312 
L 186.124797 -278.242334 
L 186.125004 -276.279355 
L 186.127273 -274.316377 
L 186.125737 -272.353398 
L 186.12638 -270.39042 
L 186.124836 -268.427441 
L 186.124079 -266.464463 
L 186.124806 -264.501484 
L 186.124292 -262.538506 
L 186.125557 -260.575527 
L 186.124617 -258.612549 
L 186.123557 -256.64957 
L 186.123961 -254.686592 
L 186.123973 -252.723613 
L 186.123514 -250.760635 
L 186.123322 -248.797657 
L 186.123319 -246.834678 
L 186.123319 -244.8717 
L 186.123319 -242.908721 
L 186.123319 -240.945743 
L 186.123319 -238.982764 
L 186.123319 -237.019786 
L 186.123319 -235.056807 
L 186.123319 -233.093829 
L 186.123319 -231.13085 
L 186.123319 -229.167872 
L 186.123319 -227.204893 
L 186.123319 -225.241915 
L 186.123319 -223.278936 
L 186.123319 -221.315958 
L 186.123319 -219.352979 
L 186.123323 -217.390001 
L 186.138599 -215.427022 
L 188.305901 -213.464044 
L 197.532575 -211.501065 
z
" id="m0e5244b6a7" style="stroke:#545454;stroke-width:2.5;"/>
    </defs>
    <g clip-path="url(#pdb678836b0)">
     <use style="fill:#597dbf;stroke:#545454;stroke-width:2.5;" x="0" xlink:href="#m0e5244b6a7" y="503.420156"/>
    </g>
   </g>
   <g id="PolyCollection_6">
    <defs>
     <path d="M 211.246814 -211.501065 
L 206.636848 -211.501065 
L 206.630116 -211.679313 
L 206.62687 -211.857562 
L 206.627119 -212.03581 
L 206.630858 -212.214058 
L 206.638065 -212.392306 
L 206.648703 -212.570554 
L 206.662719 -212.748802 
L 206.680045 -212.92705 
L 206.700598 -213.105298 
L 206.724283 -213.283546 
L 206.750989 -213.461795 
L 206.780594 -213.640043 
L 206.812965 -213.818291 
L 206.847959 -213.996539 
L 206.88542 -214.174787 
L 206.925189 -214.353035 
L 206.967094 -214.531283 
L 207.010961 -214.709531 
L 207.056609 -214.887779 
L 207.103853 -215.066028 
L 207.152505 -215.244276 
L 207.202378 -215.422524 
L 207.253282 -215.600772 
L 207.305027 -215.77902 
L 207.357426 -215.957268 
L 207.410296 -216.135516 
L 207.463454 -216.313764 
L 207.516725 -216.492013 
L 207.569936 -216.670261 
L 207.622924 -216.848509 
L 207.675528 -217.026757 
L 207.727599 -217.205005 
L 207.778992 -217.383253 
L 207.829572 -217.561501 
L 207.879212 -217.739749 
L 207.927796 -217.917997 
L 207.975213 -218.096246 
L 208.021365 -218.274494 
L 208.066162 -218.452742 
L 208.109523 -218.63099 
L 208.151375 -218.809238 
L 208.191658 -218.987486 
L 208.230317 -219.165734 
L 208.267308 -219.343982 
L 208.302594 -219.52223 
L 208.336149 -219.700479 
L 208.367951 -219.878727 
L 208.397989 -220.056975 
L 208.426257 -220.235223 
L 208.452758 -220.413471 
L 208.4775 -220.591719 
L 208.500497 -220.769967 
L 208.521769 -220.948215 
L 208.541341 -221.126463 
L 208.559245 -221.304712 
L 208.575516 -221.48296 
L 208.590192 -221.661208 
L 208.603316 -221.839456 
L 208.614936 -222.017704 
L 208.625101 -222.195952 
L 208.633864 -222.3742 
L 208.64128 -222.552448 
L 208.647408 -222.730696 
L 208.652306 -222.908945 
L 208.656036 -223.087193 
L 208.658661 -223.265441 
L 208.660246 -223.443689 
L 208.660856 -223.621937 
L 208.660558 -223.800185 
L 208.659418 -223.978433 
L 208.657504 -224.156681 
L 208.654884 -224.334929 
L 208.651626 -224.513178 
L 208.647798 -224.691426 
L 208.643467 -224.869674 
L 208.638701 -225.047922 
L 208.633566 -225.22617 
L 208.628128 -225.404418 
L 208.622452 -225.582666 
L 208.616601 -225.760914 
L 208.610637 -225.939163 
L 208.604622 -226.117411 
L 208.598614 -226.295659 
L 208.592671 -226.473907 
L 208.586846 -226.652155 
L 208.581194 -226.830403 
L 208.575763 -227.008651 
L 208.570602 -227.186899 
L 208.565756 -227.365147 
L 208.561266 -227.543396 
L 208.557171 -227.721644 
L 208.553507 -227.899892 
L 208.550305 -228.07814 
L 208.547596 -228.256388 
L 208.545403 -228.434636 
L 208.54375 -228.612884 
L 208.542653 -228.791132 
L 208.542128 -228.96938 
L 208.542186 -229.147629 
L 209.341476 -229.147629 
L 209.341476 -229.147629 
L 209.341534 -228.96938 
L 209.341009 -228.791132 
L 209.339912 -228.612884 
L 209.338259 -228.434636 
L 209.336066 -228.256388 
L 209.333357 -228.07814 
L 209.330155 -227.899892 
L 209.326491 -227.721644 
L 209.322396 -227.543396 
L 209.317906 -227.365147 
L 209.31306 -227.186899 
L 209.307899 -227.008651 
L 209.302468 -226.830403 
L 209.296816 -226.652155 
L 209.290991 -226.473907 
L 209.285048 -226.295659 
L 209.27904 -226.117411 
L 209.273025 -225.939163 
L 209.267061 -225.760914 
L 209.26121 -225.582666 
L 209.255534 -225.404418 
L 209.250096 -225.22617 
L 209.244961 -225.047922 
L 209.240195 -224.869674 
L 209.235864 -224.691426 
L 209.232036 -224.513178 
L 209.228778 -224.334929 
L 209.226158 -224.156681 
L 209.224244 -223.978433 
L 209.223104 -223.800185 
L 209.222806 -223.621937 
L 209.223416 -223.443689 
L 209.225001 -223.265441 
L 209.227626 -223.087193 
L 209.231356 -222.908945 
L 209.236254 -222.730696 
L 209.242382 -222.552448 
L 209.249798 -222.3742 
L 209.258561 -222.195952 
L 209.268726 -222.017704 
L 209.280346 -221.839456 
L 209.29347 -221.661208 
L 209.308146 -221.48296 
L 209.324417 -221.304712 
L 209.342321 -221.126463 
L 209.361893 -220.948215 
L 209.383165 -220.769967 
L 209.406162 -220.591719 
L 209.430904 -220.413471 
L 209.457405 -220.235223 
L 209.485673 -220.056975 
L 209.515711 -219.878727 
L 209.547513 -219.700479 
L 209.581068 -219.52223 
L 209.616354 -219.343982 
L 209.653345 -219.165734 
L 209.692004 -218.987486 
L 209.732287 -218.809238 
L 209.774139 -218.63099 
L 209.8175 -218.452742 
L 209.862297 -218.274494 
L 209.908449 -218.096246 
L 209.955866 -217.917997 
L 210.00445 -217.739749 
L 210.05409 -217.561501 
L 210.10467 -217.383253 
L 210.156063 -217.205005 
L 210.208134 -217.026757 
L 210.260738 -216.848509 
L 210.313726 -216.670261 
L 210.366937 -216.492013 
L 210.420208 -216.313764 
L 210.473366 -216.135516 
L 210.526236 -215.957268 
L 210.578635 -215.77902 
L 210.63038 -215.600772 
L 210.681284 -215.422524 
L 210.731157 -215.244276 
L 210.779809 -215.066028 
L 210.827053 -214.887779 
L 210.872701 -214.709531 
L 210.916568 -214.531283 
L 210.958473 -214.353035 
L 210.998242 -214.174787 
L 211.035703 -213.996539 
L 211.070697 -213.818291 
L 211.103068 -213.640043 
L 211.132673 -213.461795 
L 211.159379 -213.283546 
L 211.183064 -213.105298 
L 211.203617 -212.92705 
L 211.220943 -212.748802 
L 211.234959 -212.570554 
L 211.245597 -212.392306 
L 211.252804 -212.214058 
L 211.256543 -212.03581 
L 211.256792 -211.857562 
L 211.253546 -211.679313 
L 211.246814 -211.501065 
z
" id="m2c5abd9fd5" style="stroke:#545454;stroke-width:2.5;"/>
    </defs>
    <g clip-path="url(#pdb678836b0)">
     <use style="fill:#d98b5f;stroke:#545454;stroke-width:2.5;" x="0" xlink:href="#m2c5abd9fd5" y="503.420156"/>
    </g>
   </g>
   <g id="PolyCollection_7">
    <defs>
     <path d="M 254.578855 -211.501065 
L 231.760343 -211.501065 
L 240.631084 -212.810825 
L 243.141638 -214.120585 
L 243.169584 -215.430345 
L 243.169599 -216.740104 
L 243.169599 -218.049864 
L 243.169599 -219.359624 
L 243.169599 -220.669383 
L 243.169599 -221.979143 
L 243.169599 -223.288903 
L 243.169599 -224.598663 
L 243.169599 -225.908422 
L 243.169599 -227.218182 
L 243.169599 -228.527942 
L 243.169599 -229.837701 
L 243.169599 -231.147461 
L 243.169599 -232.457221 
L 243.169599 -233.766981 
L 243.169598 -235.07674 
L 243.169459 -236.3865 
L 243.168553 -237.69626 
L 243.168727 -239.006019 
L 243.168764 -240.315779 
L 243.168823 -241.625539 
L 243.168722 -242.935299 
L 243.16784 -244.245058 
L 243.167616 -245.554818 
L 243.16801 -246.864578 
L 243.16693 -248.174338 
L 243.168072 -249.484097 
L 243.168124 -250.793857 
L 243.167224 -252.103617 
L 243.166506 -253.413376 
L 243.166655 -254.723136 
L 243.166392 -256.032896 
L 243.167616 -257.342656 
L 243.166852 -258.652415 
L 243.166364 -259.962175 
L 243.165733 -261.271935 
L 243.166397 -262.581694 
L 243.166639 -263.891454 
L 243.165567 -265.201214 
L 243.165402 -266.510974 
L 243.165904 -267.820733 
L 243.167533 -269.130493 
L 243.166478 -270.440253 
L 243.166031 -271.750012 
L 243.165775 -273.059772 
L 243.1652 -274.369532 
L 243.16543 -275.679292 
L 243.167697 -276.989051 
L 243.169271 -278.298811 
L 243.168994 -279.608571 
L 243.168732 -280.918331 
L 243.167404 -282.22809 
L 243.166723 -283.53785 
L 243.167962 -284.84761 
L 243.16864 -286.157369 
L 243.168546 -287.467129 
L 243.168946 -288.776889 
L 243.168864 -290.086649 
L 243.168558 -291.396408 
L 243.167784 -292.706168 
L 243.16766 -294.015928 
L 243.168315 -295.325687 
L 243.16863 -296.635447 
L 243.168657 -297.945207 
L 243.169012 -299.254967 
L 243.169007 -300.564726 
L 243.169401 -301.874486 
L 243.169592 -303.184246 
L 243.169387 -304.494006 
L 243.169042 -305.803765 
L 243.169526 -307.113525 
L 243.169532 -308.423285 
L 243.169049 -309.733044 
L 243.169375 -311.042804 
L 243.169594 -312.352564 
L 243.169599 -313.662324 
L 243.169599 -314.972083 
L 243.169589 -316.281843 
L 243.169136 -317.591603 
L 243.168514 -318.901362 
L 243.16939 -320.211122 
L 243.169037 -321.520882 
L 243.169394 -322.830642 
L 243.169595 -324.140401 
L 243.169577 -325.450161 
L 243.168972 -326.759921 
L 243.168639 -328.06968 
L 243.169517 -329.37944 
L 243.169337 -330.6892 
L 243.16843 -331.99896 
L 243.169341 -333.308719 
L 243.169596 -334.618479 
L 243.169564 -335.928239 
L 243.168621 -337.237999 
L 243.168164 -338.547758 
L 243.168949 -339.857518 
L 243.168625 -341.167278 
L 243.170573 -341.167278 
L 243.170573 -341.167278 
L 243.170249 -339.857518 
L 243.171034 -338.547758 
L 243.170577 -337.237999 
L 243.169634 -335.928239 
L 243.169602 -334.618479 
L 243.169857 -333.308719 
L 243.170768 -331.99896 
L 243.169861 -330.6892 
L 243.169681 -329.37944 
L 243.170559 -328.06968 
L 243.170226 -326.759921 
L 243.169621 -325.450161 
L 243.169603 -324.140401 
L 243.169804 -322.830642 
L 243.170161 -321.520882 
L 243.169808 -320.211122 
L 243.170684 -318.901362 
L 243.170062 -317.591603 
L 243.169609 -316.281843 
L 243.169599 -314.972083 
L 243.169599 -313.662324 
L 243.169604 -312.352564 
L 243.169823 -311.042804 
L 243.170149 -309.733044 
L 243.169666 -308.423285 
L 243.169672 -307.113525 
L 243.170156 -305.803765 
L 243.169811 -304.494006 
L 243.169606 -303.184246 
L 243.169797 -301.874486 
L 243.170191 -300.564726 
L 243.170186 -299.254967 
L 243.170541 -297.945207 
L 243.170568 -296.635447 
L 243.170883 -295.325687 
L 243.171538 -294.015928 
L 243.171414 -292.706168 
L 243.17064 -291.396408 
L 243.170334 -290.086649 
L 243.170252 -288.776889 
L 243.170652 -287.467129 
L 243.170558 -286.157369 
L 243.171236 -284.84761 
L 243.172475 -283.53785 
L 243.171794 -282.22809 
L 243.170466 -280.918331 
L 243.170204 -279.608571 
L 243.169927 -278.298811 
L 243.171501 -276.989051 
L 243.173768 -275.679292 
L 243.173998 -274.369532 
L 243.173423 -273.059772 
L 243.173167 -271.750012 
L 243.17272 -270.440253 
L 243.171665 -269.130493 
L 243.173294 -267.820733 
L 243.173796 -266.510974 
L 243.173631 -265.201214 
L 243.172559 -263.891454 
L 243.172801 -262.581694 
L 243.173465 -261.271935 
L 243.172834 -259.962175 
L 243.172346 -258.652415 
L 243.171582 -257.342656 
L 243.172806 -256.032896 
L 243.172543 -254.723136 
L 243.172692 -253.413376 
L 243.171974 -252.103617 
L 243.171074 -250.793857 
L 243.171126 -249.484097 
L 243.172268 -248.174338 
L 243.171188 -246.864578 
L 243.171582 -245.554818 
L 243.171358 -244.245058 
L 243.170476 -242.935299 
L 243.170375 -241.625539 
L 243.170434 -240.315779 
L 243.170471 -239.006019 
L 243.170645 -237.69626 
L 243.169739 -236.3865 
L 243.1696 -235.07674 
L 243.169599 -233.766981 
L 243.169599 -232.457221 
L 243.169599 -231.147461 
L 243.169599 -229.837701 
L 243.169599 -228.527942 
L 243.169599 -227.218182 
L 243.169599 -225.908422 
L 243.169599 -224.598663 
L 243.169599 -223.288903 
L 243.169599 -221.979143 
L 243.169599 -220.669383 
L 243.169599 -219.359624 
L 243.169599 -218.049864 
L 243.169599 -216.740104 
L 243.169614 -215.430345 
L 243.19756 -214.120585 
L 245.708114 -212.810825 
L 254.578855 -211.501065 
z
" id="m63344a1e25" style="stroke:#545454;stroke-width:2.5;"/>
    </defs>
    <g clip-path="url(#pdb678836b0)">
     <use style="fill:#597dbf;stroke:#545454;stroke-width:2.5;" x="0" xlink:href="#m63344a1e25" y="503.420156"/>
    </g>
   </g>
   <g id="PolyCollection_8">
    <defs>
     <path d="M 268.308082 -211.501065 
L 263.66814 -211.501065 
L 263.6599 -211.621579 
L 263.655008 -211.742093 
L 263.653477 -211.862607 
L 263.655302 -211.983121 
L 263.660464 -212.103635 
L 263.66893 -212.224148 
L 263.680654 -212.344662 
L 263.695572 -212.465176 
L 263.713611 -212.58569 
L 263.734683 -212.706204 
L 263.758689 -212.826717 
L 263.785516 -212.947231 
L 263.815045 -213.067745 
L 263.847142 -213.188259 
L 263.881669 -213.308773 
L 263.918477 -213.429287 
L 263.957411 -213.5498 
L 263.998312 -213.670314 
L 264.041013 -213.790828 
L 264.085346 -213.911342 
L 264.131138 -214.031856 
L 264.178217 -214.15237 
L 264.226408 -214.272883 
L 264.275537 -214.393397 
L 264.325431 -214.513911 
L 264.375919 -214.634425 
L 264.426833 -214.754939 
L 264.478008 -214.875453 
L 264.529284 -214.995966 
L 264.580506 -215.11648 
L 264.631524 -215.236994 
L 264.682194 -215.357508 
L 264.73238 -215.478022 
L 264.78195 -215.598536 
L 264.830783 -215.719049 
L 264.878763 -215.839563 
L 264.925781 -215.960077 
L 264.971739 -216.080591 
L 265.016544 -216.201105 
L 265.060113 -216.321619 
L 265.102371 -216.442132 
L 265.143248 -216.562646 
L 265.182686 -216.68316 
L 265.220632 -216.803674 
L 265.257041 -216.924188 
L 265.291878 -217.044702 
L 265.325111 -217.165215 
L 265.356718 -217.285729 
L 265.386682 -217.406243 
L 265.414994 -217.526757 
L 265.441651 -217.647271 
L 265.466653 -217.767785 
L 265.49001 -217.888298 
L 265.511734 -218.008812 
L 265.531845 -218.129326 
L 265.550364 -218.24984 
L 265.567319 -218.370354 
L 265.582743 -218.490868 
L 265.59667 -218.611381 
L 265.609141 -218.731895 
L 265.620197 -218.852409 
L 265.629886 -218.972923 
L 265.638256 -219.093437 
L 265.645359 -219.213951 
L 265.65125 -219.334464 
L 265.655984 -219.454978 
L 265.65962 -219.575492 
L 265.662218 -219.696006 
L 265.663841 -219.81652 
L 265.664553 -219.937034 
L 265.664417 -220.057547 
L 265.663499 -220.178061 
L 265.661866 -220.298575 
L 265.659584 -220.419089 
L 265.656721 -220.539603 
L 265.653345 -220.660117 
L 265.649522 -220.78063 
L 265.645319 -220.901144 
L 265.640803 -221.021658 
L 265.636039 -221.142172 
L 265.631093 -221.262686 
L 265.626026 -221.3832 
L 265.620902 -221.503713 
L 265.61578 -221.624227 
L 265.610718 -221.744741 
L 265.605773 -221.865255 
L 265.600998 -221.985769 
L 265.596444 -222.106283 
L 265.59216 -222.226796 
L 265.588191 -222.34731 
L 265.58458 -222.467824 
L 265.581365 -222.588338 
L 265.578583 -222.708852 
L 265.576264 -222.829366 
L 265.574439 -222.949879 
L 265.573131 -223.070393 
L 265.572363 -223.190907 
L 265.57215 -223.311421 
L 265.572506 -223.431935 
L 266.403716 -223.431935 
L 266.403716 -223.431935 
L 266.404072 -223.311421 
L 266.403859 -223.190907 
L 266.403091 -223.070393 
L 266.401783 -222.949879 
L 266.399958 -222.829366 
L 266.397639 -222.708852 
L 266.394857 -222.588338 
L 266.391642 -222.467824 
L 266.388031 -222.34731 
L 266.384062 -222.226796 
L 266.379778 -222.106283 
L 266.375224 -221.985769 
L 266.370449 -221.865255 
L 266.365504 -221.744741 
L 266.360442 -221.624227 
L 266.35532 -221.503713 
L 266.350196 -221.3832 
L 266.345129 -221.262686 
L 266.340183 -221.142172 
L 266.335419 -221.021658 
L 266.330903 -220.901144 
L 266.3267 -220.78063 
L 266.322877 -220.660117 
L 266.319501 -220.539603 
L 266.316638 -220.419089 
L 266.314356 -220.298575 
L 266.312723 -220.178061 
L 266.311805 -220.057547 
L 266.311669 -219.937034 
L 266.312381 -219.81652 
L 266.314004 -219.696006 
L 266.316602 -219.575492 
L 266.320238 -219.454978 
L 266.324972 -219.334464 
L 266.330863 -219.213951 
L 266.337966 -219.093437 
L 266.346336 -218.972923 
L 266.356025 -218.852409 
L 266.367081 -218.731895 
L 266.379552 -218.611381 
L 266.393479 -218.490868 
L 266.408903 -218.370354 
L 266.425858 -218.24984 
L 266.444377 -218.129326 
L 266.464488 -218.008812 
L 266.486212 -217.888298 
L 266.509569 -217.767785 
L 266.534571 -217.647271 
L 266.561228 -217.526757 
L 266.58954 -217.406243 
L 266.619504 -217.285729 
L 266.651111 -217.165215 
L 266.684344 -217.044702 
L 266.719181 -216.924188 
L 266.75559 -216.803674 
L 266.793536 -216.68316 
L 266.832974 -216.562646 
L 266.873851 -216.442132 
L 266.916109 -216.321619 
L 266.959678 -216.201105 
L 267.004483 -216.080591 
L 267.050441 -215.960077 
L 267.097459 -215.839563 
L 267.145439 -215.719049 
L 267.194272 -215.598536 
L 267.243842 -215.478022 
L 267.294028 -215.357508 
L 267.344698 -215.236994 
L 267.395716 -215.11648 
L 267.446938 -214.995966 
L 267.498214 -214.875453 
L 267.549389 -214.754939 
L 267.600303 -214.634425 
L 267.650791 -214.513911 
L 267.700685 -214.393397 
L 267.749814 -214.272883 
L 267.798005 -214.15237 
L 267.845084 -214.031856 
L 267.890876 -213.911342 
L 267.935209 -213.790828 
L 267.97791 -213.670314 
L 268.018811 -213.5498 
L 268.057745 -213.429287 
L 268.094553 -213.308773 
L 268.12908 -213.188259 
L 268.161177 -213.067745 
L 268.190706 -212.947231 
L 268.217533 -212.826717 
L 268.241539 -212.706204 
L 268.262611 -212.58569 
L 268.28065 -212.465176 
L 268.295568 -212.344662 
L 268.307292 -212.224148 
L 268.315758 -212.103635 
L 268.32092 -211.983121 
L 268.322745 -211.862607 
L 268.321214 -211.742093 
L 268.316322 -211.621579 
L 268.308082 -211.501065 
z
" id="m8f3ce29f2a" style="stroke:#545454;stroke-width:2.5;"/>
    </defs>
    <g clip-path="url(#pdb678836b0)">
     <use style="fill:#d98b5f;stroke:#545454;stroke-width:2.5;" x="0" xlink:href="#m8f3ce29f2a" y="503.420156"/>
    </g>
   </g>
   <g id="PolyCollection_9">
    <defs>
     <path d="M 311.625135 -211.501065 
L 288.806623 -211.501065 
L 296.417074 -212.092182 
L 300.075657 -212.683299 
L 300.215305 -213.274416 
L 300.215879 -213.865533 
L 300.215879 -214.45665 
L 300.215879 -215.047767 
L 300.215879 -215.638884 
L 300.215879 -216.230001 
L 300.215879 -216.821118 
L 300.215879 -217.412234 
L 300.215879 -218.003351 
L 300.215879 -218.594468 
L 300.215879 -219.185585 
L 300.215879 -219.776702 
L 300.215879 -220.367819 
L 300.215879 -220.958936 
L 300.215879 -221.550053 
L 300.215861 -222.14117 
L 300.215565 -222.732287 
L 300.215079 -223.323404 
L 300.215162 -223.914521 
L 300.215194 -224.505637 
L 300.214475 -225.096754 
L 300.213865 -225.687871 
L 300.21234 -226.278988 
L 300.21262 -226.870105 
L 300.214246 -227.461222 
L 300.214985 -228.052339 
L 300.21472 -228.643456 
L 300.212924 -229.234573 
L 300.212597 -229.82569 
L 300.213899 -230.416807 
L 300.214894 -231.007924 
L 300.214901 -231.59904 
L 300.212491 -232.190157 
L 300.212535 -232.781274 
L 300.213311 -233.372391 
L 300.212534 -233.963508 
L 300.21291 -234.554625 
L 300.214074 -235.145742 
L 300.21267 -235.736859 
L 300.211213 -236.327976 
L 300.210973 -236.919093 
L 300.211876 -237.51021 
L 300.211641 -238.101326 
L 300.212625 -238.692443 
L 300.212809 -239.28356 
L 300.212845 -239.874677 
L 300.212427 -240.465794 
L 300.213227 -241.056911 
L 300.214244 -241.648028 
L 300.213533 -242.239145 
L 300.211451 -242.830262 
L 300.210446 -243.421379 
L 300.21107 -244.012496 
L 300.213548 -244.603613 
L 300.215275 -245.194729 
L 300.214619 -245.785846 
L 300.213357 -246.376963 
L 300.211662 -246.96808 
L 300.21178 -247.559197 
L 300.212167 -248.150314 
L 300.212245 -248.741431 
L 300.21224 -249.332548 
L 300.213972 -249.923665 
L 300.215176 -250.514782 
L 300.21411 -251.105899 
L 300.213277 -251.697016 
L 300.214406 -252.288132 
L 300.213699 -252.879249 
L 300.213351 -253.470366 
L 300.214852 -254.061483 
L 300.215757 -254.6526 
L 300.215676 -255.243717 
L 300.214797 -255.834834 
L 300.215226 -256.425951 
L 300.215644 -257.017068 
L 300.214778 -257.608185 
L 300.214416 -258.199302 
L 300.214849 -258.790419 
L 300.214924 -259.381535 
L 300.215563 -259.972652 
L 300.215315 -260.563769 
L 300.215586 -261.154886 
L 300.215859 -261.746003 
L 300.215721 -262.33712 
L 300.214868 -262.928237 
L 300.215135 -263.519354 
L 300.215798 -264.110471 
L 300.21558 -264.701588 
L 300.215323 -265.292705 
L 300.215758 -265.883821 
L 300.215619 -266.474938 
L 300.214439 -267.066055 
L 300.21474 -267.657172 
L 300.215756 -268.248289 
L 300.215843 -268.839406 
L 300.215155 -269.430523 
L 300.214152 -270.02164 
L 300.217606 -270.02164 
L 300.217606 -270.02164 
L 300.216603 -269.430523 
L 300.215915 -268.839406 
L 300.216002 -268.248289 
L 300.217018 -267.657172 
L 300.217319 -267.066055 
L 300.216139 -266.474938 
L 300.216 -265.883821 
L 300.216435 -265.292705 
L 300.216178 -264.701588 
L 300.21596 -264.110471 
L 300.216623 -263.519354 
L 300.21689 -262.928237 
L 300.216037 -262.33712 
L 300.215899 -261.746003 
L 300.216172 -261.154886 
L 300.216443 -260.563769 
L 300.216195 -259.972652 
L 300.216834 -259.381535 
L 300.216909 -258.790419 
L 300.217342 -258.199302 
L 300.21698 -257.608185 
L 300.216114 -257.017068 
L 300.216532 -256.425951 
L 300.216961 -255.834834 
L 300.216082 -255.243717 
L 300.216001 -254.6526 
L 300.216906 -254.061483 
L 300.218407 -253.470366 
L 300.218059 -252.879249 
L 300.217352 -252.288132 
L 300.218481 -251.697016 
L 300.217648 -251.105899 
L 300.216582 -250.514782 
L 300.217786 -249.923665 
L 300.219518 -249.332548 
L 300.219513 -248.741431 
L 300.219591 -248.150314 
L 300.219978 -247.559197 
L 300.220096 -246.96808 
L 300.218401 -246.376963 
L 300.217139 -245.785846 
L 300.216483 -245.194729 
L 300.21821 -244.603613 
L 300.220688 -244.012496 
L 300.221312 -243.421379 
L 300.220307 -242.830262 
L 300.218225 -242.239145 
L 300.217514 -241.648028 
L 300.218531 -241.056911 
L 300.219331 -240.465794 
L 300.218913 -239.874677 
L 300.218949 -239.28356 
L 300.219133 -238.692443 
L 300.220117 -238.101326 
L 300.219882 -237.51021 
L 300.220785 -236.919093 
L 300.220545 -236.327976 
L 300.219088 -235.736859 
L 300.217684 -235.145742 
L 300.218848 -234.554625 
L 300.219224 -233.963508 
L 300.218447 -233.372391 
L 300.219223 -232.781274 
L 300.219267 -232.190157 
L 300.216857 -231.59904 
L 300.216864 -231.007924 
L 300.217859 -230.416807 
L 300.219161 -229.82569 
L 300.218834 -229.234573 
L 300.217038 -228.643456 
L 300.216773 -228.052339 
L 300.217512 -227.461222 
L 300.219138 -226.870105 
L 300.219418 -226.278988 
L 300.217893 -225.687871 
L 300.217283 -225.096754 
L 300.216564 -224.505637 
L 300.216596 -223.914521 
L 300.216679 -223.323404 
L 300.216193 -222.732287 
L 300.215897 -222.14117 
L 300.215879 -221.550053 
L 300.215879 -220.958936 
L 300.215879 -220.367819 
L 300.215879 -219.776702 
L 300.215879 -219.185585 
L 300.215879 -218.594468 
L 300.215879 -218.003351 
L 300.215879 -217.412234 
L 300.215879 -216.821118 
L 300.215879 -216.230001 
L 300.215879 -215.638884 
L 300.215879 -215.047767 
L 300.215879 -214.45665 
L 300.215879 -213.865533 
L 300.216453 -213.274416 
L 300.356101 -212.683299 
L 304.014684 -212.092182 
L 311.625135 -211.501065 
z
" id="m3f4b65afab" style="stroke:#545454;stroke-width:2.5;"/>
    </defs>
    <g clip-path="url(#pdb678836b0)">
     <use style="fill:#597dbf;stroke:#545454;stroke-width:2.5;" x="0" xlink:href="#m3f4b65afab" y="503.420156"/>
    </g>
   </g>
   <g id="PolyCollection_10">
    <defs>
     <path d="M 325.42732 -211.501065 
L 320.641462 -211.501065 
L 320.634538 -211.557833 
L 320.630749 -211.614601 
L 320.630082 -211.671369 
L 320.632512 -211.728137 
L 320.637999 -211.784905 
L 320.646492 -211.841673 
L 320.657927 -211.898441 
L 320.672227 -211.955209 
L 320.689306 -212.011977 
L 320.709066 -212.068745 
L 320.7314 -212.125513 
L 320.756193 -212.182281 
L 320.78332 -212.239049 
L 320.812652 -212.295817 
L 320.844052 -212.352585 
L 320.877379 -212.409353 
L 320.912488 -212.466121 
L 320.94923 -212.522888 
L 320.987455 -212.579656 
L 321.027013 -212.636424 
L 321.06775 -212.693192 
L 321.109518 -212.74996 
L 321.152165 -212.806728 
L 321.195546 -212.863496 
L 321.239515 -212.920264 
L 321.283934 -212.977032 
L 321.328664 -213.0338 
L 321.373576 -213.090568 
L 321.418543 -213.147336 
L 321.463444 -213.204104 
L 321.508165 -213.260872 
L 321.552596 -213.31764 
L 321.596637 -213.374408 
L 321.64019 -213.431176 
L 321.683166 -213.487944 
L 321.725484 -213.544712 
L 321.767065 -213.60148 
L 321.807842 -213.658248 
L 321.84775 -213.715015 
L 321.886731 -213.771783 
L 321.924734 -213.828551 
L 321.961713 -213.885319 
L 321.997628 -213.942087 
L 322.032443 -213.998855 
L 322.066128 -214.055623 
L 322.098657 -214.112391 
L 322.130011 -214.169159 
L 322.16017 -214.225927 
L 322.189124 -214.282695 
L 322.216862 -214.339463 
L 322.243379 -214.396231 
L 322.268672 -214.452999 
L 322.292743 -214.509767 
L 322.315594 -214.566535 
L 322.337234 -214.623303 
L 322.35767 -214.680071 
L 322.376914 -214.736839 
L 322.394982 -214.793607 
L 322.41189 -214.850374 
L 322.427656 -214.907142 
L 322.442302 -214.96391 
L 322.455852 -215.020678 
L 322.468331 -215.077446 
L 322.479768 -215.134214 
L 322.490193 -215.190982 
L 322.499637 -215.24775 
L 322.508135 -215.304518 
L 322.515723 -215.361286 
L 322.52244 -215.418054 
L 322.528326 -215.474822 
L 322.533422 -215.53159 
L 322.537773 -215.588358 
L 322.541424 -215.645126 
L 322.544422 -215.701894 
L 322.546816 -215.758662 
L 322.548654 -215.81543 
L 322.549989 -215.872198 
L 322.550871 -215.928966 
L 322.551354 -215.985734 
L 322.551491 -216.042501 
L 322.551334 -216.099269 
L 322.550937 -216.156037 
L 322.550354 -216.212805 
L 322.549637 -216.269573 
L 322.548839 -216.326341 
L 322.548011 -216.383109 
L 322.547203 -216.439877 
L 322.546463 -216.496645 
L 322.54584 -216.553413 
L 322.545377 -216.610181 
L 322.545117 -216.666949 
L 322.545102 -216.723717 
L 322.545369 -216.780485 
L 322.545953 -216.837253 
L 322.546886 -216.894021 
L 322.548196 -216.950789 
L 322.549911 -217.007557 
L 322.552051 -217.064325 
L 322.554636 -217.121093 
L 323.514146 -217.121093 
L 323.514146 -217.121093 
L 323.516731 -217.064325 
L 323.518871 -217.007557 
L 323.520586 -216.950789 
L 323.521896 -216.894021 
L 323.522829 -216.837253 
L 323.523413 -216.780485 
L 323.52368 -216.723717 
L 323.523665 -216.666949 
L 323.523405 -216.610181 
L 323.522942 -216.553413 
L 323.522319 -216.496645 
L 323.521579 -216.439877 
L 323.520771 -216.383109 
L 323.519943 -216.326341 
L 323.519145 -216.269573 
L 323.518428 -216.212805 
L 323.517845 -216.156037 
L 323.517448 -216.099269 
L 323.517291 -216.042501 
L 323.517428 -215.985734 
L 323.517911 -215.928966 
L 323.518793 -215.872198 
L 323.520128 -215.81543 
L 323.521966 -215.758662 
L 323.52436 -215.701894 
L 323.527358 -215.645126 
L 323.531009 -215.588358 
L 323.53536 -215.53159 
L 323.540456 -215.474822 
L 323.546342 -215.418054 
L 323.553059 -215.361286 
L 323.560647 -215.304518 
L 323.569145 -215.24775 
L 323.578589 -215.190982 
L 323.589014 -215.134214 
L 323.600451 -215.077446 
L 323.61293 -215.020678 
L 323.62648 -214.96391 
L 323.641126 -214.907142 
L 323.656892 -214.850374 
L 323.6738 -214.793607 
L 323.691868 -214.736839 
L 323.711112 -214.680071 
L 323.731548 -214.623303 
L 323.753188 -214.566535 
L 323.776039 -214.509767 
L 323.80011 -214.452999 
L 323.825403 -214.396231 
L 323.85192 -214.339463 
L 323.879658 -214.282695 
L 323.908612 -214.225927 
L 323.938771 -214.169159 
L 323.970125 -214.112391 
L 324.002654 -214.055623 
L 324.036339 -213.998855 
L 324.071154 -213.942087 
L 324.107069 -213.885319 
L 324.144048 -213.828551 
L 324.182051 -213.771783 
L 324.221032 -213.715015 
L 324.26094 -213.658248 
L 324.301717 -213.60148 
L 324.343298 -213.544712 
L 324.385616 -213.487944 
L 324.428592 -213.431176 
L 324.472145 -213.374408 
L 324.516186 -213.31764 
L 324.560617 -213.260872 
L 324.605338 -213.204104 
L 324.650239 -213.147336 
L 324.695206 -213.090568 
L 324.740118 -213.0338 
L 324.784848 -212.977032 
L 324.829267 -212.920264 
L 324.873236 -212.863496 
L 324.916617 -212.806728 
L 324.959264 -212.74996 
L 325.001032 -212.693192 
L 325.041769 -212.636424 
L 325.081327 -212.579656 
L 325.119552 -212.522888 
L 325.156294 -212.466121 
L 325.191403 -212.409353 
L 325.22473 -212.352585 
L 325.25613 -212.295817 
L 325.285462 -212.239049 
L 325.312589 -212.182281 
L 325.337382 -212.125513 
L 325.359716 -212.068745 
L 325.379476 -212.011977 
L 325.396555 -211.955209 
L 325.410855 -211.898441 
L 325.42229 -211.841673 
L 325.430783 -211.784905 
L 325.43627 -211.728137 
L 325.4387 -211.671369 
L 325.438033 -211.614601 
L 325.434244 -211.557833 
L 325.42732 -211.501065 
z
" id="mb6dc1a78c4" style="stroke:#545454;stroke-width:2.5;"/>
    </defs>
    <g clip-path="url(#pdb678836b0)">
     <use style="fill:#d98b5f;stroke:#545454;stroke-width:2.5;" x="0" xlink:href="#mb6dc1a78c4" y="503.420156"/>
    </g>
   </g>
   <g id="patch_3">
    <path clip-path="url(#pdb678836b0)" d="M 83.440015 291.919091 
L 83.440015 291.919091 
L 83.440015 291.919091 
L 83.440015 291.919091 
z
" style="fill:#597dbf;stroke:#545454;stroke-linejoin:miter;stroke-width:1.25;"/>
   </g>
   <g id="patch_4">
    <path clip-path="url(#pdb678836b0)" d="M 83.440015 291.919091 
L 83.440015 291.919091 
L 83.440015 291.919091 
L 83.440015 291.919091 
z
" style="fill:#d98b5f;stroke:#545454;stroke-linejoin:miter;stroke-width:1.25;"/>
   </g>
   <g id="line2d_1">
    <path clip-path="url(#pdb678836b0)" d="M 72.030759 291.919091 
L 72.030759 291.919091 
" style="fill:none;stroke:#545454;stroke-linecap:round;stroke-width:2.5;"/>
   </g>
   <g id="line2d_2">
    <path clip-path="url(#pdb678836b0)" d="M 72.030759 291.919091 
L 72.030759 291.919091 
" style="fill:none;stroke:#545454;stroke-linecap:round;stroke-width:7.5;"/>
   </g>
   <g id="line2d_3">
    <path clip-path="url(#pdb678836b0)" d="M 94.849271 291.919091 
L 94.849271 278.001528 
" style="fill:none;stroke:#545454;stroke-linecap:round;stroke-width:2.5;"/>
   </g>
   <g id="line2d_4">
    <path clip-path="url(#pdb678836b0)" d="M 94.849271 291.919091 
L 94.849271 284.960309 
" style="fill:none;stroke:#545454;stroke-linecap:round;stroke-width:7.5;"/>
   </g>
   <g id="line2d_5">
    <path clip-path="url(#pdb678836b0)" d="M 129.077039 291.919091 
L 129.077039 291.919091 
" style="fill:none;stroke:#545454;stroke-linecap:round;stroke-width:2.5;"/>
   </g>
   <g id="line2d_6">
    <path clip-path="url(#pdb678836b0)" d="M 129.077039 291.919091 
L 129.077039 291.919091 
" style="fill:none;stroke:#545454;stroke-linecap:round;stroke-width:7.5;"/>
   </g>
   <g id="line2d_7">
    <path clip-path="url(#pdb678836b0)" d="M 151.895551 291.919091 
L 151.895551 283.063116 
" style="fill:none;stroke:#545454;stroke-linecap:round;stroke-width:2.5;"/>
   </g>
   <g id="line2d_8">
    <path clip-path="url(#pdb678836b0)" d="M 151.895551 291.919091 
L 151.895551 287.491103 
" style="fill:none;stroke:#545454;stroke-linecap:round;stroke-width:7.5;"/>
   </g>
   <g id="line2d_9">
    <path clip-path="url(#pdb678836b0)" d="M 186.123319 291.919091 
L 186.123319 291.919091 
" style="fill:none;stroke:#545454;stroke-linecap:round;stroke-width:2.5;"/>
   </g>
   <g id="line2d_10">
    <path clip-path="url(#pdb678836b0)" d="M 186.123319 291.919091 
L 186.123319 291.919091 
" style="fill:none;stroke:#545454;stroke-linecap:round;stroke-width:7.5;"/>
   </g>
   <g id="line2d_11">
    <path clip-path="url(#pdb678836b0)" d="M 208.941831 291.919091 
L 208.941831 288.971743 
" style="fill:none;stroke:#545454;stroke-linecap:round;stroke-width:2.5;"/>
   </g>
   <g id="line2d_12">
    <path clip-path="url(#pdb678836b0)" d="M 208.941831 291.919091 
L 208.941831 290.445417 
" style="fill:none;stroke:#545454;stroke-linecap:round;stroke-width:7.5;"/>
   </g>
   <g id="line2d_13">
    <path clip-path="url(#pdb678836b0)" d="M 243.169599 291.919091 
L 243.169599 291.919091 
" style="fill:none;stroke:#545454;stroke-linecap:round;stroke-width:2.5;"/>
   </g>
   <g id="line2d_14">
    <path clip-path="url(#pdb678836b0)" d="M 243.169599 291.919091 
L 243.169599 291.919091 
" style="fill:none;stroke:#545454;stroke-linecap:round;stroke-width:7.5;"/>
   </g>
   <g id="line2d_15">
    <path clip-path="url(#pdb678836b0)" d="M 265.988111 291.919091 
L 265.988111 289.120189 
" style="fill:none;stroke:#545454;stroke-linecap:round;stroke-width:2.5;"/>
   </g>
   <g id="line2d_16">
    <path clip-path="url(#pdb678836b0)" d="M 265.988111 291.919091 
L 265.988111 290.51964 
" style="fill:none;stroke:#545454;stroke-linecap:round;stroke-width:7.5;"/>
   </g>
   <g id="line2d_17">
    <path clip-path="url(#pdb678836b0)" d="M 300.215879 291.919091 
L 300.215879 291.919091 
" style="fill:none;stroke:#545454;stroke-linecap:round;stroke-width:2.5;"/>
   </g>
   <g id="line2d_18">
    <path clip-path="url(#pdb678836b0)" d="M 300.215879 291.919091 
L 300.215879 291.919091 
" style="fill:none;stroke:#545454;stroke-linecap:round;stroke-width:7.5;"/>
   </g>
   <g id="line2d_19">
    <path clip-path="url(#pdb678836b0)" d="M 323.034391 291.919091 
L 323.034391 289.717082 
" style="fill:none;stroke:#545454;stroke-linecap:round;stroke-width:2.5;"/>
   </g>
   <g id="line2d_20">
    <path clip-path="url(#pdb678836b0)" d="M 323.034391 291.919091 
L 323.034391 290.818086 
" style="fill:none;stroke:#545454;stroke-linecap:round;stroke-width:7.5;"/>
   </g>
   <g id="patch_5">
    <path d="M 54.916875 304.3 
L 340.148275 304.3 
" style="fill:none;stroke:#262626;stroke-linecap:square;stroke-linejoin:miter;stroke-width:1.875;"/>
   </g>
   <g id="PathCollection_1">
    <defs>
     <path d="M 0 2.5 
C 0.663008 2.5 1.29895 2.236584 1.767767 1.767767 
C 2.236584 1.29895 2.5 0.663008 2.5 0 
C 2.5 -0.663008 2.236584 -1.29895 1.767767 -1.767767 
C 1.29895 -2.236584 0.663008 -2.5 0 -2.5 
C -0.663008 -2.5 -1.29895 -2.236584 -1.767767 -1.767767 
C -2.236584 -1.29895 -2.5 -0.663008 -2.5 0 
C -2.5 0.663008 -2.236584 1.29895 -1.767767 1.767767 
C -1.29895 2.236584 -0.663008 2.5 0 2.5 
z
" id="me0297c72f6" style="stroke:#545454;stroke-width:1.5;"/>
    </defs>
    <g clip-path="url(#pdb678836b0)">
     <use style="fill:#ffffff;stroke:#545454;stroke-width:1.5;" x="72.030759" xlink:href="#me0297c72f6" y="291.919091"/>
    </g>
   </g>
   <g id="PathCollection_2">
    <g clip-path="url(#pdb678836b0)">
     <use style="fill:#ffffff;stroke:#545454;stroke-width:1.5;" x="94.849271" xlink:href="#me0297c72f6" y="291.919091"/>
    </g>
   </g>
   <g id="PathCollection_3">
    <g clip-path="url(#pdb678836b0)">
     <use style="fill:#ffffff;stroke:#545454;stroke-width:1.5;" x="129.077039" xlink:href="#me0297c72f6" y="291.919091"/>
    </g>
   </g>
   <g id="PathCollection_4">
    <g clip-path="url(#pdb678836b0)">
     <use style="fill:#ffffff;stroke:#545454;stroke-width:1.5;" x="151.895551" xlink:href="#me0297c72f6" y="291.919091"/>
    </g>
   </g>
   <g id="PathCollection_5">
    <g clip-path="url(#pdb678836b0)">
     <use style="fill:#ffffff;stroke:#545454;stroke-width:1.5;" x="186.123319" xlink:href="#me0297c72f6" y="291.919091"/>
    </g>
   </g>
   <g id="PathCollection_6">
    <g clip-path="url(#pdb678836b0)">
     <use style="fill:#ffffff;stroke:#545454;stroke-width:1.5;" x="208.941831" xlink:href="#me0297c72f6" y="291.919091"/>
    </g>
   </g>
   <g id="PathCollection_7">
    <g clip-path="url(#pdb678836b0)">
     <use style="fill:#ffffff;stroke:#545454;stroke-width:1.5;" x="243.169599" xlink:href="#me0297c72f6" y="291.919091"/>
    </g>
   </g>
   <g id="PathCollection_8">
    <g clip-path="url(#pdb678836b0)">
     <use style="fill:#ffffff;stroke:#545454;stroke-width:1.5;" x="265.988111" xlink:href="#me0297c72f6" y="291.919091"/>
    </g>
   </g>
   <g id="PathCollection_9">
    <g clip-path="url(#pdb678836b0)">
     <use style="fill:#ffffff;stroke:#545454;stroke-width:1.5;" x="300.215879" xlink:href="#me0297c72f6" y="291.919091"/>
    </g>
   </g>
   <g id="PathCollection_10">
    <g clip-path="url(#pdb678836b0)">
     <use style="fill:#ffffff;stroke:#545454;stroke-width:1.5;" x="323.034391" xlink:href="#me0297c72f6" y="291.919091"/>
    </g>
   </g>
  </g>
  <g id="text_13">
   <!-- MAI -->
   <g style="fill:#262626;" transform="translate(202.791625 16.412625)scale(0.216 -0.216)">
    <defs>
     <path d="M 9.8125 72.90625 
L 24.515625 72.90625 
L 43.109375 23.296875 
L 61.8125 72.90625 
L 76.515625 72.90625 
L 76.515625 0 
L 66.890625 0 
L 66.890625 64.015625 
L 48.09375 14.015625 
L 38.1875 14.015625 
L 19.390625 64.015625 
L 19.390625 0 
L 9.8125 0 
z
" id="DejaVuSans-77"/>
     <path d="M 34.1875 63.1875 
L 20.796875 26.90625 
L 47.609375 26.90625 
z
M 28.609375 72.90625 
L 39.796875 72.90625 
L 67.578125 0 
L 57.328125 0 
L 50.6875 18.703125 
L 17.828125 18.703125 
L 11.1875 0 
L 0.78125 0 
z
" id="DejaVuSans-65"/>
    </defs>
    <use xlink:href="#DejaVuSans-77"/>
    <use x="86.279297" xlink:href="#DejaVuSans-65"/>
    <use x="154.6875" xlink:href="#DejaVuSans-73"/>
   </g>
  </g>
  <g id="legend_1">
   <g id="patch_6">
    <path d="M 335.050984 244.153594 
L 368.050984 244.153594 
L 368.050984 232.603594 
L 335.050984 232.603594 
z
" style="fill:#597dbf;stroke:#545454;stroke-linejoin:miter;stroke-width:1.25;"/>
   </g>
   <g id="text_14">
    <!-- actual -->
    <g style="fill:#262626;" transform="translate(381.250984 244.153594)scale(0.165 -0.165)">
     <defs>
      <path d="M 48.78125 52.59375 
L 48.78125 44.1875 
Q 44.96875 46.296875 41.140625 47.34375 
Q 37.3125 48.390625 33.40625 48.390625 
Q 24.65625 48.390625 19.8125 42.84375 
Q 14.984375 37.3125 14.984375 27.296875 
Q 14.984375 17.28125 19.8125 11.734375 
Q 24.65625 6.203125 33.40625 6.203125 
Q 37.3125 6.203125 41.140625 7.25 
Q 44.96875 8.296875 48.78125 10.40625 
L 48.78125 2.09375 
Q 45.015625 0.34375 40.984375 -0.53125 
Q 36.96875 -1.421875 32.421875 -1.421875 
Q 20.0625 -1.421875 12.78125 6.34375 
Q 5.515625 14.109375 5.515625 27.296875 
Q 5.515625 40.671875 12.859375 48.328125 
Q 20.21875 56 33.015625 56 
Q 37.15625 56 41.109375 55.140625 
Q 45.0625 54.296875 48.78125 52.59375 
z
" id="DejaVuSans-99"/>
      <path d="M 8.5 21.578125 
L 8.5 54.6875 
L 17.484375 54.6875 
L 17.484375 21.921875 
Q 17.484375 14.15625 20.5 10.265625 
Q 23.53125 6.390625 29.59375 6.390625 
Q 36.859375 6.390625 41.078125 11.03125 
Q 45.3125 15.671875 45.3125 23.6875 
L 45.3125 54.6875 
L 54.296875 54.6875 
L 54.296875 0 
L 45.3125 0 
L 45.3125 8.40625 
Q 42.046875 3.421875 37.71875 1 
Q 33.40625 -1.421875 27.6875 -1.421875 
Q 18.265625 -1.421875 13.375 4.4375 
Q 8.5 10.296875 8.5 21.578125 
z
M 31.109375 56 
z
" id="DejaVuSans-117"/>
     </defs>
     <use xlink:href="#DejaVuSans-97"/>
     <use x="61.279297" xlink:href="#DejaVuSans-99"/>
     <use x="116.259766" xlink:href="#DejaVuSans-116"/>
     <use x="155.46875" xlink:href="#DejaVuSans-117"/>
     <use x="218.847656" xlink:href="#DejaVuSans-97"/>
     <use x="280.126953" xlink:href="#DejaVuSans-108"/>
    </g>
   </g>
   <g id="patch_7">
    <path d="M 335.050984 268.3725 
L 368.050984 268.3725 
L 368.050984 256.8225 
L 335.050984 256.8225 
z
" style="fill:#d98b5f;stroke:#545454;stroke-linejoin:miter;stroke-width:1.25;"/>
   </g>
   <g id="text_15">
    <!-- cluster -->
    <g style="fill:#262626;" transform="translate(381.250984 268.3725)scale(0.165 -0.165)">
     <defs>
      <path d="M 44.28125 53.078125 
L 44.28125 44.578125 
Q 40.484375 46.53125 36.375 47.5 
Q 32.28125 48.484375 27.875 48.484375 
Q 21.1875 48.484375 17.84375 46.4375 
Q 14.5 44.390625 14.5 40.28125 
Q 14.5 37.15625 16.890625 35.375 
Q 19.28125 33.59375 26.515625 31.984375 
L 29.59375 31.296875 
Q 39.15625 29.25 43.1875 25.515625 
Q 47.21875 21.78125 47.21875 15.09375 
Q 47.21875 7.46875 41.1875 3.015625 
Q 35.15625 -1.421875 24.609375 -1.421875 
Q 20.21875 -1.421875 15.453125 -0.5625 
Q 10.6875 0.296875 5.421875 2 
L 5.421875 11.28125 
Q 10.40625 8.6875 15.234375 7.390625 
Q 20.0625 6.109375 24.8125 6.109375 
Q 31.15625 6.109375 34.5625 8.28125 
Q 37.984375 10.453125 37.984375 14.40625 
Q 37.984375 18.0625 35.515625 20.015625 
Q 33.0625 21.96875 24.703125 23.78125 
L 21.578125 24.515625 
Q 13.234375 26.265625 9.515625 29.90625 
Q 5.8125 33.546875 5.8125 39.890625 
Q 5.8125 47.609375 11.28125 51.796875 
Q 16.75 56 26.8125 56 
Q 31.78125 56 36.171875 55.265625 
Q 40.578125 54.546875 44.28125 53.078125 
z
" id="DejaVuSans-115"/>
     </defs>
     <use xlink:href="#DejaVuSans-99"/>
     <use x="54.980469" xlink:href="#DejaVuSans-108"/>
     <use x="82.763672" xlink:href="#DejaVuSans-117"/>
     <use x="146.142578" xlink:href="#DejaVuSans-115"/>
     <use x="198.242188" xlink:href="#DejaVuSans-116"/>
     <use x="237.451172" xlink:href="#DejaVuSans-101"/>
     <use x="298.974609" xlink:href="#DejaVuSans-114"/>
    </g>
   </g>
  </g>
 </g>
 <defs>
  <clipPath id="pdb678836b0">
   <rect height="272.38" width="285.2314" x="54.916875" y="31.92"/>
  </clipPath>
 </defs>
</svg>
