<?xml version="1.0" encoding="utf-8" standalone="no"?>
<!DOCTYPE svg PUBLIC "-//W3C//DTD SVG 1.1//EN"
  "http://www.w3.org/Graphics/SVG/1.1/DTD/svg11.dtd">
<!-- Created with matplotlib (https://matplotlib.org/) -->
<svg height="503.420156pt" version="1.1" viewBox="0 0 443.659602 503.420156" width="443.659602pt" xmlns="http://www.w3.org/2000/svg" xmlns:xlink="http://www.w3.org/1999/xlink">
 <metadata>
  <rdf:RDF xmlns:cc="http://creativecommons.org/ns#" xmlns:dc="http://purl.org/dc/elements/1.1/" xmlns:rdf="http://www.w3.org/1999/02/22-rdf-syntax-ns#">
   <cc:Work>
    <dc:type rdf:resource="http://purl.org/dc/dcmitype/StillImage"/>
    <dc:date>2021-01-22T11:01:12.610847</dc:date>
    <dc:format>image/svg+xml</dc:format>
    <dc:creator>
     <cc:Agent>
      <dc:title>Matplotlib v3.3.2, https://matplotlib.org/</dc:title>
     </cc:Agent>
    </dc:creator>
   </cc:Work>
  </rdf:RDF>
 </metadata>
 <defs>
  <style type="text/css">*{stroke-linecap:butt;stroke-linejoin:round;}</style>
 </defs>
 <g id="figure_1">
  <g id="patch_1">
   <path d="M 0 503.420156 
L 443.659602 503.420156 
L 443.659602 0 
L 0 0 
z
" style="fill:#ffffff;"/>
  </g>
  <g id="axes_1">
   <g id="patch_2">
    <path d="M 44.41875 304.3 
L 331.594001 304.3 
L 331.594001 31.92 
L 44.41875 31.92 
z
" style="fill:#ffffff;"/>
   </g>
   <g id="matplotlib.axis_1">
    <g id="xtick_1">
     <g id="text_1">
      <!-- Irrigation High -->
      <g style="fill:#262626;" transform="translate(77.689244 434.888437)rotate(-90)scale(0.165 -0.165)">
       <defs>
        <path d="M 9.8125 72.90625 
L 19.671875 72.90625 
L 19.671875 0 
L 9.8125 0 
z
" id="DejaVuSans-73"/>
        <path d="M 41.109375 46.296875 
Q 39.59375 47.171875 37.8125 47.578125 
Q 36.03125 48 33.890625 48 
Q 26.265625 48 22.1875 43.046875 
Q 18.109375 38.09375 18.109375 28.8125 
L 18.109375 0 
L 9.078125 0 
L 9.078125 54.6875 
L 18.109375 54.6875 
L 18.109375 46.1875 
Q 20.953125 51.171875 25.484375 53.578125 
Q 30.03125 56 36.53125 56 
Q 37.453125 56 38.578125 55.875 
Q 39.703125 55.765625 41.0625 55.515625 
z
" id="DejaVuSans-114"/>
        <path d="M 9.421875 54.6875 
L 18.40625 54.6875 
L 18.40625 0 
L 9.421875 0 
z
M 9.421875 75.984375 
L 18.40625 75.984375 
L 18.40625 64.59375 
L 9.421875 64.59375 
z
" id="DejaVuSans-105"/>
        <path d="M 45.40625 27.984375 
Q 45.40625 37.75 41.375 43.109375 
Q 37.359375 48.484375 30.078125 48.484375 
Q 22.859375 48.484375 18.828125 43.109375 
Q 14.796875 37.75 14.796875 27.984375 
Q 14.796875 18.265625 18.828125 12.890625 
Q 22.859375 7.515625 30.078125 7.515625 
Q 37.359375 7.515625 41.375 12.890625 
Q 45.40625 18.265625 45.40625 27.984375 
z
M 54.390625 6.78125 
Q 54.390625 -7.171875 48.1875 -13.984375 
Q 42 -20.796875 29.203125 -20.796875 
Q 24.46875 -20.796875 20.265625 -20.09375 
Q 16.0625 -19.390625 12.109375 -17.921875 
L 12.109375 -9.1875 
Q 16.0625 -11.328125 19.921875 -12.34375 
Q 23.78125 -13.375 27.78125 -13.375 
Q 36.625 -13.375 41.015625 -8.765625 
Q 45.40625 -4.15625 45.40625 5.171875 
L 45.40625 9.625 
Q 42.625 4.78125 38.28125 2.390625 
Q 33.9375 0 27.875 0 
Q 17.828125 0 11.671875 7.65625 
Q 5.515625 15.328125 5.515625 27.984375 
Q 5.515625 40.671875 11.671875 48.328125 
Q 17.828125 56 27.875 56 
Q 33.9375 56 38.28125 53.609375 
Q 42.625 51.21875 45.40625 46.390625 
L 45.40625 54.6875 
L 54.390625 54.6875 
z
" id="DejaVuSans-103"/>
        <path d="M 34.28125 27.484375 
Q 23.390625 27.484375 19.1875 25 
Q 14.984375 22.515625 14.984375 16.5 
Q 14.984375 11.71875 18.140625 8.90625 
Q 21.296875 6.109375 26.703125 6.109375 
Q 34.1875 6.109375 38.703125 11.40625 
Q 43.21875 16.703125 43.21875 25.484375 
L 43.21875 27.484375 
z
M 52.203125 31.203125 
L 52.203125 0 
L 43.21875 0 
L 43.21875 8.296875 
Q 40.140625 3.328125 35.546875 0.953125 
Q 30.953125 -1.421875 24.3125 -1.421875 
Q 15.921875 -1.421875 10.953125 3.296875 
Q 6 8.015625 6 15.921875 
Q 6 25.140625 12.171875 29.828125 
Q 18.359375 34.515625 30.609375 34.515625 
L 43.21875 34.515625 
L 43.21875 35.40625 
Q 43.21875 41.609375 39.140625 45 
Q 35.0625 48.390625 27.6875 48.390625 
Q 23 48.390625 18.546875 47.265625 
Q 14.109375 46.140625 10.015625 43.890625 
L 10.015625 52.203125 
Q 14.9375 54.109375 19.578125 55.046875 
Q 24.21875 56 28.609375 56 
Q 40.484375 56 46.34375 49.84375 
Q 52.203125 43.703125 52.203125 31.203125 
z
" id="DejaVuSans-97"/>
        <path d="M 18.3125 70.21875 
L 18.3125 54.6875 
L 36.8125 54.6875 
L 36.8125 47.703125 
L 18.3125 47.703125 
L 18.3125 18.015625 
Q 18.3125 11.328125 20.140625 9.421875 
Q 21.96875 7.515625 27.59375 7.515625 
L 36.8125 7.515625 
L 36.8125 0 
L 27.59375 0 
Q 17.1875 0 13.234375 3.875 
Q 9.28125 7.765625 9.28125 18.015625 
L 9.28125 47.703125 
L 2.6875 47.703125 
L 2.6875 54.6875 
L 9.28125 54.6875 
L 9.28125 70.21875 
z
" id="DejaVuSans-116"/>
        <path d="M 30.609375 48.390625 
Q 23.390625 48.390625 19.1875 42.75 
Q 14.984375 37.109375 14.984375 27.296875 
Q 14.984375 17.484375 19.15625 11.84375 
Q 23.34375 6.203125 30.609375 6.203125 
Q 37.796875 6.203125 41.984375 11.859375 
Q 46.1875 17.53125 46.1875 27.296875 
Q 46.1875 37.015625 41.984375 42.703125 
Q 37.796875 48.390625 30.609375 48.390625 
z
M 30.609375 56 
Q 42.328125 56 49.015625 48.375 
Q 55.71875 40.765625 55.71875 27.296875 
Q 55.71875 13.875 49.015625 6.21875 
Q 42.328125 -1.421875 30.609375 -1.421875 
Q 18.84375 -1.421875 12.171875 6.21875 
Q 5.515625 13.875 5.515625 27.296875 
Q 5.515625 40.765625 12.171875 48.375 
Q 18.84375 56 30.609375 56 
z
" id="DejaVuSans-111"/>
        <path d="M 54.890625 33.015625 
L 54.890625 0 
L 45.90625 0 
L 45.90625 32.71875 
Q 45.90625 40.484375 42.875 44.328125 
Q 39.84375 48.1875 33.796875 48.1875 
Q 26.515625 48.1875 22.3125 43.546875 
Q 18.109375 38.921875 18.109375 30.90625 
L 18.109375 0 
L 9.078125 0 
L 9.078125 54.6875 
L 18.109375 54.6875 
L 18.109375 46.1875 
Q 21.34375 51.125 25.703125 53.5625 
Q 30.078125 56 35.796875 56 
Q 45.21875 56 50.046875 50.171875 
Q 54.890625 44.34375 54.890625 33.015625 
z
" id="DejaVuSans-110"/>
        <path id="DejaVuSans-32"/>
        <path d="M 9.8125 72.90625 
L 19.671875 72.90625 
L 19.671875 43.015625 
L 55.515625 43.015625 
L 55.515625 72.90625 
L 65.375 72.90625 
L 65.375 0 
L 55.515625 0 
L 55.515625 34.71875 
L 19.671875 34.71875 
L 19.671875 0 
L 9.8125 0 
z
" id="DejaVuSans-72"/>
        <path d="M 54.890625 33.015625 
L 54.890625 0 
L 45.90625 0 
L 45.90625 32.71875 
Q 45.90625 40.484375 42.875 44.328125 
Q 39.84375 48.1875 33.796875 48.1875 
Q 26.515625 48.1875 22.3125 43.546875 
Q 18.109375 38.921875 18.109375 30.90625 
L 18.109375 0 
L 9.078125 0 
L 9.078125 75.984375 
L 18.109375 75.984375 
L 18.109375 46.1875 
Q 21.34375 51.125 25.703125 53.5625 
Q 30.078125 56 35.796875 56 
Q 45.21875 56 50.046875 50.171875 
Q 54.890625 44.34375 54.890625 33.015625 
z
" id="DejaVuSans-104"/>
       </defs>
       <use xlink:href="#DejaVuSans-73"/>
       <use x="29.492188" xlink:href="#DejaVuSans-114"/>
       <use x="68.855469" xlink:href="#DejaVuSans-114"/>
       <use x="109.96875" xlink:href="#DejaVuSans-105"/>
       <use x="137.751953" xlink:href="#DejaVuSans-103"/>
       <use x="201.228516" xlink:href="#DejaVuSans-97"/>
       <use x="262.507812" xlink:href="#DejaVuSans-116"/>
       <use x="301.716797" xlink:href="#DejaVuSans-105"/>
       <use x="329.5" xlink:href="#DejaVuSans-111"/>
       <use x="390.681641" xlink:href="#DejaVuSans-110"/>
       <use x="454.060547" xlink:href="#DejaVuSans-32"/>
       <use x="485.847656" xlink:href="#DejaVuSans-72"/>
       <use x="561.042969" xlink:href="#DejaVuSans-105"/>
       <use x="588.826172" xlink:href="#DejaVuSans-103"/>
       <use x="652.302734" xlink:href="#DejaVuSans-104"/>
      </g>
     </g>
    </g>
    <g id="xtick_2">
     <g id="text_2">
      <!-- Irrigation Intermediate -->
      <g style="fill:#262626;" transform="translate(135.124294 503.420156)rotate(-90)scale(0.165 -0.165)">
       <defs>
        <path d="M 56.203125 29.59375 
L 56.203125 25.203125 
L 14.890625 25.203125 
Q 15.484375 15.921875 20.484375 11.0625 
Q 25.484375 6.203125 34.421875 6.203125 
Q 39.59375 6.203125 44.453125 7.46875 
Q 49.3125 8.734375 54.109375 11.28125 
L 54.109375 2.78125 
Q 49.265625 0.734375 44.1875 -0.34375 
Q 39.109375 -1.421875 33.890625 -1.421875 
Q 20.796875 -1.421875 13.15625 6.1875 
Q 5.515625 13.8125 5.515625 26.8125 
Q 5.515625 40.234375 12.765625 48.109375 
Q 20.015625 56 32.328125 56 
Q 43.359375 56 49.78125 48.890625 
Q 56.203125 41.796875 56.203125 29.59375 
z
M 47.21875 32.234375 
Q 47.125 39.59375 43.09375 43.984375 
Q 39.0625 48.390625 32.421875 48.390625 
Q 24.90625 48.390625 20.390625 44.140625 
Q 15.875 39.890625 15.1875 32.171875 
z
" id="DejaVuSans-101"/>
        <path d="M 52 44.1875 
Q 55.375 50.25 60.0625 53.125 
Q 64.75 56 71.09375 56 
Q 79.640625 56 84.28125 50.015625 
Q 88.921875 44.046875 88.921875 33.015625 
L 88.921875 0 
L 79.890625 0 
L 79.890625 32.71875 
Q 79.890625 40.578125 77.09375 44.375 
Q 74.3125 48.1875 68.609375 48.1875 
Q 61.625 48.1875 57.5625 43.546875 
Q 53.515625 38.921875 53.515625 30.90625 
L 53.515625 0 
L 44.484375 0 
L 44.484375 32.71875 
Q 44.484375 40.625 41.703125 44.40625 
Q 38.921875 48.1875 33.109375 48.1875 
Q 26.21875 48.1875 22.15625 43.53125 
Q 18.109375 38.875 18.109375 30.90625 
L 18.109375 0 
L 9.078125 0 
L 9.078125 54.6875 
L 18.109375 54.6875 
L 18.109375 46.1875 
Q 21.1875 51.21875 25.484375 53.609375 
Q 29.78125 56 35.6875 56 
Q 41.65625 56 45.828125 52.96875 
Q 50 49.953125 52 44.1875 
z
" id="DejaVuSans-109"/>
        <path d="M 45.40625 46.390625 
L 45.40625 75.984375 
L 54.390625 75.984375 
L 54.390625 0 
L 45.40625 0 
L 45.40625 8.203125 
Q 42.578125 3.328125 38.25 0.953125 
Q 33.9375 -1.421875 27.875 -1.421875 
Q 17.96875 -1.421875 11.734375 6.484375 
Q 5.515625 14.40625 5.515625 27.296875 
Q 5.515625 40.1875 11.734375 48.09375 
Q 17.96875 56 27.875 56 
Q 33.9375 56 38.25 53.625 
Q 42.578125 51.265625 45.40625 46.390625 
z
M 14.796875 27.296875 
Q 14.796875 17.390625 18.875 11.75 
Q 22.953125 6.109375 30.078125 6.109375 
Q 37.203125 6.109375 41.296875 11.75 
Q 45.40625 17.390625 45.40625 27.296875 
Q 45.40625 37.203125 41.296875 42.84375 
Q 37.203125 48.484375 30.078125 48.484375 
Q 22.953125 48.484375 18.875 42.84375 
Q 14.796875 37.203125 14.796875 27.296875 
z
" id="DejaVuSans-100"/>
       </defs>
       <use xlink:href="#DejaVuSans-73"/>
       <use x="29.492188" xlink:href="#DejaVuSans-114"/>
       <use x="68.855469" xlink:href="#DejaVuSans-114"/>
       <use x="109.96875" xlink:href="#DejaVuSans-105"/>
       <use x="137.751953" xlink:href="#DejaVuSans-103"/>
       <use x="201.228516" xlink:href="#DejaVuSans-97"/>
       <use x="262.507812" xlink:href="#DejaVuSans-116"/>
       <use x="301.716797" xlink:href="#DejaVuSans-105"/>
       <use x="329.5" xlink:href="#DejaVuSans-111"/>
       <use x="390.681641" xlink:href="#DejaVuSans-110"/>
       <use x="454.060547" xlink:href="#DejaVuSans-32"/>
       <use x="485.847656" xlink:href="#DejaVuSans-73"/>
       <use x="515.339844" xlink:href="#DejaVuSans-110"/>
       <use x="578.71875" xlink:href="#DejaVuSans-116"/>
       <use x="617.927734" xlink:href="#DejaVuSans-101"/>
       <use x="679.451172" xlink:href="#DejaVuSans-114"/>
       <use x="718.814453" xlink:href="#DejaVuSans-109"/>
       <use x="816.226562" xlink:href="#DejaVuSans-101"/>
       <use x="877.75" xlink:href="#DejaVuSans-100"/>
       <use x="941.226562" xlink:href="#DejaVuSans-105"/>
       <use x="969.009766" xlink:href="#DejaVuSans-97"/>
       <use x="1030.289062" xlink:href="#DejaVuSans-116"/>
       <use x="1069.498047" xlink:href="#DejaVuSans-101"/>
      </g>
     </g>
    </g>
    <g id="xtick_3">
     <g id="text_3">
      <!-- Rain-fed High -->
      <g style="fill:#262626;" transform="translate(192.559345 428.602969)rotate(-90)scale(0.165 -0.165)">
       <defs>
        <path d="M 44.390625 34.1875 
Q 47.5625 33.109375 50.5625 29.59375 
Q 53.5625 26.078125 56.59375 19.921875 
L 66.609375 0 
L 56 0 
L 46.6875 18.703125 
Q 43.0625 26.03125 39.671875 28.421875 
Q 36.28125 30.8125 30.421875 30.8125 
L 19.671875 30.8125 
L 19.671875 0 
L 9.8125 0 
L 9.8125 72.90625 
L 32.078125 72.90625 
Q 44.578125 72.90625 50.734375 67.671875 
Q 56.890625 62.453125 56.890625 51.90625 
Q 56.890625 45.015625 53.6875 40.46875 
Q 50.484375 35.9375 44.390625 34.1875 
z
M 19.671875 64.796875 
L 19.671875 38.921875 
L 32.078125 38.921875 
Q 39.203125 38.921875 42.84375 42.21875 
Q 46.484375 45.515625 46.484375 51.90625 
Q 46.484375 58.296875 42.84375 61.546875 
Q 39.203125 64.796875 32.078125 64.796875 
z
" id="DejaVuSans-82"/>
        <path d="M 4.890625 31.390625 
L 31.203125 31.390625 
L 31.203125 23.390625 
L 4.890625 23.390625 
z
" id="DejaVuSans-45"/>
        <path d="M 37.109375 75.984375 
L 37.109375 68.5 
L 28.515625 68.5 
Q 23.6875 68.5 21.796875 66.546875 
Q 19.921875 64.59375 19.921875 59.515625 
L 19.921875 54.6875 
L 34.71875 54.6875 
L 34.71875 47.703125 
L 19.921875 47.703125 
L 19.921875 0 
L 10.890625 0 
L 10.890625 47.703125 
L 2.296875 47.703125 
L 2.296875 54.6875 
L 10.890625 54.6875 
L 10.890625 58.5 
Q 10.890625 67.625 15.140625 71.796875 
Q 19.390625 75.984375 28.609375 75.984375 
z
" id="DejaVuSans-102"/>
       </defs>
       <use xlink:href="#DejaVuSans-82"/>
       <use x="67.232422" xlink:href="#DejaVuSans-97"/>
       <use x="128.511719" xlink:href="#DejaVuSans-105"/>
       <use x="156.294922" xlink:href="#DejaVuSans-110"/>
       <use x="219.673828" xlink:href="#DejaVuSans-45"/>
       <use x="255.757812" xlink:href="#DejaVuSans-102"/>
       <use x="290.962891" xlink:href="#DejaVuSans-101"/>
       <use x="352.486328" xlink:href="#DejaVuSans-100"/>
       <use x="415.962891" xlink:href="#DejaVuSans-32"/>
       <use x="447.75" xlink:href="#DejaVuSans-72"/>
       <use x="522.945312" xlink:href="#DejaVuSans-105"/>
       <use x="550.728516" xlink:href="#DejaVuSans-103"/>
       <use x="614.205078" xlink:href="#DejaVuSans-104"/>
      </g>
     </g>
    </g>
    <g id="xtick_4">
     <g id="text_4">
      <!-- Rain-fed Intermediate -->
      <g style="fill:#262626;" transform="translate(249.994395 497.134687)rotate(-90)scale(0.165 -0.165)">
       <use xlink:href="#DejaVuSans-82"/>
       <use x="67.232422" xlink:href="#DejaVuSans-97"/>
       <use x="128.511719" xlink:href="#DejaVuSans-105"/>
       <use x="156.294922" xlink:href="#DejaVuSans-110"/>
       <use x="219.673828" xlink:href="#DejaVuSans-45"/>
       <use x="255.757812" xlink:href="#DejaVuSans-102"/>
       <use x="290.962891" xlink:href="#DejaVuSans-101"/>
       <use x="352.486328" xlink:href="#DejaVuSans-100"/>
       <use x="415.962891" xlink:href="#DejaVuSans-32"/>
       <use x="447.75" xlink:href="#DejaVuSans-73"/>
       <use x="477.242188" xlink:href="#DejaVuSans-110"/>
       <use x="540.621094" xlink:href="#DejaVuSans-116"/>
       <use x="579.830078" xlink:href="#DejaVuSans-101"/>
       <use x="641.353516" xlink:href="#DejaVuSans-114"/>
       <use x="680.716797" xlink:href="#DejaVuSans-109"/>
       <use x="778.128906" xlink:href="#DejaVuSans-101"/>
       <use x="839.652344" xlink:href="#DejaVuSans-100"/>
       <use x="903.128906" xlink:href="#DejaVuSans-105"/>
       <use x="930.912109" xlink:href="#DejaVuSans-97"/>
       <use x="992.191406" xlink:href="#DejaVuSans-116"/>
       <use x="1031.400391" xlink:href="#DejaVuSans-101"/>
      </g>
     </g>
    </g>
    <g id="xtick_5">
     <g id="text_5">
      <!-- Rain-fed Low -->
      <g style="fill:#262626;" transform="translate(307.429445 423.173437)rotate(-90)scale(0.165 -0.165)">
       <defs>
        <path d="M 9.8125 72.90625 
L 19.671875 72.90625 
L 19.671875 8.296875 
L 55.171875 8.296875 
L 55.171875 0 
L 9.8125 0 
z
" id="DejaVuSans-76"/>
        <path d="M 4.203125 54.6875 
L 13.1875 54.6875 
L 24.421875 12.015625 
L 35.59375 54.6875 
L 46.1875 54.6875 
L 57.421875 12.015625 
L 68.609375 54.6875 
L 77.59375 54.6875 
L 63.28125 0 
L 52.6875 0 
L 40.921875 44.828125 
L 29.109375 0 
L 18.5 0 
z
" id="DejaVuSans-119"/>
       </defs>
       <use xlink:href="#DejaVuSans-82"/>
       <use x="67.232422" xlink:href="#DejaVuSans-97"/>
       <use x="128.511719" xlink:href="#DejaVuSans-105"/>
       <use x="156.294922" xlink:href="#DejaVuSans-110"/>
       <use x="219.673828" xlink:href="#DejaVuSans-45"/>
       <use x="255.757812" xlink:href="#DejaVuSans-102"/>
       <use x="290.962891" xlink:href="#DejaVuSans-101"/>
       <use x="352.486328" xlink:href="#DejaVuSans-100"/>
       <use x="415.962891" xlink:href="#DejaVuSans-32"/>
       <use x="447.75" xlink:href="#DejaVuSans-76"/>
       <use x="501.712891" xlink:href="#DejaVuSans-111"/>
       <use x="562.894531" xlink:href="#DejaVuSans-119"/>
      </g>
     </g>
    </g>
   </g>
   <g id="matplotlib.axis_2">
    <g id="ytick_1">
     <g id="text_6">
      <!-- 0 -->
      <g style="fill:#262626;" transform="translate(21.420625 298.187802)scale(0.165 -0.165)">
       <defs>
        <path d="M 31.78125 66.40625 
Q 24.171875 66.40625 20.328125 58.90625 
Q 16.5 51.421875 16.5 36.375 
Q 16.5 21.390625 20.328125 13.890625 
Q 24.171875 6.390625 31.78125 6.390625 
Q 39.453125 6.390625 43.28125 13.890625 
Q 47.125 21.390625 47.125 36.375 
Q 47.125 51.421875 43.28125 58.90625 
Q 39.453125 66.40625 31.78125 66.40625 
z
M 31.78125 74.21875 
Q 44.046875 74.21875 50.515625 64.515625 
Q 56.984375 54.828125 56.984375 36.375 
Q 56.984375 17.96875 50.515625 8.265625 
Q 44.046875 -1.421875 31.78125 -1.421875 
Q 19.53125 -1.421875 13.0625 8.265625 
Q 6.59375 17.96875 6.59375 36.375 
Q 6.59375 54.828125 13.0625 64.515625 
Q 19.53125 74.21875 31.78125 74.21875 
z
" id="DejaVuSans-48"/>
       </defs>
       <use xlink:href="#DejaVuSans-48"/>
      </g>
     </g>
    </g>
    <g id="ytick_2">
     <g id="text_7">
      <!-- 1 -->
      <g style="fill:#262626;" transform="translate(21.420625 246.199941)scale(0.165 -0.165)">
       <defs>
        <path d="M 12.40625 8.296875 
L 28.515625 8.296875 
L 28.515625 63.921875 
L 10.984375 60.40625 
L 10.984375 69.390625 
L 28.421875 72.90625 
L 38.28125 72.90625 
L 38.28125 8.296875 
L 54.390625 8.296875 
L 54.390625 0 
L 12.40625 0 
z
" id="DejaVuSans-49"/>
       </defs>
       <use xlink:href="#DejaVuSans-49"/>
      </g>
     </g>
    </g>
    <g id="ytick_3">
     <g id="text_8">
      <!-- 2 -->
      <g style="fill:#262626;" transform="translate(21.420625 194.21208)scale(0.165 -0.165)">
       <defs>
        <path d="M 19.1875 8.296875 
L 53.609375 8.296875 
L 53.609375 0 
L 7.328125 0 
L 7.328125 8.296875 
Q 12.9375 14.109375 22.625 23.890625 
Q 32.328125 33.6875 34.8125 36.53125 
Q 39.546875 41.84375 41.421875 45.53125 
Q 43.3125 49.21875 43.3125 52.78125 
Q 43.3125 58.59375 39.234375 62.25 
Q 35.15625 65.921875 28.609375 65.921875 
Q 23.96875 65.921875 18.8125 64.3125 
Q 13.671875 62.703125 7.8125 59.421875 
L 7.8125 69.390625 
Q 13.765625 71.78125 18.9375 73 
Q 24.125 74.21875 28.421875 74.21875 
Q 39.75 74.21875 46.484375 68.546875 
Q 53.21875 62.890625 53.21875 53.421875 
Q 53.21875 48.921875 51.53125 44.890625 
Q 49.859375 40.875 45.40625 35.40625 
Q 44.1875 33.984375 37.640625 27.21875 
Q 31.109375 20.453125 19.1875 8.296875 
z
" id="DejaVuSans-50"/>
       </defs>
       <use xlink:href="#DejaVuSans-50"/>
      </g>
     </g>
    </g>
    <g id="ytick_4">
     <g id="text_9">
      <!-- 3 -->
      <g style="fill:#262626;" transform="translate(21.420625 142.224219)scale(0.165 -0.165)">
       <defs>
        <path d="M 40.578125 39.3125 
Q 47.65625 37.796875 51.625 33 
Q 55.609375 28.21875 55.609375 21.1875 
Q 55.609375 10.40625 48.1875 4.484375 
Q 40.765625 -1.421875 27.09375 -1.421875 
Q 22.515625 -1.421875 17.65625 -0.515625 
Q 12.796875 0.390625 7.625 2.203125 
L 7.625 11.71875 
Q 11.71875 9.328125 16.59375 8.109375 
Q 21.484375 6.890625 26.8125 6.890625 
Q 36.078125 6.890625 40.9375 10.546875 
Q 45.796875 14.203125 45.796875 21.1875 
Q 45.796875 27.640625 41.28125 31.265625 
Q 36.765625 34.90625 28.71875 34.90625 
L 20.21875 34.90625 
L 20.21875 43.015625 
L 29.109375 43.015625 
Q 36.375 43.015625 40.234375 45.921875 
Q 44.09375 48.828125 44.09375 54.296875 
Q 44.09375 59.90625 40.109375 62.90625 
Q 36.140625 65.921875 28.71875 65.921875 
Q 24.65625 65.921875 20.015625 65.03125 
Q 15.375 64.15625 9.8125 62.3125 
L 9.8125 71.09375 
Q 15.4375 72.65625 20.34375 73.4375 
Q 25.25 74.21875 29.59375 74.21875 
Q 40.828125 74.21875 47.359375 69.109375 
Q 53.90625 64.015625 53.90625 55.328125 
Q 53.90625 49.265625 50.4375 45.09375 
Q 46.96875 40.921875 40.578125 39.3125 
z
" id="DejaVuSans-51"/>
       </defs>
       <use xlink:href="#DejaVuSans-51"/>
      </g>
     </g>
    </g>
    <g id="ytick_5">
     <g id="text_10">
      <!-- 4 -->
      <g style="fill:#262626;" transform="translate(21.420625 90.236358)scale(0.165 -0.165)">
       <defs>
        <path d="M 37.796875 64.3125 
L 12.890625 25.390625 
L 37.796875 25.390625 
z
M 35.203125 72.90625 
L 47.609375 72.90625 
L 47.609375 25.390625 
L 58.015625 25.390625 
L 58.015625 17.1875 
L 47.609375 17.1875 
L 47.609375 0 
L 37.796875 0 
L 37.796875 17.1875 
L 4.890625 17.1875 
L 4.890625 26.703125 
z
" id="DejaVuSans-52"/>
       </defs>
       <use xlink:href="#DejaVuSans-52"/>
      </g>
     </g>
    </g>
    <g id="ytick_6">
     <g id="text_11">
      <!-- 5 -->
      <g style="fill:#262626;" transform="translate(21.420625 38.248498)scale(0.165 -0.165)">
       <defs>
        <path d="M 10.796875 72.90625 
L 49.515625 72.90625 
L 49.515625 64.59375 
L 19.828125 64.59375 
L 19.828125 46.734375 
Q 21.96875 47.46875 24.109375 47.828125 
Q 26.265625 48.1875 28.421875 48.1875 
Q 40.625 48.1875 47.75 41.5 
Q 54.890625 34.8125 54.890625 23.390625 
Q 54.890625 11.625 47.5625 5.09375 
Q 40.234375 -1.421875 26.90625 -1.421875 
Q 22.3125 -1.421875 17.546875 -0.640625 
Q 12.796875 0.140625 7.71875 1.703125 
L 7.71875 11.625 
Q 12.109375 9.234375 16.796875 8.0625 
Q 21.484375 6.890625 26.703125 6.890625 
Q 35.15625 6.890625 40.078125 11.328125 
Q 45.015625 15.765625 45.015625 23.390625 
Q 45.015625 31 40.078125 35.4375 
Q 35.15625 39.890625 26.703125 39.890625 
Q 22.75 39.890625 18.8125 39.015625 
Q 14.890625 38.140625 10.796875 36.28125 
z
" id="DejaVuSans-53"/>
       </defs>
       <use xlink:href="#DejaVuSans-53"/>
      </g>
     </g>
    </g>
    <g id="text_12">
     <!-- Yield (t/ha) -->
     <g style="fill:#262626;" transform="translate(13.677187 217.195156)rotate(-90)scale(0.18 -0.18)">
      <defs>
       <path d="M -0.203125 72.90625 
L 10.40625 72.90625 
L 30.609375 42.921875 
L 50.6875 72.90625 
L 61.28125 72.90625 
L 35.5 34.71875 
L 35.5 0 
L 25.59375 0 
L 25.59375 34.71875 
z
" id="DejaVuSans-89"/>
       <path d="M 9.421875 75.984375 
L 18.40625 75.984375 
L 18.40625 0 
L 9.421875 0 
z
" id="DejaVuSans-108"/>
       <path d="M 31 75.875 
Q 24.46875 64.65625 21.28125 53.65625 
Q 18.109375 42.671875 18.109375 31.390625 
Q 18.109375 20.125 21.3125 9.0625 
Q 24.515625 -2 31 -13.1875 
L 23.1875 -13.1875 
Q 15.875 -1.703125 12.234375 9.375 
Q 8.59375 20.453125 8.59375 31.390625 
Q 8.59375 42.28125 12.203125 53.3125 
Q 15.828125 64.359375 23.1875 75.875 
z
" id="DejaVuSans-40"/>
       <path d="M 25.390625 72.90625 
L 33.6875 72.90625 
L 8.296875 -9.28125 
L 0 -9.28125 
z
" id="DejaVuSans-47"/>
       <path d="M 8.015625 75.875 
L 15.828125 75.875 
Q 23.140625 64.359375 26.78125 53.3125 
Q 30.421875 42.28125 30.421875 31.390625 
Q 30.421875 20.453125 26.78125 9.375 
Q 23.140625 -1.703125 15.828125 -13.1875 
L 8.015625 -13.1875 
Q 14.5 -2 17.703125 9.0625 
Q 20.90625 20.125 20.90625 31.390625 
Q 20.90625 42.671875 17.703125 53.65625 
Q 14.5 64.65625 8.015625 75.875 
z
" id="DejaVuSans-41"/>
      </defs>
      <use xlink:href="#DejaVuSans-89"/>
      <use x="57.458984" xlink:href="#DejaVuSans-105"/>
      <use x="85.242188" xlink:href="#DejaVuSans-101"/>
      <use x="146.765625" xlink:href="#DejaVuSans-108"/>
      <use x="174.548828" xlink:href="#DejaVuSans-100"/>
      <use x="238.025391" xlink:href="#DejaVuSans-32"/>
      <use x="269.8125" xlink:href="#DejaVuSans-40"/>
      <use x="308.826172" xlink:href="#DejaVuSans-116"/>
      <use x="348.035156" xlink:href="#DejaVuSans-47"/>
      <use x="381.726562" xlink:href="#DejaVuSans-104"/>
      <use x="445.105469" xlink:href="#DejaVuSans-97"/>
      <use x="506.384766" xlink:href="#DejaVuSans-41"/>
     </g>
    </g>
   </g>
   <g id="PolyCollection_1">
    <defs>
     <path d="M 73.136275 -211.501065 
L 50.162255 -211.501065 
L 50.643725 -214.002259 
L 51.971788 -216.503453 
L 53.835828 -219.004647 
L 55.85093 -221.50584 
L 57.683922 -224.007034 
L 59.13358 -226.508228 
L 60.143724 -229.009422 
L 60.764835 -231.510615 
L 61.097393 -234.011809 
L 61.245002 -236.513003 
L 61.289069 -239.014197 
L 61.282663 -241.51539 
L 61.255156 -244.016584 
L 61.220119 -246.517778 
L 61.182316 -249.018972 
L 61.142527 -251.520165 
L 61.100363 -254.021359 
L 61.055624 -256.522553 
L 61.00866 -259.023747 
L 60.960154 -261.52494 
L 60.910656 -264.026134 
L 60.860216 -266.527328 
L 60.808297 -269.028522 
L 60.754073 -271.529715 
L 60.697001 -274.030909 
L 60.637491 -276.532103 
L 60.577411 -279.033297 
L 60.520229 -281.534491 
L 60.470673 -284.035684 
L 60.433981 -286.536878 
L 60.41495 -289.038072 
L 60.417081 -291.539266 
L 60.44201 -294.040459 
L 60.489283 -296.541653 
L 60.556365 -299.042847 
L 60.638783 -301.544041 
L 60.730462 -304.045234 
L 60.82435 -306.546428 
L 60.913397 -309.047622 
L 60.991711 -311.548816 
L 61.055501 -314.050009 
L 61.103466 -316.551203 
L 61.136501 -319.052397 
L 61.156905 -321.553591 
L 61.167474 -324.054784 
L 61.170852 -326.555978 
L 61.169283 -329.057172 
L 61.164696 -331.558366 
L 61.158875 -334.059559 
L 61.153504 -336.560753 
L 61.149996 -339.061947 
L 61.14923 -341.563141 
L 61.15139 -344.064334 
L 61.156046 -346.565528 
L 61.162462 -349.066722 
L 61.169978 -351.567916 
L 61.178269 -354.069109 
L 61.187378 -356.570303 
L 61.197542 -359.071497 
L 61.208926 -361.572691 
L 61.221423 -364.073884 
L 61.234576 -366.575078 
L 61.24761 -369.076272 
L 61.259485 -371.577466 
L 61.268924 -374.078659 
L 61.274408 -376.579853 
L 61.274214 -379.081047 
L 61.266551 -381.582241 
L 61.249816 -384.083434 
L 61.222954 -386.584628 
L 61.185907 -389.085822 
L 61.140152 -391.587016 
L 61.089231 -394.08821 
L 61.039013 -396.589403 
L 60.997343 -399.090597 
L 60.972758 -401.591791 
L 60.972419 -404.092985 
L 60.999866 -406.594178 
L 61.053521 -409.095372 
L 61.126686 -411.596566 
L 61.209147 -414.09776 
L 61.289777 -416.598953 
L 61.359183 -419.100147 
L 61.411549 -421.601341 
L 61.445282 -424.102535 
L 61.462578 -426.603728 
L 61.468255 -429.104922 
L 61.468265 -431.606116 
L 61.468219 -434.10731 
L 61.472194 -436.608503 
L 61.482092 -439.109697 
L 61.497662 -441.610891 
L 61.517134 -444.112085 
L 61.53815 -446.613278 
L 61.558623 -449.114472 
L 61.577208 -451.615666 
L 61.593337 -454.11686 
L 61.606964 -456.618053 
L 61.618255 -459.119247 
L 61.680275 -459.119247 
L 61.680275 -459.119247 
L 61.691566 -456.618053 
L 61.705193 -454.11686 
L 61.721322 -451.615666 
L 61.739908 -449.114472 
L 61.760381 -446.613278 
L 61.781397 -444.112085 
L 61.800868 -441.610891 
L 61.816438 -439.109697 
L 61.826336 -436.608503 
L 61.830311 -434.10731 
L 61.830265 -431.606116 
L 61.830276 -429.104922 
L 61.835952 -426.603728 
L 61.853248 -424.102535 
L 61.886982 -421.601341 
L 61.939347 -419.100147 
L 62.008753 -416.598953 
L 62.089383 -414.09776 
L 62.171844 -411.596566 
L 62.24501 -409.095372 
L 62.298664 -406.594178 
L 62.326111 -404.092985 
L 62.325772 -401.591791 
L 62.301187 -399.090597 
L 62.259517 -396.589403 
L 62.209299 -394.08821 
L 62.158378 -391.587016 
L 62.112624 -389.085822 
L 62.075576 -386.584628 
L 62.048714 -384.083434 
L 62.031979 -381.582241 
L 62.024316 -379.081047 
L 62.024122 -376.579853 
L 62.029606 -374.078659 
L 62.039045 -371.577466 
L 62.05092 -369.076272 
L 62.063954 -366.575078 
L 62.077107 -364.073884 
L 62.089604 -361.572691 
L 62.100988 -359.071497 
L 62.111152 -356.570303 
L 62.120261 -354.069109 
L 62.128552 -351.567916 
L 62.136068 -349.066722 
L 62.142485 -346.565528 
L 62.147141 -344.064334 
L 62.1493 -341.563141 
L 62.148534 -339.061947 
L 62.145026 -336.560753 
L 62.139655 -334.059559 
L 62.133834 -331.558366 
L 62.129247 -329.057172 
L 62.127678 -326.555978 
L 62.131057 -324.054784 
L 62.141626 -321.553591 
L 62.162029 -319.052397 
L 62.195064 -316.551203 
L 62.24303 -314.050009 
L 62.306819 -311.548816 
L 62.385133 -309.047622 
L 62.47418 -306.546428 
L 62.568068 -304.045234 
L 62.659747 -301.544041 
L 62.742165 -299.042847 
L 62.809247 -296.541653 
L 62.856521 -294.040459 
L 62.881449 -291.539266 
L 62.88358 -289.038072 
L 62.864549 -286.536878 
L 62.827857 -284.035684 
L 62.778301 -281.534491 
L 62.721119 -279.033297 
L 62.661039 -276.532103 
L 62.601529 -274.030909 
L 62.544457 -271.529715 
L 62.490233 -269.028522 
L 62.438314 -266.527328 
L 62.387874 -264.026134 
L 62.338377 -261.52494 
L 62.28987 -259.023747 
L 62.242907 -256.522553 
L 62.198167 -254.021359 
L 62.156003 -251.520165 
L 62.116214 -249.018972 
L 62.078412 -246.517778 
L 62.043374 -244.016584 
L 62.015867 -241.51539 
L 62.009461 -239.014197 
L 62.053529 -236.513003 
L 62.201137 -234.011809 
L 62.533695 -231.510615 
L 63.154806 -229.009422 
L 64.16495 -226.508228 
L 65.614608 -224.007034 
L 67.4476 -221.50584 
L 69.462703 -219.004647 
L 71.326742 -216.503453 
L 72.654805 -214.002259 
L 73.136275 -211.501065 
z
" id="m2835f54865" style="stroke:#545454;stroke-width:2.5;"/>
    </defs>
    <g clip-path="url(#p0fe184fb91)">
     <use style="fill:#597dbf;stroke:#545454;stroke-width:2.5;" x="0" xlink:href="#m2835f54865" y="503.420156"/>
    </g>
   </g>
   <g id="PolyCollection_2">
    <defs>
     <path d="M 85.521867 -211.769532 
L 83.724704 -211.769532 
L 83.705958 -213.81583 
L 83.687591 -215.862128 
L 83.669617 -217.908426 
L 83.652045 -219.954724 
L 83.634884 -222.001022 
L 83.61814 -224.04732 
L 83.601815 -226.093618 
L 83.58591 -228.139916 
L 83.570423 -230.186214 
L 83.555352 -232.232512 
L 83.540691 -234.27881 
L 83.526432 -236.325108 
L 83.512567 -238.371406 
L 83.499086 -240.417704 
L 83.485977 -242.464002 
L 83.473229 -244.5103 
L 83.460829 -246.556598 
L 83.448763 -248.602896 
L 83.437017 -250.649194 
L 83.425578 -252.695492 
L 83.414432 -254.74179 
L 83.403565 -256.788088 
L 83.392964 -258.834386 
L 83.382616 -260.880684 
L 83.372511 -262.926982 
L 83.362636 -264.97328 
L 83.352982 -267.019578 
L 83.343541 -269.065876 
L 83.334304 -271.112174 
L 83.325264 -273.158472 
L 83.316416 -275.20477 
L 83.307756 -277.251068 
L 83.299281 -279.297366 
L 83.290988 -281.343664 
L 83.282877 -283.389962 
L 83.274947 -285.43626 
L 83.267199 -287.482558 
L 83.259636 -289.528856 
L 83.252259 -291.575154 
L 83.245073 -293.621452 
L 83.238082 -295.66775 
L 83.231289 -297.714048 
L 83.224699 -299.760346 
L 83.218319 -301.806644 
L 83.212153 -303.852942 
L 83.206208 -305.89924 
L 83.200489 -307.945538 
L 83.195003 -309.991836 
L 83.189756 -312.038134 
L 83.184754 -314.084432 
L 83.180004 -316.13073 
L 83.175512 -318.177028 
L 83.171287 -320.223326 
L 83.167333 -322.269624 
L 83.163659 -324.315922 
L 83.160273 -326.36222 
L 83.157181 -328.408518 
L 83.154394 -330.454816 
L 83.151919 -332.501114 
L 83.149767 -334.547412 
L 83.147947 -336.59371 
L 83.146471 -338.640008 
L 83.14535 -340.686306 
L 83.144598 -342.732604 
L 83.144228 -344.778902 
L 83.144255 -346.8252 
L 83.144694 -348.871498 
L 83.145563 -350.917796 
L 83.146879 -352.964094 
L 83.14866 -355.010392 
L 83.150927 -357.05669 
L 83.153699 -359.102988 
L 83.156999 -361.149286 
L 83.160846 -363.195584 
L 83.165264 -365.241882 
L 83.170275 -367.28818 
L 83.175902 -369.334478 
L 83.182166 -371.380776 
L 83.18909 -373.427074 
L 83.196695 -375.473372 
L 83.205001 -377.51967 
L 83.21403 -379.565968 
L 83.223798 -381.612266 
L 83.234323 -383.658564 
L 83.24562 -385.704862 
L 83.257701 -387.75116 
L 83.270577 -389.797458 
L 83.284257 -391.843756 
L 83.298746 -393.890054 
L 83.314047 -395.936352 
L 83.330159 -397.98265 
L 83.347078 -400.028948 
L 83.364797 -402.075246 
L 83.383307 -404.121544 
L 83.402592 -406.167842 
L 83.422636 -408.21414 
L 83.443418 -410.260438 
L 83.464912 -412.306736 
L 83.487091 -414.353034 
L 85.759479 -414.353034 
L 85.759479 -414.353034 
L 85.781658 -412.306736 
L 85.803153 -410.260438 
L 85.823934 -408.21414 
L 85.843978 -406.167842 
L 85.863263 -404.121544 
L 85.881773 -402.075246 
L 85.899493 -400.028948 
L 85.916412 -397.98265 
L 85.932523 -395.936352 
L 85.947824 -393.890054 
L 85.962313 -391.843756 
L 85.975993 -389.797458 
L 85.98887 -387.75116 
L 86.000951 -385.704862 
L 86.012247 -383.658564 
L 86.022772 -381.612266 
L 86.032541 -379.565968 
L 86.041569 -377.51967 
L 86.049876 -375.473372 
L 86.057481 -373.427074 
L 86.064405 -371.380776 
L 86.070669 -369.334478 
L 86.076295 -367.28818 
L 86.081306 -365.241882 
L 86.085724 -363.195584 
L 86.089572 -361.149286 
L 86.092871 -359.102988 
L 86.095644 -357.05669 
L 86.09791 -355.010392 
L 86.099692 -352.964094 
L 86.101008 -350.917796 
L 86.101876 -348.871498 
L 86.102316 -346.8252 
L 86.102343 -344.778902 
L 86.101973 -342.732604 
L 86.10122 -340.686306 
L 86.1001 -338.640008 
L 86.098624 -336.59371 
L 86.096804 -334.547412 
L 86.094651 -332.501114 
L 86.092176 -330.454816 
L 86.089389 -328.408518 
L 86.086298 -326.36222 
L 86.082911 -324.315922 
L 86.079237 -322.269624 
L 86.075284 -320.223326 
L 86.071058 -318.177028 
L 86.066567 -316.13073 
L 86.061817 -314.084432 
L 86.056815 -312.038134 
L 86.051568 -309.991836 
L 86.046081 -307.945538 
L 86.040363 -305.89924 
L 86.034417 -303.852942 
L 86.028252 -301.806644 
L 86.021871 -299.760346 
L 86.015282 -297.714048 
L 86.008489 -295.66775 
L 86.001497 -293.621452 
L 85.994311 -291.575154 
L 85.986935 -289.528856 
L 85.979371 -287.482558 
L 85.971624 -285.43626 
L 85.963694 -283.389962 
L 85.955582 -281.343664 
L 85.947289 -279.297366 
L 85.938814 -277.251068 
L 85.930154 -275.20477 
L 85.921306 -273.158472 
L 85.912267 -271.112174 
L 85.90303 -269.065876 
L 85.893588 -267.019578 
L 85.883934 -264.97328 
L 85.87406 -262.926982 
L 85.863954 -260.880684 
L 85.853607 -258.834386 
L 85.843006 -256.788088 
L 85.832139 -254.74179 
L 85.820992 -252.695492 
L 85.809553 -250.649194 
L 85.797807 -248.602896 
L 85.785741 -246.556598 
L 85.773341 -244.5103 
L 85.760593 -242.464002 
L 85.747485 -240.417704 
L 85.734004 -238.371406 
L 85.720139 -236.325108 
L 85.70588 -234.27881 
L 85.691218 -232.232512 
L 85.676147 -230.186214 
L 85.660661 -228.139916 
L 85.644756 -226.093618 
L 85.62843 -224.04732 
L 85.611686 -222.001022 
L 85.594525 -219.954724 
L 85.576954 -217.908426 
L 85.558979 -215.862128 
L 85.540613 -213.81583 
L 85.521867 -211.769532 
z
" id="mf4ee34c2ce" style="stroke:#545454;stroke-width:2.5;"/>
    </defs>
    <g clip-path="url(#p0fe184fb91)">
     <use style="fill:#d98b5f;stroke:#545454;stroke-width:2.5;" x="0" xlink:href="#mf4ee34c2ce" y="503.420156"/>
    </g>
   </g>
   <g id="PolyCollection_3">
    <defs>
     <path d="M 130.571325 -211.501065 
L 107.597305 -211.501065 
L 108.071115 -213.023417 
L 109.379415 -214.545768 
L 111.221359 -216.06812 
L 113.222044 -217.590472 
L 115.053706 -219.112823 
L 116.514374 -220.635175 
L 117.542812 -222.157526 
L 118.18346 -223.679878 
L 118.532382 -225.202229 
L 118.691337 -226.724581 
L 118.74202 -228.246933 
L 118.738921 -229.769284 
L 118.713095 -231.291636 
L 118.679548 -232.813987 
L 118.644014 -234.336339 
L 118.607739 -235.85869 
L 118.570334 -237.381042 
L 118.53123 -238.903394 
L 118.490214 -240.425745 
L 118.447438 -241.948097 
L 118.403175 -243.470448 
L 118.35755 -244.9928 
L 118.310379 -246.515151 
L 118.261194 -248.037503 
L 118.209445 -249.559854 
L 118.154851 -251.082206 
L 118.0978 -252.604558 
L 118.039677 -254.126909 
L 117.983022 -255.649261 
L 117.931435 -257.171612 
L 117.889225 -258.693964 
L 117.86088 -260.216315 
L 117.850438 -261.738667 
L 117.860861 -263.261019 
L 117.893495 -264.78337 
L 117.947644 -266.305722 
L 118.020344 -267.828073 
L 118.106437 -269.350425 
L 118.19908 -270.872776 
L 118.290697 -272.395128 
L 118.374237 -273.91748 
L 118.444386 -275.439831 
L 118.498333 -276.962183 
L 118.535863 -278.484534 
L 118.558831 -280.006886 
L 118.570305 -281.529237 
L 118.573742 -283.051589 
L 118.572437 -284.57394 
L 118.569256 -286.096292 
L 118.566549 -287.618644 
L 118.566093 -289.140995 
L 118.569012 -290.663347 
L 118.575693 -292.185698 
L 118.585763 -293.70805 
L 118.598189 -295.230401 
L 118.611503 -296.752753 
L 118.624159 -298.275105 
L 118.634927 -299.797456 
L 118.643226 -301.319808 
L 118.649271 -302.842159 
L 118.653947 -304.364511 
L 118.658446 -305.886862 
L 118.663787 -307.409214 
L 118.670391 -308.931565 
L 118.67786 -310.453917 
L 118.684991 -311.976269 
L 118.689999 -313.49862 
L 118.690842 -315.020972 
L 118.685576 -316.543323 
L 118.672646 -318.065675 
L 118.651132 -319.588026 
L 118.620985 -321.110378 
L 118.583337 -322.63273 
L 118.540909 -324.155081 
L 118.49834 -325.677433 
L 118.462113 -327.199784 
L 118.439729 -328.722136 
L 118.438069 -330.244487 
L 118.461347 -331.766839 
L 118.509438 -333.289191 
L 118.57738 -334.811542 
L 118.656355 -336.333894 
L 118.735854 -337.856245 
L 118.806214 -339.378597 
L 118.860685 -340.900948 
L 118.896477 -342.4233 
L 118.914709 -343.945651 
L 118.919519 -345.468003 
L 118.916694 -346.990355 
L 118.912204 -348.512706 
L 118.910917 -350.035058 
L 118.915768 -351.557409 
L 118.927508 -353.079761 
L 118.94505 -354.602112 
L 118.966207 -356.124464 
L 118.988512 -357.646816 
L 119.009859 -359.169167 
L 119.028817 -360.691519 
L 119.04465 -362.21387 
L 119.123981 -362.21387 
L 119.123981 -362.21387 
L 119.139814 -360.691519 
L 119.158772 -359.169167 
L 119.180119 -357.646816 
L 119.202424 -356.124464 
L 119.223581 -354.602112 
L 119.241123 -353.079761 
L 119.252863 -351.557409 
L 119.257713 -350.035058 
L 119.256427 -348.512706 
L 119.251937 -346.990355 
L 119.249112 -345.468003 
L 119.253921 -343.945651 
L 119.272154 -342.4233 
L 119.307945 -340.900948 
L 119.362417 -339.378597 
L 119.432777 -337.856245 
L 119.512276 -336.333894 
L 119.591251 -334.811542 
L 119.659193 -333.289191 
L 119.707284 -331.766839 
L 119.730561 -330.244487 
L 119.728902 -328.722136 
L 119.706518 -327.199784 
L 119.670291 -325.677433 
L 119.627722 -324.155081 
L 119.585294 -322.63273 
L 119.547646 -321.110378 
L 119.517499 -319.588026 
L 119.495985 -318.065675 
L 119.483055 -316.543323 
L 119.477788 -315.020972 
L 119.478632 -313.49862 
L 119.48364 -311.976269 
L 119.490771 -310.453917 
L 119.498239 -308.931565 
L 119.504844 -307.409214 
L 119.510185 -305.886862 
L 119.514684 -304.364511 
L 119.51936 -302.842159 
L 119.525405 -301.319808 
L 119.533704 -299.797456 
L 119.544472 -298.275105 
L 119.557128 -296.752753 
L 119.570442 -295.230401 
L 119.582867 -293.70805 
L 119.592938 -292.185698 
L 119.599619 -290.663347 
L 119.602538 -289.140995 
L 119.602082 -287.618644 
L 119.599375 -286.096292 
L 119.596194 -284.57394 
L 119.594889 -283.051589 
L 119.598326 -281.529237 
L 119.6098 -280.006886 
L 119.632768 -278.484534 
L 119.670298 -276.962183 
L 119.724245 -275.439831 
L 119.794394 -273.91748 
L 119.877934 -272.395128 
L 119.969551 -270.872776 
L 120.062194 -269.350425 
L 120.148287 -267.828073 
L 120.220986 -266.305722 
L 120.275136 -264.78337 
L 120.30777 -263.261019 
L 120.318193 -261.738667 
L 120.30775 -260.216315 
L 120.279406 -258.693964 
L 120.237196 -257.171612 
L 120.185609 -255.649261 
L 120.128954 -254.126909 
L 120.070831 -252.604558 
L 120.013779 -251.082206 
L 119.959186 -249.559854 
L 119.907437 -248.037503 
L 119.858251 -246.515151 
L 119.811081 -244.9928 
L 119.765456 -243.470448 
L 119.721193 -241.948097 
L 119.678417 -240.425745 
L 119.637401 -238.903394 
L 119.598296 -237.381042 
L 119.560892 -235.85869 
L 119.524617 -234.336339 
L 119.489083 -232.813987 
L 119.455536 -231.291636 
L 119.42971 -229.769284 
L 119.426611 -228.246933 
L 119.477294 -226.724581 
L 119.636249 -225.202229 
L 119.985171 -223.679878 
L 120.625818 -222.157526 
L 121.654257 -220.635175 
L 123.114924 -219.112823 
L 124.946587 -217.590472 
L 126.947272 -216.06812 
L 128.789215 -214.545768 
L 130.097516 -213.023417 
L 130.571325 -211.501065 
z
" id="m7f80df6053" style="stroke:#545454;stroke-width:2.5;"/>
    </defs>
    <g clip-path="url(#p0fe184fb91)">
     <use style="fill:#597dbf;stroke:#545454;stroke-width:2.5;" x="0" xlink:href="#m7f80df6053" y="503.420156"/>
    </g>
   </g>
   <g id="PolyCollection_4">
    <defs>
     <path d="M 142.951223 -211.66713 
L 141.165448 -211.66713 
L 141.147167 -212.894707 
L 141.12926 -214.122284 
L 141.111737 -215.349861 
L 141.094606 -216.577438 
L 141.077872 -217.805015 
L 141.061537 -219.032592 
L 141.045603 -220.260169 
L 141.030065 -221.487746 
L 141.014919 -222.715323 
L 141.000158 -223.9429 
L 140.985774 -225.170477 
L 140.971756 -226.398054 
L 140.958092 -227.625631 
L 140.944767 -228.853208 
L 140.931767 -230.080785 
L 140.919077 -231.308362 
L 140.90668 -232.535939 
L 140.894559 -233.763516 
L 140.882698 -234.991093 
L 140.871079 -236.21867 
L 140.859687 -237.446247 
L 140.848504 -238.673824 
L 140.837516 -239.901401 
L 140.826708 -241.128978 
L 140.816067 -242.356555 
L 140.80558 -243.584132 
L 140.795237 -244.811709 
L 140.785028 -246.039286 
L 140.774947 -247.266863 
L 140.764986 -248.49444 
L 140.755141 -249.722017 
L 140.745409 -250.949594 
L 140.73579 -252.177171 
L 140.726284 -253.404748 
L 140.716893 -254.632325 
L 140.70762 -255.859902 
L 140.698471 -257.087479 
L 140.689452 -258.315056 
L 140.680571 -259.542633 
L 140.671837 -260.77021 
L 140.663259 -261.997787 
L 140.654849 -263.225364 
L 140.646616 -264.452941 
L 140.638574 -265.680518 
L 140.630734 -266.908095 
L 140.62311 -268.135672 
L 140.615714 -269.363249 
L 140.60856 -270.590826 
L 140.60166 -271.818403 
L 140.595027 -273.04598 
L 140.588674 -274.273557 
L 140.582615 -275.501134 
L 140.576861 -276.728711 
L 140.571426 -277.956288 
L 140.56632 -279.183865 
L 140.561557 -280.411442 
L 140.557148 -281.639019 
L 140.553104 -282.866596 
L 140.549438 -284.094173 
L 140.546161 -285.32175 
L 140.543284 -286.549327 
L 140.540819 -287.776904 
L 140.538779 -289.004481 
L 140.537176 -290.232058 
L 140.536022 -291.459635 
L 140.53533 -292.687212 
L 140.535115 -293.914789 
L 140.535389 -295.142366 
L 140.536168 -296.369943 
L 140.537467 -297.59752 
L 140.539301 -298.825097 
L 140.541686 -300.052674 
L 140.544641 -301.280251 
L 140.54818 -302.507828 
L 140.552324 -303.735405 
L 140.557088 -304.962982 
L 140.562491 -306.190559 
L 140.568552 -307.418136 
L 140.575288 -308.645713 
L 140.582717 -309.87329 
L 140.590855 -311.100867 
L 140.599721 -312.328444 
L 140.609328 -313.556021 
L 140.619692 -314.783598 
L 140.630825 -316.011175 
L 140.64274 -317.238752 
L 140.655446 -318.466329 
L 140.668951 -319.693906 
L 140.68326 -320.921483 
L 140.698377 -322.14906 
L 140.714303 -323.376637 
L 140.731034 -324.604214 
L 140.748567 -325.831791 
L 140.766893 -327.059368 
L 140.786001 -328.286945 
L 140.805876 -329.514522 
L 140.826501 -330.742099 
L 140.847855 -331.969676 
L 140.869913 -333.197253 
L 143.246758 -333.197253 
L 143.246758 -333.197253 
L 143.268816 -331.969676 
L 143.29017 -330.742099 
L 143.310795 -329.514522 
L 143.33067 -328.286945 
L 143.349778 -327.059368 
L 143.368104 -325.831791 
L 143.385637 -324.604214 
L 143.402368 -323.376637 
L 143.418294 -322.14906 
L 143.433411 -320.921483 
L 143.44772 -319.693906 
L 143.461225 -318.466329 
L 143.473931 -317.238752 
L 143.485846 -316.011175 
L 143.496979 -314.783598 
L 143.507343 -313.556021 
L 143.516951 -312.328444 
L 143.525816 -311.100867 
L 143.533954 -309.87329 
L 143.541383 -308.645713 
L 143.548119 -307.418136 
L 143.55418 -306.190559 
L 143.559583 -304.962982 
L 143.564347 -303.735405 
L 143.568491 -302.507828 
L 143.57203 -301.280251 
L 143.574985 -300.052674 
L 143.57737 -298.825097 
L 143.579204 -297.59752 
L 143.580503 -296.369943 
L 143.581282 -295.142366 
L 143.581556 -293.914789 
L 143.581341 -292.687212 
L 143.580649 -291.459635 
L 143.579495 -290.232058 
L 143.577892 -289.004481 
L 143.575852 -287.776904 
L 143.573387 -286.549327 
L 143.57051 -285.32175 
L 143.567233 -284.094173 
L 143.563567 -282.866596 
L 143.559523 -281.639019 
L 143.555114 -280.411442 
L 143.550351 -279.183865 
L 143.545245 -277.956288 
L 143.53981 -276.728711 
L 143.534056 -275.501134 
L 143.527997 -274.273557 
L 143.521644 -273.04598 
L 143.515011 -271.818403 
L 143.508111 -270.590826 
L 143.500957 -269.363249 
L 143.493561 -268.135672 
L 143.485937 -266.908095 
L 143.478097 -265.680518 
L 143.470055 -264.452941 
L 143.461822 -263.225364 
L 143.453412 -261.997787 
L 143.444834 -260.77021 
L 143.4361 -259.542633 
L 143.427219 -258.315056 
L 143.4182 -257.087479 
L 143.409051 -255.859902 
L 143.399778 -254.632325 
L 143.390387 -253.404748 
L 143.380881 -252.177171 
L 143.371262 -250.949594 
L 143.36153 -249.722017 
L 143.351685 -248.49444 
L 143.341724 -247.266863 
L 143.331643 -246.039286 
L 143.321434 -244.811709 
L 143.311091 -243.584132 
L 143.300605 -242.356555 
L 143.289963 -241.128978 
L 143.279155 -239.901401 
L 143.268167 -238.673824 
L 143.256984 -237.446247 
L 143.245592 -236.21867 
L 143.233973 -234.991093 
L 143.222112 -233.763516 
L 143.209991 -232.535939 
L 143.197594 -231.308362 
L 143.184904 -230.080785 
L 143.171904 -228.853208 
L 143.158579 -227.625631 
L 143.144915 -226.398054 
L 143.130897 -225.170477 
L 143.116513 -223.9429 
L 143.101752 -222.715323 
L 143.086606 -221.487746 
L 143.071069 -220.260169 
L 143.055134 -219.032592 
L 143.038799 -217.805015 
L 143.022065 -216.577438 
L 143.004934 -215.349861 
L 142.987411 -214.122284 
L 142.969504 -212.894707 
L 142.951223 -211.66713 
z
" id="me90b8330e3" style="stroke:#545454;stroke-width:2.5;"/>
    </defs>
    <g clip-path="url(#p0fe184fb91)">
     <use style="fill:#d98b5f;stroke:#545454;stroke-width:2.5;" x="0" xlink:href="#me90b8330e3" y="503.420156"/>
    </g>
   </g>
   <g id="PolyCollection_5">
    <defs>
     <path d="M 188.006376 -211.501065 
L 165.032356 -211.501065 
L 165.521434 -213.807436 
L 166.867753 -216.113807 
L 168.753508 -218.420177 
L 170.786322 -220.726548 
L 172.628848 -223.032919 
L 174.079963 -225.339289 
L 175.086325 -227.64566 
L 175.701616 -229.952031 
L 176.028328 -232.258401 
L 176.17074 -234.564772 
L 176.210322 -236.871143 
L 176.200324 -239.177513 
L 176.170639 -241.483884 
L 176.135392 -243.790255 
L 176.099458 -246.096625 
L 176.063017 -248.402996 
L 176.024496 -250.709367 
L 175.982356 -253.015737 
L 175.935947 -255.322108 
L 175.885623 -257.628479 
L 175.832366 -259.934849 
L 175.777318 -262.24122 
L 175.721494 -264.54759 
L 175.665804 -266.853961 
L 175.611223 -269.160332 
L 175.558943 -271.466702 
L 175.510351 -273.773073 
L 175.466913 -276.079444 
L 175.43005 -278.385814 
L 175.4011 -280.692185 
L 175.381331 -282.998556 
L 175.371927 -285.304926 
L 175.373928 -287.611297 
L 175.388166 -289.917668 
L 175.41527 -292.224038 
L 175.455655 -294.530409 
L 175.509356 -296.83678 
L 175.575587 -299.14315 
L 175.652143 -301.449521 
L 175.735014 -303.755892 
L 175.818589 -306.062262 
L 175.896543 -308.368633 
L 175.963144 -310.675004 
L 176.014437 -312.981374 
L 176.048889 -315.287745 
L 176.067327 -317.594116 
L 176.072319 -319.900486 
L 176.067311 -322.206857 
L 176.055805 -324.513228 
L 176.04078 -326.819598 
L 176.024452 -329.125969 
L 176.008327 -331.43234 
L 175.99342 -333.73871 
L 175.980463 -336.045081 
L 175.970006 -338.351452 
L 175.962409 -340.657822 
L 175.95782 -342.964193 
L 175.956235 -345.270564 
L 175.957614 -347.576934 
L 175.96201 -349.883305 
L 175.969618 -352.189675 
L 175.980682 -354.496046 
L 175.995308 -356.802417 
L 176.01324 -359.108787 
L 176.033719 -361.415158 
L 176.05551 -363.721529 
L 176.077115 -366.027899 
L 176.097106 -368.33427 
L 176.11442 -370.640641 
L 176.12848 -372.947011 
L 176.139097 -375.253382 
L 176.146216 -377.559753 
L 176.149703 -379.866123 
L 176.149297 -382.172494 
L 176.144802 -384.478865 
L 176.13641 -386.785235 
L 176.125003 -389.091606 
L 176.112292 -391.397977 
L 176.100704 -393.704347 
L 176.093059 -396.010718 
L 176.092068 -398.317089 
L 176.09976 -400.623459 
L 176.116962 -402.92983 
L 176.143 -405.236201 
L 176.17578 -407.542571 
L 176.212295 -409.848942 
L 176.249384 -412.155313 
L 176.284492 -414.461683 
L 176.316134 -416.768054 
L 176.343952 -419.074425 
L 176.368429 -421.380795 
L 176.390434 -423.687166 
L 176.410779 -425.993537 
L 176.429928 -428.299907 
L 176.447903 -430.606278 
L 176.464366 -432.912649 
L 176.478831 -435.219019 
L 176.490883 -437.52539 
L 176.50034 -439.831761 
L 176.538391 -439.831761 
L 176.538391 -439.831761 
L 176.547848 -437.52539 
L 176.5599 -435.219019 
L 176.574365 -432.912649 
L 176.590829 -430.606278 
L 176.608803 -428.299907 
L 176.627953 -425.993537 
L 176.648298 -423.687166 
L 176.670302 -421.380795 
L 176.694779 -419.074425 
L 176.722597 -416.768054 
L 176.754239 -414.461683 
L 176.789347 -412.155313 
L 176.826437 -409.848942 
L 176.862951 -407.542571 
L 176.895732 -405.236201 
L 176.92177 -402.92983 
L 176.938972 -400.623459 
L 176.946664 -398.317089 
L 176.945672 -396.010718 
L 176.938027 -393.704347 
L 176.92644 -391.397977 
L 176.913728 -389.091606 
L 176.902322 -386.785235 
L 176.893929 -384.478865 
L 176.889434 -382.172494 
L 176.889029 -379.866123 
L 176.892515 -377.559753 
L 176.899634 -375.253382 
L 176.910251 -372.947011 
L 176.924312 -370.640641 
L 176.941625 -368.33427 
L 176.961616 -366.027899 
L 176.983221 -363.721529 
L 177.005012 -361.415158 
L 177.025492 -359.108787 
L 177.043424 -356.802417 
L 177.058049 -354.496046 
L 177.069113 -352.189675 
L 177.076721 -349.883305 
L 177.081118 -347.576934 
L 177.082496 -345.270564 
L 177.080911 -342.964193 
L 177.076323 -340.657822 
L 177.068725 -338.351452 
L 177.058268 -336.045081 
L 177.045311 -333.73871 
L 177.030404 -331.43234 
L 177.01428 -329.125969 
L 176.997952 -326.819598 
L 176.982927 -324.513228 
L 176.97142 -322.206857 
L 176.966412 -319.900486 
L 176.971404 -317.594116 
L 176.989842 -315.287745 
L 177.024295 -312.981374 
L 177.075587 -310.675004 
L 177.142188 -308.368633 
L 177.220143 -306.062262 
L 177.303717 -303.755892 
L 177.386588 -301.449521 
L 177.463144 -299.14315 
L 177.529375 -296.83678 
L 177.583077 -294.530409 
L 177.623462 -292.224038 
L 177.650565 -289.917668 
L 177.664804 -287.611297 
L 177.666804 -285.304926 
L 177.6574 -282.998556 
L 177.637631 -280.692185 
L 177.608681 -278.385814 
L 177.571819 -276.079444 
L 177.528381 -273.773073 
L 177.479789 -271.466702 
L 177.427508 -269.160332 
L 177.372928 -266.853961 
L 177.317237 -264.54759 
L 177.261414 -262.24122 
L 177.206365 -259.934849 
L 177.153109 -257.628479 
L 177.102784 -255.322108 
L 177.056376 -253.015737 
L 177.014235 -250.709367 
L 176.975715 -248.402996 
L 176.939273 -246.096625 
L 176.903339 -243.790255 
L 176.868093 -241.483884 
L 176.838407 -239.177513 
L 176.82841 -236.871143 
L 176.867992 -234.564772 
L 177.010404 -232.258401 
L 177.337116 -229.952031 
L 177.952406 -227.64566 
L 178.958769 -225.339289 
L 180.409884 -223.032919 
L 182.25241 -220.726548 
L 184.285223 -218.420177 
L 186.170978 -216.113807 
L 187.517297 -213.807436 
L 188.006376 -211.501065 
z
" id="m25b7bca9e0" style="stroke:#545454;stroke-width:2.5;"/>
    </defs>
    <g clip-path="url(#p0fe184fb91)">
     <use style="fill:#597dbf;stroke:#545454;stroke-width:2.5;" x="0" xlink:href="#m25b7bca9e0" y="503.420156"/>
    </g>
   </g>
   <g id="PolyCollection_6">
    <defs>
     <path d="M 200.373967 -211.769532 
L 198.612804 -211.769532 
L 198.594309 -213.720714 
L 198.576233 -215.671895 
L 198.558589 -217.623077 
L 198.541388 -219.574259 
L 198.524636 -221.525441 
L 198.508339 -223.476622 
L 198.492498 -225.427804 
L 198.477111 -227.378986 
L 198.462174 -229.330167 
L 198.447682 -231.281349 
L 198.433625 -233.232531 
L 198.419993 -235.183712 
L 198.406774 -237.134894 
L 198.393952 -239.086076 
L 198.381513 -241.037257 
L 198.369439 -242.988439 
L 198.357713 -244.939621 
L 198.346317 -246.890802 
L 198.335231 -248.841984 
L 198.324436 -250.793166 
L 198.313913 -252.744348 
L 198.303644 -254.695529 
L 198.29361 -256.646711 
L 198.283794 -258.597893 
L 198.274178 -260.549074 
L 198.264747 -262.500256 
L 198.255487 -264.451438 
L 198.246383 -266.402619 
L 198.237423 -268.353801 
L 198.228597 -270.304983 
L 198.219896 -272.256164 
L 198.211311 -274.207346 
L 198.202837 -276.158528 
L 198.194469 -278.109709 
L 198.186203 -280.060891 
L 198.178037 -282.012073 
L 198.169972 -283.963255 
L 198.162009 -285.914436 
L 198.154149 -287.865618 
L 198.146396 -289.8168 
L 198.138756 -291.767981 
L 198.131235 -293.719163 
L 198.123839 -295.670345 
L 198.116577 -297.621526 
L 198.109458 -299.572708 
L 198.102493 -301.52389 
L 198.095692 -303.475071 
L 198.089068 -305.426253 
L 198.082635 -307.377435 
L 198.076405 -309.328617 
L 198.070394 -311.279798 
L 198.064617 -313.23098 
L 198.059092 -315.182162 
L 198.053835 -317.133343 
L 198.048865 -319.084525 
L 198.044202 -321.035707 
L 198.039866 -322.986888 
L 198.035877 -324.93807 
L 198.032258 -326.889252 
L 198.029033 -328.840433 
L 198.026224 -330.791615 
L 198.023857 -332.742797 
L 198.021956 -334.693978 
L 198.020549 -336.64516 
L 198.019661 -338.596342 
L 198.01932 -340.547524 
L 198.019554 -342.498705 
L 198.02039 -344.449887 
L 198.021857 -346.401069 
L 198.023981 -348.35225 
L 198.026792 -350.303432 
L 198.030315 -352.254614 
L 198.034577 -354.205795 
L 198.039604 -356.156977 
L 198.04542 -358.108159 
L 198.052048 -360.05934 
L 198.059508 -362.010522 
L 198.06782 -363.961704 
L 198.077002 -365.912885 
L 198.087068 -367.864067 
L 198.098031 -369.815249 
L 198.109899 -371.766431 
L 198.122679 -373.717612 
L 198.136375 -375.668794 
L 198.150986 -377.619976 
L 198.166509 -379.571157 
L 198.182937 -381.522339 
L 198.200259 -383.473521 
L 198.218461 -385.424702 
L 198.237524 -387.375884 
L 198.257427 -389.327066 
L 198.278144 -391.278247 
L 198.299646 -393.229429 
L 198.3219 -395.180611 
L 198.344871 -397.131792 
L 198.36852 -399.082974 
L 198.392804 -401.034156 
L 198.417678 -402.985338 
L 198.443095 -404.936519 
L 200.543676 -404.936519 
L 200.543676 -404.936519 
L 200.569094 -402.985338 
L 200.593968 -401.034156 
L 200.618252 -399.082974 
L 200.6419 -397.131792 
L 200.664871 -395.180611 
L 200.687126 -393.229429 
L 200.708628 -391.278247 
L 200.729345 -389.327066 
L 200.749248 -387.375884 
L 200.768311 -385.424702 
L 200.786512 -383.473521 
L 200.803834 -381.522339 
L 200.820262 -379.571157 
L 200.835785 -377.619976 
L 200.850397 -375.668794 
L 200.864092 -373.717612 
L 200.876873 -371.766431 
L 200.888741 -369.815249 
L 200.899703 -367.864067 
L 200.909769 -365.912885 
L 200.918951 -363.961704 
L 200.927264 -362.010522 
L 200.934724 -360.05934 
L 200.941351 -358.108159 
L 200.947167 -356.156977 
L 200.952194 -354.205795 
L 200.956457 -352.254614 
L 200.95998 -350.303432 
L 200.96279 -348.35225 
L 200.964915 -346.401069 
L 200.966381 -344.449887 
L 200.967218 -342.498705 
L 200.967452 -340.547524 
L 200.967111 -338.596342 
L 200.966223 -336.64516 
L 200.964816 -334.693978 
L 200.962915 -332.742797 
L 200.960548 -330.791615 
L 200.957739 -328.840433 
L 200.954513 -326.889252 
L 200.950895 -324.93807 
L 200.946906 -322.986888 
L 200.94257 -321.035707 
L 200.937906 -319.084525 
L 200.932937 -317.133343 
L 200.92768 -315.182162 
L 200.922154 -313.23098 
L 200.916378 -311.279798 
L 200.910367 -309.328617 
L 200.904137 -307.377435 
L 200.897703 -305.426253 
L 200.89108 -303.475071 
L 200.884279 -301.52389 
L 200.877314 -299.572708 
L 200.870195 -297.621526 
L 200.862933 -295.670345 
L 200.855537 -293.719163 
L 200.848015 -291.767981 
L 200.840375 -289.8168 
L 200.832623 -287.865618 
L 200.824763 -285.914436 
L 200.816799 -283.963255 
L 200.808734 -282.012073 
L 200.800569 -280.060891 
L 200.792303 -278.109709 
L 200.783935 -276.158528 
L 200.77546 -274.207346 
L 200.766876 -272.256164 
L 200.758174 -270.304983 
L 200.749349 -268.353801 
L 200.740389 -266.402619 
L 200.731285 -264.451438 
L 200.722024 -262.500256 
L 200.712593 -260.549074 
L 200.702978 -258.597893 
L 200.693161 -256.646711 
L 200.683127 -254.695529 
L 200.672858 -252.744348 
L 200.662336 -250.793166 
L 200.651541 -248.841984 
L 200.640455 -246.890802 
L 200.629058 -244.939621 
L 200.617332 -242.988439 
L 200.605259 -241.037257 
L 200.59282 -239.086076 
L 200.579998 -237.134894 
L 200.566778 -235.183712 
L 200.553147 -233.232531 
L 200.53909 -231.281349 
L 200.524597 -229.330167 
L 200.509661 -227.378986 
L 200.494274 -225.427804 
L 200.478432 -223.476622 
L 200.462135 -221.525441 
L 200.445384 -219.574259 
L 200.428183 -217.623077 
L 200.410539 -215.671895 
L 200.392463 -213.720714 
L 200.373967 -211.769532 
z
" id="m9cb653c9d0" style="stroke:#545454;stroke-width:2.5;"/>
    </defs>
    <g clip-path="url(#p0fe184fb91)">
     <use style="fill:#d98b5f;stroke:#545454;stroke-width:2.5;" x="0" xlink:href="#m9cb653c9d0" y="503.420156"/>
    </g>
   </g>
   <g id="PolyCollection_7">
    <defs>
     <path d="M 245.441426 -211.501065 
L 222.467406 -211.501065 
L 222.942517 -212.922592 
L 224.253603 -214.344119 
L 226.099441 -215.765645 
L 228.104693 -217.187172 
L 229.941303 -218.608699 
L 231.407131 -220.030225 
L 232.440723 -221.451752 
L 233.086092 -222.873279 
L 233.438728 -224.294805 
L 233.599902 -225.716332 
L 233.651207 -227.137859 
L 233.647575 -228.559385 
L 233.620948 -229.980912 
L 233.587342 -231.402439 
L 233.553233 -232.823965 
L 233.520058 -234.245492 
L 233.487038 -235.667019 
L 233.452839 -237.088545 
L 233.416448 -238.510072 
L 233.377488 -239.931599 
L 233.336143 -241.353125 
L 233.292882 -242.774652 
L 233.248167 -244.196179 
L 233.202296 -245.617705 
L 233.155403 -247.039232 
L 233.107579 -248.460759 
L 233.059025 -249.882285 
L 233.010173 -251.303812 
L 232.96177 -252.725339 
L 232.914927 -254.146865 
L 232.871196 -255.568392 
L 232.832631 -256.989919 
L 232.801822 -258.411445 
L 232.781765 -259.832972 
L 232.77556 -261.254499 
L 232.785889 -262.676025 
L 232.81442 -264.097552 
L 232.861274 -265.519079 
L 232.924704 -266.940605 
L 233.001099 -268.362132 
L 233.085326 -269.783659 
L 233.171367 -271.205185 
L 233.253155 -272.626712 
L 233.325439 -274.048239 
L 233.384475 -275.469765 
L 233.428355 -276.891292 
L 233.456933 -278.312819 
L 233.471452 -279.734345 
L 233.474074 -281.155872 
L 233.467484 -282.577399 
L 233.454636 -283.998925 
L 233.438584 -285.420452 
L 233.422281 -286.841979 
L 233.408304 -288.263505 
L 233.398534 -289.685032 
L 233.393882 -291.106559 
L 233.394179 -292.528085 
L 233.398303 -293.949612 
L 233.404548 -295.371139 
L 233.411153 -296.792665 
L 233.416849 -298.214192 
L 233.421235 -299.635719 
L 233.424863 -301.057245 
L 233.42899 -302.478772 
L 233.435098 -303.900299 
L 233.444342 -305.321825 
L 233.457101 -306.743352 
L 233.472782 -308.164879 
L 233.489933 -309.586405 
L 233.506636 -311.007932 
L 233.521046 -312.429459 
L 233.531877 -313.850985 
L 233.538661 -315.272512 
L 233.541717 -316.694039 
L 233.541888 -318.115566 
L 233.540209 -319.537092 
L 233.537654 -320.958619 
L 233.535078 -322.380146 
L 233.533343 -323.801672 
L 233.53354 -325.223199 
L 233.53714 -326.644726 
L 233.545878 -328.066252 
L 233.561301 -329.487779 
L 233.584083 -330.909306 
L 233.613442 -332.330832 
L 233.647036 -333.752359 
L 233.681521 -335.173886 
L 233.713625 -336.595412 
L 233.741255 -338.016939 
L 233.764114 -339.438466 
L 233.783547 -340.859992 
L 233.801708 -342.281519 
L 233.820485 -343.703046 
L 233.840711 -345.124572 
L 233.861956 -346.546099 
L 233.882895 -347.967626 
L 233.901971 -349.389152 
L 233.917989 -350.810679 
L 233.930421 -352.232206 
L 233.978411 -352.232206 
L 233.978411 -352.232206 
L 233.990843 -350.810679 
L 234.006861 -349.389152 
L 234.025937 -347.967626 
L 234.046876 -346.546099 
L 234.06812 -345.124572 
L 234.088347 -343.703046 
L 234.107124 -342.281519 
L 234.125285 -340.859992 
L 234.144718 -339.438466 
L 234.167577 -338.016939 
L 234.195206 -336.595412 
L 234.227311 -335.173886 
L 234.261796 -333.752359 
L 234.29539 -332.330832 
L 234.324749 -330.909306 
L 234.347531 -329.487779 
L 234.362954 -328.066252 
L 234.371692 -326.644726 
L 234.375292 -325.223199 
L 234.375489 -323.801672 
L 234.373754 -322.380146 
L 234.371178 -320.958619 
L 234.368623 -319.537092 
L 234.366944 -318.115566 
L 234.367115 -316.694039 
L 234.370171 -315.272512 
L 234.376955 -313.850985 
L 234.387786 -312.429459 
L 234.402196 -311.007932 
L 234.418899 -309.586405 
L 234.43605 -308.164879 
L 234.451731 -306.743352 
L 234.46449 -305.321825 
L 234.473734 -303.900299 
L 234.479842 -302.478772 
L 234.483969 -301.057245 
L 234.487597 -299.635719 
L 234.491983 -298.214192 
L 234.497679 -296.792665 
L 234.504284 -295.371139 
L 234.510529 -293.949612 
L 234.514653 -292.528085 
L 234.51495 -291.106559 
L 234.510298 -289.685032 
L 234.500528 -288.263505 
L 234.486551 -286.841979 
L 234.470248 -285.420452 
L 234.454196 -283.998925 
L 234.441348 -282.577399 
L 234.434758 -281.155872 
L 234.43738 -279.734345 
L 234.451899 -278.312819 
L 234.480477 -276.891292 
L 234.524357 -275.469765 
L 234.583393 -274.048239 
L 234.655677 -272.626712 
L 234.737465 -271.205185 
L 234.823506 -269.783659 
L 234.907733 -268.362132 
L 234.984128 -266.940605 
L 235.047558 -265.519079 
L 235.094412 -264.097552 
L 235.122943 -262.676025 
L 235.133272 -261.254499 
L 235.127067 -259.832972 
L 235.10701 -258.411445 
L 235.0762 -256.989919 
L 235.037636 -255.568392 
L 234.993904 -254.146865 
L 234.947062 -252.725339 
L 234.898658 -251.303812 
L 234.849807 -249.882285 
L 234.801253 -248.460759 
L 234.753429 -247.039232 
L 234.706536 -245.617705 
L 234.660665 -244.196179 
L 234.61595 -242.774652 
L 234.572689 -241.353125 
L 234.531344 -239.931599 
L 234.492384 -238.510072 
L 234.455993 -237.088545 
L 234.421794 -235.667019 
L 234.388774 -234.245492 
L 234.355599 -232.823965 
L 234.32149 -231.402439 
L 234.287884 -229.980912 
L 234.261257 -228.559385 
L 234.257625 -227.137859 
L 234.30893 -225.716332 
L 234.470104 -224.294805 
L 234.82274 -222.873279 
L 235.468109 -221.451752 
L 236.501701 -220.030225 
L 237.967529 -218.608699 
L 239.804139 -217.187172 
L 241.809391 -215.765645 
L 243.655229 -214.344119 
L 244.966315 -212.922592 
L 245.441426 -211.501065 
z
" id="md2eb0db5ab" style="stroke:#545454;stroke-width:2.5;"/>
    </defs>
    <g clip-path="url(#p0fe184fb91)">
     <use style="fill:#597dbf;stroke:#545454;stroke-width:2.5;" x="0" xlink:href="#md2eb0db5ab" y="503.420156"/>
    </g>
   </g>
   <g id="PolyCollection_8">
    <defs>
     <path d="M 257.802084 -211.66713 
L 256.054788 -211.66713 
L 256.036822 -212.852538 
L 256.019274 -214.037946 
L 256.002154 -215.223354 
L 255.985469 -216.408762 
L 255.969223 -217.59417 
L 255.953416 -218.779578 
L 255.938045 -219.964986 
L 255.923105 -221.150394 
L 255.908588 -222.335802 
L 255.894483 -223.52121 
L 255.880775 -224.706618 
L 255.86745 -225.892026 
L 255.854489 -227.077434 
L 255.841874 -228.262842 
L 255.829583 -229.44825 
L 255.817595 -230.633658 
L 255.805887 -231.819066 
L 255.794434 -233.004474 
L 255.783214 -234.189883 
L 255.772203 -235.375291 
L 255.761377 -236.560699 
L 255.750714 -237.746107 
L 255.740192 -238.931515 
L 255.729789 -240.116923 
L 255.719486 -241.302331 
L 255.709265 -242.487739 
L 255.69911 -243.673147 
L 255.689005 -244.858555 
L 255.67894 -246.043963 
L 255.668902 -247.229371 
L 255.658883 -248.414779 
L 255.648878 -249.600187 
L 255.638882 -250.785595 
L 255.628893 -251.971003 
L 255.618913 -253.156411 
L 255.608943 -254.341819 
L 255.598988 -255.527227 
L 255.589054 -256.712635 
L 255.579151 -257.898043 
L 255.569288 -259.083451 
L 255.559477 -260.268859 
L 255.549732 -261.454267 
L 255.540068 -262.639675 
L 255.530502 -263.825083 
L 255.52105 -265.010491 
L 255.511731 -266.195899 
L 255.502565 -267.381308 
L 255.493572 -268.566716 
L 255.484774 -269.752124 
L 255.476192 -270.937532 
L 255.467848 -272.12294 
L 255.459766 -273.308348 
L 255.451968 -274.493756 
L 255.44448 -275.679164 
L 255.437325 -276.864572 
L 255.430527 -278.04998 
L 255.424113 -279.235388 
L 255.418106 -280.420796 
L 255.412533 -281.606204 
L 255.40742 -282.791612 
L 255.402792 -283.97702 
L 255.398676 -285.162428 
L 255.3951 -286.347836 
L 255.392088 -287.533244 
L 255.389669 -288.718652 
L 255.387869 -289.90406 
L 255.386716 -291.089468 
L 255.386236 -292.274876 
L 255.386456 -293.460284 
L 255.387402 -294.645692 
L 255.389101 -295.8311 
L 255.391578 -297.016508 
L 255.394858 -298.201916 
L 255.398964 -299.387324 
L 255.40392 -300.572733 
L 255.409746 -301.758141 
L 255.416464 -302.943549 
L 255.424091 -304.128957 
L 255.432644 -305.314365 
L 255.442138 -306.499773 
L 255.452584 -307.685181 
L 255.463993 -308.870589 
L 255.476371 -310.055997 
L 255.489722 -311.241405 
L 255.504047 -312.426813 
L 255.519345 -313.612221 
L 255.53561 -314.797629 
L 255.552832 -315.983037 
L 255.570999 -317.168445 
L 255.590094 -318.353853 
L 255.610099 -319.539261 
L 255.63099 -320.724669 
L 255.652739 -321.910077 
L 255.675316 -323.095485 
L 255.698686 -324.280893 
L 255.722812 -325.466301 
L 255.747652 -326.651709 
L 255.773164 -327.837117 
L 255.7993 -329.022525 
L 258.057573 -329.022525 
L 258.057573 -329.022525 
L 258.083708 -327.837117 
L 258.10922 -326.651709 
L 258.134061 -325.466301 
L 258.158186 -324.280893 
L 258.181557 -323.095485 
L 258.204133 -321.910077 
L 258.225882 -320.724669 
L 258.246773 -319.539261 
L 258.266778 -318.353853 
L 258.285874 -317.168445 
L 258.304041 -315.983037 
L 258.321263 -314.797629 
L 258.337527 -313.612221 
L 258.352825 -312.426813 
L 258.36715 -311.241405 
L 258.380502 -310.055997 
L 258.392879 -308.870589 
L 258.404288 -307.685181 
L 258.414734 -306.499773 
L 258.424228 -305.314365 
L 258.432781 -304.128957 
L 258.440408 -302.943549 
L 258.447126 -301.758141 
L 258.452953 -300.572733 
L 258.457908 -299.387324 
L 258.462014 -298.201916 
L 258.465294 -297.016508 
L 258.467771 -295.8311 
L 258.46947 -294.645692 
L 258.470416 -293.460284 
L 258.470636 -292.274876 
L 258.470156 -291.089468 
L 258.469003 -289.90406 
L 258.467203 -288.718652 
L 258.464784 -287.533244 
L 258.461773 -286.347836 
L 258.458196 -285.162428 
L 258.45408 -283.97702 
L 258.449452 -282.791612 
L 258.444339 -281.606204 
L 258.438766 -280.420796 
L 258.432759 -279.235388 
L 258.426345 -278.04998 
L 258.419547 -276.864572 
L 258.412392 -275.679164 
L 258.404904 -274.493756 
L 258.397107 -273.308348 
L 258.389024 -272.12294 
L 258.380681 -270.937532 
L 258.372098 -269.752124 
L 258.3633 -268.566716 
L 258.354307 -267.381308 
L 258.345141 -266.195899 
L 258.335822 -265.010491 
L 258.32637 -263.825083 
L 258.316804 -262.639675 
L 258.30714 -261.454267 
L 258.297395 -260.268859 
L 258.287585 -259.083451 
L 258.277722 -257.898043 
L 258.267818 -256.712635 
L 258.257885 -255.527227 
L 258.24793 -254.341819 
L 258.237959 -253.156411 
L 258.227979 -251.971003 
L 258.21799 -250.785595 
L 258.207994 -249.600187 
L 258.197989 -248.414779 
L 258.187971 -247.229371 
L 258.177933 -246.043963 
L 258.167867 -244.858555 
L 258.157763 -243.673147 
L 258.147607 -242.487739 
L 258.137386 -241.302331 
L 258.127083 -240.116923 
L 258.116681 -238.931515 
L 258.106158 -237.746107 
L 258.095495 -236.560699 
L 258.084669 -235.375291 
L 258.073658 -234.189883 
L 258.062438 -233.004474 
L 258.050986 -231.819066 
L 258.039277 -230.633658 
L 258.027289 -229.44825 
L 258.014998 -228.262842 
L 258.002383 -227.077434 
L 257.989422 -225.892026 
L 257.976097 -224.706618 
L 257.96239 -223.52121 
L 257.948284 -222.335802 
L 257.933767 -221.150394 
L 257.918827 -219.964986 
L 257.903456 -218.779578 
L 257.887649 -217.59417 
L 257.871403 -216.408762 
L 257.854718 -215.223354 
L 257.837598 -214.037946 
L 257.82005 -212.852538 
L 257.802084 -211.66713 
z
" id="md2091b44cd" style="stroke:#545454;stroke-width:2.5;"/>
    </defs>
    <g clip-path="url(#p0fe184fb91)">
     <use style="fill:#d98b5f;stroke:#545454;stroke-width:2.5;" x="0" xlink:href="#md2091b44cd" y="503.420156"/>
    </g>
   </g>
   <g id="PolyCollection_9">
    <defs>
     <path d="M 302.876476 -211.501065 
L 279.902456 -211.501065 
L 280.280838 -212.124395 
L 281.34311 -212.747724 
L 282.891973 -213.371053 
L 284.665831 -213.994382 
L 286.409933 -214.617711 
L 287.932893 -215.241041 
L 289.13267 -215.86437 
L 289.991348 -216.487699 
L 290.549771 -217.111028 
L 290.876739 -217.734358 
L 291.043973 -218.357687 
L 291.111542 -218.981016 
L 291.122922 -219.604345 
L 291.106189 -220.227674 
L 291.077763 -220.851004 
L 291.046334 -221.474333 
L 291.01593 -222.097662 
L 290.987965 -222.720991 
L 290.962486 -223.344321 
L 290.938874 -223.96765 
L 290.916232 -224.590979 
L 290.893588 -225.214308 
L 290.870027 -225.837637 
L 290.8448 -226.460967 
L 290.817428 -227.084296 
L 290.787767 -227.707625 
L 290.756001 -228.330954 
L 290.722545 -228.954283 
L 290.687864 -229.577613 
L 290.652298 -230.200942 
L 290.615944 -230.824271 
L 290.578656 -231.4476 
L 290.540154 -232.07093 
L 290.500219 -232.694259 
L 290.458905 -233.317588 
L 290.416711 -233.940917 
L 290.374695 -234.564246 
L 290.334466 -235.187576 
L 290.298082 -235.810905 
L 290.267843 -236.434234 
L 290.246018 -237.057563 
L 290.234555 -237.680893 
L 290.234831 -238.304222 
L 290.247476 -238.927551 
L 290.2723 -239.55088 
L 290.308323 -240.174209 
L 290.353877 -240.797539 
L 290.40675 -241.420868 
L 290.464355 -242.044197 
L 290.523906 -242.667526 
L 290.582624 -243.290856 
L 290.637971 -243.914185 
L 290.687895 -244.537514 
L 290.731028 -245.160843 
L 290.766776 -245.784172 
L 290.795264 -246.407502 
L 290.817144 -247.030831 
L 290.833339 -247.65416 
L 290.844811 -248.277489 
L 290.852425 -248.900818 
L 290.856934 -249.524148 
L 290.859042 -250.147477 
L 290.859489 -250.770806 
L 290.859082 -251.394135 
L 290.858647 -252.017465 
L 290.858909 -252.640794 
L 290.860342 -253.264123 
L 290.863064 -253.887452 
L 290.866813 -254.510781 
L 290.871021 -255.134111 
L 290.874973 -255.75744 
L 290.877986 -256.380769 
L 290.879555 -257.004098 
L 290.879437 -257.627428 
L 290.877645 -258.250757 
L 290.874391 -258.874086 
L 290.870002 -259.497415 
L 290.864844 -260.120744 
L 290.859288 -260.744074 
L 290.853692 -261.367403 
L 290.84842 -261.990732 
L 290.843856 -262.614061 
L 290.840407 -263.237391 
L 290.838482 -263.86072 
L 290.838452 -264.484049 
L 290.840618 -265.107378 
L 290.845216 -265.730707 
L 290.852488 -266.354037 
L 290.862803 -266.977366 
L 290.876784 -267.600695 
L 290.895357 -268.224024 
L 290.919632 -268.847354 
L 290.950607 -269.470683 
L 290.988742 -270.094012 
L 291.033572 -270.717341 
L 291.083511 -271.34067 
L 291.135982 -271.964 
L 291.187844 -272.587329 
L 291.236001 -273.210658 
L 291.542932 -273.210658 
L 291.542932 -273.210658 
L 291.591089 -272.587329 
L 291.642951 -271.964 
L 291.695422 -271.34067 
L 291.745361 -270.717341 
L 291.790191 -270.094012 
L 291.828326 -269.470683 
L 291.859301 -268.847354 
L 291.883576 -268.224024 
L 291.902148 -267.600695 
L 291.916129 -266.977366 
L 291.926444 -266.354037 
L 291.933717 -265.730707 
L 291.938315 -265.107378 
L 291.940481 -264.484049 
L 291.94045 -263.86072 
L 291.938525 -263.237391 
L 291.935076 -262.614061 
L 291.930512 -261.990732 
L 291.92524 -261.367403 
L 291.919644 -260.744074 
L 291.914088 -260.120744 
L 291.908931 -259.497415 
L 291.904541 -258.874086 
L 291.901287 -258.250757 
L 291.899496 -257.627428 
L 291.899378 -257.004098 
L 291.900947 -256.380769 
L 291.903959 -255.75744 
L 291.907912 -255.134111 
L 291.91212 -254.510781 
L 291.915868 -253.887452 
L 291.91859 -253.264123 
L 291.920024 -252.640794 
L 291.920285 -252.017465 
L 291.919851 -251.394135 
L 291.919444 -250.770806 
L 291.91989 -250.147477 
L 291.921999 -249.524148 
L 291.926507 -248.900818 
L 291.934122 -248.277489 
L 291.945594 -247.65416 
L 291.961789 -247.030831 
L 291.983669 -246.407502 
L 292.012157 -245.784172 
L 292.047905 -245.160843 
L 292.091037 -244.537514 
L 292.140961 -243.914185 
L 292.196308 -243.290856 
L 292.255026 -242.667526 
L 292.314577 -242.044197 
L 292.372183 -241.420868 
L 292.425056 -240.797539 
L 292.47061 -240.174209 
L 292.506633 -239.55088 
L 292.531457 -238.927551 
L 292.544101 -238.304222 
L 292.544378 -237.680893 
L 292.532915 -237.057563 
L 292.511089 -236.434234 
L 292.48085 -235.810905 
L 292.444467 -235.187576 
L 292.404238 -234.564246 
L 292.362221 -233.940917 
L 292.320028 -233.317588 
L 292.278713 -232.694259 
L 292.238779 -232.07093 
L 292.200277 -231.4476 
L 292.162988 -230.824271 
L 292.126634 -230.200942 
L 292.091068 -229.577613 
L 292.056388 -228.954283 
L 292.022931 -228.330954 
L 291.991166 -227.707625 
L 291.961504 -227.084296 
L 291.934132 -226.460967 
L 291.908906 -225.837637 
L 291.885345 -225.214308 
L 291.8627 -224.590979 
L 291.840058 -223.96765 
L 291.816447 -223.344321 
L 291.790967 -222.720991 
L 291.763003 -222.097662 
L 291.732598 -221.474333 
L 291.701169 -220.851004 
L 291.672743 -220.227674 
L 291.656011 -219.604345 
L 291.667391 -218.981016 
L 291.73496 -218.357687 
L 291.902193 -217.734358 
L 292.229161 -217.111028 
L 292.787584 -216.487699 
L 293.646263 -215.86437 
L 294.84604 -215.241041 
L 296.368999 -214.617711 
L 298.113101 -213.994382 
L 299.88696 -213.371053 
L 301.435823 -212.747724 
L 302.498095 -212.124395 
L 302.876476 -211.501065 
z
" id="mb3b1f86e25" style="stroke:#545454;stroke-width:2.5;"/>
    </defs>
    <g clip-path="url(#p0fe184fb91)">
     <use style="fill:#597dbf;stroke:#545454;stroke-width:2.5;" x="0" xlink:href="#mb3b1f86e25" y="503.420156"/>
    </g>
   </g>
   <g id="PolyCollection_10">
    <defs>
     <path d="M 315.224971 -211.583454 
L 313.502002 -211.583454 
L 313.486043 -212.111877 
L 313.470525 -212.6403 
L 313.455451 -213.168723 
L 313.440822 -213.697146 
L 313.426637 -214.225569 
L 313.412891 -214.753992 
L 313.399572 -215.282415 
L 313.38667 -215.810838 
L 313.374168 -216.339261 
L 313.362046 -216.867683 
L 313.350282 -217.396106 
L 313.338852 -217.924529 
L 313.327728 -218.452952 
L 313.31688 -218.981375 
L 313.306276 -219.509798 
L 313.295883 -220.038221 
L 313.285665 -220.566644 
L 313.275587 -221.095067 
L 313.265612 -221.623489 
L 313.255702 -222.151912 
L 313.245821 -222.680335 
L 313.235932 -223.208758 
L 313.226 -223.737181 
L 313.215988 -224.265604 
L 313.205865 -224.794027 
L 313.195597 -225.32245 
L 313.185157 -225.850873 
L 313.174517 -226.379296 
L 313.163651 -226.907718 
L 313.15254 -227.436141 
L 313.141163 -227.964564 
L 313.129507 -228.492987 
L 313.11756 -229.02141 
L 313.105313 -229.549833 
L 313.092762 -230.078256 
L 313.079906 -230.606679 
L 313.066749 -231.135102 
L 313.053297 -231.663524 
L 313.039561 -232.191947 
L 313.025555 -232.72037 
L 313.011297 -233.248793 
L 312.996807 -233.777216 
L 312.98211 -234.305639 
L 312.967234 -234.834062 
L 312.952208 -235.362485 
L 312.937066 -235.890908 
L 312.921842 -236.419331 
L 312.906574 -236.947753 
L 312.891302 -237.476176 
L 312.876066 -238.004599 
L 312.86091 -238.533022 
L 312.845876 -239.061445 
L 312.831009 -239.589868 
L 312.816355 -240.118291 
L 312.801958 -240.646714 
L 312.787866 -241.175137 
L 312.774123 -241.703559 
L 312.760775 -242.231982 
L 312.747868 -242.760405 
L 312.735446 -243.288828 
L 312.723553 -243.817251 
L 312.712233 -244.345674 
L 312.701527 -244.874097 
L 312.691477 -245.40252 
L 312.682122 -245.930943 
L 312.6735 -246.459366 
L 312.66565 -246.987788 
L 312.658606 -247.516211 
L 312.652403 -248.044634 
L 312.647074 -248.573057 
L 312.642649 -249.10148 
L 312.639159 -249.629903 
L 312.636631 -250.158326 
L 312.635091 -250.686749 
L 312.634563 -251.215172 
L 312.635071 -251.743594 
L 312.636634 -252.272017 
L 312.639272 -252.80044 
L 312.643001 -253.328863 
L 312.647836 -253.857286 
L 312.65379 -254.385709 
L 312.660873 -254.914132 
L 312.669093 -255.442555 
L 312.678456 -255.970978 
L 312.688966 -256.499401 
L 312.700623 -257.027823 
L 312.713425 -257.556246 
L 312.727368 -258.084669 
L 312.742445 -258.613092 
L 312.758644 -259.141515 
L 312.775954 -259.669938 
L 312.794358 -260.198361 
L 312.813836 -260.726784 
L 312.834367 -261.255207 
L 312.855924 -261.783629 
L 312.878479 -262.312052 
L 312.902001 -262.840475 
L 312.926454 -263.368898 
L 312.9518 -263.897321 
L 315.775173 -263.897321 
L 315.775173 -263.897321 
L 315.800519 -263.368898 
L 315.824972 -262.840475 
L 315.848493 -262.312052 
L 315.871049 -261.783629 
L 315.892606 -261.255207 
L 315.913136 -260.726784 
L 315.932615 -260.198361 
L 315.951019 -259.669938 
L 315.968328 -259.141515 
L 315.984528 -258.613092 
L 315.999605 -258.084669 
L 316.013548 -257.556246 
L 316.02635 -257.027823 
L 316.038007 -256.499401 
L 316.048516 -255.970978 
L 316.05788 -255.442555 
L 316.0661 -254.914132 
L 316.073183 -254.385709 
L 316.079136 -253.857286 
L 316.083972 -253.328863 
L 316.087701 -252.80044 
L 316.090338 -252.272017 
L 316.091902 -251.743594 
L 316.092409 -251.215172 
L 316.091882 -250.686749 
L 316.090342 -250.158326 
L 316.087814 -249.629903 
L 316.084323 -249.10148 
L 316.079899 -248.573057 
L 316.07457 -248.044634 
L 316.068367 -247.516211 
L 316.061323 -246.987788 
L 316.053473 -246.459366 
L 316.044851 -245.930943 
L 316.035496 -245.40252 
L 316.025445 -244.874097 
L 316.01474 -244.345674 
L 316.003419 -243.817251 
L 315.991527 -243.288828 
L 315.979105 -242.760405 
L 315.966198 -242.231982 
L 315.95285 -241.703559 
L 315.939107 -241.175137 
L 315.925015 -240.646714 
L 315.910618 -240.118291 
L 315.895964 -239.589868 
L 315.881097 -239.061445 
L 315.866063 -238.533022 
L 315.850906 -238.004599 
L 315.835671 -237.476176 
L 315.820399 -236.947753 
L 315.805131 -236.419331 
L 315.789907 -235.890908 
L 315.774765 -235.362485 
L 315.759739 -234.834062 
L 315.744863 -234.305639 
L 315.730166 -233.777216 
L 315.715676 -233.248793 
L 315.701418 -232.72037 
L 315.687412 -232.191947 
L 315.673676 -231.663524 
L 315.660224 -231.135102 
L 315.647067 -230.606679 
L 315.634211 -230.078256 
L 315.62166 -229.549833 
L 315.609413 -229.02141 
L 315.597465 -228.492987 
L 315.585809 -227.964564 
L 315.574433 -227.436141 
L 315.563322 -226.907718 
L 315.552456 -226.379296 
L 315.541816 -225.850873 
L 315.531375 -225.32245 
L 315.521108 -224.794027 
L 315.510985 -224.265604 
L 315.500973 -223.737181 
L 315.49104 -223.208758 
L 315.481152 -222.680335 
L 315.471271 -222.151912 
L 315.461361 -221.623489 
L 315.451386 -221.095067 
L 315.441308 -220.566644 
L 315.43109 -220.038221 
L 315.420696 -219.509798 
L 315.410093 -218.981375 
L 315.399245 -218.452952 
L 315.388121 -217.924529 
L 315.376691 -217.396106 
L 315.364927 -216.867683 
L 315.352805 -216.339261 
L 315.340303 -215.810838 
L 315.3274 -215.282415 
L 315.314082 -214.753992 
L 315.300335 -214.225569 
L 315.286151 -213.697146 
L 315.271522 -213.168723 
L 315.256448 -212.6403 
L 315.240929 -212.111877 
L 315.224971 -211.583454 
z
" id="md6e2acba83" style="stroke:#545454;stroke-width:2.5;"/>
    </defs>
    <g clip-path="url(#p0fe184fb91)">
     <use style="fill:#d98b5f;stroke:#545454;stroke-width:2.5;" x="0" xlink:href="#md6e2acba83" y="503.420156"/>
    </g>
   </g>
   <g id="patch_3">
    <path clip-path="url(#p0fe184fb91)" d="M 73.136275 291.919091 
L 73.136275 291.919091 
L 73.136275 291.919091 
L 73.136275 291.919091 
z
" style="fill:#597dbf;stroke:#545454;stroke-linejoin:miter;stroke-width:1.25;"/>
   </g>
   <g id="patch_4">
    <path clip-path="url(#p0fe184fb91)" d="M 73.136275 291.919091 
L 73.136275 291.919091 
L 73.136275 291.919091 
L 73.136275 291.919091 
z
" style="fill:#d98b5f;stroke:#545454;stroke-linejoin:miter;stroke-width:1.25;"/>
   </g>
   <g id="line2d_1">
    <path clip-path="url(#p0fe184fb91)" d="M 61.649265 291.919091 
L 61.649265 118.227644 
" style="fill:none;stroke:#545454;stroke-linecap:round;stroke-width:2.5;"/>
   </g>
   <g id="line2d_2">
    <path clip-path="url(#p0fe184fb91)" d="M 61.649265 291.919091 
L 61.649265 222.41132 
" style="fill:none;stroke:#545454;stroke-linecap:round;stroke-width:7.5;"/>
   </g>
   <g id="line2d_3">
    <path clip-path="url(#p0fe184fb91)" d="M 84.623285 291.650624 
L 84.623285 89.067122 
" style="fill:none;stroke:#545454;stroke-linecap:round;stroke-width:2.5;"/>
   </g>
   <g id="line2d_4">
    <path clip-path="url(#p0fe184fb91)" d="M 84.623285 229.06839 
L 84.623285 122.754477 
" style="fill:none;stroke:#545454;stroke-linecap:round;stroke-width:7.5;"/>
   </g>
   <g id="line2d_5">
    <path clip-path="url(#p0fe184fb91)" d="M 119.084315 291.919091 
L 119.084315 181.964765 
" style="fill:none;stroke:#545454;stroke-linecap:round;stroke-width:2.5;"/>
   </g>
   <g id="line2d_6">
    <path clip-path="url(#p0fe184fb91)" d="M 119.084315 291.919091 
L 119.084315 247.93736 
" style="fill:none;stroke:#545454;stroke-linecap:round;stroke-width:7.5;"/>
   </g>
   <g id="line2d_7">
    <path clip-path="url(#p0fe184fb91)" d="M 142.058336 291.753026 
L 142.058336 170.222903 
" style="fill:none;stroke:#545454;stroke-linecap:round;stroke-width:2.5;"/>
   </g>
   <g id="line2d_8">
    <path clip-path="url(#p0fe184fb91)" d="M 142.058336 252.66845 
L 142.058336 188.757606 
" style="fill:none;stroke:#545454;stroke-linecap:round;stroke-width:7.5;"/>
   </g>
   <g id="line2d_9">
    <path clip-path="url(#p0fe184fb91)" d="M 176.519366 291.919091 
L 176.519366 130.236849 
" style="fill:none;stroke:#545454;stroke-linecap:round;stroke-width:2.5;"/>
   </g>
   <g id="line2d_10">
    <path clip-path="url(#p0fe184fb91)" d="M 176.519366 291.919091 
L 176.519366 227.246194 
" style="fill:none;stroke:#545454;stroke-linecap:round;stroke-width:7.5;"/>
   </g>
   <g id="line2d_11">
    <path clip-path="url(#p0fe184fb91)" d="M 199.493386 291.650624 
L 199.493386 98.483637 
" style="fill:none;stroke:#545454;stroke-linecap:round;stroke-width:2.5;"/>
   </g>
   <g id="line2d_12">
    <path clip-path="url(#p0fe184fb91)" d="M 199.493386 234.436719 
L 199.493386 137.246727 
" style="fill:none;stroke:#545454;stroke-linecap:round;stroke-width:7.5;"/>
   </g>
   <g id="line2d_13">
    <path clip-path="url(#p0fe184fb91)" d="M 233.954416 291.919091 
L 233.954416 186.331751 
" style="fill:none;stroke:#545454;stroke-linecap:round;stroke-width:2.5;"/>
   </g>
   <g id="line2d_14">
    <path clip-path="url(#p0fe184fb91)" d="M 233.954416 291.919091 
L 233.954416 249.652959 
" style="fill:none;stroke:#545454;stroke-linecap:round;stroke-width:7.5;"/>
   </g>
   <g id="line2d_15">
    <path clip-path="url(#p0fe184fb91)" d="M 256.928436 291.753026 
L 256.928436 174.397631 
" style="fill:none;stroke:#545454;stroke-linecap:round;stroke-width:2.5;"/>
   </g>
   <g id="line2d_16">
    <path clip-path="url(#p0fe184fb91)" d="M 256.928436 254.458137 
L 256.928436 196.037635 
" style="fill:none;stroke:#545454;stroke-linecap:round;stroke-width:7.5;"/>
   </g>
   <g id="line2d_17">
    <path clip-path="url(#p0fe184fb91)" d="M 291.389466 291.919091 
L 291.389466 236.344067 
" style="fill:none;stroke:#545454;stroke-linecap:round;stroke-width:2.5;"/>
   </g>
   <g id="line2d_18">
    <path clip-path="url(#p0fe184fb91)" d="M 291.389466 291.919091 
L 291.389466 269.668286 
" style="fill:none;stroke:#545454;stroke-linecap:round;stroke-width:7.5;"/>
   </g>
   <g id="line2d_19">
    <path clip-path="url(#p0fe184fb91)" d="M 314.363486 291.836702 
L 314.363486 239.522835 
" style="fill:none;stroke:#545454;stroke-linecap:round;stroke-width:2.5;"/>
   </g>
   <g id="line2d_20">
    <path clip-path="url(#p0fe184fb91)" d="M 314.363486 272.404243 
L 314.363486 245.4545 
" style="fill:none;stroke:#545454;stroke-linecap:round;stroke-width:7.5;"/>
   </g>
   <g id="patch_5">
    <path d="M 44.41875 304.3 
L 331.594002 304.3 
" style="fill:none;stroke:#262626;stroke-linecap:square;stroke-linejoin:miter;stroke-width:1.875;"/>
   </g>
   <g id="PathCollection_1">
    <defs>
     <path d="M 0 2.5 
C 0.663008 2.5 1.29895 2.236584 1.767767 1.767767 
C 2.236584 1.29895 2.5 0.663008 2.5 0 
C 2.5 -0.663008 2.236584 -1.29895 1.767767 -1.767767 
C 1.29895 -2.236584 0.663008 -2.5 0 -2.5 
C -0.663008 -2.5 -1.29895 -2.236584 -1.767767 -1.767767 
C -2.236584 -1.29895 -2.5 -0.663008 -2.5 0 
C -2.5 0.663008 -2.236584 1.29895 -1.767767 1.767767 
C -1.29895 2.236584 -0.663008 2.5 0 2.5 
z
" id="m875746eeee" style="stroke:#545454;stroke-width:1.5;"/>
    </defs>
    <g clip-path="url(#p0fe184fb91)">
     <use style="fill:#ffffff;stroke:#545454;stroke-width:1.5;" x="61.649265" xlink:href="#m875746eeee" y="291.919091"/>
    </g>
   </g>
   <g id="PathCollection_2">
    <g clip-path="url(#p0fe184fb91)">
     <use style="fill:#ffffff;stroke:#545454;stroke-width:1.5;" x="84.623285" xlink:href="#m875746eeee" y="194.800699"/>
    </g>
   </g>
   <g id="PathCollection_3">
    <g clip-path="url(#p0fe184fb91)">
     <use style="fill:#ffffff;stroke:#545454;stroke-width:1.5;" x="119.084315" xlink:href="#m875746eeee" y="291.919091"/>
    </g>
   </g>
   <g id="PathCollection_4">
    <g clip-path="url(#p0fe184fb91)">
     <use style="fill:#ffffff;stroke:#545454;stroke-width:1.5;" x="142.058336" xlink:href="#m875746eeee" y="231.165026"/>
    </g>
   </g>
   <g id="PathCollection_5">
    <g clip-path="url(#p0fe184fb91)">
     <use style="fill:#ffffff;stroke:#545454;stroke-width:1.5;" x="176.519366" xlink:href="#m875746eeee" y="291.919091"/>
    </g>
   </g>
   <g id="PathCollection_6">
    <g clip-path="url(#p0fe184fb91)">
     <use style="fill:#ffffff;stroke:#545454;stroke-width:1.5;" x="199.493386" xlink:href="#m875746eeee" y="199.589379"/>
    </g>
   </g>
   <g id="PathCollection_7">
    <g clip-path="url(#p0fe184fb91)">
     <use style="fill:#ffffff;stroke:#545454;stroke-width:1.5;" x="233.954416" xlink:href="#m875746eeee" y="291.919091"/>
    </g>
   </g>
   <g id="PathCollection_8">
    <g clip-path="url(#p0fe184fb91)">
     <use style="fill:#ffffff;stroke:#545454;stroke-width:1.5;" x="256.928436" xlink:href="#m875746eeee" y="233.706249"/>
    </g>
   </g>
   <g id="PathCollection_9">
    <g clip-path="url(#p0fe184fb91)">
     <use style="fill:#ffffff;stroke:#545454;stroke-width:1.5;" x="291.389466" xlink:href="#m875746eeee" y="291.919091"/>
    </g>
   </g>
   <g id="PathCollection_10">
    <g clip-path="url(#p0fe184fb91)">
     <use style="fill:#ffffff;stroke:#545454;stroke-width:1.5;" x="314.363486" xlink:href="#m875746eeee" y="261.497174"/>
    </g>
   </g>
  </g>
  <g id="text_13">
   <!-- RAP -->
   <g style="fill:#262626;" transform="translate(193.157352 16.412625)scale(0.216 -0.216)">
    <defs>
     <path d="M 34.1875 63.1875 
L 20.796875 26.90625 
L 47.609375 26.90625 
z
M 28.609375 72.90625 
L 39.796875 72.90625 
L 67.578125 0 
L 57.328125 0 
L 50.6875 18.703125 
L 17.828125 18.703125 
L 11.1875 0 
L 0.78125 0 
z
" id="DejaVuSans-65"/>
     <path d="M 19.671875 64.796875 
L 19.671875 37.40625 
L 32.078125 37.40625 
Q 38.96875 37.40625 42.71875 40.96875 
Q 46.484375 44.53125 46.484375 51.125 
Q 46.484375 57.671875 42.71875 61.234375 
Q 38.96875 64.796875 32.078125 64.796875 
z
M 9.8125 72.90625 
L 32.078125 72.90625 
Q 44.34375 72.90625 50.609375 67.359375 
Q 56.890625 61.8125 56.890625 51.125 
Q 56.890625 40.328125 50.609375 34.8125 
Q 44.34375 29.296875 32.078125 29.296875 
L 19.671875 29.296875 
L 19.671875 0 
L 9.8125 0 
z
" id="DejaVuSans-80"/>
    </defs>
    <use xlink:href="#DejaVuSans-82"/>
    <use x="65.482422" xlink:href="#DejaVuSans-65"/>
    <use x="133.890625" xlink:href="#DejaVuSans-80"/>
   </g>
  </g>
  <g id="legend_1">
   <g id="patch_6">
    <path d="M 326.496711 244.153594 
L 359.496711 244.153594 
L 359.496711 232.603594 
L 326.496711 232.603594 
z
" style="fill:#597dbf;stroke:#545454;stroke-linejoin:miter;stroke-width:1.25;"/>
   </g>
   <g id="text_14">
    <!-- actual -->
    <g style="fill:#262626;" transform="translate(372.696711 244.153594)scale(0.165 -0.165)">
     <defs>
      <path d="M 48.78125 52.59375 
L 48.78125 44.1875 
Q 44.96875 46.296875 41.140625 47.34375 
Q 37.3125 48.390625 33.40625 48.390625 
Q 24.65625 48.390625 19.8125 42.84375 
Q 14.984375 37.3125 14.984375 27.296875 
Q 14.984375 17.28125 19.8125 11.734375 
Q 24.65625 6.203125 33.40625 6.203125 
Q 37.3125 6.203125 41.140625 7.25 
Q 44.96875 8.296875 48.78125 10.40625 
L 48.78125 2.09375 
Q 45.015625 0.34375 40.984375 -0.53125 
Q 36.96875 -1.421875 32.421875 -1.421875 
Q 20.0625 -1.421875 12.78125 6.34375 
Q 5.515625 14.109375 5.515625 27.296875 
Q 5.515625 40.671875 12.859375 48.328125 
Q 20.21875 56 33.015625 56 
Q 37.15625 56 41.109375 55.140625 
Q 45.0625 54.296875 48.78125 52.59375 
z
" id="DejaVuSans-99"/>
      <path d="M 8.5 21.578125 
L 8.5 54.6875 
L 17.484375 54.6875 
L 17.484375 21.921875 
Q 17.484375 14.15625 20.5 10.265625 
Q 23.53125 6.390625 29.59375 6.390625 
Q 36.859375 6.390625 41.078125 11.03125 
Q 45.3125 15.671875 45.3125 23.6875 
L 45.3125 54.6875 
L 54.296875 54.6875 
L 54.296875 0 
L 45.3125 0 
L 45.3125 8.40625 
Q 42.046875 3.421875 37.71875 1 
Q 33.40625 -1.421875 27.6875 -1.421875 
Q 18.265625 -1.421875 13.375 4.4375 
Q 8.5 10.296875 8.5 21.578125 
z
M 31.109375 56 
z
" id="DejaVuSans-117"/>
     </defs>
     <use xlink:href="#DejaVuSans-97"/>
     <use x="61.279297" xlink:href="#DejaVuSans-99"/>
     <use x="116.259766" xlink:href="#DejaVuSans-116"/>
     <use x="155.46875" xlink:href="#DejaVuSans-117"/>
     <use x="218.847656" xlink:href="#DejaVuSans-97"/>
     <use x="280.126953" xlink:href="#DejaVuSans-108"/>
    </g>
   </g>
   <g id="patch_7">
    <path d="M 326.496711 268.3725 
L 359.496711 268.3725 
L 359.496711 256.8225 
L 326.496711 256.8225 
z
" style="fill:#d98b5f;stroke:#545454;stroke-linejoin:miter;stroke-width:1.25;"/>
   </g>
   <g id="text_15">
    <!-- cluster -->
    <g style="fill:#262626;" transform="translate(372.696711 268.3725)scale(0.165 -0.165)">
     <defs>
      <path d="M 44.28125 53.078125 
L 44.28125 44.578125 
Q 40.484375 46.53125 36.375 47.5 
Q 32.28125 48.484375 27.875 48.484375 
Q 21.1875 48.484375 17.84375 46.4375 
Q 14.5 44.390625 14.5 40.28125 
Q 14.5 37.15625 16.890625 35.375 
Q 19.28125 33.59375 26.515625 31.984375 
L 29.59375 31.296875 
Q 39.15625 29.25 43.1875 25.515625 
Q 47.21875 21.78125 47.21875 15.09375 
Q 47.21875 7.46875 41.1875 3.015625 
Q 35.15625 -1.421875 24.609375 -1.421875 
Q 20.21875 -1.421875 15.453125 -0.5625 
Q 10.6875 0.296875 5.421875 2 
L 5.421875 11.28125 
Q 10.40625 8.6875 15.234375 7.390625 
Q 20.0625 6.109375 24.8125 6.109375 
Q 31.15625 6.109375 34.5625 8.28125 
Q 37.984375 10.453125 37.984375 14.40625 
Q 37.984375 18.0625 35.515625 20.015625 
Q 33.0625 21.96875 24.703125 23.78125 
L 21.578125 24.515625 
Q 13.234375 26.265625 9.515625 29.90625 
Q 5.8125 33.546875 5.8125 39.890625 
Q 5.8125 47.609375 11.28125 51.796875 
Q 16.75 56 26.8125 56 
Q 31.78125 56 36.171875 55.265625 
Q 40.578125 54.546875 44.28125 53.078125 
z
" id="DejaVuSans-115"/>
     </defs>
     <use xlink:href="#DejaVuSans-99"/>
     <use x="54.980469" xlink:href="#DejaVuSans-108"/>
     <use x="82.763672" xlink:href="#DejaVuSans-117"/>
     <use x="146.142578" xlink:href="#DejaVuSans-115"/>
     <use x="198.242188" xlink:href="#DejaVuSans-116"/>
     <use x="237.451172" xlink:href="#DejaVuSans-101"/>
     <use x="298.974609" xlink:href="#DejaVuSans-114"/>
    </g>
   </g>
  </g>
 </g>
 <defs>
  <clipPath id="p0fe184fb91">
   <rect height="272.38" width="287.175252" x="44.41875" y="31.92"/>
  </clipPath>
 </defs>
</svg>
