<?xml version="1.0" encoding="utf-8" standalone="no"?>
<!DOCTYPE svg PUBLIC "-//W3C//DTD SVG 1.1//EN"
  "http://www.w3.org/Graphics/SVG/1.1/DTD/svg11.dtd">
<!-- Created with matplotlib (https://matplotlib.org/) -->
<svg height="503.420156pt" version="1.1" viewBox="0 0 443.659602 503.420156" width="443.659602pt" xmlns="http://www.w3.org/2000/svg" xmlns:xlink="http://www.w3.org/1999/xlink">
 <metadata>
  <rdf:RDF xmlns:cc="http://creativecommons.org/ns#" xmlns:dc="http://purl.org/dc/elements/1.1/" xmlns:rdf="http://www.w3.org/1999/02/22-rdf-syntax-ns#">
   <cc:Work>
    <dc:type rdf:resource="http://purl.org/dc/dcmitype/StillImage"/>
    <dc:date>2021-01-22T11:01:13.916879</dc:date>
    <dc:format>image/svg+xml</dc:format>
    <dc:creator>
     <cc:Agent>
      <dc:title>Matplotlib v3.3.2, https://matplotlib.org/</dc:title>
     </cc:Agent>
    </dc:creator>
   </cc:Work>
  </rdf:RDF>
 </metadata>
 <defs>
  <style type="text/css">*{stroke-linecap:butt;stroke-linejoin:round;}</style>
 </defs>
 <g id="figure_1">
  <g id="patch_1">
   <path d="M 0 503.420156 
L 443.659602 503.420156 
L 443.659602 0 
L 0 0 
z
" style="fill:#ffffff;"/>
  </g>
  <g id="axes_1">
   <g id="patch_2">
    <path d="M 44.41875 304.3 
L 331.594001 304.3 
L 331.594001 31.92 
L 44.41875 31.92 
z
" style="fill:#ffffff;"/>
   </g>
   <g id="matplotlib.axis_1">
    <g id="xtick_1">
     <g id="text_1">
      <!-- Irrigation High -->
      <g style="fill:#262626;" transform="translate(77.689244 434.888437)rotate(-90)scale(0.165 -0.165)">
       <defs>
        <path d="M 9.8125 72.90625 
L 19.671875 72.90625 
L 19.671875 0 
L 9.8125 0 
z
" id="DejaVuSans-73"/>
        <path d="M 41.109375 46.296875 
Q 39.59375 47.171875 37.8125 47.578125 
Q 36.03125 48 33.890625 48 
Q 26.265625 48 22.1875 43.046875 
Q 18.109375 38.09375 18.109375 28.8125 
L 18.109375 0 
L 9.078125 0 
L 9.078125 54.6875 
L 18.109375 54.6875 
L 18.109375 46.1875 
Q 20.953125 51.171875 25.484375 53.578125 
Q 30.03125 56 36.53125 56 
Q 37.453125 56 38.578125 55.875 
Q 39.703125 55.765625 41.0625 55.515625 
z
" id="DejaVuSans-114"/>
        <path d="M 9.421875 54.6875 
L 18.40625 54.6875 
L 18.40625 0 
L 9.421875 0 
z
M 9.421875 75.984375 
L 18.40625 75.984375 
L 18.40625 64.59375 
L 9.421875 64.59375 
z
" id="DejaVuSans-105"/>
        <path d="M 45.40625 27.984375 
Q 45.40625 37.75 41.375 43.109375 
Q 37.359375 48.484375 30.078125 48.484375 
Q 22.859375 48.484375 18.828125 43.109375 
Q 14.796875 37.75 14.796875 27.984375 
Q 14.796875 18.265625 18.828125 12.890625 
Q 22.859375 7.515625 30.078125 7.515625 
Q 37.359375 7.515625 41.375 12.890625 
Q 45.40625 18.265625 45.40625 27.984375 
z
M 54.390625 6.78125 
Q 54.390625 -7.171875 48.1875 -13.984375 
Q 42 -20.796875 29.203125 -20.796875 
Q 24.46875 -20.796875 20.265625 -20.09375 
Q 16.0625 -19.390625 12.109375 -17.921875 
L 12.109375 -9.1875 
Q 16.0625 -11.328125 19.921875 -12.34375 
Q 23.78125 -13.375 27.78125 -13.375 
Q 36.625 -13.375 41.015625 -8.765625 
Q 45.40625 -4.15625 45.40625 5.171875 
L 45.40625 9.625 
Q 42.625 4.78125 38.28125 2.390625 
Q 33.9375 0 27.875 0 
Q 17.828125 0 11.671875 7.65625 
Q 5.515625 15.328125 5.515625 27.984375 
Q 5.515625 40.671875 11.671875 48.328125 
Q 17.828125 56 27.875 56 
Q 33.9375 56 38.28125 53.609375 
Q 42.625 51.21875 45.40625 46.390625 
L 45.40625 54.6875 
L 54.390625 54.6875 
z
" id="DejaVuSans-103"/>
        <path d="M 34.28125 27.484375 
Q 23.390625 27.484375 19.1875 25 
Q 14.984375 22.515625 14.984375 16.5 
Q 14.984375 11.71875 18.140625 8.90625 
Q 21.296875 6.109375 26.703125 6.109375 
Q 34.1875 6.109375 38.703125 11.40625 
Q 43.21875 16.703125 43.21875 25.484375 
L 43.21875 27.484375 
z
M 52.203125 31.203125 
L 52.203125 0 
L 43.21875 0 
L 43.21875 8.296875 
Q 40.140625 3.328125 35.546875 0.953125 
Q 30.953125 -1.421875 24.3125 -1.421875 
Q 15.921875 -1.421875 10.953125 3.296875 
Q 6 8.015625 6 15.921875 
Q 6 25.140625 12.171875 29.828125 
Q 18.359375 34.515625 30.609375 34.515625 
L 43.21875 34.515625 
L 43.21875 35.40625 
Q 43.21875 41.609375 39.140625 45 
Q 35.0625 48.390625 27.6875 48.390625 
Q 23 48.390625 18.546875 47.265625 
Q 14.109375 46.140625 10.015625 43.890625 
L 10.015625 52.203125 
Q 14.9375 54.109375 19.578125 55.046875 
Q 24.21875 56 28.609375 56 
Q 40.484375 56 46.34375 49.84375 
Q 52.203125 43.703125 52.203125 31.203125 
z
" id="DejaVuSans-97"/>
        <path d="M 18.3125 70.21875 
L 18.3125 54.6875 
L 36.8125 54.6875 
L 36.8125 47.703125 
L 18.3125 47.703125 
L 18.3125 18.015625 
Q 18.3125 11.328125 20.140625 9.421875 
Q 21.96875 7.515625 27.59375 7.515625 
L 36.8125 7.515625 
L 36.8125 0 
L 27.59375 0 
Q 17.1875 0 13.234375 3.875 
Q 9.28125 7.765625 9.28125 18.015625 
L 9.28125 47.703125 
L 2.6875 47.703125 
L 2.6875 54.6875 
L 9.28125 54.6875 
L 9.28125 70.21875 
z
" id="DejaVuSans-116"/>
        <path d="M 30.609375 48.390625 
Q 23.390625 48.390625 19.1875 42.75 
Q 14.984375 37.109375 14.984375 27.296875 
Q 14.984375 17.484375 19.15625 11.84375 
Q 23.34375 6.203125 30.609375 6.203125 
Q 37.796875 6.203125 41.984375 11.859375 
Q 46.1875 17.53125 46.1875 27.296875 
Q 46.1875 37.015625 41.984375 42.703125 
Q 37.796875 48.390625 30.609375 48.390625 
z
M 30.609375 56 
Q 42.328125 56 49.015625 48.375 
Q 55.71875 40.765625 55.71875 27.296875 
Q 55.71875 13.875 49.015625 6.21875 
Q 42.328125 -1.421875 30.609375 -1.421875 
Q 18.84375 -1.421875 12.171875 6.21875 
Q 5.515625 13.875 5.515625 27.296875 
Q 5.515625 40.765625 12.171875 48.375 
Q 18.84375 56 30.609375 56 
z
" id="DejaVuSans-111"/>
        <path d="M 54.890625 33.015625 
L 54.890625 0 
L 45.90625 0 
L 45.90625 32.71875 
Q 45.90625 40.484375 42.875 44.328125 
Q 39.84375 48.1875 33.796875 48.1875 
Q 26.515625 48.1875 22.3125 43.546875 
Q 18.109375 38.921875 18.109375 30.90625 
L 18.109375 0 
L 9.078125 0 
L 9.078125 54.6875 
L 18.109375 54.6875 
L 18.109375 46.1875 
Q 21.34375 51.125 25.703125 53.5625 
Q 30.078125 56 35.796875 56 
Q 45.21875 56 50.046875 50.171875 
Q 54.890625 44.34375 54.890625 33.015625 
z
" id="DejaVuSans-110"/>
        <path id="DejaVuSans-32"/>
        <path d="M 9.8125 72.90625 
L 19.671875 72.90625 
L 19.671875 43.015625 
L 55.515625 43.015625 
L 55.515625 72.90625 
L 65.375 72.90625 
L 65.375 0 
L 55.515625 0 
L 55.515625 34.71875 
L 19.671875 34.71875 
L 19.671875 0 
L 9.8125 0 
z
" id="DejaVuSans-72"/>
        <path d="M 54.890625 33.015625 
L 54.890625 0 
L 45.90625 0 
L 45.90625 32.71875 
Q 45.90625 40.484375 42.875 44.328125 
Q 39.84375 48.1875 33.796875 48.1875 
Q 26.515625 48.1875 22.3125 43.546875 
Q 18.109375 38.921875 18.109375 30.90625 
L 18.109375 0 
L 9.078125 0 
L 9.078125 75.984375 
L 18.109375 75.984375 
L 18.109375 46.1875 
Q 21.34375 51.125 25.703125 53.5625 
Q 30.078125 56 35.796875 56 
Q 45.21875 56 50.046875 50.171875 
Q 54.890625 44.34375 54.890625 33.015625 
z
" id="DejaVuSans-104"/>
       </defs>
       <use xlink:href="#DejaVuSans-73"/>
       <use x="29.492188" xlink:href="#DejaVuSans-114"/>
       <use x="68.855469" xlink:href="#DejaVuSans-114"/>
       <use x="109.96875" xlink:href="#DejaVuSans-105"/>
       <use x="137.751953" xlink:href="#DejaVuSans-103"/>
       <use x="201.228516" xlink:href="#DejaVuSans-97"/>
       <use x="262.507812" xlink:href="#DejaVuSans-116"/>
       <use x="301.716797" xlink:href="#DejaVuSans-105"/>
       <use x="329.5" xlink:href="#DejaVuSans-111"/>
       <use x="390.681641" xlink:href="#DejaVuSans-110"/>
       <use x="454.060547" xlink:href="#DejaVuSans-32"/>
       <use x="485.847656" xlink:href="#DejaVuSans-72"/>
       <use x="561.042969" xlink:href="#DejaVuSans-105"/>
       <use x="588.826172" xlink:href="#DejaVuSans-103"/>
       <use x="652.302734" xlink:href="#DejaVuSans-104"/>
      </g>
     </g>
    </g>
    <g id="xtick_2">
     <g id="text_2">
      <!-- Irrigation Intermediate -->
      <g style="fill:#262626;" transform="translate(135.124294 503.420156)rotate(-90)scale(0.165 -0.165)">
       <defs>
        <path d="M 56.203125 29.59375 
L 56.203125 25.203125 
L 14.890625 25.203125 
Q 15.484375 15.921875 20.484375 11.0625 
Q 25.484375 6.203125 34.421875 6.203125 
Q 39.59375 6.203125 44.453125 7.46875 
Q 49.3125 8.734375 54.109375 11.28125 
L 54.109375 2.78125 
Q 49.265625 0.734375 44.1875 -0.34375 
Q 39.109375 -1.421875 33.890625 -1.421875 
Q 20.796875 -1.421875 13.15625 6.1875 
Q 5.515625 13.8125 5.515625 26.8125 
Q 5.515625 40.234375 12.765625 48.109375 
Q 20.015625 56 32.328125 56 
Q 43.359375 56 49.78125 48.890625 
Q 56.203125 41.796875 56.203125 29.59375 
z
M 47.21875 32.234375 
Q 47.125 39.59375 43.09375 43.984375 
Q 39.0625 48.390625 32.421875 48.390625 
Q 24.90625 48.390625 20.390625 44.140625 
Q 15.875 39.890625 15.1875 32.171875 
z
" id="DejaVuSans-101"/>
        <path d="M 52 44.1875 
Q 55.375 50.25 60.0625 53.125 
Q 64.75 56 71.09375 56 
Q 79.640625 56 84.28125 50.015625 
Q 88.921875 44.046875 88.921875 33.015625 
L 88.921875 0 
L 79.890625 0 
L 79.890625 32.71875 
Q 79.890625 40.578125 77.09375 44.375 
Q 74.3125 48.1875 68.609375 48.1875 
Q 61.625 48.1875 57.5625 43.546875 
Q 53.515625 38.921875 53.515625 30.90625 
L 53.515625 0 
L 44.484375 0 
L 44.484375 32.71875 
Q 44.484375 40.625 41.703125 44.40625 
Q 38.921875 48.1875 33.109375 48.1875 
Q 26.21875 48.1875 22.15625 43.53125 
Q 18.109375 38.875 18.109375 30.90625 
L 18.109375 0 
L 9.078125 0 
L 9.078125 54.6875 
L 18.109375 54.6875 
L 18.109375 46.1875 
Q 21.1875 51.21875 25.484375 53.609375 
Q 29.78125 56 35.6875 56 
Q 41.65625 56 45.828125 52.96875 
Q 50 49.953125 52 44.1875 
z
" id="DejaVuSans-109"/>
        <path d="M 45.40625 46.390625 
L 45.40625 75.984375 
L 54.390625 75.984375 
L 54.390625 0 
L 45.40625 0 
L 45.40625 8.203125 
Q 42.578125 3.328125 38.25 0.953125 
Q 33.9375 -1.421875 27.875 -1.421875 
Q 17.96875 -1.421875 11.734375 6.484375 
Q 5.515625 14.40625 5.515625 27.296875 
Q 5.515625 40.1875 11.734375 48.09375 
Q 17.96875 56 27.875 56 
Q 33.9375 56 38.25 53.625 
Q 42.578125 51.265625 45.40625 46.390625 
z
M 14.796875 27.296875 
Q 14.796875 17.390625 18.875 11.75 
Q 22.953125 6.109375 30.078125 6.109375 
Q 37.203125 6.109375 41.296875 11.75 
Q 45.40625 17.390625 45.40625 27.296875 
Q 45.40625 37.203125 41.296875 42.84375 
Q 37.203125 48.484375 30.078125 48.484375 
Q 22.953125 48.484375 18.875 42.84375 
Q 14.796875 37.203125 14.796875 27.296875 
z
" id="DejaVuSans-100"/>
       </defs>
       <use xlink:href="#DejaVuSans-73"/>
       <use x="29.492188" xlink:href="#DejaVuSans-114"/>
       <use x="68.855469" xlink:href="#DejaVuSans-114"/>
       <use x="109.96875" xlink:href="#DejaVuSans-105"/>
       <use x="137.751953" xlink:href="#DejaVuSans-103"/>
       <use x="201.228516" xlink:href="#DejaVuSans-97"/>
       <use x="262.507812" xlink:href="#DejaVuSans-116"/>
       <use x="301.716797" xlink:href="#DejaVuSans-105"/>
       <use x="329.5" xlink:href="#DejaVuSans-111"/>
       <use x="390.681641" xlink:href="#DejaVuSans-110"/>
       <use x="454.060547" xlink:href="#DejaVuSans-32"/>
       <use x="485.847656" xlink:href="#DejaVuSans-73"/>
       <use x="515.339844" xlink:href="#DejaVuSans-110"/>
       <use x="578.71875" xlink:href="#DejaVuSans-116"/>
       <use x="617.927734" xlink:href="#DejaVuSans-101"/>
       <use x="679.451172" xlink:href="#DejaVuSans-114"/>
       <use x="718.814453" xlink:href="#DejaVuSans-109"/>
       <use x="816.226562" xlink:href="#DejaVuSans-101"/>
       <use x="877.75" xlink:href="#DejaVuSans-100"/>
       <use x="941.226562" xlink:href="#DejaVuSans-105"/>
       <use x="969.009766" xlink:href="#DejaVuSans-97"/>
       <use x="1030.289062" xlink:href="#DejaVuSans-116"/>
       <use x="1069.498047" xlink:href="#DejaVuSans-101"/>
      </g>
     </g>
    </g>
    <g id="xtick_3">
     <g id="text_3">
      <!-- Rain-fed High -->
      <g style="fill:#262626;" transform="translate(192.559345 428.602969)rotate(-90)scale(0.165 -0.165)">
       <defs>
        <path d="M 44.390625 34.1875 
Q 47.5625 33.109375 50.5625 29.59375 
Q 53.5625 26.078125 56.59375 19.921875 
L 66.609375 0 
L 56 0 
L 46.6875 18.703125 
Q 43.0625 26.03125 39.671875 28.421875 
Q 36.28125 30.8125 30.421875 30.8125 
L 19.671875 30.8125 
L 19.671875 0 
L 9.8125 0 
L 9.8125 72.90625 
L 32.078125 72.90625 
Q 44.578125 72.90625 50.734375 67.671875 
Q 56.890625 62.453125 56.890625 51.90625 
Q 56.890625 45.015625 53.6875 40.46875 
Q 50.484375 35.9375 44.390625 34.1875 
z
M 19.671875 64.796875 
L 19.671875 38.921875 
L 32.078125 38.921875 
Q 39.203125 38.921875 42.84375 42.21875 
Q 46.484375 45.515625 46.484375 51.90625 
Q 46.484375 58.296875 42.84375 61.546875 
Q 39.203125 64.796875 32.078125 64.796875 
z
" id="DejaVuSans-82"/>
        <path d="M 4.890625 31.390625 
L 31.203125 31.390625 
L 31.203125 23.390625 
L 4.890625 23.390625 
z
" id="DejaVuSans-45"/>
        <path d="M 37.109375 75.984375 
L 37.109375 68.5 
L 28.515625 68.5 
Q 23.6875 68.5 21.796875 66.546875 
Q 19.921875 64.59375 19.921875 59.515625 
L 19.921875 54.6875 
L 34.71875 54.6875 
L 34.71875 47.703125 
L 19.921875 47.703125 
L 19.921875 0 
L 10.890625 0 
L 10.890625 47.703125 
L 2.296875 47.703125 
L 2.296875 54.6875 
L 10.890625 54.6875 
L 10.890625 58.5 
Q 10.890625 67.625 15.140625 71.796875 
Q 19.390625 75.984375 28.609375 75.984375 
z
" id="DejaVuSans-102"/>
       </defs>
       <use xlink:href="#DejaVuSans-82"/>
       <use x="67.232422" xlink:href="#DejaVuSans-97"/>
       <use x="128.511719" xlink:href="#DejaVuSans-105"/>
       <use x="156.294922" xlink:href="#DejaVuSans-110"/>
       <use x="219.673828" xlink:href="#DejaVuSans-45"/>
       <use x="255.757812" xlink:href="#DejaVuSans-102"/>
       <use x="290.962891" xlink:href="#DejaVuSans-101"/>
       <use x="352.486328" xlink:href="#DejaVuSans-100"/>
       <use x="415.962891" xlink:href="#DejaVuSans-32"/>
       <use x="447.75" xlink:href="#DejaVuSans-72"/>
       <use x="522.945312" xlink:href="#DejaVuSans-105"/>
       <use x="550.728516" xlink:href="#DejaVuSans-103"/>
       <use x="614.205078" xlink:href="#DejaVuSans-104"/>
      </g>
     </g>
    </g>
    <g id="xtick_4">
     <g id="text_4">
      <!-- Rain-fed Intermediate -->
      <g style="fill:#262626;" transform="translate(249.994395 497.134687)rotate(-90)scale(0.165 -0.165)">
       <use xlink:href="#DejaVuSans-82"/>
       <use x="67.232422" xlink:href="#DejaVuSans-97"/>
       <use x="128.511719" xlink:href="#DejaVuSans-105"/>
       <use x="156.294922" xlink:href="#DejaVuSans-110"/>
       <use x="219.673828" xlink:href="#DejaVuSans-45"/>
       <use x="255.757812" xlink:href="#DejaVuSans-102"/>
       <use x="290.962891" xlink:href="#DejaVuSans-101"/>
       <use x="352.486328" xlink:href="#DejaVuSans-100"/>
       <use x="415.962891" xlink:href="#DejaVuSans-32"/>
       <use x="447.75" xlink:href="#DejaVuSans-73"/>
       <use x="477.242188" xlink:href="#DejaVuSans-110"/>
       <use x="540.621094" xlink:href="#DejaVuSans-116"/>
       <use x="579.830078" xlink:href="#DejaVuSans-101"/>
       <use x="641.353516" xlink:href="#DejaVuSans-114"/>
       <use x="680.716797" xlink:href="#DejaVuSans-109"/>
       <use x="778.128906" xlink:href="#DejaVuSans-101"/>
       <use x="839.652344" xlink:href="#DejaVuSans-100"/>
       <use x="903.128906" xlink:href="#DejaVuSans-105"/>
       <use x="930.912109" xlink:href="#DejaVuSans-97"/>
       <use x="992.191406" xlink:href="#DejaVuSans-116"/>
       <use x="1031.400391" xlink:href="#DejaVuSans-101"/>
      </g>
     </g>
    </g>
    <g id="xtick_5">
     <g id="text_5">
      <!-- Rain-fed Low -->
      <g style="fill:#262626;" transform="translate(307.429445 423.173437)rotate(-90)scale(0.165 -0.165)">
       <defs>
        <path d="M 9.8125 72.90625 
L 19.671875 72.90625 
L 19.671875 8.296875 
L 55.171875 8.296875 
L 55.171875 0 
L 9.8125 0 
z
" id="DejaVuSans-76"/>
        <path d="M 4.203125 54.6875 
L 13.1875 54.6875 
L 24.421875 12.015625 
L 35.59375 54.6875 
L 46.1875 54.6875 
L 57.421875 12.015625 
L 68.609375 54.6875 
L 77.59375 54.6875 
L 63.28125 0 
L 52.6875 0 
L 40.921875 44.828125 
L 29.109375 0 
L 18.5 0 
z
" id="DejaVuSans-119"/>
       </defs>
       <use xlink:href="#DejaVuSans-82"/>
       <use x="67.232422" xlink:href="#DejaVuSans-97"/>
       <use x="128.511719" xlink:href="#DejaVuSans-105"/>
       <use x="156.294922" xlink:href="#DejaVuSans-110"/>
       <use x="219.673828" xlink:href="#DejaVuSans-45"/>
       <use x="255.757812" xlink:href="#DejaVuSans-102"/>
       <use x="290.962891" xlink:href="#DejaVuSans-101"/>
       <use x="352.486328" xlink:href="#DejaVuSans-100"/>
       <use x="415.962891" xlink:href="#DejaVuSans-32"/>
       <use x="447.75" xlink:href="#DejaVuSans-76"/>
       <use x="501.712891" xlink:href="#DejaVuSans-111"/>
       <use x="562.894531" xlink:href="#DejaVuSans-119"/>
      </g>
     </g>
    </g>
   </g>
   <g id="matplotlib.axis_2">
    <g id="ytick_1">
     <g id="text_6">
      <!-- 0 -->
      <g style="fill:#262626;" transform="translate(21.420625 298.187802)scale(0.165 -0.165)">
       <defs>
        <path d="M 31.78125 66.40625 
Q 24.171875 66.40625 20.328125 58.90625 
Q 16.5 51.421875 16.5 36.375 
Q 16.5 21.390625 20.328125 13.890625 
Q 24.171875 6.390625 31.78125 6.390625 
Q 39.453125 6.390625 43.28125 13.890625 
Q 47.125 21.390625 47.125 36.375 
Q 47.125 51.421875 43.28125 58.90625 
Q 39.453125 66.40625 31.78125 66.40625 
z
M 31.78125 74.21875 
Q 44.046875 74.21875 50.515625 64.515625 
Q 56.984375 54.828125 56.984375 36.375 
Q 56.984375 17.96875 50.515625 8.265625 
Q 44.046875 -1.421875 31.78125 -1.421875 
Q 19.53125 -1.421875 13.0625 8.265625 
Q 6.59375 17.96875 6.59375 36.375 
Q 6.59375 54.828125 13.0625 64.515625 
Q 19.53125 74.21875 31.78125 74.21875 
z
" id="DejaVuSans-48"/>
       </defs>
       <use xlink:href="#DejaVuSans-48"/>
      </g>
     </g>
    </g>
    <g id="ytick_2">
     <g id="text_7">
      <!-- 1 -->
      <g style="fill:#262626;" transform="translate(21.420625 250.078575)scale(0.165 -0.165)">
       <defs>
        <path d="M 12.40625 8.296875 
L 28.515625 8.296875 
L 28.515625 63.921875 
L 10.984375 60.40625 
L 10.984375 69.390625 
L 28.421875 72.90625 
L 38.28125 72.90625 
L 38.28125 8.296875 
L 54.390625 8.296875 
L 54.390625 0 
L 12.40625 0 
z
" id="DejaVuSans-49"/>
       </defs>
       <use xlink:href="#DejaVuSans-49"/>
      </g>
     </g>
    </g>
    <g id="ytick_3">
     <g id="text_8">
      <!-- 2 -->
      <g style="fill:#262626;" transform="translate(21.420625 201.969348)scale(0.165 -0.165)">
       <defs>
        <path d="M 19.1875 8.296875 
L 53.609375 8.296875 
L 53.609375 0 
L 7.328125 0 
L 7.328125 8.296875 
Q 12.9375 14.109375 22.625 23.890625 
Q 32.328125 33.6875 34.8125 36.53125 
Q 39.546875 41.84375 41.421875 45.53125 
Q 43.3125 49.21875 43.3125 52.78125 
Q 43.3125 58.59375 39.234375 62.25 
Q 35.15625 65.921875 28.609375 65.921875 
Q 23.96875 65.921875 18.8125 64.3125 
Q 13.671875 62.703125 7.8125 59.421875 
L 7.8125 69.390625 
Q 13.765625 71.78125 18.9375 73 
Q 24.125 74.21875 28.421875 74.21875 
Q 39.75 74.21875 46.484375 68.546875 
Q 53.21875 62.890625 53.21875 53.421875 
Q 53.21875 48.921875 51.53125 44.890625 
Q 49.859375 40.875 45.40625 35.40625 
Q 44.1875 33.984375 37.640625 27.21875 
Q 31.109375 20.453125 19.1875 8.296875 
z
" id="DejaVuSans-50"/>
       </defs>
       <use xlink:href="#DejaVuSans-50"/>
      </g>
     </g>
    </g>
    <g id="ytick_4">
     <g id="text_9">
      <!-- 3 -->
      <g style="fill:#262626;" transform="translate(21.420625 153.860122)scale(0.165 -0.165)">
       <defs>
        <path d="M 40.578125 39.3125 
Q 47.65625 37.796875 51.625 33 
Q 55.609375 28.21875 55.609375 21.1875 
Q 55.609375 10.40625 48.1875 4.484375 
Q 40.765625 -1.421875 27.09375 -1.421875 
Q 22.515625 -1.421875 17.65625 -0.515625 
Q 12.796875 0.390625 7.625 2.203125 
L 7.625 11.71875 
Q 11.71875 9.328125 16.59375 8.109375 
Q 21.484375 6.890625 26.8125 6.890625 
Q 36.078125 6.890625 40.9375 10.546875 
Q 45.796875 14.203125 45.796875 21.1875 
Q 45.796875 27.640625 41.28125 31.265625 
Q 36.765625 34.90625 28.71875 34.90625 
L 20.21875 34.90625 
L 20.21875 43.015625 
L 29.109375 43.015625 
Q 36.375 43.015625 40.234375 45.921875 
Q 44.09375 48.828125 44.09375 54.296875 
Q 44.09375 59.90625 40.109375 62.90625 
Q 36.140625 65.921875 28.71875 65.921875 
Q 24.65625 65.921875 20.015625 65.03125 
Q 15.375 64.15625 9.8125 62.3125 
L 9.8125 71.09375 
Q 15.4375 72.65625 20.34375 73.4375 
Q 25.25 74.21875 29.59375 74.21875 
Q 40.828125 74.21875 47.359375 69.109375 
Q 53.90625 64.015625 53.90625 55.328125 
Q 53.90625 49.265625 50.4375 45.09375 
Q 46.96875 40.921875 40.578125 39.3125 
z
" id="DejaVuSans-51"/>
       </defs>
       <use xlink:href="#DejaVuSans-51"/>
      </g>
     </g>
    </g>
    <g id="ytick_5">
     <g id="text_10">
      <!-- 4 -->
      <g style="fill:#262626;" transform="translate(21.420625 105.750895)scale(0.165 -0.165)">
       <defs>
        <path d="M 37.796875 64.3125 
L 12.890625 25.390625 
L 37.796875 25.390625 
z
M 35.203125 72.90625 
L 47.609375 72.90625 
L 47.609375 25.390625 
L 58.015625 25.390625 
L 58.015625 17.1875 
L 47.609375 17.1875 
L 47.609375 0 
L 37.796875 0 
L 37.796875 17.1875 
L 4.890625 17.1875 
L 4.890625 26.703125 
z
" id="DejaVuSans-52"/>
       </defs>
       <use xlink:href="#DejaVuSans-52"/>
      </g>
     </g>
    </g>
    <g id="ytick_6">
     <g id="text_11">
      <!-- 5 -->
      <g style="fill:#262626;" transform="translate(21.420625 57.641668)scale(0.165 -0.165)">
       <defs>
        <path d="M 10.796875 72.90625 
L 49.515625 72.90625 
L 49.515625 64.59375 
L 19.828125 64.59375 
L 19.828125 46.734375 
Q 21.96875 47.46875 24.109375 47.828125 
Q 26.265625 48.1875 28.421875 48.1875 
Q 40.625 48.1875 47.75 41.5 
Q 54.890625 34.8125 54.890625 23.390625 
Q 54.890625 11.625 47.5625 5.09375 
Q 40.234375 -1.421875 26.90625 -1.421875 
Q 22.3125 -1.421875 17.546875 -0.640625 
Q 12.796875 0.140625 7.71875 1.703125 
L 7.71875 11.625 
Q 12.109375 9.234375 16.796875 8.0625 
Q 21.484375 6.890625 26.703125 6.890625 
Q 35.15625 6.890625 40.078125 11.328125 
Q 45.015625 15.765625 45.015625 23.390625 
Q 45.015625 31 40.078125 35.4375 
Q 35.15625 39.890625 26.703125 39.890625 
Q 22.75 39.890625 18.8125 39.015625 
Q 14.890625 38.140625 10.796875 36.28125 
z
" id="DejaVuSans-53"/>
       </defs>
       <use xlink:href="#DejaVuSans-53"/>
      </g>
     </g>
    </g>
    <g id="text_12">
     <!-- Yield (t/ha) -->
     <g style="fill:#262626;" transform="translate(13.677187 217.195156)rotate(-90)scale(0.18 -0.18)">
      <defs>
       <path d="M -0.203125 72.90625 
L 10.40625 72.90625 
L 30.609375 42.921875 
L 50.6875 72.90625 
L 61.28125 72.90625 
L 35.5 34.71875 
L 35.5 0 
L 25.59375 0 
L 25.59375 34.71875 
z
" id="DejaVuSans-89"/>
       <path d="M 9.421875 75.984375 
L 18.40625 75.984375 
L 18.40625 0 
L 9.421875 0 
z
" id="DejaVuSans-108"/>
       <path d="M 31 75.875 
Q 24.46875 64.65625 21.28125 53.65625 
Q 18.109375 42.671875 18.109375 31.390625 
Q 18.109375 20.125 21.3125 9.0625 
Q 24.515625 -2 31 -13.1875 
L 23.1875 -13.1875 
Q 15.875 -1.703125 12.234375 9.375 
Q 8.59375 20.453125 8.59375 31.390625 
Q 8.59375 42.28125 12.203125 53.3125 
Q 15.828125 64.359375 23.1875 75.875 
z
" id="DejaVuSans-40"/>
       <path d="M 25.390625 72.90625 
L 33.6875 72.90625 
L 8.296875 -9.28125 
L 0 -9.28125 
z
" id="DejaVuSans-47"/>
       <path d="M 8.015625 75.875 
L 15.828125 75.875 
Q 23.140625 64.359375 26.78125 53.3125 
Q 30.421875 42.28125 30.421875 31.390625 
Q 30.421875 20.453125 26.78125 9.375 
Q 23.140625 -1.703125 15.828125 -13.1875 
L 8.015625 -13.1875 
Q 14.5 -2 17.703125 9.0625 
Q 20.90625 20.125 20.90625 31.390625 
Q 20.90625 42.671875 17.703125 53.65625 
Q 14.5 64.65625 8.015625 75.875 
z
" id="DejaVuSans-41"/>
      </defs>
      <use xlink:href="#DejaVuSans-89"/>
      <use x="57.458984" xlink:href="#DejaVuSans-105"/>
      <use x="85.242188" xlink:href="#DejaVuSans-101"/>
      <use x="146.765625" xlink:href="#DejaVuSans-108"/>
      <use x="174.548828" xlink:href="#DejaVuSans-100"/>
      <use x="238.025391" xlink:href="#DejaVuSans-32"/>
      <use x="269.8125" xlink:href="#DejaVuSans-40"/>
      <use x="308.826172" xlink:href="#DejaVuSans-116"/>
      <use x="348.035156" xlink:href="#DejaVuSans-47"/>
      <use x="381.726562" xlink:href="#DejaVuSans-104"/>
      <use x="445.105469" xlink:href="#DejaVuSans-97"/>
      <use x="506.384766" xlink:href="#DejaVuSans-41"/>
     </g>
    </g>
   </g>
   <g id="PolyCollection_1">
    <defs>
     <path d="M 73.136275 -211.501065 
L 50.162255 -211.501065 
L 50.540141 -214.002259 
L 51.600905 -216.503453 
L 53.148106 -219.004647 
L 54.921101 -221.50584 
L 56.665745 -224.007034 
L 58.190606 -226.508228 
L 59.392833 -229.009422 
L 60.253055 -231.510615 
L 60.810293 -234.011809 
L 61.131575 -236.513003 
L 61.287384 -239.014197 
L 61.337542 -241.51539 
L 61.326557 -244.016584 
L 61.284796 -246.517778 
L 61.231835 -249.018972 
L 61.179703 -251.520165 
L 61.135182 -254.021359 
L 61.101258 -256.522553 
L 61.078108 -259.023747 
L 61.063949 -261.52494 
L 61.055858 -264.026134 
L 61.050562 -266.527328 
L 61.045077 -269.028522 
L 61.037144 -271.529715 
L 61.025405 -274.030909 
L 61.009352 -276.532103 
L 60.989103 -279.033297 
L 60.965111 -281.534491 
L 60.937922 -284.035684 
L 60.908043 -286.536878 
L 60.875952 -289.038072 
L 60.842174 -291.539266 
L 60.807363 -294.040459 
L 60.772305 -296.541653 
L 60.73785 -299.042847 
L 60.704785 -301.544041 
L 60.673736 -304.045234 
L 60.64511 -306.546428 
L 60.619104 -309.047622 
L 60.595738 -311.548816 
L 60.574865 -314.050009 
L 60.556135 -316.551203 
L 60.538917 -319.052397 
L 60.522208 -321.553591 
L 60.504606 -324.054784 
L 60.484418 -326.555978 
L 60.459955 -329.057172 
L 60.430029 -331.558366 
L 60.394586 -334.059559 
L 60.355336 -336.560753 
L 60.316127 -339.061947 
L 60.282831 -341.563141 
L 60.262582 -344.064334 
L 60.262412 -346.565528 
L 60.287617 -349.066722 
L 60.340319 -351.567916 
L 60.418715 -354.069109 
L 60.517274 -356.570303 
L 60.627831 -359.071497 
L 60.74122 -361.572691 
L 60.848969 -364.073884 
L 60.944606 -366.575078 
L 61.024301 -369.076272 
L 61.086832 -371.577466 
L 61.133004 -374.078659 
L 61.164792 -376.579853 
L 61.184497 -379.081047 
L 61.194129 -381.582241 
L 61.195124 -384.083434 
L 61.188394 -386.584628 
L 61.174565 -389.085822 
L 61.15425 -391.587016 
L 61.128221 -394.08821 
L 61.09745 -396.589403 
L 61.063102 -399.090597 
L 61.026613 -401.591791 
L 60.989909 -404.092985 
L 60.955688 -406.594178 
L 60.927527 -409.095372 
L 60.90958 -411.596566 
L 60.905798 -414.09776 
L 60.918843 -416.598953 
L 60.949106 -419.100147 
L 60.99426 -421.601341 
L 61.04959 -424.102535 
L 61.109029 -426.603728 
L 61.166564 -429.104922 
L 61.217542 -431.606116 
L 61.259511 -434.10731 
L 61.292406 -436.608503 
L 61.318137 -439.109697 
L 61.339781 -441.610891 
L 61.360647 -444.112085 
L 61.383432 -446.613278 
L 61.409675 -449.114472 
L 61.439548 -451.615666 
L 61.472014 -454.11686 
L 61.505235 -456.618053 
L 61.537109 -459.119247 
L 61.761421 -459.119247 
L 61.761421 -459.119247 
L 61.793295 -456.618053 
L 61.826516 -454.11686 
L 61.858982 -451.615666 
L 61.888856 -449.114472 
L 61.915098 -446.613278 
L 61.937884 -444.112085 
L 61.958749 -441.610891 
L 61.980394 -439.109697 
L 62.006124 -436.608503 
L 62.039019 -434.10731 
L 62.080988 -431.606116 
L 62.131966 -429.104922 
L 62.189501 -426.603728 
L 62.24894 -424.102535 
L 62.30427 -421.601341 
L 62.349425 -419.100147 
L 62.379688 -416.598953 
L 62.392732 -414.09776 
L 62.38895 -411.596566 
L 62.371003 -409.095372 
L 62.342842 -406.594178 
L 62.308621 -404.092985 
L 62.271917 -401.591791 
L 62.235428 -399.090597 
L 62.20108 -396.589403 
L 62.170309 -394.08821 
L 62.144281 -391.587016 
L 62.123965 -389.085822 
L 62.110136 -386.584628 
L 62.103406 -384.083434 
L 62.104401 -381.582241 
L 62.114033 -379.081047 
L 62.133739 -376.579853 
L 62.165527 -374.078659 
L 62.211698 -371.577466 
L 62.27423 -369.076272 
L 62.353925 -366.575078 
L 62.449561 -364.073884 
L 62.557311 -361.572691 
L 62.670699 -359.071497 
L 62.781256 -356.570303 
L 62.879816 -354.069109 
L 62.958212 -351.567916 
L 63.010914 -349.066722 
L 63.036118 -346.565528 
L 63.035948 -344.064334 
L 63.015699 -341.563141 
L 62.982403 -339.061947 
L 62.943194 -336.560753 
L 62.903944 -334.059559 
L 62.868501 -331.558366 
L 62.838575 -329.057172 
L 62.814112 -326.555978 
L 62.793924 -324.054784 
L 62.776323 -321.553591 
L 62.759613 -319.052397 
L 62.742395 -316.551203 
L 62.723666 -314.050009 
L 62.702792 -311.548816 
L 62.679426 -309.047622 
L 62.65342 -306.546428 
L 62.624794 -304.045234 
L 62.593745 -301.544041 
L 62.560681 -299.042847 
L 62.526225 -296.541653 
L 62.491167 -294.040459 
L 62.456356 -291.539266 
L 62.422578 -289.038072 
L 62.390487 -286.536878 
L 62.360609 -284.035684 
L 62.333419 -281.534491 
L 62.309427 -279.033297 
L 62.289178 -276.532103 
L 62.273125 -274.030909 
L 62.261386 -271.529715 
L 62.253453 -269.028522 
L 62.247968 -266.527328 
L 62.242672 -264.026134 
L 62.234582 -261.52494 
L 62.220422 -259.023747 
L 62.197273 -256.522553 
L 62.163349 -254.021359 
L 62.118827 -251.520165 
L 62.066695 -249.018972 
L 62.013734 -246.517778 
L 61.971973 -244.016584 
L 61.960988 -241.51539 
L 62.011146 -239.014197 
L 62.166955 -236.513003 
L 62.488238 -234.011809 
L 63.045475 -231.510615 
L 63.905697 -229.009422 
L 65.107925 -226.508228 
L 66.632785 -224.007034 
L 68.37743 -221.50584 
L 70.150424 -219.004647 
L 71.697625 -216.503453 
L 72.758389 -214.002259 
L 73.136275 -211.501065 
z
" id="m31794ba7cf" style="stroke:#545454;stroke-width:2.5;"/>
    </defs>
    <g clip-path="url(#pbc983ff112)">
     <use style="fill:#597dbf;stroke:#545454;stroke-width:2.5;" x="0" xlink:href="#m31794ba7cf" y="503.420156"/>
    </g>
   </g>
   <g id="PolyCollection_2">
    <defs>
     <path d="M 85.402447 -211.501065 
L 83.844123 -211.501065 
L 83.825751 -213.751475 
L 83.807544 -216.001885 
L 83.789504 -218.252295 
L 83.77163 -220.502704 
L 83.753918 -222.753114 
L 83.736364 -225.003524 
L 83.718962 -227.253934 
L 83.701701 -229.504343 
L 83.68457 -231.754753 
L 83.667559 -234.005163 
L 83.650652 -236.255573 
L 83.633836 -238.505982 
L 83.617094 -240.756392 
L 83.600409 -243.006802 
L 83.583766 -245.257212 
L 83.567145 -247.507621 
L 83.55053 -249.758031 
L 83.533904 -252.008441 
L 83.51725 -254.258851 
L 83.500552 -256.50926 
L 83.483793 -258.75967 
L 83.46696 -261.01008 
L 83.45004 -263.26049 
L 83.433021 -265.510899 
L 83.415893 -267.761309 
L 83.398646 -270.011719 
L 83.381275 -272.262128 
L 83.363775 -274.512538 
L 83.346143 -276.762948 
L 83.328379 -279.013358 
L 83.310483 -281.263767 
L 83.29246 -283.514177 
L 83.274316 -285.764587 
L 83.256058 -288.014997 
L 83.237699 -290.265406 
L 83.219249 -292.515816 
L 83.200724 -294.766226 
L 83.182141 -297.016636 
L 83.16352 -299.267045 
L 83.144881 -301.517455 
L 83.126247 -303.767865 
L 83.107643 -306.018275 
L 83.089097 -308.268684 
L 83.070636 -310.519094 
L 83.052291 -312.769504 
L 83.034093 -315.019914 
L 83.016076 -317.270323 
L 82.998273 -319.520733 
L 82.980721 -321.771143 
L 82.963457 -324.021553 
L 82.946517 -326.271962 
L 82.929942 -328.522372 
L 82.91377 -330.772782 
L 82.898043 -333.023192 
L 82.882803 -335.273601 
L 82.86809 -337.524011 
L 82.853949 -339.774421 
L 82.840421 -342.024831 
L 82.82755 -344.27524 
L 82.815381 -346.52565 
L 82.803958 -348.77606 
L 82.793324 -351.02647 
L 82.783524 -353.276879 
L 82.774601 -355.527289 
L 82.766599 -357.777699 
L 82.759563 -360.028109 
L 82.753533 -362.278518 
L 82.748553 -364.528928 
L 82.744664 -366.779338 
L 82.741904 -369.029748 
L 82.740313 -371.280157 
L 82.739927 -373.530567 
L 82.740782 -375.780977 
L 82.742911 -378.031387 
L 82.746344 -380.281796 
L 82.75111 -382.532206 
L 82.757234 -384.782616 
L 82.764739 -387.033026 
L 82.773643 -389.283435 
L 82.783961 -391.533845 
L 82.795707 -393.784255 
L 82.808886 -396.034665 
L 82.823502 -398.285074 
L 82.839555 -400.535484 
L 82.857038 -402.785894 
L 82.875941 -405.036304 
L 82.896247 -407.286713 
L 82.917937 -409.537123 
L 82.940985 -411.787533 
L 82.965359 -414.037943 
L 82.991025 -416.288352 
L 83.01794 -418.538762 
L 83.04606 -420.789172 
L 83.075332 -423.039582 
L 83.105702 -425.289991 
L 83.13711 -427.540401 
L 83.169491 -429.790811 
L 83.202778 -432.041221 
L 83.236897 -434.29163 
L 86.009673 -434.29163 
L 86.009673 -434.29163 
L 86.043793 -432.041221 
L 86.077079 -429.790811 
L 86.10946 -427.540401 
L 86.140868 -425.289991 
L 86.171238 -423.039582 
L 86.200511 -420.789172 
L 86.22863 -418.538762 
L 86.255545 -416.288352 
L 86.281211 -414.037943 
L 86.305586 -411.787533 
L 86.328633 -409.537123 
L 86.350323 -407.286713 
L 86.37063 -405.036304 
L 86.389532 -402.785894 
L 86.407015 -400.535484 
L 86.423068 -398.285074 
L 86.437685 -396.034665 
L 86.450864 -393.784255 
L 86.462609 -391.533845 
L 86.472928 -389.283435 
L 86.481832 -387.033026 
L 86.489336 -384.782616 
L 86.49546 -382.532206 
L 86.500226 -380.281796 
L 86.503659 -378.031387 
L 86.505788 -375.780977 
L 86.506643 -373.530567 
L 86.506258 -371.280157 
L 86.504666 -369.029748 
L 86.501907 -366.779338 
L 86.498017 -364.528928 
L 86.493037 -362.278518 
L 86.487008 -360.028109 
L 86.479971 -357.777699 
L 86.47197 -355.527289 
L 86.463047 -353.276879 
L 86.453247 -351.02647 
L 86.442613 -348.77606 
L 86.431189 -346.52565 
L 86.41902 -344.27524 
L 86.40615 -342.024831 
L 86.392622 -339.774421 
L 86.37848 -337.524011 
L 86.363768 -335.273601 
L 86.348527 -333.023192 
L 86.3328 -330.772782 
L 86.316629 -328.522372 
L 86.300053 -326.271962 
L 86.283114 -324.021553 
L 86.265849 -321.771143 
L 86.248297 -319.520733 
L 86.230494 -317.270323 
L 86.212477 -315.019914 
L 86.194279 -312.769504 
L 86.175934 -310.519094 
L 86.157474 -308.268684 
L 86.138927 -306.018275 
L 86.120324 -303.767865 
L 86.10169 -301.517455 
L 86.083051 -299.267045 
L 86.064429 -297.016636 
L 86.045846 -294.766226 
L 86.027322 -292.515816 
L 86.008872 -290.265406 
L 85.990512 -288.014997 
L 85.972255 -285.764587 
L 85.95411 -283.514177 
L 85.936087 -281.263767 
L 85.918192 -279.013358 
L 85.900427 -276.762948 
L 85.882795 -274.512538 
L 85.865295 -272.262128 
L 85.847924 -270.011719 
L 85.830678 -267.761309 
L 85.813549 -265.510899 
L 85.79653 -263.26049 
L 85.77961 -261.01008 
L 85.762777 -258.75967 
L 85.746019 -256.50926 
L 85.72932 -254.258851 
L 85.712666 -252.008441 
L 85.69604 -249.758031 
L 85.679425 -247.507621 
L 85.662805 -245.257212 
L 85.646161 -243.006802 
L 85.629477 -240.756392 
L 85.612734 -238.505982 
L 85.595918 -236.255573 
L 85.579012 -234.005163 
L 85.562 -231.754753 
L 85.54487 -229.504343 
L 85.527609 -227.253934 
L 85.510206 -225.003524 
L 85.492652 -222.753114 
L 85.474941 -220.502704 
L 85.457066 -218.252295 
L 85.439026 -216.001885 
L 85.420819 -213.751475 
L 85.402447 -211.501065 
z
" id="m79512d95b2" style="stroke:#545454;stroke-width:2.5;"/>
    </defs>
    <g clip-path="url(#pbc983ff112)">
     <use style="fill:#d98b5f;stroke:#545454;stroke-width:2.5;" x="0" xlink:href="#m79512d95b2" y="503.420156"/>
    </g>
   </g>
   <g id="PolyCollection_3">
    <defs>
     <path d="M 130.571325 -211.501065 
L 107.597305 -211.501065 
L 107.974599 -213.101305 
L 109.033825 -214.701544 
L 110.579063 -216.301783 
L 112.350263 -217.902022 
L 114.093692 -219.502261 
L 115.618005 -221.102501 
L 116.82015 -222.70274 
L 117.68041 -224.302979 
L 118.2375 -225.903218 
L 118.558303 -227.503458 
L 118.713347 -229.103697 
L 118.762648 -230.703936 
L 118.750961 -232.304175 
L 118.708859 -233.904414 
L 118.656013 -235.504654 
L 118.604416 -237.104893 
L 118.560705 -238.705132 
L 118.527654 -240.305371 
L 118.505221 -241.90561 
L 118.491435 -243.50585 
L 118.48325 -245.106089 
L 118.47734 -246.706328 
L 118.470733 -248.306567 
L 118.461235 -249.906807 
L 118.447593 -251.507046 
L 118.429424 -253.107285 
L 118.406982 -254.707524 
L 118.380861 -256.307763 
L 118.351738 -257.908003 
L 118.320241 -259.508242 
L 118.286942 -261.108481 
L 118.252429 -262.70872 
L 118.217379 -264.30896 
L 118.182559 -265.909199 
L 118.148754 -267.509438 
L 118.116663 -269.109677 
L 118.086798 -270.709916 
L 118.059453 -272.310156 
L 118.034729 -273.910395 
L 118.012576 -275.510634 
L 117.992795 -277.110873 
L 117.974981 -278.711113 
L 117.958398 -280.311352 
L 117.941886 -281.911591 
L 117.923862 -283.51183 
L 117.902525 -285.112069 
L 117.876294 -286.712309 
L 117.844446 -288.312548 
L 117.807832 -289.912787 
L 117.769427 -291.513026 
L 117.734455 -293.113265 
L 117.709869 -294.713505 
L 117.703165 -296.313744 
L 117.720714 -297.913983 
L 117.766113 -299.514222 
L 117.839034 -301.114462 
L 117.935014 -302.714701 
L 118.046244 -304.31494 
L 118.163144 -305.915179 
L 118.276225 -307.515418 
L 118.377734 -309.115658 
L 118.462681 -310.715897 
L 118.529103 -312.316136 
L 118.577638 -313.916375 
L 118.61065 -315.516615 
L 118.631225 -317.116854 
L 118.642294 -318.717093 
L 118.646065 -320.317332 
L 118.643835 -321.917571 
L 118.636133 -323.517811 
L 118.62306 -325.11805 
L 118.604656 -326.718289 
L 118.581151 -328.318528 
L 118.553034 -329.918768 
L 118.520993 -331.519007 
L 118.485886 -333.119246 
L 118.448875 -334.719485 
L 118.411748 -336.319724 
L 118.377272 -337.919964 
L 118.34926 -339.520203 
L 118.332146 -341.120442 
L 118.330016 -342.720681 
L 118.3454 -344.32092 
L 118.37829 -345.92116 
L 118.425824 -347.521399 
L 118.482833 -349.121638 
L 118.543079 -350.721877 
L 118.600759 -352.322117 
L 118.651772 -353.922356 
L 118.694385 -355.522595 
L 118.729185 -357.122834 
L 118.758442 -358.723073 
L 118.785159 -360.323313 
L 118.812104 -361.923552 
L 118.841099 -363.523791 
L 118.872673 -365.12403 
L 118.906118 -366.72427 
L 118.939862 -368.324509 
L 118.971992 -369.924748 
L 119.196639 -369.924748 
L 119.196639 -369.924748 
L 119.228769 -368.324509 
L 119.262513 -366.72427 
L 119.295958 -365.12403 
L 119.327531 -363.523791 
L 119.356526 -361.923552 
L 119.383472 -360.323313 
L 119.410189 -358.723073 
L 119.439446 -357.122834 
L 119.474246 -355.522595 
L 119.516859 -353.922356 
L 119.567871 -352.322117 
L 119.625552 -350.721877 
L 119.685798 -349.121638 
L 119.742806 -347.521399 
L 119.79034 -345.92116 
L 119.823231 -344.32092 
L 119.838615 -342.720681 
L 119.836485 -341.120442 
L 119.819371 -339.520203 
L 119.791359 -337.919964 
L 119.756882 -336.319724 
L 119.719756 -334.719485 
L 119.682744 -333.119246 
L 119.647637 -331.519007 
L 119.615597 -329.918768 
L 119.58748 -328.318528 
L 119.563975 -326.718289 
L 119.545571 -325.11805 
L 119.532498 -323.517811 
L 119.524796 -321.917571 
L 119.522566 -320.317332 
L 119.526337 -318.717093 
L 119.537406 -317.116854 
L 119.557981 -315.516615 
L 119.590993 -313.916375 
L 119.639527 -312.316136 
L 119.70595 -310.715897 
L 119.790897 -309.115658 
L 119.892406 -307.515418 
L 120.005487 -305.915179 
L 120.122386 -304.31494 
L 120.233617 -302.714701 
L 120.329597 -301.114462 
L 120.402518 -299.514222 
L 120.447916 -297.913983 
L 120.465466 -296.313744 
L 120.458761 -294.713505 
L 120.434176 -293.113265 
L 120.399203 -291.513026 
L 120.360798 -289.912787 
L 120.324185 -288.312548 
L 120.292337 -286.712309 
L 120.266105 -285.112069 
L 120.244768 -283.51183 
L 120.226745 -281.911591 
L 120.210233 -280.311352 
L 120.19365 -278.711113 
L 120.175835 -277.110873 
L 120.156055 -275.510634 
L 120.133902 -273.910395 
L 120.109178 -272.310156 
L 120.081833 -270.709916 
L 120.051967 -269.109677 
L 120.019876 -267.509438 
L 119.986072 -265.909199 
L 119.951251 -264.30896 
L 119.916201 -262.70872 
L 119.881689 -261.108481 
L 119.84839 -259.508242 
L 119.816893 -257.908003 
L 119.78777 -256.307763 
L 119.761649 -254.707524 
L 119.739207 -253.107285 
L 119.721038 -251.507046 
L 119.707395 -249.906807 
L 119.697898 -248.306567 
L 119.691291 -246.706328 
L 119.685381 -245.106089 
L 119.677196 -243.50585 
L 119.663409 -241.90561 
L 119.640976 -240.305371 
L 119.607926 -238.705132 
L 119.564215 -237.104893 
L 119.512618 -235.504654 
L 119.459772 -233.904414 
L 119.41767 -232.304175 
L 119.405983 -230.703936 
L 119.455284 -229.103697 
L 119.610328 -227.503458 
L 119.93113 -225.903218 
L 120.488221 -224.302979 
L 121.348481 -222.70274 
L 122.550626 -221.102501 
L 124.074939 -219.502261 
L 125.818368 -217.902022 
L 127.589568 -216.301783 
L 129.134806 -214.701544 
L 130.194032 -213.101305 
L 130.571325 -211.501065 
z
" id="mcc16071de8" style="stroke:#545454;stroke-width:2.5;"/>
    </defs>
    <g clip-path="url(#pbc983ff112)">
     <use style="fill:#597dbf;stroke:#545454;stroke-width:2.5;" x="0" xlink:href="#mcc16071de8" y="503.420156"/>
    </g>
   </g>
   <g id="PolyCollection_4">
    <defs>
     <path d="M 142.843152 -211.501065 
L 141.273519 -211.501065 
L 141.254959 -212.94089 
L 141.236562 -214.380716 
L 141.21833 -215.820541 
L 141.200263 -217.260366 
L 141.182361 -218.700191 
L 141.164619 -220.140016 
L 141.147033 -221.579841 
L 141.129596 -223.019667 
L 141.112298 -224.459492 
L 141.09513 -225.899317 
L 141.078079 -227.339142 
L 141.061134 -228.778967 
L 141.04428 -230.218792 
L 141.027503 -231.658618 
L 141.010789 -233.098443 
L 140.994122 -234.538268 
L 140.977487 -235.978093 
L 140.960871 -237.417918 
L 140.944257 -238.857743 
L 140.927631 -240.297569 
L 140.910982 -241.737394 
L 140.894295 -243.177219 
L 140.877561 -244.617044 
L 140.860769 -246.056869 
L 140.84391 -247.496694 
L 140.826978 -248.936519 
L 140.809967 -250.376345 
L 140.792874 -251.81617 
L 140.775696 -253.255995 
L 140.758434 -254.69582 
L 140.74109 -256.135645 
L 140.723667 -257.57547 
L 140.706171 -259.015296 
L 140.688611 -260.455121 
L 140.670995 -261.894946 
L 140.653335 -263.334771 
L 140.635645 -264.774596 
L 140.61794 -266.214421 
L 140.600236 -267.654247 
L 140.582552 -269.094072 
L 140.564908 -270.533897 
L 140.547327 -271.973722 
L 140.52983 -273.413547 
L 140.512442 -274.853372 
L 140.49519 -276.293197 
L 140.478099 -277.733023 
L 140.461199 -279.172848 
L 140.444518 -280.612673 
L 140.428086 -282.052498 
L 140.411935 -283.492323 
L 140.396096 -284.932148 
L 140.380603 -286.371974 
L 140.365489 -287.811799 
L 140.350789 -289.251624 
L 140.336537 -290.691449 
L 140.322771 -292.131274 
L 140.309526 -293.571099 
L 140.296839 -295.010925 
L 140.28475 -296.45075 
L 140.273295 -297.890575 
L 140.262514 -299.3304 
L 140.252446 -300.770225 
L 140.243132 -302.21005 
L 140.23461 -303.649875 
L 140.226921 -305.089701 
L 140.220106 -306.529526 
L 140.214205 -307.969351 
L 140.209257 -309.409176 
L 140.205302 -310.849001 
L 140.20238 -312.288826 
L 140.200529 -313.728652 
L 140.199786 -315.168477 
L 140.200188 -316.608302 
L 140.201769 -318.048127 
L 140.204563 -319.487952 
L 140.208601 -320.927777 
L 140.213912 -322.367603 
L 140.220523 -323.807428 
L 140.228456 -325.247253 
L 140.237733 -326.687078 
L 140.248372 -328.126903 
L 140.260384 -329.566728 
L 140.27378 -331.006553 
L 140.288566 -332.446379 
L 140.304742 -333.886204 
L 140.322304 -335.326029 
L 140.341245 -336.765854 
L 140.36155 -338.205679 
L 140.383201 -339.645504 
L 140.406175 -341.08533 
L 140.430443 -342.525155 
L 140.45597 -343.96498 
L 140.482718 -345.404805 
L 140.510642 -346.84463 
L 140.539692 -348.284455 
L 140.569814 -349.724281 
L 140.60095 -351.164106 
L 140.633037 -352.603931 
L 140.666007 -354.043756 
L 143.450664 -354.043756 
L 143.450664 -354.043756 
L 143.483634 -352.603931 
L 143.515721 -351.164106 
L 143.546857 -349.724281 
L 143.576979 -348.284455 
L 143.606029 -346.84463 
L 143.633953 -345.404805 
L 143.660701 -343.96498 
L 143.686228 -342.525155 
L 143.710496 -341.08533 
L 143.73347 -339.645504 
L 143.755121 -338.205679 
L 143.775426 -336.765854 
L 143.794367 -335.326029 
L 143.81193 -333.886204 
L 143.828105 -332.446379 
L 143.842891 -331.006553 
L 143.856287 -329.566728 
L 143.8683 -328.126903 
L 143.878938 -326.687078 
L 143.888215 -325.247253 
L 143.896148 -323.807428 
L 143.902759 -322.367603 
L 143.90807 -320.927777 
L 143.912108 -319.487952 
L 143.914902 -318.048127 
L 143.916483 -316.608302 
L 143.916885 -315.168477 
L 143.916142 -313.728652 
L 143.914291 -312.288826 
L 143.911369 -310.849001 
L 143.907414 -309.409176 
L 143.902466 -307.969351 
L 143.896565 -306.529526 
L 143.88975 -305.089701 
L 143.882061 -303.649875 
L 143.873539 -302.21005 
L 143.864225 -300.770225 
L 143.854157 -299.3304 
L 143.843376 -297.890575 
L 143.831922 -296.45075 
L 143.819832 -295.010925 
L 143.807145 -293.571099 
L 143.7939 -292.131274 
L 143.780134 -290.691449 
L 143.765882 -289.251624 
L 143.751182 -287.811799 
L 143.736068 -286.371974 
L 143.720575 -284.932148 
L 143.704736 -283.492323 
L 143.688585 -282.052498 
L 143.672153 -280.612673 
L 143.655472 -279.172848 
L 143.638572 -277.733023 
L 143.621481 -276.293197 
L 143.604229 -274.853372 
L 143.586841 -273.413547 
L 143.569344 -271.973722 
L 143.551763 -270.533897 
L 143.534119 -269.094072 
L 143.516435 -267.654247 
L 143.498731 -266.214421 
L 143.481026 -264.774596 
L 143.463336 -263.334771 
L 143.445676 -261.894946 
L 143.42806 -260.455121 
L 143.4105 -259.015296 
L 143.393004 -257.57547 
L 143.375581 -256.135645 
L 143.358237 -254.69582 
L 143.340975 -253.255995 
L 143.323797 -251.81617 
L 143.306704 -250.376345 
L 143.289693 -248.936519 
L 143.272761 -247.496694 
L 143.255902 -246.056869 
L 143.23911 -244.617044 
L 143.222376 -243.177219 
L 143.205689 -241.737394 
L 143.18904 -240.297569 
L 143.172415 -238.857743 
L 143.1558 -237.417918 
L 143.139184 -235.978093 
L 143.122549 -234.538268 
L 143.105882 -233.098443 
L 143.089168 -231.658618 
L 143.072392 -230.218792 
L 143.055538 -228.778967 
L 143.038592 -227.339142 
L 143.021541 -225.899317 
L 143.004373 -224.459492 
L 142.987075 -223.019667 
L 142.969638 -221.579841 
L 142.952052 -220.140016 
L 142.93431 -218.700191 
L 142.916408 -217.260366 
L 142.898342 -215.820541 
L 142.880109 -214.380716 
L 142.861712 -212.94089 
L 142.843152 -211.501065 
z
" id="m457f388ec6" style="stroke:#545454;stroke-width:2.5;"/>
    </defs>
    <g clip-path="url(#pbc983ff112)">
     <use style="fill:#d98b5f;stroke:#545454;stroke-width:2.5;" x="0" xlink:href="#m457f388ec6" y="503.420156"/>
    </g>
   </g>
   <g id="PolyCollection_5">
    <defs>
     <path d="M 188.006376 -211.501065 
L 165.032356 -211.501065 
L 165.446497 -213.89049 
L 166.601468 -216.279915 
L 168.264707 -218.66934 
L 170.134666 -221.058765 
L 171.928726 -223.44819 
L 173.448217 -225.837614 
L 174.602088 -228.227039 
L 175.39229 -230.616464 
L 175.878295 -233.005889 
L 176.140229 -235.395314 
L 176.253048 -237.784739 
L 176.274782 -240.174163 
L 176.245381 -242.563588 
L 176.190668 -244.953013 
L 176.127061 -247.342438 
L 176.064969 -249.731863 
L 176.010591 -252.121288 
L 175.966758 -254.510712 
L 175.933526 -256.900137 
L 175.908922 -259.289562 
L 175.889893 -261.678987 
L 175.873262 -264.068412 
L 175.856472 -266.457837 
L 175.837988 -268.847261 
L 175.817319 -271.236686 
L 175.794718 -273.626111 
L 175.770723 -276.015536 
L 175.74569 -278.404961 
L 175.719527 -280.794386 
L 175.691711 -283.18381 
L 175.661609 -285.573235 
L 175.628929 -287.96266 
L 175.594107 -290.352085 
L 175.558421 -292.74151 
L 175.523775 -295.130935 
L 175.492235 -297.520359 
L 175.465538 -299.909784 
L 175.444758 -302.299209 
L 175.430236 -304.688634 
L 175.421706 -307.078059 
L 175.418501 -309.467484 
L 175.419686 -311.856908 
L 175.424098 -314.246333 
L 175.43033 -316.635758 
L 175.436767 -319.025183 
L 175.441741 -321.414608 
L 175.443793 -323.804033 
L 175.441972 -326.193457 
L 175.436084 -328.582882 
L 175.426828 -330.972307 
L 175.415814 -333.361732 
L 175.405482 -335.751157 
L 175.398928 -338.140582 
L 175.399598 -340.530006 
L 175.410827 -342.919431 
L 175.435235 -345.308856 
L 175.474094 -347.698281 
L 175.526846 -350.087706 
L 175.590968 -352.477131 
L 175.662281 -354.866556 
L 175.735674 -357.25598 
L 175.806054 -359.645405 
L 175.869271 -362.03483 
L 175.922721 -364.424255 
L 175.9655 -366.81368 
L 175.998092 -369.203105 
L 176.021764 -371.592529 
L 176.037909 -373.981954 
L 176.047565 -376.371379 
L 176.051242 -378.760804 
L 176.049071 -381.150229 
L 176.041155 -383.539654 
L 176.027984 -385.929078 
L 176.010743 -388.318503 
L 175.991405 -390.707928 
L 175.972554 -393.097353 
L 175.956993 -395.486778 
L 175.947251 -397.876203 
L 175.94517 -400.265627 
L 175.951689 -402.655052 
L 175.96686 -405.044477 
L 175.99003 -407.433902 
L 176.020052 -409.823327 
L 176.055417 -412.212752 
L 176.094323 -414.602176 
L 176.134731 -416.991601 
L 176.174517 -419.381026 
L 176.211727 -421.770451 
L 176.244893 -424.159876 
L 176.273287 -426.549301 
L 176.297033 -428.938725 
L 176.317026 -431.32815 
L 176.334677 -433.717575 
L 176.351544 -436.107 
L 176.368936 -438.496425 
L 176.387587 -440.88585 
L 176.4075 -443.275274 
L 176.427997 -445.664699 
L 176.447973 -448.054124 
L 176.590758 -448.054124 
L 176.590758 -448.054124 
L 176.610734 -445.664699 
L 176.631232 -443.275274 
L 176.651144 -440.88585 
L 176.669795 -438.496425 
L 176.687188 -436.107 
L 176.704055 -433.717575 
L 176.721705 -431.32815 
L 176.741698 -428.938725 
L 176.765444 -426.549301 
L 176.793838 -424.159876 
L 176.827004 -421.770451 
L 176.864215 -419.381026 
L 176.904 -416.991601 
L 176.944409 -414.602176 
L 176.983315 -412.212752 
L 177.01868 -409.823327 
L 177.048701 -407.433902 
L 177.071872 -405.044477 
L 177.087043 -402.655052 
L 177.093561 -400.265627 
L 177.091481 -397.876203 
L 177.081739 -395.486778 
L 177.066177 -393.097353 
L 177.047326 -390.707928 
L 177.027988 -388.318503 
L 177.010747 -385.929078 
L 176.997576 -383.539654 
L 176.98966 -381.150229 
L 176.987489 -378.760804 
L 176.991167 -376.371379 
L 177.000822 -373.981954 
L 177.016967 -371.592529 
L 177.04064 -369.203105 
L 177.073232 -366.81368 
L 177.11601 -364.424255 
L 177.16946 -362.03483 
L 177.232677 -359.645405 
L 177.303058 -357.25598 
L 177.37645 -354.866556 
L 177.447763 -352.477131 
L 177.511886 -350.087706 
L 177.564638 -347.698281 
L 177.603496 -345.308856 
L 177.627904 -342.919431 
L 177.639133 -340.530006 
L 177.639804 -338.140582 
L 177.63325 -335.751157 
L 177.622918 -333.361732 
L 177.611903 -330.972307 
L 177.602647 -328.582882 
L 177.596759 -326.193457 
L 177.594939 -323.804033 
L 177.59699 -321.414608 
L 177.601964 -319.025183 
L 177.608401 -316.635758 
L 177.614633 -314.246333 
L 177.619045 -311.856908 
L 177.620231 -309.467484 
L 177.617025 -307.078059 
L 177.608496 -304.688634 
L 177.593973 -302.299209 
L 177.573194 -299.909784 
L 177.546496 -297.520359 
L 177.514956 -295.130935 
L 177.48031 -292.74151 
L 177.444625 -290.352085 
L 177.409803 -287.96266 
L 177.377122 -285.573235 
L 177.34702 -283.18381 
L 177.319205 -280.794386 
L 177.293041 -278.404961 
L 177.268008 -276.015536 
L 177.244013 -273.626111 
L 177.221413 -271.236686 
L 177.200743 -268.847261 
L 177.18226 -266.457837 
L 177.165469 -264.068412 
L 177.148838 -261.678987 
L 177.12981 -259.289562 
L 177.105206 -256.900137 
L 177.071973 -254.510712 
L 177.02814 -252.121288 
L 176.973763 -249.731863 
L 176.91167 -247.342438 
L 176.848063 -244.953013 
L 176.79335 -242.563588 
L 176.763949 -240.174163 
L 176.785683 -237.784739 
L 176.898502 -235.395314 
L 177.160436 -233.005889 
L 177.646441 -230.616464 
L 178.436643 -228.227039 
L 179.590514 -225.837614 
L 181.110005 -223.44819 
L 182.904065 -221.058765 
L 184.774024 -218.66934 
L 186.437264 -216.279915 
L 187.592234 -213.89049 
L 188.006376 -211.501065 
z
" id="m8323041e19" style="stroke:#545454;stroke-width:2.5;"/>
    </defs>
    <g clip-path="url(#pbc983ff112)">
     <use style="fill:#597dbf;stroke:#545454;stroke-width:2.5;" x="0" xlink:href="#m8323041e19" y="503.420156"/>
    </g>
   </g>
   <g id="PolyCollection_6">
    <defs>
     <path d="M 200.275601 -211.501065 
L 198.71117 -211.501065 
L 198.692181 -213.622578 
L 198.673367 -215.74409 
L 198.654731 -217.865602 
L 198.636277 -219.987115 
L 198.618004 -222.108627 
L 198.59991 -224.23014 
L 198.581991 -226.351652 
L 198.564241 -228.473164 
L 198.546651 -230.594677 
L 198.529212 -232.716189 
L 198.511913 -234.837701 
L 198.494742 -236.959214 
L 198.477684 -239.080726 
L 198.460726 -241.202238 
L 198.443852 -243.323751 
L 198.427047 -245.445263 
L 198.410297 -247.566776 
L 198.393585 -249.688288 
L 198.376897 -251.8098 
L 198.360218 -253.931313 
L 198.343534 -256.052825 
L 198.326834 -258.174337 
L 198.310105 -260.29585 
L 198.293337 -262.417362 
L 198.276522 -264.538874 
L 198.259653 -266.660387 
L 198.242724 -268.781899 
L 198.225733 -270.903412 
L 198.208678 -273.024924 
L 198.191559 -275.146436 
L 198.17438 -277.267949 
L 198.157146 -279.389461 
L 198.139863 -281.510973 
L 198.122542 -283.632486 
L 198.105193 -285.753998 
L 198.08783 -287.87551 
L 198.07047 -289.997023 
L 198.053128 -292.118535 
L 198.035826 -294.240048 
L 198.018584 -296.36156 
L 198.001427 -298.483072 
L 197.984378 -300.604585 
L 197.967466 -302.726097 
L 197.950717 -304.847609 
L 197.934162 -306.969122 
L 197.917831 -309.090634 
L 197.901758 -311.212146 
L 197.885975 -313.333659 
L 197.870517 -315.455171 
L 197.85542 -317.576684 
L 197.840721 -319.698196 
L 197.826455 -321.819708 
L 197.812662 -323.941221 
L 197.799381 -326.062733 
L 197.78665 -328.184245 
L 197.77451 -330.305758 
L 197.763001 -332.42727 
L 197.752162 -334.548782 
L 197.742036 -336.670295 
L 197.732663 -338.791807 
L 197.724083 -340.91332 
L 197.716337 -343.034832 
L 197.709467 -345.156344 
L 197.703511 -347.277857 
L 197.698509 -349.399369 
L 197.694501 -351.520881 
L 197.691523 -353.642394 
L 197.689612 -355.763906 
L 197.688805 -357.885419 
L 197.689134 -360.006931 
L 197.690633 -362.128443 
L 197.69333 -364.249956 
L 197.697254 -366.371468 
L 197.702431 -368.49298 
L 197.708883 -370.614493 
L 197.716631 -372.736005 
L 197.72569 -374.857517 
L 197.736074 -376.97903 
L 197.747792 -379.100542 
L 197.760851 -381.222055 
L 197.775252 -383.343567 
L 197.790993 -385.465079 
L 197.808066 -387.586592 
L 197.826461 -389.708104 
L 197.846161 -391.829616 
L 197.867145 -393.951129 
L 197.889388 -396.072641 
L 197.912861 -398.194153 
L 197.937528 -400.315666 
L 197.963349 -402.437178 
L 197.990281 -404.558691 
L 198.018275 -406.680203 
L 198.047279 -408.801715 
L 198.077236 -410.923228 
L 198.108086 -413.04474 
L 198.139763 -415.166252 
L 198.172202 -417.287765 
L 198.205333 -419.409277 
L 198.239081 -421.530789 
L 200.74769 -421.530789 
L 200.74769 -421.530789 
L 200.781439 -419.409277 
L 200.814569 -417.287765 
L 200.847008 -415.166252 
L 200.878686 -413.04474 
L 200.909535 -410.923228 
L 200.939492 -408.801715 
L 200.968496 -406.680203 
L 200.996491 -404.558691 
L 201.023423 -402.437178 
L 201.049244 -400.315666 
L 201.073911 -398.194153 
L 201.097383 -396.072641 
L 201.119627 -393.951129 
L 201.140611 -391.829616 
L 201.160311 -389.708104 
L 201.178705 -387.586592 
L 201.195779 -385.465079 
L 201.211519 -383.343567 
L 201.22592 -381.222055 
L 201.238979 -379.100542 
L 201.250698 -376.97903 
L 201.261082 -374.857517 
L 201.270141 -372.736005 
L 201.277888 -370.614493 
L 201.28434 -368.49298 
L 201.289517 -366.371468 
L 201.293442 -364.249956 
L 201.296139 -362.128443 
L 201.297637 -360.006931 
L 201.297967 -357.885419 
L 201.297159 -355.763906 
L 201.295249 -353.642394 
L 201.292271 -351.520881 
L 201.288262 -349.399369 
L 201.283261 -347.277857 
L 201.277305 -345.156344 
L 201.270434 -343.034832 
L 201.262689 -340.91332 
L 201.254109 -338.791807 
L 201.244735 -336.670295 
L 201.234609 -334.548782 
L 201.223771 -332.42727 
L 201.212261 -330.305758 
L 201.200121 -328.184245 
L 201.187391 -326.062733 
L 201.174109 -323.941221 
L 201.160316 -321.819708 
L 201.146051 -319.698196 
L 201.131351 -317.576684 
L 201.116254 -315.455171 
L 201.100796 -313.333659 
L 201.085014 -311.212146 
L 201.06894 -309.090634 
L 201.05261 -306.969122 
L 201.036055 -304.847609 
L 201.019306 -302.726097 
L 201.002393 -300.604585 
L 200.985345 -298.483072 
L 200.968187 -296.36156 
L 200.950946 -294.240048 
L 200.933643 -292.118535 
L 200.916302 -289.997023 
L 200.898941 -287.87551 
L 200.881579 -285.753998 
L 200.86423 -283.632486 
L 200.846908 -281.510973 
L 200.829626 -279.389461 
L 200.812392 -277.267949 
L 200.795213 -275.146436 
L 200.778094 -273.024924 
L 200.761039 -270.903412 
L 200.744048 -268.781899 
L 200.727119 -266.660387 
L 200.71025 -264.538874 
L 200.693435 -262.417362 
L 200.676667 -260.29585 
L 200.659938 -258.174337 
L 200.643238 -256.052825 
L 200.626554 -253.931313 
L 200.609875 -251.8098 
L 200.593187 -249.688288 
L 200.576475 -247.566776 
L 200.559724 -245.445263 
L 200.54292 -243.323751 
L 200.526046 -241.202238 
L 200.509088 -239.080726 
L 200.49203 -236.959214 
L 200.474858 -234.837701 
L 200.457559 -232.716189 
L 200.440121 -230.594677 
L 200.422531 -228.473164 
L 200.404781 -226.351652 
L 200.386862 -224.23014 
L 200.368768 -222.108627 
L 200.350495 -219.987115 
L 200.332041 -217.865602 
L 200.313405 -215.74409 
L 200.29459 -213.622578 
L 200.275601 -211.501065 
z
" id="m641ba230e3" style="stroke:#545454;stroke-width:2.5;"/>
    </defs>
    <g clip-path="url(#pbc983ff112)">
     <use style="fill:#d98b5f;stroke:#545454;stroke-width:2.5;" x="0" xlink:href="#m641ba230e3" y="503.420156"/>
    </g>
   </g>
   <g id="PolyCollection_7">
    <defs>
     <path d="M 245.441426 -211.501065 
L 222.467406 -211.501065 
L 222.866587 -213.046878 
L 223.98283 -214.592691 
L 225.598807 -216.138503 
L 227.430026 -217.684316 
L 229.205421 -219.230128 
L 230.728802 -220.775941 
L 231.903713 -222.321754 
L 232.72302 -223.867566 
L 233.237818 -225.413379 
L 233.523134 -226.959192 
L 233.652436 -228.505004 
L 233.684743 -230.050817 
L 233.661974 -231.596629 
L 233.611781 -233.142442 
L 233.551795 -234.688255 
L 233.493027 -236.234067 
L 233.441919 -237.77988 
L 233.401424 -239.325693 
L 233.371708 -240.871505 
L 233.350868 -242.417318 
L 233.335774 -243.96313 
L 233.322959 -245.508943 
L 233.30939 -247.054756 
L 233.293003 -248.600568 
L 233.27292 -250.146381 
L 233.249336 -251.692194 
L 233.223148 -253.238006 
L 233.195453 -254.783819 
L 233.167094 -256.329631 
L 233.138414 -257.875444 
L 233.109281 -259.421257 
L 233.079354 -260.967069 
L 233.048429 -262.512882 
L 233.016729 -264.058695 
L 232.985008 -265.604507 
L 232.954472 -267.15032 
L 232.926566 -268.696132 
L 232.902719 -270.241945 
L 232.884132 -271.787758 
L 232.871611 -273.33357 
L 232.865469 -274.879383 
L 232.865429 -276.425196 
L 232.870544 -277.971008 
L 232.879119 -279.516821 
L 232.888689 -281.062633 
L 232.896139 -282.608446 
L 232.898023 -284.154259 
L 232.891156 -285.700071 
L 232.873412 -287.245884 
L 232.844606 -288.791697 
L 232.807181 -290.337509 
L 232.766428 -291.883322 
L 232.730005 -293.429134 
L 232.706689 -294.974947 
L 232.704585 -296.52076 
L 232.729219 -298.066572 
L 232.782085 -299.612385 
L 232.860116 -301.158198 
L 232.956267 -302.70401 
L 233.061035 -304.249823 
L 233.164446 -305.795635 
L 233.257913 -307.341448 
L 233.335527 -308.887261 
L 233.394542 -310.433073 
L 233.435127 -311.978886 
L 233.459615 -313.524699 
L 233.471527 -315.070511 
L 233.47463 -316.616324 
L 233.472185 -318.162136 
L 233.466473 -319.707949 
L 233.458648 -321.253762 
L 233.4489 -322.799574 
L 233.436871 -324.345387 
L 233.422209 -325.8912 
L 233.405085 -327.437012 
L 233.386516 -328.982825 
L 233.368376 -330.528637 
L 233.353102 -332.07445 
L 233.343228 -333.620263 
L 233.3409 -335.166075 
L 233.347539 -336.711888 
L 233.36368 -338.257701 
L 233.388962 -339.803513 
L 233.422189 -341.349326 
L 233.461442 -342.895138 
L 233.504262 -344.440951 
L 233.547943 -345.986764 
L 233.589915 -347.532576 
L 233.628159 -349.078389 
L 233.661517 -350.624202 
L 233.689829 -352.170014 
L 233.713852 -353.715827 
L 233.734978 -355.261639 
L 233.754839 -356.807452 
L 233.774884 -358.353265 
L 233.796024 -359.899077 
L 233.818446 -361.44489 
L 233.84162 -362.990703 
L 233.864505 -364.536515 
L 234.044326 -364.536515 
L 234.044326 -364.536515 
L 234.067212 -362.990703 
L 234.090386 -361.44489 
L 234.112808 -359.899077 
L 234.133948 -358.353265 
L 234.153993 -356.807452 
L 234.173854 -355.261639 
L 234.19498 -353.715827 
L 234.219002 -352.170014 
L 234.247315 -350.624202 
L 234.280673 -349.078389 
L 234.318917 -347.532576 
L 234.360889 -345.986764 
L 234.40457 -344.440951 
L 234.44739 -342.895138 
L 234.486643 -341.349326 
L 234.51987 -339.803513 
L 234.545152 -338.257701 
L 234.561293 -336.711888 
L 234.567932 -335.166075 
L 234.565604 -333.620263 
L 234.55573 -332.07445 
L 234.540456 -330.528637 
L 234.522316 -328.982825 
L 234.503747 -327.437012 
L 234.486623 -325.8912 
L 234.471961 -324.345387 
L 234.459932 -322.799574 
L 234.450184 -321.253762 
L 234.442359 -319.707949 
L 234.436647 -318.162136 
L 234.434202 -316.616324 
L 234.437305 -315.070511 
L 234.449217 -313.524699 
L 234.473705 -311.978886 
L 234.51429 -310.433073 
L 234.573305 -308.887261 
L 234.650919 -307.341448 
L 234.744386 -305.795635 
L 234.847797 -304.249823 
L 234.952565 -302.70401 
L 235.048716 -301.158198 
L 235.126747 -299.612385 
L 235.179613 -298.066572 
L 235.204247 -296.52076 
L 235.202143 -294.974947 
L 235.178827 -293.429134 
L 235.142404 -291.883322 
L 235.101651 -290.337509 
L 235.064226 -288.791697 
L 235.03542 -287.245884 
L 235.017676 -285.700071 
L 235.010809 -284.154259 
L 235.012693 -282.608446 
L 235.020143 -281.062633 
L 235.029713 -279.516821 
L 235.038288 -277.971008 
L 235.043403 -276.425196 
L 235.043363 -274.879383 
L 235.037221 -273.33357 
L 235.0247 -271.787758 
L 235.006112 -270.241945 
L 234.982266 -268.696132 
L 234.95436 -267.15032 
L 234.923824 -265.604507 
L 234.892103 -264.058695 
L 234.860403 -262.512882 
L 234.829478 -260.967069 
L 234.799551 -259.421257 
L 234.770418 -257.875444 
L 234.741738 -256.329631 
L 234.713379 -254.783819 
L 234.685684 -253.238006 
L 234.659496 -251.692194 
L 234.635912 -250.146381 
L 234.615829 -248.600568 
L 234.599442 -247.054756 
L 234.585873 -245.508943 
L 234.573058 -243.96313 
L 234.557964 -242.417318 
L 234.537124 -240.871505 
L 234.507408 -239.325693 
L 234.466913 -237.77988 
L 234.415805 -236.234067 
L 234.357037 -234.688255 
L 234.297051 -233.142442 
L 234.246858 -231.596629 
L 234.224089 -230.050817 
L 234.256396 -228.505004 
L 234.385698 -226.959192 
L 234.671014 -225.413379 
L 235.185812 -223.867566 
L 236.005119 -222.321754 
L 237.18003 -220.775941 
L 238.703411 -219.230128 
L 240.478806 -217.684316 
L 242.310025 -216.138503 
L 243.926002 -214.592691 
L 245.042245 -213.046878 
L 245.441426 -211.501065 
z
" id="m687a6fa668" style="stroke:#545454;stroke-width:2.5;"/>
    </defs>
    <g clip-path="url(#pbc983ff112)">
     <use style="fill:#597dbf;stroke:#545454;stroke-width:2.5;" x="0" xlink:href="#m687a6fa668" y="503.420156"/>
    </g>
   </g>
   <g id="PolyCollection_8">
    <defs>
     <path d="M 257.71046 -211.501065 
L 256.146412 -211.501065 
L 256.127452 -212.894718 
L 256.108662 -214.28837 
L 256.090046 -215.682022 
L 256.071606 -217.075675 
L 256.053341 -218.469327 
L 256.035249 -219.862979 
L 256.017327 -221.256631 
L 255.999567 -222.650284 
L 255.981962 -224.043936 
L 255.964502 -225.437588 
L 255.947175 -226.831241 
L 255.929971 -228.224893 
L 255.912875 -229.618545 
L 255.895873 -231.012198 
L 255.878951 -232.40585 
L 255.862095 -233.799502 
L 255.845288 -235.193154 
L 255.828517 -236.586807 
L 255.811767 -237.980459 
L 255.795024 -239.374111 
L 255.778275 -240.767764 
L 255.761507 -242.161416 
L 255.74471 -243.555068 
L 255.727875 -244.948721 
L 255.710992 -246.342373 
L 255.694055 -247.736025 
L 255.677059 -249.129677 
L 255.660001 -250.52333 
L 255.642881 -251.916982 
L 255.625697 -253.310634 
L 255.608454 -254.704287 
L 255.591156 -256.097939 
L 255.573809 -257.491591 
L 255.556423 -258.885243 
L 255.539008 -260.278896 
L 255.521577 -261.672548 
L 255.504145 -263.0662 
L 255.486728 -264.459853 
L 255.469345 -265.853505 
L 255.452017 -267.247157 
L 255.434764 -268.64081 
L 255.417611 -270.034462 
L 255.400582 -271.428114 
L 255.383706 -272.821766 
L 255.367009 -274.215419 
L 255.350521 -275.609071 
L 255.334273 -277.002723 
L 255.318297 -278.396376 
L 255.302626 -279.790028 
L 255.287294 -281.18368 
L 255.272336 -282.577333 
L 255.25779 -283.970985 
L 255.243691 -285.364637 
L 255.230077 -286.758289 
L 255.216988 -288.151942 
L 255.204463 -289.545594 
L 255.192542 -290.939246 
L 255.181265 -292.332899 
L 255.170674 -293.726551 
L 255.160809 -295.120203 
L 255.151714 -296.513856 
L 255.143429 -297.907508 
L 255.135997 -299.30116 
L 255.129459 -300.694812 
L 255.123856 -302.088465 
L 255.11923 -303.482117 
L 255.115621 -304.875769 
L 255.113068 -306.269422 
L 255.11161 -307.663074 
L 255.111283 -309.056726 
L 255.112123 -310.450379 
L 255.114164 -311.844031 
L 255.117436 -313.237683 
L 255.121969 -314.631335 
L 255.127789 -316.024988 
L 255.134919 -317.41864 
L 255.143381 -318.812292 
L 255.153189 -320.205945 
L 255.164358 -321.599597 
L 255.176897 -322.993249 
L 255.190809 -324.386902 
L 255.206096 -325.780554 
L 255.222753 -327.174206 
L 255.240771 -328.567858 
L 255.260137 -329.961511 
L 255.280831 -331.355163 
L 255.30283 -332.748815 
L 255.326105 -334.142468 
L 255.350622 -335.53612 
L 255.376342 -336.929772 
L 255.403222 -338.323425 
L 255.431212 -339.717077 
L 255.460261 -341.110729 
L 255.49031 -342.504381 
L 255.521298 -343.898034 
L 255.55316 -345.291686 
L 255.585827 -346.685338 
L 255.619228 -348.078991 
L 255.653287 -349.472643 
L 258.203585 -349.472643 
L 258.203585 -349.472643 
L 258.237644 -348.078991 
L 258.271045 -346.685338 
L 258.303712 -345.291686 
L 258.335574 -343.898034 
L 258.366563 -342.504381 
L 258.396612 -341.110729 
L 258.42566 -339.717077 
L 258.453651 -338.323425 
L 258.48053 -336.929772 
L 258.50625 -335.53612 
L 258.530767 -334.142468 
L 258.554042 -332.748815 
L 258.576041 -331.355163 
L 258.596735 -329.961511 
L 258.616101 -328.567858 
L 258.634119 -327.174206 
L 258.650777 -325.780554 
L 258.666063 -324.386902 
L 258.679976 -322.993249 
L 258.692514 -321.599597 
L 258.703683 -320.205945 
L 258.713492 -318.812292 
L 258.721953 -317.41864 
L 258.729083 -316.024988 
L 258.734903 -314.631335 
L 258.739436 -313.237683 
L 258.742709 -311.844031 
L 258.744749 -310.450379 
L 258.745589 -309.056726 
L 258.745262 -307.663074 
L 258.743804 -306.269422 
L 258.741251 -304.875769 
L 258.737642 -303.482117 
L 258.733016 -302.088465 
L 258.727414 -300.694812 
L 258.720875 -299.30116 
L 258.713443 -297.907508 
L 258.705158 -296.513856 
L 258.696063 -295.120203 
L 258.686199 -293.726551 
L 258.675607 -292.332899 
L 258.664331 -290.939246 
L 258.652409 -289.545594 
L 258.639884 -288.151942 
L 258.626795 -286.758289 
L 258.613182 -285.364637 
L 258.599083 -283.970985 
L 258.584536 -282.577333 
L 258.569578 -281.18368 
L 258.554246 -279.790028 
L 258.538575 -278.396376 
L 258.522599 -277.002723 
L 258.506351 -275.609071 
L 258.489863 -274.215419 
L 258.473166 -272.821766 
L 258.45629 -271.428114 
L 258.439262 -270.034462 
L 258.422108 -268.64081 
L 258.404856 -267.247157 
L 258.387527 -265.853505 
L 258.370144 -264.459853 
L 258.352727 -263.0662 
L 258.335295 -261.672548 
L 258.317864 -260.278896 
L 258.300449 -258.885243 
L 258.283063 -257.491591 
L 258.265716 -256.097939 
L 258.248418 -254.704287 
L 258.231175 -253.310634 
L 258.213992 -251.916982 
L 258.196871 -250.52333 
L 258.179813 -249.129677 
L 258.162817 -247.736025 
L 258.145881 -246.342373 
L 258.128998 -244.948721 
L 258.112162 -243.555068 
L 258.095365 -242.161416 
L 258.078598 -240.767764 
L 258.061848 -239.374111 
L 258.045105 -237.980459 
L 258.028355 -236.586807 
L 258.011584 -235.193154 
L 257.994778 -233.799502 
L 257.977921 -232.40585 
L 257.960999 -231.012198 
L 257.943998 -229.618545 
L 257.926902 -228.224893 
L 257.909697 -226.831241 
L 257.892371 -225.437588 
L 257.87491 -224.043936 
L 257.857305 -222.650284 
L 257.839545 -221.256631 
L 257.821623 -219.862979 
L 257.803531 -218.469327 
L 257.785267 -217.075675 
L 257.766826 -215.682022 
L 257.74821 -214.28837 
L 257.72942 -212.894718 
L 257.71046 -211.501065 
z
" id="m5d158d9ed8" style="stroke:#545454;stroke-width:2.5;"/>
    </defs>
    <g clip-path="url(#pbc983ff112)">
     <use style="fill:#d98b5f;stroke:#545454;stroke-width:2.5;" x="0" xlink:href="#m5d158d9ed8" y="503.420156"/>
    </g>
   </g>
   <g id="PolyCollection_9">
    <defs>
     <path d="M 302.876476 -211.501065 
L 279.902456 -211.501065 
L 280.279979 -212.248459 
L 281.339782 -212.995853 
L 282.885813 -213.743247 
L 284.657881 -214.490641 
L 286.402197 -215.238035 
L 287.927477 -215.985428 
L 289.130831 -216.732822 
L 289.992715 -217.480216 
L 290.551946 -218.22761 
L 290.875345 -218.975004 
L 291.03319 -219.722398 
L 291.085068 -220.469791 
L 291.075207 -221.217185 
L 291.033662 -221.964579 
L 290.979722 -222.711973 
L 290.925235 -223.459367 
L 290.876987 -224.206761 
L 290.83818 -224.954154 
L 290.809388 -225.701548 
L 290.789311 -226.448942 
L 290.775476 -227.196336 
L 290.764896 -227.94373 
L 290.754655 -228.691124 
L 290.742348 -229.438517 
L 290.726358 -230.185911 
L 290.705944 -230.933305 
L 290.681148 -231.680699 
L 290.652588 -232.428093 
L 290.621205 -233.175487 
L 290.588038 -233.922881 
L 290.554088 -234.670274 
L 290.520282 -235.417668 
L 290.48747 -236.165062 
L 290.456426 -236.912456 
L 290.427803 -237.65985 
L 290.402054 -238.407244 
L 290.379362 -239.154637 
L 290.359647 -239.902031 
L 290.342658 -240.649425 
L 290.328116 -241.396819 
L 290.315832 -242.144213 
L 290.305683 -242.891607 
L 290.297432 -243.639 
L 290.290454 -244.386394 
L 290.283516 -245.133788 
L 290.274785 -245.881182 
L 290.262164 -246.628576 
L 290.243933 -247.37597 
L 290.219549 -248.123363 
L 290.19035 -248.870757 
L 290.159908 -249.618151 
L 290.133823 -250.365545 
L 290.118868 -251.112939 
L 290.121608 -251.860333 
L 290.146809 -252.607726 
L 290.196101 -253.35512 
L 290.267338 -254.102514 
L 290.354905 -254.849908 
L 290.450885 -255.597302 
L 290.546737 -256.344696 
L 290.634956 -257.09209 
L 290.71027 -257.839483 
L 290.770112 -258.586877 
L 290.814412 -259.334271 
L 290.84491 -260.081665 
L 290.864317 -260.829059 
L 290.875547 -261.576453 
L 290.881189 -262.323846 
L 290.883205 -263.07124 
L 290.882838 -263.818634 
L 290.880655 -264.566028 
L 290.87669 -265.313422 
L 290.870666 -266.060816 
L 290.862237 -266.808209 
L 290.85121 -267.555603 
L 290.837647 -268.302997 
L 290.821843 -269.050391 
L 290.804209 -269.797785 
L 290.785183 -270.545179 
L 290.765294 -271.292572 
L 290.745414 -272.039966 
L 290.727108 -272.78736 
L 290.712856 -273.534754 
L 290.705923 -274.282148 
L 290.70977 -275.029542 
L 290.727131 -275.776935 
L 290.759073 -276.524329 
L 290.804439 -277.271723 
L 290.859945 -278.019117 
L 290.920918 -278.766511 
L 290.982422 -279.513905 
L 291.040366 -280.261299 
L 291.09222 -281.008692 
L 291.137176 -281.756086 
L 291.175799 -282.50348 
L 291.209384 -283.250874 
L 291.239295 -283.998268 
L 291.266491 -284.745662 
L 291.291347 -285.493055 
L 291.487586 -285.493055 
L 291.487586 -285.493055 
L 291.512441 -284.745662 
L 291.539638 -283.998268 
L 291.569548 -283.250874 
L 291.603133 -282.50348 
L 291.641756 -281.756086 
L 291.686712 -281.008692 
L 291.738566 -280.261299 
L 291.79651 -279.513905 
L 291.858015 -278.766511 
L 291.918988 -278.019117 
L 291.974494 -277.271723 
L 292.01986 -276.524329 
L 292.051801 -275.776935 
L 292.069162 -275.029542 
L 292.07301 -274.282148 
L 292.066077 -273.534754 
L 292.051824 -272.78736 
L 292.033518 -272.039966 
L 292.013639 -271.292572 
L 291.99375 -270.545179 
L 291.974724 -269.797785 
L 291.957089 -269.050391 
L 291.941286 -268.302997 
L 291.927723 -267.555603 
L 291.916696 -266.808209 
L 291.908267 -266.060816 
L 291.902242 -265.313422 
L 291.898278 -264.566028 
L 291.896095 -263.818634 
L 291.895728 -263.07124 
L 291.897743 -262.323846 
L 291.903385 -261.576453 
L 291.914616 -260.829059 
L 291.934022 -260.081665 
L 291.964521 -259.334271 
L 292.00882 -258.586877 
L 292.068663 -257.839483 
L 292.143976 -257.09209 
L 292.232196 -256.344696 
L 292.328048 -255.597302 
L 292.424028 -254.849908 
L 292.511595 -254.102514 
L 292.582832 -253.35512 
L 292.632123 -252.607726 
L 292.657324 -251.860333 
L 292.660065 -251.112939 
L 292.64511 -250.365545 
L 292.619025 -249.618151 
L 292.588583 -248.870757 
L 292.559384 -248.123363 
L 292.535 -247.37597 
L 292.516769 -246.628576 
L 292.504147 -245.881182 
L 292.495416 -245.133788 
L 292.488479 -244.386394 
L 292.481501 -243.639 
L 292.47325 -242.891607 
L 292.4631 -242.144213 
L 292.450816 -241.396819 
L 292.436275 -240.649425 
L 292.419285 -239.902031 
L 292.39957 -239.154637 
L 292.376879 -238.407244 
L 292.351129 -237.65985 
L 292.322507 -236.912456 
L 292.291463 -236.165062 
L 292.25865 -235.417668 
L 292.224844 -234.670274 
L 292.190895 -233.922881 
L 292.157727 -233.175487 
L 292.126344 -232.428093 
L 292.097785 -231.680699 
L 292.072988 -230.933305 
L 292.052574 -230.185911 
L 292.036585 -229.438517 
L 292.024278 -228.691124 
L 292.014036 -227.94373 
L 292.003456 -227.196336 
L 291.989621 -226.448942 
L 291.969545 -225.701548 
L 291.940753 -224.954154 
L 291.901945 -224.206761 
L 291.853697 -223.459367 
L 291.799211 -222.711973 
L 291.74527 -221.964579 
L 291.703725 -221.217185 
L 291.693865 -220.469791 
L 291.745743 -219.722398 
L 291.903587 -218.975004 
L 292.226986 -218.22761 
L 292.786217 -217.480216 
L 293.648102 -216.732822 
L 294.851455 -215.985428 
L 296.376736 -215.238035 
L 298.121051 -214.490641 
L 299.89312 -213.743247 
L 301.43915 -212.995853 
L 302.498954 -212.248459 
L 302.876476 -211.501065 
z
" id="ma2983784d0" style="stroke:#545454;stroke-width:2.5;"/>
    </defs>
    <g clip-path="url(#pbc983ff112)">
     <use style="fill:#597dbf;stroke:#545454;stroke-width:2.5;" x="0" xlink:href="#ma2983784d0" y="503.420156"/>
    </g>
   </g>
   <g id="PolyCollection_10">
    <defs>
     <path d="M 315.150284 -211.501065 
L 313.576689 -211.501065 
L 313.558078 -212.177271 
L 313.539641 -212.853477 
L 313.521383 -213.529682 
L 313.503304 -214.205888 
L 313.485405 -214.882093 
L 313.467683 -215.558299 
L 313.450135 -216.234505 
L 313.432754 -216.91071 
L 313.415532 -217.586916 
L 313.398461 -218.263122 
L 313.381529 -218.939327 
L 313.364724 -219.615533 
L 313.348035 -220.291739 
L 313.331446 -220.967944 
L 313.314944 -221.64415 
L 313.298515 -222.320355 
L 313.282143 -222.996561 
L 313.265813 -223.672767 
L 313.249513 -224.348972 
L 313.233226 -225.025178 
L 313.216941 -225.701384 
L 313.200645 -226.377589 
L 313.184325 -227.053795 
L 313.167973 -227.73 
L 313.151578 -228.406206 
L 313.135133 -229.082412 
L 313.118633 -229.758617 
L 313.102072 -230.434823 
L 313.085447 -231.111029 
L 313.068758 -231.787234 
L 313.052005 -232.46344 
L 313.035191 -233.139645 
L 313.01832 -233.815851 
L 313.001399 -234.492057 
L 312.984434 -235.168262 
L 312.967435 -235.844468 
L 312.950415 -236.520674 
L 312.933386 -237.196879 
L 312.916362 -237.873085 
L 312.899361 -238.549291 
L 312.882398 -239.225496 
L 312.865494 -239.901702 
L 312.84867 -240.577907 
L 312.831945 -241.254113 
L 312.815345 -241.930319 
L 312.798892 -242.606524 
L 312.782612 -243.28273 
L 312.766532 -243.958936 
L 312.750679 -244.635141 
L 312.735081 -245.311347 
L 312.719769 -245.987552 
L 312.704771 -246.663758 
L 312.69012 -247.339964 
L 312.675849 -248.016169 
L 312.66199 -248.692375 
L 312.648577 -249.368581 
L 312.635646 -250.044786 
L 312.623234 -250.720992 
L 312.611376 -251.397197 
L 312.600111 -252.073403 
L 312.589477 -252.749609 
L 312.579514 -253.425814 
L 312.570262 -254.10202 
L 312.561762 -254.778226 
L 312.554054 -255.454431 
L 312.547181 -256.130637 
L 312.541185 -256.806843 
L 312.536107 -257.483048 
L 312.531991 -258.159254 
L 312.528876 -258.835459 
L 312.526805 -259.511665 
L 312.525818 -260.187871 
L 312.525954 -260.864076 
L 312.527253 -261.540282 
L 312.529749 -262.216488 
L 312.533477 -262.892693 
L 312.538471 -263.568899 
L 312.54476 -264.245104 
L 312.55237 -264.92131 
L 312.561326 -265.597516 
L 312.571646 -266.273721 
L 312.583348 -266.949927 
L 312.596444 -267.626133 
L 312.610941 -268.302338 
L 312.626842 -268.978544 
L 312.644144 -269.65475 
L 312.662841 -270.330955 
L 312.68292 -271.007161 
L 312.704363 -271.683366 
L 312.727146 -272.359572 
L 312.751241 -273.035778 
L 312.776613 -273.711983 
L 312.803222 -274.388189 
L 312.831023 -275.064395 
L 312.859964 -275.7406 
L 312.889991 -276.416806 
L 312.921043 -277.093011 
L 312.953054 -277.769217 
L 312.985955 -278.445423 
L 315.741017 -278.445423 
L 315.741017 -278.445423 
L 315.773919 -277.769217 
L 315.80593 -277.093011 
L 315.836982 -276.416806 
L 315.867008 -275.7406 
L 315.89595 -275.064395 
L 315.923751 -274.388189 
L 315.95036 -273.711983 
L 315.975732 -273.035778 
L 315.999827 -272.359572 
L 316.02261 -271.683366 
L 316.044053 -271.007161 
L 316.064132 -270.330955 
L 316.082829 -269.65475 
L 316.100131 -268.978544 
L 316.116032 -268.302338 
L 316.130529 -267.626133 
L 316.143624 -266.949927 
L 316.155327 -266.273721 
L 316.165647 -265.597516 
L 316.174603 -264.92131 
L 316.182213 -264.245104 
L 316.188502 -263.568899 
L 316.193495 -262.892693 
L 316.197224 -262.216488 
L 316.19972 -261.540282 
L 316.201018 -260.864076 
L 316.201155 -260.187871 
L 316.200168 -259.511665 
L 316.198097 -258.835459 
L 316.194982 -258.159254 
L 316.190865 -257.483048 
L 316.185788 -256.806843 
L 316.179792 -256.130637 
L 316.172919 -255.454431 
L 316.165211 -254.778226 
L 316.156711 -254.10202 
L 316.147459 -253.425814 
L 316.137496 -252.749609 
L 316.126862 -252.073403 
L 316.115597 -251.397197 
L 316.103739 -250.720992 
L 316.091326 -250.044786 
L 316.078396 -249.368581 
L 316.064983 -248.692375 
L 316.051124 -248.016169 
L 316.036852 -247.339964 
L 316.022202 -246.663758 
L 316.007204 -245.987552 
L 315.991891 -245.311347 
L 315.976294 -244.635141 
L 315.96044 -243.958936 
L 315.94436 -243.28273 
L 315.928081 -242.606524 
L 315.911628 -241.930319 
L 315.895027 -241.254113 
L 315.878303 -240.577907 
L 315.861478 -239.901702 
L 315.844575 -239.225496 
L 315.827612 -238.549291 
L 315.81061 -237.873085 
L 315.793587 -237.196879 
L 315.776558 -236.520674 
L 315.759537 -235.844468 
L 315.742539 -235.168262 
L 315.725574 -234.492057 
L 315.708652 -233.815851 
L 315.691781 -233.139645 
L 315.674967 -232.46344 
L 315.658215 -231.787234 
L 315.641526 -231.111029 
L 315.624901 -230.434823 
L 315.60834 -229.758617 
L 315.591839 -229.082412 
L 315.575395 -228.406206 
L 315.559 -227.73 
L 315.542647 -227.053795 
L 315.526328 -226.377589 
L 315.510032 -225.701384 
L 315.493746 -225.025178 
L 315.47746 -224.348972 
L 315.461159 -223.672767 
L 315.44483 -222.996561 
L 315.428458 -222.320355 
L 315.412029 -221.64415 
L 315.395527 -220.967944 
L 315.378938 -220.291739 
L 315.362249 -219.615533 
L 315.345444 -218.939327 
L 315.328512 -218.263122 
L 315.311441 -217.586916 
L 315.294219 -216.91071 
L 315.276838 -216.234505 
L 315.25929 -215.558299 
L 315.241568 -214.882093 
L 315.223669 -214.205888 
L 315.20559 -213.529682 
L 315.187331 -212.853477 
L 315.168894 -212.177271 
L 315.150284 -211.501065 
z
" id="m86aef54b24" style="stroke:#545454;stroke-width:2.5;"/>
    </defs>
    <g clip-path="url(#pbc983ff112)">
     <use style="fill:#d98b5f;stroke:#545454;stroke-width:2.5;" x="0" xlink:href="#m86aef54b24" y="503.420156"/>
    </g>
   </g>
   <g id="patch_3">
    <path clip-path="url(#pbc983ff112)" d="M 73.136275 291.919091 
L 73.136275 291.919091 
L 73.136275 291.919091 
L 73.136275 291.919091 
z
" style="fill:#597dbf;stroke:#545454;stroke-linejoin:miter;stroke-width:1.25;"/>
   </g>
   <g id="patch_4">
    <path clip-path="url(#pbc983ff112)" d="M 73.136275 291.919091 
L 73.136275 291.919091 
L 73.136275 291.919091 
L 73.136275 291.919091 
z
" style="fill:#d98b5f;stroke:#545454;stroke-linejoin:miter;stroke-width:1.25;"/>
   </g>
   <g id="line2d_1">
    <path clip-path="url(#pbc983ff112)" d="M 61.649265 291.919091 
L 61.649265 44.300909 
" style="fill:none;stroke:#545454;stroke-linecap:round;stroke-width:2.5;"/>
   </g>
   <g id="line2d_2">
    <path clip-path="url(#pbc983ff112)" d="M 61.649265 291.919091 
L 61.649265 190.649168 
" style="fill:none;stroke:#545454;stroke-linecap:round;stroke-width:7.5;"/>
   </g>
   <g id="line2d_3">
    <path clip-path="url(#pbc983ff112)" d="M 84.623285 291.919091 
L 84.623285 69.128526 
" style="fill:none;stroke:#545454;stroke-linecap:round;stroke-width:2.5;"/>
   </g>
   <g id="line2d_4">
    <path clip-path="url(#pbc983ff112)" d="M 84.623285 204.709105 
L 84.623285 105.764642 
" style="fill:none;stroke:#545454;stroke-linecap:round;stroke-width:7.5;"/>
   </g>
   <g id="line2d_5">
    <path clip-path="url(#pbc983ff112)" d="M 119.084315 291.919091 
L 119.084315 133.495408 
" style="fill:none;stroke:#545454;stroke-linecap:round;stroke-width:2.5;"/>
   </g>
   <g id="line2d_6">
    <path clip-path="url(#pbc983ff112)" d="M 119.084315 291.919091 
L 119.084315 227.645166 
" style="fill:none;stroke:#545454;stroke-linecap:round;stroke-width:7.5;"/>
   </g>
   <g id="line2d_7">
    <path clip-path="url(#pbc983ff112)" d="M 142.058336 291.919091 
L 142.058336 149.3764 
" style="fill:none;stroke:#545454;stroke-linecap:round;stroke-width:2.5;"/>
   </g>
   <g id="line2d_8">
    <path clip-path="url(#pbc983ff112)" d="M 142.058336 236.507492 
L 142.058336 171.758298 
" style="fill:none;stroke:#545454;stroke-linecap:round;stroke-width:7.5;"/>
   </g>
   <g id="line2d_9">
    <path clip-path="url(#pbc983ff112)" d="M 176.519366 291.919091 
L 176.519366 68.884709 
" style="fill:none;stroke:#545454;stroke-linecap:round;stroke-width:2.5;"/>
   </g>
   <g id="line2d_10">
    <path clip-path="url(#pbc983ff112)" d="M 176.519366 291.919091 
L 176.519366 202.676475 
" style="fill:none;stroke:#545454;stroke-linecap:round;stroke-width:7.5;"/>
   </g>
   <g id="line2d_11">
    <path clip-path="url(#pbc983ff112)" d="M 199.493386 291.919091 
L 199.493386 81.889367 
" style="fill:none;stroke:#545454;stroke-linecap:round;stroke-width:2.5;"/>
   </g>
   <g id="line2d_12">
    <path clip-path="url(#pbc983ff112)" d="M 199.493386 213.363187 
L 199.493386 121.613849 
" style="fill:none;stroke:#545454;stroke-linecap:round;stroke-width:7.5;"/>
   </g>
   <g id="line2d_13">
    <path clip-path="url(#pbc983ff112)" d="M 233.954416 291.919091 
L 233.954416 143.646453 
" style="fill:none;stroke:#545454;stroke-linecap:round;stroke-width:2.5;"/>
   </g>
   <g id="line2d_14">
    <path clip-path="url(#pbc983ff112)" d="M 233.954416 291.919091 
L 233.954416 232.600412 
" style="fill:none;stroke:#545454;stroke-linecap:round;stroke-width:7.5;"/>
   </g>
   <g id="line2d_15">
    <path clip-path="url(#pbc983ff112)" d="M 256.928436 291.919091 
L 256.928436 153.947513 
" style="fill:none;stroke:#545454;stroke-linecap:round;stroke-width:2.5;"/>
   </g>
   <g id="line2d_16">
    <path clip-path="url(#pbc983ff112)" d="M 256.928436 240.000223 
L 256.928436 179.461571 
" style="fill:none;stroke:#545454;stroke-linecap:round;stroke-width:7.5;"/>
   </g>
   <g id="line2d_17">
    <path clip-path="url(#pbc983ff112)" d="M 291.389466 291.919091 
L 291.389466 218.456304 
" style="fill:none;stroke:#545454;stroke-linecap:round;stroke-width:2.5;"/>
   </g>
   <g id="line2d_18">
    <path clip-path="url(#pbc983ff112)" d="M 291.389466 291.919091 
L 291.389466 262.476245 
" style="fill:none;stroke:#545454;stroke-linecap:round;stroke-width:7.5;"/>
   </g>
   <g id="line2d_19">
    <path clip-path="url(#pbc983ff112)" d="M 314.363486 291.919091 
L 314.363486 224.974734 
" style="fill:none;stroke:#545454;stroke-linecap:round;stroke-width:2.5;"/>
   </g>
   <g id="line2d_20">
    <path clip-path="url(#pbc983ff112)" d="M 314.363486 266.075441 
L 314.363486 235.468856 
" style="fill:none;stroke:#545454;stroke-linecap:round;stroke-width:7.5;"/>
   </g>
   <g id="patch_5">
    <path d="M 44.41875 304.3 
L 331.594002 304.3 
" style="fill:none;stroke:#262626;stroke-linecap:square;stroke-linejoin:miter;stroke-width:1.875;"/>
   </g>
   <g id="PathCollection_1">
    <defs>
     <path d="M 0 2.5 
C 0.663008 2.5 1.29895 2.236584 1.767767 1.767767 
C 2.236584 1.29895 2.5 0.663008 2.5 0 
C 2.5 -0.663008 2.236584 -1.29895 1.767767 -1.767767 
C 1.29895 -2.236584 0.663008 -2.5 0 -2.5 
C -0.663008 -2.5 -1.29895 -2.236584 -1.767767 -1.767767 
C -2.236584 -1.29895 -2.5 -0.663008 -2.5 0 
C -2.5 0.663008 -2.236584 1.29895 -1.767767 1.767767 
C -1.29895 2.236584 -0.663008 2.5 0 2.5 
z
" id="m08bdfa148a" style="stroke:#545454;stroke-width:1.5;"/>
    </defs>
    <g clip-path="url(#pbc983ff112)">
     <use style="fill:#ffffff;stroke:#545454;stroke-width:1.5;" x="61.649265" xlink:href="#m08bdfa148a" y="291.919091"/>
    </g>
   </g>
   <g id="PathCollection_2">
    <g clip-path="url(#pbc983ff112)">
     <use style="fill:#ffffff;stroke:#545454;stroke-width:1.5;" x="84.623285" xlink:href="#m08bdfa148a" y="155.588435"/>
    </g>
   </g>
   <g id="PathCollection_3">
    <g clip-path="url(#pbc983ff112)">
     <use style="fill:#ffffff;stroke:#545454;stroke-width:1.5;" x="119.084315" xlink:href="#m08bdfa148a" y="291.919091"/>
    </g>
   </g>
   <g id="PathCollection_4">
    <g clip-path="url(#pbc983ff112)">
     <use style="fill:#ffffff;stroke:#545454;stroke-width:1.5;" x="142.058336" xlink:href="#m08bdfa148a" y="205.616204"/>
    </g>
   </g>
   <g id="PathCollection_5">
    <g clip-path="url(#pbc983ff112)">
     <use style="fill:#ffffff;stroke:#545454;stroke-width:1.5;" x="176.519366" xlink:href="#m08bdfa148a" y="291.919091"/>
    </g>
   </g>
   <g id="PathCollection_6">
    <g clip-path="url(#pbc983ff112)">
     <use style="fill:#ffffff;stroke:#545454;stroke-width:1.5;" x="199.493386" xlink:href="#m08bdfa148a" y="169.932422"/>
    </g>
   </g>
   <g id="PathCollection_7">
    <g clip-path="url(#pbc983ff112)">
     <use style="fill:#ffffff;stroke:#545454;stroke-width:1.5;" x="233.954416" xlink:href="#m08bdfa148a" y="291.919091"/>
    </g>
   </g>
   <g id="PathCollection_8">
    <g clip-path="url(#pbc983ff112)">
     <use style="fill:#ffffff;stroke:#545454;stroke-width:1.5;" x="256.928436" xlink:href="#m08bdfa148a" y="211.414669"/>
    </g>
   </g>
   <g id="PathCollection_9">
    <g clip-path="url(#pbc983ff112)">
     <use style="fill:#ffffff;stroke:#545454;stroke-width:1.5;" x="291.389466" xlink:href="#m08bdfa148a" y="291.919091"/>
    </g>
   </g>
   <g id="PathCollection_10">
    <g clip-path="url(#pbc983ff112)">
     <use style="fill:#ffffff;stroke:#545454;stroke-width:1.5;" x="314.363486" xlink:href="#m08bdfa148a" y="252.122395"/>
    </g>
   </g>
  </g>
  <g id="text_13">
   <!-- OAT -->
   <g style="fill:#262626;" transform="translate(192.669664 16.412625)scale(0.216 -0.216)">
    <defs>
     <path d="M 39.40625 66.21875 
Q 28.65625 66.21875 22.328125 58.203125 
Q 16.015625 50.203125 16.015625 36.375 
Q 16.015625 22.609375 22.328125 14.59375 
Q 28.65625 6.59375 39.40625 6.59375 
Q 50.140625 6.59375 56.421875 14.59375 
Q 62.703125 22.609375 62.703125 36.375 
Q 62.703125 50.203125 56.421875 58.203125 
Q 50.140625 66.21875 39.40625 66.21875 
z
M 39.40625 74.21875 
Q 54.734375 74.21875 63.90625 63.9375 
Q 73.09375 53.65625 73.09375 36.375 
Q 73.09375 19.140625 63.90625 8.859375 
Q 54.734375 -1.421875 39.40625 -1.421875 
Q 24.03125 -1.421875 14.8125 8.828125 
Q 5.609375 19.09375 5.609375 36.375 
Q 5.609375 53.65625 14.8125 63.9375 
Q 24.03125 74.21875 39.40625 74.21875 
z
" id="DejaVuSans-79"/>
     <path d="M 34.1875 63.1875 
L 20.796875 26.90625 
L 47.609375 26.90625 
z
M 28.609375 72.90625 
L 39.796875 72.90625 
L 67.578125 0 
L 57.328125 0 
L 50.6875 18.703125 
L 17.828125 18.703125 
L 11.1875 0 
L 0.78125 0 
z
" id="DejaVuSans-65"/>
     <path d="M -0.296875 72.90625 
L 61.375 72.90625 
L 61.375 64.59375 
L 35.5 64.59375 
L 35.5 0 
L 25.59375 0 
L 25.59375 64.59375 
L -0.296875 64.59375 
z
" id="DejaVuSans-84"/>
    </defs>
    <use xlink:href="#DejaVuSans-79"/>
    <use x="76.960938" xlink:href="#DejaVuSans-65"/>
    <use x="137.619141" xlink:href="#DejaVuSans-84"/>
   </g>
  </g>
  <g id="legend_1">
   <g id="patch_6">
    <path d="M 326.496711 244.153594 
L 359.496711 244.153594 
L 359.496711 232.603594 
L 326.496711 232.603594 
z
" style="fill:#597dbf;stroke:#545454;stroke-linejoin:miter;stroke-width:1.25;"/>
   </g>
   <g id="text_14">
    <!-- actual -->
    <g style="fill:#262626;" transform="translate(372.696711 244.153594)scale(0.165 -0.165)">
     <defs>
      <path d="M 48.78125 52.59375 
L 48.78125 44.1875 
Q 44.96875 46.296875 41.140625 47.34375 
Q 37.3125 48.390625 33.40625 48.390625 
Q 24.65625 48.390625 19.8125 42.84375 
Q 14.984375 37.3125 14.984375 27.296875 
Q 14.984375 17.28125 19.8125 11.734375 
Q 24.65625 6.203125 33.40625 6.203125 
Q 37.3125 6.203125 41.140625 7.25 
Q 44.96875 8.296875 48.78125 10.40625 
L 48.78125 2.09375 
Q 45.015625 0.34375 40.984375 -0.53125 
Q 36.96875 -1.421875 32.421875 -1.421875 
Q 20.0625 -1.421875 12.78125 6.34375 
Q 5.515625 14.109375 5.515625 27.296875 
Q 5.515625 40.671875 12.859375 48.328125 
Q 20.21875 56 33.015625 56 
Q 37.15625 56 41.109375 55.140625 
Q 45.0625 54.296875 48.78125 52.59375 
z
" id="DejaVuSans-99"/>
      <path d="M 8.5 21.578125 
L 8.5 54.6875 
L 17.484375 54.6875 
L 17.484375 21.921875 
Q 17.484375 14.15625 20.5 10.265625 
Q 23.53125 6.390625 29.59375 6.390625 
Q 36.859375 6.390625 41.078125 11.03125 
Q 45.3125 15.671875 45.3125 23.6875 
L 45.3125 54.6875 
L 54.296875 54.6875 
L 54.296875 0 
L 45.3125 0 
L 45.3125 8.40625 
Q 42.046875 3.421875 37.71875 1 
Q 33.40625 -1.421875 27.6875 -1.421875 
Q 18.265625 -1.421875 13.375 4.4375 
Q 8.5 10.296875 8.5 21.578125 
z
M 31.109375 56 
z
" id="DejaVuSans-117"/>
     </defs>
     <use xlink:href="#DejaVuSans-97"/>
     <use x="61.279297" xlink:href="#DejaVuSans-99"/>
     <use x="116.259766" xlink:href="#DejaVuSans-116"/>
     <use x="155.46875" xlink:href="#DejaVuSans-117"/>
     <use x="218.847656" xlink:href="#DejaVuSans-97"/>
     <use x="280.126953" xlink:href="#DejaVuSans-108"/>
    </g>
   </g>
   <g id="patch_7">
    <path d="M 326.496711 268.3725 
L 359.496711 268.3725 
L 359.496711 256.8225 
L 326.496711 256.8225 
z
" style="fill:#d98b5f;stroke:#545454;stroke-linejoin:miter;stroke-width:1.25;"/>
   </g>
   <g id="text_15">
    <!-- cluster -->
    <g style="fill:#262626;" transform="translate(372.696711 268.3725)scale(0.165 -0.165)">
     <defs>
      <path d="M 44.28125 53.078125 
L 44.28125 44.578125 
Q 40.484375 46.53125 36.375 47.5 
Q 32.28125 48.484375 27.875 48.484375 
Q 21.1875 48.484375 17.84375 46.4375 
Q 14.5 44.390625 14.5 40.28125 
Q 14.5 37.15625 16.890625 35.375 
Q 19.28125 33.59375 26.515625 31.984375 
L 29.59375 31.296875 
Q 39.15625 29.25 43.1875 25.515625 
Q 47.21875 21.78125 47.21875 15.09375 
Q 47.21875 7.46875 41.1875 3.015625 
Q 35.15625 -1.421875 24.609375 -1.421875 
Q 20.21875 -1.421875 15.453125 -0.5625 
Q 10.6875 0.296875 5.421875 2 
L 5.421875 11.28125 
Q 10.40625 8.6875 15.234375 7.390625 
Q 20.0625 6.109375 24.8125 6.109375 
Q 31.15625 6.109375 34.5625 8.28125 
Q 37.984375 10.453125 37.984375 14.40625 
Q 37.984375 18.0625 35.515625 20.015625 
Q 33.0625 21.96875 24.703125 23.78125 
L 21.578125 24.515625 
Q 13.234375 26.265625 9.515625 29.90625 
Q 5.8125 33.546875 5.8125 39.890625 
Q 5.8125 47.609375 11.28125 51.796875 
Q 16.75 56 26.8125 56 
Q 31.78125 56 36.171875 55.265625 
Q 40.578125 54.546875 44.28125 53.078125 
z
" id="DejaVuSans-115"/>
     </defs>
     <use xlink:href="#DejaVuSans-99"/>
     <use x="54.980469" xlink:href="#DejaVuSans-108"/>
     <use x="82.763672" xlink:href="#DejaVuSans-117"/>
     <use x="146.142578" xlink:href="#DejaVuSans-115"/>
     <use x="198.242188" xlink:href="#DejaVuSans-116"/>
     <use x="237.451172" xlink:href="#DejaVuSans-101"/>
     <use x="298.974609" xlink:href="#DejaVuSans-114"/>
    </g>
   </g>
  </g>
 </g>
 <defs>
  <clipPath id="pbc983ff112">
   <rect height="272.38" width="287.175252" x="44.41875" y="31.92"/>
  </clipPath>
 </defs>
</svg>
