<?xml version="1.0" encoding="utf-8" standalone="no"?>
<!DOCTYPE svg PUBLIC "-//W3C//DTD SVG 1.1//EN"
  "http://www.w3.org/Graphics/SVG/1.1/DTD/svg11.dtd">
<!-- Created with matplotlib (https://matplotlib.org/) -->
<svg height="503.420156pt" version="1.1" viewBox="0 0 443.659602 503.420156" width="443.659602pt" xmlns="http://www.w3.org/2000/svg" xmlns:xlink="http://www.w3.org/1999/xlink">
 <metadata>
  <rdf:RDF xmlns:cc="http://creativecommons.org/ns#" xmlns:dc="http://purl.org/dc/elements/1.1/" xmlns:rdf="http://www.w3.org/1999/02/22-rdf-syntax-ns#">
   <cc:Work>
    <dc:type rdf:resource="http://purl.org/dc/dcmitype/StillImage"/>
    <dc:date>2021-01-22T11:01:18.612318</dc:date>
    <dc:format>image/svg+xml</dc:format>
    <dc:creator>
     <cc:Agent>
      <dc:title>Matplotlib v3.3.2, https://matplotlib.org/</dc:title>
     </cc:Agent>
    </dc:creator>
   </cc:Work>
  </rdf:RDF>
 </metadata>
 <defs>
  <style type="text/css">*{stroke-linecap:butt;stroke-linejoin:round;}</style>
 </defs>
 <g id="figure_1">
  <g id="patch_1">
   <path d="M 0 503.420156 
L 443.659602 503.420156 
L 443.659602 0 
L 0 0 
z
" style="fill:#ffffff;"/>
  </g>
  <g id="axes_1">
   <g id="patch_2">
    <path d="M 44.41875 304.3 
L 331.594001 304.3 
L 331.594001 31.92 
L 44.41875 31.92 
z
" style="fill:#ffffff;"/>
   </g>
   <g id="matplotlib.axis_1">
    <g id="xtick_1">
     <g id="text_1">
      <!-- Irrigation High -->
      <g style="fill:#262626;" transform="translate(77.689244 434.888437)rotate(-90)scale(0.165 -0.165)">
       <defs>
        <path d="M 9.8125 72.90625 
L 19.671875 72.90625 
L 19.671875 0 
L 9.8125 0 
z
" id="DejaVuSans-73"/>
        <path d="M 41.109375 46.296875 
Q 39.59375 47.171875 37.8125 47.578125 
Q 36.03125 48 33.890625 48 
Q 26.265625 48 22.1875 43.046875 
Q 18.109375 38.09375 18.109375 28.8125 
L 18.109375 0 
L 9.078125 0 
L 9.078125 54.6875 
L 18.109375 54.6875 
L 18.109375 46.1875 
Q 20.953125 51.171875 25.484375 53.578125 
Q 30.03125 56 36.53125 56 
Q 37.453125 56 38.578125 55.875 
Q 39.703125 55.765625 41.0625 55.515625 
z
" id="DejaVuSans-114"/>
        <path d="M 9.421875 54.6875 
L 18.40625 54.6875 
L 18.40625 0 
L 9.421875 0 
z
M 9.421875 75.984375 
L 18.40625 75.984375 
L 18.40625 64.59375 
L 9.421875 64.59375 
z
" id="DejaVuSans-105"/>
        <path d="M 45.40625 27.984375 
Q 45.40625 37.75 41.375 43.109375 
Q 37.359375 48.484375 30.078125 48.484375 
Q 22.859375 48.484375 18.828125 43.109375 
Q 14.796875 37.75 14.796875 27.984375 
Q 14.796875 18.265625 18.828125 12.890625 
Q 22.859375 7.515625 30.078125 7.515625 
Q 37.359375 7.515625 41.375 12.890625 
Q 45.40625 18.265625 45.40625 27.984375 
z
M 54.390625 6.78125 
Q 54.390625 -7.171875 48.1875 -13.984375 
Q 42 -20.796875 29.203125 -20.796875 
Q 24.46875 -20.796875 20.265625 -20.09375 
Q 16.0625 -19.390625 12.109375 -17.921875 
L 12.109375 -9.1875 
Q 16.0625 -11.328125 19.921875 -12.34375 
Q 23.78125 -13.375 27.78125 -13.375 
Q 36.625 -13.375 41.015625 -8.765625 
Q 45.40625 -4.15625 45.40625 5.171875 
L 45.40625 9.625 
Q 42.625 4.78125 38.28125 2.390625 
Q 33.9375 0 27.875 0 
Q 17.828125 0 11.671875 7.65625 
Q 5.515625 15.328125 5.515625 27.984375 
Q 5.515625 40.671875 11.671875 48.328125 
Q 17.828125 56 27.875 56 
Q 33.9375 56 38.28125 53.609375 
Q 42.625 51.21875 45.40625 46.390625 
L 45.40625 54.6875 
L 54.390625 54.6875 
z
" id="DejaVuSans-103"/>
        <path d="M 34.28125 27.484375 
Q 23.390625 27.484375 19.1875 25 
Q 14.984375 22.515625 14.984375 16.5 
Q 14.984375 11.71875 18.140625 8.90625 
Q 21.296875 6.109375 26.703125 6.109375 
Q 34.1875 6.109375 38.703125 11.40625 
Q 43.21875 16.703125 43.21875 25.484375 
L 43.21875 27.484375 
z
M 52.203125 31.203125 
L 52.203125 0 
L 43.21875 0 
L 43.21875 8.296875 
Q 40.140625 3.328125 35.546875 0.953125 
Q 30.953125 -1.421875 24.3125 -1.421875 
Q 15.921875 -1.421875 10.953125 3.296875 
Q 6 8.015625 6 15.921875 
Q 6 25.140625 12.171875 29.828125 
Q 18.359375 34.515625 30.609375 34.515625 
L 43.21875 34.515625 
L 43.21875 35.40625 
Q 43.21875 41.609375 39.140625 45 
Q 35.0625 48.390625 27.6875 48.390625 
Q 23 48.390625 18.546875 47.265625 
Q 14.109375 46.140625 10.015625 43.890625 
L 10.015625 52.203125 
Q 14.9375 54.109375 19.578125 55.046875 
Q 24.21875 56 28.609375 56 
Q 40.484375 56 46.34375 49.84375 
Q 52.203125 43.703125 52.203125 31.203125 
z
" id="DejaVuSans-97"/>
        <path d="M 18.3125 70.21875 
L 18.3125 54.6875 
L 36.8125 54.6875 
L 36.8125 47.703125 
L 18.3125 47.703125 
L 18.3125 18.015625 
Q 18.3125 11.328125 20.140625 9.421875 
Q 21.96875 7.515625 27.59375 7.515625 
L 36.8125 7.515625 
L 36.8125 0 
L 27.59375 0 
Q 17.1875 0 13.234375 3.875 
Q 9.28125 7.765625 9.28125 18.015625 
L 9.28125 47.703125 
L 2.6875 47.703125 
L 2.6875 54.6875 
L 9.28125 54.6875 
L 9.28125 70.21875 
z
" id="DejaVuSans-116"/>
        <path d="M 30.609375 48.390625 
Q 23.390625 48.390625 19.1875 42.75 
Q 14.984375 37.109375 14.984375 27.296875 
Q 14.984375 17.484375 19.15625 11.84375 
Q 23.34375 6.203125 30.609375 6.203125 
Q 37.796875 6.203125 41.984375 11.859375 
Q 46.1875 17.53125 46.1875 27.296875 
Q 46.1875 37.015625 41.984375 42.703125 
Q 37.796875 48.390625 30.609375 48.390625 
z
M 30.609375 56 
Q 42.328125 56 49.015625 48.375 
Q 55.71875 40.765625 55.71875 27.296875 
Q 55.71875 13.875 49.015625 6.21875 
Q 42.328125 -1.421875 30.609375 -1.421875 
Q 18.84375 -1.421875 12.171875 6.21875 
Q 5.515625 13.875 5.515625 27.296875 
Q 5.515625 40.765625 12.171875 48.375 
Q 18.84375 56 30.609375 56 
z
" id="DejaVuSans-111"/>
        <path d="M 54.890625 33.015625 
L 54.890625 0 
L 45.90625 0 
L 45.90625 32.71875 
Q 45.90625 40.484375 42.875 44.328125 
Q 39.84375 48.1875 33.796875 48.1875 
Q 26.515625 48.1875 22.3125 43.546875 
Q 18.109375 38.921875 18.109375 30.90625 
L 18.109375 0 
L 9.078125 0 
L 9.078125 54.6875 
L 18.109375 54.6875 
L 18.109375 46.1875 
Q 21.34375 51.125 25.703125 53.5625 
Q 30.078125 56 35.796875 56 
Q 45.21875 56 50.046875 50.171875 
Q 54.890625 44.34375 54.890625 33.015625 
z
" id="DejaVuSans-110"/>
        <path id="DejaVuSans-32"/>
        <path d="M 9.8125 72.90625 
L 19.671875 72.90625 
L 19.671875 43.015625 
L 55.515625 43.015625 
L 55.515625 72.90625 
L 65.375 72.90625 
L 65.375 0 
L 55.515625 0 
L 55.515625 34.71875 
L 19.671875 34.71875 
L 19.671875 0 
L 9.8125 0 
z
" id="DejaVuSans-72"/>
        <path d="M 54.890625 33.015625 
L 54.890625 0 
L 45.90625 0 
L 45.90625 32.71875 
Q 45.90625 40.484375 42.875 44.328125 
Q 39.84375 48.1875 33.796875 48.1875 
Q 26.515625 48.1875 22.3125 43.546875 
Q 18.109375 38.921875 18.109375 30.90625 
L 18.109375 0 
L 9.078125 0 
L 9.078125 75.984375 
L 18.109375 75.984375 
L 18.109375 46.1875 
Q 21.34375 51.125 25.703125 53.5625 
Q 30.078125 56 35.796875 56 
Q 45.21875 56 50.046875 50.171875 
Q 54.890625 44.34375 54.890625 33.015625 
z
" id="DejaVuSans-104"/>
       </defs>
       <use xlink:href="#DejaVuSans-73"/>
       <use x="29.492188" xlink:href="#DejaVuSans-114"/>
       <use x="68.855469" xlink:href="#DejaVuSans-114"/>
       <use x="109.96875" xlink:href="#DejaVuSans-105"/>
       <use x="137.751953" xlink:href="#DejaVuSans-103"/>
       <use x="201.228516" xlink:href="#DejaVuSans-97"/>
       <use x="262.507812" xlink:href="#DejaVuSans-116"/>
       <use x="301.716797" xlink:href="#DejaVuSans-105"/>
       <use x="329.5" xlink:href="#DejaVuSans-111"/>
       <use x="390.681641" xlink:href="#DejaVuSans-110"/>
       <use x="454.060547" xlink:href="#DejaVuSans-32"/>
       <use x="485.847656" xlink:href="#DejaVuSans-72"/>
       <use x="561.042969" xlink:href="#DejaVuSans-105"/>
       <use x="588.826172" xlink:href="#DejaVuSans-103"/>
       <use x="652.302734" xlink:href="#DejaVuSans-104"/>
      </g>
     </g>
    </g>
    <g id="xtick_2">
     <g id="text_2">
      <!-- Irrigation Intermediate -->
      <g style="fill:#262626;" transform="translate(135.124294 503.420156)rotate(-90)scale(0.165 -0.165)">
       <defs>
        <path d="M 56.203125 29.59375 
L 56.203125 25.203125 
L 14.890625 25.203125 
Q 15.484375 15.921875 20.484375 11.0625 
Q 25.484375 6.203125 34.421875 6.203125 
Q 39.59375 6.203125 44.453125 7.46875 
Q 49.3125 8.734375 54.109375 11.28125 
L 54.109375 2.78125 
Q 49.265625 0.734375 44.1875 -0.34375 
Q 39.109375 -1.421875 33.890625 -1.421875 
Q 20.796875 -1.421875 13.15625 6.1875 
Q 5.515625 13.8125 5.515625 26.8125 
Q 5.515625 40.234375 12.765625 48.109375 
Q 20.015625 56 32.328125 56 
Q 43.359375 56 49.78125 48.890625 
Q 56.203125 41.796875 56.203125 29.59375 
z
M 47.21875 32.234375 
Q 47.125 39.59375 43.09375 43.984375 
Q 39.0625 48.390625 32.421875 48.390625 
Q 24.90625 48.390625 20.390625 44.140625 
Q 15.875 39.890625 15.1875 32.171875 
z
" id="DejaVuSans-101"/>
        <path d="M 52 44.1875 
Q 55.375 50.25 60.0625 53.125 
Q 64.75 56 71.09375 56 
Q 79.640625 56 84.28125 50.015625 
Q 88.921875 44.046875 88.921875 33.015625 
L 88.921875 0 
L 79.890625 0 
L 79.890625 32.71875 
Q 79.890625 40.578125 77.09375 44.375 
Q 74.3125 48.1875 68.609375 48.1875 
Q 61.625 48.1875 57.5625 43.546875 
Q 53.515625 38.921875 53.515625 30.90625 
L 53.515625 0 
L 44.484375 0 
L 44.484375 32.71875 
Q 44.484375 40.625 41.703125 44.40625 
Q 38.921875 48.1875 33.109375 48.1875 
Q 26.21875 48.1875 22.15625 43.53125 
Q 18.109375 38.875 18.109375 30.90625 
L 18.109375 0 
L 9.078125 0 
L 9.078125 54.6875 
L 18.109375 54.6875 
L 18.109375 46.1875 
Q 21.1875 51.21875 25.484375 53.609375 
Q 29.78125 56 35.6875 56 
Q 41.65625 56 45.828125 52.96875 
Q 50 49.953125 52 44.1875 
z
" id="DejaVuSans-109"/>
        <path d="M 45.40625 46.390625 
L 45.40625 75.984375 
L 54.390625 75.984375 
L 54.390625 0 
L 45.40625 0 
L 45.40625 8.203125 
Q 42.578125 3.328125 38.25 0.953125 
Q 33.9375 -1.421875 27.875 -1.421875 
Q 17.96875 -1.421875 11.734375 6.484375 
Q 5.515625 14.40625 5.515625 27.296875 
Q 5.515625 40.1875 11.734375 48.09375 
Q 17.96875 56 27.875 56 
Q 33.9375 56 38.25 53.625 
Q 42.578125 51.265625 45.40625 46.390625 
z
M 14.796875 27.296875 
Q 14.796875 17.390625 18.875 11.75 
Q 22.953125 6.109375 30.078125 6.109375 
Q 37.203125 6.109375 41.296875 11.75 
Q 45.40625 17.390625 45.40625 27.296875 
Q 45.40625 37.203125 41.296875 42.84375 
Q 37.203125 48.484375 30.078125 48.484375 
Q 22.953125 48.484375 18.875 42.84375 
Q 14.796875 37.203125 14.796875 27.296875 
z
" id="DejaVuSans-100"/>
       </defs>
       <use xlink:href="#DejaVuSans-73"/>
       <use x="29.492188" xlink:href="#DejaVuSans-114"/>
       <use x="68.855469" xlink:href="#DejaVuSans-114"/>
       <use x="109.96875" xlink:href="#DejaVuSans-105"/>
       <use x="137.751953" xlink:href="#DejaVuSans-103"/>
       <use x="201.228516" xlink:href="#DejaVuSans-97"/>
       <use x="262.507812" xlink:href="#DejaVuSans-116"/>
       <use x="301.716797" xlink:href="#DejaVuSans-105"/>
       <use x="329.5" xlink:href="#DejaVuSans-111"/>
       <use x="390.681641" xlink:href="#DejaVuSans-110"/>
       <use x="454.060547" xlink:href="#DejaVuSans-32"/>
       <use x="485.847656" xlink:href="#DejaVuSans-73"/>
       <use x="515.339844" xlink:href="#DejaVuSans-110"/>
       <use x="578.71875" xlink:href="#DejaVuSans-116"/>
       <use x="617.927734" xlink:href="#DejaVuSans-101"/>
       <use x="679.451172" xlink:href="#DejaVuSans-114"/>
       <use x="718.814453" xlink:href="#DejaVuSans-109"/>
       <use x="816.226562" xlink:href="#DejaVuSans-101"/>
       <use x="877.75" xlink:href="#DejaVuSans-100"/>
       <use x="941.226562" xlink:href="#DejaVuSans-105"/>
       <use x="969.009766" xlink:href="#DejaVuSans-97"/>
       <use x="1030.289062" xlink:href="#DejaVuSans-116"/>
       <use x="1069.498047" xlink:href="#DejaVuSans-101"/>
      </g>
     </g>
    </g>
    <g id="xtick_3">
     <g id="text_3">
      <!-- Rain-fed High -->
      <g style="fill:#262626;" transform="translate(192.559345 428.602969)rotate(-90)scale(0.165 -0.165)">
       <defs>
        <path d="M 44.390625 34.1875 
Q 47.5625 33.109375 50.5625 29.59375 
Q 53.5625 26.078125 56.59375 19.921875 
L 66.609375 0 
L 56 0 
L 46.6875 18.703125 
Q 43.0625 26.03125 39.671875 28.421875 
Q 36.28125 30.8125 30.421875 30.8125 
L 19.671875 30.8125 
L 19.671875 0 
L 9.8125 0 
L 9.8125 72.90625 
L 32.078125 72.90625 
Q 44.578125 72.90625 50.734375 67.671875 
Q 56.890625 62.453125 56.890625 51.90625 
Q 56.890625 45.015625 53.6875 40.46875 
Q 50.484375 35.9375 44.390625 34.1875 
z
M 19.671875 64.796875 
L 19.671875 38.921875 
L 32.078125 38.921875 
Q 39.203125 38.921875 42.84375 42.21875 
Q 46.484375 45.515625 46.484375 51.90625 
Q 46.484375 58.296875 42.84375 61.546875 
Q 39.203125 64.796875 32.078125 64.796875 
z
" id="DejaVuSans-82"/>
        <path d="M 4.890625 31.390625 
L 31.203125 31.390625 
L 31.203125 23.390625 
L 4.890625 23.390625 
z
" id="DejaVuSans-45"/>
        <path d="M 37.109375 75.984375 
L 37.109375 68.5 
L 28.515625 68.5 
Q 23.6875 68.5 21.796875 66.546875 
Q 19.921875 64.59375 19.921875 59.515625 
L 19.921875 54.6875 
L 34.71875 54.6875 
L 34.71875 47.703125 
L 19.921875 47.703125 
L 19.921875 0 
L 10.890625 0 
L 10.890625 47.703125 
L 2.296875 47.703125 
L 2.296875 54.6875 
L 10.890625 54.6875 
L 10.890625 58.5 
Q 10.890625 67.625 15.140625 71.796875 
Q 19.390625 75.984375 28.609375 75.984375 
z
" id="DejaVuSans-102"/>
       </defs>
       <use xlink:href="#DejaVuSans-82"/>
       <use x="67.232422" xlink:href="#DejaVuSans-97"/>
       <use x="128.511719" xlink:href="#DejaVuSans-105"/>
       <use x="156.294922" xlink:href="#DejaVuSans-110"/>
       <use x="219.673828" xlink:href="#DejaVuSans-45"/>
       <use x="255.757812" xlink:href="#DejaVuSans-102"/>
       <use x="290.962891" xlink:href="#DejaVuSans-101"/>
       <use x="352.486328" xlink:href="#DejaVuSans-100"/>
       <use x="415.962891" xlink:href="#DejaVuSans-32"/>
       <use x="447.75" xlink:href="#DejaVuSans-72"/>
       <use x="522.945312" xlink:href="#DejaVuSans-105"/>
       <use x="550.728516" xlink:href="#DejaVuSans-103"/>
       <use x="614.205078" xlink:href="#DejaVuSans-104"/>
      </g>
     </g>
    </g>
    <g id="xtick_4">
     <g id="text_4">
      <!-- Rain-fed Intermediate -->
      <g style="fill:#262626;" transform="translate(249.994395 497.134687)rotate(-90)scale(0.165 -0.165)">
       <use xlink:href="#DejaVuSans-82"/>
       <use x="67.232422" xlink:href="#DejaVuSans-97"/>
       <use x="128.511719" xlink:href="#DejaVuSans-105"/>
       <use x="156.294922" xlink:href="#DejaVuSans-110"/>
       <use x="219.673828" xlink:href="#DejaVuSans-45"/>
       <use x="255.757812" xlink:href="#DejaVuSans-102"/>
       <use x="290.962891" xlink:href="#DejaVuSans-101"/>
       <use x="352.486328" xlink:href="#DejaVuSans-100"/>
       <use x="415.962891" xlink:href="#DejaVuSans-32"/>
       <use x="447.75" xlink:href="#DejaVuSans-73"/>
       <use x="477.242188" xlink:href="#DejaVuSans-110"/>
       <use x="540.621094" xlink:href="#DejaVuSans-116"/>
       <use x="579.830078" xlink:href="#DejaVuSans-101"/>
       <use x="641.353516" xlink:href="#DejaVuSans-114"/>
       <use x="680.716797" xlink:href="#DejaVuSans-109"/>
       <use x="778.128906" xlink:href="#DejaVuSans-101"/>
       <use x="839.652344" xlink:href="#DejaVuSans-100"/>
       <use x="903.128906" xlink:href="#DejaVuSans-105"/>
       <use x="930.912109" xlink:href="#DejaVuSans-97"/>
       <use x="992.191406" xlink:href="#DejaVuSans-116"/>
       <use x="1031.400391" xlink:href="#DejaVuSans-101"/>
      </g>
     </g>
    </g>
    <g id="xtick_5">
     <g id="text_5">
      <!-- Rain-fed Low -->
      <g style="fill:#262626;" transform="translate(307.429445 423.173437)rotate(-90)scale(0.165 -0.165)">
       <defs>
        <path d="M 9.8125 72.90625 
L 19.671875 72.90625 
L 19.671875 8.296875 
L 55.171875 8.296875 
L 55.171875 0 
L 9.8125 0 
z
" id="DejaVuSans-76"/>
        <path d="M 4.203125 54.6875 
L 13.1875 54.6875 
L 24.421875 12.015625 
L 35.59375 54.6875 
L 46.1875 54.6875 
L 57.421875 12.015625 
L 68.609375 54.6875 
L 77.59375 54.6875 
L 63.28125 0 
L 52.6875 0 
L 40.921875 44.828125 
L 29.109375 0 
L 18.5 0 
z
" id="DejaVuSans-119"/>
       </defs>
       <use xlink:href="#DejaVuSans-82"/>
       <use x="67.232422" xlink:href="#DejaVuSans-97"/>
       <use x="128.511719" xlink:href="#DejaVuSans-105"/>
       <use x="156.294922" xlink:href="#DejaVuSans-110"/>
       <use x="219.673828" xlink:href="#DejaVuSans-45"/>
       <use x="255.757812" xlink:href="#DejaVuSans-102"/>
       <use x="290.962891" xlink:href="#DejaVuSans-101"/>
       <use x="352.486328" xlink:href="#DejaVuSans-100"/>
       <use x="415.962891" xlink:href="#DejaVuSans-32"/>
       <use x="447.75" xlink:href="#DejaVuSans-76"/>
       <use x="501.712891" xlink:href="#DejaVuSans-111"/>
       <use x="562.894531" xlink:href="#DejaVuSans-119"/>
      </g>
     </g>
    </g>
   </g>
   <g id="matplotlib.axis_2">
    <g id="ytick_1">
     <g id="text_6">
      <!-- 0 -->
      <g style="fill:#262626;" transform="translate(21.420625 298.187802)scale(0.165 -0.165)">
       <defs>
        <path d="M 31.78125 66.40625 
Q 24.171875 66.40625 20.328125 58.90625 
Q 16.5 51.421875 16.5 36.375 
Q 16.5 21.390625 20.328125 13.890625 
Q 24.171875 6.390625 31.78125 6.390625 
Q 39.453125 6.390625 43.28125 13.890625 
Q 47.125 21.390625 47.125 36.375 
Q 47.125 51.421875 43.28125 58.90625 
Q 39.453125 66.40625 31.78125 66.40625 
z
M 31.78125 74.21875 
Q 44.046875 74.21875 50.515625 64.515625 
Q 56.984375 54.828125 56.984375 36.375 
Q 56.984375 17.96875 50.515625 8.265625 
Q 44.046875 -1.421875 31.78125 -1.421875 
Q 19.53125 -1.421875 13.0625 8.265625 
Q 6.59375 17.96875 6.59375 36.375 
Q 6.59375 54.828125 13.0625 64.515625 
Q 19.53125 74.21875 31.78125 74.21875 
z
" id="DejaVuSans-48"/>
       </defs>
       <use xlink:href="#DejaVuSans-48"/>
      </g>
     </g>
    </g>
    <g id="ytick_2">
     <g id="text_7">
      <!-- 1 -->
      <g style="fill:#262626;" transform="translate(21.420625 257.963927)scale(0.165 -0.165)">
       <defs>
        <path d="M 12.40625 8.296875 
L 28.515625 8.296875 
L 28.515625 63.921875 
L 10.984375 60.40625 
L 10.984375 69.390625 
L 28.421875 72.90625 
L 38.28125 72.90625 
L 38.28125 8.296875 
L 54.390625 8.296875 
L 54.390625 0 
L 12.40625 0 
z
" id="DejaVuSans-49"/>
       </defs>
       <use xlink:href="#DejaVuSans-49"/>
      </g>
     </g>
    </g>
    <g id="ytick_3">
     <g id="text_8">
      <!-- 2 -->
      <g style="fill:#262626;" transform="translate(21.420625 217.740051)scale(0.165 -0.165)">
       <defs>
        <path d="M 19.1875 8.296875 
L 53.609375 8.296875 
L 53.609375 0 
L 7.328125 0 
L 7.328125 8.296875 
Q 12.9375 14.109375 22.625 23.890625 
Q 32.328125 33.6875 34.8125 36.53125 
Q 39.546875 41.84375 41.421875 45.53125 
Q 43.3125 49.21875 43.3125 52.78125 
Q 43.3125 58.59375 39.234375 62.25 
Q 35.15625 65.921875 28.609375 65.921875 
Q 23.96875 65.921875 18.8125 64.3125 
Q 13.671875 62.703125 7.8125 59.421875 
L 7.8125 69.390625 
Q 13.765625 71.78125 18.9375 73 
Q 24.125 74.21875 28.421875 74.21875 
Q 39.75 74.21875 46.484375 68.546875 
Q 53.21875 62.890625 53.21875 53.421875 
Q 53.21875 48.921875 51.53125 44.890625 
Q 49.859375 40.875 45.40625 35.40625 
Q 44.1875 33.984375 37.640625 27.21875 
Q 31.109375 20.453125 19.1875 8.296875 
z
" id="DejaVuSans-50"/>
       </defs>
       <use xlink:href="#DejaVuSans-50"/>
      </g>
     </g>
    </g>
    <g id="ytick_4">
     <g id="text_9">
      <!-- 3 -->
      <g style="fill:#262626;" transform="translate(21.420625 177.516176)scale(0.165 -0.165)">
       <defs>
        <path d="M 40.578125 39.3125 
Q 47.65625 37.796875 51.625 33 
Q 55.609375 28.21875 55.609375 21.1875 
Q 55.609375 10.40625 48.1875 4.484375 
Q 40.765625 -1.421875 27.09375 -1.421875 
Q 22.515625 -1.421875 17.65625 -0.515625 
Q 12.796875 0.390625 7.625 2.203125 
L 7.625 11.71875 
Q 11.71875 9.328125 16.59375 8.109375 
Q 21.484375 6.890625 26.8125 6.890625 
Q 36.078125 6.890625 40.9375 10.546875 
Q 45.796875 14.203125 45.796875 21.1875 
Q 45.796875 27.640625 41.28125 31.265625 
Q 36.765625 34.90625 28.71875 34.90625 
L 20.21875 34.90625 
L 20.21875 43.015625 
L 29.109375 43.015625 
Q 36.375 43.015625 40.234375 45.921875 
Q 44.09375 48.828125 44.09375 54.296875 
Q 44.09375 59.90625 40.109375 62.90625 
Q 36.140625 65.921875 28.71875 65.921875 
Q 24.65625 65.921875 20.015625 65.03125 
Q 15.375 64.15625 9.8125 62.3125 
L 9.8125 71.09375 
Q 15.4375 72.65625 20.34375 73.4375 
Q 25.25 74.21875 29.59375 74.21875 
Q 40.828125 74.21875 47.359375 69.109375 
Q 53.90625 64.015625 53.90625 55.328125 
Q 53.90625 49.265625 50.4375 45.09375 
Q 46.96875 40.921875 40.578125 39.3125 
z
" id="DejaVuSans-51"/>
       </defs>
       <use xlink:href="#DejaVuSans-51"/>
      </g>
     </g>
    </g>
    <g id="ytick_5">
     <g id="text_10">
      <!-- 4 -->
      <g style="fill:#262626;" transform="translate(21.420625 137.292301)scale(0.165 -0.165)">
       <defs>
        <path d="M 37.796875 64.3125 
L 12.890625 25.390625 
L 37.796875 25.390625 
z
M 35.203125 72.90625 
L 47.609375 72.90625 
L 47.609375 25.390625 
L 58.015625 25.390625 
L 58.015625 17.1875 
L 47.609375 17.1875 
L 47.609375 0 
L 37.796875 0 
L 37.796875 17.1875 
L 4.890625 17.1875 
L 4.890625 26.703125 
z
" id="DejaVuSans-52"/>
       </defs>
       <use xlink:href="#DejaVuSans-52"/>
      </g>
     </g>
    </g>
    <g id="ytick_6">
     <g id="text_11">
      <!-- 5 -->
      <g style="fill:#262626;" transform="translate(21.420625 97.068425)scale(0.165 -0.165)">
       <defs>
        <path d="M 10.796875 72.90625 
L 49.515625 72.90625 
L 49.515625 64.59375 
L 19.828125 64.59375 
L 19.828125 46.734375 
Q 21.96875 47.46875 24.109375 47.828125 
Q 26.265625 48.1875 28.421875 48.1875 
Q 40.625 48.1875 47.75 41.5 
Q 54.890625 34.8125 54.890625 23.390625 
Q 54.890625 11.625 47.5625 5.09375 
Q 40.234375 -1.421875 26.90625 -1.421875 
Q 22.3125 -1.421875 17.546875 -0.640625 
Q 12.796875 0.140625 7.71875 1.703125 
L 7.71875 11.625 
Q 12.109375 9.234375 16.796875 8.0625 
Q 21.484375 6.890625 26.703125 6.890625 
Q 35.15625 6.890625 40.078125 11.328125 
Q 45.015625 15.765625 45.015625 23.390625 
Q 45.015625 31 40.078125 35.4375 
Q 35.15625 39.890625 26.703125 39.890625 
Q 22.75 39.890625 18.8125 39.015625 
Q 14.890625 38.140625 10.796875 36.28125 
z
" id="DejaVuSans-53"/>
       </defs>
       <use xlink:href="#DejaVuSans-53"/>
      </g>
     </g>
    </g>
    <g id="ytick_7">
     <g id="text_12">
      <!-- 6 -->
      <g style="fill:#262626;" transform="translate(21.420625 56.84455)scale(0.165 -0.165)">
       <defs>
        <path d="M 33.015625 40.375 
Q 26.375 40.375 22.484375 35.828125 
Q 18.609375 31.296875 18.609375 23.390625 
Q 18.609375 15.53125 22.484375 10.953125 
Q 26.375 6.390625 33.015625 6.390625 
Q 39.65625 6.390625 43.53125 10.953125 
Q 47.40625 15.53125 47.40625 23.390625 
Q 47.40625 31.296875 43.53125 35.828125 
Q 39.65625 40.375 33.015625 40.375 
z
M 52.59375 71.296875 
L 52.59375 62.3125 
Q 48.875 64.0625 45.09375 64.984375 
Q 41.3125 65.921875 37.59375 65.921875 
Q 27.828125 65.921875 22.671875 59.328125 
Q 17.53125 52.734375 16.796875 39.40625 
Q 19.671875 43.65625 24.015625 45.921875 
Q 28.375 48.1875 33.59375 48.1875 
Q 44.578125 48.1875 50.953125 41.515625 
Q 57.328125 34.859375 57.328125 23.390625 
Q 57.328125 12.15625 50.6875 5.359375 
Q 44.046875 -1.421875 33.015625 -1.421875 
Q 20.359375 -1.421875 13.671875 8.265625 
Q 6.984375 17.96875 6.984375 36.375 
Q 6.984375 53.65625 15.1875 63.9375 
Q 23.390625 74.21875 37.203125 74.21875 
Q 40.921875 74.21875 44.703125 73.484375 
Q 48.484375 72.75 52.59375 71.296875 
z
" id="DejaVuSans-54"/>
       </defs>
       <use xlink:href="#DejaVuSans-54"/>
      </g>
     </g>
    </g>
    <g id="text_13">
     <!-- Yield (t/ha) -->
     <g style="fill:#262626;" transform="translate(13.677187 217.195156)rotate(-90)scale(0.18 -0.18)">
      <defs>
       <path d="M -0.203125 72.90625 
L 10.40625 72.90625 
L 30.609375 42.921875 
L 50.6875 72.90625 
L 61.28125 72.90625 
L 35.5 34.71875 
L 35.5 0 
L 25.59375 0 
L 25.59375 34.71875 
z
" id="DejaVuSans-89"/>
       <path d="M 9.421875 75.984375 
L 18.40625 75.984375 
L 18.40625 0 
L 9.421875 0 
z
" id="DejaVuSans-108"/>
       <path d="M 31 75.875 
Q 24.46875 64.65625 21.28125 53.65625 
Q 18.109375 42.671875 18.109375 31.390625 
Q 18.109375 20.125 21.3125 9.0625 
Q 24.515625 -2 31 -13.1875 
L 23.1875 -13.1875 
Q 15.875 -1.703125 12.234375 9.375 
Q 8.59375 20.453125 8.59375 31.390625 
Q 8.59375 42.28125 12.203125 53.3125 
Q 15.828125 64.359375 23.1875 75.875 
z
" id="DejaVuSans-40"/>
       <path d="M 25.390625 72.90625 
L 33.6875 72.90625 
L 8.296875 -9.28125 
L 0 -9.28125 
z
" id="DejaVuSans-47"/>
       <path d="M 8.015625 75.875 
L 15.828125 75.875 
Q 23.140625 64.359375 26.78125 53.3125 
Q 30.421875 42.28125 30.421875 31.390625 
Q 30.421875 20.453125 26.78125 9.375 
Q 23.140625 -1.703125 15.828125 -13.1875 
L 8.015625 -13.1875 
Q 14.5 -2 17.703125 9.0625 
Q 20.90625 20.125 20.90625 31.390625 
Q 20.90625 42.671875 17.703125 53.65625 
Q 14.5 64.65625 8.015625 75.875 
z
" id="DejaVuSans-41"/>
      </defs>
      <use xlink:href="#DejaVuSans-89"/>
      <use x="57.458984" xlink:href="#DejaVuSans-105"/>
      <use x="85.242188" xlink:href="#DejaVuSans-101"/>
      <use x="146.765625" xlink:href="#DejaVuSans-108"/>
      <use x="174.548828" xlink:href="#DejaVuSans-100"/>
      <use x="238.025391" xlink:href="#DejaVuSans-32"/>
      <use x="269.8125" xlink:href="#DejaVuSans-40"/>
      <use x="308.826172" xlink:href="#DejaVuSans-116"/>
      <use x="348.035156" xlink:href="#DejaVuSans-47"/>
      <use x="381.726562" xlink:href="#DejaVuSans-104"/>
      <use x="445.105469" xlink:href="#DejaVuSans-97"/>
      <use x="506.384766" xlink:href="#DejaVuSans-41"/>
     </g>
    </g>
   </g>
   <g id="PolyCollection_1">
    <defs>
     <path d="M 73.136275 -211.501065 
L 50.162255 -211.501065 
L 50.634239 -214.002259 
L 51.937244 -216.503453 
L 53.773876 -219.004647 
L 55.772667 -221.50584 
L 57.607513 -224.007034 
L 59.075666 -226.508228 
L 60.113275 -229.009422 
L 60.761617 -231.510615 
L 61.11429 -234.011809 
L 61.271989 -236.513003 
L 61.316799 -239.014197 
L 61.30463 -241.51539 
L 61.268347 -244.016584 
L 61.224567 -246.517778 
L 61.180049 -249.018972 
L 61.136325 -251.520165 
L 61.092598 -254.021359 
L 61.047369 -256.522553 
L 60.999282 -259.023747 
L 60.947519 -261.52494 
L 60.891993 -264.026134 
L 60.833424 -266.527328 
L 60.773301 -269.028522 
L 60.713743 -271.529715 
L 60.657233 -274.030909 
L 60.606277 -276.532103 
L 60.56303 -279.033297 
L 60.528964 -281.534491 
L 60.504637 -284.035684 
L 60.489589 -286.536878 
L 60.482332 -289.038072 
L 60.480376 -291.539266 
L 60.48028 -294.040459 
L 60.477802 -296.541653 
L 60.468349 -299.042847 
L 60.447859 -301.544041 
L 60.414115 -304.045234 
L 60.368164 -306.546428 
L 60.315287 -309.047622 
L 60.264893 -311.548816 
L 60.228951 -314.050009 
L 60.219123 -316.551203 
L 60.24339 -319.052397 
L 60.303397 -321.553591 
L 60.393617 -324.054784 
L 60.502755 -326.555978 
L 60.616903 -329.057172 
L 60.7232 -331.558366 
L 60.812677 -334.059559 
L 60.881452 -336.560753 
L 60.93021 -339.061947 
L 60.962588 -341.563141 
L 60.98328 -344.064334 
L 60.996555 -346.565528 
L 61.005485 -349.066722 
L 61.011852 -351.567916 
L 61.01651 -354.069109 
L 61.01992 -356.570303 
L 61.022669 -359.071497 
L 61.02579 -361.572691 
L 61.030829 -364.073884 
L 61.039622 -366.575078 
L 61.053841 -369.076272 
L 61.074478 -371.577466 
L 61.101435 -374.078659 
L 61.133409 -376.579853 
L 61.168135 -379.081047 
L 61.202912 -381.582241 
L 61.235206 -384.083434 
L 61.26312 -386.584628 
L 61.28557 -389.085822 
L 61.302174 -391.587016 
L 61.312941 -394.08821 
L 61.317945 -396.589403 
L 61.317132 -399.090597 
L 61.310358 -401.591791 
L 61.297657 -404.092985 
L 61.279635 -406.594178 
L 61.257798 -409.095372 
L 61.234637 -411.596566 
L 61.213379 -414.09776 
L 61.197481 -416.598953 
L 61.190063 -419.100147 
L 61.193463 -421.601341 
L 61.208985 -424.102535 
L 61.236769 -426.603728 
L 61.275686 -429.104922 
L 61.323284 -431.606116 
L 61.375919 -434.10731 
L 61.429236 -436.608503 
L 61.478959 -439.109697 
L 61.521749 -441.610891 
L 61.555801 -444.112085 
L 61.580972 -446.613278 
L 61.598442 -449.114472 
L 61.610113 -451.615666 
L 61.617996 -454.11686 
L 61.62376 -456.618053 
L 61.628513 -459.119247 
L 61.670017 -459.119247 
L 61.670017 -459.119247 
L 61.67477 -456.618053 
L 61.680534 -454.11686 
L 61.688418 -451.615666 
L 61.700089 -449.114472 
L 61.717558 -446.613278 
L 61.742729 -444.112085 
L 61.776781 -441.610891 
L 61.819571 -439.109697 
L 61.869294 -436.608503 
L 61.922611 -434.10731 
L 61.975246 -431.606116 
L 62.022844 -429.104922 
L 62.061762 -426.603728 
L 62.089545 -424.102535 
L 62.105067 -421.601341 
L 62.108467 -419.100147 
L 62.101049 -416.598953 
L 62.085151 -414.09776 
L 62.063893 -411.596566 
L 62.040732 -409.095372 
L 62.018895 -406.594178 
L 62.000873 -404.092985 
L 61.988172 -401.591791 
L 61.981398 -399.090597 
L 61.980585 -396.589403 
L 61.985589 -394.08821 
L 61.996356 -391.587016 
L 62.01296 -389.085822 
L 62.035411 -386.584628 
L 62.063324 -384.083434 
L 62.095619 -381.582241 
L 62.130395 -379.081047 
L 62.165121 -376.579853 
L 62.197095 -374.078659 
L 62.224052 -371.577466 
L 62.244689 -369.076272 
L 62.258908 -366.575078 
L 62.267701 -364.073884 
L 62.27274 -361.572691 
L 62.275861 -359.071497 
L 62.27861 -356.570303 
L 62.282021 -354.069109 
L 62.286678 -351.567916 
L 62.293046 -349.066722 
L 62.301975 -346.565528 
L 62.31525 -344.064334 
L 62.335942 -341.563141 
L 62.36832 -339.061947 
L 62.417078 -336.560753 
L 62.485853 -334.059559 
L 62.575331 -331.558366 
L 62.681627 -329.057172 
L 62.795775 -326.555978 
L 62.904913 -324.054784 
L 62.995133 -321.553591 
L 63.055141 -319.052397 
L 63.079407 -316.551203 
L 63.069579 -314.050009 
L 63.033637 -311.548816 
L 62.983243 -309.047622 
L 62.930366 -306.546428 
L 62.884415 -304.045234 
L 62.850671 -301.544041 
L 62.830181 -299.042847 
L 62.820728 -296.541653 
L 62.81825 -294.040459 
L 62.818154 -291.539266 
L 62.816199 -289.038072 
L 62.808942 -286.536878 
L 62.793893 -284.035684 
L 62.769567 -281.534491 
L 62.735501 -279.033297 
L 62.692254 -276.532103 
L 62.641297 -274.030909 
L 62.584787 -271.529715 
L 62.525229 -269.028522 
L 62.465106 -266.527328 
L 62.406537 -264.026134 
L 62.351012 -261.52494 
L 62.299248 -259.023747 
L 62.251161 -256.522553 
L 62.205933 -254.021359 
L 62.162205 -251.520165 
L 62.118481 -249.018972 
L 62.073963 -246.517778 
L 62.030183 -244.016584 
L 61.9939 -241.51539 
L 61.981731 -239.014197 
L 62.026541 -236.513003 
L 62.18424 -234.011809 
L 62.536913 -231.510615 
L 63.185255 -229.009422 
L 64.222864 -226.508228 
L 65.691017 -224.007034 
L 67.525863 -221.50584 
L 69.524655 -219.004647 
L 71.361286 -216.503453 
L 72.664291 -214.002259 
L 73.136275 -211.501065 
z
" id="m44c9d5ec8a" style="stroke:#545454;stroke-width:2.5;"/>
    </defs>
    <g clip-path="url(#p343eaf2434)">
     <use style="fill:#597dbf;stroke:#545454;stroke-width:2.5;" x="0" xlink:href="#m44c9d5ec8a" y="503.420156"/>
    </g>
   </g>
   <g id="PolyCollection_2">
    <defs>
     <path d="M 85.413589 -211.53366 
L 83.832982 -211.53366 
L 83.81239 -213.617852 
L 83.791814 -215.702043 
L 83.771252 -217.786235 
L 83.750702 -219.870427 
L 83.730157 -221.954619 
L 83.709611 -224.03881 
L 83.689057 -226.123002 
L 83.668488 -228.207194 
L 83.647893 -230.291386 
L 83.627265 -232.375578 
L 83.606594 -234.459769 
L 83.585872 -236.543961 
L 83.565091 -238.628153 
L 83.544244 -240.712345 
L 83.523324 -242.796536 
L 83.502328 -244.880728 
L 83.481252 -246.96492 
L 83.460095 -249.049112 
L 83.438859 -251.133303 
L 83.417548 -253.217495 
L 83.396167 -255.301687 
L 83.374725 -257.385879 
L 83.353234 -259.470071 
L 83.331708 -261.554262 
L 83.310164 -263.638454 
L 83.288622 -265.722646 
L 83.267104 -267.806838 
L 83.245637 -269.891029 
L 83.224248 -271.975221 
L 83.202967 -274.059413 
L 83.181829 -276.143605 
L 83.160866 -278.227797 
L 83.140117 -280.311988 
L 83.11962 -282.39618 
L 83.099414 -284.480372 
L 83.079541 -286.564564 
L 83.060041 -288.648755 
L 83.040958 -290.732947 
L 83.022332 -292.817139 
L 83.004207 -294.901331 
L 82.986624 -296.985523 
L 82.969623 -299.069714 
L 82.953244 -301.153906 
L 82.937525 -303.238098 
L 82.922503 -305.32229 
L 82.908213 -307.406481 
L 82.894686 -309.490673 
L 82.881954 -311.574865 
L 82.870045 -313.659057 
L 82.858983 -315.743249 
L 82.848792 -317.82744 
L 82.839491 -319.911632 
L 82.831099 -321.995824 
L 82.823628 -324.080016 
L 82.817093 -326.164207 
L 82.811501 -328.248399 
L 82.80686 -330.332591 
L 82.803174 -332.416783 
L 82.800447 -334.500974 
L 82.798678 -336.585166 
L 82.797867 -338.669358 
L 82.79801 -340.75355 
L 82.799103 -342.837742 
L 82.801142 -344.921933 
L 82.804119 -347.006125 
L 82.808029 -349.090317 
L 82.812865 -351.174509 
L 82.818617 -353.2587 
L 82.825281 -355.342892 
L 82.832847 -357.427084 
L 82.841309 -359.511276 
L 82.85066 -361.595468 
L 82.860894 -363.679659 
L 82.872005 -365.763851 
L 82.883989 -367.848043 
L 82.89684 -369.932235 
L 82.910553 -372.016426 
L 82.925127 -374.100618 
L 82.940555 -376.18481 
L 82.956837 -378.269002 
L 82.973966 -380.353194 
L 82.991941 -382.437385 
L 83.010757 -384.521577 
L 83.030409 -386.605769 
L 83.05089 -388.689961 
L 83.072194 -390.774152 
L 83.094313 -392.858344 
L 83.117236 -394.942536 
L 83.140951 -397.026728 
L 83.165444 -399.11092 
L 83.190697 -401.195111 
L 83.216691 -403.279303 
L 83.243404 -405.363495 
L 83.270811 -407.447687 
L 83.298883 -409.531878 
L 83.327589 -411.61607 
L 83.356895 -413.700262 
L 83.386762 -415.784454 
L 83.417151 -417.868646 
L 85.82942 -417.868646 
L 85.82942 -417.868646 
L 85.859808 -415.784454 
L 85.889676 -413.700262 
L 85.918981 -411.61607 
L 85.947687 -409.531878 
L 85.97576 -407.447687 
L 86.003166 -405.363495 
L 86.02988 -403.279303 
L 86.055874 -401.195111 
L 86.081127 -399.11092 
L 86.105619 -397.026728 
L 86.129334 -394.942536 
L 86.152257 -392.858344 
L 86.174376 -390.774152 
L 86.19568 -388.689961 
L 86.216162 -386.605769 
L 86.235813 -384.521577 
L 86.254629 -382.437385 
L 86.272604 -380.353194 
L 86.289734 -378.269002 
L 86.306015 -376.18481 
L 86.321444 -374.100618 
L 86.336017 -372.016426 
L 86.349731 -369.932235 
L 86.362582 -367.848043 
L 86.374565 -365.763851 
L 86.385676 -363.679659 
L 86.395911 -361.595468 
L 86.405262 -359.511276 
L 86.413724 -357.427084 
L 86.42129 -355.342892 
L 86.427953 -353.2587 
L 86.433706 -351.174509 
L 86.438541 -349.090317 
L 86.442451 -347.006125 
L 86.445429 -344.921933 
L 86.447467 -342.837742 
L 86.448561 -340.75355 
L 86.448704 -338.669358 
L 86.447892 -336.585166 
L 86.446124 -334.500974 
L 86.443396 -332.416783 
L 86.439711 -330.332591 
L 86.43507 -328.248399 
L 86.429478 -326.164207 
L 86.422942 -324.080016 
L 86.415472 -321.995824 
L 86.407079 -319.911632 
L 86.397778 -317.82744 
L 86.387587 -315.743249 
L 86.376525 -313.659057 
L 86.364616 -311.574865 
L 86.351884 -309.490673 
L 86.338358 -307.406481 
L 86.324067 -305.32229 
L 86.309045 -303.238098 
L 86.293327 -301.153906 
L 86.276948 -299.069714 
L 86.259947 -296.985523 
L 86.242363 -294.901331 
L 86.224238 -292.817139 
L 86.205613 -290.732947 
L 86.186529 -288.648755 
L 86.16703 -286.564564 
L 86.147156 -284.480372 
L 86.126951 -282.39618 
L 86.106453 -280.311988 
L 86.085704 -278.227797 
L 86.064742 -276.143605 
L 86.043603 -274.059413 
L 86.022323 -271.975221 
L 86.000933 -269.891029 
L 85.979466 -267.806838 
L 85.957949 -265.722646 
L 85.936407 -263.638454 
L 85.914862 -261.554262 
L 85.893336 -259.470071 
L 85.871845 -257.385879 
L 85.850403 -255.301687 
L 85.829023 -253.217495 
L 85.807711 -251.133303 
L 85.786475 -249.049112 
L 85.765319 -246.96492 
L 85.744243 -244.880728 
L 85.723246 -242.796536 
L 85.702326 -240.712345 
L 85.681479 -238.628153 
L 85.660698 -236.543961 
L 85.639976 -234.459769 
L 85.619305 -232.375578 
L 85.598677 -230.291386 
L 85.578083 -228.207194 
L 85.557513 -226.123002 
L 85.53696 -224.03881 
L 85.516414 -221.954619 
L 85.495869 -219.870427 
L 85.475318 -217.786235 
L 85.454756 -215.702043 
L 85.434181 -213.617852 
L 85.413589 -211.53366 
z
" id="mef84705e9d" style="stroke:#545454;stroke-width:2.5;"/>
    </defs>
    <g clip-path="url(#p343eaf2434)">
     <use style="fill:#d98b5f;stroke:#545454;stroke-width:2.5;" x="0" xlink:href="#mef84705e9d" y="503.420156"/>
    </g>
   </g>
   <g id="PolyCollection_3">
    <defs>
     <path d="M 130.571325 -211.501065 
L 107.597305 -211.501065 
L 108.099695 -213.101488 
L 109.47925 -214.701911 
L 111.401875 -216.302333 
L 113.458559 -217.902756 
L 115.302984 -219.503178 
L 116.73506 -221.103601 
L 117.709304 -222.704024 
L 118.28883 -224.304446 
L 118.583255 -225.904869 
L 118.700383 -227.505292 
L 118.72214 -229.105714 
L 118.700309 -230.706137 
L 118.662446 -232.30656 
L 118.620354 -233.906982 
L 118.577253 -235.507405 
L 118.532663 -237.107827 
L 118.485199 -238.70825 
L 118.433872 -240.308673 
L 118.378481 -241.909095 
L 118.319584 -243.509518 
L 118.258378 -245.109941 
L 118.196597 -246.710363 
L 118.136416 -248.310786 
L 118.080251 -249.911208 
L 118.030445 -251.511631 
L 117.988842 -253.112054 
L 117.95638 -254.712476 
L 117.932789 -256.312899 
L 117.916457 -257.913322 
L 117.904442 -259.513744 
L 117.892662 -261.114167 
L 117.876361 -262.71459 
L 117.85104 -264.315012 
L 117.813914 -265.915435 
L 117.765674 -267.515857 
L 117.711815 -269.11628 
L 117.662628 -270.716703 
L 117.63123 -272.317125 
L 117.629889 -273.917548 
L 117.665924 -275.517971 
L 117.738941 -277.118393 
L 117.840679 -278.718816 
L 117.95754 -280.319238 
L 118.074605 -281.919661 
L 118.179461 -283.520084 
L 118.264524 -285.120506 
L 118.327481 -286.720929 
L 118.370235 -288.321352 
L 118.397155 -289.921774 
L 118.413338 -291.522197 
L 118.423324 -293.122619 
L 118.43042 -294.723042 
L 118.436583 -296.323465 
L 118.442673 -297.923887 
L 118.44889 -299.52431 
L 118.455222 -301.124733 
L 118.461812 -302.725155 
L 118.469218 -304.325578 
L 118.478496 -305.926001 
L 118.491063 -307.526423 
L 118.508304 -309.126846 
L 118.531025 -310.727268 
L 118.558971 -312.327691 
L 118.590681 -313.928114 
L 118.623811 -315.528536 
L 118.655793 -317.128959 
L 118.684511 -318.729382 
L 118.708665 -320.329804 
L 118.72773 -321.930227 
L 118.741623 -323.530649 
L 118.750333 -325.131072 
L 118.753704 -326.731495 
L 118.751471 -328.331917 
L 118.743524 -329.93234 
L 118.730298 -331.532763 
L 118.713135 -333.133185 
L 118.694419 -334.733608 
L 118.677326 -336.334031 
L 118.665157 -337.934453 
L 118.660467 -339.534876 
L 118.66441 -341.135298 
L 118.676649 -342.735721 
L 118.695924 -344.336144 
L 118.720911 -345.936566 
L 118.750828 -347.536989 
L 118.785376 -349.137412 
L 118.824109 -350.737834 
L 118.865724 -352.338257 
L 118.907822 -353.938679 
L 118.947353 -355.539102 
L 118.981503 -357.139525 
L 119.008516 -358.739947 
L 119.02807 -360.34037 
L 119.041106 -361.940793 
L 119.049302 -363.541215 
L 119.054496 -365.141638 
L 119.058243 -366.74206 
L 119.061598 -368.342483 
L 119.065082 -369.942906 
L 119.103549 -369.942906 
L 119.103549 -369.942906 
L 119.107033 -368.342483 
L 119.110388 -366.74206 
L 119.114134 -365.141638 
L 119.119328 -363.541215 
L 119.127525 -361.940793 
L 119.140561 -360.34037 
L 119.160115 -358.739947 
L 119.187128 -357.139525 
L 119.221277 -355.539102 
L 119.260809 -353.938679 
L 119.302907 -352.338257 
L 119.344522 -350.737834 
L 119.383255 -349.137412 
L 119.417803 -347.536989 
L 119.44772 -345.936566 
L 119.472707 -344.336144 
L 119.491981 -342.735721 
L 119.504221 -341.135298 
L 119.508164 -339.534876 
L 119.503474 -337.934453 
L 119.491305 -336.334031 
L 119.474212 -334.733608 
L 119.455496 -333.133185 
L 119.438333 -331.532763 
L 119.425106 -329.93234 
L 119.417159 -328.331917 
L 119.414927 -326.731495 
L 119.418297 -325.131072 
L 119.427008 -323.530649 
L 119.440901 -321.930227 
L 119.459965 -320.329804 
L 119.484119 -318.729382 
L 119.512837 -317.128959 
L 119.54482 -315.528536 
L 119.57795 -313.928114 
L 119.609659 -312.327691 
L 119.637605 -310.727268 
L 119.660327 -309.126846 
L 119.677568 -307.526423 
L 119.690134 -305.926001 
L 119.699412 -304.325578 
L 119.706818 -302.725155 
L 119.713409 -301.124733 
L 119.71974 -299.52431 
L 119.725958 -297.923887 
L 119.732048 -296.323465 
L 119.738211 -294.723042 
L 119.745307 -293.122619 
L 119.755293 -291.522197 
L 119.771476 -289.921774 
L 119.798396 -288.321352 
L 119.841149 -286.720929 
L 119.904106 -285.120506 
L 119.98917 -283.520084 
L 120.094025 -281.919661 
L 120.211091 -280.319238 
L 120.327952 -278.718816 
L 120.42969 -277.118393 
L 120.502707 -275.517971 
L 120.538742 -273.917548 
L 120.537401 -272.317125 
L 120.506003 -270.716703 
L 120.456816 -269.11628 
L 120.402957 -267.515857 
L 120.354717 -265.915435 
L 120.317591 -264.315012 
L 120.292269 -262.71459 
L 120.275969 -261.114167 
L 120.264189 -259.513744 
L 120.252174 -257.913322 
L 120.235841 -256.312899 
L 120.212251 -254.712476 
L 120.179789 -253.112054 
L 120.138186 -251.511631 
L 120.08838 -249.911208 
L 120.032215 -248.310786 
L 119.972033 -246.710363 
L 119.910253 -245.109941 
L 119.849047 -243.509518 
L 119.79015 -241.909095 
L 119.734759 -240.308673 
L 119.683432 -238.70825 
L 119.635968 -237.107827 
L 119.591378 -235.507405 
L 119.548277 -233.906982 
L 119.506184 -232.30656 
L 119.468322 -230.706137 
L 119.44649 -229.105714 
L 119.468248 -227.505292 
L 119.585376 -225.904869 
L 119.879801 -224.304446 
L 120.459326 -222.704024 
L 121.433571 -221.103601 
L 122.865647 -219.503178 
L 124.710072 -217.902756 
L 126.766756 -216.302333 
L 128.689381 -214.701911 
L 130.068936 -213.101488 
L 130.571325 -211.501065 
z
" id="m9a0a7b74b2" style="stroke:#545454;stroke-width:2.5;"/>
    </defs>
    <g clip-path="url(#p343eaf2434)">
     <use style="fill:#597dbf;stroke:#545454;stroke-width:2.5;" x="0" xlink:href="#m9a0a7b74b2" y="503.420156"/>
    </g>
   </g>
   <g id="PolyCollection_4">
    <defs>
     <path d="M 142.858811 -211.521313 
L 141.25786 -211.521313 
L 141.236568 -212.829246 
L 141.215281 -214.137178 
L 141.194001 -215.445111 
L 141.172726 -216.753043 
L 141.151453 -218.060976 
L 141.130179 -219.368908 
L 141.1089 -220.676841 
L 141.087611 -221.984773 
L 141.066306 -223.292706 
L 141.044979 -224.600638 
L 141.023626 -225.908571 
L 141.002242 -227.216503 
L 140.980821 -228.524436 
L 140.959361 -229.832368 
L 140.937861 -231.1403 
L 140.916319 -232.448233 
L 140.894737 -233.756165 
L 140.873119 -235.064098 
L 140.85147 -236.37203 
L 140.829798 -237.679963 
L 140.808114 -238.987895 
L 140.786431 -240.295828 
L 140.764764 -241.60376 
L 140.743133 -242.911693 
L 140.721557 -244.219625 
L 140.700063 -245.527558 
L 140.678675 -246.83549 
L 140.657423 -248.143423 
L 140.636339 -249.451355 
L 140.615456 -250.759288 
L 140.594811 -252.06722 
L 140.57444 -253.375153 
L 140.554382 -254.683085 
L 140.534679 -255.991018 
L 140.51537 -257.29895 
L 140.496497 -258.606883 
L 140.478103 -259.914815 
L 140.460229 -261.222748 
L 140.442916 -262.53068 
L 140.426206 -263.838613 
L 140.410138 -265.146545 
L 140.394749 -266.454477 
L 140.380076 -267.76241 
L 140.366154 -269.070342 
L 140.353015 -270.378275 
L 140.340689 -271.686207 
L 140.329202 -272.99414 
L 140.31858 -274.302072 
L 140.308842 -275.610005 
L 140.300009 -276.917937 
L 140.292094 -278.22587 
L 140.28511 -279.533802 
L 140.279067 -280.841735 
L 140.273969 -282.149667 
L 140.269822 -283.4576 
L 140.266625 -284.765532 
L 140.264376 -286.073465 
L 140.263071 -287.381397 
L 140.262703 -288.68933 
L 140.263265 -289.997262 
L 140.264746 -291.305195 
L 140.267135 -292.613127 
L 140.270419 -293.92106 
L 140.274586 -295.228992 
L 140.279622 -296.536925 
L 140.285513 -297.844857 
L 140.292246 -299.15279 
L 140.299806 -300.460722 
L 140.308181 -301.768654 
L 140.317359 -303.076587 
L 140.327328 -304.384519 
L 140.338077 -305.692452 
L 140.349598 -307.000384 
L 140.361881 -308.308317 
L 140.37492 -309.616249 
L 140.388709 -310.924182 
L 140.403243 -312.232114 
L 140.418517 -313.540047 
L 140.434529 -314.847979 
L 140.451275 -316.155912 
L 140.468754 -317.463844 
L 140.486963 -318.771777 
L 140.505902 -320.079709 
L 140.525567 -321.387642 
L 140.545955 -322.695574 
L 140.567063 -324.003507 
L 140.588886 -325.311439 
L 140.611418 -326.619372 
L 140.63465 -327.927304 
L 140.658572 -329.235237 
L 140.683173 -330.543169 
L 140.708436 -331.851102 
L 140.734345 -333.159034 
L 140.760879 -334.466966 
L 140.788014 -335.774899 
L 140.815724 -337.082831 
L 140.843979 -338.390764 
L 140.872747 -339.698696 
L 140.90199 -341.006629 
L 143.214681 -341.006629 
L 143.214681 -341.006629 
L 143.243924 -339.698696 
L 143.272692 -338.390764 
L 143.300947 -337.082831 
L 143.328657 -335.774899 
L 143.355792 -334.466966 
L 143.382326 -333.159034 
L 143.408235 -331.851102 
L 143.433498 -330.543169 
L 143.458099 -329.235237 
L 143.482021 -327.927304 
L 143.505253 -326.619372 
L 143.527785 -325.311439 
L 143.549608 -324.003507 
L 143.570716 -322.695574 
L 143.591104 -321.387642 
L 143.610769 -320.079709 
L 143.629708 -318.771777 
L 143.647917 -317.463844 
L 143.665396 -316.155912 
L 143.682142 -314.847979 
L 143.698154 -313.540047 
L 143.713428 -312.232114 
L 143.727962 -310.924182 
L 143.741751 -309.616249 
L 143.75479 -308.308317 
L 143.767073 -307.000384 
L 143.778594 -305.692452 
L 143.789343 -304.384519 
L 143.799312 -303.076587 
L 143.80849 -301.768654 
L 143.816865 -300.460722 
L 143.824425 -299.15279 
L 143.831158 -297.844857 
L 143.837049 -296.536925 
L 143.842085 -295.228992 
L 143.846252 -293.92106 
L 143.849536 -292.613127 
L 143.851925 -291.305195 
L 143.853406 -289.997262 
L 143.853968 -288.68933 
L 143.8536 -287.381397 
L 143.852295 -286.073465 
L 143.850046 -284.765532 
L 143.846849 -283.4576 
L 143.842702 -282.149667 
L 143.837604 -280.841735 
L 143.831561 -279.533802 
L 143.824577 -278.22587 
L 143.816662 -276.917937 
L 143.807829 -275.610005 
L 143.798091 -274.302072 
L 143.787469 -272.99414 
L 143.775982 -271.686207 
L 143.763656 -270.378275 
L 143.750517 -269.070342 
L 143.736595 -267.76241 
L 143.721922 -266.454477 
L 143.706533 -265.146545 
L 143.690465 -263.838613 
L 143.673755 -262.53068 
L 143.656442 -261.222748 
L 143.638568 -259.914815 
L 143.620174 -258.606883 
L 143.601301 -257.29895 
L 143.581992 -255.991018 
L 143.562289 -254.683085 
L 143.542231 -253.375153 
L 143.52186 -252.06722 
L 143.501215 -250.759288 
L 143.480332 -249.451355 
L 143.459248 -248.143423 
L 143.437996 -246.83549 
L 143.416608 -245.527558 
L 143.395114 -244.219625 
L 143.373538 -242.911693 
L 143.351907 -241.60376 
L 143.33024 -240.295828 
L 143.308557 -238.987895 
L 143.286873 -237.679963 
L 143.265201 -236.37203 
L 143.243552 -235.064098 
L 143.221934 -233.756165 
L 143.200352 -232.448233 
L 143.17881 -231.1403 
L 143.15731 -229.832368 
L 143.13585 -228.524436 
L 143.114429 -227.216503 
L 143.093045 -225.908571 
L 143.071692 -224.600638 
L 143.050365 -223.292706 
L 143.02906 -221.984773 
L 143.007771 -220.676841 
L 142.986492 -219.368908 
L 142.965218 -218.060976 
L 142.943945 -216.753043 
L 142.92267 -215.445111 
L 142.90139 -214.137178 
L 142.880103 -212.829246 
L 142.858811 -211.521313 
z
" id="m50be6a507c" style="stroke:#545454;stroke-width:2.5;"/>
    </defs>
    <g clip-path="url(#p343eaf2434)">
     <use style="fill:#d98b5f;stroke:#545454;stroke-width:2.5;" x="0" xlink:href="#m50be6a507c" y="503.420156"/>
    </g>
   </g>
   <g id="PolyCollection_5">
    <defs>
     <path d="M 188.006376 -211.501065 
L 165.032356 -211.501065 
L 165.458731 -213.741007 
L 166.645375 -215.980949 
L 168.346174 -218.22089 
L 170.244526 -220.460832 
L 172.047727 -222.700774 
L 173.555088 -224.940715 
L 174.680603 -227.180657 
L 175.43486 -229.420599 
L 175.886025 -231.66054 
L 176.12083 -233.900482 
L 176.218061 -236.140424 
L 176.23687 -238.380365 
L 176.215829 -240.620307 
L 176.177161 -242.860249 
L 176.132057 -245.10019 
L 176.085163 -247.340132 
L 176.037776 -249.580074 
L 175.989886 -251.820015 
L 175.941322 -254.059957 
L 175.892186 -256.299899 
L 175.842828 -258.53984 
L 175.793614 -260.779782 
L 175.74473 -263.019724 
L 175.696173 -265.259665 
L 175.647936 -267.499607 
L 175.600295 -269.739549 
L 175.55402 -271.97949 
L 175.510404 -274.219432 
L 175.471065 -276.459374 
L 175.437573 -278.699315 
L 175.411059 -280.939257 
L 175.39191 -283.179199 
L 175.379651 -285.41914 
L 175.373001 -287.659082 
L 175.370053 -289.899024 
L 175.368503 -292.138965 
L 175.365893 -294.378907 
L 175.359855 -296.618849 
L 175.348412 -298.85879 
L 175.330364 -301.098732 
L 175.30575 -303.338674 
L 175.276246 -305.578615 
L 175.245361 -307.818557 
L 175.218227 -310.058499 
L 175.200911 -312.29844 
L 175.199308 -314.538382 
L 175.217844 -316.778324 
L 175.258313 -319.018265 
L 175.319206 -321.258207 
L 175.395771 -323.498149 
L 175.480857 -325.73809 
L 175.566363 -327.978032 
L 175.644897 -330.217974 
L 175.711197 -332.457915 
L 175.762904 -334.697857 
L 175.800516 -336.937799 
L 175.826609 -339.17774 
L 175.844677 -341.417682 
L 175.857988 -343.657624 
L 175.868822 -345.897565 
L 175.878235 -348.137507 
L 175.886295 -350.377449 
L 175.892604 -352.61739 
L 175.896845 -354.857332 
L 175.89919 -357.097274 
L 175.900445 -359.337215 
L 175.901963 -361.577157 
L 175.90537 -363.817099 
L 175.912225 -366.05704 
L 175.923706 -368.296982 
L 175.940398 -370.536924 
L 175.962219 -372.776865 
L 175.988455 -375.016807 
L 176.017901 -377.256749 
L 176.049066 -379.49669 
L 176.080397 -381.736632 
L 176.11051 -383.976574 
L 176.138367 -386.216515 
L 176.16338 -388.456457 
L 176.185409 -390.696399 
L 176.204638 -392.93634 
L 176.221364 -395.176282 
L 176.235726 -397.416224 
L 176.247494 -399.656165 
L 176.256001 -401.896107 
L 176.260313 -404.136049 
L 176.259642 -406.37599 
L 176.253869 -408.615932 
L 176.243985 -410.855874 
L 176.23221 -413.095815 
L 176.221685 -415.335757 
L 176.2158 -417.575699 
L 176.217406 -419.81564 
L 176.228181 -422.055582 
L 176.248327 -424.295524 
L 176.276634 -426.535465 
L 176.310804 -428.775407 
L 176.347908 -431.015349 
L 176.384894 -433.25529 
L 176.653838 -433.25529 
L 176.653838 -433.25529 
L 176.690824 -431.015349 
L 176.727928 -428.775407 
L 176.762097 -426.535465 
L 176.790405 -424.295524 
L 176.810551 -422.055582 
L 176.821325 -419.81564 
L 176.822932 -417.575699 
L 176.817046 -415.335757 
L 176.806521 -413.095815 
L 176.794747 -410.855874 
L 176.784863 -408.615932 
L 176.779089 -406.37599 
L 176.778418 -404.136049 
L 176.782731 -401.896107 
L 176.791237 -399.656165 
L 176.803005 -397.416224 
L 176.817368 -395.176282 
L 176.834093 -392.93634 
L 176.853322 -390.696399 
L 176.875351 -388.456457 
L 176.900364 -386.216515 
L 176.928222 -383.976574 
L 176.958334 -381.736632 
L 176.989666 -379.49669 
L 177.02083 -377.256749 
L 177.050277 -375.016807 
L 177.076512 -372.776865 
L 177.098333 -370.536924 
L 177.115026 -368.296982 
L 177.126506 -366.05704 
L 177.133361 -363.817099 
L 177.136769 -361.577157 
L 177.138287 -359.337215 
L 177.139542 -357.097274 
L 177.141886 -354.857332 
L 177.146128 -352.61739 
L 177.152437 -350.377449 
L 177.160497 -348.137507 
L 177.169909 -345.897565 
L 177.180743 -343.657624 
L 177.194054 -341.417682 
L 177.212122 -339.17774 
L 177.238216 -336.937799 
L 177.275827 -334.697857 
L 177.327535 -332.457915 
L 177.393834 -330.217974 
L 177.472368 -327.978032 
L 177.557874 -325.73809 
L 177.642961 -323.498149 
L 177.719526 -321.258207 
L 177.780418 -319.018265 
L 177.820887 -316.778324 
L 177.839423 -314.538382 
L 177.837821 -312.29844 
L 177.820505 -310.058499 
L 177.793371 -307.818557 
L 177.762486 -305.578615 
L 177.732981 -303.338674 
L 177.708367 -301.098732 
L 177.69032 -298.85879 
L 177.678876 -296.618849 
L 177.672838 -294.378907 
L 177.670228 -292.138965 
L 177.668679 -289.899024 
L 177.66573 -287.659082 
L 177.65908 -285.41914 
L 177.646821 -283.179199 
L 177.627673 -280.939257 
L 177.601158 -278.699315 
L 177.567667 -276.459374 
L 177.528327 -274.219432 
L 177.484712 -271.97949 
L 177.438436 -269.739549 
L 177.390795 -267.499607 
L 177.342559 -265.259665 
L 177.294002 -263.019724 
L 177.245118 -260.779782 
L 177.195904 -258.53984 
L 177.146545 -256.299899 
L 177.097409 -254.059957 
L 177.048845 -251.820015 
L 177.000956 -249.580074 
L 176.953568 -247.340132 
L 176.906675 -245.10019 
L 176.861571 -242.860249 
L 176.822903 -240.620307 
L 176.801862 -238.380365 
L 176.82067 -236.140424 
L 176.917901 -233.900482 
L 177.152706 -231.66054 
L 177.603872 -229.420599 
L 178.358128 -227.180657 
L 179.483643 -224.940715 
L 180.991005 -222.700774 
L 182.794205 -220.460832 
L 184.692558 -218.22089 
L 186.393357 -215.980949 
L 187.58 -213.741007 
L 188.006376 -211.501065 
z
" id="ma79e524a3a" style="stroke:#545454;stroke-width:2.5;"/>
    </defs>
    <g clip-path="url(#p343eaf2434)">
     <use style="fill:#597dbf;stroke:#545454;stroke-width:2.5;" x="0" xlink:href="#ma79e524a3a" y="503.420156"/>
    </g>
   </g>
   <g id="PolyCollection_6">
    <defs>
     <path d="M 200.2736 -211.533308 
L 198.713171 -211.533308 
L 198.692378 -213.583455 
L 198.67162 -215.633602 
L 198.650899 -217.683749 
L 198.63021 -219.733896 
L 198.609549 -221.784043 
L 198.58891 -223.834189 
L 198.568286 -225.884336 
L 198.547669 -227.934483 
L 198.527048 -229.98463 
L 198.506414 -232.034777 
L 198.485758 -234.084924 
L 198.465068 -236.135071 
L 198.444337 -238.185218 
L 198.423555 -240.235365 
L 198.402714 -242.285511 
L 198.381808 -244.335658 
L 198.360832 -246.385805 
L 198.339784 -248.435952 
L 198.318663 -250.486099 
L 198.29747 -252.536246 
L 198.276208 -254.586393 
L 198.254886 -256.63654 
L 198.233512 -258.686686 
L 198.212098 -260.736833 
L 198.190659 -262.78698 
L 198.169215 -264.837127 
L 198.147785 -266.887274 
L 198.126394 -268.937421 
L 198.105069 -270.987568 
L 198.083838 -273.037715 
L 198.062734 -275.087862 
L 198.04179 -277.138008 
L 198.021044 -279.188155 
L 198.000534 -281.238302 
L 197.980299 -283.288449 
L 197.960381 -285.338596 
L 197.940823 -287.388743 
L 197.921668 -289.43889 
L 197.90296 -291.489037 
L 197.884744 -293.539183 
L 197.867064 -295.58933 
L 197.849964 -297.639477 
L 197.833488 -299.689624 
L 197.81768 -301.739771 
L 197.80258 -303.789918 
L 197.788231 -305.840065 
L 197.77467 -307.890212 
L 197.761936 -309.940359 
L 197.750065 -311.990505 
L 197.73909 -314.040652 
L 197.729044 -316.090799 
L 197.719955 -318.140946 
L 197.711852 -320.191093 
L 197.704758 -322.24124 
L 197.698698 -324.291387 
L 197.69369 -326.341534 
L 197.689753 -328.391681 
L 197.686901 -330.441827 
L 197.685149 -332.491974 
L 197.684506 -334.542121 
L 197.684981 -336.592268 
L 197.686579 -338.642415 
L 197.689306 -340.692562 
L 197.693162 -342.742709 
L 197.698148 -344.792856 
L 197.704261 -346.843002 
L 197.711497 -348.893149 
L 197.719851 -350.943296 
L 197.729314 -352.993443 
L 197.739879 -355.04359 
L 197.751533 -357.093737 
L 197.764264 -359.143884 
L 197.778059 -361.194031 
L 197.792902 -363.244178 
L 197.808776 -365.294324 
L 197.825663 -367.344471 
L 197.843543 -369.394618 
L 197.862395 -371.444765 
L 197.882196 -373.494912 
L 197.902923 -375.545059 
L 197.92455 -377.595206 
L 197.94705 -379.645353 
L 197.970394 -381.695499 
L 197.994554 -383.745646 
L 198.019498 -385.795793 
L 198.045192 -387.84594 
L 198.071603 -389.896087 
L 198.098695 -391.946234 
L 198.126431 -393.996381 
L 198.154771 -396.046528 
L 198.183676 -398.096675 
L 198.213104 -400.146821 
L 198.243012 -402.196968 
L 198.273356 -404.247115 
L 198.304089 -406.297262 
L 198.335165 -408.347409 
L 198.366537 -410.397556 
L 198.398154 -412.447703 
L 198.429969 -414.49785 
L 200.556803 -414.49785 
L 200.556803 -414.49785 
L 200.588617 -412.447703 
L 200.620235 -410.397556 
L 200.651606 -408.347409 
L 200.682683 -406.297262 
L 200.713416 -404.247115 
L 200.743759 -402.196968 
L 200.773667 -400.146821 
L 200.803095 -398.096675 
L 200.832 -396.046528 
L 200.860341 -393.996381 
L 200.888076 -391.946234 
L 200.915168 -389.896087 
L 200.94158 -387.84594 
L 200.967274 -385.795793 
L 200.992218 -383.745646 
L 201.016377 -381.695499 
L 201.039722 -379.645353 
L 201.062222 -377.595206 
L 201.083849 -375.545059 
L 201.104576 -373.494912 
L 201.124377 -371.444765 
L 201.143229 -369.394618 
L 201.161109 -367.344471 
L 201.177996 -365.294324 
L 201.19387 -363.244178 
L 201.208713 -361.194031 
L 201.222508 -359.143884 
L 201.235239 -357.093737 
L 201.246893 -355.04359 
L 201.257457 -352.993443 
L 201.266921 -350.943296 
L 201.275275 -348.893149 
L 201.282511 -346.843002 
L 201.288624 -344.792856 
L 201.293609 -342.742709 
L 201.297466 -340.692562 
L 201.300192 -338.642415 
L 201.301791 -336.592268 
L 201.302266 -334.542121 
L 201.301623 -332.491974 
L 201.29987 -330.441827 
L 201.297019 -328.391681 
L 201.293082 -326.341534 
L 201.288074 -324.291387 
L 201.282013 -322.24124 
L 201.27492 -320.191093 
L 201.266816 -318.140946 
L 201.257728 -316.090799 
L 201.247681 -314.040652 
L 201.236707 -311.990505 
L 201.224835 -309.940359 
L 201.212102 -307.890212 
L 201.198541 -305.840065 
L 201.184191 -303.789918 
L 201.169092 -301.739771 
L 201.153283 -299.689624 
L 201.136808 -297.639477 
L 201.119708 -295.58933 
L 201.102028 -293.539183 
L 201.083812 -291.489037 
L 201.065104 -289.43889 
L 201.045949 -287.388743 
L 201.02639 -285.338596 
L 201.006473 -283.288449 
L 200.986238 -281.238302 
L 200.965727 -279.188155 
L 200.944981 -277.138008 
L 200.924038 -275.087862 
L 200.902934 -273.037715 
L 200.881703 -270.987568 
L 200.860377 -268.937421 
L 200.838986 -266.887274 
L 200.817557 -264.837127 
L 200.796112 -262.78698 
L 200.774674 -260.736833 
L 200.75326 -258.686686 
L 200.731886 -256.63654 
L 200.710563 -254.586393 
L 200.689302 -252.536246 
L 200.668109 -250.486099 
L 200.646987 -248.435952 
L 200.625939 -246.385805 
L 200.604964 -244.335658 
L 200.584058 -242.285511 
L 200.563217 -240.235365 
L 200.542435 -238.185218 
L 200.521703 -236.135071 
L 200.501014 -234.084924 
L 200.480357 -232.034777 
L 200.459724 -229.98463 
L 200.439103 -227.934483 
L 200.418485 -225.884336 
L 200.397861 -223.834189 
L 200.377223 -221.784043 
L 200.356562 -219.733896 
L 200.335873 -217.683749 
L 200.315151 -215.633602 
L 200.294394 -213.583455 
L 200.2736 -211.533308 
z
" id="m5438ae6bf3" style="stroke:#545454;stroke-width:2.5;"/>
    </defs>
    <g clip-path="url(#p343eaf2434)">
     <use style="fill:#d98b5f;stroke:#545454;stroke-width:2.5;" x="0" xlink:href="#m5438ae6bf3" y="503.420156"/>
    </g>
   </g>
   <g id="PolyCollection_7">
    <defs>
     <path d="M 245.441426 -211.501065 
L 222.467406 -211.501065 
L 222.905662 -212.934498 
L 224.122959 -214.367931 
L 225.8598 -215.801363 
L 227.784978 -217.234796 
L 229.596422 -218.668229 
L 231.092188 -220.101662 
L 232.191709 -221.535094 
L 232.913891 -222.968527 
L 233.334422 -224.40196 
L 233.544775 -225.835392 
L 233.625492 -227.268825 
L 233.635291 -228.702258 
L 233.611118 -230.13569 
L 233.573157 -231.569123 
L 233.530651 -233.002556 
L 233.486679 -234.435988 
L 233.441469 -235.869421 
L 233.394442 -237.302854 
L 233.345265 -238.736287 
L 233.294183 -240.169719 
L 233.241916 -241.603152 
L 233.189379 -243.036585 
L 233.137435 -244.470017 
L 233.086813 -245.90345 
L 233.038164 -247.336883 
L 232.992195 -248.770315 
L 232.94975 -250.203748 
L 232.911783 -251.637181 
L 232.879219 -253.070613 
L 232.852752 -254.504046 
L 232.832629 -255.937479 
L 232.818443 -257.370912 
L 232.80895 -258.804344 
L 232.801946 -260.237777 
L 232.794313 -261.67121 
L 232.782354 -263.104642 
L 232.762539 -264.538075 
L 232.732594 -265.971508 
L 232.692724 -267.40494 
L 232.646515 -268.838373 
L 232.60103 -270.271806 
L 232.565785 -271.705238 
L 232.550642 -273.138671 
L 232.563193 -274.572104 
L 232.606505 -276.005537 
L 232.678082 -277.438969 
L 232.770447 -278.872402 
L 232.873104 -280.305835 
L 232.975118 -281.739267 
L 233.06743 -283.1727 
L 233.144244 -284.606133 
L 233.203308 -286.039565 
L 233.245308 -287.472998 
L 233.272804 -288.906431 
L 233.289146 -290.339864 
L 233.297642 -291.773296 
L 233.301105 -293.206729 
L 233.301701 -294.640162 
L 233.30101 -296.073594 
L 233.300165 -297.507027 
L 233.299985 -298.94046 
L 233.301101 -300.373892 
L 233.304059 -301.807325 
L 233.309402 -303.240758 
L 233.317715 -304.67419 
L 233.329587 -306.107623 
L 233.345479 -307.541056 
L 233.365512 -308.974489 
L 233.389277 -310.407921 
L 233.415761 -311.841354 
L 233.443474 -313.274787 
L 233.470783 -314.708219 
L 233.496309 -316.141652 
L 233.519243 -317.575085 
L 233.539436 -319.008517 
L 233.557242 -320.44195 
L 233.57324 -321.875383 
L 233.587961 -323.308815 
L 233.601757 -324.742248 
L 233.614786 -326.175681 
L 233.627057 -327.609114 
L 233.63844 -329.042546 
L 233.648651 -330.475979 
L 233.657275 -331.909412 
L 233.663903 -333.342844 
L 233.668376 -334.776277 
L 233.671026 -336.20971 
L 233.67273 -337.643142 
L 233.674701 -339.076575 
L 233.678104 -340.510008 
L 233.683716 -341.94344 
L 233.691854 -343.376873 
L 233.702596 -344.810306 
L 233.716111 -346.243739 
L 233.732815 -347.677171 
L 233.753188 -349.110604 
L 233.777341 -350.544037 
L 233.804612 -351.977469 
L 233.833463 -353.410902 
L 234.075369 -353.410902 
L 234.075369 -353.410902 
L 234.10422 -351.977469 
L 234.131491 -350.544037 
L 234.155644 -349.110604 
L 234.176017 -347.677171 
L 234.192721 -346.243739 
L 234.206236 -344.810306 
L 234.216978 -343.376873 
L 234.225116 -341.94344 
L 234.230728 -340.510008 
L 234.234131 -339.076575 
L 234.236102 -337.643142 
L 234.237806 -336.20971 
L 234.240456 -334.776277 
L 234.244929 -333.342844 
L 234.251557 -331.909412 
L 234.260181 -330.475979 
L 234.270392 -329.042546 
L 234.281775 -327.609114 
L 234.294046 -326.175681 
L 234.307075 -324.742248 
L 234.320871 -323.308815 
L 234.335592 -321.875383 
L 234.35159 -320.44195 
L 234.369396 -319.008517 
L 234.389589 -317.575085 
L 234.412523 -316.141652 
L 234.438049 -314.708219 
L 234.465358 -313.274787 
L 234.493071 -311.841354 
L 234.519555 -310.407921 
L 234.54332 -308.974489 
L 234.563353 -307.541056 
L 234.579245 -306.107623 
L 234.591117 -304.67419 
L 234.59943 -303.240758 
L 234.604773 -301.807325 
L 234.607731 -300.373892 
L 234.608847 -298.94046 
L 234.608667 -297.507027 
L 234.607822 -296.073594 
L 234.607131 -294.640162 
L 234.607727 -293.206729 
L 234.61119 -291.773296 
L 234.619686 -290.339864 
L 234.636028 -288.906431 
L 234.663524 -287.472998 
L 234.705524 -286.039565 
L 234.764588 -284.606133 
L 234.841402 -283.1727 
L 234.933714 -281.739267 
L 235.035728 -280.305835 
L 235.138385 -278.872402 
L 235.23075 -277.438969 
L 235.302327 -276.005537 
L 235.345639 -274.572104 
L 235.35819 -273.138671 
L 235.343047 -271.705238 
L 235.307802 -270.271806 
L 235.262317 -268.838373 
L 235.216108 -267.40494 
L 235.176238 -265.971508 
L 235.146293 -264.538075 
L 235.126477 -263.104642 
L 235.114519 -261.67121 
L 235.106886 -260.237777 
L 235.099882 -258.804344 
L 235.090389 -257.370912 
L 235.076203 -255.937479 
L 235.05608 -254.504046 
L 235.029613 -253.070613 
L 234.997049 -251.637181 
L 234.959082 -250.203748 
L 234.916637 -248.770315 
L 234.870668 -247.336883 
L 234.822019 -245.90345 
L 234.771397 -244.470017 
L 234.719453 -243.036585 
L 234.666916 -241.603152 
L 234.614649 -240.169719 
L 234.563567 -238.736287 
L 234.51439 -237.302854 
L 234.467363 -235.869421 
L 234.422153 -234.435988 
L 234.378181 -233.002556 
L 234.335675 -231.569123 
L 234.297713 -230.13569 
L 234.273541 -228.702258 
L 234.28334 -227.268825 
L 234.364057 -225.835392 
L 234.57441 -224.40196 
L 234.994941 -222.968527 
L 235.717123 -221.535094 
L 236.816644 -220.101662 
L 238.31241 -218.668229 
L 240.123854 -217.234796 
L 242.049032 -215.801363 
L 243.785873 -214.367931 
L 245.00317 -212.934498 
L 245.441426 -211.501065 
z
" id="mb1131432ff" style="stroke:#545454;stroke-width:2.5;"/>
    </defs>
    <g clip-path="url(#p343eaf2434)">
     <use style="fill:#597dbf;stroke:#545454;stroke-width:2.5;" x="0" xlink:href="#mb1131432ff" y="503.420156"/>
    </g>
   </g>
   <g id="PolyCollection_8">
    <defs>
     <path d="M 257.716908 -211.521313 
L 256.139964 -211.521313 
L 256.118656 -212.821112 
L 256.097369 -214.12091 
L 256.076104 -215.420709 
L 256.054858 -216.720507 
L 256.033629 -218.020305 
L 256.012413 -219.320104 
L 255.991202 -220.619902 
L 255.969992 -221.919701 
L 255.948775 -223.219499 
L 255.927544 -224.519298 
L 255.90629 -225.819096 
L 255.885008 -227.118895 
L 255.863689 -228.418693 
L 255.842329 -229.718491 
L 255.820923 -231.01829 
L 255.799469 -232.318088 
L 255.777964 -233.617887 
L 255.75641 -234.917685 
L 255.734809 -236.217484 
L 255.713167 -237.517282 
L 255.691493 -238.817081 
L 255.669796 -240.116879 
L 255.648091 -241.416677 
L 255.626393 -242.716476 
L 255.604723 -244.016274 
L 255.583102 -245.316073 
L 255.561557 -246.615871 
L 255.540114 -247.91567 
L 255.518805 -249.215468 
L 255.497662 -250.515267 
L 255.476722 -251.815065 
L 255.456022 -253.114863 
L 255.435602 -254.414662 
L 255.415502 -255.71446 
L 255.395765 -257.014259 
L 255.376436 -258.314057 
L 255.357557 -259.613856 
L 255.339174 -260.913654 
L 255.321332 -262.213453 
L 255.304074 -263.513251 
L 255.287446 -264.813049 
L 255.27149 -266.112848 
L 255.256249 -267.412646 
L 255.241762 -268.712445 
L 255.228069 -270.012243 
L 255.215207 -271.312042 
L 255.203211 -272.61184 
L 255.192113 -273.911639 
L 255.181944 -275.211437 
L 255.172731 -276.511235 
L 255.164499 -277.811034 
L 255.157271 -279.110832 
L 255.151064 -280.410631 
L 255.145896 -281.710429 
L 255.141781 -283.010228 
L 255.138729 -284.310026 
L 255.136749 -285.609825 
L 255.135846 -286.909623 
L 255.136024 -288.209421 
L 255.137282 -289.50922 
L 255.13962 -290.809018 
L 255.143033 -292.108817 
L 255.147516 -293.408615 
L 255.153062 -294.708414 
L 255.159662 -296.008212 
L 255.167305 -297.30801 
L 255.175978 -298.607809 
L 255.18567 -299.907607 
L 255.196365 -301.207406 
L 255.208049 -302.507204 
L 255.220705 -303.807003 
L 255.234318 -305.106801 
L 255.248869 -306.4066 
L 255.264342 -307.706398 
L 255.280716 -309.006196 
L 255.297974 -310.305995 
L 255.316096 -311.605793 
L 255.335063 -312.905592 
L 255.354852 -314.20539 
L 255.375444 -315.505189 
L 255.396816 -316.804987 
L 255.418947 -318.104786 
L 255.441813 -319.404584 
L 255.465389 -320.704382 
L 255.489652 -322.004181 
L 255.514575 -323.303979 
L 255.540131 -324.603778 
L 255.566292 -325.903576 
L 255.593028 -327.203375 
L 255.62031 -328.503173 
L 255.648104 -329.802972 
L 255.676377 -331.10277 
L 255.705096 -332.402568 
L 255.734222 -333.702367 
L 255.763718 -335.002165 
L 255.793546 -336.301964 
L 255.823664 -337.601762 
L 255.854031 -338.901561 
L 255.884603 -340.201359 
L 257.97227 -340.201359 
L 257.97227 -340.201359 
L 258.002842 -338.901561 
L 258.033208 -337.601762 
L 258.063326 -336.301964 
L 258.093154 -335.002165 
L 258.12265 -333.702367 
L 258.151777 -332.402568 
L 258.180495 -331.10277 
L 258.208768 -329.802972 
L 258.236563 -328.503173 
L 258.263844 -327.203375 
L 258.290581 -325.903576 
L 258.316742 -324.603778 
L 258.342298 -323.303979 
L 258.36722 -322.004181 
L 258.391483 -320.704382 
L 258.41506 -319.404584 
L 258.437925 -318.104786 
L 258.460056 -316.804987 
L 258.481428 -315.505189 
L 258.50202 -314.20539 
L 258.52181 -312.905592 
L 258.540776 -311.605793 
L 258.558898 -310.305995 
L 258.576156 -309.006196 
L 258.592531 -307.706398 
L 258.608003 -306.4066 
L 258.622554 -305.106801 
L 258.636167 -303.807003 
L 258.648824 -302.507204 
L 258.660508 -301.207406 
L 258.671203 -299.907607 
L 258.680894 -298.607809 
L 258.689568 -297.30801 
L 258.69721 -296.008212 
L 258.70381 -294.708414 
L 258.709356 -293.408615 
L 258.713839 -292.108817 
L 258.717253 -290.809018 
L 258.71959 -289.50922 
L 258.720848 -288.209421 
L 258.721026 -286.909623 
L 258.720123 -285.609825 
L 258.718143 -284.310026 
L 258.715091 -283.010228 
L 258.710976 -281.710429 
L 258.705808 -280.410631 
L 258.699602 -279.110832 
L 258.692373 -277.811034 
L 258.684141 -276.511235 
L 258.674928 -275.211437 
L 258.664759 -273.911639 
L 258.653661 -272.61184 
L 258.641665 -271.312042 
L 258.628803 -270.012243 
L 258.61511 -268.712445 
L 258.600624 -267.412646 
L 258.585382 -266.112848 
L 258.569426 -264.813049 
L 258.552798 -263.513251 
L 258.535541 -262.213453 
L 258.517698 -260.913654 
L 258.499315 -259.613856 
L 258.480437 -258.314057 
L 258.461107 -257.014259 
L 258.44137 -255.71446 
L 258.421271 -254.414662 
L 258.40085 -253.114863 
L 258.38015 -251.815065 
L 258.35921 -250.515267 
L 258.338068 -249.215468 
L 258.316758 -247.91567 
L 258.295316 -246.615871 
L 258.27377 -245.316073 
L 258.252149 -244.016274 
L 258.230479 -242.716476 
L 258.208782 -241.416677 
L 258.187076 -240.116879 
L 258.165379 -238.817081 
L 258.143705 -237.517282 
L 258.122063 -236.217484 
L 258.100463 -234.917685 
L 258.078908 -233.617887 
L 258.057403 -232.318088 
L 258.035949 -231.01829 
L 258.014543 -229.718491 
L 257.993183 -228.418693 
L 257.971865 -227.118895 
L 257.950582 -225.819096 
L 257.929328 -224.519298 
L 257.908097 -223.219499 
L 257.88688 -221.919701 
L 257.86567 -220.619902 
L 257.84446 -219.320104 
L 257.823243 -218.020305 
L 257.802014 -216.720507 
L 257.780768 -215.420709 
L 257.759503 -214.12091 
L 257.738216 -212.821112 
L 257.716908 -211.521313 
z
" id="m2bb7473ef8" style="stroke:#545454;stroke-width:2.5;"/>
    </defs>
    <g clip-path="url(#p343eaf2434)">
     <use style="fill:#d98b5f;stroke:#545454;stroke-width:2.5;" x="0" xlink:href="#m2bb7473ef8" y="503.420156"/>
    </g>
   </g>
   <g id="PolyCollection_9">
    <defs>
     <path d="M 302.876476 -211.501065 
L 279.902456 -211.501065 
L 280.388526 -212.201123 
L 281.727443 -212.901181 
L 283.604141 -213.601239 
L 285.628952 -214.301297 
L 287.46579 -215.001355 
L 288.913077 -215.701413 
L 289.916137 -216.401471 
L 290.52759 -217.101529 
L 290.84978 -217.801587 
L 290.987574 -218.501645 
L 291.023054 -219.201703 
L 291.009442 -219.901761 
L 290.975807 -220.601819 
L 290.935091 -221.301877 
L 290.891324 -222.001935 
L 290.844683 -222.701993 
L 290.794442 -223.402051 
L 290.740338 -224.102109 
L 290.682917 -224.802167 
L 290.623383 -225.502225 
L 290.563313 -226.202283 
L 290.504429 -226.902341 
L 290.448456 -227.602399 
L 290.397012 -228.302457 
L 290.351446 -229.002515 
L 290.312614 -229.702573 
L 290.280633 -230.402631 
L 290.254679 -231.102689 
L 290.232889 -231.802746 
L 290.212425 -232.502804 
L 290.189753 -233.202862 
L 290.161261 -233.90292 
L 290.124268 -234.602978 
L 290.078378 -235.303036 
L 290.026769 -236.003094 
L 289.976764 -236.703152 
L 289.93899 -237.40321 
L 289.924894 -238.103268 
L 289.943229 -238.803326 
L 289.996871 -239.503384 
L 290.081426 -240.203442 
L 290.186342 -240.9035 
L 290.298041 -241.603558 
L 290.403681 -242.303616 
L 290.494038 -243.003674 
L 290.564696 -243.703732 
L 290.615617 -244.40379 
L 290.649804 -245.103848 
L 290.671793 -245.803906 
L 290.686443 -246.503964 
L 290.698111 -247.204022 
L 290.710139 -247.90408 
L 290.724534 -248.604138 
L 290.741855 -249.304196 
L 290.761317 -250.004254 
L 290.781143 -250.704312 
L 290.799151 -251.40437 
L 290.813453 -252.104428 
L 290.823113 -252.804486 
L 290.828548 -253.504544 
L 290.831525 -254.204602 
L 290.834689 -254.90466 
L 290.84073 -255.604718 
L 290.851504 -256.304775 
L 290.867456 -257.004833 
L 290.887608 -257.704891 
L 290.91007 -258.404949 
L 290.932788 -259.105007 
L 290.954136 -259.805065 
L 290.973126 -260.505123 
L 290.989315 -261.205181 
L 291.002593 -261.905239 
L 291.013084 -262.605297 
L 291.021169 -263.305355 
L 291.027542 -264.005413 
L 291.033178 -264.705471 
L 291.039162 -265.405529 
L 291.046456 -266.105587 
L 291.055718 -266.805645 
L 291.067263 -267.505703 
L 291.08115 -268.205761 
L 291.097285 -268.905819 
L 291.115438 -269.605877 
L 291.135132 -270.305935 
L 291.155511 -271.005993 
L 291.175333 -271.706051 
L 291.193177 -272.406109 
L 291.20779 -273.106167 
L 291.218429 -273.806225 
L 291.225036 -274.506283 
L 291.228222 -275.206341 
L 291.229131 -275.906399 
L 291.229293 -276.606457 
L 291.230481 -277.306515 
L 291.23449 -278.006573 
L 291.242795 -278.706631 
L 291.256102 -279.406689 
L 291.274017 -280.106746 
L 291.295029 -280.806804 
L 291.483904 -280.806804 
L 291.483904 -280.806804 
L 291.504916 -280.106746 
L 291.522831 -279.406689 
L 291.536138 -278.706631 
L 291.544442 -278.006573 
L 291.548452 -277.306515 
L 291.549639 -276.606457 
L 291.549802 -275.906399 
L 291.550711 -275.206341 
L 291.553896 -274.506283 
L 291.560503 -273.806225 
L 291.571142 -273.106167 
L 291.585755 -272.406109 
L 291.603599 -271.706051 
L 291.623422 -271.005993 
L 291.6438 -270.305935 
L 291.663494 -269.605877 
L 291.681647 -268.905819 
L 291.697782 -268.205761 
L 291.711669 -267.505703 
L 291.723215 -266.805645 
L 291.732477 -266.105587 
L 291.73977 -265.405529 
L 291.745754 -264.705471 
L 291.75139 -264.005413 
L 291.757764 -263.305355 
L 291.765848 -262.605297 
L 291.776339 -261.905239 
L 291.789618 -261.205181 
L 291.805806 -260.505123 
L 291.824797 -259.805065 
L 291.846144 -259.105007 
L 291.868863 -258.404949 
L 291.891325 -257.704891 
L 291.911476 -257.004833 
L 291.927428 -256.304775 
L 291.938202 -255.604718 
L 291.944243 -254.90466 
L 291.947407 -254.204602 
L 291.950385 -253.504544 
L 291.955819 -252.804486 
L 291.965479 -252.104428 
L 291.979782 -251.40437 
L 291.99779 -250.704312 
L 292.017616 -250.004254 
L 292.037077 -249.304196 
L 292.054399 -248.604138 
L 292.068794 -247.90408 
L 292.080821 -247.204022 
L 292.09249 -246.503964 
L 292.10714 -245.803906 
L 292.129129 -245.103848 
L 292.163315 -244.40379 
L 292.214237 -243.703732 
L 292.284894 -243.003674 
L 292.375252 -242.303616 
L 292.480891 -241.603558 
L 292.592591 -240.9035 
L 292.697507 -240.203442 
L 292.782062 -239.503384 
L 292.835704 -238.803326 
L 292.854038 -238.103268 
L 292.839942 -237.40321 
L 292.802169 -236.703152 
L 292.752164 -236.003094 
L 292.700555 -235.303036 
L 292.654665 -234.602978 
L 292.617672 -233.90292 
L 292.589179 -233.202862 
L 292.566508 -232.502804 
L 292.546043 -231.802746 
L 292.524254 -231.102689 
L 292.498299 -230.402631 
L 292.466318 -229.702573 
L 292.427486 -229.002515 
L 292.38192 -228.302457 
L 292.330477 -227.602399 
L 292.274504 -226.902341 
L 292.215619 -226.202283 
L 292.15555 -225.502225 
L 292.096016 -224.802167 
L 292.038595 -224.102109 
L 291.98449 -223.402051 
L 291.93425 -222.701993 
L 291.887609 -222.001935 
L 291.843842 -221.301877 
L 291.803126 -220.601819 
L 291.769491 -219.901761 
L 291.755878 -219.201703 
L 291.791358 -218.501645 
L 291.929152 -217.801587 
L 292.251343 -217.101529 
L 292.862796 -216.401471 
L 293.865856 -215.701413 
L 295.313142 -215.001355 
L 297.14998 -214.301297 
L 299.174791 -213.601239 
L 301.05149 -212.901181 
L 302.390407 -212.201123 
L 302.876476 -211.501065 
z
" id="m4efaa56e79" style="stroke:#545454;stroke-width:2.5;"/>
    </defs>
    <g clip-path="url(#p343eaf2434)">
     <use style="fill:#597dbf;stroke:#545454;stroke-width:2.5;" x="0" xlink:href="#m4efaa56e79" y="503.420156"/>
    </g>
   </g>
   <g id="PolyCollection_10">
    <defs>
     <path d="M 315.172434 -211.510171 
L 313.554539 -211.510171 
L 313.531748 -212.12603 
L 313.508946 -212.741889 
L 313.486136 -213.357747 
L 313.463322 -213.973606 
L 313.440508 -214.589465 
L 313.417693 -215.205324 
L 313.394878 -215.821183 
L 313.372065 -216.437042 
L 313.349253 -217.052901 
L 313.326442 -217.668759 
L 313.303633 -218.284618 
L 313.280826 -218.900477 
L 313.258026 -219.516336 
L 313.235234 -220.132195 
L 313.212456 -220.748054 
L 313.189698 -221.363912 
L 313.166971 -221.979771 
L 313.144283 -222.59563 
L 313.12165 -223.211489 
L 313.099086 -223.827348 
L 313.076611 -224.443207 
L 313.054245 -225.059065 
L 313.032012 -225.674924 
L 313.00994 -226.290783 
L 312.988057 -226.906642 
L 312.966395 -227.522501 
L 312.944989 -228.13836 
L 312.923875 -228.754219 
L 312.903092 -229.370077 
L 312.882681 -229.985936 
L 312.862684 -230.601795 
L 312.843144 -231.217654 
L 312.824106 -231.833513 
L 312.805615 -232.449372 
L 312.787716 -233.06523 
L 312.770454 -233.681089 
L 312.753874 -234.296948 
L 312.738021 -234.912807 
L 312.722936 -235.528666 
L 312.708661 -236.144525 
L 312.695236 -236.760383 
L 312.682697 -237.376242 
L 312.671079 -237.992101 
L 312.660414 -238.60796 
L 312.650731 -239.223819 
L 312.642054 -239.839678 
L 312.634408 -240.455536 
L 312.627809 -241.071395 
L 312.622274 -241.687254 
L 312.617814 -242.303113 
L 312.614436 -242.918972 
L 312.612145 -243.534831 
L 312.610941 -244.15069 
L 312.610822 -244.766548 
L 312.61178 -245.382407 
L 312.613807 -245.998266 
L 312.61689 -246.614125 
L 312.621015 -247.229984 
L 312.626162 -247.845843 
L 312.632314 -248.461701 
L 312.639447 -249.07756 
L 312.647538 -249.693419 
L 312.656563 -250.309278 
L 312.666495 -250.925137 
L 312.677307 -251.540996 
L 312.688974 -252.156854 
L 312.701465 -252.772713 
L 312.714755 -253.388572 
L 312.728816 -254.004431 
L 312.74362 -254.62029 
L 312.759142 -255.236149 
L 312.775356 -255.852008 
L 312.792237 -256.467866 
L 312.809761 -257.083725 
L 312.827905 -257.699584 
L 312.846648 -258.315443 
L 312.865969 -258.931302 
L 312.885849 -259.547161 
L 312.906269 -260.163019 
L 312.927211 -260.778878 
L 312.948659 -261.394737 
L 312.970595 -262.010596 
L 312.993006 -262.626455 
L 313.015875 -263.242314 
L 313.039186 -263.858172 
L 313.062926 -264.474031 
L 313.087079 -265.08989 
L 313.111629 -265.705749 
L 313.13656 -266.321608 
L 313.161855 -266.937467 
L 313.187496 -267.553326 
L 313.213464 -268.169184 
L 313.23974 -268.785043 
L 313.266301 -269.400902 
L 313.293126 -270.016761 
L 313.320188 -270.63262 
L 313.347464 -271.248479 
L 313.374924 -271.864337 
L 313.40254 -272.480196 
L 315.324432 -272.480196 
L 315.324432 -272.480196 
L 315.352049 -271.864337 
L 315.379509 -271.248479 
L 315.406784 -270.63262 
L 315.433847 -270.016761 
L 315.460672 -269.400902 
L 315.487233 -268.785043 
L 315.513509 -268.169184 
L 315.539477 -267.553326 
L 315.565118 -266.937467 
L 315.590413 -266.321608 
L 315.615344 -265.705749 
L 315.639894 -265.08989 
L 315.664047 -264.474031 
L 315.687786 -263.858172 
L 315.711098 -263.242314 
L 315.733967 -262.626455 
L 315.756377 -262.010596 
L 315.778314 -261.394737 
L 315.799762 -260.778878 
L 315.820704 -260.163019 
L 315.841124 -259.547161 
L 315.861004 -258.931302 
L 315.880325 -258.315443 
L 315.899068 -257.699584 
L 315.917212 -257.083725 
L 315.934736 -256.467866 
L 315.951617 -255.852008 
L 315.96783 -255.236149 
L 315.983352 -254.62029 
L 315.998157 -254.004431 
L 316.012218 -253.388572 
L 316.025507 -252.772713 
L 316.037999 -252.156854 
L 316.049665 -251.540996 
L 316.060478 -250.925137 
L 316.07041 -250.309278 
L 316.079435 -249.693419 
L 316.087526 -249.07756 
L 316.094659 -248.461701 
L 316.100811 -247.845843 
L 316.105958 -247.229984 
L 316.110083 -246.614125 
L 316.113166 -245.998266 
L 316.115193 -245.382407 
L 316.116151 -244.766548 
L 316.116031 -244.15069 
L 316.114828 -243.534831 
L 316.112536 -242.918972 
L 316.109159 -242.303113 
L 316.104698 -241.687254 
L 316.099163 -241.071395 
L 316.092565 -240.455536 
L 316.084918 -239.839678 
L 316.076242 -239.223819 
L 316.066559 -238.60796 
L 316.055894 -237.992101 
L 316.044276 -237.376242 
L 316.031737 -236.760383 
L 316.018311 -236.144525 
L 316.004037 -235.528666 
L 315.988952 -234.912807 
L 315.973098 -234.296948 
L 315.956519 -233.681089 
L 315.939257 -233.06523 
L 315.921358 -232.449372 
L 315.902867 -231.833513 
L 315.883829 -231.217654 
L 315.864289 -230.601795 
L 315.844292 -229.985936 
L 315.823881 -229.370077 
L 315.803098 -228.754219 
L 315.781984 -228.13836 
L 315.760578 -227.522501 
L 315.738916 -226.906642 
L 315.717033 -226.290783 
L 315.694961 -225.674924 
L 315.672728 -225.059065 
L 315.650362 -224.443207 
L 315.627887 -223.827348 
L 315.605323 -223.211489 
L 315.582689 -222.59563 
L 315.560002 -221.979771 
L 315.537274 -221.363912 
L 315.514517 -220.748054 
L 315.491739 -220.132195 
L 315.468947 -219.516336 
L 315.446146 -218.900477 
L 315.42334 -218.284618 
L 315.400531 -217.668759 
L 315.37772 -217.052901 
L 315.354908 -216.437042 
L 315.332094 -215.821183 
L 315.30928 -215.205324 
L 315.286465 -214.589465 
L 315.26365 -213.973606 
L 315.240837 -213.357747 
L 315.218027 -212.741889 
L 315.195225 -212.12603 
L 315.172434 -211.510171 
z
" id="mca14dcdf34" style="stroke:#545454;stroke-width:2.5;"/>
    </defs>
    <g clip-path="url(#p343eaf2434)">
     <use style="fill:#d98b5f;stroke:#545454;stroke-width:2.5;" x="0" xlink:href="#mca14dcdf34" y="503.420156"/>
    </g>
   </g>
   <g id="patch_3">
    <path clip-path="url(#p343eaf2434)" d="M 73.136275 291.919091 
L 73.136275 291.919091 
L 73.136275 291.919091 
L 73.136275 291.919091 
z
" style="fill:#597dbf;stroke:#545454;stroke-linejoin:miter;stroke-width:1.25;"/>
   </g>
   <g id="patch_4">
    <path clip-path="url(#p343eaf2434)" d="M 73.136275 291.919091 
L 73.136275 291.919091 
L 73.136275 291.919091 
L 73.136275 291.919091 
z
" style="fill:#d98b5f;stroke:#545454;stroke-linejoin:miter;stroke-width:1.25;"/>
   </g>
   <g id="line2d_1">
    <path clip-path="url(#p343eaf2434)" d="M 61.649265 291.919091 
L 61.649265 79.577261 
" style="fill:none;stroke:#545454;stroke-linecap:round;stroke-width:2.5;"/>
   </g>
   <g id="line2d_2">
    <path clip-path="url(#p343eaf2434)" d="M 61.649265 291.919091 
L 61.649265 206.966267 
" style="fill:none;stroke:#545454;stroke-linecap:round;stroke-width:7.5;"/>
   </g>
   <g id="line2d_3">
    <path clip-path="url(#p343eaf2434)" d="M 84.623285 291.886497 
L 84.623285 85.551511 
" style="fill:none;stroke:#545454;stroke-linecap:round;stroke-width:2.5;"/>
   </g>
   <g id="line2d_4">
    <path clip-path="url(#p343eaf2434)" d="M 84.623285 214.179918 
L 84.623285 128.582149 
" style="fill:none;stroke:#545454;stroke-linecap:round;stroke-width:7.5;"/>
   </g>
   <g id="line2d_5">
    <path clip-path="url(#p343eaf2434)" d="M 119.084315 291.919091 
L 119.084315 162.438432 
" style="fill:none;stroke:#545454;stroke-linecap:round;stroke-width:2.5;"/>
   </g>
   <g id="line2d_6">
    <path clip-path="url(#p343eaf2434)" d="M 119.084315 291.919091 
L 119.084315 240.11074 
" style="fill:none;stroke:#545454;stroke-linecap:round;stroke-width:7.5;"/>
   </g>
   <g id="line2d_7">
    <path clip-path="url(#p343eaf2434)" d="M 142.058336 291.898843 
L 142.058336 162.413527 
" style="fill:none;stroke:#545454;stroke-linecap:round;stroke-width:2.5;"/>
   </g>
   <g id="line2d_8">
    <path clip-path="url(#p343eaf2434)" d="M 142.058336 244.125602 
L 142.058336 190.715039 
" style="fill:none;stroke:#545454;stroke-linecap:round;stroke-width:7.5;"/>
   </g>
   <g id="line2d_9">
    <path clip-path="url(#p343eaf2434)" d="M 176.519366 291.919091 
L 176.519366 89.713672 
" style="fill:none;stroke:#545454;stroke-linecap:round;stroke-width:2.5;"/>
   </g>
   <g id="line2d_10">
    <path clip-path="url(#p343eaf2434)" d="M 176.519366 291.919091 
L 176.519366 210.98865 
" style="fill:none;stroke:#545454;stroke-linecap:round;stroke-width:7.5;"/>
   </g>
   <g id="line2d_11">
    <path clip-path="url(#p343eaf2434)" d="M 199.493386 291.886848 
L 199.493386 88.922307 
" style="fill:none;stroke:#545454;stroke-linecap:round;stroke-width:2.5;"/>
   </g>
   <g id="line2d_12">
    <path clip-path="url(#p343eaf2434)" d="M 199.493386 217.542073 
L 199.493386 138.557372 
" style="fill:none;stroke:#545454;stroke-linecap:round;stroke-width:7.5;"/>
   </g>
   <g id="line2d_13">
    <path clip-path="url(#p343eaf2434)" d="M 233.954416 291.919091 
L 233.954416 165.857463 
" style="fill:none;stroke:#545454;stroke-linecap:round;stroke-width:2.5;"/>
   </g>
   <g id="line2d_14">
    <path clip-path="url(#p343eaf2434)" d="M 233.954416 291.919091 
L 233.954416 241.478353 
" style="fill:none;stroke:#545454;stroke-linecap:round;stroke-width:7.5;"/>
   </g>
   <g id="line2d_15">
    <path clip-path="url(#p343eaf2434)" d="M 256.928436 291.898843 
L 256.928436 163.218797 
" style="fill:none;stroke:#545454;stroke-linecap:round;stroke-width:2.5;"/>
   </g>
   <g id="line2d_16">
    <path clip-path="url(#p343eaf2434)" d="M 256.928436 245.29717 
L 256.928436 195.302064 
" style="fill:none;stroke:#545454;stroke-linecap:round;stroke-width:7.5;"/>
   </g>
   <g id="line2d_17">
    <path clip-path="url(#p343eaf2434)" d="M 291.389466 291.919091 
L 291.389466 234.921857 
" style="fill:none;stroke:#545454;stroke-linecap:round;stroke-width:2.5;"/>
   </g>
   <g id="line2d_18">
    <path clip-path="url(#p343eaf2434)" d="M 291.389466 291.919091 
L 291.389466 269.112155 
" style="fill:none;stroke:#545454;stroke-linecap:round;stroke-width:7.5;"/>
   </g>
   <g id="line2d_19">
    <path clip-path="url(#p343eaf2434)" d="M 314.363486 291.909985 
L 314.363486 230.93996 
" style="fill:none;stroke:#545454;stroke-linecap:round;stroke-width:2.5;"/>
   </g>
   <g id="line2d_20">
    <path clip-path="url(#p343eaf2434)" d="M 314.363486 270.812079 
L 314.363486 247.480959 
" style="fill:none;stroke:#545454;stroke-linecap:round;stroke-width:7.5;"/>
   </g>
   <g id="patch_5">
    <path d="M 44.41875 304.3 
L 331.594002 304.3 
" style="fill:none;stroke:#262626;stroke-linecap:square;stroke-linejoin:miter;stroke-width:1.875;"/>
   </g>
   <g id="PathCollection_1">
    <defs>
     <path d="M 0 2.5 
C 0.663008 2.5 1.29895 2.236584 1.767767 1.767767 
C 2.236584 1.29895 2.5 0.663008 2.5 0 
C 2.5 -0.663008 2.236584 -1.29895 1.767767 -1.767767 
C 1.29895 -2.236584 0.663008 -2.5 0 -2.5 
C -0.663008 -2.5 -1.29895 -2.236584 -1.767767 -1.767767 
C -2.236584 -1.29895 -2.5 -0.663008 -2.5 0 
C -2.5 0.663008 -2.236584 1.29895 -1.767767 1.767767 
C -1.29895 2.236584 -0.663008 2.5 0 2.5 
z
" id="m4846c2496e" style="stroke:#545454;stroke-width:1.5;"/>
    </defs>
    <g clip-path="url(#p343eaf2434)">
     <use style="fill:#ffffff;stroke:#545454;stroke-width:1.5;" x="61.649265" xlink:href="#m4846c2496e" y="291.919091"/>
    </g>
   </g>
   <g id="PathCollection_2">
    <g clip-path="url(#p343eaf2434)">
     <use style="fill:#ffffff;stroke:#545454;stroke-width:1.5;" x="84.623285" xlink:href="#m4846c2496e" y="176.300152"/>
    </g>
   </g>
   <g id="PathCollection_3">
    <g clip-path="url(#p343eaf2434)">
     <use style="fill:#ffffff;stroke:#545454;stroke-width:1.5;" x="119.084315" xlink:href="#m4846c2496e" y="291.919091"/>
    </g>
   </g>
   <g id="PathCollection_4">
    <g clip-path="url(#p343eaf2434)">
     <use style="fill:#ffffff;stroke:#545454;stroke-width:1.5;" x="142.058336" xlink:href="#m4846c2496e" y="221.943919"/>
    </g>
   </g>
   <g id="PathCollection_5">
    <g clip-path="url(#p343eaf2434)">
     <use style="fill:#ffffff;stroke:#545454;stroke-width:1.5;" x="176.519366" xlink:href="#m4846c2496e" y="291.919091"/>
    </g>
   </g>
   <g id="PathCollection_6">
    <g clip-path="url(#p343eaf2434)">
     <use style="fill:#ffffff;stroke:#545454;stroke-width:1.5;" x="199.493386" xlink:href="#m4846c2496e" y="183.482182"/>
    </g>
   </g>
   <g id="PathCollection_7">
    <g clip-path="url(#p343eaf2434)">
     <use style="fill:#ffffff;stroke:#545454;stroke-width:1.5;" x="233.954416" xlink:href="#m4846c2496e" y="291.919091"/>
    </g>
   </g>
   <g id="PathCollection_8">
    <g clip-path="url(#p343eaf2434)">
     <use style="fill:#ffffff;stroke:#545454;stroke-width:1.5;" x="256.928436" xlink:href="#m4846c2496e" y="224.414052"/>
    </g>
   </g>
   <g id="PathCollection_9">
    <g clip-path="url(#p343eaf2434)">
     <use style="fill:#ffffff;stroke:#545454;stroke-width:1.5;" x="291.389466" xlink:href="#m4846c2496e" y="291.919091"/>
    </g>
   </g>
   <g id="PathCollection_10">
    <g clip-path="url(#p343eaf2434)">
     <use style="fill:#ffffff;stroke:#545454;stroke-width:1.5;" x="314.363486" xlink:href="#m4846c2496e" y="261.477868"/>
    </g>
   </g>
  </g>
  <g id="text_14">
   <!-- RYE -->
   <g style="fill:#262626;" transform="translate(193.893102 16.412625)scale(0.216 -0.216)">
    <defs>
     <path d="M 9.8125 72.90625 
L 55.90625 72.90625 
L 55.90625 64.59375 
L 19.671875 64.59375 
L 19.671875 43.015625 
L 54.390625 43.015625 
L 54.390625 34.71875 
L 19.671875 34.71875 
L 19.671875 8.296875 
L 56.78125 8.296875 
L 56.78125 0 
L 9.8125 0 
z
" id="DejaVuSans-69"/>
    </defs>
    <use xlink:href="#DejaVuSans-82"/>
    <use x="63.107422" xlink:href="#DejaVuSans-89"/>
    <use x="124.191406" xlink:href="#DejaVuSans-69"/>
   </g>
  </g>
  <g id="legend_1">
   <g id="patch_6">
    <path d="M 326.496711 244.153594 
L 359.496711 244.153594 
L 359.496711 232.603594 
L 326.496711 232.603594 
z
" style="fill:#597dbf;stroke:#545454;stroke-linejoin:miter;stroke-width:1.25;"/>
   </g>
   <g id="text_15">
    <!-- actual -->
    <g style="fill:#262626;" transform="translate(372.696711 244.153594)scale(0.165 -0.165)">
     <defs>
      <path d="M 48.78125 52.59375 
L 48.78125 44.1875 
Q 44.96875 46.296875 41.140625 47.34375 
Q 37.3125 48.390625 33.40625 48.390625 
Q 24.65625 48.390625 19.8125 42.84375 
Q 14.984375 37.3125 14.984375 27.296875 
Q 14.984375 17.28125 19.8125 11.734375 
Q 24.65625 6.203125 33.40625 6.203125 
Q 37.3125 6.203125 41.140625 7.25 
Q 44.96875 8.296875 48.78125 10.40625 
L 48.78125 2.09375 
Q 45.015625 0.34375 40.984375 -0.53125 
Q 36.96875 -1.421875 32.421875 -1.421875 
Q 20.0625 -1.421875 12.78125 6.34375 
Q 5.515625 14.109375 5.515625 27.296875 
Q 5.515625 40.671875 12.859375 48.328125 
Q 20.21875 56 33.015625 56 
Q 37.15625 56 41.109375 55.140625 
Q 45.0625 54.296875 48.78125 52.59375 
z
" id="DejaVuSans-99"/>
      <path d="M 8.5 21.578125 
L 8.5 54.6875 
L 17.484375 54.6875 
L 17.484375 21.921875 
Q 17.484375 14.15625 20.5 10.265625 
Q 23.53125 6.390625 29.59375 6.390625 
Q 36.859375 6.390625 41.078125 11.03125 
Q 45.3125 15.671875 45.3125 23.6875 
L 45.3125 54.6875 
L 54.296875 54.6875 
L 54.296875 0 
L 45.3125 0 
L 45.3125 8.40625 
Q 42.046875 3.421875 37.71875 1 
Q 33.40625 -1.421875 27.6875 -1.421875 
Q 18.265625 -1.421875 13.375 4.4375 
Q 8.5 10.296875 8.5 21.578125 
z
M 31.109375 56 
z
" id="DejaVuSans-117"/>
     </defs>
     <use xlink:href="#DejaVuSans-97"/>
     <use x="61.279297" xlink:href="#DejaVuSans-99"/>
     <use x="116.259766" xlink:href="#DejaVuSans-116"/>
     <use x="155.46875" xlink:href="#DejaVuSans-117"/>
     <use x="218.847656" xlink:href="#DejaVuSans-97"/>
     <use x="280.126953" xlink:href="#DejaVuSans-108"/>
    </g>
   </g>
   <g id="patch_7">
    <path d="M 326.496711 268.3725 
L 359.496711 268.3725 
L 359.496711 256.8225 
L 326.496711 256.8225 
z
" style="fill:#d98b5f;stroke:#545454;stroke-linejoin:miter;stroke-width:1.25;"/>
   </g>
   <g id="text_16">
    <!-- cluster -->
    <g style="fill:#262626;" transform="translate(372.696711 268.3725)scale(0.165 -0.165)">
     <defs>
      <path d="M 44.28125 53.078125 
L 44.28125 44.578125 
Q 40.484375 46.53125 36.375 47.5 
Q 32.28125 48.484375 27.875 48.484375 
Q 21.1875 48.484375 17.84375 46.4375 
Q 14.5 44.390625 14.5 40.28125 
Q 14.5 37.15625 16.890625 35.375 
Q 19.28125 33.59375 26.515625 31.984375 
L 29.59375 31.296875 
Q 39.15625 29.25 43.1875 25.515625 
Q 47.21875 21.78125 47.21875 15.09375 
Q 47.21875 7.46875 41.1875 3.015625 
Q 35.15625 -1.421875 24.609375 -1.421875 
Q 20.21875 -1.421875 15.453125 -0.5625 
Q 10.6875 0.296875 5.421875 2 
L 5.421875 11.28125 
Q 10.40625 8.6875 15.234375 7.390625 
Q 20.0625 6.109375 24.8125 6.109375 
Q 31.15625 6.109375 34.5625 8.28125 
Q 37.984375 10.453125 37.984375 14.40625 
Q 37.984375 18.0625 35.515625 20.015625 
Q 33.0625 21.96875 24.703125 23.78125 
L 21.578125 24.515625 
Q 13.234375 26.265625 9.515625 29.90625 
Q 5.8125 33.546875 5.8125 39.890625 
Q 5.8125 47.609375 11.28125 51.796875 
Q 16.75 56 26.8125 56 
Q 31.78125 56 36.171875 55.265625 
Q 40.578125 54.546875 44.28125 53.078125 
z
" id="DejaVuSans-115"/>
     </defs>
     <use xlink:href="#DejaVuSans-99"/>
     <use x="54.980469" xlink:href="#DejaVuSans-108"/>
     <use x="82.763672" xlink:href="#DejaVuSans-117"/>
     <use x="146.142578" xlink:href="#DejaVuSans-115"/>
     <use x="198.242188" xlink:href="#DejaVuSans-116"/>
     <use x="237.451172" xlink:href="#DejaVuSans-101"/>
     <use x="298.974609" xlink:href="#DejaVuSans-114"/>
    </g>
   </g>
  </g>
 </g>
 <defs>
  <clipPath id="p343eaf2434">
   <rect height="272.38" width="287.175252" x="44.41875" y="31.92"/>
  </clipPath>
 </defs>
</svg>
