<?xml version="1.0" encoding="utf-8" standalone="no"?>
<!DOCTYPE svg PUBLIC "-//W3C//DTD SVG 1.1//EN"
  "http://www.w3.org/Graphics/SVG/1.1/DTD/svg11.dtd">
<!-- Created with matplotlib (https://matplotlib.org/) -->
<svg height="503.420156pt" version="1.1" viewBox="0 0 447.031266 503.420156" width="447.031266pt" xmlns="http://www.w3.org/2000/svg" xmlns:xlink="http://www.w3.org/1999/xlink">
 <metadata>
  <rdf:RDF xmlns:cc="http://creativecommons.org/ns#" xmlns:dc="http://purl.org/dc/elements/1.1/" xmlns:rdf="http://www.w3.org/1999/02/22-rdf-syntax-ns#">
   <cc:Work>
    <dc:type rdf:resource="http://purl.org/dc/dcmitype/StillImage"/>
    <dc:date>2021-01-22T11:01:21.321193</dc:date>
    <dc:format>image/svg+xml</dc:format>
    <dc:creator>
     <cc:Agent>
      <dc:title>Matplotlib v3.3.2, https://matplotlib.org/</dc:title>
     </cc:Agent>
    </dc:creator>
   </cc:Work>
  </rdf:RDF>
 </metadata>
 <defs>
  <style type="text/css">*{stroke-linecap:butt;stroke-linejoin:round;}</style>
 </defs>
 <g id="figure_1">
  <g id="patch_1">
   <path d="M 0 503.420156 
L 447.031266 503.420156 
L 447.031266 0 
L 0 0 
z
" style="fill:#ffffff;"/>
  </g>
  <g id="axes_1">
   <g id="patch_2">
    <path d="M 70.658906 304.3 
L 334.965666 304.3 
L 334.965666 31.92 
L 70.658906 31.92 
z
" style="fill:#ffffff;"/>
   </g>
   <g id="matplotlib.axis_1">
    <g id="xtick_1">
     <g id="text_1">
      <!-- Irrigation High -->
      <g style="fill:#262626;" transform="translate(101.642551 434.888437)rotate(-90)scale(0.165 -0.165)">
       <defs>
        <path d="M 9.8125 72.90625 
L 19.671875 72.90625 
L 19.671875 0 
L 9.8125 0 
z
" id="DejaVuSans-73"/>
        <path d="M 41.109375 46.296875 
Q 39.59375 47.171875 37.8125 47.578125 
Q 36.03125 48 33.890625 48 
Q 26.265625 48 22.1875 43.046875 
Q 18.109375 38.09375 18.109375 28.8125 
L 18.109375 0 
L 9.078125 0 
L 9.078125 54.6875 
L 18.109375 54.6875 
L 18.109375 46.1875 
Q 20.953125 51.171875 25.484375 53.578125 
Q 30.03125 56 36.53125 56 
Q 37.453125 56 38.578125 55.875 
Q 39.703125 55.765625 41.0625 55.515625 
z
" id="DejaVuSans-114"/>
        <path d="M 9.421875 54.6875 
L 18.40625 54.6875 
L 18.40625 0 
L 9.421875 0 
z
M 9.421875 75.984375 
L 18.40625 75.984375 
L 18.40625 64.59375 
L 9.421875 64.59375 
z
" id="DejaVuSans-105"/>
        <path d="M 45.40625 27.984375 
Q 45.40625 37.75 41.375 43.109375 
Q 37.359375 48.484375 30.078125 48.484375 
Q 22.859375 48.484375 18.828125 43.109375 
Q 14.796875 37.75 14.796875 27.984375 
Q 14.796875 18.265625 18.828125 12.890625 
Q 22.859375 7.515625 30.078125 7.515625 
Q 37.359375 7.515625 41.375 12.890625 
Q 45.40625 18.265625 45.40625 27.984375 
z
M 54.390625 6.78125 
Q 54.390625 -7.171875 48.1875 -13.984375 
Q 42 -20.796875 29.203125 -20.796875 
Q 24.46875 -20.796875 20.265625 -20.09375 
Q 16.0625 -19.390625 12.109375 -17.921875 
L 12.109375 -9.1875 
Q 16.0625 -11.328125 19.921875 -12.34375 
Q 23.78125 -13.375 27.78125 -13.375 
Q 36.625 -13.375 41.015625 -8.765625 
Q 45.40625 -4.15625 45.40625 5.171875 
L 45.40625 9.625 
Q 42.625 4.78125 38.28125 2.390625 
Q 33.9375 0 27.875 0 
Q 17.828125 0 11.671875 7.65625 
Q 5.515625 15.328125 5.515625 27.984375 
Q 5.515625 40.671875 11.671875 48.328125 
Q 17.828125 56 27.875 56 
Q 33.9375 56 38.28125 53.609375 
Q 42.625 51.21875 45.40625 46.390625 
L 45.40625 54.6875 
L 54.390625 54.6875 
z
" id="DejaVuSans-103"/>
        <path d="M 34.28125 27.484375 
Q 23.390625 27.484375 19.1875 25 
Q 14.984375 22.515625 14.984375 16.5 
Q 14.984375 11.71875 18.140625 8.90625 
Q 21.296875 6.109375 26.703125 6.109375 
Q 34.1875 6.109375 38.703125 11.40625 
Q 43.21875 16.703125 43.21875 25.484375 
L 43.21875 27.484375 
z
M 52.203125 31.203125 
L 52.203125 0 
L 43.21875 0 
L 43.21875 8.296875 
Q 40.140625 3.328125 35.546875 0.953125 
Q 30.953125 -1.421875 24.3125 -1.421875 
Q 15.921875 -1.421875 10.953125 3.296875 
Q 6 8.015625 6 15.921875 
Q 6 25.140625 12.171875 29.828125 
Q 18.359375 34.515625 30.609375 34.515625 
L 43.21875 34.515625 
L 43.21875 35.40625 
Q 43.21875 41.609375 39.140625 45 
Q 35.0625 48.390625 27.6875 48.390625 
Q 23 48.390625 18.546875 47.265625 
Q 14.109375 46.140625 10.015625 43.890625 
L 10.015625 52.203125 
Q 14.9375 54.109375 19.578125 55.046875 
Q 24.21875 56 28.609375 56 
Q 40.484375 56 46.34375 49.84375 
Q 52.203125 43.703125 52.203125 31.203125 
z
" id="DejaVuSans-97"/>
        <path d="M 18.3125 70.21875 
L 18.3125 54.6875 
L 36.8125 54.6875 
L 36.8125 47.703125 
L 18.3125 47.703125 
L 18.3125 18.015625 
Q 18.3125 11.328125 20.140625 9.421875 
Q 21.96875 7.515625 27.59375 7.515625 
L 36.8125 7.515625 
L 36.8125 0 
L 27.59375 0 
Q 17.1875 0 13.234375 3.875 
Q 9.28125 7.765625 9.28125 18.015625 
L 9.28125 47.703125 
L 2.6875 47.703125 
L 2.6875 54.6875 
L 9.28125 54.6875 
L 9.28125 70.21875 
z
" id="DejaVuSans-116"/>
        <path d="M 30.609375 48.390625 
Q 23.390625 48.390625 19.1875 42.75 
Q 14.984375 37.109375 14.984375 27.296875 
Q 14.984375 17.484375 19.15625 11.84375 
Q 23.34375 6.203125 30.609375 6.203125 
Q 37.796875 6.203125 41.984375 11.859375 
Q 46.1875 17.53125 46.1875 27.296875 
Q 46.1875 37.015625 41.984375 42.703125 
Q 37.796875 48.390625 30.609375 48.390625 
z
M 30.609375 56 
Q 42.328125 56 49.015625 48.375 
Q 55.71875 40.765625 55.71875 27.296875 
Q 55.71875 13.875 49.015625 6.21875 
Q 42.328125 -1.421875 30.609375 -1.421875 
Q 18.84375 -1.421875 12.171875 6.21875 
Q 5.515625 13.875 5.515625 27.296875 
Q 5.515625 40.765625 12.171875 48.375 
Q 18.84375 56 30.609375 56 
z
" id="DejaVuSans-111"/>
        <path d="M 54.890625 33.015625 
L 54.890625 0 
L 45.90625 0 
L 45.90625 32.71875 
Q 45.90625 40.484375 42.875 44.328125 
Q 39.84375 48.1875 33.796875 48.1875 
Q 26.515625 48.1875 22.3125 43.546875 
Q 18.109375 38.921875 18.109375 30.90625 
L 18.109375 0 
L 9.078125 0 
L 9.078125 54.6875 
L 18.109375 54.6875 
L 18.109375 46.1875 
Q 21.34375 51.125 25.703125 53.5625 
Q 30.078125 56 35.796875 56 
Q 45.21875 56 50.046875 50.171875 
Q 54.890625 44.34375 54.890625 33.015625 
z
" id="DejaVuSans-110"/>
        <path id="DejaVuSans-32"/>
        <path d="M 9.8125 72.90625 
L 19.671875 72.90625 
L 19.671875 43.015625 
L 55.515625 43.015625 
L 55.515625 72.90625 
L 65.375 72.90625 
L 65.375 0 
L 55.515625 0 
L 55.515625 34.71875 
L 19.671875 34.71875 
L 19.671875 0 
L 9.8125 0 
z
" id="DejaVuSans-72"/>
        <path d="M 54.890625 33.015625 
L 54.890625 0 
L 45.90625 0 
L 45.90625 32.71875 
Q 45.90625 40.484375 42.875 44.328125 
Q 39.84375 48.1875 33.796875 48.1875 
Q 26.515625 48.1875 22.3125 43.546875 
Q 18.109375 38.921875 18.109375 30.90625 
L 18.109375 0 
L 9.078125 0 
L 9.078125 75.984375 
L 18.109375 75.984375 
L 18.109375 46.1875 
Q 21.34375 51.125 25.703125 53.5625 
Q 30.078125 56 35.796875 56 
Q 45.21875 56 50.046875 50.171875 
Q 54.890625 44.34375 54.890625 33.015625 
z
" id="DejaVuSans-104"/>
       </defs>
       <use xlink:href="#DejaVuSans-73"/>
       <use x="29.492188" xlink:href="#DejaVuSans-114"/>
       <use x="68.855469" xlink:href="#DejaVuSans-114"/>
       <use x="109.96875" xlink:href="#DejaVuSans-105"/>
       <use x="137.751953" xlink:href="#DejaVuSans-103"/>
       <use x="201.228516" xlink:href="#DejaVuSans-97"/>
       <use x="262.507812" xlink:href="#DejaVuSans-116"/>
       <use x="301.716797" xlink:href="#DejaVuSans-105"/>
       <use x="329.5" xlink:href="#DejaVuSans-111"/>
       <use x="390.681641" xlink:href="#DejaVuSans-110"/>
       <use x="454.060547" xlink:href="#DejaVuSans-32"/>
       <use x="485.847656" xlink:href="#DejaVuSans-72"/>
       <use x="561.042969" xlink:href="#DejaVuSans-105"/>
       <use x="588.826172" xlink:href="#DejaVuSans-103"/>
       <use x="652.302734" xlink:href="#DejaVuSans-104"/>
      </g>
     </g>
    </g>
    <g id="xtick_2">
     <g id="text_2">
      <!-- Irrigation Intermediate -->
      <g style="fill:#262626;" transform="translate(154.503903 503.420156)rotate(-90)scale(0.165 -0.165)">
       <defs>
        <path d="M 56.203125 29.59375 
L 56.203125 25.203125 
L 14.890625 25.203125 
Q 15.484375 15.921875 20.484375 11.0625 
Q 25.484375 6.203125 34.421875 6.203125 
Q 39.59375 6.203125 44.453125 7.46875 
Q 49.3125 8.734375 54.109375 11.28125 
L 54.109375 2.78125 
Q 49.265625 0.734375 44.1875 -0.34375 
Q 39.109375 -1.421875 33.890625 -1.421875 
Q 20.796875 -1.421875 13.15625 6.1875 
Q 5.515625 13.8125 5.515625 26.8125 
Q 5.515625 40.234375 12.765625 48.109375 
Q 20.015625 56 32.328125 56 
Q 43.359375 56 49.78125 48.890625 
Q 56.203125 41.796875 56.203125 29.59375 
z
M 47.21875 32.234375 
Q 47.125 39.59375 43.09375 43.984375 
Q 39.0625 48.390625 32.421875 48.390625 
Q 24.90625 48.390625 20.390625 44.140625 
Q 15.875 39.890625 15.1875 32.171875 
z
" id="DejaVuSans-101"/>
        <path d="M 52 44.1875 
Q 55.375 50.25 60.0625 53.125 
Q 64.75 56 71.09375 56 
Q 79.640625 56 84.28125 50.015625 
Q 88.921875 44.046875 88.921875 33.015625 
L 88.921875 0 
L 79.890625 0 
L 79.890625 32.71875 
Q 79.890625 40.578125 77.09375 44.375 
Q 74.3125 48.1875 68.609375 48.1875 
Q 61.625 48.1875 57.5625 43.546875 
Q 53.515625 38.921875 53.515625 30.90625 
L 53.515625 0 
L 44.484375 0 
L 44.484375 32.71875 
Q 44.484375 40.625 41.703125 44.40625 
Q 38.921875 48.1875 33.109375 48.1875 
Q 26.21875 48.1875 22.15625 43.53125 
Q 18.109375 38.875 18.109375 30.90625 
L 18.109375 0 
L 9.078125 0 
L 9.078125 54.6875 
L 18.109375 54.6875 
L 18.109375 46.1875 
Q 21.1875 51.21875 25.484375 53.609375 
Q 29.78125 56 35.6875 56 
Q 41.65625 56 45.828125 52.96875 
Q 50 49.953125 52 44.1875 
z
" id="DejaVuSans-109"/>
        <path d="M 45.40625 46.390625 
L 45.40625 75.984375 
L 54.390625 75.984375 
L 54.390625 0 
L 45.40625 0 
L 45.40625 8.203125 
Q 42.578125 3.328125 38.25 0.953125 
Q 33.9375 -1.421875 27.875 -1.421875 
Q 17.96875 -1.421875 11.734375 6.484375 
Q 5.515625 14.40625 5.515625 27.296875 
Q 5.515625 40.1875 11.734375 48.09375 
Q 17.96875 56 27.875 56 
Q 33.9375 56 38.25 53.625 
Q 42.578125 51.265625 45.40625 46.390625 
z
M 14.796875 27.296875 
Q 14.796875 17.390625 18.875 11.75 
Q 22.953125 6.109375 30.078125 6.109375 
Q 37.203125 6.109375 41.296875 11.75 
Q 45.40625 17.390625 45.40625 27.296875 
Q 45.40625 37.203125 41.296875 42.84375 
Q 37.203125 48.484375 30.078125 48.484375 
Q 22.953125 48.484375 18.875 42.84375 
Q 14.796875 37.203125 14.796875 27.296875 
z
" id="DejaVuSans-100"/>
       </defs>
       <use xlink:href="#DejaVuSans-73"/>
       <use x="29.492188" xlink:href="#DejaVuSans-114"/>
       <use x="68.855469" xlink:href="#DejaVuSans-114"/>
       <use x="109.96875" xlink:href="#DejaVuSans-105"/>
       <use x="137.751953" xlink:href="#DejaVuSans-103"/>
       <use x="201.228516" xlink:href="#DejaVuSans-97"/>
       <use x="262.507812" xlink:href="#DejaVuSans-116"/>
       <use x="301.716797" xlink:href="#DejaVuSans-105"/>
       <use x="329.5" xlink:href="#DejaVuSans-111"/>
       <use x="390.681641" xlink:href="#DejaVuSans-110"/>
       <use x="454.060547" xlink:href="#DejaVuSans-32"/>
       <use x="485.847656" xlink:href="#DejaVuSans-73"/>
       <use x="515.339844" xlink:href="#DejaVuSans-110"/>
       <use x="578.71875" xlink:href="#DejaVuSans-116"/>
       <use x="617.927734" xlink:href="#DejaVuSans-101"/>
       <use x="679.451172" xlink:href="#DejaVuSans-114"/>
       <use x="718.814453" xlink:href="#DejaVuSans-109"/>
       <use x="816.226562" xlink:href="#DejaVuSans-101"/>
       <use x="877.75" xlink:href="#DejaVuSans-100"/>
       <use x="941.226562" xlink:href="#DejaVuSans-105"/>
       <use x="969.009766" xlink:href="#DejaVuSans-97"/>
       <use x="1030.289062" xlink:href="#DejaVuSans-116"/>
       <use x="1069.498047" xlink:href="#DejaVuSans-101"/>
      </g>
     </g>
    </g>
    <g id="xtick_3">
     <g id="text_3">
      <!-- Rain-fed High -->
      <g style="fill:#262626;" transform="translate(207.365255 428.602969)rotate(-90)scale(0.165 -0.165)">
       <defs>
        <path d="M 44.390625 34.1875 
Q 47.5625 33.109375 50.5625 29.59375 
Q 53.5625 26.078125 56.59375 19.921875 
L 66.609375 0 
L 56 0 
L 46.6875 18.703125 
Q 43.0625 26.03125 39.671875 28.421875 
Q 36.28125 30.8125 30.421875 30.8125 
L 19.671875 30.8125 
L 19.671875 0 
L 9.8125 0 
L 9.8125 72.90625 
L 32.078125 72.90625 
Q 44.578125 72.90625 50.734375 67.671875 
Q 56.890625 62.453125 56.890625 51.90625 
Q 56.890625 45.015625 53.6875 40.46875 
Q 50.484375 35.9375 44.390625 34.1875 
z
M 19.671875 64.796875 
L 19.671875 38.921875 
L 32.078125 38.921875 
Q 39.203125 38.921875 42.84375 42.21875 
Q 46.484375 45.515625 46.484375 51.90625 
Q 46.484375 58.296875 42.84375 61.546875 
Q 39.203125 64.796875 32.078125 64.796875 
z
" id="DejaVuSans-82"/>
        <path d="M 4.890625 31.390625 
L 31.203125 31.390625 
L 31.203125 23.390625 
L 4.890625 23.390625 
z
" id="DejaVuSans-45"/>
        <path d="M 37.109375 75.984375 
L 37.109375 68.5 
L 28.515625 68.5 
Q 23.6875 68.5 21.796875 66.546875 
Q 19.921875 64.59375 19.921875 59.515625 
L 19.921875 54.6875 
L 34.71875 54.6875 
L 34.71875 47.703125 
L 19.921875 47.703125 
L 19.921875 0 
L 10.890625 0 
L 10.890625 47.703125 
L 2.296875 47.703125 
L 2.296875 54.6875 
L 10.890625 54.6875 
L 10.890625 58.5 
Q 10.890625 67.625 15.140625 71.796875 
Q 19.390625 75.984375 28.609375 75.984375 
z
" id="DejaVuSans-102"/>
       </defs>
       <use xlink:href="#DejaVuSans-82"/>
       <use x="67.232422" xlink:href="#DejaVuSans-97"/>
       <use x="128.511719" xlink:href="#DejaVuSans-105"/>
       <use x="156.294922" xlink:href="#DejaVuSans-110"/>
       <use x="219.673828" xlink:href="#DejaVuSans-45"/>
       <use x="255.757812" xlink:href="#DejaVuSans-102"/>
       <use x="290.962891" xlink:href="#DejaVuSans-101"/>
       <use x="352.486328" xlink:href="#DejaVuSans-100"/>
       <use x="415.962891" xlink:href="#DejaVuSans-32"/>
       <use x="447.75" xlink:href="#DejaVuSans-72"/>
       <use x="522.945312" xlink:href="#DejaVuSans-105"/>
       <use x="550.728516" xlink:href="#DejaVuSans-103"/>
       <use x="614.205078" xlink:href="#DejaVuSans-104"/>
      </g>
     </g>
    </g>
    <g id="xtick_4">
     <g id="text_4">
      <!-- Rain-fed Intermediate -->
      <g style="fill:#262626;" transform="translate(260.226607 497.134687)rotate(-90)scale(0.165 -0.165)">
       <use xlink:href="#DejaVuSans-82"/>
       <use x="67.232422" xlink:href="#DejaVuSans-97"/>
       <use x="128.511719" xlink:href="#DejaVuSans-105"/>
       <use x="156.294922" xlink:href="#DejaVuSans-110"/>
       <use x="219.673828" xlink:href="#DejaVuSans-45"/>
       <use x="255.757812" xlink:href="#DejaVuSans-102"/>
       <use x="290.962891" xlink:href="#DejaVuSans-101"/>
       <use x="352.486328" xlink:href="#DejaVuSans-100"/>
       <use x="415.962891" xlink:href="#DejaVuSans-32"/>
       <use x="447.75" xlink:href="#DejaVuSans-73"/>
       <use x="477.242188" xlink:href="#DejaVuSans-110"/>
       <use x="540.621094" xlink:href="#DejaVuSans-116"/>
       <use x="579.830078" xlink:href="#DejaVuSans-101"/>
       <use x="641.353516" xlink:href="#DejaVuSans-114"/>
       <use x="680.716797" xlink:href="#DejaVuSans-109"/>
       <use x="778.128906" xlink:href="#DejaVuSans-101"/>
       <use x="839.652344" xlink:href="#DejaVuSans-100"/>
       <use x="903.128906" xlink:href="#DejaVuSans-105"/>
       <use x="930.912109" xlink:href="#DejaVuSans-97"/>
       <use x="992.191406" xlink:href="#DejaVuSans-116"/>
       <use x="1031.400391" xlink:href="#DejaVuSans-101"/>
      </g>
     </g>
    </g>
    <g id="xtick_5">
     <g id="text_5">
      <!-- Rain-fed Low -->
      <g style="fill:#262626;" transform="translate(313.087959 423.173437)rotate(-90)scale(0.165 -0.165)">
       <defs>
        <path d="M 9.8125 72.90625 
L 19.671875 72.90625 
L 19.671875 8.296875 
L 55.171875 8.296875 
L 55.171875 0 
L 9.8125 0 
z
" id="DejaVuSans-76"/>
        <path d="M 4.203125 54.6875 
L 13.1875 54.6875 
L 24.421875 12.015625 
L 35.59375 54.6875 
L 46.1875 54.6875 
L 57.421875 12.015625 
L 68.609375 54.6875 
L 77.59375 54.6875 
L 63.28125 0 
L 52.6875 0 
L 40.921875 44.828125 
L 29.109375 0 
L 18.5 0 
z
" id="DejaVuSans-119"/>
       </defs>
       <use xlink:href="#DejaVuSans-82"/>
       <use x="67.232422" xlink:href="#DejaVuSans-97"/>
       <use x="128.511719" xlink:href="#DejaVuSans-105"/>
       <use x="156.294922" xlink:href="#DejaVuSans-110"/>
       <use x="219.673828" xlink:href="#DejaVuSans-45"/>
       <use x="255.757812" xlink:href="#DejaVuSans-102"/>
       <use x="290.962891" xlink:href="#DejaVuSans-101"/>
       <use x="352.486328" xlink:href="#DejaVuSans-100"/>
       <use x="415.962891" xlink:href="#DejaVuSans-32"/>
       <use x="447.75" xlink:href="#DejaVuSans-76"/>
       <use x="501.712891" xlink:href="#DejaVuSans-111"/>
       <use x="562.894531" xlink:href="#DejaVuSans-119"/>
      </g>
     </g>
    </g>
   </g>
   <g id="matplotlib.axis_2">
    <g id="ytick_1">
     <g id="text_6">
      <!-- 0.00 -->
      <g style="fill:#262626;" transform="translate(21.420625 298.187802)scale(0.165 -0.165)">
       <defs>
        <path d="M 31.78125 66.40625 
Q 24.171875 66.40625 20.328125 58.90625 
Q 16.5 51.421875 16.5 36.375 
Q 16.5 21.390625 20.328125 13.890625 
Q 24.171875 6.390625 31.78125 6.390625 
Q 39.453125 6.390625 43.28125 13.890625 
Q 47.125 21.390625 47.125 36.375 
Q 47.125 51.421875 43.28125 58.90625 
Q 39.453125 66.40625 31.78125 66.40625 
z
M 31.78125 74.21875 
Q 44.046875 74.21875 50.515625 64.515625 
Q 56.984375 54.828125 56.984375 36.375 
Q 56.984375 17.96875 50.515625 8.265625 
Q 44.046875 -1.421875 31.78125 -1.421875 
Q 19.53125 -1.421875 13.0625 8.265625 
Q 6.59375 17.96875 6.59375 36.375 
Q 6.59375 54.828125 13.0625 64.515625 
Q 19.53125 74.21875 31.78125 74.21875 
z
" id="DejaVuSans-48"/>
        <path d="M 10.6875 12.40625 
L 21 12.40625 
L 21 0 
L 10.6875 0 
z
" id="DejaVuSans-46"/>
       </defs>
       <use xlink:href="#DejaVuSans-48"/>
       <use x="63.623047" xlink:href="#DejaVuSans-46"/>
       <use x="95.410156" xlink:href="#DejaVuSans-48"/>
       <use x="159.033203" xlink:href="#DejaVuSans-48"/>
      </g>
     </g>
    </g>
    <g id="ytick_2">
     <g id="text_7">
      <!-- 0.25 -->
      <g style="fill:#262626;" transform="translate(21.420625 263.901152)scale(0.165 -0.165)">
       <defs>
        <path d="M 19.1875 8.296875 
L 53.609375 8.296875 
L 53.609375 0 
L 7.328125 0 
L 7.328125 8.296875 
Q 12.9375 14.109375 22.625 23.890625 
Q 32.328125 33.6875 34.8125 36.53125 
Q 39.546875 41.84375 41.421875 45.53125 
Q 43.3125 49.21875 43.3125 52.78125 
Q 43.3125 58.59375 39.234375 62.25 
Q 35.15625 65.921875 28.609375 65.921875 
Q 23.96875 65.921875 18.8125 64.3125 
Q 13.671875 62.703125 7.8125 59.421875 
L 7.8125 69.390625 
Q 13.765625 71.78125 18.9375 73 
Q 24.125 74.21875 28.421875 74.21875 
Q 39.75 74.21875 46.484375 68.546875 
Q 53.21875 62.890625 53.21875 53.421875 
Q 53.21875 48.921875 51.53125 44.890625 
Q 49.859375 40.875 45.40625 35.40625 
Q 44.1875 33.984375 37.640625 27.21875 
Q 31.109375 20.453125 19.1875 8.296875 
z
" id="DejaVuSans-50"/>
        <path d="M 10.796875 72.90625 
L 49.515625 72.90625 
L 49.515625 64.59375 
L 19.828125 64.59375 
L 19.828125 46.734375 
Q 21.96875 47.46875 24.109375 47.828125 
Q 26.265625 48.1875 28.421875 48.1875 
Q 40.625 48.1875 47.75 41.5 
Q 54.890625 34.8125 54.890625 23.390625 
Q 54.890625 11.625 47.5625 5.09375 
Q 40.234375 -1.421875 26.90625 -1.421875 
Q 22.3125 -1.421875 17.546875 -0.640625 
Q 12.796875 0.140625 7.71875 1.703125 
L 7.71875 11.625 
Q 12.109375 9.234375 16.796875 8.0625 
Q 21.484375 6.890625 26.703125 6.890625 
Q 35.15625 6.890625 40.078125 11.328125 
Q 45.015625 15.765625 45.015625 23.390625 
Q 45.015625 31 40.078125 35.4375 
Q 35.15625 39.890625 26.703125 39.890625 
Q 22.75 39.890625 18.8125 39.015625 
Q 14.890625 38.140625 10.796875 36.28125 
z
" id="DejaVuSans-53"/>
       </defs>
       <use xlink:href="#DejaVuSans-48"/>
       <use x="63.623047" xlink:href="#DejaVuSans-46"/>
       <use x="95.410156" xlink:href="#DejaVuSans-50"/>
       <use x="159.033203" xlink:href="#DejaVuSans-53"/>
      </g>
     </g>
    </g>
    <g id="ytick_3">
     <g id="text_8">
      <!-- 0.50 -->
      <g style="fill:#262626;" transform="translate(21.420625 229.614502)scale(0.165 -0.165)">
       <use xlink:href="#DejaVuSans-48"/>
       <use x="63.623047" xlink:href="#DejaVuSans-46"/>
       <use x="95.410156" xlink:href="#DejaVuSans-53"/>
       <use x="159.033203" xlink:href="#DejaVuSans-48"/>
      </g>
     </g>
    </g>
    <g id="ytick_4">
     <g id="text_9">
      <!-- 0.75 -->
      <g style="fill:#262626;" transform="translate(21.420625 195.327852)scale(0.165 -0.165)">
       <defs>
        <path d="M 8.203125 72.90625 
L 55.078125 72.90625 
L 55.078125 68.703125 
L 28.609375 0 
L 18.3125 0 
L 43.21875 64.59375 
L 8.203125 64.59375 
z
" id="DejaVuSans-55"/>
       </defs>
       <use xlink:href="#DejaVuSans-48"/>
       <use x="63.623047" xlink:href="#DejaVuSans-46"/>
       <use x="95.410156" xlink:href="#DejaVuSans-55"/>
       <use x="159.033203" xlink:href="#DejaVuSans-53"/>
      </g>
     </g>
    </g>
    <g id="ytick_5">
     <g id="text_10">
      <!-- 1.00 -->
      <g style="fill:#262626;" transform="translate(21.420625 161.041202)scale(0.165 -0.165)">
       <defs>
        <path d="M 12.40625 8.296875 
L 28.515625 8.296875 
L 28.515625 63.921875 
L 10.984375 60.40625 
L 10.984375 69.390625 
L 28.421875 72.90625 
L 38.28125 72.90625 
L 38.28125 8.296875 
L 54.390625 8.296875 
L 54.390625 0 
L 12.40625 0 
z
" id="DejaVuSans-49"/>
       </defs>
       <use xlink:href="#DejaVuSans-49"/>
       <use x="63.623047" xlink:href="#DejaVuSans-46"/>
       <use x="95.410156" xlink:href="#DejaVuSans-48"/>
       <use x="159.033203" xlink:href="#DejaVuSans-48"/>
      </g>
     </g>
    </g>
    <g id="ytick_6">
     <g id="text_11">
      <!-- 1.25 -->
      <g style="fill:#262626;" transform="translate(21.420625 126.754552)scale(0.165 -0.165)">
       <use xlink:href="#DejaVuSans-49"/>
       <use x="63.623047" xlink:href="#DejaVuSans-46"/>
       <use x="95.410156" xlink:href="#DejaVuSans-50"/>
       <use x="159.033203" xlink:href="#DejaVuSans-53"/>
      </g>
     </g>
    </g>
    <g id="ytick_7">
     <g id="text_12">
      <!-- 1.50 -->
      <g style="fill:#262626;" transform="translate(21.420625 92.467902)scale(0.165 -0.165)">
       <use xlink:href="#DejaVuSans-49"/>
       <use x="63.623047" xlink:href="#DejaVuSans-46"/>
       <use x="95.410156" xlink:href="#DejaVuSans-53"/>
       <use x="159.033203" xlink:href="#DejaVuSans-48"/>
      </g>
     </g>
    </g>
    <g id="ytick_8">
     <g id="text_13">
      <!-- 1.75 -->
      <g style="fill:#262626;" transform="translate(21.420625 58.181252)scale(0.165 -0.165)">
       <use xlink:href="#DejaVuSans-49"/>
       <use x="63.623047" xlink:href="#DejaVuSans-46"/>
       <use x="95.410156" xlink:href="#DejaVuSans-55"/>
       <use x="159.033203" xlink:href="#DejaVuSans-53"/>
      </g>
     </g>
    </g>
    <g id="text_14">
     <!-- Yield (t/ha) -->
     <g style="fill:#262626;" transform="translate(13.677187 217.195156)rotate(-90)scale(0.18 -0.18)">
      <defs>
       <path d="M -0.203125 72.90625 
L 10.40625 72.90625 
L 30.609375 42.921875 
L 50.6875 72.90625 
L 61.28125 72.90625 
L 35.5 34.71875 
L 35.5 0 
L 25.59375 0 
L 25.59375 34.71875 
z
" id="DejaVuSans-89"/>
       <path d="M 9.421875 75.984375 
L 18.40625 75.984375 
L 18.40625 0 
L 9.421875 0 
z
" id="DejaVuSans-108"/>
       <path d="M 31 75.875 
Q 24.46875 64.65625 21.28125 53.65625 
Q 18.109375 42.671875 18.109375 31.390625 
Q 18.109375 20.125 21.3125 9.0625 
Q 24.515625 -2 31 -13.1875 
L 23.1875 -13.1875 
Q 15.875 -1.703125 12.234375 9.375 
Q 8.59375 20.453125 8.59375 31.390625 
Q 8.59375 42.28125 12.203125 53.3125 
Q 15.828125 64.359375 23.1875 75.875 
z
" id="DejaVuSans-40"/>
       <path d="M 25.390625 72.90625 
L 33.6875 72.90625 
L 8.296875 -9.28125 
L 0 -9.28125 
z
" id="DejaVuSans-47"/>
       <path d="M 8.015625 75.875 
L 15.828125 75.875 
Q 23.140625 64.359375 26.78125 53.3125 
Q 30.421875 42.28125 30.421875 31.390625 
Q 30.421875 20.453125 26.78125 9.375 
Q 23.140625 -1.703125 15.828125 -13.1875 
L 8.015625 -13.1875 
Q 14.5 -2 17.703125 9.0625 
Q 20.90625 20.125 20.90625 31.390625 
Q 20.90625 42.671875 17.703125 53.65625 
Q 14.5 64.65625 8.015625 75.875 
z
" id="DejaVuSans-41"/>
      </defs>
      <use xlink:href="#DejaVuSans-89"/>
      <use x="57.458984" xlink:href="#DejaVuSans-105"/>
      <use x="85.242188" xlink:href="#DejaVuSans-101"/>
      <use x="146.765625" xlink:href="#DejaVuSans-108"/>
      <use x="174.548828" xlink:href="#DejaVuSans-100"/>
      <use x="238.025391" xlink:href="#DejaVuSans-32"/>
      <use x="269.8125" xlink:href="#DejaVuSans-40"/>
      <use x="308.826172" xlink:href="#DejaVuSans-116"/>
      <use x="348.035156" xlink:href="#DejaVuSans-47"/>
      <use x="381.726562" xlink:href="#DejaVuSans-104"/>
      <use x="445.105469" xlink:href="#DejaVuSans-97"/>
      <use x="506.384766" xlink:href="#DejaVuSans-41"/>
     </g>
    </g>
   </g>
   <g id="PolyCollection_1">
    <defs>
     <path d="M 97.089582 -211.501065 
L 75.945041 -211.501065 
L 77.384327 -214.002259 
L 80.629606 -216.503453 
L 83.684822 -219.004647 
L 85.500409 -221.50584 
L 86.244866 -224.007034 
L 86.46284 -226.508228 
L 86.509185 -229.009422 
L 86.516407 -231.510615 
L 86.517237 -234.011809 
L 86.517307 -236.513003 
L 86.517312 -239.014197 
L 86.517312 -241.51539 
L 86.517312 -244.016584 
L 86.517312 -246.517778 
L 86.517312 -249.018972 
L 86.517312 -251.520165 
L 86.517312 -254.021359 
L 86.517312 -256.522553 
L 86.517312 -259.023747 
L 86.517311 -261.52494 
L 86.517304 -264.026134 
L 86.517266 -266.527328 
L 86.517112 -269.028522 
L 86.516604 -271.529715 
L 86.515229 -274.030909 
L 86.512099 -276.532103 
L 86.50607 -279.033297 
L 86.496383 -281.534491 
L 86.483782 -284.035684 
L 86.471076 -286.536878 
L 86.461682 -289.038072 
L 86.456719 -291.539266 
L 86.453984 -294.040459 
L 86.450445 -296.541653 
L 86.444979 -299.042847 
L 86.438168 -301.544041 
L 86.431056 -304.045234 
L 86.42537 -306.546428 
L 86.423635 -309.047622 
L 86.427296 -311.548816 
L 86.434905 -314.050009 
L 86.44325 -316.551203 
L 86.450185 -319.052397 
L 86.455575 -321.553591 
L 86.459858 -324.054784 
L 86.462839 -326.555978 
L 86.46404 -329.057172 
L 86.463648 -331.558366 
L 86.463114 -334.059559 
L 86.464698 -336.560753 
L 86.469576 -339.061947 
L 86.476331 -341.563141 
L 86.482062 -344.064334 
L 86.484917 -346.565528 
L 86.485058 -349.066722 
L 86.483482 -351.567916 
L 86.480722 -354.069109 
L 86.476876 -356.570303 
L 86.472322 -359.071497 
L 86.467877 -361.572691 
L 86.464508 -364.073884 
L 86.463134 -366.575078 
L 86.464128 -369.076272 
L 86.466649 -371.577466 
L 86.468758 -374.078659 
L 86.468407 -376.579853 
L 86.464537 -379.081047 
L 86.457591 -381.582241 
L 86.449099 -384.083434 
L 86.440849 -386.584628 
L 86.434595 -389.085822 
L 86.431983 -391.587016 
L 86.434131 -394.08821 
L 86.441446 -396.589403 
L 86.45347 -399.090597 
L 86.468042 -401.591791 
L 86.481349 -404.092985 
L 86.490296 -406.594178 
L 86.494784 -409.095372 
L 86.497145 -411.596566 
L 86.499661 -414.09776 
L 86.50293 -416.598953 
L 86.50628 -419.100147 
L 86.509026 -421.601341 
L 86.51092 -424.102535 
L 86.511855 -426.603728 
L 86.511849 -429.104922 
L 86.511381 -431.606116 
L 86.511262 -434.10731 
L 86.511942 -436.608503 
L 86.513099 -439.109697 
L 86.514042 -441.610891 
L 86.514465 -444.112085 
L 86.514634 -446.613278 
L 86.514916 -449.114472 
L 86.515368 -451.615666 
L 86.515821 -454.11686 
L 86.516166 -456.618053 
L 86.516438 -459.119247 
L 86.518186 -459.119247 
L 86.518186 -459.119247 
L 86.518458 -456.618053 
L 86.518802 -454.11686 
L 86.519256 -451.615666 
L 86.519708 -449.114472 
L 86.51999 -446.613278 
L 86.520158 -444.112085 
L 86.520582 -441.610891 
L 86.521525 -439.109697 
L 86.522681 -436.608503 
L 86.523362 -434.10731 
L 86.523243 -431.606116 
L 86.522775 -429.104922 
L 86.522769 -426.603728 
L 86.523704 -424.102535 
L 86.525598 -421.601341 
L 86.528343 -419.100147 
L 86.531694 -416.598953 
L 86.534963 -414.09776 
L 86.537478 -411.596566 
L 86.539839 -409.095372 
L 86.544327 -406.594178 
L 86.553275 -404.092985 
L 86.566581 -401.591791 
L 86.581154 -399.090597 
L 86.593178 -396.589403 
L 86.600492 -394.08821 
L 86.602641 -391.587016 
L 86.600029 -389.085822 
L 86.593775 -386.584628 
L 86.585524 -384.083434 
L 86.577032 -381.582241 
L 86.570087 -379.081047 
L 86.566216 -376.579853 
L 86.565866 -374.078659 
L 86.567974 -371.577466 
L 86.570496 -369.076272 
L 86.57149 -366.575078 
L 86.570116 -364.073884 
L 86.566747 -361.572691 
L 86.562301 -359.071497 
L 86.557748 -356.570303 
L 86.553902 -354.069109 
L 86.551141 -351.567916 
L 86.549566 -349.066722 
L 86.549707 -346.565528 
L 86.552562 -344.064334 
L 86.558292 -341.563141 
L 86.565047 -339.061947 
L 86.569925 -336.560753 
L 86.57151 -334.059559 
L 86.570976 -331.558366 
L 86.570584 -329.057172 
L 86.571785 -326.555978 
L 86.574766 -324.054784 
L 86.579048 -321.553591 
L 86.584438 -319.052397 
L 86.591373 -316.551203 
L 86.599718 -314.050009 
L 86.607327 -311.548816 
L 86.610989 -309.047622 
L 86.609254 -306.546428 
L 86.603567 -304.045234 
L 86.596455 -301.544041 
L 86.589644 -299.042847 
L 86.584178 -296.541653 
L 86.580639 -294.040459 
L 86.577905 -291.539266 
L 86.572942 -289.038072 
L 86.563547 -286.536878 
L 86.550842 -284.035684 
L 86.538241 -281.534491 
L 86.528553 -279.033297 
L 86.522525 -276.532103 
L 86.519395 -274.030909 
L 86.51802 -271.529715 
L 86.517512 -269.028522 
L 86.517358 -266.527328 
L 86.51732 -264.026134 
L 86.517313 -261.52494 
L 86.517312 -259.023747 
L 86.517312 -256.522553 
L 86.517312 -254.021359 
L 86.517312 -251.520165 
L 86.517312 -249.018972 
L 86.517312 -246.517778 
L 86.517312 -244.016584 
L 86.517312 -241.51539 
L 86.517312 -239.014197 
L 86.517317 -236.513003 
L 86.517387 -234.011809 
L 86.518217 -231.510615 
L 86.525439 -229.009422 
L 86.571783 -226.508228 
L 86.789757 -224.007034 
L 87.534215 -221.50584 
L 89.349802 -219.004647 
L 92.405017 -216.503453 
L 95.650296 -214.002259 
L 97.089582 -211.501065 
z
" id="mab19d6752c" style="stroke:#545454;stroke-width:2.5;"/>
    </defs>
    <g clip-path="url(#p9996e2093a)">
     <use style="fill:#597dbf;stroke:#545454;stroke-width:2.5;" x="0" xlink:href="#mab19d6752c" y="503.420156"/>
    </g>
   </g>
   <g id="PolyCollection_2">
    <defs>
     <path d="M 108.54164 -211.501065 
L 106.782065 -211.501065 
L 106.774508 -213.192614 
L 106.768009 -214.884163 
L 106.76258 -216.575712 
L 106.758231 -218.267261 
L 106.754968 -219.95881 
L 106.752791 -221.650359 
L 106.751698 -223.341908 
L 106.75168 -225.033457 
L 106.752727 -226.725006 
L 106.754824 -228.416555 
L 106.757953 -230.108104 
L 106.762092 -231.799653 
L 106.767216 -233.491202 
L 106.773298 -235.182751 
L 106.780306 -236.8743 
L 106.788207 -238.565849 
L 106.796967 -240.257398 
L 106.806548 -241.948947 
L 106.81691 -243.640496 
L 106.828012 -245.332045 
L 106.839813 -247.023594 
L 106.852269 -248.715143 
L 106.865335 -250.406692 
L 106.878967 -252.098241 
L 106.89312 -253.78979 
L 106.907747 -255.481339 
L 106.922803 -257.172888 
L 106.938242 -258.864437 
L 106.954018 -260.555986 
L 106.970085 -262.247535 
L 106.986399 -263.939084 
L 107.002916 -265.630633 
L 107.019592 -267.322182 
L 107.036383 -269.013731 
L 107.053248 -270.70528 
L 107.070145 -272.396829 
L 107.087035 -274.088378 
L 107.103878 -275.779927 
L 107.120637 -277.471476 
L 107.137274 -279.163025 
L 107.153755 -280.854574 
L 107.170045 -282.546123 
L 107.186111 -284.237672 
L 107.201923 -285.929221 
L 107.217449 -287.62077 
L 107.232662 -289.312319 
L 107.247534 -291.003868 
L 107.262041 -292.695417 
L 107.276159 -294.386966 
L 107.289865 -296.078515 
L 107.303139 -297.770064 
L 107.315963 -299.461613 
L 107.328321 -301.153162 
L 107.340196 -302.844711 
L 107.351576 -304.53626 
L 107.36245 -306.227809 
L 107.372809 -307.919358 
L 107.382646 -309.610907 
L 107.391955 -311.302456 
L 107.400733 -312.994005 
L 107.408979 -314.685554 
L 107.416694 -316.377103 
L 107.42388 -318.068652 
L 107.430543 -319.760201 
L 107.43669 -321.45175 
L 107.442329 -323.143299 
L 107.44747 -324.834848 
L 107.452127 -326.526397 
L 107.456313 -328.217946 
L 107.460045 -329.909495 
L 107.46334 -331.601044 
L 107.466218 -333.292593 
L 107.468699 -334.984142 
L 107.470805 -336.675691 
L 107.472559 -338.36724 
L 107.473986 -340.058789 
L 107.47511 -341.750338 
L 107.475958 -343.441887 
L 107.476556 -345.133436 
L 107.476932 -346.824985 
L 107.477112 -348.516534 
L 107.477125 -350.208083 
L 107.476998 -351.899632 
L 107.476759 -353.591181 
L 107.476434 -355.28273 
L 107.476052 -356.974279 
L 107.475637 -358.665828 
L 107.475216 -360.357377 
L 107.474812 -362.048926 
L 107.47445 -363.740475 
L 107.474151 -365.432024 
L 107.473938 -367.123573 
L 107.473828 -368.815122 
L 107.473842 -370.506671 
L 107.473995 -372.19822 
L 107.474302 -373.889769 
L 107.474777 -375.581318 
L 107.475432 -377.272867 
L 107.476275 -378.964416 
L 107.84743 -378.964416 
L 107.84743 -378.964416 
L 107.848273 -377.272867 
L 107.848928 -375.581318 
L 107.849403 -373.889769 
L 107.84971 -372.19822 
L 107.849863 -370.506671 
L 107.849877 -368.815122 
L 107.849768 -367.123573 
L 107.849554 -365.432024 
L 107.849256 -363.740475 
L 107.848893 -362.048926 
L 107.84849 -360.357377 
L 107.848068 -358.665828 
L 107.847654 -356.974279 
L 107.847271 -355.28273 
L 107.846947 -353.591181 
L 107.846707 -351.899632 
L 107.84658 -350.208083 
L 107.846593 -348.516534 
L 107.846773 -346.824985 
L 107.847149 -345.133436 
L 107.847747 -343.441887 
L 107.848595 -341.750338 
L 107.849719 -340.058789 
L 107.851146 -338.36724 
L 107.8529 -336.675691 
L 107.855006 -334.984142 
L 107.857487 -333.292593 
L 107.860365 -331.601044 
L 107.86366 -329.909495 
L 107.867392 -328.217946 
L 107.871579 -326.526397 
L 107.876235 -324.834848 
L 107.881377 -323.143299 
L 107.887015 -321.45175 
L 107.893162 -319.760201 
L 107.899825 -318.068652 
L 107.907011 -316.377103 
L 107.914726 -314.685554 
L 107.922972 -312.994005 
L 107.931751 -311.302456 
L 107.941059 -309.610907 
L 107.950896 -307.919358 
L 107.961255 -306.227809 
L 107.972129 -304.53626 
L 107.98351 -302.844711 
L 107.995385 -301.153162 
L 108.007742 -299.461613 
L 108.020566 -297.770064 
L 108.03384 -296.078515 
L 108.047547 -294.386966 
L 108.061664 -292.695417 
L 108.076171 -291.003868 
L 108.091043 -289.312319 
L 108.106256 -287.62077 
L 108.121783 -285.929221 
L 108.137594 -284.237672 
L 108.15366 -282.546123 
L 108.16995 -280.854574 
L 108.186431 -279.163025 
L 108.203068 -277.471476 
L 108.219827 -275.779927 
L 108.23667 -274.088378 
L 108.25356 -272.396829 
L 108.270458 -270.70528 
L 108.287322 -269.013731 
L 108.304114 -267.322182 
L 108.320789 -265.630633 
L 108.337306 -263.939084 
L 108.35362 -262.247535 
L 108.369688 -260.555986 
L 108.385464 -258.864437 
L 108.400902 -257.172888 
L 108.415958 -255.481339 
L 108.430585 -253.78979 
L 108.444738 -252.098241 
L 108.45837 -250.406692 
L 108.471437 -248.715143 
L 108.483892 -247.023594 
L 108.495693 -245.332045 
L 108.506796 -243.640496 
L 108.517157 -241.948947 
L 108.526738 -240.257398 
L 108.535498 -238.565849 
L 108.5434 -236.8743 
L 108.550408 -235.182751 
L 108.556489 -233.491202 
L 108.561613 -231.799653 
L 108.565752 -230.108104 
L 108.568881 -228.416555 
L 108.570979 -226.725006 
L 108.572026 -225.033457 
L 108.572008 -223.341908 
L 108.570914 -221.650359 
L 108.568737 -219.95881 
L 108.565474 -218.267261 
L 108.561125 -216.575712 
L 108.555697 -214.884163 
L 108.549197 -213.192614 
L 108.54164 -211.501065 
z
" id="m4e994e0bc1" style="stroke:#545454;stroke-width:2.5;"/>
    </defs>
    <g clip-path="url(#p9996e2093a)">
     <use style="fill:#d98b5f;stroke:#545454;stroke-width:2.5;" x="0" xlink:href="#m4e994e0bc1" y="503.420156"/>
    </g>
   </g>
   <g id="PolyCollection_3">
    <defs>
     <path d="M 149.950934 -211.501065 
L 128.806393 -211.501065 
L 130.289739 -213.461985 
L 133.603754 -215.422904 
L 136.66681 -217.383823 
L 138.437477 -219.344743 
L 139.137243 -221.305662 
L 139.332896 -223.266581 
L 139.372251 -225.2275 
L 139.378 -227.18842 
L 139.378613 -229.149339 
L 139.378661 -231.110258 
L 139.378664 -233.071178 
L 139.378664 -235.032097 
L 139.378664 -236.993016 
L 139.378664 -238.953935 
L 139.378664 -240.914855 
L 139.378664 -242.875774 
L 139.378664 -244.836693 
L 139.378664 -246.797613 
L 139.378663 -248.758532 
L 139.378658 -250.719451 
L 139.378629 -252.68037 
L 139.378499 -254.64129 
L 139.378048 -256.602209 
L 139.376762 -258.563128 
L 139.37372 -260.524048 
L 139.367684 -262.484967 
L 139.357787 -264.445886 
L 139.344776 -266.406806 
L 139.331647 -268.367725 
L 139.322011 -270.328644 
L 139.316902 -272.289563 
L 139.313857 -274.250483 
L 139.309792 -276.211402 
L 139.30375 -278.172321 
L 139.296477 -280.133241 
L 139.289315 -282.09416 
L 139.284465 -284.055079 
L 139.284446 -286.015998 
L 139.289785 -287.976918 
L 139.298067 -289.937837 
L 139.306167 -291.898756 
L 139.312765 -293.859676 
L 139.318165 -295.820595 
L 139.322684 -297.781514 
L 139.326084 -299.742433 
L 139.327929 -301.703353 
L 139.328137 -303.664272 
L 139.327884 -305.625191 
L 139.329575 -307.586111 
L 139.334611 -309.54703 
L 139.341529 -311.507949 
L 139.347335 -313.468869 
L 139.350145 -315.429788 
L 139.350036 -317.390707 
L 139.348007 -319.351626 
L 139.344776 -321.312546 
L 139.340592 -323.273465 
L 139.335788 -325.234384 
L 139.331065 -327.195304 
L 139.327337 -329.156223 
L 139.325551 -331.117142 
L 139.326239 -333.078061 
L 139.328789 -335.038981 
L 139.331391 -336.9999 
L 139.331936 -338.960819 
L 139.329172 -340.921739 
L 139.323335 -342.882658 
L 139.315763 -344.843577 
L 139.30789 -346.804496 
L 139.301009 -348.765416 
L 139.296739 -350.726335 
L 139.29667 -352.687254 
L 139.301567 -354.648174 
L 139.311341 -356.609093 
L 139.324768 -358.570012 
L 139.338776 -360.530932 
L 139.34963 -362.491851 
L 139.355689 -364.45277 
L 139.358367 -366.413689 
L 139.360305 -368.374609 
L 139.363038 -370.335528 
L 139.366363 -372.296447 
L 139.369429 -374.257367 
L 139.371772 -376.218286 
L 139.373255 -378.179205 
L 139.373744 -380.140124 
L 139.373374 -382.101044 
L 139.372824 -384.061963 
L 139.372903 -386.022882 
L 139.373814 -387.983802 
L 139.375001 -389.944721 
L 139.375782 -391.90564 
L 139.376028 -393.866559 
L 139.376124 -395.827479 
L 139.376411 -397.788398 
L 139.376865 -399.749317 
L 139.377286 -401.710237 
L 139.377585 -403.671156 
L 139.377824 -405.632075 
L 139.379504 -405.632075 
L 139.379504 -405.632075 
L 139.379743 -403.671156 
L 139.380042 -401.710237 
L 139.380463 -399.749317 
L 139.380916 -397.788398 
L 139.381204 -395.827479 
L 139.3813 -393.866559 
L 139.381545 -391.90564 
L 139.382327 -389.944721 
L 139.383514 -387.983802 
L 139.384424 -386.022882 
L 139.384504 -384.061963 
L 139.383954 -382.101044 
L 139.383583 -380.140124 
L 139.384072 -378.179205 
L 139.385556 -376.218286 
L 139.387899 -374.257367 
L 139.390964 -372.296447 
L 139.394289 -370.335528 
L 139.397023 -368.374609 
L 139.398961 -366.413689 
L 139.401638 -364.45277 
L 139.407697 -362.491851 
L 139.418551 -360.530932 
L 139.43256 -358.570012 
L 139.445986 -356.609093 
L 139.45576 -354.648174 
L 139.460658 -352.687254 
L 139.460589 -350.726335 
L 139.456318 -348.765416 
L 139.449438 -346.804496 
L 139.441565 -344.843577 
L 139.433993 -342.882658 
L 139.428156 -340.921739 
L 139.425392 -338.960819 
L 139.425937 -336.9999 
L 139.428538 -335.038981 
L 139.431089 -333.078061 
L 139.431777 -331.117142 
L 139.42999 -329.156223 
L 139.426263 -327.195304 
L 139.42154 -325.234384 
L 139.416736 -323.273465 
L 139.412551 -321.312546 
L 139.409321 -319.351626 
L 139.407292 -317.390707 
L 139.407182 -315.429788 
L 139.409993 -313.468869 
L 139.415799 -311.507949 
L 139.422717 -309.54703 
L 139.427753 -307.586111 
L 139.429444 -305.625191 
L 139.429191 -303.664272 
L 139.429399 -301.703353 
L 139.431244 -299.742433 
L 139.434644 -297.781514 
L 139.439163 -295.820595 
L 139.444563 -293.859676 
L 139.451161 -291.898756 
L 139.459261 -289.937837 
L 139.467542 -287.976918 
L 139.472882 -286.015998 
L 139.472863 -284.055079 
L 139.468013 -282.09416 
L 139.460851 -280.133241 
L 139.453578 -278.172321 
L 139.447536 -276.211402 
L 139.443471 -274.250483 
L 139.440426 -272.289563 
L 139.435317 -270.328644 
L 139.425681 -268.367725 
L 139.412552 -266.406806 
L 139.39954 -264.445886 
L 139.389643 -262.484967 
L 139.383608 -260.524048 
L 139.380565 -258.563128 
L 139.37928 -256.602209 
L 139.378828 -254.64129 
L 139.378699 -252.68037 
L 139.37867 -250.719451 
L 139.378665 -248.758532 
L 139.378664 -246.797613 
L 139.378664 -244.836693 
L 139.378664 -242.875774 
L 139.378664 -240.914855 
L 139.378664 -238.953935 
L 139.378664 -236.993016 
L 139.378664 -235.032097 
L 139.378664 -233.071178 
L 139.378667 -231.110258 
L 139.378715 -229.149339 
L 139.379328 -227.18842 
L 139.385076 -225.2275 
L 139.424432 -223.266581 
L 139.620084 -221.305662 
L 140.319851 -219.344743 
L 142.090518 -217.383823 
L 145.153573 -215.422904 
L 148.467588 -213.461985 
L 149.950934 -211.501065 
z
" id="m8972eec997" style="stroke:#545454;stroke-width:2.5;"/>
    </defs>
    <g clip-path="url(#p9996e2093a)">
     <use style="fill:#597dbf;stroke:#545454;stroke-width:2.5;" x="0" xlink:href="#m8972eec997" y="503.420156"/>
    </g>
   </g>
   <g id="PolyCollection_4">
    <defs>
     <path d="M 161.403036 -211.501065 
L 159.643373 -211.501065 
L 159.635795 -212.812708 
L 159.629281 -214.124351 
L 159.623847 -215.435993 
L 159.619502 -216.747636 
L 159.616252 -218.059279 
L 159.614097 -219.370921 
L 159.613037 -220.682564 
L 159.613063 -221.994206 
L 159.614164 -223.305849 
L 159.616328 -224.617492 
L 159.619534 -225.929134 
L 159.623762 -227.240777 
L 159.628987 -228.55242 
L 159.63518 -229.864062 
L 159.642311 -231.175705 
L 159.650347 -232.487348 
L 159.659251 -233.79899 
L 159.668986 -235.110633 
L 159.679513 -236.422275 
L 159.690788 -237.733918 
L 159.70277 -239.045561 
L 159.715415 -240.357203 
L 159.728678 -241.668846 
L 159.742511 -242.980489 
L 159.756871 -244.292131 
L 159.771708 -245.603774 
L 159.786977 -246.915417 
L 159.802631 -248.227059 
L 159.818622 -249.538702 
L 159.834905 -250.850345 
L 159.851433 -252.161987 
L 159.868161 -253.47363 
L 159.885044 -254.785272 
L 159.902037 -256.096915 
L 159.919099 -257.408558 
L 159.936186 -258.7202 
L 159.953257 -260.031843 
L 159.970273 -261.343486 
L 159.987195 -262.655128 
L 160.003986 -263.966771 
L 160.020608 -265.278414 
L 160.037028 -266.590056 
L 160.053211 -267.901699 
L 160.069127 -269.213341 
L 160.084745 -270.524984 
L 160.100036 -271.836627 
L 160.114972 -273.148269 
L 160.129529 -274.459912 
L 160.143683 -275.771555 
L 160.157412 -277.083197 
L 160.170696 -278.39484 
L 160.183515 -279.706483 
L 160.195855 -281.018125 
L 160.2077 -282.329768 
L 160.219038 -283.641411 
L 160.229857 -284.953053 
L 160.240151 -286.264696 
L 160.249911 -287.576338 
L 160.259134 -288.887981 
L 160.267817 -290.199624 
L 160.275959 -291.511266 
L 160.283562 -292.822909 
L 160.29063 -294.134552 
L 160.297168 -295.446194 
L 160.303184 -296.757837 
L 160.308688 -298.06948 
L 160.31369 -299.381122 
L 160.318205 -300.692765 
L 160.322247 -302.004407 
L 160.325832 -303.31605 
L 160.32898 -304.627693 
L 160.33171 -305.939335 
L 160.334044 -307.250978 
L 160.336003 -308.562621 
L 160.337612 -309.874263 
L 160.338895 -311.185906 
L 160.339878 -312.497549 
L 160.340588 -313.809191 
L 160.341051 -315.120834 
L 160.341294 -316.432476 
L 160.341347 -317.744119 
L 160.341235 -319.055762 
L 160.340988 -320.367404 
L 160.340633 -321.679047 
L 160.340197 -322.99069 
L 160.339707 -324.302332 
L 160.33919 -325.613975 
L 160.338671 -326.925618 
L 160.338174 -328.23726 
L 160.337723 -329.548903 
L 160.337341 -330.860546 
L 160.337047 -332.172188 
L 160.336862 -333.483831 
L 160.336804 -334.795473 
L 160.33689 -336.107116 
L 160.337134 -337.418759 
L 160.337549 -338.730401 
L 160.338147 -340.042044 
L 160.338937 -341.353687 
L 160.707472 -341.353687 
L 160.707472 -341.353687 
L 160.708263 -340.042044 
L 160.708861 -338.730401 
L 160.709276 -337.418759 
L 160.70952 -336.107116 
L 160.709605 -334.795473 
L 160.709547 -333.483831 
L 160.709362 -332.172188 
L 160.709069 -330.860546 
L 160.708686 -329.548903 
L 160.708235 -328.23726 
L 160.707738 -326.925618 
L 160.707219 -325.613975 
L 160.706702 -324.302332 
L 160.706212 -322.99069 
L 160.705776 -321.679047 
L 160.705421 -320.367404 
L 160.705174 -319.055762 
L 160.705063 -317.744119 
L 160.705115 -316.432476 
L 160.705359 -315.120834 
L 160.705821 -313.809191 
L 160.706531 -312.497549 
L 160.707514 -311.185906 
L 160.708797 -309.874263 
L 160.710406 -308.562621 
L 160.712366 -307.250978 
L 160.714699 -305.939335 
L 160.717429 -304.627693 
L 160.720577 -303.31605 
L 160.724163 -302.004407 
L 160.728205 -300.692765 
L 160.732719 -299.381122 
L 160.737721 -298.06948 
L 160.743225 -296.757837 
L 160.749241 -295.446194 
L 160.755779 -294.134552 
L 160.762847 -292.822909 
L 160.77045 -291.511266 
L 160.778593 -290.199624 
L 160.787275 -288.887981 
L 160.796498 -287.576338 
L 160.806258 -286.264696 
L 160.816552 -284.953053 
L 160.827372 -283.641411 
L 160.838709 -282.329768 
L 160.850554 -281.018125 
L 160.862894 -279.706483 
L 160.875714 -278.39484 
L 160.888997 -277.083197 
L 160.902726 -275.771555 
L 160.91688 -274.459912 
L 160.931437 -273.148269 
L 160.946374 -271.836627 
L 160.961664 -270.524984 
L 160.977282 -269.213341 
L 160.993198 -267.901699 
L 161.009382 -266.590056 
L 161.025801 -265.278414 
L 161.042424 -263.966771 
L 161.059214 -262.655128 
L 161.076136 -261.343486 
L 161.093152 -260.031843 
L 161.110224 -258.7202 
L 161.127311 -257.408558 
L 161.144372 -256.096915 
L 161.161366 -254.785272 
L 161.178248 -253.47363 
L 161.194976 -252.161987 
L 161.211504 -250.850345 
L 161.227787 -249.538702 
L 161.243778 -248.227059 
L 161.259432 -246.915417 
L 161.274701 -245.603774 
L 161.289539 -244.292131 
L 161.303898 -242.980489 
L 161.317732 -241.668846 
L 161.330994 -240.357203 
L 161.343639 -239.045561 
L 161.355621 -237.733918 
L 161.366897 -236.422275 
L 161.377423 -235.110633 
L 161.387158 -233.79899 
L 161.396062 -232.487348 
L 161.404098 -231.175705 
L 161.411229 -229.864062 
L 161.417423 -228.55242 
L 161.422647 -227.240777 
L 161.426875 -225.929134 
L 161.430082 -224.617492 
L 161.432245 -223.305849 
L 161.433347 -221.994206 
L 161.433373 -220.682564 
L 161.432312 -219.370921 
L 161.430158 -218.059279 
L 161.426907 -216.747636 
L 161.422562 -215.435993 
L 161.417128 -214.124351 
L 161.410615 -212.812708 
L 161.403036 -211.501065 
z
" id="m4b3e717e01" style="stroke:#545454;stroke-width:2.5;"/>
    </defs>
    <g clip-path="url(#p9996e2093a)">
     <use style="fill:#d98b5f;stroke:#545454;stroke-width:2.5;" x="0" xlink:href="#m4b3e717e01" y="503.420156"/>
    </g>
   </g>
   <g id="PolyCollection_5">
    <defs>
     <path d="M 202.812286 -211.501065 
L 181.667745 -211.501065 
L 183.930057 -213.227173 
L 188.204577 -214.953281 
L 191.029295 -216.679388 
L 192.015597 -218.405496 
L 192.214316 -220.131604 
L 192.238198 -221.857712 
L 192.239936 -223.583819 
L 192.240014 -225.309927 
L 192.240016 -227.036035 
L 192.240016 -228.762142 
L 192.240012 -230.48825 
L 192.239983 -232.214358 
L 192.239812 -233.940465 
L 192.239183 -235.666573 
L 192.237724 -237.392681 
L 192.23558 -239.118789 
L 192.2334 -240.844896 
L 192.230924 -242.571004 
L 192.226081 -244.297112 
L 192.216527 -246.023219 
L 192.202436 -247.749327 
L 192.187768 -249.475435 
L 192.178071 -251.201542 
L 192.176404 -252.92765 
L 192.181012 -254.653758 
L 192.187048 -256.379866 
L 192.191092 -258.105973 
L 192.193022 -259.832081 
L 192.194192 -261.558189 
L 192.195728 -263.284296 
L 192.197529 -265.010404 
L 192.198836 -266.736512 
L 192.199868 -268.462619 
L 192.201186 -270.188727 
L 192.202852 -271.914835 
L 192.205152 -273.640942 
L 192.208784 -275.36705 
L 192.213787 -277.093158 
L 192.218879 -278.819266 
L 192.222086 -280.545373 
L 192.22216 -282.271481 
L 192.220024 -283.997589 
L 192.218323 -285.723696 
L 192.218879 -287.449804 
L 192.220836 -289.175912 
L 192.221511 -290.902019 
L 192.219231 -292.628127 
L 192.214321 -294.354235 
L 192.207842 -296.080343 
L 192.201438 -297.80645 
L 192.196586 -299.532558 
L 192.193212 -301.258666 
L 192.191121 -302.984773 
L 192.190967 -304.710881 
L 192.193677 -306.436989 
L 192.199486 -308.163096 
L 192.205869 -309.889204 
L 192.209043 -311.615312 
L 192.208778 -313.34142 
L 192.208302 -315.067527 
L 192.209492 -316.793635 
L 192.211106 -318.519743 
L 192.211832 -320.24585 
L 192.212616 -321.971958 
L 192.215386 -323.698066 
L 192.220331 -325.424173 
L 192.225409 -327.150281 
L 192.228796 -328.876389 
L 192.230225 -330.602497 
L 192.230396 -332.328604 
L 192.230564 -334.054712 
L 192.231608 -335.78082 
L 192.232775 -337.506927 
L 192.232723 -339.233035 
L 192.231775 -340.959143 
L 192.23144 -342.68525 
L 192.232024 -344.411358 
L 192.232643 -346.137466 
L 192.232959 -347.863574 
L 192.233224 -349.589681 
L 192.233485 -351.315789 
L 192.233529 -353.041897 
L 192.233121 -354.768004 
L 192.232206 -356.494112 
L 192.231048 -358.22022 
L 192.230032 -359.946327 
L 192.229665 -361.672435 
L 192.230542 -363.398543 
L 192.232703 -365.124651 
L 192.235374 -366.850758 
L 192.2375 -368.576866 
L 192.23842 -370.302974 
L 192.238297 -372.029081 
L 192.237861 -373.755189 
L 192.237618 -375.481297 
L 192.237551 -377.207404 
L 192.237642 -378.933512 
L 192.238062 -380.65962 
L 192.238727 -382.385727 
L 192.241305 -382.385727 
L 192.241305 -382.385727 
L 192.241969 -380.65962 
L 192.24239 -378.933512 
L 192.242481 -377.207404 
L 192.242413 -375.481297 
L 192.24217 -373.755189 
L 192.241735 -372.029081 
L 192.241612 -370.302974 
L 192.242531 -368.576866 
L 192.244658 -366.850758 
L 192.247329 -365.124651 
L 192.24949 -363.398543 
L 192.250367 -361.672435 
L 192.249999 -359.946327 
L 192.248984 -358.22022 
L 192.247825 -356.494112 
L 192.246911 -354.768004 
L 192.246502 -353.041897 
L 192.246547 -351.315789 
L 192.246807 -349.589681 
L 192.247073 -347.863574 
L 192.247388 -346.137466 
L 192.248008 -344.411358 
L 192.248591 -342.68525 
L 192.248256 -340.959143 
L 192.247308 -339.233035 
L 192.247257 -337.506927 
L 192.248423 -335.78082 
L 192.249467 -334.054712 
L 192.249636 -332.328604 
L 192.249806 -330.602497 
L 192.251235 -328.876389 
L 192.254622 -327.150281 
L 192.2597 -325.424173 
L 192.264645 -323.698066 
L 192.267416 -321.971958 
L 192.268199 -320.24585 
L 192.268926 -318.519743 
L 192.27054 -316.793635 
L 192.271729 -315.067527 
L 192.271254 -313.34142 
L 192.270989 -311.615312 
L 192.274162 -309.889204 
L 192.280546 -308.163096 
L 192.286355 -306.436989 
L 192.289065 -304.710881 
L 192.28891 -302.984773 
L 192.28682 -301.258666 
L 192.283445 -299.532558 
L 192.278593 -297.80645 
L 192.27219 -296.080343 
L 192.26571 -294.354235 
L 192.260801 -292.628127 
L 192.258521 -290.902019 
L 192.259196 -289.175912 
L 192.261152 -287.449804 
L 192.261709 -285.723696 
L 192.260008 -283.997589 
L 192.257872 -282.271481 
L 192.257946 -280.545373 
L 192.261153 -278.819266 
L 192.266244 -277.093158 
L 192.271248 -275.36705 
L 192.27488 -273.640942 
L 192.27718 -271.914835 
L 192.278846 -270.188727 
L 192.280164 -268.462619 
L 192.281196 -266.736512 
L 192.282502 -265.010404 
L 192.284304 -263.284296 
L 192.28584 -261.558189 
L 192.287009 -259.832081 
L 192.28894 -258.105973 
L 192.292983 -256.379866 
L 192.29902 -254.653758 
L 192.303628 -252.92765 
L 192.301961 -251.201542 
L 192.292264 -249.475435 
L 192.277596 -247.749327 
L 192.263504 -246.023219 
L 192.25395 -244.297112 
L 192.249107 -242.571004 
L 192.246632 -240.844896 
L 192.244451 -239.118789 
L 192.242307 -237.392681 
L 192.240849 -235.666573 
L 192.24022 -233.940465 
L 192.240049 -232.214358 
L 192.240019 -230.48825 
L 192.240016 -228.762142 
L 192.240016 -227.036035 
L 192.240018 -225.309927 
L 192.240095 -223.583819 
L 192.241834 -221.857712 
L 192.265716 -220.131604 
L 192.464434 -218.405496 
L 193.450737 -216.679388 
L 196.275455 -214.953281 
L 200.549975 -213.227173 
L 202.812286 -211.501065 
z
" id="m01f0cdb6c8" style="stroke:#545454;stroke-width:2.5;"/>
    </defs>
    <g clip-path="url(#p9996e2093a)">
     <use style="fill:#597dbf;stroke:#545454;stroke-width:2.5;" x="0" xlink:href="#m01f0cdb6c8" y="503.420156"/>
    </g>
   </g>
   <g id="PolyCollection_6">
    <defs>
     <path d="M 214.223203 -211.501065 
L 212.54591 -211.501065 
L 212.540115 -212.560413 
L 212.535534 -213.619761 
L 212.532184 -214.679109 
L 212.530076 -215.738457 
L 212.529217 -216.797804 
L 212.529608 -217.857152 
L 212.531243 -218.9165 
L 212.534113 -219.975848 
L 212.538201 -221.035196 
L 212.543487 -222.094544 
L 212.549945 -223.153891 
L 212.557543 -224.213239 
L 212.566247 -225.272587 
L 212.576015 -226.331935 
L 212.586804 -227.391283 
L 212.598566 -228.45063 
L 212.611249 -229.509978 
L 212.6248 -230.569326 
L 212.63916 -231.628674 
L 212.65427 -232.688022 
L 212.670068 -233.74737 
L 212.686492 -234.806717 
L 212.703476 -235.866065 
L 212.720954 -236.925413 
L 212.738863 -237.984761 
L 212.757134 -239.044109 
L 212.775703 -240.103457 
L 212.794504 -241.162804 
L 212.813473 -242.222152 
L 212.832547 -243.2815 
L 212.851665 -244.340848 
L 212.870766 -245.400196 
L 212.889793 -246.459543 
L 212.90869 -247.518891 
L 212.927404 -248.578239 
L 212.945885 -249.637587 
L 212.964084 -250.696935 
L 212.981956 -251.756283 
L 212.999461 -252.81563 
L 213.016557 -253.874978 
L 213.03321 -254.934326 
L 213.049387 -255.993674 
L 213.065057 -257.053022 
L 213.080195 -258.11237 
L 213.094777 -259.171717 
L 213.108782 -260.231065 
L 213.122194 -261.290413 
L 213.134997 -262.349761 
L 213.14718 -263.409109 
L 213.158735 -264.468456 
L 213.169656 -265.527804 
L 213.179938 -266.587152 
L 213.189582 -267.6465 
L 213.198589 -268.705848 
L 213.206963 -269.765196 
L 213.21471 -270.824543 
L 213.221837 -271.883891 
L 213.228356 -272.943239 
L 213.234277 -274.002587 
L 213.239616 -275.061935 
L 213.244386 -276.121282 
L 213.248605 -277.18063 
L 213.25229 -278.239978 
L 213.255463 -279.299326 
L 213.258142 -280.358674 
L 213.260349 -281.418022 
L 213.262109 -282.477369 
L 213.263443 -283.536717 
L 213.264376 -284.596065 
L 213.264934 -285.655413 
L 213.265142 -286.714761 
L 213.265026 -287.774109 
L 213.264612 -288.833456 
L 213.263927 -289.892804 
L 213.262999 -290.952152 
L 213.261853 -292.0115 
L 213.260518 -293.070848 
L 213.25902 -294.130195 
L 213.257385 -295.189543 
L 213.255641 -296.248891 
L 213.253812 -297.308239 
L 213.251925 -298.367587 
L 213.250005 -299.426935 
L 213.248075 -300.486282 
L 213.246159 -301.54563 
L 213.24428 -302.604978 
L 213.242459 -303.664326 
L 213.240717 -304.723674 
L 213.239073 -305.783022 
L 213.237546 -306.842369 
L 213.236152 -307.901717 
L 213.234908 -308.961065 
L 213.233827 -310.020413 
L 213.232922 -311.079761 
L 213.232206 -312.139108 
L 213.231687 -313.198456 
L 213.231375 -314.257804 
L 213.231275 -315.317152 
L 213.231394 -316.3765 
L 213.537719 -316.3765 
L 213.537719 -316.3765 
L 213.537838 -315.317152 
L 213.537739 -314.257804 
L 213.537426 -313.198456 
L 213.536907 -312.139108 
L 213.536191 -311.079761 
L 213.535287 -310.020413 
L 213.534206 -308.961065 
L 213.532961 -307.901717 
L 213.531568 -306.842369 
L 213.53004 -305.783022 
L 213.528396 -304.723674 
L 213.526654 -303.664326 
L 213.524833 -302.604978 
L 213.522954 -301.54563 
L 213.521038 -300.486282 
L 213.519109 -299.426935 
L 213.517188 -298.367587 
L 213.515301 -297.308239 
L 213.513473 -296.248891 
L 213.511728 -295.189543 
L 213.510093 -294.130195 
L 213.508595 -293.070848 
L 213.50726 -292.0115 
L 213.506114 -290.952152 
L 213.505186 -289.892804 
L 213.504501 -288.833456 
L 213.504088 -287.774109 
L 213.503971 -286.714761 
L 213.504179 -285.655413 
L 213.504737 -284.596065 
L 213.505671 -283.536717 
L 213.507005 -282.477369 
L 213.508764 -281.418022 
L 213.510972 -280.358674 
L 213.513651 -279.299326 
L 213.516823 -278.239978 
L 213.520509 -277.18063 
L 213.524727 -276.121282 
L 213.529498 -275.061935 
L 213.534836 -274.002587 
L 213.540757 -272.943239 
L 213.547276 -271.883891 
L 213.554404 -270.824543 
L 213.56215 -269.765196 
L 213.570524 -268.705848 
L 213.579531 -267.6465 
L 213.589175 -266.587152 
L 213.599458 -265.527804 
L 213.610378 -264.468456 
L 213.621933 -263.409109 
L 213.634117 -262.349761 
L 213.64692 -261.290413 
L 213.660331 -260.231065 
L 213.674336 -259.171717 
L 213.688918 -258.11237 
L 213.704056 -257.053022 
L 213.719727 -255.993674 
L 213.735903 -254.934326 
L 213.752556 -253.874978 
L 213.769653 -252.81563 
L 213.787157 -251.756283 
L 213.80503 -250.696935 
L 213.823229 -249.637587 
L 213.841709 -248.578239 
L 213.860423 -247.518891 
L 213.879321 -246.459543 
L 213.898348 -245.400196 
L 213.917449 -244.340848 
L 213.936566 -243.2815 
L 213.95564 -242.222152 
L 213.974609 -241.162804 
L 213.993411 -240.103457 
L 214.011979 -239.044109 
L 214.030251 -237.984761 
L 214.048159 -236.925413 
L 214.065638 -235.866065 
L 214.082622 -234.806717 
L 214.099045 -233.74737 
L 214.114843 -232.688022 
L 214.129953 -231.628674 
L 214.144313 -230.569326 
L 214.157864 -229.509978 
L 214.170547 -228.45063 
L 214.182309 -227.391283 
L 214.193098 -226.331935 
L 214.202867 -225.272587 
L 214.21157 -224.213239 
L 214.219168 -223.153891 
L 214.225626 -222.094544 
L 214.230912 -221.035196 
L 214.235 -219.975848 
L 214.23787 -218.9165 
L 214.239505 -217.857152 
L 214.239896 -216.797804 
L 214.239037 -215.738457 
L 214.236929 -214.679109 
L 214.233579 -213.619761 
L 214.228998 -212.560413 
L 214.223203 -211.501065 
z
" id="m91dd0ad309" style="stroke:#545454;stroke-width:2.5;"/>
    </defs>
    <g clip-path="url(#p9996e2093a)">
     <use style="fill:#d98b5f;stroke:#545454;stroke-width:2.5;" x="0" xlink:href="#m91dd0ad309" y="503.420156"/>
    </g>
   </g>
   <g id="PolyCollection_7">
    <defs>
     <path d="M 255.673638 -211.501065 
L 234.529097 -211.501065 
L 236.750404 -212.869068 
L 240.985688 -214.237071 
L 243.835806 -215.605073 
L 244.858561 -216.973076 
L 245.072302 -218.341079 
L 245.099197 -219.709081 
L 245.101267 -221.077084 
L 245.101365 -222.445087 
L 245.101365 -223.813089 
L 245.101346 -225.181092 
L 245.101243 -226.549095 
L 245.10088 -227.917097 
L 245.100027 -229.2851 
L 245.098604 -230.653103 
L 245.096814 -232.021105 
L 245.094915 -233.389108 
L 245.09258 -234.757111 
L 245.088069 -236.125113 
L 245.078763 -237.493116 
L 245.064216 -238.861119 
L 245.04859 -240.229122 
L 245.038034 -241.597124 
L 245.035249 -242.965127 
L 245.037937 -244.33313 
L 245.042007 -245.701132 
L 245.044852 -247.069135 
L 245.046181 -248.437138 
L 245.047392 -249.80514 
L 245.050103 -251.173143 
L 245.054072 -252.541146 
L 245.057541 -253.909148 
L 245.059556 -255.277151 
L 245.06103 -256.645154 
L 245.063677 -258.013156 
L 245.067641 -259.381159 
L 245.071502 -260.749162 
L 245.074708 -262.117164 
L 245.077771 -263.485167 
L 245.080426 -264.85317 
L 245.081838 -266.221172 
L 245.082331 -267.589175 
L 245.083197 -268.957178 
L 245.084857 -270.32518 
L 245.086145 -271.693183 
L 245.086012 -273.061186 
L 245.08469 -274.429188 
L 245.082306 -275.797191 
L 245.078672 -277.165194 
L 245.074519 -278.533196 
L 245.07061 -279.901199 
L 245.066599 -281.269202 
L 245.061471 -282.637204 
L 245.055364 -284.005207 
L 245.051225 -285.37321 
L 245.051505 -286.741212 
L 245.05466 -288.109215 
L 245.058468 -289.477218 
L 245.06277 -290.84522 
L 245.067447 -292.213223 
L 245.071431 -293.581226 
L 245.074243 -294.949228 
L 245.076573 -296.317231 
L 245.078998 -297.685234 
L 245.08109 -299.053237 
L 245.082154 -300.421239 
L 245.082547 -301.789242 
L 245.08339 -303.157245 
L 245.085019 -304.525247 
L 245.087234 -305.89325 
L 245.090025 -307.261253 
L 245.092276 -308.629255 
L 245.092204 -309.997258 
L 245.0901 -311.365261 
L 245.088318 -312.733263 
L 245.088225 -314.101266 
L 245.089155 -315.469269 
L 245.090221 -316.837271 
L 245.091344 -318.205274 
L 245.092697 -319.573277 
L 245.093789 -320.941279 
L 245.093513 -322.309282 
L 245.091707 -323.677285 
L 245.08981 -325.045287 
L 245.089096 -326.41329 
L 245.089611 -327.781293 
L 245.091308 -329.149295 
L 245.094075 -330.517298 
L 245.096864 -331.885301 
L 245.098687 -333.253303 
L 245.099665 -334.621306 
L 245.100344 -335.989309 
L 245.100808 -337.357311 
L 245.100817 -338.725314 
L 245.100212 -340.093317 
L 245.099035 -341.461319 
L 245.097573 -342.829322 
L 245.096517 -344.197325 
L 245.096713 -345.565327 
L 245.098156 -346.93333 
L 245.10458 -346.93333 
L 245.10458 -346.93333 
L 245.106022 -345.565327 
L 245.106219 -344.197325 
L 245.105163 -342.829322 
L 245.103701 -341.461319 
L 245.102524 -340.093317 
L 245.101919 -338.725314 
L 245.101928 -337.357311 
L 245.102392 -335.989309 
L 245.10307 -334.621306 
L 245.104049 -333.253303 
L 245.105872 -331.885301 
L 245.108661 -330.517298 
L 245.111428 -329.149295 
L 245.113125 -327.781293 
L 245.11364 -326.41329 
L 245.112925 -325.045287 
L 245.111028 -323.677285 
L 245.109223 -322.309282 
L 245.108946 -320.941279 
L 245.110038 -319.573277 
L 245.111391 -318.205274 
L 245.112515 -316.837271 
L 245.113581 -315.469269 
L 245.114511 -314.101266 
L 245.114417 -312.733263 
L 245.112636 -311.365261 
L 245.110532 -309.997258 
L 245.110459 -308.629255 
L 245.112711 -307.261253 
L 245.115501 -305.89325 
L 245.117717 -304.525247 
L 245.119345 -303.157245 
L 245.120188 -301.789242 
L 245.120582 -300.421239 
L 245.121646 -299.053237 
L 245.123738 -297.685234 
L 245.126163 -296.317231 
L 245.128493 -294.949228 
L 245.131305 -293.581226 
L 245.135289 -292.213223 
L 245.139965 -290.84522 
L 245.144268 -289.477218 
L 245.148076 -288.109215 
L 245.151231 -286.741212 
L 245.151511 -285.37321 
L 245.147372 -284.005207 
L 245.141265 -282.637204 
L 245.136137 -281.269202 
L 245.132125 -279.901199 
L 245.128217 -278.533196 
L 245.124064 -277.165194 
L 245.120429 -275.797191 
L 245.118046 -274.429188 
L 245.116724 -273.061186 
L 245.116591 -271.693183 
L 245.117879 -270.32518 
L 245.119539 -268.957178 
L 245.120405 -267.589175 
L 245.120898 -266.221172 
L 245.12231 -264.85317 
L 245.124965 -263.485167 
L 245.128028 -262.117164 
L 245.131234 -260.749162 
L 245.135095 -259.381159 
L 245.139059 -258.013156 
L 245.141706 -256.645154 
L 245.143179 -255.277151 
L 245.145194 -253.909148 
L 245.148663 -252.541146 
L 245.152633 -251.173143 
L 245.155344 -249.80514 
L 245.156555 -248.437138 
L 245.157884 -247.069135 
L 245.160729 -245.701132 
L 245.164798 -244.33313 
L 245.167487 -242.965127 
L 245.164702 -241.597124 
L 245.154146 -240.229122 
L 245.138519 -238.861119 
L 245.123973 -237.493116 
L 245.114667 -236.125113 
L 245.110156 -234.757111 
L 245.107821 -233.389108 
L 245.105922 -232.021105 
L 245.104132 -230.653103 
L 245.102709 -229.2851 
L 245.101855 -227.917097 
L 245.101493 -226.549095 
L 245.10139 -225.181092 
L 245.10137 -223.813089 
L 245.101371 -222.445087 
L 245.101469 -221.077084 
L 245.103539 -219.709081 
L 245.130433 -218.341079 
L 245.344175 -216.973076 
L 246.366929 -215.605073 
L 249.217048 -214.237071 
L 253.452331 -212.869068 
L 255.673638 -211.501065 
z
" id="m49b93fad8f" style="stroke:#545454;stroke-width:2.5;"/>
    </defs>
    <g clip-path="url(#p9996e2093a)">
     <use style="fill:#597dbf;stroke:#545454;stroke-width:2.5;" x="0" xlink:href="#m49b93fad8f" y="503.420156"/>
    </g>
   </g>
   <g id="PolyCollection_8">
    <defs>
     <path d="M 267.085042 -211.501065 
L 265.406776 -211.501065 
L 265.400931 -212.353784 
L 265.396308 -213.206502 
L 265.392925 -214.059221 
L 265.390795 -214.911939 
L 265.389925 -215.764658 
L 265.390315 -216.617376 
L 265.391962 -217.470095 
L 265.394854 -218.322814 
L 265.398977 -219.175532 
L 265.404311 -220.028251 
L 265.410828 -220.880969 
L 265.418498 -221.733688 
L 265.427285 -222.586406 
L 265.437149 -223.439125 
L 265.448045 -224.291843 
L 265.459925 -225.144562 
L 265.472736 -225.99728 
L 265.486425 -226.849999 
L 265.500932 -227.702717 
L 265.516197 -228.555436 
L 265.532157 -229.408154 
L 265.548749 -230.260873 
L 265.565907 -231.113591 
L 265.583563 -231.96631 
L 265.601652 -232.819028 
L 265.620106 -233.671747 
L 265.638858 -234.524466 
L 265.657842 -235.377184 
L 265.676992 -236.229903 
L 265.696245 -237.082621 
L 265.715537 -237.93534 
L 265.734808 -238.788058 
L 265.753998 -239.640777 
L 265.773052 -240.493495 
L 265.791916 -241.346214 
L 265.810537 -242.198932 
L 265.828867 -243.051651 
L 265.84686 -243.904369 
L 265.864475 -244.757088 
L 265.881671 -245.609806 
L 265.898412 -246.462525 
L 265.914664 -247.315243 
L 265.930399 -248.167962 
L 265.945589 -249.02068 
L 265.960211 -249.873399 
L 265.974244 -250.726117 
L 265.987672 -251.578836 
L 266.000479 -252.431555 
L 266.012656 -253.284273 
L 266.024193 -254.136992 
L 266.035086 -254.98971 
L 266.045331 -255.842429 
L 266.054927 -256.695147 
L 266.063878 -257.547866 
L 266.072188 -258.400584 
L 266.079863 -259.253303 
L 266.086912 -260.106021 
L 266.093346 -260.95874 
L 266.099177 -261.811458 
L 266.104421 -262.664177 
L 266.109092 -263.516895 
L 266.113209 -264.369614 
L 266.11679 -265.222332 
L 266.119856 -266.075051 
L 266.122427 -266.927769 
L 266.124526 -267.780488 
L 266.126176 -268.633207 
L 266.127401 -269.485925 
L 266.128227 -270.338644 
L 266.128678 -271.191362 
L 266.128781 -272.044081 
L 266.128561 -272.896799 
L 266.128047 -273.749518 
L 266.127264 -274.602236 
L 266.126241 -275.454955 
L 266.125003 -276.307673 
L 266.12358 -277.160392 
L 266.121996 -278.01311 
L 266.12028 -278.865829 
L 266.118457 -279.718547 
L 266.116554 -280.571266 
L 266.114596 -281.423984 
L 266.112609 -282.276703 
L 266.110615 -283.129421 
L 266.10864 -283.98214 
L 266.106704 -284.834858 
L 266.104831 -285.687577 
L 266.103039 -286.540296 
L 266.101349 -287.393014 
L 266.099779 -288.245733 
L 266.098345 -289.098451 
L 266.097063 -289.95117 
L 266.095948 -290.803888 
L 266.095011 -291.656607 
L 266.094265 -292.509325 
L 266.09372 -293.362044 
L 266.093382 -294.214762 
L 266.09326 -295.067481 
L 266.093358 -295.920199 
L 266.39846 -295.920199 
L 266.39846 -295.920199 
L 266.398558 -295.067481 
L 266.398435 -294.214762 
L 266.398098 -293.362044 
L 266.397552 -292.509325 
L 266.396806 -291.656607 
L 266.39587 -290.803888 
L 266.394754 -289.95117 
L 266.393473 -289.098451 
L 266.392039 -288.245733 
L 266.390468 -287.393014 
L 266.388778 -286.540296 
L 266.386987 -285.687577 
L 266.385113 -284.834858 
L 266.383178 -283.98214 
L 266.381202 -283.129421 
L 266.379209 -282.276703 
L 266.377221 -281.423984 
L 266.375263 -280.571266 
L 266.37336 -279.718547 
L 266.371538 -278.865829 
L 266.369821 -278.01311 
L 266.368238 -277.160392 
L 266.366814 -276.307673 
L 266.365576 -275.454955 
L 266.364553 -274.602236 
L 266.36377 -273.749518 
L 266.363256 -272.896799 
L 266.363037 -272.044081 
L 266.363139 -271.191362 
L 266.363591 -270.338644 
L 266.364416 -269.485925 
L 266.365642 -268.633207 
L 266.367292 -267.780488 
L 266.369391 -266.927769 
L 266.371962 -266.075051 
L 266.375027 -265.222332 
L 266.378608 -264.369614 
L 266.382725 -263.516895 
L 266.387397 -262.664177 
L 266.39264 -261.811458 
L 266.398472 -260.95874 
L 266.404906 -260.106021 
L 266.411955 -259.253303 
L 266.41963 -258.400584 
L 266.427939 -257.547866 
L 266.43689 -256.695147 
L 266.446487 -255.842429 
L 266.456731 -254.98971 
L 266.467624 -254.136992 
L 266.479161 -253.284273 
L 266.491338 -252.431555 
L 266.504146 -251.578836 
L 266.517573 -250.726117 
L 266.531606 -249.873399 
L 266.546228 -249.02068 
L 266.561418 -248.167962 
L 266.577153 -247.315243 
L 266.593406 -246.462525 
L 266.610147 -245.609806 
L 266.627342 -244.757088 
L 266.644957 -243.904369 
L 266.662951 -243.051651 
L 266.681281 -242.198932 
L 266.699902 -241.346214 
L 266.718765 -240.493495 
L 266.737819 -239.640777 
L 266.75701 -238.788058 
L 266.77628 -237.93534 
L 266.795572 -237.082621 
L 266.814825 -236.229903 
L 266.833975 -235.377184 
L 266.852959 -234.524466 
L 266.871711 -233.671747 
L 266.890165 -232.819028 
L 266.908254 -231.96631 
L 266.925911 -231.113591 
L 266.943068 -230.260873 
L 266.95966 -229.408154 
L 266.975621 -228.555436 
L 266.990886 -227.702717 
L 267.005393 -226.849999 
L 267.019081 -225.99728 
L 267.031893 -225.144562 
L 267.043773 -224.291843 
L 267.054669 -223.439125 
L 267.064533 -222.586406 
L 267.07332 -221.733688 
L 267.08099 -220.880969 
L 267.087507 -220.028251 
L 267.09284 -219.175532 
L 267.096963 -218.322814 
L 267.099856 -217.470095 
L 267.101502 -216.617376 
L 267.101892 -215.764658 
L 267.101022 -214.911939 
L 267.098892 -214.059221 
L 267.095509 -213.206502 
L 267.090887 -212.353784 
L 267.085042 -211.501065 
z
" id="mb0442177d8" style="stroke:#545454;stroke-width:2.5;"/>
    </defs>
    <g clip-path="url(#p9996e2093a)">
     <use style="fill:#d98b5f;stroke:#545454;stroke-width:2.5;" x="0" xlink:href="#mb0442177d8" y="503.420156"/>
    </g>
   </g>
   <g id="PolyCollection_9">
    <defs>
     <path d="M 308.53499 -211.501065 
L 287.390449 -211.501065 
L 290.577427 -212.200652 
L 295.44524 -212.900238 
L 297.543962 -213.599824 
L 297.928729 -214.29941 
L 297.96137 -214.998996 
L 297.962655 -215.698583 
L 297.962523 -216.398169 
L 297.962177 -217.097755 
L 297.961596 -217.797341 
L 297.96023 -218.496927 
L 297.957821 -219.196514 
L 297.955544 -219.8961 
L 297.954801 -220.595686 
L 297.9559 -221.295272 
L 297.957728 -221.994858 
L 297.959403 -222.694445 
L 297.960531 -223.394031 
L 297.961134 -224.093617 
L 297.961313 -224.793203 
L 297.960767 -225.492789 
L 297.96025 -226.192376 
L 297.960756 -226.891962 
L 297.961733 -227.591548 
L 297.962196 -228.291134 
L 297.961736 -228.99072 
L 297.960112 -229.690307 
L 297.957098 -230.389893 
L 297.95372 -231.089479 
L 297.951459 -231.789065 
L 297.950255 -232.488651 
L 297.949257 -233.188238 
L 297.948051 -233.887824 
L 297.947272 -234.58741 
L 297.945643 -235.286996 
L 297.942414 -235.986583 
L 297.939964 -236.686169 
L 297.939272 -237.385755 
L 297.938723 -238.085341 
L 297.937046 -238.784927 
L 297.935947 -239.484514 
L 297.936892 -240.1841 
L 297.940057 -240.883686 
L 297.944104 -241.583272 
L 297.945372 -242.282858 
L 297.944283 -242.982445 
L 297.944443 -243.682031 
L 297.945655 -244.381617 
L 297.945185 -245.081203 
L 297.9425 -245.780789 
L 297.939824 -246.480376 
L 297.939524 -247.179962 
L 297.940941 -247.879548 
L 297.943964 -248.579134 
L 297.948552 -249.27872 
L 297.952198 -249.978307 
L 297.95322 -250.677893 
L 297.952754 -251.377479 
L 297.952212 -252.077065 
L 297.952346 -252.776651 
L 297.953786 -253.476238 
L 297.955406 -254.175824 
L 297.956054 -254.87541 
L 297.955329 -255.574996 
L 297.952986 -256.274582 
L 297.950945 -256.974169 
L 297.95086 -257.673755 
L 297.951217 -258.373341 
L 297.950775 -259.072927 
L 297.950353 -259.772513 
L 297.950421 -260.4721 
L 297.951626 -261.171686 
L 297.953592 -261.871272 
L 297.95494 -262.570858 
L 297.955884 -263.270444 
L 297.957305 -263.970031 
L 297.957788 -264.669617 
L 297.956873 -265.369203 
L 297.956061 -266.068789 
L 297.955823 -266.768376 
L 297.95638 -267.467962 
L 297.957174 -268.167548 
L 297.957048 -268.867134 
L 297.956684 -269.56672 
L 297.957531 -270.266307 
L 297.959084 -270.965893 
L 297.960246 -271.665479 
L 297.960761 -272.365065 
L 297.961044 -273.064651 
L 297.961566 -273.764238 
L 297.962183 -274.463824 
L 297.962565 -275.16341 
L 297.962645 -275.862996 
L 297.962403 -276.562582 
L 297.961653 -277.262169 
L 297.960472 -277.961755 
L 297.959301 -278.661341 
L 297.95873 -279.360927 
L 297.959257 -280.060513 
L 297.960534 -280.7601 
L 297.964905 -280.7601 
L 297.964905 -280.7601 
L 297.966183 -280.060513 
L 297.96671 -279.360927 
L 297.966139 -278.661341 
L 297.964968 -277.961755 
L 297.963786 -277.262169 
L 297.963037 -276.562582 
L 297.962795 -275.862996 
L 297.962875 -275.16341 
L 297.963257 -274.463824 
L 297.963873 -273.764238 
L 297.964395 -273.064651 
L 297.964679 -272.365065 
L 297.965194 -271.665479 
L 297.966356 -270.965893 
L 297.967909 -270.266307 
L 297.968756 -269.56672 
L 297.968392 -268.867134 
L 297.968266 -268.167548 
L 297.96906 -267.467962 
L 297.969617 -266.768376 
L 297.969379 -266.068789 
L 297.968567 -265.369203 
L 297.967652 -264.669617 
L 297.968135 -263.970031 
L 297.969556 -263.270444 
L 297.9705 -262.570858 
L 297.971847 -261.871272 
L 297.973813 -261.171686 
L 297.975019 -260.4721 
L 297.975087 -259.772513 
L 297.974665 -259.072927 
L 297.974223 -258.373341 
L 297.97458 -257.673755 
L 297.974494 -256.974169 
L 297.972454 -256.274582 
L 297.970111 -255.574996 
L 297.969386 -254.87541 
L 297.970034 -254.175824 
L 297.971653 -253.476238 
L 297.973094 -252.776651 
L 297.973228 -252.077065 
L 297.972686 -251.377479 
L 297.97222 -250.677893 
L 297.973242 -249.978307 
L 297.976888 -249.27872 
L 297.981476 -248.579134 
L 297.984499 -247.879548 
L 297.985915 -247.179962 
L 297.985615 -246.480376 
L 297.98294 -245.780789 
L 297.980255 -245.081203 
L 297.979785 -244.381617 
L 297.980997 -243.682031 
L 297.981157 -242.982445 
L 297.980068 -242.282858 
L 297.981336 -241.583272 
L 297.985383 -240.883686 
L 297.988548 -240.1841 
L 297.989493 -239.484514 
L 297.988394 -238.784927 
L 297.986716 -238.085341 
L 297.986167 -237.385755 
L 297.985476 -236.686169 
L 297.983026 -235.986583 
L 297.979796 -235.286996 
L 297.978168 -234.58741 
L 297.977389 -233.887824 
L 297.976183 -233.188238 
L 297.975185 -232.488651 
L 297.97398 -231.789065 
L 297.97172 -231.089479 
L 297.968342 -230.389893 
L 297.965327 -229.690307 
L 297.963704 -228.99072 
L 297.963244 -228.291134 
L 297.963707 -227.591548 
L 297.964684 -226.891962 
L 297.96519 -226.192376 
L 297.964673 -225.492789 
L 297.964126 -224.793203 
L 297.964305 -224.093617 
L 297.964909 -223.394031 
L 297.966037 -222.694445 
L 297.967711 -221.994858 
L 297.96954 -221.295272 
L 297.970639 -220.595686 
L 297.969895 -219.8961 
L 297.967618 -219.196514 
L 297.965209 -218.496927 
L 297.963844 -217.797341 
L 297.963263 -217.097755 
L 297.962917 -216.398169 
L 297.962785 -215.698583 
L 297.96407 -214.998996 
L 297.996711 -214.29941 
L 298.381478 -213.599824 
L 300.4802 -212.900238 
L 305.348013 -212.200652 
L 308.53499 -211.501065 
z
" id="m13197acabd" style="stroke:#545454;stroke-width:2.5;"/>
    </defs>
    <g clip-path="url(#p9996e2093a)">
     <use style="fill:#597dbf;stroke:#545454;stroke-width:2.5;" x="0" xlink:href="#m13197acabd" y="503.420156"/>
    </g>
   </g>
   <g id="PolyCollection_10">
    <defs>
     <path d="M 319.922778 -211.501065 
L 318.291743 -211.501065 
L 318.291172 -211.875139 
L 318.291884 -212.249213 
L 318.293876 -212.623288 
L 318.297139 -212.997362 
L 318.301656 -213.371436 
L 318.307406 -213.74551 
L 318.314362 -214.119584 
L 318.32249 -214.493658 
L 318.331754 -214.867732 
L 318.342108 -215.241806 
L 318.353507 -215.61588 
L 318.365898 -215.989954 
L 318.379225 -216.364028 
L 318.393428 -216.738102 
L 318.408445 -217.112176 
L 318.424211 -217.486251 
L 318.440658 -217.860325 
L 318.457718 -218.234399 
L 318.475319 -218.608473 
L 318.493391 -218.982547 
L 318.511862 -219.356621 
L 318.53066 -219.730695 
L 318.549714 -220.104769 
L 318.568955 -220.478843 
L 318.588312 -220.852917 
L 318.60772 -221.226991 
L 318.627111 -221.601065 
L 318.646425 -221.975139 
L 318.6656 -222.349213 
L 318.684578 -222.723288 
L 318.703306 -223.097362 
L 318.721731 -223.471436 
L 318.739806 -223.84551 
L 318.757487 -224.219584 
L 318.774732 -224.593658 
L 318.791505 -224.967732 
L 318.807771 -225.341806 
L 318.823501 -225.71588 
L 318.838669 -226.089954 
L 318.853253 -226.464028 
L 318.867232 -226.838102 
L 318.880591 -227.212176 
L 318.893318 -227.58625 
L 318.905404 -227.960325 
L 318.916843 -228.334399 
L 318.927631 -228.708473 
L 318.937768 -229.082547 
L 318.947255 -229.456621 
L 318.956099 -229.830695 
L 318.964304 -230.204769 
L 318.97188 -230.578843 
L 318.978838 -230.952917 
L 318.985191 -231.326991 
L 318.990951 -231.701065 
L 318.996135 -232.075139 
L 319.00076 -232.449213 
L 319.004843 -232.823288 
L 319.008403 -233.197362 
L 319.011461 -233.571436 
L 319.014036 -233.94551 
L 319.016149 -234.319584 
L 319.017824 -234.693658 
L 319.01908 -235.067732 
L 319.019943 -235.441806 
L 319.020433 -235.81588 
L 319.020574 -236.189954 
L 319.02039 -236.564028 
L 319.019904 -236.938102 
L 319.019139 -237.312176 
L 319.018118 -237.68625 
L 319.016865 -238.060325 
L 319.015403 -238.434399 
L 319.013754 -238.808473 
L 319.011943 -239.182547 
L 319.00999 -239.556621 
L 319.00792 -239.930695 
L 319.005752 -240.304769 
L 319.00351 -240.678843 
L 319.001213 -241.052917 
L 318.998883 -241.426991 
L 318.99654 -241.801065 
L 318.994203 -242.175139 
L 318.991891 -242.549213 
L 318.989623 -242.923287 
L 318.987415 -243.297362 
L 318.985284 -243.671436 
L 318.983247 -244.04551 
L 318.981319 -244.419584 
L 318.979513 -244.793658 
L 318.977842 -245.167732 
L 318.976319 -245.541806 
L 318.974955 -245.91588 
L 318.973759 -246.289954 
L 318.972741 -246.664028 
L 318.971908 -247.038102 
L 318.971267 -247.412176 
L 318.970824 -247.78625 
L 318.970581 -248.160325 
L 318.970543 -248.534399 
L 319.243978 -248.534399 
L 319.243978 -248.534399 
L 319.24394 -248.160325 
L 319.243698 -247.78625 
L 319.243254 -247.412176 
L 319.242613 -247.038102 
L 319.24178 -246.664028 
L 319.240762 -246.289954 
L 319.239567 -245.91588 
L 319.238202 -245.541806 
L 319.236679 -245.167732 
L 319.235009 -244.793658 
L 319.233202 -244.419584 
L 319.231274 -244.04551 
L 319.229237 -243.671436 
L 319.227107 -243.297362 
L 319.224899 -242.923287 
L 319.22263 -242.549213 
L 319.220318 -242.175139 
L 319.217981 -241.801065 
L 319.215638 -241.426991 
L 319.213308 -241.052917 
L 319.211012 -240.678843 
L 319.208769 -240.304769 
L 319.206602 -239.930695 
L 319.204531 -239.556621 
L 319.202579 -239.182547 
L 319.200767 -238.808473 
L 319.199119 -238.434399 
L 319.197657 -238.060325 
L 319.196404 -237.68625 
L 319.195383 -237.312176 
L 319.194617 -236.938102 
L 319.194131 -236.564028 
L 319.193947 -236.189954 
L 319.194088 -235.81588 
L 319.194579 -235.441806 
L 319.195441 -235.067732 
L 319.196698 -234.693658 
L 319.198372 -234.319584 
L 319.200486 -233.94551 
L 319.203061 -233.571436 
L 319.206118 -233.197362 
L 319.209678 -232.823288 
L 319.213761 -232.449213 
L 319.218386 -232.075139 
L 319.22357 -231.701065 
L 319.229331 -231.326991 
L 319.235683 -230.952917 
L 319.242641 -230.578843 
L 319.250217 -230.204769 
L 319.258423 -229.830695 
L 319.267266 -229.456621 
L 319.276754 -229.082547 
L 319.28689 -228.708473 
L 319.297678 -228.334399 
L 319.309117 -227.960325 
L 319.321203 -227.58625 
L 319.33393 -227.212176 
L 319.34729 -226.838102 
L 319.361269 -226.464028 
L 319.375852 -226.089954 
L 319.39102 -225.71588 
L 319.40675 -225.341806 
L 319.423017 -224.967732 
L 319.439789 -224.593658 
L 319.457035 -224.219584 
L 319.474715 -223.84551 
L 319.49279 -223.471436 
L 319.511216 -223.097362 
L 319.529943 -222.723288 
L 319.548922 -222.349213 
L 319.568096 -221.975139 
L 319.58741 -221.601065 
L 319.606802 -221.226991 
L 319.626209 -220.852917 
L 319.645567 -220.478843 
L 319.664807 -220.104769 
L 319.683861 -219.730695 
L 319.702659 -219.356621 
L 319.72113 -218.982547 
L 319.739202 -218.608473 
L 319.756803 -218.234399 
L 319.773863 -217.860325 
L 319.79031 -217.486251 
L 319.806076 -217.112176 
L 319.821093 -216.738102 
L 319.835297 -216.364028 
L 319.848623 -215.989954 
L 319.861014 -215.61588 
L 319.872413 -215.241806 
L 319.882768 -214.867732 
L 319.892031 -214.493658 
L 319.900159 -214.119584 
L 319.907115 -213.74551 
L 319.912865 -213.371436 
L 319.917382 -212.997362 
L 319.920645 -212.623288 
L 319.922637 -212.249213 
L 319.923349 -211.875139 
L 319.922778 -211.501065 
z
" id="m51849ca04d" style="stroke:#545454;stroke-width:2.5;"/>
    </defs>
    <g clip-path="url(#p9996e2093a)">
     <use style="fill:#d98b5f;stroke:#545454;stroke-width:2.5;" x="0" xlink:href="#m51849ca04d" y="503.420156"/>
    </g>
   </g>
   <g id="patch_3">
    <path clip-path="url(#p9996e2093a)" d="M 97.089582 291.919091 
L 97.089582 291.919091 
L 97.089582 291.919091 
L 97.089582 291.919091 
z
" style="fill:#597dbf;stroke:#545454;stroke-linejoin:miter;stroke-width:1.25;"/>
   </g>
   <g id="patch_4">
    <path clip-path="url(#p9996e2093a)" d="M 97.089582 291.919091 
L 97.089582 291.919091 
L 97.089582 291.919091 
L 97.089582 291.919091 
z
" style="fill:#d98b5f;stroke:#545454;stroke-linejoin:miter;stroke-width:1.25;"/>
   </g>
   <g id="line2d_1">
    <path clip-path="url(#p9996e2093a)" d="M 86.517312 291.919091 
L 86.517312 291.919091 
" style="fill:none;stroke:#545454;stroke-linecap:round;stroke-width:2.5;"/>
   </g>
   <g id="line2d_2">
    <path clip-path="url(#p9996e2093a)" d="M 86.517312 291.919091 
L 86.517312 291.919091 
" style="fill:none;stroke:#545454;stroke-linecap:round;stroke-width:7.5;"/>
   </g>
   <g id="line2d_3">
    <path clip-path="url(#p9996e2093a)" d="M 107.661853 291.919091 
L 107.661853 233.049823 
" style="fill:none;stroke:#545454;stroke-linecap:round;stroke-width:2.5;"/>
   </g>
   <g id="line2d_4">
    <path clip-path="url(#p9996e2093a)" d="M 107.661853 291.919091 
L 107.661853 241.158502 
" style="fill:none;stroke:#545454;stroke-linecap:round;stroke-width:7.5;"/>
   </g>
   <g id="line2d_5">
    <path clip-path="url(#p9996e2093a)" d="M 139.378664 291.919091 
L 139.378664 291.919091 
" style="fill:none;stroke:#545454;stroke-linecap:round;stroke-width:2.5;"/>
   </g>
   <g id="line2d_6">
    <path clip-path="url(#p9996e2093a)" d="M 139.378664 291.919091 
L 139.378664 291.919091 
" style="fill:none;stroke:#545454;stroke-linecap:round;stroke-width:7.5;"/>
   </g>
   <g id="line2d_7">
    <path clip-path="url(#p9996e2093a)" d="M 160.523205 291.919091 
L 160.523205 246.971552 
" style="fill:none;stroke:#545454;stroke-linecap:round;stroke-width:2.5;"/>
   </g>
   <g id="line2d_8">
    <path clip-path="url(#p9996e2093a)" d="M 160.523205 291.919091 
L 160.523205 253.220988 
" style="fill:none;stroke:#545454;stroke-linecap:round;stroke-width:7.5;"/>
   </g>
   <g id="line2d_9">
    <path clip-path="url(#p9996e2093a)" d="M 192.240016 291.919091 
L 192.240016 291.919091 
" style="fill:none;stroke:#545454;stroke-linecap:round;stroke-width:2.5;"/>
   </g>
   <g id="line2d_10">
    <path clip-path="url(#p9996e2093a)" d="M 192.240016 291.919091 
L 192.240016 291.919091 
" style="fill:none;stroke:#545454;stroke-linecap:round;stroke-width:7.5;"/>
   </g>
   <g id="line2d_11">
    <path clip-path="url(#p9996e2093a)" d="M 213.384557 291.919091 
L 213.384557 267.756887 
" style="fill:none;stroke:#545454;stroke-linecap:round;stroke-width:2.5;"/>
   </g>
   <g id="line2d_12">
    <path clip-path="url(#p9996e2093a)" d="M 213.384557 291.919091 
L 213.384557 273.459998 
" style="fill:none;stroke:#545454;stroke-linecap:round;stroke-width:7.5;"/>
   </g>
   <g id="line2d_13">
    <path clip-path="url(#p9996e2093a)" d="M 245.101368 291.919091 
L 245.101368 291.919091 
" style="fill:none;stroke:#545454;stroke-linecap:round;stroke-width:2.5;"/>
   </g>
   <g id="line2d_14">
    <path clip-path="url(#p9996e2093a)" d="M 245.101368 291.919091 
L 245.101368 291.919091 
" style="fill:none;stroke:#545454;stroke-linecap:round;stroke-width:7.5;"/>
   </g>
   <g id="line2d_15">
    <path clip-path="url(#p9996e2093a)" d="M 266.245909 291.919091 
L 266.245909 273.552625 
" style="fill:none;stroke:#545454;stroke-linecap:round;stroke-width:2.5;"/>
   </g>
   <g id="line2d_16">
    <path clip-path="url(#p9996e2093a)" d="M 266.245909 291.919091 
L 266.245909 277.336402 
" style="fill:none;stroke:#545454;stroke-linecap:round;stroke-width:7.5;"/>
   </g>
   <g id="line2d_17">
    <path clip-path="url(#p9996e2093a)" d="M 297.96272 291.919091 
L 297.96272 291.919091 
" style="fill:none;stroke:#545454;stroke-linecap:round;stroke-width:2.5;"/>
   </g>
   <g id="line2d_18">
    <path clip-path="url(#p9996e2093a)" d="M 297.96272 291.919091 
L 297.96272 291.919091 
" style="fill:none;stroke:#545454;stroke-linecap:round;stroke-width:7.5;"/>
   </g>
   <g id="line2d_19">
    <path clip-path="url(#p9996e2093a)" d="M 319.107261 291.919091 
L 319.107261 290.228071 
" style="fill:none;stroke:#545454;stroke-linecap:round;stroke-width:2.5;"/>
   </g>
   <g id="line2d_20">
    <path clip-path="url(#p9996e2093a)" d="M 319.107261 291.919091 
L 319.107261 290.861422 
" style="fill:none;stroke:#545454;stroke-linecap:round;stroke-width:7.5;"/>
   </g>
   <g id="patch_5">
    <path d="M 70.658906 304.3 
L 334.965666 304.3 
" style="fill:none;stroke:#262626;stroke-linecap:square;stroke-linejoin:miter;stroke-width:1.875;"/>
   </g>
   <g id="PathCollection_1">
    <defs>
     <path d="M 0 2.5 
C 0.663008 2.5 1.29895 2.236584 1.767767 1.767767 
C 2.236584 1.29895 2.5 0.663008 2.5 0 
C 2.5 -0.663008 2.236584 -1.29895 1.767767 -1.767767 
C 1.29895 -2.236584 0.663008 -2.5 0 -2.5 
C -0.663008 -2.5 -1.29895 -2.236584 -1.767767 -1.767767 
C -2.236584 -1.29895 -2.5 -0.663008 -2.5 0 
C -2.5 0.663008 -2.236584 1.29895 -1.767767 1.767767 
C -1.29895 2.236584 -0.663008 2.5 0 2.5 
z
" id="m754f71d0e7" style="stroke:#545454;stroke-width:1.5;"/>
    </defs>
    <g clip-path="url(#p9996e2093a)">
     <use style="fill:#ffffff;stroke:#545454;stroke-width:1.5;" x="86.517312" xlink:href="#m754f71d0e7" y="291.919091"/>
    </g>
   </g>
   <g id="PathCollection_2">
    <g clip-path="url(#p9996e2093a)">
     <use style="fill:#ffffff;stroke:#545454;stroke-width:1.5;" x="107.661853" xlink:href="#m754f71d0e7" y="291.919091"/>
    </g>
   </g>
   <g id="PathCollection_3">
    <g clip-path="url(#p9996e2093a)">
     <use style="fill:#ffffff;stroke:#545454;stroke-width:1.5;" x="139.378664" xlink:href="#m754f71d0e7" y="291.919091"/>
    </g>
   </g>
   <g id="PathCollection_4">
    <g clip-path="url(#p9996e2093a)">
     <use style="fill:#ffffff;stroke:#545454;stroke-width:1.5;" x="160.523205" xlink:href="#m754f71d0e7" y="291.919091"/>
    </g>
   </g>
   <g id="PathCollection_5">
    <g clip-path="url(#p9996e2093a)">
     <use style="fill:#ffffff;stroke:#545454;stroke-width:1.5;" x="192.240016" xlink:href="#m754f71d0e7" y="291.919091"/>
    </g>
   </g>
   <g id="PathCollection_6">
    <g clip-path="url(#p9996e2093a)">
     <use style="fill:#ffffff;stroke:#545454;stroke-width:1.5;" x="213.384557" xlink:href="#m754f71d0e7" y="291.919091"/>
    </g>
   </g>
   <g id="PathCollection_7">
    <g clip-path="url(#p9996e2093a)">
     <use style="fill:#ffffff;stroke:#545454;stroke-width:1.5;" x="245.101368" xlink:href="#m754f71d0e7" y="291.919091"/>
    </g>
   </g>
   <g id="PathCollection_8">
    <g clip-path="url(#p9996e2093a)">
     <use style="fill:#ffffff;stroke:#545454;stroke-width:1.5;" x="266.245909" xlink:href="#m754f71d0e7" y="291.919091"/>
    </g>
   </g>
   <g id="PathCollection_9">
    <g clip-path="url(#p9996e2093a)">
     <use style="fill:#ffffff;stroke:#545454;stroke-width:1.5;" x="297.96272" xlink:href="#m754f71d0e7" y="291.919091"/>
    </g>
   </g>
   <g id="PathCollection_10">
    <g clip-path="url(#p9996e2093a)">
     <use style="fill:#ffffff;stroke:#545454;stroke-width:1.5;" x="319.107261" xlink:href="#m754f71d0e7" y="291.919091"/>
    </g>
   </g>
  </g>
  <g id="text_15">
   <!-- OTH -->
   <g style="fill:#262626;" transform="translate(194.281266 16.412625)scale(0.216 -0.216)">
    <defs>
     <path d="M 39.40625 66.21875 
Q 28.65625 66.21875 22.328125 58.203125 
Q 16.015625 50.203125 16.015625 36.375 
Q 16.015625 22.609375 22.328125 14.59375 
Q 28.65625 6.59375 39.40625 6.59375 
Q 50.140625 6.59375 56.421875 14.59375 
Q 62.703125 22.609375 62.703125 36.375 
Q 62.703125 50.203125 56.421875 58.203125 
Q 50.140625 66.21875 39.40625 66.21875 
z
M 39.40625 74.21875 
Q 54.734375 74.21875 63.90625 63.9375 
Q 73.09375 53.65625 73.09375 36.375 
Q 73.09375 19.140625 63.90625 8.859375 
Q 54.734375 -1.421875 39.40625 -1.421875 
Q 24.03125 -1.421875 14.8125 8.828125 
Q 5.609375 19.09375 5.609375 36.375 
Q 5.609375 53.65625 14.8125 63.9375 
Q 24.03125 74.21875 39.40625 74.21875 
z
" id="DejaVuSans-79"/>
     <path d="M -0.296875 72.90625 
L 61.375 72.90625 
L 61.375 64.59375 
L 35.5 64.59375 
L 35.5 0 
L 25.59375 0 
L 25.59375 64.59375 
L -0.296875 64.59375 
z
" id="DejaVuSans-84"/>
    </defs>
    <use xlink:href="#DejaVuSans-79"/>
    <use x="78.710938" xlink:href="#DejaVuSans-84"/>
    <use x="139.794922" xlink:href="#DejaVuSans-72"/>
   </g>
  </g>
  <g id="legend_1">
   <g id="patch_6">
    <path d="M 329.868376 244.153594 
L 362.868376 244.153594 
L 362.868376 232.603594 
L 329.868376 232.603594 
z
" style="fill:#597dbf;stroke:#545454;stroke-linejoin:miter;stroke-width:1.25;"/>
   </g>
   <g id="text_16">
    <!-- actual -->
    <g style="fill:#262626;" transform="translate(376.068376 244.153594)scale(0.165 -0.165)">
     <defs>
      <path d="M 48.78125 52.59375 
L 48.78125 44.1875 
Q 44.96875 46.296875 41.140625 47.34375 
Q 37.3125 48.390625 33.40625 48.390625 
Q 24.65625 48.390625 19.8125 42.84375 
Q 14.984375 37.3125 14.984375 27.296875 
Q 14.984375 17.28125 19.8125 11.734375 
Q 24.65625 6.203125 33.40625 6.203125 
Q 37.3125 6.203125 41.140625 7.25 
Q 44.96875 8.296875 48.78125 10.40625 
L 48.78125 2.09375 
Q 45.015625 0.34375 40.984375 -0.53125 
Q 36.96875 -1.421875 32.421875 -1.421875 
Q 20.0625 -1.421875 12.78125 6.34375 
Q 5.515625 14.109375 5.515625 27.296875 
Q 5.515625 40.671875 12.859375 48.328125 
Q 20.21875 56 33.015625 56 
Q 37.15625 56 41.109375 55.140625 
Q 45.0625 54.296875 48.78125 52.59375 
z
" id="DejaVuSans-99"/>
      <path d="M 8.5 21.578125 
L 8.5 54.6875 
L 17.484375 54.6875 
L 17.484375 21.921875 
Q 17.484375 14.15625 20.5 10.265625 
Q 23.53125 6.390625 29.59375 6.390625 
Q 36.859375 6.390625 41.078125 11.03125 
Q 45.3125 15.671875 45.3125 23.6875 
L 45.3125 54.6875 
L 54.296875 54.6875 
L 54.296875 0 
L 45.3125 0 
L 45.3125 8.40625 
Q 42.046875 3.421875 37.71875 1 
Q 33.40625 -1.421875 27.6875 -1.421875 
Q 18.265625 -1.421875 13.375 4.4375 
Q 8.5 10.296875 8.5 21.578125 
z
M 31.109375 56 
z
" id="DejaVuSans-117"/>
     </defs>
     <use xlink:href="#DejaVuSans-97"/>
     <use x="61.279297" xlink:href="#DejaVuSans-99"/>
     <use x="116.259766" xlink:href="#DejaVuSans-116"/>
     <use x="155.46875" xlink:href="#DejaVuSans-117"/>
     <use x="218.847656" xlink:href="#DejaVuSans-97"/>
     <use x="280.126953" xlink:href="#DejaVuSans-108"/>
    </g>
   </g>
   <g id="patch_7">
    <path d="M 329.868376 268.3725 
L 362.868376 268.3725 
L 362.868376 256.8225 
L 329.868376 256.8225 
z
" style="fill:#d98b5f;stroke:#545454;stroke-linejoin:miter;stroke-width:1.25;"/>
   </g>
   <g id="text_17">
    <!-- cluster -->
    <g style="fill:#262626;" transform="translate(376.068376 268.3725)scale(0.165 -0.165)">
     <defs>
      <path d="M 44.28125 53.078125 
L 44.28125 44.578125 
Q 40.484375 46.53125 36.375 47.5 
Q 32.28125 48.484375 27.875 48.484375 
Q 21.1875 48.484375 17.84375 46.4375 
Q 14.5 44.390625 14.5 40.28125 
Q 14.5 37.15625 16.890625 35.375 
Q 19.28125 33.59375 26.515625 31.984375 
L 29.59375 31.296875 
Q 39.15625 29.25 43.1875 25.515625 
Q 47.21875 21.78125 47.21875 15.09375 
Q 47.21875 7.46875 41.1875 3.015625 
Q 35.15625 -1.421875 24.609375 -1.421875 
Q 20.21875 -1.421875 15.453125 -0.5625 
Q 10.6875 0.296875 5.421875 2 
L 5.421875 11.28125 
Q 10.40625 8.6875 15.234375 7.390625 
Q 20.0625 6.109375 24.8125 6.109375 
Q 31.15625 6.109375 34.5625 8.28125 
Q 37.984375 10.453125 37.984375 14.40625 
Q 37.984375 18.0625 35.515625 20.015625 
Q 33.0625 21.96875 24.703125 23.78125 
L 21.578125 24.515625 
Q 13.234375 26.265625 9.515625 29.90625 
Q 5.8125 33.546875 5.8125 39.890625 
Q 5.8125 47.609375 11.28125 51.796875 
Q 16.75 56 26.8125 56 
Q 31.78125 56 36.171875 55.265625 
Q 40.578125 54.546875 44.28125 53.078125 
z
" id="DejaVuSans-115"/>
     </defs>
     <use xlink:href="#DejaVuSans-99"/>
     <use x="54.980469" xlink:href="#DejaVuSans-108"/>
     <use x="82.763672" xlink:href="#DejaVuSans-117"/>
     <use x="146.142578" xlink:href="#DejaVuSans-115"/>
     <use x="198.242188" xlink:href="#DejaVuSans-116"/>
     <use x="237.451172" xlink:href="#DejaVuSans-101"/>
     <use x="298.974609" xlink:href="#DejaVuSans-114"/>
    </g>
   </g>
  </g>
 </g>
 <defs>
  <clipPath id="p9996e2093a">
   <rect height="272.38" width="264.30676" x="70.658906" y="31.92"/>
  </clipPath>
 </defs>
</svg>
