<?xml version="1.0" encoding="utf-8" standalone="no"?>
<!DOCTYPE svg PUBLIC "-//W3C//DTD SVG 1.1//EN"
  "http://www.w3.org/Graphics/SVG/1.1/DTD/svg11.dtd">
<!-- Created with matplotlib (https://matplotlib.org/) -->
<svg height="503.420156pt" version="1.1" viewBox="0 0 452.213875 503.420156" width="452.213875pt" xmlns="http://www.w3.org/2000/svg" xmlns:xlink="http://www.w3.org/1999/xlink">
 <metadata>
  <rdf:RDF xmlns:cc="http://creativecommons.org/ns#" xmlns:dc="http://purl.org/dc/elements/1.1/" xmlns:rdf="http://www.w3.org/1999/02/22-rdf-syntax-ns#">
   <cc:Work>
    <dc:type rdf:resource="http://purl.org/dc/dcmitype/StillImage"/>
    <dc:date>2021-01-22T11:01:11.551531</dc:date>
    <dc:format>image/svg+xml</dc:format>
    <dc:creator>
     <cc:Agent>
      <dc:title>Matplotlib v3.3.2, https://matplotlib.org/</dc:title>
     </cc:Agent>
    </dc:creator>
   </cc:Work>
  </rdf:RDF>
 </metadata>
 <defs>
  <style type="text/css">*{stroke-linecap:butt;stroke-linejoin:round;}</style>
 </defs>
 <g id="figure_1">
  <g id="patch_1">
   <path d="M 0 503.420156 
L 452.213875 503.420156 
L 452.213875 0 
L 0 0 
z
" style="fill:#ffffff;"/>
  </g>
  <g id="axes_1">
   <g id="patch_2">
    <path d="M 54.916875 304.3 
L 340.148275 304.3 
L 340.148275 31.92 
L 54.916875 31.92 
z
" style="fill:#ffffff;"/>
   </g>
   <g id="matplotlib.axis_1">
    <g id="xtick_1">
     <g id="text_1">
      <!-- Irrigation High -->
      <g style="fill:#262626;" transform="translate(87.992984 434.888437)rotate(-90)scale(0.165 -0.165)">
       <defs>
        <path d="M 9.8125 72.90625 
L 19.671875 72.90625 
L 19.671875 0 
L 9.8125 0 
z
" id="DejaVuSans-73"/>
        <path d="M 41.109375 46.296875 
Q 39.59375 47.171875 37.8125 47.578125 
Q 36.03125 48 33.890625 48 
Q 26.265625 48 22.1875 43.046875 
Q 18.109375 38.09375 18.109375 28.8125 
L 18.109375 0 
L 9.078125 0 
L 9.078125 54.6875 
L 18.109375 54.6875 
L 18.109375 46.1875 
Q 20.953125 51.171875 25.484375 53.578125 
Q 30.03125 56 36.53125 56 
Q 37.453125 56 38.578125 55.875 
Q 39.703125 55.765625 41.0625 55.515625 
z
" id="DejaVuSans-114"/>
        <path d="M 9.421875 54.6875 
L 18.40625 54.6875 
L 18.40625 0 
L 9.421875 0 
z
M 9.421875 75.984375 
L 18.40625 75.984375 
L 18.40625 64.59375 
L 9.421875 64.59375 
z
" id="DejaVuSans-105"/>
        <path d="M 45.40625 27.984375 
Q 45.40625 37.75 41.375 43.109375 
Q 37.359375 48.484375 30.078125 48.484375 
Q 22.859375 48.484375 18.828125 43.109375 
Q 14.796875 37.75 14.796875 27.984375 
Q 14.796875 18.265625 18.828125 12.890625 
Q 22.859375 7.515625 30.078125 7.515625 
Q 37.359375 7.515625 41.375 12.890625 
Q 45.40625 18.265625 45.40625 27.984375 
z
M 54.390625 6.78125 
Q 54.390625 -7.171875 48.1875 -13.984375 
Q 42 -20.796875 29.203125 -20.796875 
Q 24.46875 -20.796875 20.265625 -20.09375 
Q 16.0625 -19.390625 12.109375 -17.921875 
L 12.109375 -9.1875 
Q 16.0625 -11.328125 19.921875 -12.34375 
Q 23.78125 -13.375 27.78125 -13.375 
Q 36.625 -13.375 41.015625 -8.765625 
Q 45.40625 -4.15625 45.40625 5.171875 
L 45.40625 9.625 
Q 42.625 4.78125 38.28125 2.390625 
Q 33.9375 0 27.875 0 
Q 17.828125 0 11.671875 7.65625 
Q 5.515625 15.328125 5.515625 27.984375 
Q 5.515625 40.671875 11.671875 48.328125 
Q 17.828125 56 27.875 56 
Q 33.9375 56 38.28125 53.609375 
Q 42.625 51.21875 45.40625 46.390625 
L 45.40625 54.6875 
L 54.390625 54.6875 
z
" id="DejaVuSans-103"/>
        <path d="M 34.28125 27.484375 
Q 23.390625 27.484375 19.1875 25 
Q 14.984375 22.515625 14.984375 16.5 
Q 14.984375 11.71875 18.140625 8.90625 
Q 21.296875 6.109375 26.703125 6.109375 
Q 34.1875 6.109375 38.703125 11.40625 
Q 43.21875 16.703125 43.21875 25.484375 
L 43.21875 27.484375 
z
M 52.203125 31.203125 
L 52.203125 0 
L 43.21875 0 
L 43.21875 8.296875 
Q 40.140625 3.328125 35.546875 0.953125 
Q 30.953125 -1.421875 24.3125 -1.421875 
Q 15.921875 -1.421875 10.953125 3.296875 
Q 6 8.015625 6 15.921875 
Q 6 25.140625 12.171875 29.828125 
Q 18.359375 34.515625 30.609375 34.515625 
L 43.21875 34.515625 
L 43.21875 35.40625 
Q 43.21875 41.609375 39.140625 45 
Q 35.0625 48.390625 27.6875 48.390625 
Q 23 48.390625 18.546875 47.265625 
Q 14.109375 46.140625 10.015625 43.890625 
L 10.015625 52.203125 
Q 14.9375 54.109375 19.578125 55.046875 
Q 24.21875 56 28.609375 56 
Q 40.484375 56 46.34375 49.84375 
Q 52.203125 43.703125 52.203125 31.203125 
z
" id="DejaVuSans-97"/>
        <path d="M 18.3125 70.21875 
L 18.3125 54.6875 
L 36.8125 54.6875 
L 36.8125 47.703125 
L 18.3125 47.703125 
L 18.3125 18.015625 
Q 18.3125 11.328125 20.140625 9.421875 
Q 21.96875 7.515625 27.59375 7.515625 
L 36.8125 7.515625 
L 36.8125 0 
L 27.59375 0 
Q 17.1875 0 13.234375 3.875 
Q 9.28125 7.765625 9.28125 18.015625 
L 9.28125 47.703125 
L 2.6875 47.703125 
L 2.6875 54.6875 
L 9.28125 54.6875 
L 9.28125 70.21875 
z
" id="DejaVuSans-116"/>
        <path d="M 30.609375 48.390625 
Q 23.390625 48.390625 19.1875 42.75 
Q 14.984375 37.109375 14.984375 27.296875 
Q 14.984375 17.484375 19.15625 11.84375 
Q 23.34375 6.203125 30.609375 6.203125 
Q 37.796875 6.203125 41.984375 11.859375 
Q 46.1875 17.53125 46.1875 27.296875 
Q 46.1875 37.015625 41.984375 42.703125 
Q 37.796875 48.390625 30.609375 48.390625 
z
M 30.609375 56 
Q 42.328125 56 49.015625 48.375 
Q 55.71875 40.765625 55.71875 27.296875 
Q 55.71875 13.875 49.015625 6.21875 
Q 42.328125 -1.421875 30.609375 -1.421875 
Q 18.84375 -1.421875 12.171875 6.21875 
Q 5.515625 13.875 5.515625 27.296875 
Q 5.515625 40.765625 12.171875 48.375 
Q 18.84375 56 30.609375 56 
z
" id="DejaVuSans-111"/>
        <path d="M 54.890625 33.015625 
L 54.890625 0 
L 45.90625 0 
L 45.90625 32.71875 
Q 45.90625 40.484375 42.875 44.328125 
Q 39.84375 48.1875 33.796875 48.1875 
Q 26.515625 48.1875 22.3125 43.546875 
Q 18.109375 38.921875 18.109375 30.90625 
L 18.109375 0 
L 9.078125 0 
L 9.078125 54.6875 
L 18.109375 54.6875 
L 18.109375 46.1875 
Q 21.34375 51.125 25.703125 53.5625 
Q 30.078125 56 35.796875 56 
Q 45.21875 56 50.046875 50.171875 
Q 54.890625 44.34375 54.890625 33.015625 
z
" id="DejaVuSans-110"/>
        <path id="DejaVuSans-32"/>
        <path d="M 9.8125 72.90625 
L 19.671875 72.90625 
L 19.671875 43.015625 
L 55.515625 43.015625 
L 55.515625 72.90625 
L 65.375 72.90625 
L 65.375 0 
L 55.515625 0 
L 55.515625 34.71875 
L 19.671875 34.71875 
L 19.671875 0 
L 9.8125 0 
z
" id="DejaVuSans-72"/>
        <path d="M 54.890625 33.015625 
L 54.890625 0 
L 45.90625 0 
L 45.90625 32.71875 
Q 45.90625 40.484375 42.875 44.328125 
Q 39.84375 48.1875 33.796875 48.1875 
Q 26.515625 48.1875 22.3125 43.546875 
Q 18.109375 38.921875 18.109375 30.90625 
L 18.109375 0 
L 9.078125 0 
L 9.078125 75.984375 
L 18.109375 75.984375 
L 18.109375 46.1875 
Q 21.34375 51.125 25.703125 53.5625 
Q 30.078125 56 35.796875 56 
Q 45.21875 56 50.046875 50.171875 
Q 54.890625 44.34375 54.890625 33.015625 
z
" id="DejaVuSans-104"/>
       </defs>
       <use xlink:href="#DejaVuSans-73"/>
       <use x="29.492188" xlink:href="#DejaVuSans-114"/>
       <use x="68.855469" xlink:href="#DejaVuSans-114"/>
       <use x="109.96875" xlink:href="#DejaVuSans-105"/>
       <use x="137.751953" xlink:href="#DejaVuSans-103"/>
       <use x="201.228516" xlink:href="#DejaVuSans-97"/>
       <use x="262.507812" xlink:href="#DejaVuSans-116"/>
       <use x="301.716797" xlink:href="#DejaVuSans-105"/>
       <use x="329.5" xlink:href="#DejaVuSans-111"/>
       <use x="390.681641" xlink:href="#DejaVuSans-110"/>
       <use x="454.060547" xlink:href="#DejaVuSans-32"/>
       <use x="485.847656" xlink:href="#DejaVuSans-72"/>
       <use x="561.042969" xlink:href="#DejaVuSans-105"/>
       <use x="588.826172" xlink:href="#DejaVuSans-103"/>
       <use x="652.302734" xlink:href="#DejaVuSans-104"/>
      </g>
     </g>
    </g>
    <g id="xtick_2">
     <g id="text_2">
      <!-- Irrigation Intermediate -->
      <g style="fill:#262626;" transform="translate(145.039264 503.420156)rotate(-90)scale(0.165 -0.165)">
       <defs>
        <path d="M 56.203125 29.59375 
L 56.203125 25.203125 
L 14.890625 25.203125 
Q 15.484375 15.921875 20.484375 11.0625 
Q 25.484375 6.203125 34.421875 6.203125 
Q 39.59375 6.203125 44.453125 7.46875 
Q 49.3125 8.734375 54.109375 11.28125 
L 54.109375 2.78125 
Q 49.265625 0.734375 44.1875 -0.34375 
Q 39.109375 -1.421875 33.890625 -1.421875 
Q 20.796875 -1.421875 13.15625 6.1875 
Q 5.515625 13.8125 5.515625 26.8125 
Q 5.515625 40.234375 12.765625 48.109375 
Q 20.015625 56 32.328125 56 
Q 43.359375 56 49.78125 48.890625 
Q 56.203125 41.796875 56.203125 29.59375 
z
M 47.21875 32.234375 
Q 47.125 39.59375 43.09375 43.984375 
Q 39.0625 48.390625 32.421875 48.390625 
Q 24.90625 48.390625 20.390625 44.140625 
Q 15.875 39.890625 15.1875 32.171875 
z
" id="DejaVuSans-101"/>
        <path d="M 52 44.1875 
Q 55.375 50.25 60.0625 53.125 
Q 64.75 56 71.09375 56 
Q 79.640625 56 84.28125 50.015625 
Q 88.921875 44.046875 88.921875 33.015625 
L 88.921875 0 
L 79.890625 0 
L 79.890625 32.71875 
Q 79.890625 40.578125 77.09375 44.375 
Q 74.3125 48.1875 68.609375 48.1875 
Q 61.625 48.1875 57.5625 43.546875 
Q 53.515625 38.921875 53.515625 30.90625 
L 53.515625 0 
L 44.484375 0 
L 44.484375 32.71875 
Q 44.484375 40.625 41.703125 44.40625 
Q 38.921875 48.1875 33.109375 48.1875 
Q 26.21875 48.1875 22.15625 43.53125 
Q 18.109375 38.875 18.109375 30.90625 
L 18.109375 0 
L 9.078125 0 
L 9.078125 54.6875 
L 18.109375 54.6875 
L 18.109375 46.1875 
Q 21.1875 51.21875 25.484375 53.609375 
Q 29.78125 56 35.6875 56 
Q 41.65625 56 45.828125 52.96875 
Q 50 49.953125 52 44.1875 
z
" id="DejaVuSans-109"/>
        <path d="M 45.40625 46.390625 
L 45.40625 75.984375 
L 54.390625 75.984375 
L 54.390625 0 
L 45.40625 0 
L 45.40625 8.203125 
Q 42.578125 3.328125 38.25 0.953125 
Q 33.9375 -1.421875 27.875 -1.421875 
Q 17.96875 -1.421875 11.734375 6.484375 
Q 5.515625 14.40625 5.515625 27.296875 
Q 5.515625 40.1875 11.734375 48.09375 
Q 17.96875 56 27.875 56 
Q 33.9375 56 38.25 53.625 
Q 42.578125 51.265625 45.40625 46.390625 
z
M 14.796875 27.296875 
Q 14.796875 17.390625 18.875 11.75 
Q 22.953125 6.109375 30.078125 6.109375 
Q 37.203125 6.109375 41.296875 11.75 
Q 45.40625 17.390625 45.40625 27.296875 
Q 45.40625 37.203125 41.296875 42.84375 
Q 37.203125 48.484375 30.078125 48.484375 
Q 22.953125 48.484375 18.875 42.84375 
Q 14.796875 37.203125 14.796875 27.296875 
z
" id="DejaVuSans-100"/>
       </defs>
       <use xlink:href="#DejaVuSans-73"/>
       <use x="29.492188" xlink:href="#DejaVuSans-114"/>
       <use x="68.855469" xlink:href="#DejaVuSans-114"/>
       <use x="109.96875" xlink:href="#DejaVuSans-105"/>
       <use x="137.751953" xlink:href="#DejaVuSans-103"/>
       <use x="201.228516" xlink:href="#DejaVuSans-97"/>
       <use x="262.507812" xlink:href="#DejaVuSans-116"/>
       <use x="301.716797" xlink:href="#DejaVuSans-105"/>
       <use x="329.5" xlink:href="#DejaVuSans-111"/>
       <use x="390.681641" xlink:href="#DejaVuSans-110"/>
       <use x="454.060547" xlink:href="#DejaVuSans-32"/>
       <use x="485.847656" xlink:href="#DejaVuSans-73"/>
       <use x="515.339844" xlink:href="#DejaVuSans-110"/>
       <use x="578.71875" xlink:href="#DejaVuSans-116"/>
       <use x="617.927734" xlink:href="#DejaVuSans-101"/>
       <use x="679.451172" xlink:href="#DejaVuSans-114"/>
       <use x="718.814453" xlink:href="#DejaVuSans-109"/>
       <use x="816.226562" xlink:href="#DejaVuSans-101"/>
       <use x="877.75" xlink:href="#DejaVuSans-100"/>
       <use x="941.226562" xlink:href="#DejaVuSans-105"/>
       <use x="969.009766" xlink:href="#DejaVuSans-97"/>
       <use x="1030.289062" xlink:href="#DejaVuSans-116"/>
       <use x="1069.498047" xlink:href="#DejaVuSans-101"/>
      </g>
     </g>
    </g>
    <g id="xtick_3">
     <g id="text_3">
      <!-- Rain-fed High -->
      <g style="fill:#262626;" transform="translate(202.085544 428.602969)rotate(-90)scale(0.165 -0.165)">
       <defs>
        <path d="M 44.390625 34.1875 
Q 47.5625 33.109375 50.5625 29.59375 
Q 53.5625 26.078125 56.59375 19.921875 
L 66.609375 0 
L 56 0 
L 46.6875 18.703125 
Q 43.0625 26.03125 39.671875 28.421875 
Q 36.28125 30.8125 30.421875 30.8125 
L 19.671875 30.8125 
L 19.671875 0 
L 9.8125 0 
L 9.8125 72.90625 
L 32.078125 72.90625 
Q 44.578125 72.90625 50.734375 67.671875 
Q 56.890625 62.453125 56.890625 51.90625 
Q 56.890625 45.015625 53.6875 40.46875 
Q 50.484375 35.9375 44.390625 34.1875 
z
M 19.671875 64.796875 
L 19.671875 38.921875 
L 32.078125 38.921875 
Q 39.203125 38.921875 42.84375 42.21875 
Q 46.484375 45.515625 46.484375 51.90625 
Q 46.484375 58.296875 42.84375 61.546875 
Q 39.203125 64.796875 32.078125 64.796875 
z
" id="DejaVuSans-82"/>
        <path d="M 4.890625 31.390625 
L 31.203125 31.390625 
L 31.203125 23.390625 
L 4.890625 23.390625 
z
" id="DejaVuSans-45"/>
        <path d="M 37.109375 75.984375 
L 37.109375 68.5 
L 28.515625 68.5 
Q 23.6875 68.5 21.796875 66.546875 
Q 19.921875 64.59375 19.921875 59.515625 
L 19.921875 54.6875 
L 34.71875 54.6875 
L 34.71875 47.703125 
L 19.921875 47.703125 
L 19.921875 0 
L 10.890625 0 
L 10.890625 47.703125 
L 2.296875 47.703125 
L 2.296875 54.6875 
L 10.890625 54.6875 
L 10.890625 58.5 
Q 10.890625 67.625 15.140625 71.796875 
Q 19.390625 75.984375 28.609375 75.984375 
z
" id="DejaVuSans-102"/>
       </defs>
       <use xlink:href="#DejaVuSans-82"/>
       <use x="67.232422" xlink:href="#DejaVuSans-97"/>
       <use x="128.511719" xlink:href="#DejaVuSans-105"/>
       <use x="156.294922" xlink:href="#DejaVuSans-110"/>
       <use x="219.673828" xlink:href="#DejaVuSans-45"/>
       <use x="255.757812" xlink:href="#DejaVuSans-102"/>
       <use x="290.962891" xlink:href="#DejaVuSans-101"/>
       <use x="352.486328" xlink:href="#DejaVuSans-100"/>
       <use x="415.962891" xlink:href="#DejaVuSans-32"/>
       <use x="447.75" xlink:href="#DejaVuSans-72"/>
       <use x="522.945312" xlink:href="#DejaVuSans-105"/>
       <use x="550.728516" xlink:href="#DejaVuSans-103"/>
       <use x="614.205078" xlink:href="#DejaVuSans-104"/>
      </g>
     </g>
    </g>
    <g id="xtick_4">
     <g id="text_4">
      <!-- Rain-fed Intermediate -->
      <g style="fill:#262626;" transform="translate(259.131824 497.134687)rotate(-90)scale(0.165 -0.165)">
       <use xlink:href="#DejaVuSans-82"/>
       <use x="67.232422" xlink:href="#DejaVuSans-97"/>
       <use x="128.511719" xlink:href="#DejaVuSans-105"/>
       <use x="156.294922" xlink:href="#DejaVuSans-110"/>
       <use x="219.673828" xlink:href="#DejaVuSans-45"/>
       <use x="255.757812" xlink:href="#DejaVuSans-102"/>
       <use x="290.962891" xlink:href="#DejaVuSans-101"/>
       <use x="352.486328" xlink:href="#DejaVuSans-100"/>
       <use x="415.962891" xlink:href="#DejaVuSans-32"/>
       <use x="447.75" xlink:href="#DejaVuSans-73"/>
       <use x="477.242188" xlink:href="#DejaVuSans-110"/>
       <use x="540.621094" xlink:href="#DejaVuSans-116"/>
       <use x="579.830078" xlink:href="#DejaVuSans-101"/>
       <use x="641.353516" xlink:href="#DejaVuSans-114"/>
       <use x="680.716797" xlink:href="#DejaVuSans-109"/>
       <use x="778.128906" xlink:href="#DejaVuSans-101"/>
       <use x="839.652344" xlink:href="#DejaVuSans-100"/>
       <use x="903.128906" xlink:href="#DejaVuSans-105"/>
       <use x="930.912109" xlink:href="#DejaVuSans-97"/>
       <use x="992.191406" xlink:href="#DejaVuSans-116"/>
       <use x="1031.400391" xlink:href="#DejaVuSans-101"/>
      </g>
     </g>
    </g>
    <g id="xtick_5">
     <g id="text_5">
      <!-- Rain-fed Low -->
      <g style="fill:#262626;" transform="translate(316.178104 423.173437)rotate(-90)scale(0.165 -0.165)">
       <defs>
        <path d="M 9.8125 72.90625 
L 19.671875 72.90625 
L 19.671875 8.296875 
L 55.171875 8.296875 
L 55.171875 0 
L 9.8125 0 
z
" id="DejaVuSans-76"/>
        <path d="M 4.203125 54.6875 
L 13.1875 54.6875 
L 24.421875 12.015625 
L 35.59375 54.6875 
L 46.1875 54.6875 
L 57.421875 12.015625 
L 68.609375 54.6875 
L 77.59375 54.6875 
L 63.28125 0 
L 52.6875 0 
L 40.921875 44.828125 
L 29.109375 0 
L 18.5 0 
z
" id="DejaVuSans-119"/>
       </defs>
       <use xlink:href="#DejaVuSans-82"/>
       <use x="67.232422" xlink:href="#DejaVuSans-97"/>
       <use x="128.511719" xlink:href="#DejaVuSans-105"/>
       <use x="156.294922" xlink:href="#DejaVuSans-110"/>
       <use x="219.673828" xlink:href="#DejaVuSans-45"/>
       <use x="255.757812" xlink:href="#DejaVuSans-102"/>
       <use x="290.962891" xlink:href="#DejaVuSans-101"/>
       <use x="352.486328" xlink:href="#DejaVuSans-100"/>
       <use x="415.962891" xlink:href="#DejaVuSans-32"/>
       <use x="447.75" xlink:href="#DejaVuSans-76"/>
       <use x="501.712891" xlink:href="#DejaVuSans-111"/>
       <use x="562.894531" xlink:href="#DejaVuSans-119"/>
      </g>
     </g>
    </g>
   </g>
   <g id="matplotlib.axis_2">
    <g id="ytick_1">
     <g id="text_6">
      <!-- 0 -->
      <g style="fill:#262626;" transform="translate(31.91875 298.187802)scale(0.165 -0.165)">
       <defs>
        <path d="M 31.78125 66.40625 
Q 24.171875 66.40625 20.328125 58.90625 
Q 16.5 51.421875 16.5 36.375 
Q 16.5 21.390625 20.328125 13.890625 
Q 24.171875 6.390625 31.78125 6.390625 
Q 39.453125 6.390625 43.28125 13.890625 
Q 47.125 21.390625 47.125 36.375 
Q 47.125 51.421875 43.28125 58.90625 
Q 39.453125 66.40625 31.78125 66.40625 
z
M 31.78125 74.21875 
Q 44.046875 74.21875 50.515625 64.515625 
Q 56.984375 54.828125 56.984375 36.375 
Q 56.984375 17.96875 50.515625 8.265625 
Q 44.046875 -1.421875 31.78125 -1.421875 
Q 19.53125 -1.421875 13.0625 8.265625 
Q 6.59375 17.96875 6.59375 36.375 
Q 6.59375 54.828125 13.0625 64.515625 
Q 19.53125 74.21875 31.78125 74.21875 
z
" id="DejaVuSans-48"/>
       </defs>
       <use xlink:href="#DejaVuSans-48"/>
      </g>
     </g>
    </g>
    <g id="ytick_2">
     <g id="text_7">
      <!-- 2 -->
      <g style="fill:#262626;" transform="translate(31.91875 253.071982)scale(0.165 -0.165)">
       <defs>
        <path d="M 19.1875 8.296875 
L 53.609375 8.296875 
L 53.609375 0 
L 7.328125 0 
L 7.328125 8.296875 
Q 12.9375 14.109375 22.625 23.890625 
Q 32.328125 33.6875 34.8125 36.53125 
Q 39.546875 41.84375 41.421875 45.53125 
Q 43.3125 49.21875 43.3125 52.78125 
Q 43.3125 58.59375 39.234375 62.25 
Q 35.15625 65.921875 28.609375 65.921875 
Q 23.96875 65.921875 18.8125 64.3125 
Q 13.671875 62.703125 7.8125 59.421875 
L 7.8125 69.390625 
Q 13.765625 71.78125 18.9375 73 
Q 24.125 74.21875 28.421875 74.21875 
Q 39.75 74.21875 46.484375 68.546875 
Q 53.21875 62.890625 53.21875 53.421875 
Q 53.21875 48.921875 51.53125 44.890625 
Q 49.859375 40.875 45.40625 35.40625 
Q 44.1875 33.984375 37.640625 27.21875 
Q 31.109375 20.453125 19.1875 8.296875 
z
" id="DejaVuSans-50"/>
       </defs>
       <use xlink:href="#DejaVuSans-50"/>
      </g>
     </g>
    </g>
    <g id="ytick_3">
     <g id="text_8">
      <!-- 4 -->
      <g style="fill:#262626;" transform="translate(31.91875 207.956162)scale(0.165 -0.165)">
       <defs>
        <path d="M 37.796875 64.3125 
L 12.890625 25.390625 
L 37.796875 25.390625 
z
M 35.203125 72.90625 
L 47.609375 72.90625 
L 47.609375 25.390625 
L 58.015625 25.390625 
L 58.015625 17.1875 
L 47.609375 17.1875 
L 47.609375 0 
L 37.796875 0 
L 37.796875 17.1875 
L 4.890625 17.1875 
L 4.890625 26.703125 
z
" id="DejaVuSans-52"/>
       </defs>
       <use xlink:href="#DejaVuSans-52"/>
      </g>
     </g>
    </g>
    <g id="ytick_4">
     <g id="text_9">
      <!-- 6 -->
      <g style="fill:#262626;" transform="translate(31.91875 162.840343)scale(0.165 -0.165)">
       <defs>
        <path d="M 33.015625 40.375 
Q 26.375 40.375 22.484375 35.828125 
Q 18.609375 31.296875 18.609375 23.390625 
Q 18.609375 15.53125 22.484375 10.953125 
Q 26.375 6.390625 33.015625 6.390625 
Q 39.65625 6.390625 43.53125 10.953125 
Q 47.40625 15.53125 47.40625 23.390625 
Q 47.40625 31.296875 43.53125 35.828125 
Q 39.65625 40.375 33.015625 40.375 
z
M 52.59375 71.296875 
L 52.59375 62.3125 
Q 48.875 64.0625 45.09375 64.984375 
Q 41.3125 65.921875 37.59375 65.921875 
Q 27.828125 65.921875 22.671875 59.328125 
Q 17.53125 52.734375 16.796875 39.40625 
Q 19.671875 43.65625 24.015625 45.921875 
Q 28.375 48.1875 33.59375 48.1875 
Q 44.578125 48.1875 50.953125 41.515625 
Q 57.328125 34.859375 57.328125 23.390625 
Q 57.328125 12.15625 50.6875 5.359375 
Q 44.046875 -1.421875 33.015625 -1.421875 
Q 20.359375 -1.421875 13.671875 8.265625 
Q 6.984375 17.96875 6.984375 36.375 
Q 6.984375 53.65625 15.1875 63.9375 
Q 23.390625 74.21875 37.203125 74.21875 
Q 40.921875 74.21875 44.703125 73.484375 
Q 48.484375 72.75 52.59375 71.296875 
z
" id="DejaVuSans-54"/>
       </defs>
       <use xlink:href="#DejaVuSans-54"/>
      </g>
     </g>
    </g>
    <g id="ytick_5">
     <g id="text_10">
      <!-- 8 -->
      <g style="fill:#262626;" transform="translate(31.91875 117.724523)scale(0.165 -0.165)">
       <defs>
        <path d="M 31.78125 34.625 
Q 24.75 34.625 20.71875 30.859375 
Q 16.703125 27.09375 16.703125 20.515625 
Q 16.703125 13.921875 20.71875 10.15625 
Q 24.75 6.390625 31.78125 6.390625 
Q 38.8125 6.390625 42.859375 10.171875 
Q 46.921875 13.96875 46.921875 20.515625 
Q 46.921875 27.09375 42.890625 30.859375 
Q 38.875 34.625 31.78125 34.625 
z
M 21.921875 38.8125 
Q 15.578125 40.375 12.03125 44.71875 
Q 8.5 49.078125 8.5 55.328125 
Q 8.5 64.0625 14.71875 69.140625 
Q 20.953125 74.21875 31.78125 74.21875 
Q 42.671875 74.21875 48.875 69.140625 
Q 55.078125 64.0625 55.078125 55.328125 
Q 55.078125 49.078125 51.53125 44.71875 
Q 48 40.375 41.703125 38.8125 
Q 48.828125 37.15625 52.796875 32.3125 
Q 56.78125 27.484375 56.78125 20.515625 
Q 56.78125 9.90625 50.3125 4.234375 
Q 43.84375 -1.421875 31.78125 -1.421875 
Q 19.734375 -1.421875 13.25 4.234375 
Q 6.78125 9.90625 6.78125 20.515625 
Q 6.78125 27.484375 10.78125 32.3125 
Q 14.796875 37.15625 21.921875 38.8125 
z
M 18.3125 54.390625 
Q 18.3125 48.734375 21.84375 45.5625 
Q 25.390625 42.390625 31.78125 42.390625 
Q 38.140625 42.390625 41.71875 45.5625 
Q 45.3125 48.734375 45.3125 54.390625 
Q 45.3125 60.0625 41.71875 63.234375 
Q 38.140625 66.40625 31.78125 66.40625 
Q 25.390625 66.40625 21.84375 63.234375 
Q 18.3125 60.0625 18.3125 54.390625 
z
" id="DejaVuSans-56"/>
       </defs>
       <use xlink:href="#DejaVuSans-56"/>
      </g>
     </g>
    </g>
    <g id="ytick_6">
     <g id="text_11">
      <!-- 10 -->
      <g style="fill:#262626;" transform="translate(21.420625 72.608703)scale(0.165 -0.165)">
       <defs>
        <path d="M 12.40625 8.296875 
L 28.515625 8.296875 
L 28.515625 63.921875 
L 10.984375 60.40625 
L 10.984375 69.390625 
L 28.421875 72.90625 
L 38.28125 72.90625 
L 38.28125 8.296875 
L 54.390625 8.296875 
L 54.390625 0 
L 12.40625 0 
z
" id="DejaVuSans-49"/>
       </defs>
       <use xlink:href="#DejaVuSans-49"/>
       <use x="63.623047" xlink:href="#DejaVuSans-48"/>
      </g>
     </g>
    </g>
    <g id="text_12">
     <!-- Yield (t/ha) -->
     <g style="fill:#262626;" transform="translate(13.677188 217.195156)rotate(-90)scale(0.18 -0.18)">
      <defs>
       <path d="M -0.203125 72.90625 
L 10.40625 72.90625 
L 30.609375 42.921875 
L 50.6875 72.90625 
L 61.28125 72.90625 
L 35.5 34.71875 
L 35.5 0 
L 25.59375 0 
L 25.59375 34.71875 
z
" id="DejaVuSans-89"/>
       <path d="M 9.421875 75.984375 
L 18.40625 75.984375 
L 18.40625 0 
L 9.421875 0 
z
" id="DejaVuSans-108"/>
       <path d="M 31 75.875 
Q 24.46875 64.65625 21.28125 53.65625 
Q 18.109375 42.671875 18.109375 31.390625 
Q 18.109375 20.125 21.3125 9.0625 
Q 24.515625 -2 31 -13.1875 
L 23.1875 -13.1875 
Q 15.875 -1.703125 12.234375 9.375 
Q 8.59375 20.453125 8.59375 31.390625 
Q 8.59375 42.28125 12.203125 53.3125 
Q 15.828125 64.359375 23.1875 75.875 
z
" id="DejaVuSans-40"/>
       <path d="M 25.390625 72.90625 
L 33.6875 72.90625 
L 8.296875 -9.28125 
L 0 -9.28125 
z
" id="DejaVuSans-47"/>
       <path d="M 8.015625 75.875 
L 15.828125 75.875 
Q 23.140625 64.359375 26.78125 53.3125 
Q 30.421875 42.28125 30.421875 31.390625 
Q 30.421875 20.453125 26.78125 9.375 
Q 23.140625 -1.703125 15.828125 -13.1875 
L 8.015625 -13.1875 
Q 14.5 -2 17.703125 9.0625 
Q 20.90625 20.125 20.90625 31.390625 
Q 20.90625 42.671875 17.703125 53.65625 
Q 14.5 64.65625 8.015625 75.875 
z
" id="DejaVuSans-41"/>
      </defs>
      <use xlink:href="#DejaVuSans-89"/>
      <use x="57.458984" xlink:href="#DejaVuSans-105"/>
      <use x="85.242188" xlink:href="#DejaVuSans-101"/>
      <use x="146.765625" xlink:href="#DejaVuSans-108"/>
      <use x="174.548828" xlink:href="#DejaVuSans-100"/>
      <use x="238.025391" xlink:href="#DejaVuSans-32"/>
      <use x="269.8125" xlink:href="#DejaVuSans-40"/>
      <use x="308.826172" xlink:href="#DejaVuSans-116"/>
      <use x="348.035156" xlink:href="#DejaVuSans-47"/>
      <use x="381.726562" xlink:href="#DejaVuSans-104"/>
      <use x="445.105469" xlink:href="#DejaVuSans-97"/>
      <use x="506.384766" xlink:href="#DejaVuSans-41"/>
     </g>
    </g>
   </g>
   <g id="PolyCollection_1">
    <defs>
     <path d="M 83.440015 -211.501065 
L 60.621503 -211.501065 
L 61.163313 -214.002259 
L 62.642402 -216.503453 
L 64.666539 -219.004647 
L 66.771279 -221.50584 
L 68.586775 -224.007034 
L 69.926985 -226.508228 
L 70.782338 -229.009422 
L 71.251775 -231.510615 
L 71.466222 -234.011809 
L 71.537542 -236.513003 
L 71.539729 -239.014197 
L 71.512182 -241.51539 
L 71.47166 -244.016584 
L 71.423912 -246.517778 
L 71.371337 -249.018972 
L 71.316452 -251.520165 
L 71.262454 -254.021359 
L 71.212408 -256.522553 
L 71.168256 -259.023747 
L 71.130197 -261.52494 
L 71.096507 -264.026134 
L 71.063621 -266.527328 
L 71.026424 -269.028522 
L 70.978975 -271.529715 
L 70.915995 -274.030909 
L 70.835217 -276.532103 
L 70.739977 -279.033297 
L 70.640757 -281.534491 
L 70.554142 -284.035684 
L 70.498578 -286.536878 
L 70.488052 -289.038072 
L 70.526466 -291.539266 
L 70.605626 -294.040459 
L 70.708115 -296.541653 
L 70.813645 -299.042847 
L 70.905762 -301.544041 
L 70.975923 -304.045234 
L 71.023774 -306.546428 
L 71.054535 -309.047622 
L 71.075437 -311.548816 
L 71.092939 -314.050009 
L 71.111412 -316.551203 
L 71.133028 -319.052397 
L 71.158234 -321.553591 
L 71.18632 -324.054784 
L 71.215923 -326.555978 
L 71.245508 -329.057172 
L 71.273829 -331.558366 
L 71.300291 -334.059559 
L 71.325083 -336.560753 
L 71.349029 -339.061947 
L 71.373192 -341.563141 
L 71.39843 -344.064334 
L 71.425047 -346.565528 
L 71.452703 -349.066722 
L 71.480557 -351.567916 
L 71.507593 -354.069109 
L 71.532992 -356.570303 
L 71.556398 -359.071497 
L 71.577938 -361.572691 
L 71.597983 -364.073884 
L 71.616783 -366.575078 
L 71.634216 -369.076272 
L 71.649806 -371.577466 
L 71.662958 -374.078659 
L 71.673216 -376.579853 
L 71.680351 -379.081047 
L 71.684266 -381.582241 
L 71.684864 -384.083434 
L 71.682037 -386.584628 
L 71.675805 -389.085822 
L 71.666469 -391.587016 
L 71.654606 -394.08821 
L 71.640907 -396.589403 
L 71.62605 -399.090597 
L 71.610872 -401.591791 
L 71.596869 -404.092985 
L 71.586698 -406.594178 
L 71.584178 -409.095372 
L 71.593471 -411.596566 
L 71.617623 -414.09776 
L 71.657107 -416.598953 
L 71.709115 -419.100147 
L 71.768067 -421.601341 
L 71.827144 -424.102535 
L 71.880207 -426.603728 
L 71.923281 -429.104922 
L 71.955079 -431.606116 
L 71.976606 -434.10731 
L 71.990206 -436.608503 
L 71.998577 -439.109697 
L 72.004061 -441.610891 
L 72.008298 -444.112085 
L 72.012178 -446.613278 
L 72.01597 -449.114472 
L 72.019565 -451.615666 
L 72.022724 -454.11686 
L 72.025261 -456.618053 
L 72.027136 -459.119247 
L 72.034382 -459.119247 
L 72.034382 -459.119247 
L 72.036257 -456.618053 
L 72.038794 -454.11686 
L 72.041953 -451.615666 
L 72.045548 -449.114472 
L 72.04934 -446.613278 
L 72.05322 -444.112085 
L 72.057457 -441.610891 
L 72.062941 -439.109697 
L 72.071312 -436.608503 
L 72.084912 -434.10731 
L 72.106439 -431.606116 
L 72.138237 -429.104922 
L 72.181311 -426.603728 
L 72.234374 -424.102535 
L 72.293451 -421.601341 
L 72.352403 -419.100147 
L 72.404411 -416.598953 
L 72.443895 -414.09776 
L 72.468047 -411.596566 
L 72.47734 -409.095372 
L 72.47482 -406.594178 
L 72.464649 -404.092985 
L 72.450646 -401.591791 
L 72.435468 -399.090597 
L 72.420611 -396.589403 
L 72.406912 -394.08821 
L 72.395049 -391.587016 
L 72.385713 -389.085822 
L 72.379481 -386.584628 
L 72.376654 -384.083434 
L 72.377252 -381.582241 
L 72.381167 -379.081047 
L 72.388302 -376.579853 
L 72.39856 -374.078659 
L 72.411712 -371.577466 
L 72.427302 -369.076272 
L 72.444735 -366.575078 
L 72.463535 -364.073884 
L 72.48358 -361.572691 
L 72.50512 -359.071497 
L 72.528526 -356.570303 
L 72.553925 -354.069109 
L 72.580961 -351.567916 
L 72.608815 -349.066722 
L 72.636471 -346.565528 
L 72.663088 -344.064334 
L 72.688326 -341.563141 
L 72.712489 -339.061947 
L 72.736435 -336.560753 
L 72.761227 -334.059559 
L 72.787689 -331.558366 
L 72.81601 -329.057172 
L 72.845595 -326.555978 
L 72.875198 -324.054784 
L 72.903284 -321.553591 
L 72.92849 -319.052397 
L 72.950106 -316.551203 
L 72.968579 -314.050009 
L 72.986081 -311.548816 
L 73.006983 -309.047622 
L 73.037744 -306.546428 
L 73.085595 -304.045234 
L 73.155756 -301.544041 
L 73.247873 -299.042847 
L 73.353403 -296.541653 
L 73.455892 -294.040459 
L 73.535052 -291.539266 
L 73.573466 -289.038072 
L 73.56294 -286.536878 
L 73.507376 -284.035684 
L 73.420761 -281.534491 
L 73.321541 -279.033297 
L 73.226301 -276.532103 
L 73.145523 -274.030909 
L 73.082543 -271.529715 
L 73.035094 -269.028522 
L 72.997897 -266.527328 
L 72.965011 -264.026134 
L 72.931321 -261.52494 
L 72.893262 -259.023747 
L 72.84911 -256.522553 
L 72.799064 -254.021359 
L 72.745066 -251.520165 
L 72.690181 -249.018972 
L 72.637606 -246.517778 
L 72.589858 -244.016584 
L 72.549336 -241.51539 
L 72.521789 -239.014197 
L 72.523976 -236.513003 
L 72.595296 -234.011809 
L 72.809743 -231.510615 
L 73.27918 -229.009422 
L 74.134533 -226.508228 
L 75.474743 -224.007034 
L 77.290239 -221.50584 
L 79.394979 -219.004647 
L 81.419116 -216.503453 
L 82.898205 -214.002259 
L 83.440015 -211.501065 
z
" id="ma5e330586e" style="stroke:#545454;stroke-width:2.5;"/>
    </defs>
    <g clip-path="url(#p1211f44627)">
     <use style="fill:#597dbf;stroke:#545454;stroke-width:2.5;" x="0" xlink:href="#ma5e330586e" y="503.420156"/>
    </g>
   </g>
   <g id="PolyCollection_2">
    <defs>
     <path d="M 95.64253 -211.501065 
L 94.056012 -211.501065 
L 94.034166 -213.429549 
L 94.012179 -215.358034 
L 93.990041 -217.286518 
L 93.967738 -219.215002 
L 93.945257 -221.143486 
L 93.922584 -223.07197 
L 93.899706 -225.000454 
L 93.876608 -226.928939 
L 93.853277 -228.857423 
L 93.829701 -230.785907 
L 93.80587 -232.714391 
L 93.781776 -234.642875 
L 93.757413 -236.571359 
L 93.732777 -238.499844 
L 93.70787 -240.428328 
L 93.682695 -242.356812 
L 93.657261 -244.285296 
L 93.63158 -246.21378 
L 93.605669 -248.142264 
L 93.579551 -250.070748 
L 93.553253 -251.999233 
L 93.526807 -253.927717 
L 93.500249 -255.856201 
L 93.473624 -257.784685 
L 93.446978 -259.713169 
L 93.420365 -261.641653 
L 93.39384 -263.570138 
L 93.367466 -265.498622 
L 93.341309 -267.427106 
L 93.315437 -269.35559 
L 93.289923 -271.284074 
L 93.264841 -273.212558 
L 93.240269 -275.141042 
L 93.216284 -277.069527 
L 93.192964 -278.998011 
L 93.17039 -280.926495 
L 93.148637 -282.854979 
L 93.127783 -284.783463 
L 93.107902 -286.711947 
L 93.089065 -288.640432 
L 93.071339 -290.568916 
L 93.054787 -292.4974 
L 93.039467 -294.425884 
L 93.025431 -296.354368 
L 93.012726 -298.282852 
L 93.001392 -300.211336 
L 92.991459 -302.139821 
L 92.982955 -304.068305 
L 92.975896 -305.996789 
L 92.970292 -307.925273 
L 92.966144 -309.853757 
L 92.963448 -311.782241 
L 92.962189 -313.710726 
L 92.962345 -315.63921 
L 92.96389 -317.567694 
L 92.966787 -319.496178 
L 92.970995 -321.424662 
L 92.976467 -323.353146 
L 92.983151 -325.28163 
L 92.99099 -327.210115 
L 92.999924 -329.138599 
L 93.009888 -331.067083 
L 93.020818 -332.995567 
L 93.032647 -334.924051 
L 93.045306 -336.852535 
L 93.05873 -338.78102 
L 93.072852 -340.709504 
L 93.087608 -342.637988 
L 93.102936 -344.566472 
L 93.118778 -346.494956 
L 93.13508 -348.42344 
L 93.151793 -350.351924 
L 93.16887 -352.280409 
L 93.186272 -354.208893 
L 93.203966 -356.137377 
L 93.221921 -358.065861 
L 93.240117 -359.994345 
L 93.258535 -361.922829 
L 93.277166 -363.851314 
L 93.296002 -365.779798 
L 93.315044 -367.708282 
L 93.334296 -369.636766 
L 93.353768 -371.56525 
L 93.373472 -373.493734 
L 93.393424 -375.422218 
L 93.413645 -377.350703 
L 93.434154 -379.279187 
L 93.454975 -381.207671 
L 93.476132 -383.136155 
L 93.497647 -385.064639 
L 93.519544 -386.993123 
L 93.541845 -388.921608 
L 93.564569 -390.850092 
L 93.587734 -392.778576 
L 93.611355 -394.70706 
L 93.635441 -396.635544 
L 93.659999 -398.564028 
L 93.685033 -400.492512 
L 93.710539 -402.420997 
L 95.988003 -402.420997 
L 95.988003 -402.420997 
L 96.013509 -400.492512 
L 96.038543 -398.564028 
L 96.063101 -396.635544 
L 96.087187 -394.70706 
L 96.110808 -392.778576 
L 96.133973 -390.850092 
L 96.156697 -388.921608 
L 96.178998 -386.993123 
L 96.200895 -385.064639 
L 96.22241 -383.136155 
L 96.243567 -381.207671 
L 96.264388 -379.279187 
L 96.284897 -377.350703 
L 96.305118 -375.422218 
L 96.32507 -373.493734 
L 96.344774 -371.56525 
L 96.364246 -369.636766 
L 96.383498 -367.708282 
L 96.40254 -365.779798 
L 96.421376 -363.851314 
L 96.440007 -361.922829 
L 96.458425 -359.994345 
L 96.476621 -358.065861 
L 96.494576 -356.137377 
L 96.51227 -354.208893 
L 96.529672 -352.280409 
L 96.546749 -350.351924 
L 96.563462 -348.42344 
L 96.579764 -346.494956 
L 96.595606 -344.566472 
L 96.610934 -342.637988 
L 96.62569 -340.709504 
L 96.639812 -338.78102 
L 96.653236 -336.852535 
L 96.665895 -334.924051 
L 96.677724 -332.995567 
L 96.688654 -331.067083 
L 96.698618 -329.138599 
L 96.707552 -327.210115 
L 96.715391 -325.28163 
L 96.722075 -323.353146 
L 96.727547 -321.424662 
L 96.731755 -319.496178 
L 96.734652 -317.567694 
L 96.736197 -315.63921 
L 96.736353 -313.710726 
L 96.735094 -311.782241 
L 96.732398 -309.853757 
L 96.72825 -307.925273 
L 96.722646 -305.996789 
L 96.715587 -304.068305 
L 96.707083 -302.139821 
L 96.69715 -300.211336 
L 96.685816 -298.282852 
L 96.673111 -296.354368 
L 96.659075 -294.425884 
L 96.643755 -292.4974 
L 96.627203 -290.568916 
L 96.609477 -288.640432 
L 96.59064 -286.711947 
L 96.570759 -284.783463 
L 96.549905 -282.854979 
L 96.528152 -280.926495 
L 96.505578 -278.998011 
L 96.482258 -277.069527 
L 96.458273 -275.141042 
L 96.433701 -273.212558 
L 96.408619 -271.284074 
L 96.383105 -269.35559 
L 96.357233 -267.427106 
L 96.331076 -265.498622 
L 96.304702 -263.570138 
L 96.278177 -261.641653 
L 96.251564 -259.713169 
L 96.224918 -257.784685 
L 96.198293 -255.856201 
L 96.171735 -253.927717 
L 96.145289 -251.999233 
L 96.118991 -250.070748 
L 96.092873 -248.142264 
L 96.066962 -246.21378 
L 96.041281 -244.285296 
L 96.015847 -242.356812 
L 95.990672 -240.428328 
L 95.965765 -238.499844 
L 95.941129 -236.571359 
L 95.916766 -234.642875 
L 95.892672 -232.714391 
L 95.868841 -230.785907 
L 95.845265 -228.857423 
L 95.821934 -226.928939 
L 95.798836 -225.000454 
L 95.775958 -223.07197 
L 95.753285 -221.143486 
L 95.730804 -219.215002 
L 95.708501 -217.286518 
L 95.686363 -215.358034 
L 95.664376 -213.429549 
L 95.64253 -211.501065 
z
" id="mfe3e450acb" style="stroke:#545454;stroke-width:2.5;"/>
    </defs>
    <g clip-path="url(#p1211f44627)">
     <use style="fill:#d98b5f;stroke:#545454;stroke-width:2.5;" x="0" xlink:href="#mfe3e450acb" y="503.420156"/>
    </g>
   </g>
   <g id="PolyCollection_3">
    <defs>
     <path d="M 140.486295 -211.501065 
L 117.667783 -211.501065 
L 118.212398 -213.0726 
L 119.701824 -214.644134 
L 121.73433 -216.215668 
L 123.83732 -217.787203 
L 125.638907 -219.358737 
L 126.957391 -220.930271 
L 127.790382 -222.501806 
L 128.242557 -224.07334 
L 128.446787 -225.644874 
L 128.513376 -227.216409 
L 128.513238 -228.787943 
L 128.483284 -230.359478 
L 128.439554 -231.931012 
L 128.388777 -233.502546 
L 128.335061 -235.074081 
L 128.282142 -236.645615 
L 128.233061 -238.217149 
L 128.189018 -239.788684 
L 128.148592 -241.360218 
L 128.107775 -242.931752 
L 128.06091 -244.503287 
L 128.002514 -246.074821 
L 127.929779 -247.646355 
L 127.845175 -249.21789 
L 127.757917 -250.789424 
L 127.682933 -252.360958 
L 127.636763 -253.932493 
L 127.631616 -255.504027 
L 127.670279 -257.075561 
L 127.744599 -258.647096 
L 127.838428 -260.21863 
L 127.933467 -261.790165 
L 128.015068 -263.361699 
L 128.075552 -264.933233 
L 128.114328 -266.504768 
L 128.135739 -268.076302 
L 128.146179 -269.647836 
L 128.151734 -271.219371 
L 128.156884 -272.790905 
L 128.164237 -274.362439 
L 128.174931 -275.933974 
L 128.189244 -277.505508 
L 128.207048 -279.077042 
L 128.227977 -280.648577 
L 128.251417 -282.220111 
L 128.276526 -283.791645 
L 128.302372 -285.36318 
L 128.328176 -286.934714 
L 128.353537 -288.506248 
L 128.378528 -290.077783 
L 128.403615 -291.649317 
L 128.429409 -293.220852 
L 128.456329 -294.792386 
L 128.484327 -296.36392 
L 128.512795 -297.935455 
L 128.540727 -299.506989 
L 128.567077 -301.078523 
L 128.591159 -302.650058 
L 128.612882 -304.221592 
L 128.632685 -305.793126 
L 128.651183 -307.364661 
L 128.668739 -308.936195 
L 128.685223 -310.507729 
L 128.700089 -312.079264 
L 128.712676 -313.650798 
L 128.722481 -315.222332 
L 128.729245 -316.793867 
L 128.732845 -318.365401 
L 128.733159 -319.936935 
L 128.730084 -321.50847 
L 128.723682 -323.080004 
L 128.714326 -324.651538 
L 128.702648 -326.223073 
L 128.68934 -327.794607 
L 128.675026 -329.366142 
L 128.660475 -330.937676 
L 128.647152 -332.50921 
L 128.637723 -334.080745 
L 128.636018 -335.652279 
L 128.64615 -337.223813 
L 128.671034 -338.795348 
L 128.710961 -340.366882 
L 128.762978 -341.938416 
L 128.82145 -343.509951 
L 128.879629 -345.081485 
L 128.931537 -346.653019 
L 128.973388 -348.224554 
L 129.004067 -349.796088 
L 129.02468 -351.367622 
L 129.037607 -352.939157 
L 129.045527 -354.510691 
L 129.050734 -356.082225 
L 129.05482 -357.65376 
L 129.058626 -359.225294 
L 129.062388 -360.796829 
L 129.06597 -362.368363 
L 129.069115 -363.939897 
L 129.071634 -365.511432 
L 129.073487 -367.082966 
L 129.080591 -367.082966 
L 129.080591 -367.082966 
L 129.082444 -365.511432 
L 129.084963 -363.939897 
L 129.088108 -362.368363 
L 129.09169 -360.796829 
L 129.095452 -359.225294 
L 129.099258 -357.65376 
L 129.103344 -356.082225 
L 129.108551 -354.510691 
L 129.116471 -352.939157 
L 129.129398 -351.367622 
L 129.150011 -349.796088 
L 129.18069 -348.224554 
L 129.222541 -346.653019 
L 129.274449 -345.081485 
L 129.332628 -343.509951 
L 129.3911 -341.938416 
L 129.443117 -340.366882 
L 129.483044 -338.795348 
L 129.507928 -337.223813 
L 129.51806 -335.652279 
L 129.516355 -334.080745 
L 129.506926 -332.50921 
L 129.493603 -330.937676 
L 129.479052 -329.366142 
L 129.464738 -327.794607 
L 129.45143 -326.223073 
L 129.439752 -324.651538 
L 129.430396 -323.080004 
L 129.423994 -321.50847 
L 129.420919 -319.936935 
L 129.421233 -318.365401 
L 129.424833 -316.793867 
L 129.431597 -315.222332 
L 129.441402 -313.650798 
L 129.453989 -312.079264 
L 129.468855 -310.507729 
L 129.485339 -308.936195 
L 129.502895 -307.364661 
L 129.521393 -305.793126 
L 129.541196 -304.221592 
L 129.562919 -302.650058 
L 129.587001 -301.078523 
L 129.613351 -299.506989 
L 129.641283 -297.935455 
L 129.669751 -296.36392 
L 129.697749 -294.792386 
L 129.724669 -293.220852 
L 129.750463 -291.649317 
L 129.77555 -290.077783 
L 129.800541 -288.506248 
L 129.825902 -286.934714 
L 129.851706 -285.36318 
L 129.877552 -283.791645 
L 129.902661 -282.220111 
L 129.926101 -280.648577 
L 129.94703 -279.077042 
L 129.964834 -277.505508 
L 129.979147 -275.933974 
L 129.989841 -274.362439 
L 129.997194 -272.790905 
L 130.002344 -271.219371 
L 130.007899 -269.647836 
L 130.018339 -268.076302 
L 130.03975 -266.504768 
L 130.078526 -264.933233 
L 130.13901 -263.361699 
L 130.220611 -261.790165 
L 130.31565 -260.21863 
L 130.409479 -258.647096 
L 130.483799 -257.075561 
L 130.522462 -255.504027 
L 130.517315 -253.932493 
L 130.471145 -252.360958 
L 130.396161 -250.789424 
L 130.308903 -249.21789 
L 130.224299 -247.646355 
L 130.151564 -246.074821 
L 130.093168 -244.503287 
L 130.046303 -242.931752 
L 130.005486 -241.360218 
L 129.96506 -239.788684 
L 129.921017 -238.217149 
L 129.871936 -236.645615 
L 129.819017 -235.074081 
L 129.765301 -233.502546 
L 129.714524 -231.931012 
L 129.670794 -230.359478 
L 129.64084 -228.787943 
L 129.640702 -227.216409 
L 129.707291 -225.644874 
L 129.911521 -224.07334 
L 130.363696 -222.501806 
L 131.196687 -220.930271 
L 132.515171 -219.358737 
L 134.316758 -217.787203 
L 136.419748 -216.215668 
L 138.452254 -214.644134 
L 139.94168 -213.0726 
L 140.486295 -211.501065 
z
" id="maa09411ccf" style="stroke:#545454;stroke-width:2.5;"/>
    </defs>
    <g clip-path="url(#p1211f44627)">
     <use style="fill:#597dbf;stroke:#545454;stroke-width:2.5;" x="0" xlink:href="#maa09411ccf" y="503.420156"/>
    </g>
   </g>
   <g id="PolyCollection_4">
    <defs>
     <path d="M 152.709731 -211.501065 
L 151.081371 -211.501065 
L 151.058513 -212.709947 
L 151.035514 -213.918828 
L 151.012366 -215.127709 
L 150.989063 -216.33659 
L 150.965597 -217.545471 
L 150.941963 -218.754353 
L 150.918151 -219.963234 
L 150.894156 -221.172115 
L 150.869971 -222.380996 
L 150.845592 -223.589877 
L 150.821016 -224.798759 
L 150.796242 -226.00764 
L 150.771271 -227.216521 
L 150.74611 -228.425402 
L 150.720764 -229.634283 
L 150.695245 -230.843164 
L 150.669569 -232.052046 
L 150.643754 -233.260927 
L 150.617824 -234.469808 
L 150.591806 -235.678689 
L 150.565732 -236.88757 
L 150.53964 -238.096452 
L 150.51357 -239.305333 
L 150.487568 -240.514214 
L 150.461685 -241.723095 
L 150.435975 -242.931976 
L 150.410495 -244.140858 
L 150.385307 -245.349739 
L 150.360476 -246.55862 
L 150.33607 -247.767501 
L 150.312156 -248.976382 
L 150.288808 -250.185264 
L 150.266096 -251.394145 
L 150.244093 -252.603026 
L 150.222872 -253.811907 
L 150.202505 -255.020788 
L 150.18306 -256.22967 
L 150.164605 -257.438551 
L 150.147205 -258.647432 
L 150.13092 -259.856313 
L 150.115808 -261.065194 
L 150.101919 -262.274076 
L 150.089301 -263.482957 
L 150.077993 -264.691838 
L 150.068029 -265.900719 
L 150.059436 -267.1096 
L 150.052235 -268.318482 
L 150.046438 -269.527363 
L 150.042049 -270.736244 
L 150.039068 -271.945125 
L 150.037483 -273.154006 
L 150.037278 -274.362888 
L 150.038428 -275.571769 
L 150.040902 -276.78065 
L 150.044662 -277.989531 
L 150.049665 -279.198412 
L 150.05586 -280.407294 
L 150.063194 -281.616175 
L 150.071608 -282.825056 
L 150.08104 -284.033937 
L 150.091425 -285.242818 
L 150.102697 -286.4517 
L 150.114788 -287.660581 
L 150.127629 -288.869462 
L 150.141152 -290.078343 
L 150.155292 -291.287224 
L 150.169982 -292.496105 
L 150.185162 -293.704987 
L 150.200772 -294.913868 
L 150.216759 -296.122749 
L 150.233071 -297.33163 
L 150.249664 -298.540511 
L 150.266499 -299.749393 
L 150.283541 -300.958274 
L 150.300763 -302.167155 
L 150.318143 -303.376036 
L 150.335664 -304.584917 
L 150.353316 -305.793799 
L 150.371097 -307.00268 
L 150.389006 -308.211561 
L 150.407052 -309.420442 
L 150.425245 -310.629323 
L 150.443601 -311.838205 
L 150.462141 -313.047086 
L 150.480887 -314.255967 
L 150.499864 -315.464848 
L 150.519099 -316.673729 
L 150.538623 -317.882611 
L 150.558462 -319.091492 
L 150.578646 -320.300373 
L 150.599204 -321.509254 
L 150.620161 -322.718135 
L 150.641541 -323.927017 
L 150.663366 -325.135898 
L 150.685653 -326.344779 
L 150.708417 -327.55366 
L 150.731668 -328.762541 
L 150.755411 -329.971423 
L 150.779645 -331.180304 
L 153.011457 -331.180304 
L 153.011457 -331.180304 
L 153.035691 -329.971423 
L 153.059434 -328.762541 
L 153.082685 -327.55366 
L 153.105449 -326.344779 
L 153.127736 -325.135898 
L 153.149561 -323.927017 
L 153.170941 -322.718135 
L 153.191898 -321.509254 
L 153.212456 -320.300373 
L 153.23264 -319.091492 
L 153.252479 -317.882611 
L 153.272003 -316.673729 
L 153.291238 -315.464848 
L 153.310215 -314.255967 
L 153.328961 -313.047086 
L 153.347501 -311.838205 
L 153.365857 -310.629323 
L 153.38405 -309.420442 
L 153.402096 -308.211561 
L 153.420005 -307.00268 
L 153.437786 -305.793799 
L 153.455438 -304.584917 
L 153.472959 -303.376036 
L 153.490339 -302.167155 
L 153.507561 -300.958274 
L 153.524603 -299.749393 
L 153.541438 -298.540511 
L 153.558031 -297.33163 
L 153.574343 -296.122749 
L 153.59033 -294.913868 
L 153.60594 -293.704987 
L 153.62112 -292.496105 
L 153.63581 -291.287224 
L 153.64995 -290.078343 
L 153.663473 -288.869462 
L 153.676314 -287.660581 
L 153.688405 -286.4517 
L 153.699677 -285.242818 
L 153.710062 -284.033937 
L 153.719494 -282.825056 
L 153.727908 -281.616175 
L 153.735242 -280.407294 
L 153.741437 -279.198412 
L 153.74644 -277.989531 
L 153.7502 -276.78065 
L 153.752674 -275.571769 
L 153.753824 -274.362888 
L 153.753619 -273.154006 
L 153.752034 -271.945125 
L 153.749053 -270.736244 
L 153.744664 -269.527363 
L 153.738867 -268.318482 
L 153.731666 -267.1096 
L 153.723073 -265.900719 
L 153.713109 -264.691838 
L 153.701801 -263.482957 
L 153.689183 -262.274076 
L 153.675294 -261.065194 
L 153.660182 -259.856313 
L 153.643897 -258.647432 
L 153.626497 -257.438551 
L 153.608042 -256.22967 
L 153.588597 -255.020788 
L 153.56823 -253.811907 
L 153.547009 -252.603026 
L 153.525006 -251.394145 
L 153.502294 -250.185264 
L 153.478946 -248.976382 
L 153.455032 -247.767501 
L 153.430626 -246.55862 
L 153.405795 -245.349739 
L 153.380607 -244.140858 
L 153.355127 -242.931976 
L 153.329417 -241.723095 
L 153.303534 -240.514214 
L 153.277532 -239.305333 
L 153.251462 -238.096452 
L 153.22537 -236.88757 
L 153.199296 -235.678689 
L 153.173278 -234.469808 
L 153.147348 -233.260927 
L 153.121533 -232.052046 
L 153.095857 -230.843164 
L 153.070338 -229.634283 
L 153.044992 -228.425402 
L 153.019831 -227.216521 
L 152.99486 -226.00764 
L 152.970086 -224.798759 
L 152.94551 -223.589877 
L 152.921131 -222.380996 
L 152.896946 -221.172115 
L 152.872951 -219.963234 
L 152.849139 -218.754353 
L 152.825505 -217.545471 
L 152.802039 -216.33659 
L 152.778736 -215.127709 
L 152.755588 -213.918828 
L 152.732589 -212.709947 
L 152.709731 -211.501065 
z
" id="mc7f50ed0dd" style="stroke:#545454;stroke-width:2.5;"/>
    </defs>
    <g clip-path="url(#p1211f44627)">
     <use style="fill:#d98b5f;stroke:#545454;stroke-width:2.5;" x="0" xlink:href="#mc7f50ed0dd" y="503.420156"/>
    </g>
   </g>
   <g id="PolyCollection_5">
    <defs>
     <path d="M 197.532575 -211.501065 
L 174.714063 -211.501065 
L 175.196176 -213.713108 
L 176.525902 -215.92515 
L 178.387843 -218.137192 
L 180.392681 -220.349235 
L 182.20574 -222.561277 
L 183.62789 -224.773319 
L 184.607515 -226.985362 
L 185.200188 -229.197404 
L 185.510355 -231.409447 
L 185.643588 -233.621489 
L 185.681127 -235.833531 
L 185.674106 -238.045574 
L 185.648912 -240.257616 
L 185.615968 -242.469658 
L 185.577548 -244.681701 
L 185.533136 -246.893743 
L 185.482365 -249.105785 
L 185.426152 -251.317828 
L 185.366676 -253.52987 
L 185.306787 -255.741912 
L 185.249272 -257.953955 
L 185.196232 -260.165997 
L 185.148673 -262.378039 
L 185.106307 -264.590082 
L 185.067512 -266.802124 
L 185.029492 -269.014167 
L 184.988751 -271.226209 
L 184.941995 -273.438251 
L 184.887428 -275.650294 
L 184.826105 -277.862336 
L 184.762796 -280.074378 
L 184.705755 -282.286421 
L 184.665129 -284.498463 
L 184.650233 -286.710505 
L 184.666566 -288.922548 
L 184.713696 -291.13459 
L 184.784972 -293.346632 
L 184.86929 -295.558675 
L 184.954289 -297.770717 
L 185.029733 -299.982759 
L 185.089824 -302.194802 
L 185.13376 -304.406844 
L 185.164653 -306.618887 
L 185.187552 -308.830929 
L 185.207487 -311.042971 
L 185.228174 -313.255014 
L 185.251539 -315.467056 
L 185.277851 -317.679098 
L 185.306168 -319.891141 
L 185.334865 -322.103183 
L 185.362179 -324.315225 
L 185.386717 -326.527268 
L 185.407843 -328.73931 
L 185.425845 -330.951352 
L 185.441807 -333.163395 
L 185.457236 -335.375437 
L 185.473582 -337.587479 
L 185.491806 -339.799522 
L 185.512137 -342.011564 
L 185.534072 -344.223607 
L 185.556614 -346.435649 
L 185.578619 -348.647691 
L 185.599143 -350.859734 
L 185.617667 -353.071776 
L 185.634184 -355.283818 
L 185.649154 -357.495861 
L 185.663346 -359.707903 
L 185.677601 -361.919945 
L 185.69255 -364.131988 
L 185.708402 -366.34403 
L 185.724892 -368.556072 
L 185.741456 -370.768115 
L 185.757538 -372.980157 
L 185.772876 -375.1922 
L 185.787627 -377.404242 
L 185.802247 -379.616284 
L 185.81722 -381.828327 
L 185.832763 -384.040369 
L 185.848643 -386.252411 
L 185.864134 -388.464454 
L 185.878102 -390.676496 
L 185.889119 -392.888538 
L 185.895634 -395.100581 
L 185.896239 -397.312623 
L 185.890116 -399.524665 
L 185.877604 -401.736708 
L 185.860665 -403.94875 
L 185.842934 -406.160792 
L 185.82915 -408.372835 
L 185.824025 -410.584877 
L 185.830941 -412.79692 
L 185.850945 -415.008962 
L 185.882454 -417.221004 
L 185.921737 -419.433047 
L 185.963984 -421.645089 
L 186.004527 -423.857131 
L 186.039832 -426.069174 
L 186.067997 -428.281216 
L 186.08871 -430.493258 
L 186.157928 -430.493258 
L 186.157928 -430.493258 
L 186.178641 -428.281216 
L 186.206806 -426.069174 
L 186.242111 -423.857131 
L 186.282654 -421.645089 
L 186.324901 -419.433047 
L 186.364184 -417.221004 
L 186.395693 -415.008962 
L 186.415697 -412.79692 
L 186.422613 -410.584877 
L 186.417488 -408.372835 
L 186.403704 -406.160792 
L 186.385973 -403.94875 
L 186.369034 -401.736708 
L 186.356522 -399.524665 
L 186.350399 -397.312623 
L 186.351004 -395.100581 
L 186.357519 -392.888538 
L 186.368536 -390.676496 
L 186.382504 -388.464454 
L 186.397995 -386.252411 
L 186.413875 -384.040369 
L 186.429418 -381.828327 
L 186.444391 -379.616284 
L 186.459011 -377.404242 
L 186.473762 -375.1922 
L 186.4891 -372.980157 
L 186.505182 -370.768115 
L 186.521746 -368.556072 
L 186.538236 -366.34403 
L 186.554088 -364.131988 
L 186.569037 -361.919945 
L 186.583292 -359.707903 
L 186.597484 -357.495861 
L 186.612454 -355.283818 
L 186.628971 -353.071776 
L 186.647495 -350.859734 
L 186.668019 -348.647691 
L 186.690024 -346.435649 
L 186.712566 -344.223607 
L 186.734501 -342.011564 
L 186.754832 -339.799522 
L 186.773056 -337.587479 
L 186.789402 -335.375437 
L 186.804831 -333.163395 
L 186.820793 -330.951352 
L 186.838795 -328.73931 
L 186.859921 -326.527268 
L 186.884459 -324.315225 
L 186.911773 -322.103183 
L 186.94047 -319.891141 
L 186.968787 -317.679098 
L 186.995099 -315.467056 
L 187.018464 -313.255014 
L 187.039151 -311.042971 
L 187.059086 -308.830929 
L 187.081985 -306.618887 
L 187.112878 -304.406844 
L 187.156814 -302.194802 
L 187.216905 -299.982759 
L 187.292349 -297.770717 
L 187.377348 -295.558675 
L 187.461666 -293.346632 
L 187.532942 -291.13459 
L 187.580072 -288.922548 
L 187.596405 -286.710505 
L 187.581509 -284.498463 
L 187.540883 -282.286421 
L 187.483842 -280.074378 
L 187.420533 -277.862336 
L 187.35921 -275.650294 
L 187.304643 -273.438251 
L 187.257887 -271.226209 
L 187.217146 -269.014167 
L 187.179126 -266.802124 
L 187.140331 -264.590082 
L 187.097965 -262.378039 
L 187.050406 -260.165997 
L 186.997366 -257.953955 
L 186.939851 -255.741912 
L 186.879962 -253.52987 
L 186.820486 -251.317828 
L 186.764273 -249.105785 
L 186.713502 -246.893743 
L 186.66909 -244.681701 
L 186.63067 -242.469658 
L 186.597726 -240.257616 
L 186.572532 -238.045574 
L 186.565511 -235.833531 
L 186.60305 -233.621489 
L 186.736283 -231.409447 
L 187.04645 -229.197404 
L 187.639123 -226.985362 
L 188.618748 -224.773319 
L 190.040898 -222.561277 
L 191.853957 -220.349235 
L 193.858795 -218.137192 
L 195.720736 -215.92515 
L 197.050462 -213.713108 
L 197.532575 -211.501065 
z
" id="mb346b76b4e" style="stroke:#545454;stroke-width:2.5;"/>
    </defs>
    <g clip-path="url(#p1211f44627)">
     <use style="fill:#597dbf;stroke:#545454;stroke-width:2.5;" x="0" xlink:href="#mb346b76b4e" y="503.420156"/>
    </g>
   </g>
   <g id="PolyCollection_6">
    <defs>
     <path d="M 209.729463 -211.501065 
L 208.154199 -211.501065 
L 208.131678 -213.422909 
L 208.109042 -215.344753 
L 208.086283 -217.266597 
L 208.063391 -219.188441 
L 208.040357 -221.110285 
L 208.01717 -223.032129 
L 207.993819 -224.953972 
L 207.970294 -226.875816 
L 207.946585 -228.79766 
L 207.922682 -230.719504 
L 207.898577 -232.641348 
L 207.874266 -234.563192 
L 207.849744 -236.485036 
L 207.825012 -238.40688 
L 207.800072 -240.328723 
L 207.774929 -242.250567 
L 207.749595 -244.172411 
L 207.724083 -246.094255 
L 207.698412 -248.016099 
L 207.672606 -249.937943 
L 207.646692 -251.859787 
L 207.620705 -253.781631 
L 207.594681 -255.703474 
L 207.568663 -257.625318 
L 207.542699 -259.547162 
L 207.516842 -261.469006 
L 207.491146 -263.39085 
L 207.465674 -265.312694 
L 207.440487 -267.234538 
L 207.415654 -269.156381 
L 207.391244 -271.078225 
L 207.367329 -273.000069 
L 207.343982 -274.921913 
L 207.321278 -276.843757 
L 207.299291 -278.765601 
L 207.278095 -280.687445 
L 207.257764 -282.609289 
L 207.238368 -284.531132 
L 207.219978 -286.452976 
L 207.202659 -288.37482 
L 207.186473 -290.296664 
L 207.171479 -292.218508 
L 207.157731 -294.140352 
L 207.145275 -296.062196 
L 207.134155 -297.98404 
L 207.124407 -299.905883 
L 207.116061 -301.827727 
L 207.109139 -303.749571 
L 207.103658 -305.671415 
L 207.099628 -307.593259 
L 207.097051 -309.515103 
L 207.095923 -311.436947 
L 207.096232 -313.358791 
L 207.097961 -315.280634 
L 207.101086 -317.202478 
L 207.105578 -319.124322 
L 207.111401 -321.046166 
L 207.118516 -322.96801 
L 207.126878 -324.889854 
L 207.136439 -326.811698 
L 207.147149 -328.733542 
L 207.158952 -330.655385 
L 207.171794 -332.577229 
L 207.185617 -334.499073 
L 207.200363 -336.420917 
L 207.215974 -338.342761 
L 207.232394 -340.264605 
L 207.249564 -342.186449 
L 207.267432 -344.108292 
L 207.285944 -346.030136 
L 207.305051 -347.95198 
L 207.324704 -349.873824 
L 207.344861 -351.795668 
L 207.365481 -353.717512 
L 207.386526 -355.639356 
L 207.407964 -357.5612 
L 207.429765 -359.483043 
L 207.451904 -361.404887 
L 207.474357 -363.326731 
L 207.497108 -365.248575 
L 207.52014 -367.170419 
L 207.543441 -369.092263 
L 207.567001 -371.014107 
L 207.590813 -372.935951 
L 207.614872 -374.857794 
L 207.639174 -376.779638 
L 207.663717 -378.701482 
L 207.688498 -380.623326 
L 207.713517 -382.54517 
L 207.738772 -384.467014 
L 207.76426 -386.388858 
L 207.78998 -388.310702 
L 207.815925 -390.232545 
L 207.842092 -392.154389 
L 207.868472 -394.076233 
L 207.895056 -395.998077 
L 207.921831 -397.919921 
L 207.948782 -399.841765 
L 207.975893 -401.763609 
L 209.907769 -401.763609 
L 209.907769 -401.763609 
L 209.93488 -399.841765 
L 209.961831 -397.919921 
L 209.988606 -395.998077 
L 210.01519 -394.076233 
L 210.04157 -392.154389 
L 210.067737 -390.232545 
L 210.093682 -388.310702 
L 210.119402 -386.388858 
L 210.14489 -384.467014 
L 210.170145 -382.54517 
L 210.195164 -380.623326 
L 210.219945 -378.701482 
L 210.244488 -376.779638 
L 210.26879 -374.857794 
L 210.292849 -372.935951 
L 210.316661 -371.014107 
L 210.340221 -369.092263 
L 210.363522 -367.170419 
L 210.386554 -365.248575 
L 210.409305 -363.326731 
L 210.431758 -361.404887 
L 210.453897 -359.483043 
L 210.475698 -357.5612 
L 210.497136 -355.639356 
L 210.518181 -353.717512 
L 210.538801 -351.795668 
L 210.558958 -349.873824 
L 210.578611 -347.95198 
L 210.597718 -346.030136 
L 210.61623 -344.108292 
L 210.634098 -342.186449 
L 210.651268 -340.264605 
L 210.667688 -338.342761 
L 210.683299 -336.420917 
L 210.698045 -334.499073 
L 210.711868 -332.577229 
L 210.72471 -330.655385 
L 210.736513 -328.733542 
L 210.747223 -326.811698 
L 210.756784 -324.889854 
L 210.765146 -322.96801 
L 210.772261 -321.046166 
L 210.778084 -319.124322 
L 210.782576 -317.202478 
L 210.785701 -315.280634 
L 210.78743 -313.358791 
L 210.787739 -311.436947 
L 210.786611 -309.515103 
L 210.784034 -307.593259 
L 210.780004 -305.671415 
L 210.774523 -303.749571 
L 210.767601 -301.827727 
L 210.759255 -299.905883 
L 210.749507 -297.98404 
L 210.738387 -296.062196 
L 210.725931 -294.140352 
L 210.712183 -292.218508 
L 210.697189 -290.296664 
L 210.681003 -288.37482 
L 210.663684 -286.452976 
L 210.645294 -284.531132 
L 210.625898 -282.609289 
L 210.605567 -280.687445 
L 210.584371 -278.765601 
L 210.562384 -276.843757 
L 210.53968 -274.921913 
L 210.516333 -273.000069 
L 210.492418 -271.078225 
L 210.468008 -269.156381 
L 210.443175 -267.234538 
L 210.417988 -265.312694 
L 210.392516 -263.39085 
L 210.36682 -261.469006 
L 210.340963 -259.547162 
L 210.314999 -257.625318 
L 210.288981 -255.703474 
L 210.262957 -253.781631 
L 210.23697 -251.859787 
L 210.211056 -249.937943 
L 210.18525 -248.016099 
L 210.159579 -246.094255 
L 210.134067 -244.172411 
L 210.108733 -242.250567 
L 210.08359 -240.328723 
L 210.05865 -238.40688 
L 210.033918 -236.485036 
L 210.009396 -234.563192 
L 209.985085 -232.641348 
L 209.96098 -230.719504 
L 209.937077 -228.79766 
L 209.913368 -226.875816 
L 209.889843 -224.953972 
L 209.866492 -223.032129 
L 209.843305 -221.110285 
L 209.820271 -219.188441 
L 209.797379 -217.266597 
L 209.77462 -215.344753 
L 209.751984 -213.422909 
L 209.729463 -211.501065 
z
" id="mcf35260598" style="stroke:#545454;stroke-width:2.5;"/>
    </defs>
    <g clip-path="url(#p1211f44627)">
     <use style="fill:#d98b5f;stroke:#545454;stroke-width:2.5;" x="0" xlink:href="#mcf35260598" y="503.420156"/>
    </g>
   </g>
   <g id="PolyCollection_7">
    <defs>
     <path d="M 254.578855 -211.501065 
L 231.760343 -211.501065 
L 232.229256 -212.890997 
L 233.52857 -214.280929 
L 235.354397 -215.670861 
L 237.329693 -217.060793 
L 239.127138 -218.450724 
L 240.548209 -219.840656 
L 241.537119 -221.230588 
L 242.143914 -222.62052 
L 242.468633 -224.010452 
L 242.614269 -225.400383 
L 242.660879 -226.790315 
L 242.659236 -228.180247 
L 242.635965 -229.570179 
L 242.602376 -230.960111 
L 242.562275 -232.350042 
L 242.517049 -233.739974 
L 242.468085 -235.129906 
L 242.417321 -236.519838 
L 242.366807 -237.909769 
L 242.317986 -239.299701 
L 242.271138 -240.689633 
L 242.225164 -242.079565 
L 242.17775 -243.469497 
L 242.125894 -244.859428 
L 242.066816 -246.24936 
L 241.999247 -247.639292 
L 241.924842 -249.029224 
L 241.849181 -250.419156 
L 241.781607 -251.809087 
L 241.733412 -253.199019 
L 241.714635 -254.588951 
L 241.730599 -255.978883 
L 241.779719 -257.368815 
L 241.853683 -258.758746 
L 241.939972 -260.148678 
L 242.025594 -261.53861 
L 242.100444 -262.928542 
L 242.159111 -264.318474 
L 242.200864 -265.708405 
L 242.228337 -267.098337 
L 242.245758 -268.488269 
L 242.257425 -269.878201 
L 242.266783 -271.268133 
L 242.276123 -272.658064 
L 242.286738 -274.047996 
L 242.299293 -275.437928 
L 242.314156 -276.82786 
L 242.331553 -278.217792 
L 242.351504 -279.607723 
L 242.373663 -280.997655 
L 242.397205 -282.387587 
L 242.420886 -283.777519 
L 242.443304 -285.167451 
L 242.463278 -286.557382 
L 242.480247 -287.947314 
L 242.494519 -289.337246 
L 242.507283 -290.727178 
L 242.520301 -292.11711 
L 242.535376 -293.507041 
L 242.55376 -294.896973 
L 242.575748 -296.286905 
L 242.600596 -297.676837 
L 242.62678 -299.066769 
L 242.652473 -300.4567 
L 242.676046 -301.846632 
L 242.696473 -303.236564 
L 242.713504 -304.626496 
L 242.727607 -306.016428 
L 242.739698 -307.406359 
L 242.750782 -308.796291 
L 242.761623 -310.186223 
L 242.772586 -311.576155 
L 242.783652 -312.966087 
L 242.794604 -314.356018 
L 242.805251 -315.74595 
L 242.815626 -317.135882 
L 242.826043 -318.525814 
L 242.837008 -319.915746 
L 242.848971 -321.305677 
L 242.86202 -322.695609 
L 242.875598 -324.085541 
L 242.888376 -325.475473 
L 242.898389 -326.865405 
L 242.903502 -328.255336 
L 242.902128 -329.645268 
L 242.89403 -331.0352 
L 242.880871 -332.425132 
L 242.866221 -333.815064 
L 242.854885 -335.204995 
L 242.8517 -336.594927 
L 242.860204 -337.984859 
L 242.881623 -339.374791 
L 242.91456 -340.764723 
L 242.955435 -342.154654 
L 242.999495 -343.544586 
L 243.042019 -344.934518 
L 243.079336 -346.32445 
L 243.109368 -347.714382 
L 243.131662 -349.104313 
L 243.207536 -349.104313 
L 243.207536 -349.104313 
L 243.22983 -347.714382 
L 243.259862 -346.32445 
L 243.297179 -344.934518 
L 243.339703 -343.544586 
L 243.383763 -342.154654 
L 243.424638 -340.764723 
L 243.457575 -339.374791 
L 243.478994 -337.984859 
L 243.487498 -336.594927 
L 243.484313 -335.204995 
L 243.472977 -333.815064 
L 243.458327 -332.425132 
L 243.445168 -331.0352 
L 243.43707 -329.645268 
L 243.435696 -328.255336 
L 243.440809 -326.865405 
L 243.450822 -325.475473 
L 243.4636 -324.085541 
L 243.477178 -322.695609 
L 243.490227 -321.305677 
L 243.50219 -319.915746 
L 243.513155 -318.525814 
L 243.523572 -317.135882 
L 243.533947 -315.74595 
L 243.544594 -314.356018 
L 243.555546 -312.966087 
L 243.566612 -311.576155 
L 243.577575 -310.186223 
L 243.588416 -308.796291 
L 243.5995 -307.406359 
L 243.611591 -306.016428 
L 243.625694 -304.626496 
L 243.642725 -303.236564 
L 243.663152 -301.846632 
L 243.686725 -300.4567 
L 243.712418 -299.066769 
L 243.738602 -297.676837 
L 243.76345 -296.286905 
L 243.785438 -294.896973 
L 243.803822 -293.507041 
L 243.818897 -292.11711 
L 243.831915 -290.727178 
L 243.844679 -289.337246 
L 243.858951 -287.947314 
L 243.87592 -286.557382 
L 243.895894 -285.167451 
L 243.918312 -283.777519 
L 243.941993 -282.387587 
L 243.965535 -280.997655 
L 243.987694 -279.607723 
L 244.007645 -278.217792 
L 244.025042 -276.82786 
L 244.039905 -275.437928 
L 244.05246 -274.047996 
L 244.063075 -272.658064 
L 244.072415 -271.268133 
L 244.081773 -269.878201 
L 244.09344 -268.488269 
L 244.110861 -267.098337 
L 244.138334 -265.708405 
L 244.180087 -264.318474 
L 244.238754 -262.928542 
L 244.313604 -261.53861 
L 244.399226 -260.148678 
L 244.485515 -258.758746 
L 244.559479 -257.368815 
L 244.608599 -255.978883 
L 244.624563 -254.588951 
L 244.605786 -253.199019 
L 244.557591 -251.809087 
L 244.490017 -250.419156 
L 244.414356 -249.029224 
L 244.339951 -247.639292 
L 244.272382 -246.24936 
L 244.213304 -244.859428 
L 244.161448 -243.469497 
L 244.114034 -242.079565 
L 244.06806 -240.689633 
L 244.021212 -239.299701 
L 243.972391 -237.909769 
L 243.921877 -236.519838 
L 243.871113 -235.129906 
L 243.822149 -233.739974 
L 243.776923 -232.350042 
L 243.736822 -230.960111 
L 243.703233 -229.570179 
L 243.679962 -228.180247 
L 243.678319 -226.790315 
L 243.724929 -225.400383 
L 243.870565 -224.010452 
L 244.195284 -222.62052 
L 244.802079 -221.230588 
L 245.790989 -219.840656 
L 247.21206 -218.450724 
L 249.009505 -217.060793 
L 250.984801 -215.670861 
L 252.810628 -214.280929 
L 254.109942 -212.890997 
L 254.578855 -211.501065 
z
" id="m1fe89a8ffe" style="stroke:#545454;stroke-width:2.5;"/>
    </defs>
    <g clip-path="url(#p1211f44627)">
     <use style="fill:#597dbf;stroke:#545454;stroke-width:2.5;" x="0" xlink:href="#m1fe89a8ffe" y="503.420156"/>
    </g>
   </g>
   <g id="PolyCollection_8">
    <defs>
     <path d="M 266.791384 -211.501065 
L 265.184838 -211.501065 
L 265.161773 -212.709138 
L 265.138585 -213.917211 
L 265.11527 -215.125284 
L 265.091823 -216.333357 
L 265.068237 -217.54143 
L 265.044504 -218.749503 
L 265.02062 -219.957576 
L 264.996576 -221.165649 
L 264.972367 -222.373722 
L 264.947989 -223.581795 
L 264.923439 -224.789868 
L 264.898715 -225.997941 
L 264.873819 -227.206014 
L 264.848755 -228.414087 
L 264.82353 -229.62216 
L 264.798155 -230.830233 
L 264.772645 -232.038306 
L 264.747017 -233.246379 
L 264.721295 -234.454452 
L 264.695506 -235.662525 
L 264.669682 -236.870598 
L 264.643857 -238.078671 
L 264.618074 -239.286744 
L 264.592377 -240.494817 
L 264.566816 -241.70289 
L 264.541444 -242.910963 
L 264.516317 -244.119036 
L 264.491498 -245.327109 
L 264.467049 -246.535182 
L 264.443036 -247.743255 
L 264.419529 -248.951328 
L 264.396596 -250.159401 
L 264.374309 -251.367473 
L 264.35274 -252.575546 
L 264.331958 -253.783619 
L 264.312034 -254.991692 
L 264.293037 -256.199765 
L 264.275031 -257.407838 
L 264.258081 -258.615911 
L 264.242246 -259.823984 
L 264.227581 -261.032057 
L 264.214137 -262.24013 
L 264.20196 -263.448203 
L 264.191089 -264.656276 
L 264.181557 -265.864349 
L 264.173393 -267.072422 
L 264.166617 -268.280495 
L 264.161242 -269.488568 
L 264.157275 -270.696641 
L 264.154716 -271.904714 
L 264.153558 -273.112787 
L 264.153787 -274.32086 
L 264.155383 -275.528933 
L 264.158319 -276.737006 
L 264.162561 -277.945079 
L 264.168073 -279.153152 
L 264.174812 -280.361225 
L 264.182729 -281.569298 
L 264.191774 -282.777371 
L 264.201893 -283.985444 
L 264.213029 -285.193517 
L 264.225123 -286.40159 
L 264.238116 -287.609663 
L 264.251948 -288.817736 
L 264.26656 -290.025809 
L 264.281892 -291.233882 
L 264.297887 -292.441955 
L 264.314491 -293.650028 
L 264.33165 -294.858101 
L 264.349316 -296.066174 
L 264.367443 -297.274247 
L 264.385989 -298.482319 
L 264.404916 -299.690392 
L 264.424191 -300.898465 
L 264.443784 -302.106538 
L 264.463673 -303.314611 
L 264.483835 -304.522684 
L 264.504257 -305.730757 
L 264.524926 -306.93883 
L 264.545836 -308.146903 
L 264.566981 -309.354976 
L 264.588362 -310.563049 
L 264.609981 -311.771122 
L 264.631843 -312.979195 
L 264.653954 -314.187268 
L 264.676321 -315.395341 
L 264.698955 -316.603414 
L 264.721864 -317.811487 
L 264.745057 -319.01956 
L 264.768543 -320.227633 
L 264.792329 -321.435706 
L 264.816421 -322.643779 
L 264.840823 -323.851852 
L 264.865536 -325.059925 
L 264.890559 -326.267998 
L 264.915887 -327.476071 
L 264.941513 -328.684144 
L 264.967426 -329.892217 
L 264.993611 -331.10029 
L 266.982611 -331.10029 
L 266.982611 -331.10029 
L 267.008796 -329.892217 
L 267.034709 -328.684144 
L 267.060335 -327.476071 
L 267.085663 -326.267998 
L 267.110686 -325.059925 
L 267.135399 -323.851852 
L 267.159801 -322.643779 
L 267.183893 -321.435706 
L 267.207679 -320.227633 
L 267.231165 -319.01956 
L 267.254358 -317.811487 
L 267.277267 -316.603414 
L 267.299901 -315.395341 
L 267.322268 -314.187268 
L 267.344379 -312.979195 
L 267.366241 -311.771122 
L 267.38786 -310.563049 
L 267.409241 -309.354976 
L 267.430386 -308.146903 
L 267.451296 -306.93883 
L 267.471965 -305.730757 
L 267.492387 -304.522684 
L 267.512549 -303.314611 
L 267.532438 -302.106538 
L 267.552031 -300.898465 
L 267.571306 -299.690392 
L 267.590233 -298.482319 
L 267.608779 -297.274247 
L 267.626906 -296.066174 
L 267.644572 -294.858101 
L 267.661731 -293.650028 
L 267.678335 -292.441955 
L 267.69433 -291.233882 
L 267.709662 -290.025809 
L 267.724274 -288.817736 
L 267.738106 -287.609663 
L 267.751099 -286.40159 
L 267.763193 -285.193517 
L 267.774329 -283.985444 
L 267.784448 -282.777371 
L 267.793493 -281.569298 
L 267.80141 -280.361225 
L 267.808149 -279.153152 
L 267.813661 -277.945079 
L 267.817903 -276.737006 
L 267.820839 -275.528933 
L 267.822435 -274.32086 
L 267.822664 -273.112787 
L 267.821506 -271.904714 
L 267.818947 -270.696641 
L 267.81498 -269.488568 
L 267.809605 -268.280495 
L 267.802829 -267.072422 
L 267.794665 -265.864349 
L 267.785133 -264.656276 
L 267.774262 -263.448203 
L 267.762085 -262.24013 
L 267.748641 -261.032057 
L 267.733976 -259.823984 
L 267.718141 -258.615911 
L 267.701191 -257.407838 
L 267.683185 -256.199765 
L 267.664188 -254.991692 
L 267.644264 -253.783619 
L 267.623482 -252.575546 
L 267.601913 -251.367473 
L 267.579626 -250.159401 
L 267.556693 -248.951328 
L 267.533186 -247.743255 
L 267.509173 -246.535182 
L 267.484724 -245.327109 
L 267.459905 -244.119036 
L 267.434778 -242.910963 
L 267.409406 -241.70289 
L 267.383845 -240.494817 
L 267.358148 -239.286744 
L 267.332365 -238.078671 
L 267.30654 -236.870598 
L 267.280716 -235.662525 
L 267.254927 -234.454452 
L 267.229205 -233.246379 
L 267.203577 -232.038306 
L 267.178067 -230.830233 
L 267.152692 -229.62216 
L 267.127467 -228.414087 
L 267.102403 -227.206014 
L 267.077507 -225.997941 
L 267.052783 -224.789868 
L 267.028233 -223.581795 
L 267.003855 -222.373722 
L 266.979646 -221.165649 
L 266.955602 -219.957576 
L 266.931718 -218.749503 
L 266.907985 -217.54143 
L 266.884399 -216.333357 
L 266.860952 -215.125284 
L 266.837637 -213.917211 
L 266.814449 -212.709138 
L 266.791384 -211.501065 
z
" id="ma1361c29e8" style="stroke:#545454;stroke-width:2.5;"/>
    </defs>
    <g clip-path="url(#p1211f44627)">
     <use style="fill:#d98b5f;stroke:#545454;stroke-width:2.5;" x="0" xlink:href="#ma1361c29e8" y="503.420156"/>
    </g>
   </g>
   <g id="PolyCollection_9">
    <defs>
     <path d="M 311.625135 -211.501065 
L 288.806623 -211.501065 
L 289.21737 -212.104888 
L 290.37533 -212.708711 
L 292.035015 -213.312534 
L 293.882065 -213.916357 
L 295.627445 -214.52018 
L 297.075294 -215.124003 
L 298.14506 -215.727825 
L 298.852568 -216.331648 
L 299.269889 -216.935471 
L 299.485323 -217.539294 
L 299.576472 -218.143117 
L 299.599005 -218.74694 
L 299.586961 -219.350763 
L 299.558512 -219.954585 
L 299.522469 -220.558408 
L 299.483112 -221.162231 
L 299.442823 -221.766054 
L 299.40297 -222.369877 
L 299.363817 -222.9737 
L 299.324194 -223.577523 
L 299.281479 -224.181345 
L 299.232217 -224.785168 
L 299.173432 -225.388991 
L 299.104363 -225.992814 
L 299.028046 -226.596637 
L 298.95198 -227.20046 
L 298.887253 -227.804283 
L 298.846013 -228.408105 
L 298.83793 -229.011928 
L 298.866902 -229.615751 
L 298.929394 -230.219574 
L 299.015164 -230.823397 
L 299.11014 -231.42722 
L 299.200296 -232.031043 
L 299.275022 -232.634865 
L 299.328899 -233.238688 
L 299.36161 -233.842511 
L 299.376499 -234.446334 
L 299.378646 -235.050157 
L 299.373242 -235.65398 
L 299.364613 -236.257803 
L 299.355894 -236.861626 
L 299.3491 -237.465448 
L 299.345342 -238.069271 
L 299.345037 -238.673094 
L 299.348071 -239.276917 
L 299.353946 -239.88074 
L 299.361954 -240.484563 
L 299.371382 -241.088386 
L 299.381709 -241.692208 
L 299.392731 -242.296031 
L 299.404564 -242.899854 
L 299.417535 -243.503677 
L 299.432012 -244.1075 
L 299.448245 -244.711323 
L 299.466256 -245.315146 
L 299.485814 -245.918968 
L 299.506502 -246.522791 
L 299.527848 -247.126614 
L 299.549479 -247.730437 
L 299.571204 -248.33426 
L 299.592968 -248.938083 
L 299.61466 -249.541906 
L 299.635912 -250.145728 
L 299.656015 -250.749551 
L 299.674086 -251.353374 
L 299.689428 -251.957197 
L 299.70192 -252.56102 
L 299.712215 -253.164843 
L 299.721602 -253.768666 
L 299.731558 -254.372488 
L 299.743172 -254.976311 
L 299.756712 -255.580134 
L 299.77152 -256.183957 
L 299.78626 -256.78778 
L 299.799379 -257.391603 
L 299.809551 -257.995426 
L 299.815926 -258.599249 
L 299.818166 -259.203071 
L 299.816329 -259.806894 
L 299.810751 -260.410717 
L 299.801972 -261.01454 
L 299.790733 -261.618363 
L 299.777981 -262.222186 
L 299.764867 -262.826009 
L 299.752729 -263.429831 
L 299.743101 -264.033654 
L 299.737742 -264.637477 
L 299.73865 -265.2413 
L 299.74794 -265.845123 
L 299.767499 -266.448946 
L 299.798423 -267.052769 
L 299.840429 -267.656591 
L 299.891489 -268.260414 
L 299.947962 -268.864237 
L 300.005251 -269.46806 
L 300.058798 -270.071883 
L 300.105045 -270.675706 
L 300.142032 -271.279529 
L 300.289726 -271.279529 
L 300.289726 -271.279529 
L 300.326713 -270.675706 
L 300.37296 -270.071883 
L 300.426507 -269.46806 
L 300.483796 -268.864237 
L 300.540269 -268.260414 
L 300.591329 -267.656591 
L 300.633335 -267.052769 
L 300.664259 -266.448946 
L 300.683818 -265.845123 
L 300.693108 -265.2413 
L 300.694016 -264.637477 
L 300.688657 -264.033654 
L 300.679029 -263.429831 
L 300.666891 -262.826009 
L 300.653777 -262.222186 
L 300.641025 -261.618363 
L 300.629786 -261.01454 
L 300.621007 -260.410717 
L 300.615429 -259.806894 
L 300.613592 -259.203071 
L 300.615832 -258.599249 
L 300.622207 -257.995426 
L 300.632379 -257.391603 
L 300.645498 -256.78778 
L 300.660238 -256.183957 
L 300.675046 -255.580134 
L 300.688586 -254.976311 
L 300.7002 -254.372488 
L 300.710156 -253.768666 
L 300.719543 -253.164843 
L 300.729838 -252.56102 
L 300.74233 -251.957197 
L 300.757672 -251.353374 
L 300.775743 -250.749551 
L 300.795846 -250.145728 
L 300.817098 -249.541906 
L 300.83879 -248.938083 
L 300.860554 -248.33426 
L 300.882279 -247.730437 
L 300.90391 -247.126614 
L 300.925256 -246.522791 
L 300.945944 -245.918968 
L 300.965502 -245.315146 
L 300.983513 -244.711323 
L 300.999746 -244.1075 
L 301.014223 -243.503677 
L 301.027194 -242.899854 
L 301.039027 -242.296031 
L 301.050049 -241.692208 
L 301.060376 -241.088386 
L 301.069804 -240.484563 
L 301.077812 -239.88074 
L 301.083687 -239.276917 
L 301.086721 -238.673094 
L 301.086416 -238.069271 
L 301.082658 -237.465448 
L 301.075864 -236.861626 
L 301.067145 -236.257803 
L 301.058516 -235.65398 
L 301.053112 -235.050157 
L 301.055259 -234.446334 
L 301.070148 -233.842511 
L 301.102859 -233.238688 
L 301.156736 -232.634865 
L 301.231462 -232.031043 
L 301.321618 -231.42722 
L 301.416594 -230.823397 
L 301.502364 -230.219574 
L 301.564856 -229.615751 
L 301.593828 -229.011928 
L 301.585745 -228.408105 
L 301.544505 -227.804283 
L 301.479778 -227.20046 
L 301.403712 -226.596637 
L 301.327395 -225.992814 
L 301.258326 -225.388991 
L 301.199541 -224.785168 
L 301.150279 -224.181345 
L 301.107564 -223.577523 
L 301.067941 -222.9737 
L 301.028788 -222.369877 
L 300.988935 -221.766054 
L 300.948646 -221.162231 
L 300.909289 -220.558408 
L 300.873246 -219.954585 
L 300.844797 -219.350763 
L 300.832753 -218.74694 
L 300.855286 -218.143117 
L 300.946435 -217.539294 
L 301.161869 -216.935471 
L 301.57919 -216.331648 
L 302.286698 -215.727825 
L 303.356464 -215.124003 
L 304.804313 -214.52018 
L 306.549693 -213.916357 
L 308.396743 -213.312534 
L 310.056428 -212.708711 
L 311.214388 -212.104888 
L 311.625135 -211.501065 
z
" id="mbb1a2fecbb" style="stroke:#545454;stroke-width:2.5;"/>
    </defs>
    <g clip-path="url(#p1211f44627)">
     <use style="fill:#597dbf;stroke:#545454;stroke-width:2.5;" x="0" xlink:href="#mbb1a2fecbb" y="503.420156"/>
    </g>
   </g>
   <g id="PolyCollection_10">
    <defs>
     <path d="M 323.851839 -211.501065 
L 322.216943 -211.501065 
L 322.194536 -212.023644 
L 322.17202 -212.546223 
L 322.149388 -213.068802 
L 322.126634 -213.591381 
L 322.103751 -214.11396 
L 322.080729 -214.636539 
L 322.057561 -215.159117 
L 322.034238 -215.681696 
L 322.010752 -216.204275 
L 321.987097 -216.726854 
L 321.963266 -217.249433 
L 321.939256 -217.772012 
L 321.915065 -218.294591 
L 321.890694 -218.817169 
L 321.866144 -219.339748 
L 321.841424 -219.862327 
L 321.816541 -220.384906 
L 321.79151 -220.907485 
L 321.766347 -221.430064 
L 321.741074 -221.952643 
L 321.715716 -222.475222 
L 321.690302 -222.9978 
L 321.664867 -223.520379 
L 321.639449 -224.042958 
L 321.614091 -224.565537 
L 321.588838 -225.088116 
L 321.563742 -225.610695 
L 321.538858 -226.133274 
L 321.514242 -226.655852 
L 321.489955 -227.178431 
L 321.466061 -227.70101 
L 321.442624 -228.223589 
L 321.419713 -228.746168 
L 321.397394 -229.268747 
L 321.375737 -229.791326 
L 321.35481 -230.313905 
L 321.33468 -230.836483 
L 321.315414 -231.359062 
L 321.297076 -231.881641 
L 321.279727 -232.40422 
L 321.263427 -232.926799 
L 321.248228 -233.449378 
L 321.234182 -233.971957 
L 321.221333 -234.494535 
L 321.209722 -235.017114 
L 321.19938 -235.539693 
L 321.190338 -236.062272 
L 321.182614 -236.584851 
L 321.176224 -237.10743 
L 321.171175 -237.630009 
L 321.167468 -238.152587 
L 321.165095 -238.675166 
L 321.164044 -239.197745 
L 321.164295 -239.720324 
L 321.165821 -240.242903 
L 321.168591 -240.765482 
L 321.172566 -241.288061 
L 321.177702 -241.81064 
L 321.183954 -242.333218 
L 321.191268 -242.855797 
L 321.199591 -243.378376 
L 321.208864 -243.900955 
L 321.219029 -244.423534 
L 321.230024 -244.946113 
L 321.241788 -245.468692 
L 321.254262 -245.99127 
L 321.267385 -246.513849 
L 321.2811 -247.036428 
L 321.295351 -247.559007 
L 321.310086 -248.081586 
L 321.325256 -248.604165 
L 321.340815 -249.126744 
L 321.356725 -249.649323 
L 321.37295 -250.171901 
L 321.389458 -250.69448 
L 321.406227 -251.217059 
L 321.423236 -251.739638 
L 321.440471 -252.262217 
L 321.457924 -252.784796 
L 321.475591 -253.307375 
L 321.493475 -253.829953 
L 321.51158 -254.352532 
L 321.529918 -254.875111 
L 321.548503 -255.39769 
L 321.567352 -255.920269 
L 321.586485 -256.442848 
L 321.605926 -256.965427 
L 321.625696 -257.488006 
L 321.645822 -258.010584 
L 321.666327 -258.533163 
L 321.687236 -259.055742 
L 321.708572 -259.578321 
L 321.730356 -260.1009 
L 321.752607 -260.623479 
L 321.775341 -261.146058 
L 321.79857 -261.668636 
L 321.822303 -262.191215 
L 321.846544 -262.713794 
L 321.871294 -263.236373 
L 324.197488 -263.236373 
L 324.197488 -263.236373 
L 324.222238 -262.713794 
L 324.246479 -262.191215 
L 324.270212 -261.668636 
L 324.293441 -261.146058 
L 324.316175 -260.623479 
L 324.338426 -260.1009 
L 324.36021 -259.578321 
L 324.381546 -259.055742 
L 324.402455 -258.533163 
L 324.42296 -258.010584 
L 324.443086 -257.488006 
L 324.462856 -256.965427 
L 324.482297 -256.442848 
L 324.50143 -255.920269 
L 324.520279 -255.39769 
L 324.538864 -254.875111 
L 324.557202 -254.352532 
L 324.575307 -253.829953 
L 324.593191 -253.307375 
L 324.610858 -252.784796 
L 324.628311 -252.262217 
L 324.645546 -251.739638 
L 324.662555 -251.217059 
L 324.679324 -250.69448 
L 324.695832 -250.171901 
L 324.712057 -249.649323 
L 324.727967 -249.126744 
L 324.743526 -248.604165 
L 324.758696 -248.081586 
L 324.773431 -247.559007 
L 324.787682 -247.036428 
L 324.801397 -246.513849 
L 324.81452 -245.99127 
L 324.826994 -245.468692 
L 324.838758 -244.946113 
L 324.849753 -244.423534 
L 324.859918 -243.900955 
L 324.869191 -243.378376 
L 324.877514 -242.855797 
L 324.884828 -242.333218 
L 324.89108 -241.81064 
L 324.896216 -241.288061 
L 324.900191 -240.765482 
L 324.902961 -240.242903 
L 324.904487 -239.720324 
L 324.904738 -239.197745 
L 324.903687 -238.675166 
L 324.901314 -238.152587 
L 324.897607 -237.630009 
L 324.892558 -237.10743 
L 324.886168 -236.584851 
L 324.878444 -236.062272 
L 324.869402 -235.539693 
L 324.85906 -235.017114 
L 324.847449 -234.494535 
L 324.8346 -233.971957 
L 324.820554 -233.449378 
L 324.805355 -232.926799 
L 324.789055 -232.40422 
L 324.771706 -231.881641 
L 324.753368 -231.359062 
L 324.734102 -230.836483 
L 324.713972 -230.313905 
L 324.693045 -229.791326 
L 324.671388 -229.268747 
L 324.649069 -228.746168 
L 324.626158 -228.223589 
L 324.602721 -227.70101 
L 324.578827 -227.178431 
L 324.55454 -226.655852 
L 324.529924 -226.133274 
L 324.50504 -225.610695 
L 324.479944 -225.088116 
L 324.454691 -224.565537 
L 324.429333 -224.042958 
L 324.403915 -223.520379 
L 324.37848 -222.9978 
L 324.353066 -222.475222 
L 324.327708 -221.952643 
L 324.302435 -221.430064 
L 324.277272 -220.907485 
L 324.252241 -220.384906 
L 324.227358 -219.862327 
L 324.202638 -219.339748 
L 324.178088 -218.817169 
L 324.153717 -218.294591 
L 324.129526 -217.772012 
L 324.105516 -217.249433 
L 324.081685 -216.726854 
L 324.05803 -216.204275 
L 324.034544 -215.681696 
L 324.011221 -215.159117 
L 323.988053 -214.636539 
L 323.965031 -214.11396 
L 323.942148 -213.591381 
L 323.919394 -213.068802 
L 323.896762 -212.546223 
L 323.874246 -212.023644 
L 323.851839 -211.501065 
z
" id="m47eddd0008" style="stroke:#545454;stroke-width:2.5;"/>
    </defs>
    <g clip-path="url(#p1211f44627)">
     <use style="fill:#d98b5f;stroke:#545454;stroke-width:2.5;" x="0" xlink:href="#m47eddd0008" y="503.420156"/>
    </g>
   </g>
   <g id="patch_3">
    <path clip-path="url(#p1211f44627)" d="M 83.440015 291.919091 
L 83.440015 291.919091 
L 83.440015 291.919091 
L 83.440015 291.919091 
z
" style="fill:#597dbf;stroke:#545454;stroke-linejoin:miter;stroke-width:1.25;"/>
   </g>
   <g id="patch_4">
    <path clip-path="url(#p1211f44627)" d="M 83.440015 291.919091 
L 83.440015 291.919091 
L 83.440015 291.919091 
L 83.440015 291.919091 
z
" style="fill:#d98b5f;stroke:#545454;stroke-linejoin:miter;stroke-width:1.25;"/>
   </g>
   <g id="line2d_1">
    <path clip-path="url(#p1211f44627)" d="M 72.030759 291.919091 
L 72.030759 102.207072 
" style="fill:none;stroke:#545454;stroke-linecap:round;stroke-width:2.5;"/>
   </g>
   <g id="line2d_2">
    <path clip-path="url(#p1211f44627)" d="M 72.030759 291.919091 
L 72.030759 216.03428 
" style="fill:none;stroke:#545454;stroke-linecap:round;stroke-width:7.5;"/>
   </g>
   <g id="line2d_3">
    <path clip-path="url(#p1211f44627)" d="M 94.849271 291.919091 
L 94.849271 100.99916 
" style="fill:none;stroke:#545454;stroke-linecap:round;stroke-width:2.5;"/>
   </g>
   <g id="line2d_4">
    <path clip-path="url(#p1211f44627)" d="M 94.849271 215.848505 
L 94.849271 146.462953 
" style="fill:none;stroke:#545454;stroke-linecap:round;stroke-width:7.5;"/>
   </g>
   <g id="line2d_5">
    <path clip-path="url(#p1211f44627)" d="M 129.077039 291.919091 
L 129.077039 181.610915 
" style="fill:none;stroke:#545454;stroke-linecap:round;stroke-width:2.5;"/>
   </g>
   <g id="line2d_6">
    <path clip-path="url(#p1211f44627)" d="M 129.077039 291.919091 
L 129.077039 247.79582 
" style="fill:none;stroke:#545454;stroke-linecap:round;stroke-width:7.5;"/>
   </g>
   <g id="line2d_7">
    <path clip-path="url(#p1211f44627)" d="M 151.895551 291.919091 
L 151.895551 172.239852 
" style="fill:none;stroke:#545454;stroke-linecap:round;stroke-width:2.5;"/>
   </g>
   <g id="line2d_8">
    <path clip-path="url(#p1211f44627)" d="M 151.895551 246.161312 
L 151.895551 201.109698 
" style="fill:none;stroke:#545454;stroke-linecap:round;stroke-width:7.5;"/>
   </g>
   <g id="line2d_9">
    <path clip-path="url(#p1211f44627)" d="M 186.123319 291.919091 
L 186.123319 111.478368 
" style="fill:none;stroke:#545454;stroke-linecap:round;stroke-width:2.5;"/>
   </g>
   <g id="line2d_10">
    <path clip-path="url(#p1211f44627)" d="M 186.123319 291.919091 
L 186.123319 219.711222 
" style="fill:none;stroke:#545454;stroke-linecap:round;stroke-width:7.5;"/>
   </g>
   <g id="line2d_11">
    <path clip-path="url(#p1211f44627)" d="M 208.941831 291.919091 
L 208.941831 101.656548 
" style="fill:none;stroke:#545454;stroke-linecap:round;stroke-width:2.5;"/>
   </g>
   <g id="line2d_12">
    <path clip-path="url(#p1211f44627)" d="M 208.941831 221.273589 
L 208.941831 155.624773 
" style="fill:none;stroke:#545454;stroke-linecap:round;stroke-width:7.5;"/>
   </g>
   <g id="line2d_13">
    <path clip-path="url(#p1211f44627)" d="M 243.169599 291.919091 
L 243.169599 183.07718 
" style="fill:none;stroke:#545454;stroke-linecap:round;stroke-width:2.5;"/>
   </g>
   <g id="line2d_14">
    <path clip-path="url(#p1211f44627)" d="M 243.169599 291.919091 
L 243.169599 248.382326 
" style="fill:none;stroke:#545454;stroke-linecap:round;stroke-width:7.5;"/>
   </g>
   <g id="line2d_15">
    <path clip-path="url(#p1211f44627)" d="M 265.988111 291.919091 
L 265.988111 172.319866 
" style="fill:none;stroke:#545454;stroke-linecap:round;stroke-width:2.5;"/>
   </g>
   <g id="line2d_16">
    <path clip-path="url(#p1211f44627)" d="M 265.988111 248.14329 
L 265.988111 205.385435 
" style="fill:none;stroke:#545454;stroke-linecap:round;stroke-width:7.5;"/>
   </g>
   <g id="line2d_17">
    <path clip-path="url(#p1211f44627)" d="M 300.215879 291.919091 
L 300.215879 246.510018 
" style="fill:none;stroke:#545454;stroke-linecap:round;stroke-width:2.5;"/>
   </g>
   <g id="line2d_18">
    <path clip-path="url(#p1211f44627)" d="M 300.215879 291.919091 
L 300.215879 273.737416 
" style="fill:none;stroke:#545454;stroke-linecap:round;stroke-width:7.5;"/>
   </g>
   <g id="line2d_19">
    <path clip-path="url(#p1211f44627)" d="M 323.034391 291.919091 
L 323.034391 240.183783 
" style="fill:none;stroke:#545454;stroke-linecap:round;stroke-width:2.5;"/>
   </g>
   <g id="line2d_20">
    <path clip-path="url(#p1211f44627)" d="M 323.034391 272.159847 
L 323.034391 252.058071 
" style="fill:none;stroke:#545454;stroke-linecap:round;stroke-width:7.5;"/>
   </g>
   <g id="patch_5">
    <path d="M 54.916875 304.3 
L 340.148275 304.3 
" style="fill:none;stroke:#262626;stroke-linecap:square;stroke-linejoin:miter;stroke-width:1.875;"/>
   </g>
   <g id="PathCollection_1">
    <defs>
     <path d="M 0 2.5 
C 0.663008 2.5 1.29895 2.236584 1.767767 1.767767 
C 2.236584 1.29895 2.5 0.663008 2.5 0 
C 2.5 -0.663008 2.236584 -1.29895 1.767767 -1.767767 
C 1.29895 -2.236584 0.663008 -2.5 0 -2.5 
C -0.663008 -2.5 -1.29895 -2.236584 -1.767767 -1.767767 
C -2.236584 -1.29895 -2.5 -0.663008 -2.5 0 
C -2.5 0.663008 -2.236584 1.29895 -1.767767 1.767767 
C -1.29895 2.236584 -0.663008 2.5 0 2.5 
z
" id="m791536fd9b" style="stroke:#545454;stroke-width:1.5;"/>
    </defs>
    <g clip-path="url(#p1211f44627)">
     <use style="fill:#ffffff;stroke:#545454;stroke-width:1.5;" x="72.030759" xlink:href="#m791536fd9b" y="291.919091"/>
    </g>
   </g>
   <g id="PathCollection_2">
    <g clip-path="url(#p1211f44627)">
     <use style="fill:#ffffff;stroke:#545454;stroke-width:1.5;" x="94.849271" xlink:href="#m791536fd9b" y="194.347399"/>
    </g>
   </g>
   <g id="PathCollection_3">
    <g clip-path="url(#p1211f44627)">
     <use style="fill:#ffffff;stroke:#545454;stroke-width:1.5;" x="129.077039" xlink:href="#m791536fd9b" y="291.919091"/>
    </g>
   </g>
   <g id="PathCollection_4">
    <g clip-path="url(#p1211f44627)">
     <use style="fill:#ffffff;stroke:#545454;stroke-width:1.5;" x="151.895551" xlink:href="#m791536fd9b" y="231.059242"/>
    </g>
   </g>
   <g id="PathCollection_5">
    <g clip-path="url(#p1211f44627)">
     <use style="fill:#ffffff;stroke:#545454;stroke-width:1.5;" x="186.123319" xlink:href="#m791536fd9b" y="291.919091"/>
    </g>
   </g>
   <g id="PathCollection_6">
    <g clip-path="url(#p1211f44627)">
     <use style="fill:#ffffff;stroke:#545454;stroke-width:1.5;" x="208.941831" xlink:href="#m791536fd9b" y="198.2462"/>
    </g>
   </g>
   <g id="PathCollection_7">
    <g clip-path="url(#p1211f44627)">
     <use style="fill:#ffffff;stroke:#545454;stroke-width:1.5;" x="243.169599" xlink:href="#m791536fd9b" y="291.919091"/>
    </g>
   </g>
   <g id="PathCollection_8">
    <g clip-path="url(#p1211f44627)">
     <use style="fill:#ffffff;stroke:#545454;stroke-width:1.5;" x="265.988111" xlink:href="#m791536fd9b" y="232.458924"/>
    </g>
   </g>
   <g id="PathCollection_9">
    <g clip-path="url(#p1211f44627)">
     <use style="fill:#ffffff;stroke:#545454;stroke-width:1.5;" x="300.215879" xlink:href="#m791536fd9b" y="291.919091"/>
    </g>
   </g>
   <g id="PathCollection_10">
    <g clip-path="url(#p1211f44627)">
     <use style="fill:#ffffff;stroke:#545454;stroke-width:1.5;" x="323.034391" xlink:href="#m791536fd9b" y="264.305567"/>
    </g>
   </g>
  </g>
  <g id="text_13">
   <!-- WHE -->
   <g style="fill:#262626;" transform="translate(197.059188 16.412625)scale(0.216 -0.216)">
    <defs>
     <path d="M 3.328125 72.90625 
L 13.28125 72.90625 
L 28.609375 11.28125 
L 43.890625 72.90625 
L 54.984375 72.90625 
L 70.3125 11.28125 
L 85.59375 72.90625 
L 95.609375 72.90625 
L 77.296875 0 
L 64.890625 0 
L 49.515625 63.28125 
L 33.984375 0 
L 21.578125 0 
z
" id="DejaVuSans-87"/>
     <path d="M 9.8125 72.90625 
L 55.90625 72.90625 
L 55.90625 64.59375 
L 19.671875 64.59375 
L 19.671875 43.015625 
L 54.390625 43.015625 
L 54.390625 34.71875 
L 19.671875 34.71875 
L 19.671875 8.296875 
L 56.78125 8.296875 
L 56.78125 0 
L 9.8125 0 
z
" id="DejaVuSans-69"/>
    </defs>
    <use xlink:href="#DejaVuSans-87"/>
    <use x="98.876953" xlink:href="#DejaVuSans-72"/>
    <use x="174.072266" xlink:href="#DejaVuSans-69"/>
   </g>
  </g>
  <g id="legend_1">
   <g id="patch_6">
    <path d="M 335.050984 244.153594 
L 368.050984 244.153594 
L 368.050984 232.603594 
L 335.050984 232.603594 
z
" style="fill:#597dbf;stroke:#545454;stroke-linejoin:miter;stroke-width:1.25;"/>
   </g>
   <g id="text_14">
    <!-- actual -->
    <g style="fill:#262626;" transform="translate(381.250984 244.153594)scale(0.165 -0.165)">
     <defs>
      <path d="M 48.78125 52.59375 
L 48.78125 44.1875 
Q 44.96875 46.296875 41.140625 47.34375 
Q 37.3125 48.390625 33.40625 48.390625 
Q 24.65625 48.390625 19.8125 42.84375 
Q 14.984375 37.3125 14.984375 27.296875 
Q 14.984375 17.28125 19.8125 11.734375 
Q 24.65625 6.203125 33.40625 6.203125 
Q 37.3125 6.203125 41.140625 7.25 
Q 44.96875 8.296875 48.78125 10.40625 
L 48.78125 2.09375 
Q 45.015625 0.34375 40.984375 -0.53125 
Q 36.96875 -1.421875 32.421875 -1.421875 
Q 20.0625 -1.421875 12.78125 6.34375 
Q 5.515625 14.109375 5.515625 27.296875 
Q 5.515625 40.671875 12.859375 48.328125 
Q 20.21875 56 33.015625 56 
Q 37.15625 56 41.109375 55.140625 
Q 45.0625 54.296875 48.78125 52.59375 
z
" id="DejaVuSans-99"/>
      <path d="M 8.5 21.578125 
L 8.5 54.6875 
L 17.484375 54.6875 
L 17.484375 21.921875 
Q 17.484375 14.15625 20.5 10.265625 
Q 23.53125 6.390625 29.59375 6.390625 
Q 36.859375 6.390625 41.078125 11.03125 
Q 45.3125 15.671875 45.3125 23.6875 
L 45.3125 54.6875 
L 54.296875 54.6875 
L 54.296875 0 
L 45.3125 0 
L 45.3125 8.40625 
Q 42.046875 3.421875 37.71875 1 
Q 33.40625 -1.421875 27.6875 -1.421875 
Q 18.265625 -1.421875 13.375 4.4375 
Q 8.5 10.296875 8.5 21.578125 
z
M 31.109375 56 
z
" id="DejaVuSans-117"/>
     </defs>
     <use xlink:href="#DejaVuSans-97"/>
     <use x="61.279297" xlink:href="#DejaVuSans-99"/>
     <use x="116.259766" xlink:href="#DejaVuSans-116"/>
     <use x="155.46875" xlink:href="#DejaVuSans-117"/>
     <use x="218.847656" xlink:href="#DejaVuSans-97"/>
     <use x="280.126953" xlink:href="#DejaVuSans-108"/>
    </g>
   </g>
   <g id="patch_7">
    <path d="M 335.050984 268.3725 
L 368.050984 268.3725 
L 368.050984 256.8225 
L 335.050984 256.8225 
z
" style="fill:#d98b5f;stroke:#545454;stroke-linejoin:miter;stroke-width:1.25;"/>
   </g>
   <g id="text_15">
    <!-- cluster -->
    <g style="fill:#262626;" transform="translate(381.250984 268.3725)scale(0.165 -0.165)">
     <defs>
      <path d="M 44.28125 53.078125 
L 44.28125 44.578125 
Q 40.484375 46.53125 36.375 47.5 
Q 32.28125 48.484375 27.875 48.484375 
Q 21.1875 48.484375 17.84375 46.4375 
Q 14.5 44.390625 14.5 40.28125 
Q 14.5 37.15625 16.890625 35.375 
Q 19.28125 33.59375 26.515625 31.984375 
L 29.59375 31.296875 
Q 39.15625 29.25 43.1875 25.515625 
Q 47.21875 21.78125 47.21875 15.09375 
Q 47.21875 7.46875 41.1875 3.015625 
Q 35.15625 -1.421875 24.609375 -1.421875 
Q 20.21875 -1.421875 15.453125 -0.5625 
Q 10.6875 0.296875 5.421875 2 
L 5.421875 11.28125 
Q 10.40625 8.6875 15.234375 7.390625 
Q 20.0625 6.109375 24.8125 6.109375 
Q 31.15625 6.109375 34.5625 8.28125 
Q 37.984375 10.453125 37.984375 14.40625 
Q 37.984375 18.0625 35.515625 20.015625 
Q 33.0625 21.96875 24.703125 23.78125 
L 21.578125 24.515625 
Q 13.234375 26.265625 9.515625 29.90625 
Q 5.8125 33.546875 5.8125 39.890625 
Q 5.8125 47.609375 11.28125 51.796875 
Q 16.75 56 26.8125 56 
Q 31.78125 56 36.171875 55.265625 
Q 40.578125 54.546875 44.28125 53.078125 
z
" id="DejaVuSans-115"/>
     </defs>
     <use xlink:href="#DejaVuSans-99"/>
     <use x="54.980469" xlink:href="#DejaVuSans-108"/>
     <use x="82.763672" xlink:href="#DejaVuSans-117"/>
     <use x="146.142578" xlink:href="#DejaVuSans-115"/>
     <use x="198.242188" xlink:href="#DejaVuSans-116"/>
     <use x="237.451172" xlink:href="#DejaVuSans-101"/>
     <use x="298.974609" xlink:href="#DejaVuSans-114"/>
    </g>
   </g>
  </g>
 </g>
 <defs>
  <clipPath id="p1211f44627">
   <rect height="272.38" width="285.2314" x="54.916875" y="31.92"/>
  </clipPath>
 </defs>
</svg>
