<?xml version="1.0" encoding="utf-8" standalone="no"?>
<!DOCTYPE svg PUBLIC "-//W3C//DTD SVG 1.1//EN"
  "http://www.w3.org/Graphics/SVG/1.1/DTD/svg11.dtd">
<!-- Created with matplotlib (https://matplotlib.org/) -->
<svg height="503.420156pt" version="1.1" viewBox="0 0 447.031266 503.420156" width="447.031266pt" xmlns="http://www.w3.org/2000/svg" xmlns:xlink="http://www.w3.org/1999/xlink">
 <metadata>
  <rdf:RDF xmlns:cc="http://creativecommons.org/ns#" xmlns:dc="http://purl.org/dc/elements/1.1/" xmlns:rdf="http://www.w3.org/1999/02/22-rdf-syntax-ns#">
   <cc:Work>
    <dc:type rdf:resource="http://purl.org/dc/dcmitype/StillImage"/>
    <dc:date>2021-01-22T11:01:10.473033</dc:date>
    <dc:format>image/svg+xml</dc:format>
    <dc:creator>
     <cc:Agent>
      <dc:title>Matplotlib v3.3.2, https://matplotlib.org/</dc:title>
     </cc:Agent>
    </dc:creator>
   </cc:Work>
  </rdf:RDF>
 </metadata>
 <defs>
  <style type="text/css">*{stroke-linecap:butt;stroke-linejoin:round;}</style>
 </defs>
 <g id="figure_1">
  <g id="patch_1">
   <path d="M 0 503.420156 
L 447.031266 503.420156 
L 447.031266 0 
L 0 0 
z
" style="fill:#ffffff;"/>
  </g>
  <g id="axes_1">
   <g id="patch_2">
    <path d="M 70.658906 304.3 
L 334.965666 304.3 
L 334.965666 31.92 
L 70.658906 31.92 
z
" style="fill:#ffffff;"/>
   </g>
   <g id="matplotlib.axis_1">
    <g id="xtick_1">
     <g id="text_1">
      <!-- Irrigation High -->
      <g style="fill:#262626;" transform="translate(101.642551 434.888437)rotate(-90)scale(0.165 -0.165)">
       <defs>
        <path d="M 9.8125 72.90625 
L 19.671875 72.90625 
L 19.671875 0 
L 9.8125 0 
z
" id="DejaVuSans-73"/>
        <path d="M 41.109375 46.296875 
Q 39.59375 47.171875 37.8125 47.578125 
Q 36.03125 48 33.890625 48 
Q 26.265625 48 22.1875 43.046875 
Q 18.109375 38.09375 18.109375 28.8125 
L 18.109375 0 
L 9.078125 0 
L 9.078125 54.6875 
L 18.109375 54.6875 
L 18.109375 46.1875 
Q 20.953125 51.171875 25.484375 53.578125 
Q 30.03125 56 36.53125 56 
Q 37.453125 56 38.578125 55.875 
Q 39.703125 55.765625 41.0625 55.515625 
z
" id="DejaVuSans-114"/>
        <path d="M 9.421875 54.6875 
L 18.40625 54.6875 
L 18.40625 0 
L 9.421875 0 
z
M 9.421875 75.984375 
L 18.40625 75.984375 
L 18.40625 64.59375 
L 9.421875 64.59375 
z
" id="DejaVuSans-105"/>
        <path d="M 45.40625 27.984375 
Q 45.40625 37.75 41.375 43.109375 
Q 37.359375 48.484375 30.078125 48.484375 
Q 22.859375 48.484375 18.828125 43.109375 
Q 14.796875 37.75 14.796875 27.984375 
Q 14.796875 18.265625 18.828125 12.890625 
Q 22.859375 7.515625 30.078125 7.515625 
Q 37.359375 7.515625 41.375 12.890625 
Q 45.40625 18.265625 45.40625 27.984375 
z
M 54.390625 6.78125 
Q 54.390625 -7.171875 48.1875 -13.984375 
Q 42 -20.796875 29.203125 -20.796875 
Q 24.46875 -20.796875 20.265625 -20.09375 
Q 16.0625 -19.390625 12.109375 -17.921875 
L 12.109375 -9.1875 
Q 16.0625 -11.328125 19.921875 -12.34375 
Q 23.78125 -13.375 27.78125 -13.375 
Q 36.625 -13.375 41.015625 -8.765625 
Q 45.40625 -4.15625 45.40625 5.171875 
L 45.40625 9.625 
Q 42.625 4.78125 38.28125 2.390625 
Q 33.9375 0 27.875 0 
Q 17.828125 0 11.671875 7.65625 
Q 5.515625 15.328125 5.515625 27.984375 
Q 5.515625 40.671875 11.671875 48.328125 
Q 17.828125 56 27.875 56 
Q 33.9375 56 38.28125 53.609375 
Q 42.625 51.21875 45.40625 46.390625 
L 45.40625 54.6875 
L 54.390625 54.6875 
z
" id="DejaVuSans-103"/>
        <path d="M 34.28125 27.484375 
Q 23.390625 27.484375 19.1875 25 
Q 14.984375 22.515625 14.984375 16.5 
Q 14.984375 11.71875 18.140625 8.90625 
Q 21.296875 6.109375 26.703125 6.109375 
Q 34.1875 6.109375 38.703125 11.40625 
Q 43.21875 16.703125 43.21875 25.484375 
L 43.21875 27.484375 
z
M 52.203125 31.203125 
L 52.203125 0 
L 43.21875 0 
L 43.21875 8.296875 
Q 40.140625 3.328125 35.546875 0.953125 
Q 30.953125 -1.421875 24.3125 -1.421875 
Q 15.921875 -1.421875 10.953125 3.296875 
Q 6 8.015625 6 15.921875 
Q 6 25.140625 12.171875 29.828125 
Q 18.359375 34.515625 30.609375 34.515625 
L 43.21875 34.515625 
L 43.21875 35.40625 
Q 43.21875 41.609375 39.140625 45 
Q 35.0625 48.390625 27.6875 48.390625 
Q 23 48.390625 18.546875 47.265625 
Q 14.109375 46.140625 10.015625 43.890625 
L 10.015625 52.203125 
Q 14.9375 54.109375 19.578125 55.046875 
Q 24.21875 56 28.609375 56 
Q 40.484375 56 46.34375 49.84375 
Q 52.203125 43.703125 52.203125 31.203125 
z
" id="DejaVuSans-97"/>
        <path d="M 18.3125 70.21875 
L 18.3125 54.6875 
L 36.8125 54.6875 
L 36.8125 47.703125 
L 18.3125 47.703125 
L 18.3125 18.015625 
Q 18.3125 11.328125 20.140625 9.421875 
Q 21.96875 7.515625 27.59375 7.515625 
L 36.8125 7.515625 
L 36.8125 0 
L 27.59375 0 
Q 17.1875 0 13.234375 3.875 
Q 9.28125 7.765625 9.28125 18.015625 
L 9.28125 47.703125 
L 2.6875 47.703125 
L 2.6875 54.6875 
L 9.28125 54.6875 
L 9.28125 70.21875 
z
" id="DejaVuSans-116"/>
        <path d="M 30.609375 48.390625 
Q 23.390625 48.390625 19.1875 42.75 
Q 14.984375 37.109375 14.984375 27.296875 
Q 14.984375 17.484375 19.15625 11.84375 
Q 23.34375 6.203125 30.609375 6.203125 
Q 37.796875 6.203125 41.984375 11.859375 
Q 46.1875 17.53125 46.1875 27.296875 
Q 46.1875 37.015625 41.984375 42.703125 
Q 37.796875 48.390625 30.609375 48.390625 
z
M 30.609375 56 
Q 42.328125 56 49.015625 48.375 
Q 55.71875 40.765625 55.71875 27.296875 
Q 55.71875 13.875 49.015625 6.21875 
Q 42.328125 -1.421875 30.609375 -1.421875 
Q 18.84375 -1.421875 12.171875 6.21875 
Q 5.515625 13.875 5.515625 27.296875 
Q 5.515625 40.765625 12.171875 48.375 
Q 18.84375 56 30.609375 56 
z
" id="DejaVuSans-111"/>
        <path d="M 54.890625 33.015625 
L 54.890625 0 
L 45.90625 0 
L 45.90625 32.71875 
Q 45.90625 40.484375 42.875 44.328125 
Q 39.84375 48.1875 33.796875 48.1875 
Q 26.515625 48.1875 22.3125 43.546875 
Q 18.109375 38.921875 18.109375 30.90625 
L 18.109375 0 
L 9.078125 0 
L 9.078125 54.6875 
L 18.109375 54.6875 
L 18.109375 46.1875 
Q 21.34375 51.125 25.703125 53.5625 
Q 30.078125 56 35.796875 56 
Q 45.21875 56 50.046875 50.171875 
Q 54.890625 44.34375 54.890625 33.015625 
z
" id="DejaVuSans-110"/>
        <path id="DejaVuSans-32"/>
        <path d="M 9.8125 72.90625 
L 19.671875 72.90625 
L 19.671875 43.015625 
L 55.515625 43.015625 
L 55.515625 72.90625 
L 65.375 72.90625 
L 65.375 0 
L 55.515625 0 
L 55.515625 34.71875 
L 19.671875 34.71875 
L 19.671875 0 
L 9.8125 0 
z
" id="DejaVuSans-72"/>
        <path d="M 54.890625 33.015625 
L 54.890625 0 
L 45.90625 0 
L 45.90625 32.71875 
Q 45.90625 40.484375 42.875 44.328125 
Q 39.84375 48.1875 33.796875 48.1875 
Q 26.515625 48.1875 22.3125 43.546875 
Q 18.109375 38.921875 18.109375 30.90625 
L 18.109375 0 
L 9.078125 0 
L 9.078125 75.984375 
L 18.109375 75.984375 
L 18.109375 46.1875 
Q 21.34375 51.125 25.703125 53.5625 
Q 30.078125 56 35.796875 56 
Q 45.21875 56 50.046875 50.171875 
Q 54.890625 44.34375 54.890625 33.015625 
z
" id="DejaVuSans-104"/>
       </defs>
       <use xlink:href="#DejaVuSans-73"/>
       <use x="29.492188" xlink:href="#DejaVuSans-114"/>
       <use x="68.855469" xlink:href="#DejaVuSans-114"/>
       <use x="109.96875" xlink:href="#DejaVuSans-105"/>
       <use x="137.751953" xlink:href="#DejaVuSans-103"/>
       <use x="201.228516" xlink:href="#DejaVuSans-97"/>
       <use x="262.507812" xlink:href="#DejaVuSans-116"/>
       <use x="301.716797" xlink:href="#DejaVuSans-105"/>
       <use x="329.5" xlink:href="#DejaVuSans-111"/>
       <use x="390.681641" xlink:href="#DejaVuSans-110"/>
       <use x="454.060547" xlink:href="#DejaVuSans-32"/>
       <use x="485.847656" xlink:href="#DejaVuSans-72"/>
       <use x="561.042969" xlink:href="#DejaVuSans-105"/>
       <use x="588.826172" xlink:href="#DejaVuSans-103"/>
       <use x="652.302734" xlink:href="#DejaVuSans-104"/>
      </g>
     </g>
    </g>
    <g id="xtick_2">
     <g id="text_2">
      <!-- Irrigation Intermediate -->
      <g style="fill:#262626;" transform="translate(154.503903 503.420156)rotate(-90)scale(0.165 -0.165)">
       <defs>
        <path d="M 56.203125 29.59375 
L 56.203125 25.203125 
L 14.890625 25.203125 
Q 15.484375 15.921875 20.484375 11.0625 
Q 25.484375 6.203125 34.421875 6.203125 
Q 39.59375 6.203125 44.453125 7.46875 
Q 49.3125 8.734375 54.109375 11.28125 
L 54.109375 2.78125 
Q 49.265625 0.734375 44.1875 -0.34375 
Q 39.109375 -1.421875 33.890625 -1.421875 
Q 20.796875 -1.421875 13.15625 6.1875 
Q 5.515625 13.8125 5.515625 26.8125 
Q 5.515625 40.234375 12.765625 48.109375 
Q 20.015625 56 32.328125 56 
Q 43.359375 56 49.78125 48.890625 
Q 56.203125 41.796875 56.203125 29.59375 
z
M 47.21875 32.234375 
Q 47.125 39.59375 43.09375 43.984375 
Q 39.0625 48.390625 32.421875 48.390625 
Q 24.90625 48.390625 20.390625 44.140625 
Q 15.875 39.890625 15.1875 32.171875 
z
" id="DejaVuSans-101"/>
        <path d="M 52 44.1875 
Q 55.375 50.25 60.0625 53.125 
Q 64.75 56 71.09375 56 
Q 79.640625 56 84.28125 50.015625 
Q 88.921875 44.046875 88.921875 33.015625 
L 88.921875 0 
L 79.890625 0 
L 79.890625 32.71875 
Q 79.890625 40.578125 77.09375 44.375 
Q 74.3125 48.1875 68.609375 48.1875 
Q 61.625 48.1875 57.5625 43.546875 
Q 53.515625 38.921875 53.515625 30.90625 
L 53.515625 0 
L 44.484375 0 
L 44.484375 32.71875 
Q 44.484375 40.625 41.703125 44.40625 
Q 38.921875 48.1875 33.109375 48.1875 
Q 26.21875 48.1875 22.15625 43.53125 
Q 18.109375 38.875 18.109375 30.90625 
L 18.109375 0 
L 9.078125 0 
L 9.078125 54.6875 
L 18.109375 54.6875 
L 18.109375 46.1875 
Q 21.1875 51.21875 25.484375 53.609375 
Q 29.78125 56 35.6875 56 
Q 41.65625 56 45.828125 52.96875 
Q 50 49.953125 52 44.1875 
z
" id="DejaVuSans-109"/>
        <path d="M 45.40625 46.390625 
L 45.40625 75.984375 
L 54.390625 75.984375 
L 54.390625 0 
L 45.40625 0 
L 45.40625 8.203125 
Q 42.578125 3.328125 38.25 0.953125 
Q 33.9375 -1.421875 27.875 -1.421875 
Q 17.96875 -1.421875 11.734375 6.484375 
Q 5.515625 14.40625 5.515625 27.296875 
Q 5.515625 40.1875 11.734375 48.09375 
Q 17.96875 56 27.875 56 
Q 33.9375 56 38.25 53.625 
Q 42.578125 51.265625 45.40625 46.390625 
z
M 14.796875 27.296875 
Q 14.796875 17.390625 18.875 11.75 
Q 22.953125 6.109375 30.078125 6.109375 
Q 37.203125 6.109375 41.296875 11.75 
Q 45.40625 17.390625 45.40625 27.296875 
Q 45.40625 37.203125 41.296875 42.84375 
Q 37.203125 48.484375 30.078125 48.484375 
Q 22.953125 48.484375 18.875 42.84375 
Q 14.796875 37.203125 14.796875 27.296875 
z
" id="DejaVuSans-100"/>
       </defs>
       <use xlink:href="#DejaVuSans-73"/>
       <use x="29.492188" xlink:href="#DejaVuSans-114"/>
       <use x="68.855469" xlink:href="#DejaVuSans-114"/>
       <use x="109.96875" xlink:href="#DejaVuSans-105"/>
       <use x="137.751953" xlink:href="#DejaVuSans-103"/>
       <use x="201.228516" xlink:href="#DejaVuSans-97"/>
       <use x="262.507812" xlink:href="#DejaVuSans-116"/>
       <use x="301.716797" xlink:href="#DejaVuSans-105"/>
       <use x="329.5" xlink:href="#DejaVuSans-111"/>
       <use x="390.681641" xlink:href="#DejaVuSans-110"/>
       <use x="454.060547" xlink:href="#DejaVuSans-32"/>
       <use x="485.847656" xlink:href="#DejaVuSans-73"/>
       <use x="515.339844" xlink:href="#DejaVuSans-110"/>
       <use x="578.71875" xlink:href="#DejaVuSans-116"/>
       <use x="617.927734" xlink:href="#DejaVuSans-101"/>
       <use x="679.451172" xlink:href="#DejaVuSans-114"/>
       <use x="718.814453" xlink:href="#DejaVuSans-109"/>
       <use x="816.226562" xlink:href="#DejaVuSans-101"/>
       <use x="877.75" xlink:href="#DejaVuSans-100"/>
       <use x="941.226562" xlink:href="#DejaVuSans-105"/>
       <use x="969.009766" xlink:href="#DejaVuSans-97"/>
       <use x="1030.289062" xlink:href="#DejaVuSans-116"/>
       <use x="1069.498047" xlink:href="#DejaVuSans-101"/>
      </g>
     </g>
    </g>
    <g id="xtick_3">
     <g id="text_3">
      <!-- Rain-fed High -->
      <g style="fill:#262626;" transform="translate(207.365255 428.602969)rotate(-90)scale(0.165 -0.165)">
       <defs>
        <path d="M 44.390625 34.1875 
Q 47.5625 33.109375 50.5625 29.59375 
Q 53.5625 26.078125 56.59375 19.921875 
L 66.609375 0 
L 56 0 
L 46.6875 18.703125 
Q 43.0625 26.03125 39.671875 28.421875 
Q 36.28125 30.8125 30.421875 30.8125 
L 19.671875 30.8125 
L 19.671875 0 
L 9.8125 0 
L 9.8125 72.90625 
L 32.078125 72.90625 
Q 44.578125 72.90625 50.734375 67.671875 
Q 56.890625 62.453125 56.890625 51.90625 
Q 56.890625 45.015625 53.6875 40.46875 
Q 50.484375 35.9375 44.390625 34.1875 
z
M 19.671875 64.796875 
L 19.671875 38.921875 
L 32.078125 38.921875 
Q 39.203125 38.921875 42.84375 42.21875 
Q 46.484375 45.515625 46.484375 51.90625 
Q 46.484375 58.296875 42.84375 61.546875 
Q 39.203125 64.796875 32.078125 64.796875 
z
" id="DejaVuSans-82"/>
        <path d="M 4.890625 31.390625 
L 31.203125 31.390625 
L 31.203125 23.390625 
L 4.890625 23.390625 
z
" id="DejaVuSans-45"/>
        <path d="M 37.109375 75.984375 
L 37.109375 68.5 
L 28.515625 68.5 
Q 23.6875 68.5 21.796875 66.546875 
Q 19.921875 64.59375 19.921875 59.515625 
L 19.921875 54.6875 
L 34.71875 54.6875 
L 34.71875 47.703125 
L 19.921875 47.703125 
L 19.921875 0 
L 10.890625 0 
L 10.890625 47.703125 
L 2.296875 47.703125 
L 2.296875 54.6875 
L 10.890625 54.6875 
L 10.890625 58.5 
Q 10.890625 67.625 15.140625 71.796875 
Q 19.390625 75.984375 28.609375 75.984375 
z
" id="DejaVuSans-102"/>
       </defs>
       <use xlink:href="#DejaVuSans-82"/>
       <use x="67.232422" xlink:href="#DejaVuSans-97"/>
       <use x="128.511719" xlink:href="#DejaVuSans-105"/>
       <use x="156.294922" xlink:href="#DejaVuSans-110"/>
       <use x="219.673828" xlink:href="#DejaVuSans-45"/>
       <use x="255.757812" xlink:href="#DejaVuSans-102"/>
       <use x="290.962891" xlink:href="#DejaVuSans-101"/>
       <use x="352.486328" xlink:href="#DejaVuSans-100"/>
       <use x="415.962891" xlink:href="#DejaVuSans-32"/>
       <use x="447.75" xlink:href="#DejaVuSans-72"/>
       <use x="522.945312" xlink:href="#DejaVuSans-105"/>
       <use x="550.728516" xlink:href="#DejaVuSans-103"/>
       <use x="614.205078" xlink:href="#DejaVuSans-104"/>
      </g>
     </g>
    </g>
    <g id="xtick_4">
     <g id="text_4">
      <!-- Rain-fed Intermediate -->
      <g style="fill:#262626;" transform="translate(260.226607 497.134687)rotate(-90)scale(0.165 -0.165)">
       <use xlink:href="#DejaVuSans-82"/>
       <use x="67.232422" xlink:href="#DejaVuSans-97"/>
       <use x="128.511719" xlink:href="#DejaVuSans-105"/>
       <use x="156.294922" xlink:href="#DejaVuSans-110"/>
       <use x="219.673828" xlink:href="#DejaVuSans-45"/>
       <use x="255.757812" xlink:href="#DejaVuSans-102"/>
       <use x="290.962891" xlink:href="#DejaVuSans-101"/>
       <use x="352.486328" xlink:href="#DejaVuSans-100"/>
       <use x="415.962891" xlink:href="#DejaVuSans-32"/>
       <use x="447.75" xlink:href="#DejaVuSans-73"/>
       <use x="477.242188" xlink:href="#DejaVuSans-110"/>
       <use x="540.621094" xlink:href="#DejaVuSans-116"/>
       <use x="579.830078" xlink:href="#DejaVuSans-101"/>
       <use x="641.353516" xlink:href="#DejaVuSans-114"/>
       <use x="680.716797" xlink:href="#DejaVuSans-109"/>
       <use x="778.128906" xlink:href="#DejaVuSans-101"/>
       <use x="839.652344" xlink:href="#DejaVuSans-100"/>
       <use x="903.128906" xlink:href="#DejaVuSans-105"/>
       <use x="930.912109" xlink:href="#DejaVuSans-97"/>
       <use x="992.191406" xlink:href="#DejaVuSans-116"/>
       <use x="1031.400391" xlink:href="#DejaVuSans-101"/>
      </g>
     </g>
    </g>
    <g id="xtick_5">
     <g id="text_5">
      <!-- Rain-fed Low -->
      <g style="fill:#262626;" transform="translate(313.087959 423.173437)rotate(-90)scale(0.165 -0.165)">
       <defs>
        <path d="M 9.8125 72.90625 
L 19.671875 72.90625 
L 19.671875 8.296875 
L 55.171875 8.296875 
L 55.171875 0 
L 9.8125 0 
z
" id="DejaVuSans-76"/>
        <path d="M 4.203125 54.6875 
L 13.1875 54.6875 
L 24.421875 12.015625 
L 35.59375 54.6875 
L 46.1875 54.6875 
L 57.421875 12.015625 
L 68.609375 54.6875 
L 77.59375 54.6875 
L 63.28125 0 
L 52.6875 0 
L 40.921875 44.828125 
L 29.109375 0 
L 18.5 0 
z
" id="DejaVuSans-119"/>
       </defs>
       <use xlink:href="#DejaVuSans-82"/>
       <use x="67.232422" xlink:href="#DejaVuSans-97"/>
       <use x="128.511719" xlink:href="#DejaVuSans-105"/>
       <use x="156.294922" xlink:href="#DejaVuSans-110"/>
       <use x="219.673828" xlink:href="#DejaVuSans-45"/>
       <use x="255.757812" xlink:href="#DejaVuSans-102"/>
       <use x="290.962891" xlink:href="#DejaVuSans-101"/>
       <use x="352.486328" xlink:href="#DejaVuSans-100"/>
       <use x="415.962891" xlink:href="#DejaVuSans-32"/>
       <use x="447.75" xlink:href="#DejaVuSans-76"/>
       <use x="501.712891" xlink:href="#DejaVuSans-111"/>
       <use x="562.894531" xlink:href="#DejaVuSans-119"/>
      </g>
     </g>
    </g>
   </g>
   <g id="matplotlib.axis_2">
    <g id="ytick_1">
     <g id="text_6">
      <!-- 0.00 -->
      <g style="fill:#262626;" transform="translate(21.420625 298.187802)scale(0.165 -0.165)">
       <defs>
        <path d="M 31.78125 66.40625 
Q 24.171875 66.40625 20.328125 58.90625 
Q 16.5 51.421875 16.5 36.375 
Q 16.5 21.390625 20.328125 13.890625 
Q 24.171875 6.390625 31.78125 6.390625 
Q 39.453125 6.390625 43.28125 13.890625 
Q 47.125 21.390625 47.125 36.375 
Q 47.125 51.421875 43.28125 58.90625 
Q 39.453125 66.40625 31.78125 66.40625 
z
M 31.78125 74.21875 
Q 44.046875 74.21875 50.515625 64.515625 
Q 56.984375 54.828125 56.984375 36.375 
Q 56.984375 17.96875 50.515625 8.265625 
Q 44.046875 -1.421875 31.78125 -1.421875 
Q 19.53125 -1.421875 13.0625 8.265625 
Q 6.59375 17.96875 6.59375 36.375 
Q 6.59375 54.828125 13.0625 64.515625 
Q 19.53125 74.21875 31.78125 74.21875 
z
" id="DejaVuSans-48"/>
        <path d="M 10.6875 12.40625 
L 21 12.40625 
L 21 0 
L 10.6875 0 
z
" id="DejaVuSans-46"/>
       </defs>
       <use xlink:href="#DejaVuSans-48"/>
       <use x="63.623047" xlink:href="#DejaVuSans-46"/>
       <use x="95.410156" xlink:href="#DejaVuSans-48"/>
       <use x="159.033203" xlink:href="#DejaVuSans-48"/>
      </g>
     </g>
    </g>
    <g id="ytick_2">
     <g id="text_7">
      <!-- 0.25 -->
      <g style="fill:#262626;" transform="translate(21.420625 261.273942)scale(0.165 -0.165)">
       <defs>
        <path d="M 19.1875 8.296875 
L 53.609375 8.296875 
L 53.609375 0 
L 7.328125 0 
L 7.328125 8.296875 
Q 12.9375 14.109375 22.625 23.890625 
Q 32.328125 33.6875 34.8125 36.53125 
Q 39.546875 41.84375 41.421875 45.53125 
Q 43.3125 49.21875 43.3125 52.78125 
Q 43.3125 58.59375 39.234375 62.25 
Q 35.15625 65.921875 28.609375 65.921875 
Q 23.96875 65.921875 18.8125 64.3125 
Q 13.671875 62.703125 7.8125 59.421875 
L 7.8125 69.390625 
Q 13.765625 71.78125 18.9375 73 
Q 24.125 74.21875 28.421875 74.21875 
Q 39.75 74.21875 46.484375 68.546875 
Q 53.21875 62.890625 53.21875 53.421875 
Q 53.21875 48.921875 51.53125 44.890625 
Q 49.859375 40.875 45.40625 35.40625 
Q 44.1875 33.984375 37.640625 27.21875 
Q 31.109375 20.453125 19.1875 8.296875 
z
" id="DejaVuSans-50"/>
        <path d="M 10.796875 72.90625 
L 49.515625 72.90625 
L 49.515625 64.59375 
L 19.828125 64.59375 
L 19.828125 46.734375 
Q 21.96875 47.46875 24.109375 47.828125 
Q 26.265625 48.1875 28.421875 48.1875 
Q 40.625 48.1875 47.75 41.5 
Q 54.890625 34.8125 54.890625 23.390625 
Q 54.890625 11.625 47.5625 5.09375 
Q 40.234375 -1.421875 26.90625 -1.421875 
Q 22.3125 -1.421875 17.546875 -0.640625 
Q 12.796875 0.140625 7.71875 1.703125 
L 7.71875 11.625 
Q 12.109375 9.234375 16.796875 8.0625 
Q 21.484375 6.890625 26.703125 6.890625 
Q 35.15625 6.890625 40.078125 11.328125 
Q 45.015625 15.765625 45.015625 23.390625 
Q 45.015625 31 40.078125 35.4375 
Q 35.15625 39.890625 26.703125 39.890625 
Q 22.75 39.890625 18.8125 39.015625 
Q 14.890625 38.140625 10.796875 36.28125 
z
" id="DejaVuSans-53"/>
       </defs>
       <use xlink:href="#DejaVuSans-48"/>
       <use x="63.623047" xlink:href="#DejaVuSans-46"/>
       <use x="95.410156" xlink:href="#DejaVuSans-50"/>
       <use x="159.033203" xlink:href="#DejaVuSans-53"/>
      </g>
     </g>
    </g>
    <g id="ytick_3">
     <g id="text_8">
      <!-- 0.50 -->
      <g style="fill:#262626;" transform="translate(21.420625 224.360081)scale(0.165 -0.165)">
       <use xlink:href="#DejaVuSans-48"/>
       <use x="63.623047" xlink:href="#DejaVuSans-46"/>
       <use x="95.410156" xlink:href="#DejaVuSans-53"/>
       <use x="159.033203" xlink:href="#DejaVuSans-48"/>
      </g>
     </g>
    </g>
    <g id="ytick_4">
     <g id="text_9">
      <!-- 0.75 -->
      <g style="fill:#262626;" transform="translate(21.420625 187.446221)scale(0.165 -0.165)">
       <defs>
        <path d="M 8.203125 72.90625 
L 55.078125 72.90625 
L 55.078125 68.703125 
L 28.609375 0 
L 18.3125 0 
L 43.21875 64.59375 
L 8.203125 64.59375 
z
" id="DejaVuSans-55"/>
       </defs>
       <use xlink:href="#DejaVuSans-48"/>
       <use x="63.623047" xlink:href="#DejaVuSans-46"/>
       <use x="95.410156" xlink:href="#DejaVuSans-55"/>
       <use x="159.033203" xlink:href="#DejaVuSans-53"/>
      </g>
     </g>
    </g>
    <g id="ytick_5">
     <g id="text_10">
      <!-- 1.00 -->
      <g style="fill:#262626;" transform="translate(21.420625 150.532361)scale(0.165 -0.165)">
       <defs>
        <path d="M 12.40625 8.296875 
L 28.515625 8.296875 
L 28.515625 63.921875 
L 10.984375 60.40625 
L 10.984375 69.390625 
L 28.421875 72.90625 
L 38.28125 72.90625 
L 38.28125 8.296875 
L 54.390625 8.296875 
L 54.390625 0 
L 12.40625 0 
z
" id="DejaVuSans-49"/>
       </defs>
       <use xlink:href="#DejaVuSans-49"/>
       <use x="63.623047" xlink:href="#DejaVuSans-46"/>
       <use x="95.410156" xlink:href="#DejaVuSans-48"/>
       <use x="159.033203" xlink:href="#DejaVuSans-48"/>
      </g>
     </g>
    </g>
    <g id="ytick_6">
     <g id="text_11">
      <!-- 1.25 -->
      <g style="fill:#262626;" transform="translate(21.420625 113.6185)scale(0.165 -0.165)">
       <use xlink:href="#DejaVuSans-49"/>
       <use x="63.623047" xlink:href="#DejaVuSans-46"/>
       <use x="95.410156" xlink:href="#DejaVuSans-50"/>
       <use x="159.033203" xlink:href="#DejaVuSans-53"/>
      </g>
     </g>
    </g>
    <g id="ytick_7">
     <g id="text_12">
      <!-- 1.50 -->
      <g style="fill:#262626;" transform="translate(21.420625 76.70464)scale(0.165 -0.165)">
       <use xlink:href="#DejaVuSans-49"/>
       <use x="63.623047" xlink:href="#DejaVuSans-46"/>
       <use x="95.410156" xlink:href="#DejaVuSans-53"/>
       <use x="159.033203" xlink:href="#DejaVuSans-48"/>
      </g>
     </g>
    </g>
    <g id="ytick_8">
     <g id="text_13">
      <!-- 1.75 -->
      <g style="fill:#262626;" transform="translate(21.420625 39.79078)scale(0.165 -0.165)">
       <use xlink:href="#DejaVuSans-49"/>
       <use x="63.623047" xlink:href="#DejaVuSans-46"/>
       <use x="95.410156" xlink:href="#DejaVuSans-55"/>
       <use x="159.033203" xlink:href="#DejaVuSans-53"/>
      </g>
     </g>
    </g>
    <g id="text_14">
     <!-- Yield (t/ha) -->
     <g style="fill:#262626;" transform="translate(13.677187 217.195156)rotate(-90)scale(0.18 -0.18)">
      <defs>
       <path d="M -0.203125 72.90625 
L 10.40625 72.90625 
L 30.609375 42.921875 
L 50.6875 72.90625 
L 61.28125 72.90625 
L 35.5 34.71875 
L 35.5 0 
L 25.59375 0 
L 25.59375 34.71875 
z
" id="DejaVuSans-89"/>
       <path d="M 9.421875 75.984375 
L 18.40625 75.984375 
L 18.40625 0 
L 9.421875 0 
z
" id="DejaVuSans-108"/>
       <path d="M 31 75.875 
Q 24.46875 64.65625 21.28125 53.65625 
Q 18.109375 42.671875 18.109375 31.390625 
Q 18.109375 20.125 21.3125 9.0625 
Q 24.515625 -2 31 -13.1875 
L 23.1875 -13.1875 
Q 15.875 -1.703125 12.234375 9.375 
Q 8.59375 20.453125 8.59375 31.390625 
Q 8.59375 42.28125 12.203125 53.3125 
Q 15.828125 64.359375 23.1875 75.875 
z
" id="DejaVuSans-40"/>
       <path d="M 25.390625 72.90625 
L 33.6875 72.90625 
L 8.296875 -9.28125 
L 0 -9.28125 
z
" id="DejaVuSans-47"/>
       <path d="M 8.015625 75.875 
L 15.828125 75.875 
Q 23.140625 64.359375 26.78125 53.3125 
Q 30.421875 42.28125 30.421875 31.390625 
Q 30.421875 20.453125 26.78125 9.375 
Q 23.140625 -1.703125 15.828125 -13.1875 
L 8.015625 -13.1875 
Q 14.5 -2 17.703125 9.0625 
Q 20.90625 20.125 20.90625 31.390625 
Q 20.90625 42.671875 17.703125 53.65625 
Q 14.5 64.65625 8.015625 75.875 
z
" id="DejaVuSans-41"/>
      </defs>
      <use xlink:href="#DejaVuSans-89"/>
      <use x="57.458984" xlink:href="#DejaVuSans-105"/>
      <use x="85.242188" xlink:href="#DejaVuSans-101"/>
      <use x="146.765625" xlink:href="#DejaVuSans-108"/>
      <use x="174.548828" xlink:href="#DejaVuSans-100"/>
      <use x="238.025391" xlink:href="#DejaVuSans-32"/>
      <use x="269.8125" xlink:href="#DejaVuSans-40"/>
      <use x="308.826172" xlink:href="#DejaVuSans-116"/>
      <use x="348.035156" xlink:href="#DejaVuSans-47"/>
      <use x="381.726562" xlink:href="#DejaVuSans-104"/>
      <use x="445.105469" xlink:href="#DejaVuSans-97"/>
      <use x="506.384766" xlink:href="#DejaVuSans-41"/>
     </g>
    </g>
   </g>
   <g id="PolyCollection_1">
    <defs>
     <path d="M 97.089582 -211.501065 
L 75.945041 -211.501065 
L 76.820221 -214.002259 
L 79.0334 -216.503453 
L 81.649195 -219.004647 
L 83.830332 -221.50584 
L 85.224328 -224.007034 
L 85.918226 -226.508228 
L 86.176131 -229.009422 
L 86.232019 -231.510615 
L 86.223179 -234.011809 
L 86.208482 -236.513003 
L 86.204173 -239.014197 
L 86.209309 -241.51539 
L 86.218754 -244.016584 
L 86.228287 -246.517778 
L 86.235782 -249.018972 
L 86.240847 -251.520165 
L 86.244022 -254.021359 
L 86.246056 -256.522553 
L 86.24764 -259.023747 
L 86.24952 -261.52494 
L 86.252569 -264.026134 
L 86.25747 -266.527328 
L 86.264168 -269.028522 
L 86.271625 -271.529715 
L 86.278323 -274.030909 
L 86.283343 -276.532103 
L 86.2871 -279.033297 
L 86.290981 -281.534491 
L 86.29624 -284.035684 
L 86.303262 -286.536878 
L 86.3117 -289.038072 
L 86.321014 -291.539266 
L 86.330745 -294.040459 
L 86.34045 -296.541653 
L 86.349551 -299.042847 
L 86.357316 -301.544041 
L 86.363133 -304.045234 
L 86.366985 -306.546428 
L 86.369777 -309.047622 
L 86.373072 -311.548816 
L 86.37825 -314.050009 
L 86.385676 -316.551203 
L 86.394526 -319.052397 
L 86.403385 -321.553591 
L 86.41111 -324.054784 
L 86.417296 -326.555978 
L 86.422134 -329.057172 
L 86.425977 -331.558366 
L 86.429005 -334.059559 
L 86.431219 -336.560753 
L 86.432596 -339.061947 
L 86.433177 -341.563141 
L 86.43303 -344.064334 
L 86.432274 -346.565528 
L 86.431208 -349.066722 
L 86.430344 -351.567916 
L 86.43016 -354.069109 
L 86.430802 -356.570303 
L 86.432078 -359.071497 
L 86.433746 -361.572691 
L 86.435733 -364.073884 
L 86.43808 -366.575078 
L 86.440822 -369.076272 
L 86.443998 -371.577466 
L 86.447664 -374.078659 
L 86.451738 -376.579853 
L 86.45582 -379.081047 
L 86.459294 -381.582241 
L 86.461687 -384.083434 
L 86.462951 -386.584628 
L 86.463425 -389.085822 
L 86.46351 -391.587016 
L 86.463435 -394.08821 
L 86.46329 -396.589403 
L 86.463229 -399.090597 
L 86.463476 -401.591791 
L 86.464094 -404.092985 
L 86.464774 -406.594178 
L 86.464921 -409.095372 
L 86.464028 -411.596566 
L 86.462104 -414.09776 
L 86.459848 -416.598953 
L 86.458366 -419.100147 
L 86.458548 -421.601341 
L 86.460508 -424.102535 
L 86.463453 -426.603728 
L 86.466038 -429.104922 
L 86.466872 -431.606116 
L 86.464879 -434.10731 
L 86.459488 -436.608503 
L 86.450776 -439.109697 
L 86.439717 -441.610891 
L 86.428411 -444.112085 
L 86.420009 -446.613278 
L 86.417917 -449.114472 
L 86.424293 -451.615666 
L 86.438664 -454.11686 
L 86.457816 -456.618053 
L 86.477296 -459.119247 
L 86.557328 -459.119247 
L 86.557328 -459.119247 
L 86.576808 -456.618053 
L 86.59596 -454.11686 
L 86.61033 -451.615666 
L 86.616707 -449.114472 
L 86.614615 -446.613278 
L 86.606213 -444.112085 
L 86.594907 -441.610891 
L 86.583847 -439.109697 
L 86.575136 -436.608503 
L 86.569744 -434.10731 
L 86.567752 -431.606116 
L 86.568585 -429.104922 
L 86.571171 -426.603728 
L 86.574116 -424.102535 
L 86.576075 -421.601341 
L 86.576258 -419.100147 
L 86.574776 -416.598953 
L 86.57252 -414.09776 
L 86.570596 -411.596566 
L 86.569703 -409.095372 
L 86.569849 -406.594178 
L 86.57053 -404.092985 
L 86.571148 -401.591791 
L 86.571395 -399.090597 
L 86.571333 -396.589403 
L 86.571189 -394.08821 
L 86.571113 -391.587016 
L 86.571199 -389.085822 
L 86.571672 -386.584628 
L 86.572937 -384.083434 
L 86.575329 -381.582241 
L 86.578804 -379.081047 
L 86.582886 -376.579853 
L 86.586959 -374.078659 
L 86.590626 -371.577466 
L 86.593802 -369.076272 
L 86.596544 -366.575078 
L 86.598891 -364.073884 
L 86.600878 -361.572691 
L 86.602546 -359.071497 
L 86.603822 -356.570303 
L 86.604464 -354.069109 
L 86.60428 -351.567916 
L 86.603415 -349.066722 
L 86.60235 -346.565528 
L 86.601594 -344.064334 
L 86.601447 -341.563141 
L 86.602028 -339.061947 
L 86.603405 -336.560753 
L 86.605618 -334.059559 
L 86.608647 -331.558366 
L 86.612489 -329.057172 
L 86.617328 -326.555978 
L 86.623513 -324.054784 
L 86.631239 -321.553591 
L 86.640098 -319.052397 
L 86.648947 -316.551203 
L 86.656374 -314.050009 
L 86.661552 -311.548816 
L 86.664846 -309.047622 
L 86.667639 -306.546428 
L 86.671491 -304.045234 
L 86.677308 -301.544041 
L 86.685073 -299.042847 
L 86.694173 -296.541653 
L 86.703879 -294.040459 
L 86.71361 -291.539266 
L 86.722924 -289.038072 
L 86.731362 -286.536878 
L 86.738384 -284.035684 
L 86.743643 -281.534491 
L 86.747524 -279.033297 
L 86.751281 -276.532103 
L 86.756301 -274.030909 
L 86.762999 -271.529715 
L 86.770455 -269.028522 
L 86.777154 -266.527328 
L 86.782055 -264.026134 
L 86.785104 -261.52494 
L 86.786984 -259.023747 
L 86.788567 -256.522553 
L 86.790602 -254.021359 
L 86.793776 -251.520165 
L 86.798842 -249.018972 
L 86.806336 -246.517778 
L 86.81587 -244.016584 
L 86.825315 -241.51539 
L 86.83045 -239.014197 
L 86.826142 -236.513003 
L 86.811444 -234.011809 
L 86.802605 -231.510615 
L 86.858493 -229.009422 
L 87.116398 -226.508228 
L 87.810296 -224.007034 
L 89.204292 -221.50584 
L 91.385428 -219.004647 
L 94.001224 -216.503453 
L 96.214403 -214.002259 
L 97.089582 -211.501065 
z
" id="mced91583b1" style="stroke:#545454;stroke-width:2.5;"/>
    </defs>
    <g clip-path="url(#pa25a7fdaed)">
     <use style="fill:#597dbf;stroke:#545454;stroke-width:2.5;" x="0" xlink:href="#mced91583b1" y="503.420156"/>
    </g>
   </g>
   <g id="PolyCollection_2">
    <defs>
     <path d="M 108.524922 -211.502721 
L 106.798783 -211.502721 
L 106.789651 -213.61905 
L 106.781465 -215.735379 
L 106.774236 -217.851708 
L 106.767967 -219.968037 
L 106.762658 -222.084366 
L 106.758305 -224.200695 
L 106.754897 -226.317024 
L 106.752421 -228.433353 
L 106.75086 -230.549682 
L 106.75019 -232.666011 
L 106.750388 -234.78234 
L 106.751425 -236.898669 
L 106.753268 -239.014998 
L 106.755884 -241.131327 
L 106.759237 -243.247656 
L 106.763287 -245.363985 
L 106.767995 -247.480314 
L 106.773319 -249.596643 
L 106.779219 -251.712972 
L 106.785651 -253.829301 
L 106.792573 -255.94563 
L 106.799942 -258.061959 
L 106.807719 -260.178288 
L 106.815862 -262.294617 
L 106.824332 -264.410946 
L 106.833091 -266.527275 
L 106.842103 -268.643604 
L 106.851334 -270.759933 
L 106.860753 -272.876262 
L 106.870329 -274.992591 
L 106.880035 -277.10892 
L 106.889846 -279.225249 
L 106.899738 -281.341578 
L 106.909692 -283.457907 
L 106.919689 -285.574236 
L 106.929713 -287.690565 
L 106.939751 -289.806894 
L 106.949791 -291.923223 
L 106.959822 -294.039552 
L 106.969837 -296.155881 
L 106.979829 -298.27221 
L 106.989793 -300.388539 
L 106.999724 -302.504868 
L 107.009619 -304.621197 
L 107.019475 -306.737526 
L 107.029291 -308.853855 
L 107.039064 -310.970184 
L 107.048794 -313.086513 
L 107.058479 -315.202842 
L 107.068117 -317.319171 
L 107.077706 -319.435499 
L 107.087245 -321.551828 
L 107.096729 -323.668157 
L 107.106157 -325.784486 
L 107.115523 -327.900815 
L 107.124824 -330.017144 
L 107.134054 -332.133473 
L 107.143207 -334.249802 
L 107.152277 -336.366131 
L 107.161256 -338.48246 
L 107.170138 -340.598789 
L 107.178914 -342.715118 
L 107.187577 -344.831447 
L 107.196118 -346.947776 
L 107.204529 -349.064105 
L 107.212801 -351.180434 
L 107.220927 -353.296763 
L 107.2289 -355.413092 
L 107.236711 -357.529421 
L 107.244355 -359.64575 
L 107.251825 -361.762079 
L 107.259118 -363.878408 
L 107.266229 -365.994737 
L 107.273155 -368.111066 
L 107.279894 -370.227395 
L 107.286447 -372.343724 
L 107.292814 -374.460053 
L 107.298997 -376.576382 
L 107.304999 -378.692711 
L 107.310825 -380.80904 
L 107.316481 -382.925369 
L 107.321974 -385.041698 
L 107.327312 -387.158027 
L 107.332503 -389.274356 
L 107.33756 -391.390685 
L 107.342492 -393.507014 
L 107.347311 -395.623343 
L 107.352031 -397.739672 
L 107.356663 -399.856001 
L 107.361221 -401.97233 
L 107.36572 -404.088659 
L 107.370171 -406.204988 
L 107.37459 -408.321317 
L 107.378988 -410.437646 
L 107.38338 -412.553975 
L 107.387777 -414.670304 
L 107.392192 -416.786633 
L 107.396635 -418.902962 
L 107.401116 -421.019291 
L 107.922589 -421.019291 
L 107.922589 -421.019291 
L 107.92707 -418.902962 
L 107.931513 -416.786633 
L 107.935928 -414.670304 
L 107.940325 -412.553975 
L 107.944717 -410.437646 
L 107.949116 -408.321317 
L 107.953534 -406.204988 
L 107.957986 -404.088659 
L 107.962484 -401.97233 
L 107.967042 -399.856001 
L 107.971675 -397.739672 
L 107.976394 -395.623343 
L 107.981213 -393.507014 
L 107.986145 -391.390685 
L 107.991202 -389.274356 
L 107.996394 -387.158027 
L 108.001731 -385.041698 
L 108.007224 -382.925369 
L 108.01288 -380.80904 
L 108.018706 -378.692711 
L 108.024708 -376.576382 
L 108.030891 -374.460053 
L 108.037258 -372.343724 
L 108.043811 -370.227395 
L 108.050551 -368.111066 
L 108.057477 -365.994737 
L 108.064587 -363.878408 
L 108.07188 -361.762079 
L 108.079351 -359.64575 
L 108.086994 -357.529421 
L 108.094806 -355.413092 
L 108.102778 -353.296763 
L 108.110904 -351.180434 
L 108.119176 -349.064105 
L 108.127587 -346.947776 
L 108.136128 -344.831447 
L 108.144791 -342.715118 
L 108.153567 -340.598789 
L 108.162449 -338.48246 
L 108.171429 -336.366131 
L 108.180499 -334.249802 
L 108.189652 -332.133473 
L 108.198881 -330.017144 
L 108.208182 -327.900815 
L 108.217549 -325.784486 
L 108.226976 -323.668157 
L 108.236461 -321.551828 
L 108.245999 -319.435499 
L 108.255588 -317.319171 
L 108.265226 -315.202842 
L 108.274911 -313.086513 
L 108.284641 -310.970184 
L 108.294415 -308.853855 
L 108.30423 -306.737526 
L 108.314087 -304.621197 
L 108.323982 -302.504868 
L 108.333912 -300.388539 
L 108.343876 -298.27221 
L 108.353868 -296.155881 
L 108.363883 -294.039552 
L 108.373914 -291.923223 
L 108.383954 -289.806894 
L 108.393992 -287.690565 
L 108.404016 -285.574236 
L 108.414013 -283.457907 
L 108.423967 -281.341578 
L 108.43386 -279.225249 
L 108.44367 -277.10892 
L 108.453376 -274.992591 
L 108.462952 -272.876262 
L 108.472371 -270.759933 
L 108.481602 -268.643604 
L 108.490615 -266.527275 
L 108.499374 -264.410946 
L 108.507843 -262.294617 
L 108.515986 -260.178288 
L 108.523763 -258.061959 
L 108.531133 -255.94563 
L 108.538055 -253.829301 
L 108.544486 -251.712972 
L 108.550386 -249.596643 
L 108.55571 -247.480314 
L 108.560418 -245.363985 
L 108.564469 -243.247656 
L 108.567821 -241.131327 
L 108.570437 -239.014998 
L 108.572281 -236.898669 
L 108.573317 -234.78234 
L 108.573515 -232.666011 
L 108.572846 -230.549682 
L 108.571284 -228.433353 
L 108.568808 -226.317024 
L 108.5654 -224.200695 
L 108.561047 -222.084366 
L 108.555738 -219.968037 
L 108.54947 -217.851708 
L 108.54224 -215.735379 
L 108.534055 -213.61905 
L 108.524922 -211.502721 
z
" id="me987425fd2" style="stroke:#545454;stroke-width:2.5;"/>
    </defs>
    <g clip-path="url(#pa25a7fdaed)">
     <use style="fill:#d98b5f;stroke:#545454;stroke-width:2.5;" x="0" xlink:href="#me987425fd2" y="503.420156"/>
    </g>
   </g>
   <g id="PolyCollection_3">
    <defs>
     <path d="M 149.950934 -211.501065 
L 128.806393 -211.501065 
L 129.679199 -213.083514 
L 131.88744 -214.665963 
L 134.499713 -216.248411 
L 136.680826 -217.83086 
L 138.077419 -219.413309 
L 138.774539 -220.995758 
L 139.035023 -222.578206 
L 139.09258 -224.160655 
L 139.084671 -225.743104 
L 139.070382 -227.325552 
L 139.066147 -228.908001 
L 139.071187 -230.49045 
L 139.080483 -232.072898 
L 139.08987 -233.655347 
L 139.097245 -235.237796 
L 139.102231 -236.820245 
L 139.105366 -238.402693 
L 139.10738 -239.985142 
L 139.108928 -241.567591 
L 139.110735 -243.150039 
L 139.113687 -244.732488 
L 139.118504 -246.314937 
L 139.125163 -247.897386 
L 139.132625 -249.479834 
L 139.139343 -251.062283 
L 139.144367 -252.644732 
L 139.148106 -254.22718 
L 139.151967 -255.809629 
L 139.157225 -257.392078 
L 139.164261 -258.974526 
L 139.172708 -260.556975 
L 139.182016 -262.139424 
L 139.191743 -263.721873 
L 139.201477 -265.304321 
L 139.210644 -266.88677 
L 139.218483 -268.469219 
L 139.224341 -270.051667 
L 139.228182 -271.634116 
L 139.230923 -273.216565 
L 139.234152 -274.799013 
L 139.239275 -276.381462 
L 139.246676 -277.963911 
L 139.255542 -279.54636 
L 139.264457 -281.128808 
L 139.272257 -282.711257 
L 139.278501 -284.293706 
L 139.283365 -285.876154 
L 139.28721 -287.458603 
L 139.290243 -289.041052 
L 139.292481 -290.623501 
L 139.293895 -292.205949 
L 139.294507 -293.788398 
L 139.294375 -295.370847 
L 139.293616 -296.953295 
L 139.292532 -298.535744 
L 139.291636 -300.118193 
L 139.291414 -301.700641 
L 139.292021 -303.28309 
L 139.293268 -304.865539 
L 139.294908 -306.447988 
L 139.296875 -308.030436 
L 139.299228 -309.612885 
L 139.302022 -311.195334 
L 139.305304 -312.777782 
L 139.309131 -314.360231 
L 139.313414 -315.94268 
L 139.317744 -317.525128 
L 139.321489 -319.107577 
L 139.324153 -320.690026 
L 139.325667 -322.272475 
L 139.326324 -323.854923 
L 139.326482 -325.437372 
L 139.326347 -327.019821 
L 139.326038 -328.602269 
L 139.325761 -330.184718 
L 139.325807 -331.767167 
L 139.326305 -333.349616 
L 139.327005 -334.932064 
L 139.327298 -336.514513 
L 139.326539 -338.096962 
L 139.32452 -339.67941 
L 139.321783 -341.261859 
L 139.319468 -342.844308 
L 139.318687 -344.426756 
L 139.319808 -346.009205 
L 139.322194 -347.591654 
L 139.324535 -349.174103 
L 139.325427 -350.756551 
L 139.323777 -352.339 
L 139.318964 -353.921449 
L 139.310947 -355.503897 
L 139.300524 -357.086346 
L 139.289633 -358.668795 
L 139.281336 -360.251243 
L 139.279057 -361.833692 
L 139.285085 -363.416141 
L 139.299131 -364.99859 
L 139.318139 -366.581038 
L 139.337697 -368.163487 
L 139.41963 -368.163487 
L 139.41963 -368.163487 
L 139.439188 -366.581038 
L 139.458196 -364.99859 
L 139.472243 -363.416141 
L 139.47827 -361.833692 
L 139.475992 -360.251243 
L 139.467695 -358.668795 
L 139.456804 -357.086346 
L 139.446381 -355.503897 
L 139.438364 -353.921449 
L 139.433551 -352.339 
L 139.431901 -350.756551 
L 139.432792 -349.174103 
L 139.435134 -347.591654 
L 139.43752 -346.009205 
L 139.43864 -344.426756 
L 139.437859 -342.844308 
L 139.435545 -341.261859 
L 139.432807 -339.67941 
L 139.430788 -338.096962 
L 139.43003 -336.514513 
L 139.430322 -334.932064 
L 139.431023 -333.349616 
L 139.431521 -331.767167 
L 139.431566 -330.184718 
L 139.43129 -328.602269 
L 139.430981 -327.019821 
L 139.430846 -325.437372 
L 139.431004 -323.854923 
L 139.431661 -322.272475 
L 139.433174 -320.690026 
L 139.435839 -319.107577 
L 139.439583 -317.525128 
L 139.443914 -315.94268 
L 139.448197 -314.360231 
L 139.452024 -312.777782 
L 139.455306 -311.195334 
L 139.458099 -309.612885 
L 139.460453 -308.030436 
L 139.462419 -306.447988 
L 139.46406 -304.865539 
L 139.465306 -303.28309 
L 139.465914 -301.700641 
L 139.465692 -300.118193 
L 139.464796 -298.535744 
L 139.463712 -296.953295 
L 139.462953 -295.370847 
L 139.462821 -293.788398 
L 139.463433 -292.205949 
L 139.464846 -290.623501 
L 139.467084 -289.041052 
L 139.470118 -287.458603 
L 139.473962 -285.876154 
L 139.478826 -284.293706 
L 139.485071 -282.711257 
L 139.492871 -281.128808 
L 139.501786 -279.54636 
L 139.510651 -277.963911 
L 139.518053 -276.381462 
L 139.523176 -274.799013 
L 139.526405 -273.216565 
L 139.529146 -271.634116 
L 139.532987 -270.051667 
L 139.538845 -268.469219 
L 139.546684 -266.88677 
L 139.55585 -265.304321 
L 139.565585 -263.721873 
L 139.575312 -262.139424 
L 139.584619 -260.556975 
L 139.593066 -258.974526 
L 139.600102 -257.392078 
L 139.605361 -255.809629 
L 139.609222 -254.22718 
L 139.612961 -252.644732 
L 139.617985 -251.062283 
L 139.624702 -249.479834 
L 139.632165 -247.897386 
L 139.638824 -246.314937 
L 139.643641 -244.732488 
L 139.646593 -243.150039 
L 139.6484 -241.567591 
L 139.649947 -239.985142 
L 139.651961 -238.402693 
L 139.655097 -236.820245 
L 139.660083 -235.237796 
L 139.667457 -233.655347 
L 139.676845 -232.072898 
L 139.686141 -230.49045 
L 139.69118 -228.908001 
L 139.686946 -227.325552 
L 139.672656 -225.743104 
L 139.664748 -224.160655 
L 139.722305 -222.578206 
L 139.982789 -220.995758 
L 140.679909 -219.413309 
L 142.076502 -217.83086 
L 144.257615 -216.248411 
L 146.869888 -214.665963 
L 149.078128 -213.083514 
L 149.950934 -211.501065 
z
" id="m3fe5a4ff06" style="stroke:#545454;stroke-width:2.5;"/>
    </defs>
    <g clip-path="url(#pa25a7fdaed)">
     <use style="fill:#597dbf;stroke:#545454;stroke-width:2.5;" x="0" xlink:href="#m3fe5a4ff06" y="503.420156"/>
    </g>
   </g>
   <g id="PolyCollection_4">
    <defs>
     <path d="M 161.386137 -211.502113 
L 159.660272 -211.502113 
L 159.651133 -212.844091 
L 159.64294 -214.18607 
L 159.635704 -215.528049 
L 159.629428 -216.870027 
L 159.624112 -218.212006 
L 159.619751 -219.553985 
L 159.616336 -220.895964 
L 159.613854 -222.237942 
L 159.612285 -223.579921 
L 159.61161 -224.9219 
L 159.611801 -226.263879 
L 159.612832 -227.605857 
L 159.61467 -228.947836 
L 159.617281 -230.289815 
L 159.620629 -231.631793 
L 159.624676 -232.973772 
L 159.629381 -234.315751 
L 159.634703 -235.65773 
L 159.640601 -236.999708 
L 159.647033 -238.341687 
L 159.653956 -239.683666 
L 159.661328 -241.025645 
L 159.669108 -242.367623 
L 159.677255 -243.709602 
L 159.685731 -245.051581 
L 159.694498 -246.39356 
L 159.70352 -247.735538 
L 159.712762 -249.077517 
L 159.722194 -250.419496 
L 159.731784 -251.761474 
L 159.741507 -253.103453 
L 159.751335 -254.445432 
L 159.761248 -255.787411 
L 159.771224 -257.129389 
L 159.781244 -258.471368 
L 159.791294 -259.813347 
L 159.80136 -261.155326 
L 159.811428 -262.497304 
L 159.82149 -263.839283 
L 159.831538 -265.181262 
L 159.841563 -266.52324 
L 159.851562 -267.865219 
L 159.861529 -269.207198 
L 159.871461 -270.549177 
L 159.881356 -271.891155 
L 159.891211 -273.233134 
L 159.901024 -274.575113 
L 159.910794 -275.917092 
L 159.920519 -277.25907 
L 159.930197 -278.601049 
L 159.939826 -279.943028 
L 159.949404 -281.285007 
L 159.958927 -282.626985 
L 159.968393 -283.968964 
L 159.977796 -285.310943 
L 159.987133 -286.652921 
L 159.996397 -287.9949 
L 160.005582 -289.336879 
L 160.014683 -290.678858 
L 160.023691 -292.020836 
L 160.0326 -293.362815 
L 160.041401 -294.704794 
L 160.050086 -296.046773 
L 160.058647 -297.388751 
L 160.067075 -298.73073 
L 160.075362 -300.072709 
L 160.083499 -301.414687 
L 160.091481 -302.756666 
L 160.099298 -304.098645 
L 160.106946 -305.440624 
L 160.114418 -306.782602 
L 160.121708 -308.124581 
L 160.128815 -309.46656 
L 160.135734 -310.808539 
L 160.142464 -312.150517 
L 160.149006 -313.492496 
L 160.155358 -314.834475 
L 160.161525 -316.176453 
L 160.167509 -317.518432 
L 160.173315 -318.860411 
L 160.178949 -320.20239 
L 160.184419 -321.544368 
L 160.189731 -322.886347 
L 160.194897 -324.228326 
L 160.199926 -325.570305 
L 160.20483 -326.912283 
L 160.209621 -328.254262 
L 160.21431 -329.596241 
L 160.218913 -330.93822 
L 160.223441 -332.280198 
L 160.227908 -333.622177 
L 160.232329 -334.964156 
L 160.236717 -336.306134 
L 160.241085 -337.648113 
L 160.245447 -338.990092 
L 160.249814 -340.332071 
L 160.2542 -341.674049 
L 160.258614 -343.016028 
L 160.263067 -344.358007 
L 160.783342 -344.358007 
L 160.783342 -344.358007 
L 160.787796 -343.016028 
L 160.79221 -341.674049 
L 160.796595 -340.332071 
L 160.800963 -338.990092 
L 160.805324 -337.648113 
L 160.809692 -336.306134 
L 160.81408 -334.964156 
L 160.818501 -333.622177 
L 160.822969 -332.280198 
L 160.827497 -330.93822 
L 160.832099 -329.596241 
L 160.836789 -328.254262 
L 160.841579 -326.912283 
L 160.846483 -325.570305 
L 160.851512 -324.228326 
L 160.856678 -322.886347 
L 160.861991 -321.544368 
L 160.86746 -320.20239 
L 160.873094 -318.860411 
L 160.8789 -317.518432 
L 160.884884 -316.176453 
L 160.891051 -314.834475 
L 160.897404 -313.492496 
L 160.903945 -312.150517 
L 160.910675 -310.808539 
L 160.917594 -309.46656 
L 160.924701 -308.124581 
L 160.931992 -306.782602 
L 160.939463 -305.440624 
L 160.947111 -304.098645 
L 160.954928 -302.756666 
L 160.96291 -301.414687 
L 160.971048 -300.072709 
L 160.979335 -298.73073 
L 160.987763 -297.388751 
L 160.996323 -296.046773 
L 161.005008 -294.704794 
L 161.013809 -293.362815 
L 161.022718 -292.020836 
L 161.031726 -290.678858 
L 161.040827 -289.336879 
L 161.050013 -287.9949 
L 161.059277 -286.652921 
L 161.068613 -285.310943 
L 161.078017 -283.968964 
L 161.087482 -282.626985 
L 161.097005 -281.285007 
L 161.106583 -279.943028 
L 161.116212 -278.601049 
L 161.125891 -277.25907 
L 161.135615 -275.917092 
L 161.145385 -274.575113 
L 161.155199 -273.233134 
L 161.165053 -271.891155 
L 161.174948 -270.549177 
L 161.18488 -269.207198 
L 161.194847 -267.865219 
L 161.204846 -266.52324 
L 161.214872 -265.181262 
L 161.224919 -263.839283 
L 161.234981 -262.497304 
L 161.24505 -261.155326 
L 161.255115 -259.813347 
L 161.265165 -258.471368 
L 161.275186 -257.129389 
L 161.285161 -255.787411 
L 161.295074 -254.445432 
L 161.304903 -253.103453 
L 161.314625 -251.761474 
L 161.324216 -250.419496 
L 161.333647 -249.077517 
L 161.34289 -247.735538 
L 161.351911 -246.39356 
L 161.360678 -245.051581 
L 161.369154 -243.709602 
L 161.377302 -242.367623 
L 161.385082 -241.025645 
L 161.392454 -239.683666 
L 161.399376 -238.341687 
L 161.405808 -236.999708 
L 161.411706 -235.65773 
L 161.417029 -234.315751 
L 161.421734 -232.973772 
L 161.42578 -231.631793 
L 161.429128 -230.289815 
L 161.43174 -228.947836 
L 161.433578 -227.605857 
L 161.434608 -226.263879 
L 161.4348 -224.9219 
L 161.434124 -223.579921 
L 161.432556 -222.237942 
L 161.430073 -220.895964 
L 161.426658 -219.553985 
L 161.422297 -218.212006 
L 161.416982 -216.870027 
L 161.410706 -215.528049 
L 161.403469 -214.18607 
L 161.395277 -212.844091 
L 161.386137 -211.502113 
z
" id="m2fa95e96ac" style="stroke:#545454;stroke-width:2.5;"/>
    </defs>
    <g clip-path="url(#pa25a7fdaed)">
     <use style="fill:#d98b5f;stroke:#545454;stroke-width:2.5;" x="0" xlink:href="#m2fa95e96ac" y="503.420156"/>
    </g>
   </g>
   <g id="PolyCollection_5">
    <defs>
     <path d="M 202.812286 -211.501065 
L 181.667745 -211.501065 
L 182.815556 -213.939617 
L 185.563008 -216.378169 
L 188.475897 -218.816721 
L 190.539453 -221.255273 
L 191.597399 -223.693825 
L 191.987622 -226.132377 
L 192.072224 -228.570929 
L 192.060195 -231.009481 
L 192.036712 -233.448033 
L 192.026129 -235.886585 
L 192.028756 -238.325137 
L 192.037865 -240.763689 
L 192.047336 -243.202241 
L 192.053971 -245.640793 
L 192.057294 -248.079345 
L 192.058563 -250.517897 
L 192.05946 -252.956449 
L 192.060914 -255.395001 
L 192.062766 -257.833553 
L 192.064486 -260.272105 
L 192.066215 -262.710657 
L 192.068969 -265.149209 
L 192.07364 -267.587761 
L 192.079851 -270.026313 
L 192.085945 -272.464865 
L 192.090249 -274.903417 
L 192.092532 -277.341969 
L 192.094247 -279.780521 
L 192.097251 -282.219072 
L 192.102277 -284.657624 
L 192.108664 -287.096176 
L 192.115227 -289.534728 
L 192.121127 -291.97328 
L 192.126321 -294.411832 
L 192.131549 -296.850384 
L 192.137463 -299.288936 
L 192.143377 -301.727488 
L 192.147402 -304.16604 
L 192.148411 -306.604592 
L 192.147771 -309.043144 
L 192.148679 -311.481696 
L 192.153572 -313.920248 
L 192.162138 -316.3588 
L 192.171728 -318.797352 
L 192.179535 -321.235904 
L 192.184409 -323.674456 
L 192.186987 -326.113008 
L 192.188538 -328.55156 
L 192.18981 -330.990112 
L 192.190758 -333.428664 
L 192.191099 -335.867216 
L 192.190962 -338.305768 
L 192.190915 -340.74432 
L 192.19146 -343.182872 
L 192.192618 -345.621424 
L 192.193929 -348.059976 
L 192.194773 -350.498528 
L 192.194785 -352.93708 
L 192.194006 -355.375632 
L 192.192677 -357.814184 
L 192.191069 -360.252736 
L 192.189497 -362.691288 
L 192.188157 -365.12984 
L 192.186836 -367.568391 
L 192.185125 -370.006943 
L 192.183058 -372.445495 
L 192.181252 -374.884047 
L 192.180264 -377.322599 
L 192.180002 -379.761151 
L 192.179851 -382.199703 
L 192.17934 -384.638255 
L 192.178708 -387.076807 
L 192.178737 -389.515359 
L 192.17991 -391.953911 
L 192.181844 -394.392463 
L 192.183754 -396.831015 
L 192.185376 -399.269567 
L 192.187158 -401.708119 
L 192.189598 -404.146671 
L 192.192653 -406.585223 
L 192.195791 -409.023775 
L 192.198469 -411.462327 
L 192.20057 -413.900879 
L 192.202445 -416.339431 
L 192.204576 -418.777983 
L 192.207201 -421.216535 
L 192.210227 -423.655087 
L 192.213343 -426.093639 
L 192.216169 -428.532191 
L 192.218362 -430.970743 
L 192.219646 -433.409295 
L 192.219779 -435.847847 
L 192.21859 -438.286399 
L 192.216169 -440.724951 
L 192.213156 -443.163503 
L 192.210863 -445.602055 
L 192.210887 -448.040607 
L 192.214163 -450.479158 
L 192.220161 -452.91771 
L 192.259871 -452.91771 
L 192.259871 -452.91771 
L 192.265868 -450.479158 
L 192.269145 -448.040607 
L 192.269169 -445.602055 
L 192.266876 -443.163503 
L 192.263862 -440.724951 
L 192.261442 -438.286399 
L 192.260253 -435.847847 
L 192.260385 -433.409295 
L 192.261669 -430.970743 
L 192.263862 -428.532191 
L 192.266688 -426.093639 
L 192.269805 -423.655087 
L 192.27283 -421.216535 
L 192.275455 -418.777983 
L 192.277586 -416.339431 
L 192.279462 -413.900879 
L 192.281562 -411.462327 
L 192.284241 -409.023775 
L 192.287379 -406.585223 
L 192.290434 -404.146671 
L 192.292874 -401.708119 
L 192.294655 -399.269567 
L 192.296277 -396.831015 
L 192.298188 -394.392463 
L 192.300122 -391.953911 
L 192.301295 -389.515359 
L 192.301324 -387.076807 
L 192.300692 -384.638255 
L 192.300181 -382.199703 
L 192.300029 -379.761151 
L 192.299767 -377.322599 
L 192.298779 -374.884047 
L 192.296973 -372.445495 
L 192.294907 -370.006943 
L 192.293195 -367.568391 
L 192.291875 -365.12984 
L 192.290535 -362.691288 
L 192.288963 -360.252736 
L 192.287354 -357.814184 
L 192.286026 -355.375632 
L 192.285247 -352.93708 
L 192.285259 -350.498528 
L 192.286103 -348.059976 
L 192.287413 -345.621424 
L 192.288572 -343.182872 
L 192.289117 -340.74432 
L 192.28907 -338.305768 
L 192.288933 -335.867216 
L 192.289273 -333.428664 
L 192.290221 -330.990112 
L 192.291494 -328.55156 
L 192.293044 -326.113008 
L 192.295622 -323.674456 
L 192.300497 -321.235904 
L 192.308304 -318.797352 
L 192.317894 -316.3588 
L 192.32646 -313.920248 
L 192.331353 -311.481696 
L 192.332261 -309.043144 
L 192.331621 -306.604592 
L 192.33263 -304.16604 
L 192.336654 -301.727488 
L 192.342569 -299.288936 
L 192.348482 -296.850384 
L 192.353711 -294.411832 
L 192.358904 -291.97328 
L 192.364804 -289.534728 
L 192.371367 -287.096176 
L 192.377755 -284.657624 
L 192.382781 -282.219072 
L 192.385785 -279.780521 
L 192.3875 -277.341969 
L 192.389783 -274.903417 
L 192.394086 -272.464865 
L 192.400181 -270.026313 
L 192.406392 -267.587761 
L 192.411063 -265.149209 
L 192.413817 -262.710657 
L 192.415546 -260.272105 
L 192.417266 -257.833553 
L 192.419118 -255.395001 
L 192.420572 -252.956449 
L 192.421469 -250.517897 
L 192.422738 -248.079345 
L 192.426061 -245.640793 
L 192.432696 -243.202241 
L 192.442166 -240.763689 
L 192.451276 -238.325137 
L 192.453903 -235.886585 
L 192.44332 -233.448033 
L 192.419837 -231.009481 
L 192.407808 -228.570929 
L 192.49241 -226.132377 
L 192.882633 -223.693825 
L 193.940579 -221.255273 
L 196.004135 -218.816721 
L 198.917024 -216.378169 
L 201.664476 -213.939617 
L 202.812286 -211.501065 
z
" id="mb01181f0ed" style="stroke:#545454;stroke-width:2.5;"/>
    </defs>
    <g clip-path="url(#pa25a7fdaed)">
     <use style="fill:#597dbf;stroke:#545454;stroke-width:2.5;" x="0" xlink:href="#mb01181f0ed" y="503.420156"/>
    </g>
   </g>
   <g id="PolyCollection_6">
    <defs>
     <path d="M 214.230756 -211.502721 
L 212.538358 -211.502721 
L 212.529059 -213.435146 
L 212.520763 -215.367571 
L 212.513489 -217.299995 
L 212.507251 -219.23242 
L 212.50206 -221.164845 
L 212.497921 -223.097269 
L 212.494836 -225.029694 
L 212.492801 -226.962118 
L 212.491808 -228.894543 
L 212.491845 -230.826968 
L 212.492896 -232.759392 
L 212.494941 -234.691817 
L 212.497955 -236.624242 
L 212.501912 -238.556666 
L 212.506779 -240.489091 
L 212.512524 -242.421516 
L 212.519109 -244.35394 
L 212.526496 -246.286365 
L 212.534643 -248.21879 
L 212.543508 -250.151214 
L 212.553046 -252.083639 
L 212.563211 -254.016063 
L 212.573958 -255.948488 
L 212.585238 -257.880913 
L 212.597005 -259.813337 
L 212.609211 -261.745762 
L 212.621809 -263.678187 
L 212.634753 -265.610611 
L 212.647997 -267.543036 
L 212.661496 -269.475461 
L 212.675207 -271.407885 
L 212.689087 -273.34031 
L 212.703095 -275.272734 
L 212.717192 -277.205159 
L 212.731341 -279.137584 
L 212.745506 -281.070008 
L 212.759653 -283.002433 
L 212.773749 -284.934858 
L 212.787765 -286.867282 
L 212.801673 -288.799707 
L 212.815446 -290.732132 
L 212.829059 -292.664556 
L 212.84249 -294.596981 
L 212.855719 -296.529405 
L 212.868725 -298.46183 
L 212.881491 -300.394255 
L 212.894003 -302.326679 
L 212.906244 -304.259104 
L 212.918202 -306.191529 
L 212.929866 -308.123953 
L 212.941225 -310.056378 
L 212.952271 -311.988803 
L 212.962995 -313.921227 
L 212.97339 -315.853652 
L 212.983452 -317.786076 
L 212.993176 -319.718501 
L 213.002558 -321.650926 
L 213.011595 -323.58335 
L 213.020285 -325.515775 
L 213.028629 -327.4482 
L 213.036625 -329.380624 
L 213.044276 -331.313049 
L 213.051583 -333.245474 
L 213.058548 -335.177898 
L 213.065176 -337.110323 
L 213.071472 -339.042747 
L 213.07744 -340.975172 
L 213.083087 -342.907597 
L 213.088421 -344.840021 
L 213.093451 -346.772446 
L 213.098184 -348.704871 
L 213.102633 -350.637295 
L 213.106807 -352.56972 
L 213.110718 -354.502145 
L 213.114381 -356.434569 
L 213.117807 -358.366994 
L 213.121012 -360.299418 
L 213.124011 -362.231843 
L 213.12682 -364.164268 
L 213.129455 -366.096692 
L 213.131932 -368.029117 
L 213.134271 -369.961542 
L 213.136488 -371.893966 
L 213.1386 -373.826391 
L 213.140627 -375.758816 
L 213.142587 -377.69124 
L 213.144497 -379.623665 
L 213.146375 -381.55609 
L 213.14824 -383.488514 
L 213.150107 -385.420939 
L 213.151994 -387.353363 
L 213.153916 -389.285788 
L 213.155889 -391.218213 
L 213.157927 -393.150637 
L 213.160043 -395.083062 
L 213.162249 -397.015487 
L 213.164557 -398.947911 
L 213.166976 -400.880336 
L 213.169515 -402.812761 
L 213.599598 -402.812761 
L 213.599598 -402.812761 
L 213.602137 -400.880336 
L 213.604557 -398.947911 
L 213.606864 -397.015487 
L 213.609071 -395.083062 
L 213.611187 -393.150637 
L 213.613224 -391.218213 
L 213.615197 -389.285788 
L 213.617119 -387.353363 
L 213.619006 -385.420939 
L 213.620874 -383.488514 
L 213.622738 -381.55609 
L 213.624616 -379.623665 
L 213.626526 -377.69124 
L 213.628486 -375.758816 
L 213.630513 -373.826391 
L 213.632626 -371.893966 
L 213.634842 -369.961542 
L 213.637181 -368.029117 
L 213.639659 -366.096692 
L 213.642294 -364.164268 
L 213.645102 -362.231843 
L 213.648101 -360.299418 
L 213.651306 -358.366994 
L 213.654733 -356.434569 
L 213.658395 -354.502145 
L 213.662307 -352.56972 
L 213.666481 -350.637295 
L 213.670929 -348.704871 
L 213.675663 -346.772446 
L 213.680692 -344.840021 
L 213.686026 -342.907597 
L 213.691674 -340.975172 
L 213.697642 -339.042747 
L 213.703937 -337.110323 
L 213.710565 -335.177898 
L 213.717531 -333.245474 
L 213.724837 -331.313049 
L 213.732488 -329.380624 
L 213.740484 -327.4482 
L 213.748828 -325.515775 
L 213.757519 -323.58335 
L 213.766556 -321.650926 
L 213.775937 -319.718501 
L 213.785661 -317.786076 
L 213.795723 -315.853652 
L 213.806119 -313.921227 
L 213.816843 -311.988803 
L 213.827888 -310.056378 
L 213.839248 -308.123953 
L 213.850911 -306.191529 
L 213.86287 -304.259104 
L 213.875111 -302.326679 
L 213.887622 -300.394255 
L 213.900388 -298.46183 
L 213.913395 -296.529405 
L 213.926623 -294.596981 
L 213.940054 -292.664556 
L 213.953668 -290.732132 
L 213.96744 -288.799707 
L 213.981348 -286.867282 
L 213.995364 -284.934858 
L 214.009461 -283.002433 
L 214.023607 -281.070008 
L 214.037772 -279.137584 
L 214.051921 -277.205159 
L 214.066018 -275.272734 
L 214.080027 -273.34031 
L 214.093906 -271.407885 
L 214.107617 -269.475461 
L 214.121116 -267.543036 
L 214.13436 -265.610611 
L 214.147304 -263.678187 
L 214.159903 -261.745762 
L 214.172109 -259.813337 
L 214.183875 -257.880913 
L 214.195156 -255.948488 
L 214.205902 -254.016063 
L 214.216067 -252.083639 
L 214.225605 -250.151214 
L 214.23447 -248.21879 
L 214.242618 -246.286365 
L 214.250004 -244.35394 
L 214.25659 -242.421516 
L 214.262334 -240.489091 
L 214.267202 -238.556666 
L 214.271158 -236.624242 
L 214.274172 -234.691817 
L 214.276217 -232.759392 
L 214.277268 -230.826968 
L 214.277305 -228.894543 
L 214.276313 -226.962118 
L 214.274278 -225.029694 
L 214.271192 -223.097269 
L 214.267054 -221.164845 
L 214.261862 -219.23242 
L 214.255625 -217.299995 
L 214.24835 -215.367571 
L 214.240054 -213.435146 
L 214.230756 -211.502721 
z
" id="m49790eaed6" style="stroke:#545454;stroke-width:2.5;"/>
    </defs>
    <g clip-path="url(#pa25a7fdaed)">
     <use style="fill:#d98b5f;stroke:#545454;stroke-width:2.5;" x="0" xlink:href="#m49790eaed6" y="503.420156"/>
    </g>
   </g>
   <g id="PolyCollection_7">
    <defs>
     <path d="M 255.673638 -211.501065 
L 234.529097 -211.501065 
L 235.62728 -213.055176 
L 238.28248 -214.609287 
L 241.154259 -216.163398 
L 243.250278 -217.717509 
L 244.368819 -219.27162 
L 244.804522 -220.825731 
L 244.909908 -222.379842 
L 244.902983 -223.933952 
L 244.878223 -225.488063 
L 244.864892 -227.042174 
L 244.865433 -228.596285 
L 244.873896 -230.150396 
L 244.88425 -231.704507 
L 244.893158 -233.258618 
L 244.899738 -234.812729 
L 244.904207 -236.36684 
L 244.906758 -237.92095 
L 244.907447 -239.475061 
L 244.906879 -241.029172 
L 244.906463 -242.583283 
L 244.907598 -244.137394 
L 244.910609 -245.691505 
L 244.914658 -247.245616 
L 244.918665 -248.799727 
L 244.922176 -250.353838 
L 244.925572 -251.907948 
L 244.929774 -253.462059 
L 244.935647 -255.01617 
L 244.943269 -256.570281 
L 244.951648 -258.124392 
L 244.959403 -259.678503 
L 244.96586 -261.232614 
L 244.971474 -262.786725 
L 244.977288 -264.340836 
L 244.983982 -265.894946 
L 244.99111 -267.449057 
L 244.997196 -269.003168 
L 245.000863 -270.557279 
L 245.002174 -272.11139 
L 245.002853 -273.665501 
L 245.005128 -275.219612 
L 245.010219 -276.773723 
L 245.017684 -278.327834 
L 245.025923 -279.881944 
L 245.033269 -281.436055 
L 245.038843 -282.990166 
L 245.04276 -284.544277 
L 245.0457 -286.098388 
L 245.048179 -287.652499 
L 245.050149 -289.20661 
L 245.051277 -290.760721 
L 245.051527 -292.314832 
L 245.051372 -293.868942 
L 245.051452 -295.423053 
L 245.052039 -296.977164 
L 245.052775 -298.531275 
L 245.052938 -300.085386 
L 245.052103 -301.639497 
L 245.050577 -303.193608 
L 245.049215 -304.747719 
L 245.048856 -306.30183 
L 245.049792 -307.85594 
L 245.051578 -309.410051 
L 245.053395 -310.964162 
L 245.054769 -312.518273 
L 245.055827 -314.072384 
L 245.056732 -315.626495 
L 245.057074 -317.180606 
L 245.056055 -318.734717 
L 245.053185 -320.288828 
L 245.048717 -321.842938 
L 245.043578 -323.397049 
L 245.038994 -324.95116 
L 245.036036 -326.505271 
L 245.03536 -328.059382 
L 245.037147 -329.613493 
L 245.040996 -331.167604 
L 245.045872 -332.721715 
L 245.050484 -334.275826 
L 245.053964 -335.829936 
L 245.056164 -337.384047 
L 245.057406 -338.938158 
L 245.058169 -340.492269 
L 245.059029 -342.04638 
L 245.060628 -343.600491 
L 245.063386 -345.154602 
L 245.067144 -346.708713 
L 245.071121 -348.262824 
L 245.074293 -349.816934 
L 245.075853 -351.371045 
L 245.075418 -352.925156 
L 245.073054 -354.479267 
L 245.069281 -356.033378 
L 245.065008 -357.587489 
L 245.061417 -359.1416 
L 245.05988 -360.695711 
L 245.06171 -362.249822 
L 245.067427 -363.803932 
L 245.07602 -365.358043 
L 245.126716 -365.358043 
L 245.126716 -365.358043 
L 245.135309 -363.803932 
L 245.141026 -362.249822 
L 245.142856 -360.695711 
L 245.141319 -359.1416 
L 245.137728 -357.587489 
L 245.133455 -356.033378 
L 245.129681 -354.479267 
L 245.127317 -352.925156 
L 245.126882 -351.371045 
L 245.128442 -349.816934 
L 245.131614 -348.262824 
L 245.135592 -346.708713 
L 245.13935 -345.154602 
L 245.142108 -343.600491 
L 245.143707 -342.04638 
L 245.144567 -340.492269 
L 245.145329 -338.938158 
L 245.146572 -337.384047 
L 245.148772 -335.829936 
L 245.152252 -334.275826 
L 245.156864 -332.721715 
L 245.16174 -331.167604 
L 245.165589 -329.613493 
L 245.167375 -328.059382 
L 245.1667 -326.505271 
L 245.163742 -324.95116 
L 245.159158 -323.397049 
L 245.154019 -321.842938 
L 245.14955 -320.288828 
L 245.146681 -318.734717 
L 245.145662 -317.180606 
L 245.146004 -315.626495 
L 245.146909 -314.072384 
L 245.147967 -312.518273 
L 245.14934 -310.964162 
L 245.151158 -309.410051 
L 245.152944 -307.85594 
L 245.15388 -306.30183 
L 245.153521 -304.747719 
L 245.152159 -303.193608 
L 245.150633 -301.639497 
L 245.149797 -300.085386 
L 245.149961 -298.531275 
L 245.150697 -296.977164 
L 245.151284 -295.423053 
L 245.151364 -293.868942 
L 245.151209 -292.314832 
L 245.151458 -290.760721 
L 245.152586 -289.20661 
L 245.154557 -287.652499 
L 245.157036 -286.098388 
L 245.159976 -284.544277 
L 245.163893 -282.990166 
L 245.169466 -281.436055 
L 245.176812 -279.881944 
L 245.185052 -278.327834 
L 245.192516 -276.773723 
L 245.197608 -275.219612 
L 245.199883 -273.665501 
L 245.200562 -272.11139 
L 245.201872 -270.557279 
L 245.20554 -269.003168 
L 245.211626 -267.449057 
L 245.218754 -265.894946 
L 245.225447 -264.340836 
L 245.231262 -262.786725 
L 245.236875 -261.232614 
L 245.243333 -259.678503 
L 245.251088 -258.124392 
L 245.259466 -256.570281 
L 245.267089 -255.01617 
L 245.272962 -253.462059 
L 245.277163 -251.907948 
L 245.28056 -250.353838 
L 245.284071 -248.799727 
L 245.288078 -247.245616 
L 245.292127 -245.691505 
L 245.295137 -244.137394 
L 245.296273 -242.583283 
L 245.295857 -241.029172 
L 245.295289 -239.475061 
L 245.295978 -237.92095 
L 245.298528 -236.36684 
L 245.302998 -234.812729 
L 245.309577 -233.258618 
L 245.318486 -231.704507 
L 245.32884 -230.150396 
L 245.337303 -228.596285 
L 245.337844 -227.042174 
L 245.324513 -225.488063 
L 245.299752 -223.933952 
L 245.292827 -222.379842 
L 245.398213 -220.825731 
L 245.833916 -219.27162 
L 246.952458 -217.717509 
L 249.048477 -216.163398 
L 251.920255 -214.609287 
L 254.575456 -213.055176 
L 255.673638 -211.501065 
z
" id="m3fbe1302af" style="stroke:#545454;stroke-width:2.5;"/>
    </defs>
    <g clip-path="url(#pa25a7fdaed)">
     <use style="fill:#597dbf;stroke:#545454;stroke-width:2.5;" x="0" xlink:href="#m3fbe1302af" y="503.420156"/>
    </g>
   </g>
   <g id="PolyCollection_8">
    <defs>
     <path d="M 267.093366 -211.502113 
L 265.398451 -211.502113 
L 265.388727 -212.766414 
L 265.379992 -214.030716 
L 265.372266 -215.295017 
L 265.365565 -216.559319 
L 265.359899 -217.82362 
L 265.355274 -219.087922 
L 265.351693 -220.352224 
L 265.349152 -221.616525 
L 265.347645 -222.880827 
L 265.347161 -224.145128 
L 265.347684 -225.40943 
L 265.349195 -226.673732 
L 265.351671 -227.938033 
L 265.355088 -229.202335 
L 265.359415 -230.466636 
L 265.364619 -231.730938 
L 265.370668 -232.995239 
L 265.377523 -234.259541 
L 265.385146 -235.523843 
L 265.393496 -236.788144 
L 265.40253 -238.052446 
L 265.412207 -239.316747 
L 265.42248 -240.581049 
L 265.433308 -241.845351 
L 265.444643 -243.109652 
L 265.456442 -244.373954 
L 265.468661 -245.638255 
L 265.481255 -246.902557 
L 265.49418 -248.166858 
L 265.507395 -249.43116 
L 265.520858 -250.695462 
L 265.534529 -251.959763 
L 265.548368 -253.224065 
L 265.562339 -254.488366 
L 265.576405 -255.752668 
L 265.590531 -257.01697 
L 265.604685 -258.281271 
L 265.618834 -259.545573 
L 265.632951 -260.809874 
L 265.647005 -262.074176 
L 265.66097 -263.338477 
L 265.674822 -264.602779 
L 265.688537 -265.867081 
L 265.702093 -267.131382 
L 265.715468 -268.395684 
L 265.728644 -269.659985 
L 265.741602 -270.924287 
L 265.754326 -272.188589 
L 265.7668 -273.45289 
L 265.77901 -274.717192 
L 265.790941 -275.981493 
L 265.802583 -277.245795 
L 265.813924 -278.510096 
L 265.824953 -279.774398 
L 265.835661 -281.0387 
L 265.84604 -282.303001 
L 265.856083 -283.567303 
L 265.865783 -284.831604 
L 265.875135 -286.095906 
L 265.884135 -287.360208 
L 265.892779 -288.624509 
L 265.901064 -289.888811 
L 265.908991 -291.153112 
L 265.916558 -292.417414 
L 265.923766 -293.681715 
L 265.930618 -294.946017 
L 265.937118 -296.210319 
L 265.943268 -297.47462 
L 265.949076 -298.738922 
L 265.954547 -300.003223 
L 265.959691 -301.267525 
L 265.964516 -302.531827 
L 265.969033 -303.796128 
L 265.973253 -305.06043 
L 265.97719 -306.324731 
L 265.980857 -307.589033 
L 265.984269 -308.853334 
L 265.987442 -310.117636 
L 265.990393 -311.381938 
L 265.993139 -312.646239 
L 265.995699 -313.910541 
L 265.998091 -315.174842 
L 266.000336 -316.439144 
L 266.002452 -317.703446 
L 266.004459 -318.967747 
L 266.006379 -320.232049 
L 266.00823 -321.49635 
L 266.010033 -322.760652 
L 266.011807 -324.024953 
L 266.013571 -325.289255 
L 266.015345 -326.553557 
L 266.017145 -327.817858 
L 266.01899 -329.08216 
L 266.020894 -330.346461 
L 266.022874 -331.610763 
L 266.024943 -332.875064 
L 266.027113 -334.139366 
L 266.029397 -335.403668 
L 266.031803 -336.667969 
L 266.460014 -336.667969 
L 266.460014 -336.667969 
L 266.462421 -335.403668 
L 266.464704 -334.139366 
L 266.466875 -332.875064 
L 266.468943 -331.610763 
L 266.470923 -330.346461 
L 266.472828 -329.08216 
L 266.474672 -327.817858 
L 266.476472 -326.553557 
L 266.478246 -325.289255 
L 266.480011 -324.024953 
L 266.481785 -322.760652 
L 266.483588 -321.49635 
L 266.485439 -320.232049 
L 266.487358 -318.967747 
L 266.489366 -317.703446 
L 266.491482 -316.439144 
L 266.493726 -315.174842 
L 266.496119 -313.910541 
L 266.498678 -312.646239 
L 266.501425 -311.381938 
L 266.504376 -310.117636 
L 266.507549 -308.853334 
L 266.510961 -307.589033 
L 266.514627 -306.324731 
L 266.518564 -305.06043 
L 266.522785 -303.796128 
L 266.527301 -302.531827 
L 266.532126 -301.267525 
L 266.53727 -300.003223 
L 266.542742 -298.738922 
L 266.548549 -297.47462 
L 266.5547 -296.210319 
L 266.561199 -294.946017 
L 266.568051 -293.681715 
L 266.57526 -292.417414 
L 266.582827 -291.153112 
L 266.590753 -289.888811 
L 266.599039 -288.624509 
L 266.607683 -287.360208 
L 266.616682 -286.095906 
L 266.626034 -284.831604 
L 266.635734 -283.567303 
L 266.645777 -282.303001 
L 266.656156 -281.0387 
L 266.666864 -279.774398 
L 266.677893 -278.510096 
L 266.689234 -277.245795 
L 266.700876 -275.981493 
L 266.712808 -274.717192 
L 266.725017 -273.45289 
L 266.737491 -272.188589 
L 266.750215 -270.924287 
L 266.763174 -269.659985 
L 266.77635 -268.395684 
L 266.789725 -267.131382 
L 266.80328 -265.867081 
L 266.816995 -264.602779 
L 266.830847 -263.338477 
L 266.844812 -262.074176 
L 266.858867 -260.809874 
L 266.872983 -259.545573 
L 266.887133 -258.281271 
L 266.901286 -257.01697 
L 266.915413 -255.752668 
L 266.929478 -254.488366 
L 266.943449 -253.224065 
L 266.957288 -251.959763 
L 266.970959 -250.695462 
L 266.984422 -249.43116 
L 266.997637 -248.166858 
L 267.010563 -246.902557 
L 267.023156 -245.638255 
L 267.035375 -244.373954 
L 267.047174 -243.109652 
L 267.05851 -241.845351 
L 267.069337 -240.581049 
L 267.079611 -239.316747 
L 267.089287 -238.052446 
L 267.098322 -236.788144 
L 267.106671 -235.523843 
L 267.114294 -234.259541 
L 267.121149 -232.995239 
L 267.127198 -231.730938 
L 267.132403 -230.466636 
L 267.136729 -229.202335 
L 267.140146 -227.938033 
L 267.142623 -226.673732 
L 267.144134 -225.40943 
L 267.144656 -224.145128 
L 267.144172 -222.880827 
L 267.142665 -221.616525 
L 267.140124 -220.352224 
L 267.136543 -219.087922 
L 267.131918 -217.82362 
L 267.126252 -216.559319 
L 267.119551 -215.295017 
L 267.111825 -214.030716 
L 267.103091 -212.766414 
L 267.093366 -211.502113 
z
" id="m1b34037ddb" style="stroke:#545454;stroke-width:2.5;"/>
    </defs>
    <g clip-path="url(#pa25a7fdaed)">
     <use style="fill:#d98b5f;stroke:#545454;stroke-width:2.5;" x="0" xlink:href="#m1b34037ddb" y="503.420156"/>
    </g>
   </g>
   <g id="PolyCollection_9">
    <defs>
     <path d="M 308.53499 -211.501065 
L 287.390449 -211.501065 
L 288.409877 -212.367609 
L 290.914105 -213.234152 
L 293.7089 -214.100696 
L 295.847037 -214.967239 
L 297.063586 -215.833783 
L 297.582458 -216.700326 
L 297.734254 -217.56687 
L 297.747622 -218.433413 
L 297.730914 -219.299957 
L 297.720586 -220.1665 
L 297.721964 -221.033044 
L 297.730598 -221.899587 
L 297.741207 -222.766131 
L 297.75024 -223.632674 
L 297.755977 -224.499218 
L 297.758191 -225.365761 
L 297.757687 -226.232305 
L 297.755675 -227.098848 
L 297.75335 -227.965392 
L 297.751849 -228.831935 
L 297.752195 -229.698479 
L 297.7549 -230.565022 
L 297.759468 -231.431566 
L 297.764375 -232.298109 
L 297.76788 -233.164653 
L 297.769303 -234.031196 
L 297.769695 -234.89774 
L 297.771037 -235.764283 
L 297.77465 -236.630827 
L 297.780428 -237.497371 
L 297.787502 -238.363914 
L 297.795202 -239.230458 
L 297.803303 -240.097001 
L 297.811779 -240.963545 
L 297.820596 -241.830088 
L 297.829467 -242.696632 
L 297.837655 -243.563175 
L 297.844237 -244.429719 
L 297.848868 -245.296262 
L 297.852327 -246.162806 
L 297.856193 -247.029349 
L 297.861778 -247.895893 
L 297.869193 -248.762436 
L 297.8773 -249.62898 
L 297.884535 -250.495523 
L 297.889895 -251.362067 
L 297.893377 -252.22861 
L 297.895649 -253.095154 
L 297.897358 -253.961697 
L 297.898741 -254.828241 
L 297.899824 -255.694784 
L 297.900856 -256.561328 
L 297.90228 -257.427871 
L 297.904238 -258.294415 
L 297.906239 -259.160958 
L 297.907495 -260.027502 
L 297.907592 -260.894045 
L 297.90679 -261.760589 
L 297.905761 -262.627132 
L 297.905179 -263.493676 
L 297.905491 -264.360219 
L 297.906799 -265.226763 
L 297.908801 -266.093306 
L 297.911019 -266.95985 
L 297.913258 -267.826393 
L 297.915748 -268.692937 
L 297.918719 -269.55948 
L 297.921931 -270.426024 
L 297.924738 -271.292567 
L 297.926564 -272.159111 
L 297.927234 -273.025654 
L 297.926911 -273.892198 
L 297.925825 -274.758741 
L 297.924147 -275.625285 
L 297.922086 -276.491828 
L 297.919951 -277.358372 
L 297.91795 -278.224915 
L 297.915995 -279.091459 
L 297.913863 -279.958002 
L 297.91151 -280.824546 
L 297.909114 -281.691089 
L 297.906968 -282.557633 
L 297.905574 -283.424176 
L 297.905681 -284.29072 
L 297.907845 -285.157263 
L 297.911848 -286.023807 
L 297.916667 -286.89035 
L 297.921035 -287.756894 
L 297.923909 -288.623437 
L 297.924488 -289.489981 
L 297.92214 -290.356524 
L 297.916697 -291.223068 
L 297.909058 -292.089611 
L 297.901475 -292.956155 
L 297.896985 -293.822698 
L 297.898128 -294.689242 
L 297.905658 -295.555785 
L 297.918038 -296.422329 
L 297.932096 -297.288872 
L 297.993343 -297.288872 
L 297.993343 -297.288872 
L 298.007401 -296.422329 
L 298.019781 -295.555785 
L 298.027312 -294.689242 
L 298.028454 -293.822698 
L 298.023965 -292.956155 
L 298.016382 -292.089611 
L 298.008743 -291.223068 
L 298.003299 -290.356524 
L 298.000952 -289.489981 
L 298.001531 -288.623437 
L 298.004404 -287.756894 
L 298.008773 -286.89035 
L 298.013592 -286.023807 
L 298.017595 -285.157263 
L 298.019759 -284.29072 
L 298.019866 -283.424176 
L 298.018472 -282.557633 
L 298.016325 -281.691089 
L 298.013929 -280.824546 
L 298.011577 -279.958002 
L 298.009444 -279.091459 
L 298.007489 -278.224915 
L 298.005489 -277.358372 
L 298.003354 -276.491828 
L 298.001293 -275.625285 
L 297.999615 -274.758741 
L 297.998529 -273.892198 
L 297.998205 -273.025654 
L 297.998876 -272.159111 
L 298.000702 -271.292567 
L 298.003509 -270.426024 
L 298.006721 -269.55948 
L 298.009692 -268.692937 
L 298.012181 -267.826393 
L 298.01442 -266.95985 
L 298.016639 -266.093306 
L 298.01864 -265.226763 
L 298.019948 -264.360219 
L 298.020261 -263.493676 
L 298.019678 -262.627132 
L 298.01865 -261.760589 
L 298.017848 -260.894045 
L 298.017945 -260.027502 
L 298.019201 -259.160958 
L 298.021201 -258.294415 
L 298.02316 -257.427871 
L 298.024584 -256.561328 
L 298.025615 -255.694784 
L 298.026699 -254.828241 
L 298.028081 -253.961697 
L 298.029791 -253.095154 
L 298.032063 -252.22861 
L 298.035545 -251.362067 
L 298.040905 -250.495523 
L 298.048139 -249.62898 
L 298.056247 -248.762436 
L 298.063661 -247.895893 
L 298.069246 -247.029349 
L 298.073113 -246.162806 
L 298.076572 -245.296262 
L 298.081202 -244.429719 
L 298.087784 -243.563175 
L 298.095973 -242.696632 
L 298.104844 -241.830088 
L 298.113661 -240.963545 
L 298.122137 -240.097001 
L 298.130238 -239.230458 
L 298.137938 -238.363914 
L 298.145012 -237.497371 
L 298.15079 -236.630827 
L 298.154403 -235.764283 
L 298.155745 -234.89774 
L 298.156136 -234.031196 
L 298.15756 -233.164653 
L 298.161064 -232.298109 
L 298.165972 -231.431566 
L 298.17054 -230.565022 
L 298.173244 -229.698479 
L 298.17359 -228.831935 
L 298.17209 -227.965392 
L 298.169765 -227.098848 
L 298.167752 -226.232305 
L 298.167249 -225.365761 
L 298.169463 -224.499218 
L 298.175199 -223.632674 
L 298.184233 -222.766131 
L 298.194842 -221.899587 
L 298.203476 -221.033044 
L 298.204853 -220.1665 
L 298.194526 -219.299957 
L 298.177818 -218.433413 
L 298.191186 -217.56687 
L 298.342982 -216.700326 
L 298.861854 -215.833783 
L 300.078403 -214.967239 
L 302.216539 -214.100696 
L 305.011334 -213.234152 
L 307.515562 -212.367609 
L 308.53499 -211.501065 
z
" id="m7417349c5f" style="stroke:#545454;stroke-width:2.5;"/>
    </defs>
    <g clip-path="url(#pa25a7fdaed)">
     <use style="fill:#597dbf;stroke:#545454;stroke-width:2.5;" x="0" xlink:href="#m7417349c5f" y="503.420156"/>
    </g>
   </g>
   <g id="PolyCollection_10">
    <defs>
     <path d="M 319.952401 -211.50165 
L 318.262121 -211.50165 
L 318.252217 -212.232288 
L 318.243272 -212.962925 
L 318.235304 -213.693563 
L 318.228327 -214.424201 
L 318.222349 -215.154838 
L 318.217375 -215.885476 
L 318.213405 -216.616114 
L 318.210437 -217.346752 
L 318.208462 -218.077389 
L 318.207468 -218.808027 
L 318.207441 -219.538665 
L 318.208361 -220.269302 
L 318.210207 -220.99994 
L 318.212954 -221.730578 
L 318.216573 -222.461216 
L 318.221035 -223.191853 
L 318.226306 -223.922491 
L 318.232353 -224.653129 
L 318.23914 -225.383767 
L 318.24663 -226.114404 
L 318.254783 -226.845042 
L 318.263562 -227.57568 
L 318.272927 -228.306317 
L 318.282837 -229.036955 
L 318.293254 -229.767593 
L 318.304137 -230.498231 
L 318.315448 -231.228868 
L 318.327148 -231.959506 
L 318.339199 -232.690144 
L 318.351564 -233.420781 
L 318.364208 -234.151419 
L 318.377094 -234.882057 
L 318.39019 -235.612695 
L 318.403463 -236.343332 
L 318.416881 -237.07397 
L 318.430415 -237.804608 
L 318.444034 -238.535246 
L 318.457712 -239.265883 
L 318.471421 -239.996521 
L 318.485136 -240.727159 
L 318.498833 -241.457796 
L 318.512487 -242.188434 
L 318.526077 -242.919072 
L 318.539581 -243.64971 
L 318.552977 -244.380347 
L 318.566246 -245.110985 
L 318.579369 -245.841623 
L 318.592327 -246.57226 
L 318.605103 -247.302898 
L 318.617678 -248.033536 
L 318.630037 -248.764174 
L 318.642164 -249.494811 
L 318.654043 -250.225449 
L 318.66566 -250.956087 
L 318.677001 -251.686725 
L 318.688053 -252.417362 
L 318.698804 -253.148 
L 318.709242 -253.878638 
L 318.719356 -254.609275 
L 318.729138 -255.339913 
L 318.738578 -256.070551 
L 318.74767 -256.801189 
L 318.756406 -257.531826 
L 318.764782 -258.262464 
L 318.772794 -258.993102 
L 318.78044 -259.723739 
L 318.787719 -260.454377 
L 318.794631 -261.185015 
L 318.801179 -261.915653 
L 318.807366 -262.64629 
L 318.813198 -263.376928 
L 318.818682 -264.107566 
L 318.823825 -264.838204 
L 318.828637 -265.568841 
L 318.833131 -266.299479 
L 318.837319 -267.030117 
L 318.841216 -267.760754 
L 318.844836 -268.491392 
L 318.848197 -269.22203 
L 318.851317 -269.952668 
L 318.854214 -270.683305 
L 318.856909 -271.413943 
L 318.859422 -272.144581 
L 318.861774 -272.875218 
L 318.863986 -273.605856 
L 318.866081 -274.336494 
L 318.86808 -275.067132 
L 318.870005 -275.797769 
L 318.871878 -276.528407 
L 318.873719 -277.259045 
L 318.875551 -277.989683 
L 318.877391 -278.72032 
L 318.879261 -279.450958 
L 318.881177 -280.181596 
L 318.883158 -280.912233 
L 318.885218 -281.642871 
L 318.887372 -282.373509 
L 318.889634 -283.104147 
L 318.892014 -283.834784 
L 319.322507 -283.834784 
L 319.322507 -283.834784 
L 319.324888 -283.104147 
L 319.327149 -282.373509 
L 319.329304 -281.642871 
L 319.331364 -280.912233 
L 319.333344 -280.181596 
L 319.33526 -279.450958 
L 319.33713 -278.72032 
L 319.338971 -277.989683 
L 319.340802 -277.259045 
L 319.342644 -276.528407 
L 319.344516 -275.797769 
L 319.346441 -275.067132 
L 319.34844 -274.336494 
L 319.350535 -273.605856 
L 319.352748 -272.875218 
L 319.355099 -272.144581 
L 319.357612 -271.413943 
L 319.360307 -270.683305 
L 319.363205 -269.952668 
L 319.366324 -269.22203 
L 319.369685 -268.491392 
L 319.373306 -267.760754 
L 319.377202 -267.030117 
L 319.38139 -266.299479 
L 319.385884 -265.568841 
L 319.390697 -264.838204 
L 319.39584 -264.107566 
L 319.401323 -263.376928 
L 319.407155 -262.64629 
L 319.413342 -261.915653 
L 319.41989 -261.185015 
L 319.426802 -260.454377 
L 319.434081 -259.723739 
L 319.441727 -258.993102 
L 319.449739 -258.262464 
L 319.458115 -257.531826 
L 319.466852 -256.801189 
L 319.475943 -256.070551 
L 319.485383 -255.339913 
L 319.495165 -254.609275 
L 319.50528 -253.878638 
L 319.515718 -253.148 
L 319.526468 -252.417362 
L 319.53752 -251.686725 
L 319.548862 -250.956087 
L 319.560479 -250.225449 
L 319.572358 -249.494811 
L 319.584484 -248.764174 
L 319.596843 -248.033536 
L 319.609419 -247.302898 
L 319.622194 -246.57226 
L 319.635152 -245.841623 
L 319.648275 -245.110985 
L 319.661544 -244.380347 
L 319.674941 -243.64971 
L 319.688444 -242.919072 
L 319.702034 -242.188434 
L 319.715689 -241.457796 
L 319.729385 -240.727159 
L 319.7431 -239.996521 
L 319.75681 -239.265883 
L 319.770487 -238.535246 
L 319.784107 -237.804608 
L 319.79764 -237.07397 
L 319.811058 -236.343332 
L 319.824331 -235.612695 
L 319.837427 -234.882057 
L 319.850314 -234.151419 
L 319.862957 -233.420781 
L 319.875322 -232.690144 
L 319.887373 -231.959506 
L 319.899073 -231.228868 
L 319.910384 -230.498231 
L 319.921267 -229.767593 
L 319.931684 -229.036955 
L 319.941594 -228.306317 
L 319.950959 -227.57568 
L 319.959738 -226.845042 
L 319.967892 -226.114404 
L 319.975381 -225.383767 
L 319.982168 -224.653129 
L 319.988215 -223.922491 
L 319.993487 -223.191853 
L 319.997948 -222.461216 
L 320.001568 -221.730578 
L 320.004314 -220.99994 
L 320.00616 -220.269302 
L 320.00708 -219.538665 
L 320.007053 -218.808027 
L 320.00606 -218.077389 
L 320.004085 -217.346752 
L 320.001116 -216.616114 
L 319.997147 -215.885476 
L 319.992173 -215.154838 
L 319.986195 -214.424201 
L 319.979217 -213.693563 
L 319.971249 -212.962925 
L 319.962305 -212.232288 
L 319.952401 -211.50165 
z
" id="mce19118ee9" style="stroke:#545454;stroke-width:2.5;"/>
    </defs>
    <g clip-path="url(#pa25a7fdaed)">
     <use style="fill:#d98b5f;stroke:#545454;stroke-width:2.5;" x="0" xlink:href="#mce19118ee9" y="503.420156"/>
    </g>
   </g>
   <g id="patch_3">
    <path clip-path="url(#pa25a7fdaed)" d="M 97.089582 291.919091 
L 97.089582 291.919091 
L 97.089582 291.919091 
L 97.089582 291.919091 
z
" style="fill:#597dbf;stroke:#545454;stroke-linejoin:miter;stroke-width:1.25;"/>
   </g>
   <g id="patch_4">
    <path clip-path="url(#pa25a7fdaed)" d="M 97.089582 291.919091 
L 97.089582 291.919091 
L 97.089582 291.919091 
L 97.089582 291.919091 
z
" style="fill:#d98b5f;stroke:#545454;stroke-linejoin:miter;stroke-width:1.25;"/>
   </g>
   <g id="line2d_1">
    <path clip-path="url(#pa25a7fdaed)" d="M 86.517312 291.919091 
L 86.517312 291.919091 
" style="fill:none;stroke:#545454;stroke-linecap:round;stroke-width:2.5;"/>
   </g>
   <g id="line2d_2">
    <path clip-path="url(#pa25a7fdaed)" d="M 86.517312 291.919091 
L 86.517312 291.919091 
" style="fill:none;stroke:#545454;stroke-linecap:round;stroke-width:7.5;"/>
   </g>
   <g id="line2d_3">
    <path clip-path="url(#pa25a7fdaed)" d="M 107.661853 291.917435 
L 107.661853 82.400866 
" style="fill:none;stroke:#545454;stroke-linecap:round;stroke-width:2.5;"/>
   </g>
   <g id="line2d_4">
    <path clip-path="url(#pa25a7fdaed)" d="M 107.661853 285.113369 
L 107.661853 188.980253 
" style="fill:none;stroke:#545454;stroke-linecap:round;stroke-width:7.5;"/>
   </g>
   <g id="line2d_5">
    <path clip-path="url(#pa25a7fdaed)" d="M 139.378664 291.919091 
L 139.378664 291.919091 
" style="fill:none;stroke:#545454;stroke-linecap:round;stroke-width:2.5;"/>
   </g>
   <g id="line2d_6">
    <path clip-path="url(#pa25a7fdaed)" d="M 139.378664 291.919091 
L 139.378664 291.919091 
" style="fill:none;stroke:#545454;stroke-linecap:round;stroke-width:7.5;"/>
   </g>
   <g id="line2d_7">
    <path clip-path="url(#pa25a7fdaed)" d="M 160.523205 291.918044 
L 160.523205 159.062149 
" style="fill:none;stroke:#545454;stroke-linecap:round;stroke-width:2.5;"/>
   </g>
   <g id="line2d_8">
    <path clip-path="url(#pa25a7fdaed)" d="M 160.523205 287.615836 
L 160.523205 226.756933 
" style="fill:none;stroke:#545454;stroke-linecap:round;stroke-width:7.5;"/>
   </g>
   <g id="line2d_9">
    <path clip-path="url(#pa25a7fdaed)" d="M 192.240016 291.919091 
L 192.240016 291.919091 
" style="fill:none;stroke:#545454;stroke-linecap:round;stroke-width:2.5;"/>
   </g>
   <g id="line2d_10">
    <path clip-path="url(#pa25a7fdaed)" d="M 192.240016 291.919091 
L 192.240016 291.919091 
" style="fill:none;stroke:#545454;stroke-linecap:round;stroke-width:7.5;"/>
   </g>
   <g id="line2d_11">
    <path clip-path="url(#pa25a7fdaed)" d="M 213.384557 291.917435 
L 213.384557 193.304043 
" style="fill:none;stroke:#545454;stroke-linecap:round;stroke-width:2.5;"/>
   </g>
   <g id="line2d_12">
    <path clip-path="url(#pa25a7fdaed)" d="M 213.384557 288.931067 
L 213.384557 217.082783 
" style="fill:none;stroke:#545454;stroke-linecap:round;stroke-width:7.5;"/>
   </g>
   <g id="line2d_13">
    <path clip-path="url(#pa25a7fdaed)" d="M 245.101368 291.919091 
L 245.101368 291.919091 
" style="fill:none;stroke:#545454;stroke-linecap:round;stroke-width:2.5;"/>
   </g>
   <g id="line2d_14">
    <path clip-path="url(#pa25a7fdaed)" d="M 245.101368 291.919091 
L 245.101368 291.919091 
" style="fill:none;stroke:#545454;stroke-linecap:round;stroke-width:7.5;"/>
   </g>
   <g id="line2d_15">
    <path clip-path="url(#pa25a7fdaed)" d="M 266.245909 291.918044 
L 266.245909 229.358391 
" style="fill:none;stroke:#545454;stroke-linecap:round;stroke-width:2.5;"/>
   </g>
   <g id="line2d_16">
    <path clip-path="url(#pa25a7fdaed)" d="M 266.245909 289.54003 
L 266.245909 242.578244 
" style="fill:none;stroke:#545454;stroke-linecap:round;stroke-width:7.5;"/>
   </g>
   <g id="line2d_17">
    <path clip-path="url(#pa25a7fdaed)" d="M 297.96272 291.919091 
L 297.96272 291.919091 
" style="fill:none;stroke:#545454;stroke-linecap:round;stroke-width:2.5;"/>
   </g>
   <g id="line2d_18">
    <path clip-path="url(#pa25a7fdaed)" d="M 297.96272 291.919091 
L 297.96272 291.919091 
" style="fill:none;stroke:#545454;stroke-linecap:round;stroke-width:7.5;"/>
   </g>
   <g id="line2d_19">
    <path clip-path="url(#pa25a7fdaed)" d="M 319.107261 291.918506 
L 319.107261 257.111449 
" style="fill:none;stroke:#545454;stroke-linecap:round;stroke-width:2.5;"/>
   </g>
   <g id="line2d_20">
    <path clip-path="url(#pa25a7fdaed)" d="M 319.107261 290.401152 
L 319.107261 262.545161 
" style="fill:none;stroke:#545454;stroke-linecap:round;stroke-width:7.5;"/>
   </g>
   <g id="patch_5">
    <path d="M 70.658906 304.3 
L 334.965666 304.3 
" style="fill:none;stroke:#262626;stroke-linecap:square;stroke-linejoin:miter;stroke-width:1.875;"/>
   </g>
   <g id="PathCollection_1">
    <defs>
     <path d="M 0 2.5 
C 0.663008 2.5 1.29895 2.236584 1.767767 1.767767 
C 2.236584 1.29895 2.5 0.663008 2.5 0 
C 2.5 -0.663008 2.236584 -1.29895 1.767767 -1.767767 
C 1.29895 -2.236584 0.663008 -2.5 0 -2.5 
C -0.663008 -2.5 -1.29895 -2.236584 -1.767767 -1.767767 
C -2.236584 -1.29895 -2.5 -0.663008 -2.5 0 
C -2.5 0.663008 -2.236584 1.29895 -1.767767 1.767767 
C -1.29895 2.236584 -0.663008 2.5 0 2.5 
z
" id="m6004f7dddc" style="stroke:#545454;stroke-width:1.5;"/>
    </defs>
    <g clip-path="url(#pa25a7fdaed)">
     <use style="fill:#ffffff;stroke:#545454;stroke-width:1.5;" x="86.517312" xlink:href="#m6004f7dddc" y="291.919091"/>
    </g>
   </g>
   <g id="PathCollection_2">
    <g clip-path="url(#pa25a7fdaed)">
     <use style="fill:#ffffff;stroke:#545454;stroke-width:1.5;" x="107.661853" xlink:href="#m6004f7dddc" y="273.021576"/>
    </g>
   </g>
   <g id="PathCollection_3">
    <g clip-path="url(#pa25a7fdaed)">
     <use style="fill:#ffffff;stroke:#545454;stroke-width:1.5;" x="139.378664" xlink:href="#m6004f7dddc" y="291.919091"/>
    </g>
   </g>
   <g id="PathCollection_4">
    <g clip-path="url(#pa25a7fdaed)">
     <use style="fill:#ffffff;stroke:#545454;stroke-width:1.5;" x="160.523205" xlink:href="#m6004f7dddc" y="279.958482"/>
    </g>
   </g>
   <g id="PathCollection_5">
    <g clip-path="url(#pa25a7fdaed)">
     <use style="fill:#ffffff;stroke:#545454;stroke-width:1.5;" x="192.240016" xlink:href="#m6004f7dddc" y="291.919091"/>
    </g>
   </g>
   <g id="PathCollection_6">
    <g clip-path="url(#pa25a7fdaed)">
     <use style="fill:#ffffff;stroke:#545454;stroke-width:1.5;" x="213.384557" xlink:href="#m6004f7dddc" y="273.826226"/>
    </g>
   </g>
   <g id="PathCollection_7">
    <g clip-path="url(#pa25a7fdaed)">
     <use style="fill:#ffffff;stroke:#545454;stroke-width:1.5;" x="245.101368" xlink:href="#m6004f7dddc" y="291.919091"/>
    </g>
   </g>
   <g id="PathCollection_8">
    <g clip-path="url(#pa25a7fdaed)">
     <use style="fill:#ffffff;stroke:#545454;stroke-width:1.5;" x="266.245909" xlink:href="#m6004f7dddc" y="280.254415"/>
    </g>
   </g>
   <g id="PathCollection_9">
    <g clip-path="url(#pa25a7fdaed)">
     <use style="fill:#ffffff;stroke:#545454;stroke-width:1.5;" x="297.96272" xlink:href="#m6004f7dddc" y="291.919091"/>
    </g>
   </g>
   <g id="PathCollection_10">
    <g clip-path="url(#pa25a7fdaed)">
     <use style="fill:#ffffff;stroke:#545454;stroke-width:1.5;" x="319.107261" xlink:href="#m6004f7dddc" y="285.304728"/>
    </g>
   </g>
  </g>
  <g id="text_15">
   <!-- ALF -->
   <g style="fill:#262626;" transform="translate(197.884079 16.412625)scale(0.216 -0.216)">
    <defs>
     <path d="M 34.1875 63.1875 
L 20.796875 26.90625 
L 47.609375 26.90625 
z
M 28.609375 72.90625 
L 39.796875 72.90625 
L 67.578125 0 
L 57.328125 0 
L 50.6875 18.703125 
L 17.828125 18.703125 
L 11.1875 0 
L 0.78125 0 
z
" id="DejaVuSans-65"/>
     <path d="M 9.8125 72.90625 
L 51.703125 72.90625 
L 51.703125 64.59375 
L 19.671875 64.59375 
L 19.671875 43.109375 
L 48.578125 43.109375 
L 48.578125 34.8125 
L 19.671875 34.8125 
L 19.671875 0 
L 9.8125 0 
z
" id="DejaVuSans-70"/>
    </defs>
    <use xlink:href="#DejaVuSans-65"/>
    <use x="68.408203" xlink:href="#DejaVuSans-76"/>
    <use x="124.121094" xlink:href="#DejaVuSans-70"/>
   </g>
  </g>
  <g id="legend_1">
   <g id="patch_6">
    <path d="M 329.868376 244.153594 
L 362.868376 244.153594 
L 362.868376 232.603594 
L 329.868376 232.603594 
z
" style="fill:#597dbf;stroke:#545454;stroke-linejoin:miter;stroke-width:1.25;"/>
   </g>
   <g id="text_16">
    <!-- actual -->
    <g style="fill:#262626;" transform="translate(376.068376 244.153594)scale(0.165 -0.165)">
     <defs>
      <path d="M 48.78125 52.59375 
L 48.78125 44.1875 
Q 44.96875 46.296875 41.140625 47.34375 
Q 37.3125 48.390625 33.40625 48.390625 
Q 24.65625 48.390625 19.8125 42.84375 
Q 14.984375 37.3125 14.984375 27.296875 
Q 14.984375 17.28125 19.8125 11.734375 
Q 24.65625 6.203125 33.40625 6.203125 
Q 37.3125 6.203125 41.140625 7.25 
Q 44.96875 8.296875 48.78125 10.40625 
L 48.78125 2.09375 
Q 45.015625 0.34375 40.984375 -0.53125 
Q 36.96875 -1.421875 32.421875 -1.421875 
Q 20.0625 -1.421875 12.78125 6.34375 
Q 5.515625 14.109375 5.515625 27.296875 
Q 5.515625 40.671875 12.859375 48.328125 
Q 20.21875 56 33.015625 56 
Q 37.15625 56 41.109375 55.140625 
Q 45.0625 54.296875 48.78125 52.59375 
z
" id="DejaVuSans-99"/>
      <path d="M 8.5 21.578125 
L 8.5 54.6875 
L 17.484375 54.6875 
L 17.484375 21.921875 
Q 17.484375 14.15625 20.5 10.265625 
Q 23.53125 6.390625 29.59375 6.390625 
Q 36.859375 6.390625 41.078125 11.03125 
Q 45.3125 15.671875 45.3125 23.6875 
L 45.3125 54.6875 
L 54.296875 54.6875 
L 54.296875 0 
L 45.3125 0 
L 45.3125 8.40625 
Q 42.046875 3.421875 37.71875 1 
Q 33.40625 -1.421875 27.6875 -1.421875 
Q 18.265625 -1.421875 13.375 4.4375 
Q 8.5 10.296875 8.5 21.578125 
z
M 31.109375 56 
z
" id="DejaVuSans-117"/>
     </defs>
     <use xlink:href="#DejaVuSans-97"/>
     <use x="61.279297" xlink:href="#DejaVuSans-99"/>
     <use x="116.259766" xlink:href="#DejaVuSans-116"/>
     <use x="155.46875" xlink:href="#DejaVuSans-117"/>
     <use x="218.847656" xlink:href="#DejaVuSans-97"/>
     <use x="280.126953" xlink:href="#DejaVuSans-108"/>
    </g>
   </g>
   <g id="patch_7">
    <path d="M 329.868376 268.3725 
L 362.868376 268.3725 
L 362.868376 256.8225 
L 329.868376 256.8225 
z
" style="fill:#d98b5f;stroke:#545454;stroke-linejoin:miter;stroke-width:1.25;"/>
   </g>
   <g id="text_17">
    <!-- cluster -->
    <g style="fill:#262626;" transform="translate(376.068376 268.3725)scale(0.165 -0.165)">
     <defs>
      <path d="M 44.28125 53.078125 
L 44.28125 44.578125 
Q 40.484375 46.53125 36.375 47.5 
Q 32.28125 48.484375 27.875 48.484375 
Q 21.1875 48.484375 17.84375 46.4375 
Q 14.5 44.390625 14.5 40.28125 
Q 14.5 37.15625 16.890625 35.375 
Q 19.28125 33.59375 26.515625 31.984375 
L 29.59375 31.296875 
Q 39.15625 29.25 43.1875 25.515625 
Q 47.21875 21.78125 47.21875 15.09375 
Q 47.21875 7.46875 41.1875 3.015625 
Q 35.15625 -1.421875 24.609375 -1.421875 
Q 20.21875 -1.421875 15.453125 -0.5625 
Q 10.6875 0.296875 5.421875 2 
L 5.421875 11.28125 
Q 10.40625 8.6875 15.234375 7.390625 
Q 20.0625 6.109375 24.8125 6.109375 
Q 31.15625 6.109375 34.5625 8.28125 
Q 37.984375 10.453125 37.984375 14.40625 
Q 37.984375 18.0625 35.515625 20.015625 
Q 33.0625 21.96875 24.703125 23.78125 
L 21.578125 24.515625 
Q 13.234375 26.265625 9.515625 29.90625 
Q 5.8125 33.546875 5.8125 39.890625 
Q 5.8125 47.609375 11.28125 51.796875 
Q 16.75 56 26.8125 56 
Q 31.78125 56 36.171875 55.265625 
Q 40.578125 54.546875 44.28125 53.078125 
z
" id="DejaVuSans-115"/>
     </defs>
     <use xlink:href="#DejaVuSans-99"/>
     <use x="54.980469" xlink:href="#DejaVuSans-108"/>
     <use x="82.763672" xlink:href="#DejaVuSans-117"/>
     <use x="146.142578" xlink:href="#DejaVuSans-115"/>
     <use x="198.242188" xlink:href="#DejaVuSans-116"/>
     <use x="237.451172" xlink:href="#DejaVuSans-101"/>
     <use x="298.974609" xlink:href="#DejaVuSans-114"/>
    </g>
   </g>
  </g>
 </g>
 <defs>
  <clipPath id="pa25a7fdaed">
   <rect height="272.38" width="264.30676" x="70.658906" y="31.92"/>
  </clipPath>
 </defs>
</svg>
