<?xml version="1.0" encoding="utf-8" standalone="no"?>
<!DOCTYPE svg PUBLIC "-//W3C//DTD SVG 1.1//EN"
  "http://www.w3.org/Graphics/SVG/1.1/DTD/svg11.dtd">
<!-- Created with matplotlib (https://matplotlib.org/) -->
<svg height="503.420156pt" version="1.1" viewBox="0 0 450.443271 503.420156" width="450.443271pt" xmlns="http://www.w3.org/2000/svg" xmlns:xlink="http://www.w3.org/1999/xlink">
 <metadata>
  <rdf:RDF xmlns:cc="http://creativecommons.org/ns#" xmlns:dc="http://purl.org/dc/elements/1.1/" xmlns:rdf="http://www.w3.org/1999/02/22-rdf-syntax-ns#">
   <cc:Work>
    <dc:type rdf:resource="http://purl.org/dc/dcmitype/StillImage"/>
    <dc:date>2021-01-22T11:01:15.915996</dc:date>
    <dc:format>image/svg+xml</dc:format>
    <dc:creator>
     <cc:Agent>
      <dc:title>Matplotlib v3.3.2, https://matplotlib.org/</dc:title>
     </cc:Agent>
    </dc:creator>
   </cc:Work>
  </rdf:RDF>
 </metadata>
 <defs>
  <style type="text/css">*{stroke-linecap:butt;stroke-linejoin:round;}</style>
 </defs>
 <g id="figure_1">
  <g id="patch_1">
   <path d="M 0 503.420156 
L 450.443271 503.420156 
L 450.443271 0 
L 0 0 
z
" style="fill:#ffffff;"/>
  </g>
  <g id="axes_1">
   <g id="patch_2">
    <path d="M 60.160781 304.3 
L 338.377671 304.3 
L 338.377671 31.92 
L 60.160781 31.92 
z
" style="fill:#ffffff;"/>
   </g>
   <g id="matplotlib.axis_1">
    <g id="xtick_1">
     <g id="text_1">
      <!-- Irrigation High -->
      <g style="fill:#262626;" transform="translate(92.535439 434.888437)rotate(-90)scale(0.165 -0.165)">
       <defs>
        <path d="M 9.8125 72.90625 
L 19.671875 72.90625 
L 19.671875 0 
L 9.8125 0 
z
" id="DejaVuSans-73"/>
        <path d="M 41.109375 46.296875 
Q 39.59375 47.171875 37.8125 47.578125 
Q 36.03125 48 33.890625 48 
Q 26.265625 48 22.1875 43.046875 
Q 18.109375 38.09375 18.109375 28.8125 
L 18.109375 0 
L 9.078125 0 
L 9.078125 54.6875 
L 18.109375 54.6875 
L 18.109375 46.1875 
Q 20.953125 51.171875 25.484375 53.578125 
Q 30.03125 56 36.53125 56 
Q 37.453125 56 38.578125 55.875 
Q 39.703125 55.765625 41.0625 55.515625 
z
" id="DejaVuSans-114"/>
        <path d="M 9.421875 54.6875 
L 18.40625 54.6875 
L 18.40625 0 
L 9.421875 0 
z
M 9.421875 75.984375 
L 18.40625 75.984375 
L 18.40625 64.59375 
L 9.421875 64.59375 
z
" id="DejaVuSans-105"/>
        <path d="M 45.40625 27.984375 
Q 45.40625 37.75 41.375 43.109375 
Q 37.359375 48.484375 30.078125 48.484375 
Q 22.859375 48.484375 18.828125 43.109375 
Q 14.796875 37.75 14.796875 27.984375 
Q 14.796875 18.265625 18.828125 12.890625 
Q 22.859375 7.515625 30.078125 7.515625 
Q 37.359375 7.515625 41.375 12.890625 
Q 45.40625 18.265625 45.40625 27.984375 
z
M 54.390625 6.78125 
Q 54.390625 -7.171875 48.1875 -13.984375 
Q 42 -20.796875 29.203125 -20.796875 
Q 24.46875 -20.796875 20.265625 -20.09375 
Q 16.0625 -19.390625 12.109375 -17.921875 
L 12.109375 -9.1875 
Q 16.0625 -11.328125 19.921875 -12.34375 
Q 23.78125 -13.375 27.78125 -13.375 
Q 36.625 -13.375 41.015625 -8.765625 
Q 45.40625 -4.15625 45.40625 5.171875 
L 45.40625 9.625 
Q 42.625 4.78125 38.28125 2.390625 
Q 33.9375 0 27.875 0 
Q 17.828125 0 11.671875 7.65625 
Q 5.515625 15.328125 5.515625 27.984375 
Q 5.515625 40.671875 11.671875 48.328125 
Q 17.828125 56 27.875 56 
Q 33.9375 56 38.28125 53.609375 
Q 42.625 51.21875 45.40625 46.390625 
L 45.40625 54.6875 
L 54.390625 54.6875 
z
" id="DejaVuSans-103"/>
        <path d="M 34.28125 27.484375 
Q 23.390625 27.484375 19.1875 25 
Q 14.984375 22.515625 14.984375 16.5 
Q 14.984375 11.71875 18.140625 8.90625 
Q 21.296875 6.109375 26.703125 6.109375 
Q 34.1875 6.109375 38.703125 11.40625 
Q 43.21875 16.703125 43.21875 25.484375 
L 43.21875 27.484375 
z
M 52.203125 31.203125 
L 52.203125 0 
L 43.21875 0 
L 43.21875 8.296875 
Q 40.140625 3.328125 35.546875 0.953125 
Q 30.953125 -1.421875 24.3125 -1.421875 
Q 15.921875 -1.421875 10.953125 3.296875 
Q 6 8.015625 6 15.921875 
Q 6 25.140625 12.171875 29.828125 
Q 18.359375 34.515625 30.609375 34.515625 
L 43.21875 34.515625 
L 43.21875 35.40625 
Q 43.21875 41.609375 39.140625 45 
Q 35.0625 48.390625 27.6875 48.390625 
Q 23 48.390625 18.546875 47.265625 
Q 14.109375 46.140625 10.015625 43.890625 
L 10.015625 52.203125 
Q 14.9375 54.109375 19.578125 55.046875 
Q 24.21875 56 28.609375 56 
Q 40.484375 56 46.34375 49.84375 
Q 52.203125 43.703125 52.203125 31.203125 
z
" id="DejaVuSans-97"/>
        <path d="M 18.3125 70.21875 
L 18.3125 54.6875 
L 36.8125 54.6875 
L 36.8125 47.703125 
L 18.3125 47.703125 
L 18.3125 18.015625 
Q 18.3125 11.328125 20.140625 9.421875 
Q 21.96875 7.515625 27.59375 7.515625 
L 36.8125 7.515625 
L 36.8125 0 
L 27.59375 0 
Q 17.1875 0 13.234375 3.875 
Q 9.28125 7.765625 9.28125 18.015625 
L 9.28125 47.703125 
L 2.6875 47.703125 
L 2.6875 54.6875 
L 9.28125 54.6875 
L 9.28125 70.21875 
z
" id="DejaVuSans-116"/>
        <path d="M 30.609375 48.390625 
Q 23.390625 48.390625 19.1875 42.75 
Q 14.984375 37.109375 14.984375 27.296875 
Q 14.984375 17.484375 19.15625 11.84375 
Q 23.34375 6.203125 30.609375 6.203125 
Q 37.796875 6.203125 41.984375 11.859375 
Q 46.1875 17.53125 46.1875 27.296875 
Q 46.1875 37.015625 41.984375 42.703125 
Q 37.796875 48.390625 30.609375 48.390625 
z
M 30.609375 56 
Q 42.328125 56 49.015625 48.375 
Q 55.71875 40.765625 55.71875 27.296875 
Q 55.71875 13.875 49.015625 6.21875 
Q 42.328125 -1.421875 30.609375 -1.421875 
Q 18.84375 -1.421875 12.171875 6.21875 
Q 5.515625 13.875 5.515625 27.296875 
Q 5.515625 40.765625 12.171875 48.375 
Q 18.84375 56 30.609375 56 
z
" id="DejaVuSans-111"/>
        <path d="M 54.890625 33.015625 
L 54.890625 0 
L 45.90625 0 
L 45.90625 32.71875 
Q 45.90625 40.484375 42.875 44.328125 
Q 39.84375 48.1875 33.796875 48.1875 
Q 26.515625 48.1875 22.3125 43.546875 
Q 18.109375 38.921875 18.109375 30.90625 
L 18.109375 0 
L 9.078125 0 
L 9.078125 54.6875 
L 18.109375 54.6875 
L 18.109375 46.1875 
Q 21.34375 51.125 25.703125 53.5625 
Q 30.078125 56 35.796875 56 
Q 45.21875 56 50.046875 50.171875 
Q 54.890625 44.34375 54.890625 33.015625 
z
" id="DejaVuSans-110"/>
        <path id="DejaVuSans-32"/>
        <path d="M 9.8125 72.90625 
L 19.671875 72.90625 
L 19.671875 43.015625 
L 55.515625 43.015625 
L 55.515625 72.90625 
L 65.375 72.90625 
L 65.375 0 
L 55.515625 0 
L 55.515625 34.71875 
L 19.671875 34.71875 
L 19.671875 0 
L 9.8125 0 
z
" id="DejaVuSans-72"/>
        <path d="M 54.890625 33.015625 
L 54.890625 0 
L 45.90625 0 
L 45.90625 32.71875 
Q 45.90625 40.484375 42.875 44.328125 
Q 39.84375 48.1875 33.796875 48.1875 
Q 26.515625 48.1875 22.3125 43.546875 
Q 18.109375 38.921875 18.109375 30.90625 
L 18.109375 0 
L 9.078125 0 
L 9.078125 75.984375 
L 18.109375 75.984375 
L 18.109375 46.1875 
Q 21.34375 51.125 25.703125 53.5625 
Q 30.078125 56 35.796875 56 
Q 45.21875 56 50.046875 50.171875 
Q 54.890625 44.34375 54.890625 33.015625 
z
" id="DejaVuSans-104"/>
       </defs>
       <use xlink:href="#DejaVuSans-73"/>
       <use x="29.492188" xlink:href="#DejaVuSans-114"/>
       <use x="68.855469" xlink:href="#DejaVuSans-114"/>
       <use x="109.96875" xlink:href="#DejaVuSans-105"/>
       <use x="137.751953" xlink:href="#DejaVuSans-103"/>
       <use x="201.228516" xlink:href="#DejaVuSans-97"/>
       <use x="262.507812" xlink:href="#DejaVuSans-116"/>
       <use x="301.716797" xlink:href="#DejaVuSans-105"/>
       <use x="329.5" xlink:href="#DejaVuSans-111"/>
       <use x="390.681641" xlink:href="#DejaVuSans-110"/>
       <use x="454.060547" xlink:href="#DejaVuSans-32"/>
       <use x="485.847656" xlink:href="#DejaVuSans-72"/>
       <use x="561.042969" xlink:href="#DejaVuSans-105"/>
       <use x="588.826172" xlink:href="#DejaVuSans-103"/>
       <use x="652.302734" xlink:href="#DejaVuSans-104"/>
      </g>
     </g>
    </g>
    <g id="xtick_2">
     <g id="text_2">
      <!-- Irrigation Intermediate -->
      <g style="fill:#262626;" transform="translate(148.178817 503.420156)rotate(-90)scale(0.165 -0.165)">
       <defs>
        <path d="M 56.203125 29.59375 
L 56.203125 25.203125 
L 14.890625 25.203125 
Q 15.484375 15.921875 20.484375 11.0625 
Q 25.484375 6.203125 34.421875 6.203125 
Q 39.59375 6.203125 44.453125 7.46875 
Q 49.3125 8.734375 54.109375 11.28125 
L 54.109375 2.78125 
Q 49.265625 0.734375 44.1875 -0.34375 
Q 39.109375 -1.421875 33.890625 -1.421875 
Q 20.796875 -1.421875 13.15625 6.1875 
Q 5.515625 13.8125 5.515625 26.8125 
Q 5.515625 40.234375 12.765625 48.109375 
Q 20.015625 56 32.328125 56 
Q 43.359375 56 49.78125 48.890625 
Q 56.203125 41.796875 56.203125 29.59375 
z
M 47.21875 32.234375 
Q 47.125 39.59375 43.09375 43.984375 
Q 39.0625 48.390625 32.421875 48.390625 
Q 24.90625 48.390625 20.390625 44.140625 
Q 15.875 39.890625 15.1875 32.171875 
z
" id="DejaVuSans-101"/>
        <path d="M 52 44.1875 
Q 55.375 50.25 60.0625 53.125 
Q 64.75 56 71.09375 56 
Q 79.640625 56 84.28125 50.015625 
Q 88.921875 44.046875 88.921875 33.015625 
L 88.921875 0 
L 79.890625 0 
L 79.890625 32.71875 
Q 79.890625 40.578125 77.09375 44.375 
Q 74.3125 48.1875 68.609375 48.1875 
Q 61.625 48.1875 57.5625 43.546875 
Q 53.515625 38.921875 53.515625 30.90625 
L 53.515625 0 
L 44.484375 0 
L 44.484375 32.71875 
Q 44.484375 40.625 41.703125 44.40625 
Q 38.921875 48.1875 33.109375 48.1875 
Q 26.21875 48.1875 22.15625 43.53125 
Q 18.109375 38.875 18.109375 30.90625 
L 18.109375 0 
L 9.078125 0 
L 9.078125 54.6875 
L 18.109375 54.6875 
L 18.109375 46.1875 
Q 21.1875 51.21875 25.484375 53.609375 
Q 29.78125 56 35.6875 56 
Q 41.65625 56 45.828125 52.96875 
Q 50 49.953125 52 44.1875 
z
" id="DejaVuSans-109"/>
        <path d="M 45.40625 46.390625 
L 45.40625 75.984375 
L 54.390625 75.984375 
L 54.390625 0 
L 45.40625 0 
L 45.40625 8.203125 
Q 42.578125 3.328125 38.25 0.953125 
Q 33.9375 -1.421875 27.875 -1.421875 
Q 17.96875 -1.421875 11.734375 6.484375 
Q 5.515625 14.40625 5.515625 27.296875 
Q 5.515625 40.1875 11.734375 48.09375 
Q 17.96875 56 27.875 56 
Q 33.9375 56 38.25 53.625 
Q 42.578125 51.265625 45.40625 46.390625 
z
M 14.796875 27.296875 
Q 14.796875 17.390625 18.875 11.75 
Q 22.953125 6.109375 30.078125 6.109375 
Q 37.203125 6.109375 41.296875 11.75 
Q 45.40625 17.390625 45.40625 27.296875 
Q 45.40625 37.203125 41.296875 42.84375 
Q 37.203125 48.484375 30.078125 48.484375 
Q 22.953125 48.484375 18.875 42.84375 
Q 14.796875 37.203125 14.796875 27.296875 
z
" id="DejaVuSans-100"/>
       </defs>
       <use xlink:href="#DejaVuSans-73"/>
       <use x="29.492188" xlink:href="#DejaVuSans-114"/>
       <use x="68.855469" xlink:href="#DejaVuSans-114"/>
       <use x="109.96875" xlink:href="#DejaVuSans-105"/>
       <use x="137.751953" xlink:href="#DejaVuSans-103"/>
       <use x="201.228516" xlink:href="#DejaVuSans-97"/>
       <use x="262.507812" xlink:href="#DejaVuSans-116"/>
       <use x="301.716797" xlink:href="#DejaVuSans-105"/>
       <use x="329.5" xlink:href="#DejaVuSans-111"/>
       <use x="390.681641" xlink:href="#DejaVuSans-110"/>
       <use x="454.060547" xlink:href="#DejaVuSans-32"/>
       <use x="485.847656" xlink:href="#DejaVuSans-73"/>
       <use x="515.339844" xlink:href="#DejaVuSans-110"/>
       <use x="578.71875" xlink:href="#DejaVuSans-116"/>
       <use x="617.927734" xlink:href="#DejaVuSans-101"/>
       <use x="679.451172" xlink:href="#DejaVuSans-114"/>
       <use x="718.814453" xlink:href="#DejaVuSans-109"/>
       <use x="816.226562" xlink:href="#DejaVuSans-101"/>
       <use x="877.75" xlink:href="#DejaVuSans-100"/>
       <use x="941.226562" xlink:href="#DejaVuSans-105"/>
       <use x="969.009766" xlink:href="#DejaVuSans-97"/>
       <use x="1030.289062" xlink:href="#DejaVuSans-116"/>
       <use x="1069.498047" xlink:href="#DejaVuSans-101"/>
      </g>
     </g>
    </g>
    <g id="xtick_3">
     <g id="text_3">
      <!-- Rain-fed High -->
      <g style="fill:#262626;" transform="translate(203.822195 428.602969)rotate(-90)scale(0.165 -0.165)">
       <defs>
        <path d="M 44.390625 34.1875 
Q 47.5625 33.109375 50.5625 29.59375 
Q 53.5625 26.078125 56.59375 19.921875 
L 66.609375 0 
L 56 0 
L 46.6875 18.703125 
Q 43.0625 26.03125 39.671875 28.421875 
Q 36.28125 30.8125 30.421875 30.8125 
L 19.671875 30.8125 
L 19.671875 0 
L 9.8125 0 
L 9.8125 72.90625 
L 32.078125 72.90625 
Q 44.578125 72.90625 50.734375 67.671875 
Q 56.890625 62.453125 56.890625 51.90625 
Q 56.890625 45.015625 53.6875 40.46875 
Q 50.484375 35.9375 44.390625 34.1875 
z
M 19.671875 64.796875 
L 19.671875 38.921875 
L 32.078125 38.921875 
Q 39.203125 38.921875 42.84375 42.21875 
Q 46.484375 45.515625 46.484375 51.90625 
Q 46.484375 58.296875 42.84375 61.546875 
Q 39.203125 64.796875 32.078125 64.796875 
z
" id="DejaVuSans-82"/>
        <path d="M 4.890625 31.390625 
L 31.203125 31.390625 
L 31.203125 23.390625 
L 4.890625 23.390625 
z
" id="DejaVuSans-45"/>
        <path d="M 37.109375 75.984375 
L 37.109375 68.5 
L 28.515625 68.5 
Q 23.6875 68.5 21.796875 66.546875 
Q 19.921875 64.59375 19.921875 59.515625 
L 19.921875 54.6875 
L 34.71875 54.6875 
L 34.71875 47.703125 
L 19.921875 47.703125 
L 19.921875 0 
L 10.890625 0 
L 10.890625 47.703125 
L 2.296875 47.703125 
L 2.296875 54.6875 
L 10.890625 54.6875 
L 10.890625 58.5 
Q 10.890625 67.625 15.140625 71.796875 
Q 19.390625 75.984375 28.609375 75.984375 
z
" id="DejaVuSans-102"/>
       </defs>
       <use xlink:href="#DejaVuSans-82"/>
       <use x="67.232422" xlink:href="#DejaVuSans-97"/>
       <use x="128.511719" xlink:href="#DejaVuSans-105"/>
       <use x="156.294922" xlink:href="#DejaVuSans-110"/>
       <use x="219.673828" xlink:href="#DejaVuSans-45"/>
       <use x="255.757812" xlink:href="#DejaVuSans-102"/>
       <use x="290.962891" xlink:href="#DejaVuSans-101"/>
       <use x="352.486328" xlink:href="#DejaVuSans-100"/>
       <use x="415.962891" xlink:href="#DejaVuSans-32"/>
       <use x="447.75" xlink:href="#DejaVuSans-72"/>
       <use x="522.945312" xlink:href="#DejaVuSans-105"/>
       <use x="550.728516" xlink:href="#DejaVuSans-103"/>
       <use x="614.205078" xlink:href="#DejaVuSans-104"/>
      </g>
     </g>
    </g>
    <g id="xtick_4">
     <g id="text_4">
      <!-- Rain-fed Intermediate -->
      <g style="fill:#262626;" transform="translate(259.465573 497.134687)rotate(-90)scale(0.165 -0.165)">
       <use xlink:href="#DejaVuSans-82"/>
       <use x="67.232422" xlink:href="#DejaVuSans-97"/>
       <use x="128.511719" xlink:href="#DejaVuSans-105"/>
       <use x="156.294922" xlink:href="#DejaVuSans-110"/>
       <use x="219.673828" xlink:href="#DejaVuSans-45"/>
       <use x="255.757812" xlink:href="#DejaVuSans-102"/>
       <use x="290.962891" xlink:href="#DejaVuSans-101"/>
       <use x="352.486328" xlink:href="#DejaVuSans-100"/>
       <use x="415.962891" xlink:href="#DejaVuSans-32"/>
       <use x="447.75" xlink:href="#DejaVuSans-73"/>
       <use x="477.242188" xlink:href="#DejaVuSans-110"/>
       <use x="540.621094" xlink:href="#DejaVuSans-116"/>
       <use x="579.830078" xlink:href="#DejaVuSans-101"/>
       <use x="641.353516" xlink:href="#DejaVuSans-114"/>
       <use x="680.716797" xlink:href="#DejaVuSans-109"/>
       <use x="778.128906" xlink:href="#DejaVuSans-101"/>
       <use x="839.652344" xlink:href="#DejaVuSans-100"/>
       <use x="903.128906" xlink:href="#DejaVuSans-105"/>
       <use x="930.912109" xlink:href="#DejaVuSans-97"/>
       <use x="992.191406" xlink:href="#DejaVuSans-116"/>
       <use x="1031.400391" xlink:href="#DejaVuSans-101"/>
      </g>
     </g>
    </g>
    <g id="xtick_5">
     <g id="text_5">
      <!-- Rain-fed Low -->
      <g style="fill:#262626;" transform="translate(315.108951 423.173437)rotate(-90)scale(0.165 -0.165)">
       <defs>
        <path d="M 9.8125 72.90625 
L 19.671875 72.90625 
L 19.671875 8.296875 
L 55.171875 8.296875 
L 55.171875 0 
L 9.8125 0 
z
" id="DejaVuSans-76"/>
        <path d="M 4.203125 54.6875 
L 13.1875 54.6875 
L 24.421875 12.015625 
L 35.59375 54.6875 
L 46.1875 54.6875 
L 57.421875 12.015625 
L 68.609375 54.6875 
L 77.59375 54.6875 
L 63.28125 0 
L 52.6875 0 
L 40.921875 44.828125 
L 29.109375 0 
L 18.5 0 
z
" id="DejaVuSans-119"/>
       </defs>
       <use xlink:href="#DejaVuSans-82"/>
       <use x="67.232422" xlink:href="#DejaVuSans-97"/>
       <use x="128.511719" xlink:href="#DejaVuSans-105"/>
       <use x="156.294922" xlink:href="#DejaVuSans-110"/>
       <use x="219.673828" xlink:href="#DejaVuSans-45"/>
       <use x="255.757812" xlink:href="#DejaVuSans-102"/>
       <use x="290.962891" xlink:href="#DejaVuSans-101"/>
       <use x="352.486328" xlink:href="#DejaVuSans-100"/>
       <use x="415.962891" xlink:href="#DejaVuSans-32"/>
       <use x="447.75" xlink:href="#DejaVuSans-76"/>
       <use x="501.712891" xlink:href="#DejaVuSans-111"/>
       <use x="562.894531" xlink:href="#DejaVuSans-119"/>
      </g>
     </g>
    </g>
   </g>
   <g id="matplotlib.axis_2">
    <g id="ytick_1">
     <g id="text_6">
      <!-- 0.0 -->
      <g style="fill:#262626;" transform="translate(21.420625 298.187802)scale(0.165 -0.165)">
       <defs>
        <path d="M 31.78125 66.40625 
Q 24.171875 66.40625 20.328125 58.90625 
Q 16.5 51.421875 16.5 36.375 
Q 16.5 21.390625 20.328125 13.890625 
Q 24.171875 6.390625 31.78125 6.390625 
Q 39.453125 6.390625 43.28125 13.890625 
Q 47.125 21.390625 47.125 36.375 
Q 47.125 51.421875 43.28125 58.90625 
Q 39.453125 66.40625 31.78125 66.40625 
z
M 31.78125 74.21875 
Q 44.046875 74.21875 50.515625 64.515625 
Q 56.984375 54.828125 56.984375 36.375 
Q 56.984375 17.96875 50.515625 8.265625 
Q 44.046875 -1.421875 31.78125 -1.421875 
Q 19.53125 -1.421875 13.0625 8.265625 
Q 6.59375 17.96875 6.59375 36.375 
Q 6.59375 54.828125 13.0625 64.515625 
Q 19.53125 74.21875 31.78125 74.21875 
z
" id="DejaVuSans-48"/>
        <path d="M 10.6875 12.40625 
L 21 12.40625 
L 21 0 
L 10.6875 0 
z
" id="DejaVuSans-46"/>
       </defs>
       <use xlink:href="#DejaVuSans-48"/>
       <use x="63.623047" xlink:href="#DejaVuSans-46"/>
       <use x="95.410156" xlink:href="#DejaVuSans-48"/>
      </g>
     </g>
    </g>
    <g id="ytick_2">
     <g id="text_7">
      <!-- 0.5 -->
      <g style="fill:#262626;" transform="translate(21.420625 263.584926)scale(0.165 -0.165)">
       <defs>
        <path d="M 10.796875 72.90625 
L 49.515625 72.90625 
L 49.515625 64.59375 
L 19.828125 64.59375 
L 19.828125 46.734375 
Q 21.96875 47.46875 24.109375 47.828125 
Q 26.265625 48.1875 28.421875 48.1875 
Q 40.625 48.1875 47.75 41.5 
Q 54.890625 34.8125 54.890625 23.390625 
Q 54.890625 11.625 47.5625 5.09375 
Q 40.234375 -1.421875 26.90625 -1.421875 
Q 22.3125 -1.421875 17.546875 -0.640625 
Q 12.796875 0.140625 7.71875 1.703125 
L 7.71875 11.625 
Q 12.109375 9.234375 16.796875 8.0625 
Q 21.484375 6.890625 26.703125 6.890625 
Q 35.15625 6.890625 40.078125 11.328125 
Q 45.015625 15.765625 45.015625 23.390625 
Q 45.015625 31 40.078125 35.4375 
Q 35.15625 39.890625 26.703125 39.890625 
Q 22.75 39.890625 18.8125 39.015625 
Q 14.890625 38.140625 10.796875 36.28125 
z
" id="DejaVuSans-53"/>
       </defs>
       <use xlink:href="#DejaVuSans-48"/>
       <use x="63.623047" xlink:href="#DejaVuSans-46"/>
       <use x="95.410156" xlink:href="#DejaVuSans-53"/>
      </g>
     </g>
    </g>
    <g id="ytick_3">
     <g id="text_8">
      <!-- 1.0 -->
      <g style="fill:#262626;" transform="translate(21.420625 228.982051)scale(0.165 -0.165)">
       <defs>
        <path d="M 12.40625 8.296875 
L 28.515625 8.296875 
L 28.515625 63.921875 
L 10.984375 60.40625 
L 10.984375 69.390625 
L 28.421875 72.90625 
L 38.28125 72.90625 
L 38.28125 8.296875 
L 54.390625 8.296875 
L 54.390625 0 
L 12.40625 0 
z
" id="DejaVuSans-49"/>
       </defs>
       <use xlink:href="#DejaVuSans-49"/>
       <use x="63.623047" xlink:href="#DejaVuSans-46"/>
       <use x="95.410156" xlink:href="#DejaVuSans-48"/>
      </g>
     </g>
    </g>
    <g id="ytick_4">
     <g id="text_9">
      <!-- 1.5 -->
      <g style="fill:#262626;" transform="translate(21.420625 194.379175)scale(0.165 -0.165)">
       <use xlink:href="#DejaVuSans-49"/>
       <use x="63.623047" xlink:href="#DejaVuSans-46"/>
       <use x="95.410156" xlink:href="#DejaVuSans-53"/>
      </g>
     </g>
    </g>
    <g id="ytick_5">
     <g id="text_10">
      <!-- 2.0 -->
      <g style="fill:#262626;" transform="translate(21.420625 159.7763)scale(0.165 -0.165)">
       <defs>
        <path d="M 19.1875 8.296875 
L 53.609375 8.296875 
L 53.609375 0 
L 7.328125 0 
L 7.328125 8.296875 
Q 12.9375 14.109375 22.625 23.890625 
Q 32.328125 33.6875 34.8125 36.53125 
Q 39.546875 41.84375 41.421875 45.53125 
Q 43.3125 49.21875 43.3125 52.78125 
Q 43.3125 58.59375 39.234375 62.25 
Q 35.15625 65.921875 28.609375 65.921875 
Q 23.96875 65.921875 18.8125 64.3125 
Q 13.671875 62.703125 7.8125 59.421875 
L 7.8125 69.390625 
Q 13.765625 71.78125 18.9375 73 
Q 24.125 74.21875 28.421875 74.21875 
Q 39.75 74.21875 46.484375 68.546875 
Q 53.21875 62.890625 53.21875 53.421875 
Q 53.21875 48.921875 51.53125 44.890625 
Q 49.859375 40.875 45.40625 35.40625 
Q 44.1875 33.984375 37.640625 27.21875 
Q 31.109375 20.453125 19.1875 8.296875 
z
" id="DejaVuSans-50"/>
       </defs>
       <use xlink:href="#DejaVuSans-50"/>
       <use x="63.623047" xlink:href="#DejaVuSans-46"/>
       <use x="95.410156" xlink:href="#DejaVuSans-48"/>
      </g>
     </g>
    </g>
    <g id="ytick_6">
     <g id="text_11">
      <!-- 2.5 -->
      <g style="fill:#262626;" transform="translate(21.420625 125.173424)scale(0.165 -0.165)">
       <use xlink:href="#DejaVuSans-50"/>
       <use x="63.623047" xlink:href="#DejaVuSans-46"/>
       <use x="95.410156" xlink:href="#DejaVuSans-53"/>
      </g>
     </g>
    </g>
    <g id="ytick_7">
     <g id="text_12">
      <!-- 3.0 -->
      <g style="fill:#262626;" transform="translate(21.420625 90.570549)scale(0.165 -0.165)">
       <defs>
        <path d="M 40.578125 39.3125 
Q 47.65625 37.796875 51.625 33 
Q 55.609375 28.21875 55.609375 21.1875 
Q 55.609375 10.40625 48.1875 4.484375 
Q 40.765625 -1.421875 27.09375 -1.421875 
Q 22.515625 -1.421875 17.65625 -0.515625 
Q 12.796875 0.390625 7.625 2.203125 
L 7.625 11.71875 
Q 11.71875 9.328125 16.59375 8.109375 
Q 21.484375 6.890625 26.8125 6.890625 
Q 36.078125 6.890625 40.9375 10.546875 
Q 45.796875 14.203125 45.796875 21.1875 
Q 45.796875 27.640625 41.28125 31.265625 
Q 36.765625 34.90625 28.71875 34.90625 
L 20.21875 34.90625 
L 20.21875 43.015625 
L 29.109375 43.015625 
Q 36.375 43.015625 40.234375 45.921875 
Q 44.09375 48.828125 44.09375 54.296875 
Q 44.09375 59.90625 40.109375 62.90625 
Q 36.140625 65.921875 28.71875 65.921875 
Q 24.65625 65.921875 20.015625 65.03125 
Q 15.375 64.15625 9.8125 62.3125 
L 9.8125 71.09375 
Q 15.4375 72.65625 20.34375 73.4375 
Q 25.25 74.21875 29.59375 74.21875 
Q 40.828125 74.21875 47.359375 69.109375 
Q 53.90625 64.015625 53.90625 55.328125 
Q 53.90625 49.265625 50.4375 45.09375 
Q 46.96875 40.921875 40.578125 39.3125 
z
" id="DejaVuSans-51"/>
       </defs>
       <use xlink:href="#DejaVuSans-51"/>
       <use x="63.623047" xlink:href="#DejaVuSans-46"/>
       <use x="95.410156" xlink:href="#DejaVuSans-48"/>
      </g>
     </g>
    </g>
    <g id="ytick_8">
     <g id="text_13">
      <!-- 3.5 -->
      <g style="fill:#262626;" transform="translate(21.420625 55.967673)scale(0.165 -0.165)">
       <use xlink:href="#DejaVuSans-51"/>
       <use x="63.623047" xlink:href="#DejaVuSans-46"/>
       <use x="95.410156" xlink:href="#DejaVuSans-53"/>
      </g>
     </g>
    </g>
    <g id="text_14">
     <!-- Yield (t/ha) -->
     <g style="fill:#262626;" transform="translate(13.677187 217.195156)rotate(-90)scale(0.18 -0.18)">
      <defs>
       <path d="M -0.203125 72.90625 
L 10.40625 72.90625 
L 30.609375 42.921875 
L 50.6875 72.90625 
L 61.28125 72.90625 
L 35.5 34.71875 
L 35.5 0 
L 25.59375 0 
L 25.59375 34.71875 
z
" id="DejaVuSans-89"/>
       <path d="M 9.421875 75.984375 
L 18.40625 75.984375 
L 18.40625 0 
L 9.421875 0 
z
" id="DejaVuSans-108"/>
       <path d="M 31 75.875 
Q 24.46875 64.65625 21.28125 53.65625 
Q 18.109375 42.671875 18.109375 31.390625 
Q 18.109375 20.125 21.3125 9.0625 
Q 24.515625 -2 31 -13.1875 
L 23.1875 -13.1875 
Q 15.875 -1.703125 12.234375 9.375 
Q 8.59375 20.453125 8.59375 31.390625 
Q 8.59375 42.28125 12.203125 53.3125 
Q 15.828125 64.359375 23.1875 75.875 
z
" id="DejaVuSans-40"/>
       <path d="M 25.390625 72.90625 
L 33.6875 72.90625 
L 8.296875 -9.28125 
L 0 -9.28125 
z
" id="DejaVuSans-47"/>
       <path d="M 8.015625 75.875 
L 15.828125 75.875 
Q 23.140625 64.359375 26.78125 53.3125 
Q 30.421875 42.28125 30.421875 31.390625 
Q 30.421875 20.453125 26.78125 9.375 
Q 23.140625 -1.703125 15.828125 -13.1875 
L 8.015625 -13.1875 
Q 14.5 -2 17.703125 9.0625 
Q 20.90625 20.125 20.90625 31.390625 
Q 20.90625 42.671875 17.703125 53.65625 
Q 14.5 64.65625 8.015625 75.875 
z
" id="DejaVuSans-41"/>
      </defs>
      <use xlink:href="#DejaVuSans-89"/>
      <use x="57.458984" xlink:href="#DejaVuSans-105"/>
      <use x="85.242188" xlink:href="#DejaVuSans-101"/>
      <use x="146.765625" xlink:href="#DejaVuSans-108"/>
      <use x="174.548828" xlink:href="#DejaVuSans-100"/>
      <use x="238.025391" xlink:href="#DejaVuSans-32"/>
      <use x="269.8125" xlink:href="#DejaVuSans-40"/>
      <use x="308.826172" xlink:href="#DejaVuSans-116"/>
      <use x="348.035156" xlink:href="#DejaVuSans-47"/>
      <use x="381.726562" xlink:href="#DejaVuSans-104"/>
      <use x="445.105469" xlink:href="#DejaVuSans-97"/>
      <use x="506.384766" xlink:href="#DejaVuSans-41"/>
     </g>
    </g>
   </g>
   <g id="PolyCollection_1">
    <defs>
     <path d="M 87.98247 -211.501065 
L 65.725119 -211.501065 
L 66.199496 -214.002259 
L 67.504711 -216.503453 
L 69.33452 -219.004647 
L 71.310785 -221.50584 
L 73.108568 -224.007034 
L 74.534407 -226.508228 
L 75.537263 -229.009422 
L 76.168855 -231.510615 
L 76.52718 -234.011809 
L 76.711043 -236.513003 
L 76.796608 -239.014197 
L 76.832797 -241.51539 
L 76.846728 -244.016584 
L 76.851615 -246.517778 
L 76.853178 -249.018972 
L 76.853635 -251.520165 
L 76.853757 -254.021359 
L 76.853786 -256.522553 
L 76.853793 -259.023747 
L 76.853794 -261.52494 
L 76.853795 -264.026134 
L 76.853794 -266.527328 
L 76.853794 -269.028522 
L 76.853792 -271.529715 
L 76.853786 -274.030909 
L 76.853768 -276.532103 
L 76.853724 -279.033297 
L 76.853617 -281.534491 
L 76.85338 -284.035684 
L 76.852889 -286.536878 
L 76.851948 -289.038072 
L 76.850268 -291.539266 
L 76.847472 -294.040459 
L 76.843126 -296.541653 
L 76.836797 -299.042847 
L 76.828139 -301.544041 
L 76.81695 -304.045234 
L 76.803178 -306.546428 
L 76.786839 -309.047622 
L 76.767832 -311.548816 
L 76.745705 -314.050009 
L 76.719455 -316.551203 
L 76.687456 -319.052397 
L 76.647605 -321.553591 
L 76.597755 -324.054784 
L 76.536412 -326.555978 
L 76.463657 -329.057172 
L 76.382084 -331.558366 
L 76.297408 -334.059559 
L 76.218277 -336.560753 
L 76.154973 -339.061947 
L 76.117113 -341.563141 
L 76.111041 -344.064334 
L 76.137901 -346.565528 
L 76.193224 -349.066722 
L 76.268215 -351.567916 
L 76.352165 -354.069109 
L 76.435018 -356.570303 
L 76.509259 -359.071497 
L 76.570696 -361.572691 
L 76.618257 -364.073884 
L 76.65315 -366.575078 
L 76.677814 -369.076272 
L 76.694932 -371.577466 
L 76.706699 -374.078659 
L 76.714419 -376.579853 
L 76.718456 -379.081047 
L 76.718466 -381.582241 
L 76.713765 -384.083434 
L 76.703642 -386.584628 
L 76.687491 -389.085822 
L 76.664824 -391.587016 
L 76.635361 -394.08821 
L 76.599388 -396.589403 
L 76.558369 -399.090597 
L 76.515463 -401.591791 
L 76.475527 -404.092985 
L 76.444278 -406.594178 
L 76.426817 -409.095372 
L 76.42606 -411.596566 
L 76.441781 -414.09776 
L 76.470675 -416.598953 
L 76.507369 -419.100147 
L 76.545918 -421.601341 
L 76.581238 -424.102535 
L 76.610059 -426.603728 
L 76.631262 -429.104922 
L 76.645668 -431.606116 
L 76.655471 -434.10731 
L 76.663482 -436.608503 
L 76.672384 -439.109697 
L 76.684121 -441.610891 
L 76.699543 -444.112085 
L 76.718366 -446.613278 
L 76.739415 -449.114472 
L 76.761057 -451.615666 
L 76.781669 -454.11686 
L 76.799995 -456.618053 
L 76.815314 -459.119247 
L 76.892275 -459.119247 
L 76.892275 -459.119247 
L 76.907594 -456.618053 
L 76.925921 -454.11686 
L 76.946533 -451.615666 
L 76.968174 -449.114472 
L 76.989223 -446.613278 
L 77.008046 -444.112085 
L 77.023468 -441.610891 
L 77.035205 -439.109697 
L 77.044107 -436.608503 
L 77.052119 -434.10731 
L 77.061921 -431.606116 
L 77.076328 -429.104922 
L 77.09753 -426.603728 
L 77.126351 -424.102535 
L 77.161671 -421.601341 
L 77.20022 -419.100147 
L 77.236914 -416.598953 
L 77.265809 -414.09776 
L 77.28153 -411.596566 
L 77.280772 -409.095372 
L 77.263311 -406.594178 
L 77.232063 -404.092985 
L 77.192126 -401.591791 
L 77.149221 -399.090597 
L 77.108201 -396.589403 
L 77.072229 -394.08821 
L 77.042765 -391.587016 
L 77.020099 -389.085822 
L 77.003948 -386.584628 
L 76.993825 -384.083434 
L 76.989124 -381.582241 
L 76.989133 -379.081047 
L 76.99317 -376.579853 
L 77.000891 -374.078659 
L 77.012657 -371.577466 
L 77.029775 -369.076272 
L 77.054439 -366.575078 
L 77.089332 -364.073884 
L 77.136893 -361.572691 
L 77.198331 -359.071497 
L 77.272571 -356.570303 
L 77.355425 -354.069109 
L 77.439374 -351.567916 
L 77.514366 -349.066722 
L 77.569689 -346.565528 
L 77.596548 -344.064334 
L 77.590477 -341.563141 
L 77.552617 -339.061947 
L 77.489312 -336.560753 
L 77.410181 -334.059559 
L 77.325506 -331.558366 
L 77.243932 -329.057172 
L 77.171177 -326.555978 
L 77.109834 -324.054784 
L 77.059984 -321.553591 
L 77.020134 -319.052397 
L 76.988134 -316.551203 
L 76.961884 -314.050009 
L 76.939758 -311.548816 
L 76.92075 -309.047622 
L 76.904411 -306.546428 
L 76.890639 -304.045234 
L 76.87945 -301.544041 
L 76.870792 -299.042847 
L 76.864464 -296.541653 
L 76.860117 -294.040459 
L 76.857321 -291.539266 
L 76.855641 -289.038072 
L 76.8547 -286.536878 
L 76.85421 -284.035684 
L 76.853972 -281.534491 
L 76.853865 -279.033297 
L 76.853821 -276.532103 
L 76.853804 -274.030909 
L 76.853798 -271.529715 
L 76.853795 -269.028522 
L 76.853795 -266.527328 
L 76.853795 -264.026134 
L 76.853795 -261.52494 
L 76.853796 -259.023747 
L 76.853803 -256.522553 
L 76.853833 -254.021359 
L 76.853954 -251.520165 
L 76.854411 -249.018972 
L 76.855974 -246.517778 
L 76.860861 -244.016584 
L 76.874792 -241.51539 
L 76.910981 -239.014197 
L 76.996547 -236.513003 
L 77.180409 -234.011809 
L 77.538734 -231.510615 
L 78.170327 -229.009422 
L 79.173183 -226.508228 
L 80.599022 -224.007034 
L 82.396805 -221.50584 
L 84.37307 -219.004647 
L 86.202878 -216.503453 
L 87.508093 -214.002259 
L 87.98247 -211.501065 
z
" id="m2a2fd10790" style="stroke:#545454;stroke-width:2.5;"/>
    </defs>
    <g clip-path="url(#pfdf6180083)">
     <use style="fill:#597dbf;stroke:#545454;stroke-width:2.5;" x="0" xlink:href="#m2a2fd10790" y="503.420156"/>
    </g>
   </g>
   <g id="PolyCollection_2">
    <defs>
     <path d="M 100.108133 -211.501065 
L 98.114158 -211.501065 
L 98.111699 -213.697295 
L 98.110102 -215.893525 
L 98.109358 -218.089755 
L 98.109454 -220.285985 
L 98.110373 -222.482214 
L 98.112097 -224.678444 
L 98.114604 -226.874674 
L 98.117869 -229.070904 
L 98.121864 -231.267134 
L 98.126559 -233.463363 
L 98.131923 -235.659593 
L 98.137921 -237.855823 
L 98.144516 -240.052053 
L 98.15167 -242.248283 
L 98.159343 -244.444513 
L 98.167494 -246.640742 
L 98.176081 -248.836972 
L 98.18506 -251.033202 
L 98.194388 -253.229432 
L 98.204019 -255.425662 
L 98.213909 -257.621891 
L 98.224014 -259.818121 
L 98.234288 -262.014351 
L 98.244687 -264.210581 
L 98.255167 -266.406811 
L 98.265687 -268.603041 
L 98.276203 -270.79927 
L 98.286676 -272.9955 
L 98.297066 -275.19173 
L 98.307335 -277.38796 
L 98.317449 -279.58419 
L 98.327372 -281.780419 
L 98.337073 -283.976649 
L 98.346521 -286.172879 
L 98.35569 -288.369109 
L 98.364553 -290.565339 
L 98.373089 -292.761569 
L 98.381275 -294.957798 
L 98.389094 -297.154028 
L 98.396531 -299.350258 
L 98.403573 -301.546488 
L 98.410209 -303.742718 
L 98.416431 -305.938947 
L 98.422235 -308.135177 
L 98.427616 -310.331407 
L 98.432576 -312.527637 
L 98.437115 -314.723867 
L 98.441239 -316.920096 
L 98.444953 -319.116326 
L 98.448267 -321.312556 
L 98.451191 -323.508786 
L 98.453738 -325.705016 
L 98.455923 -327.901246 
L 98.457761 -330.097475 
L 98.459271 -332.293705 
L 98.460472 -334.489935 
L 98.461386 -336.686165 
L 98.462033 -338.882395 
L 98.462438 -341.078624 
L 98.462623 -343.274854 
L 98.462615 -345.471084 
L 98.462438 -347.667314 
L 98.46212 -349.863544 
L 98.461685 -352.059774 
L 98.461161 -354.256003 
L 98.460576 -356.452233 
L 98.459955 -358.648463 
L 98.459327 -360.844693 
L 98.458717 -363.040923 
L 98.458152 -365.237152 
L 98.457658 -367.433382 
L 98.45726 -369.629612 
L 98.456982 -371.825842 
L 98.45685 -374.022072 
L 98.456885 -376.218302 
L 98.45711 -378.414531 
L 98.457546 -380.610761 
L 98.458213 -382.806991 
L 98.459129 -385.003221 
L 98.460313 -387.199451 
L 98.461781 -389.39568 
L 98.463547 -391.59191 
L 98.465625 -393.78814 
L 98.468027 -395.98437 
L 98.470765 -398.1806 
L 98.473846 -400.376829 
L 98.47728 -402.573059 
L 98.481072 -404.769289 
L 98.485228 -406.965519 
L 98.489749 -409.161749 
L 98.494639 -411.357979 
L 98.499897 -413.554208 
L 98.505523 -415.750438 
L 98.511513 -417.946668 
L 98.517864 -420.142898 
L 98.52457 -422.339128 
L 98.531625 -424.535357 
L 98.539021 -426.731587 
L 98.546749 -428.927817 
L 99.675543 -428.927817 
L 99.675543 -428.927817 
L 99.68327 -426.731587 
L 99.690666 -424.535357 
L 99.697721 -422.339128 
L 99.704428 -420.142898 
L 99.710779 -417.946668 
L 99.716769 -415.750438 
L 99.722394 -413.554208 
L 99.727653 -411.357979 
L 99.732542 -409.161749 
L 99.737064 -406.965519 
L 99.741219 -404.769289 
L 99.745011 -402.573059 
L 99.748445 -400.376829 
L 99.751527 -398.1806 
L 99.754265 -395.98437 
L 99.756667 -393.78814 
L 99.758745 -391.59191 
L 99.760511 -389.39568 
L 99.761979 -387.199451 
L 99.763162 -385.003221 
L 99.764079 -382.806991 
L 99.764746 -380.610761 
L 99.765182 -378.414531 
L 99.765407 -376.218302 
L 99.765442 -374.022072 
L 99.765309 -371.825842 
L 99.765032 -369.629612 
L 99.764634 -367.433382 
L 99.76414 -365.237152 
L 99.763575 -363.040923 
L 99.762965 -360.844693 
L 99.762336 -358.648463 
L 99.761716 -356.452233 
L 99.76113 -354.256003 
L 99.760607 -352.059774 
L 99.760172 -349.863544 
L 99.759853 -347.667314 
L 99.759677 -345.471084 
L 99.759668 -343.274854 
L 99.759854 -341.078624 
L 99.760259 -338.882395 
L 99.760906 -336.686165 
L 99.761819 -334.489935 
L 99.763021 -332.293705 
L 99.764531 -330.097475 
L 99.766369 -327.901246 
L 99.768554 -325.705016 
L 99.771101 -323.508786 
L 99.774025 -321.312556 
L 99.777338 -319.116326 
L 99.781053 -316.920096 
L 99.785176 -314.723867 
L 99.789716 -312.527637 
L 99.794675 -310.331407 
L 99.800057 -308.135177 
L 99.80586 -305.938947 
L 99.812083 -303.742718 
L 99.818719 -301.546488 
L 99.82576 -299.350258 
L 99.833198 -297.154028 
L 99.841017 -294.957798 
L 99.849203 -292.761569 
L 99.857738 -290.565339 
L 99.866602 -288.369109 
L 99.87577 -286.172879 
L 99.885219 -283.976649 
L 99.89492 -281.780419 
L 99.904843 -279.58419 
L 99.914956 -277.38796 
L 99.925226 -275.19173 
L 99.935616 -272.9955 
L 99.946089 -270.79927 
L 99.956605 -268.603041 
L 99.967124 -266.406811 
L 99.977605 -264.210581 
L 99.988004 -262.014351 
L 99.998278 -259.818121 
L 100.008382 -257.621891 
L 100.018273 -255.425662 
L 100.027904 -253.229432 
L 100.037231 -251.033202 
L 100.046211 -248.836972 
L 100.054798 -246.640742 
L 100.062949 -244.444513 
L 100.070622 -242.248283 
L 100.077776 -240.052053 
L 100.084371 -237.855823 
L 100.090369 -235.659593 
L 100.095732 -233.463363 
L 100.100428 -231.267134 
L 100.104423 -229.070904 
L 100.107688 -226.874674 
L 100.110194 -224.678444 
L 100.111918 -222.482214 
L 100.112838 -220.285985 
L 100.112934 -218.089755 
L 100.11219 -215.893525 
L 100.110593 -213.697295 
L 100.108133 -211.501065 
z
" id="me01bf76011" style="stroke:#545454;stroke-width:2.5;"/>
    </defs>
    <g clip-path="url(#pfdf6180083)">
     <use style="fill:#d98b5f;stroke:#545454;stroke-width:2.5;" x="0" xlink:href="#me01bf76011" y="503.420156"/>
    </g>
   </g>
   <g id="PolyCollection_3">
    <defs>
     <path d="M 143.625848 -211.501065 
L 121.368497 -211.501065 
L 121.863512 -213.240996 
L 123.220318 -214.980926 
L 125.107974 -216.720857 
L 127.123484 -218.460787 
L 128.92916 -220.200718 
L 130.334161 -221.940648 
L 131.299964 -223.680579 
L 131.892167 -225.420509 
L 132.218029 -227.16044 
L 132.379581 -228.90037 
L 132.451945 -230.640301 
L 132.481291 -232.380231 
L 132.492081 -234.120162 
L 132.495682 -235.860092 
L 132.496774 -237.600023 
L 132.497075 -239.339953 
L 132.497151 -241.079884 
L 132.497168 -242.819814 
L 132.497172 -244.559745 
L 132.497172 -246.299675 
L 132.497172 -248.039606 
L 132.497169 -249.779536 
L 132.497162 -251.519467 
L 132.497143 -253.259397 
L 132.497094 -254.999328 
L 132.496981 -256.739258 
L 132.496733 -258.479189 
L 132.496229 -260.219119 
L 132.495269 -261.95905 
L 132.493561 -263.69898 
L 132.490715 -265.438911 
L 132.486268 -267.178841 
L 132.479743 -268.918772 
L 132.470724 -270.658702 
L 132.458924 -272.398633 
L 132.444197 -274.138563 
L 132.426436 -275.878494 
L 132.405382 -277.618424 
L 132.380367 -279.358355 
L 132.350114 -281.098286 
L 132.312722 -282.838216 
L 132.265938 -284.578147 
L 132.207794 -286.318077 
L 132.13757 -288.058008 
L 132.056934 -289.797938 
L 131.970877 -291.537869 
L 131.887903 -293.277799 
L 131.818977 -295.01773 
L 131.775142 -296.75766 
L 131.764429 -298.497591 
L 131.789249 -300.237521 
L 131.845431 -301.977452 
L 131.923408 -303.717382 
L 132.011017 -305.457313 
L 132.096707 -307.197243 
L 132.171968 -308.937174 
L 132.232311 -310.677104 
L 132.276936 -312.417035 
L 132.307609 -314.156965 
L 132.327388 -315.896896 
L 132.3396 -317.636826 
L 132.347175 -319.376757 
L 132.35229 -321.116687 
L 132.356185 -322.856618 
L 132.359131 -324.596548 
L 132.360541 -326.336479 
L 132.359271 -328.076409 
L 132.35404 -329.81634 
L 132.343801 -331.55627 
L 132.327921 -333.296201 
L 132.306117 -335.036131 
L 132.278362 -336.776062 
L 132.245007 -338.515992 
L 132.207269 -340.255923 
L 132.167838 -341.995853 
L 132.131099 -343.735784 
L 132.102533 -345.475714 
L 132.087292 -347.215645 
L 132.088494 -348.955575 
L 132.106053 -350.695506 
L 132.136623 -352.435436 
L 132.174643 -354.175367 
L 132.213991 -355.915297 
L 132.249508 -357.655228 
L 132.277923 -359.395158 
L 132.298063 -361.135089 
L 132.310546 -362.875019 
L 132.317253 -364.61495 
L 132.32077 -366.35488 
L 132.323858 -368.094811 
L 132.328964 -369.834741 
L 132.337787 -371.574672 
L 132.350986 -373.314602 
L 132.368127 -375.054533 
L 132.387904 -376.794463 
L 132.408557 -378.534394 
L 132.428364 -380.274324 
L 132.446004 -382.014255 
L 132.460728 -383.754185 
L 132.533618 -383.754185 
L 132.533618 -383.754185 
L 132.548342 -382.014255 
L 132.565981 -380.274324 
L 132.585788 -378.534394 
L 132.606442 -376.794463 
L 132.626218 -375.054533 
L 132.643359 -373.314602 
L 132.656558 -371.574672 
L 132.665381 -369.834741 
L 132.670487 -368.094811 
L 132.673576 -366.35488 
L 132.677092 -364.61495 
L 132.683799 -362.875019 
L 132.696282 -361.135089 
L 132.716422 -359.395158 
L 132.744837 -357.655228 
L 132.780354 -355.915297 
L 132.819702 -354.175367 
L 132.857722 -352.435436 
L 132.888292 -350.695506 
L 132.905852 -348.955575 
L 132.907053 -347.215645 
L 132.891812 -345.475714 
L 132.863247 -343.735784 
L 132.826507 -341.995853 
L 132.787076 -340.255923 
L 132.749338 -338.515992 
L 132.715983 -336.776062 
L 132.688228 -335.036131 
L 132.666425 -333.296201 
L 132.650544 -331.55627 
L 132.640306 -329.81634 
L 132.635074 -328.076409 
L 132.633805 -326.336479 
L 132.635214 -324.596548 
L 132.63816 -322.856618 
L 132.642055 -321.116687 
L 132.64717 -319.376757 
L 132.654745 -317.636826 
L 132.666957 -315.896896 
L 132.686736 -314.156965 
L 132.717409 -312.417035 
L 132.762034 -310.677104 
L 132.822377 -308.937174 
L 132.897638 -307.197243 
L 132.983329 -305.457313 
L 133.070937 -303.717382 
L 133.148914 -301.977452 
L 133.205096 -300.237521 
L 133.229916 -298.497591 
L 133.219204 -296.75766 
L 133.175368 -295.01773 
L 133.106442 -293.277799 
L 133.023468 -291.537869 
L 132.937411 -289.797938 
L 132.856776 -288.058008 
L 132.786552 -286.318077 
L 132.728407 -284.578147 
L 132.681623 -282.838216 
L 132.644231 -281.098286 
L 132.613979 -279.358355 
L 132.588964 -277.618424 
L 132.567909 -275.878494 
L 132.550149 -274.138563 
L 132.535421 -272.398633 
L 132.523622 -270.658702 
L 132.514602 -268.918772 
L 132.508077 -267.178841 
L 132.50363 -265.438911 
L 132.500784 -263.69898 
L 132.499076 -261.95905 
L 132.498117 -260.219119 
L 132.497612 -258.479189 
L 132.497364 -256.739258 
L 132.497251 -254.999328 
L 132.497202 -253.259397 
L 132.497183 -251.519467 
L 132.497176 -249.779536 
L 132.497174 -248.039606 
L 132.497173 -246.299675 
L 132.497174 -244.559745 
L 132.497177 -242.819814 
L 132.497194 -241.079884 
L 132.49727 -239.339953 
L 132.497571 -237.600023 
L 132.498663 -235.860092 
L 132.502265 -234.120162 
L 132.513055 -232.380231 
L 132.5424 -230.640301 
L 132.614764 -228.90037 
L 132.776316 -227.16044 
L 133.102179 -225.420509 
L 133.694381 -223.680579 
L 134.660184 -221.940648 
L 136.065185 -220.200718 
L 137.870862 -218.460787 
L 139.886371 -216.720857 
L 141.774027 -214.980926 
L 143.130833 -213.240996 
L 143.625848 -211.501065 
z
" id="m991a9f11aa" style="stroke:#545454;stroke-width:2.5;"/>
    </defs>
    <g clip-path="url(#pfdf6180083)">
     <use style="fill:#597dbf;stroke:#545454;stroke-width:2.5;" x="0" xlink:href="#m991a9f11aa" y="503.420156"/>
    </g>
   </g>
   <g id="PolyCollection_4">
    <defs>
     <path d="M 155.751176 -211.501065 
L 153.757871 -211.501065 
L 153.755261 -213.004002 
L 153.75351 -214.506938 
L 153.752609 -216.009874 
L 153.752546 -217.512811 
L 153.753306 -219.015747 
L 153.75487 -220.518683 
L 153.757216 -222.02162 
L 153.760321 -223.524556 
L 153.764158 -225.027493 
L 153.768699 -226.530429 
L 153.77391 -228.033365 
L 153.77976 -229.536302 
L 153.786211 -231.039238 
L 153.793228 -232.542174 
L 153.800771 -234.045111 
L 153.8088 -235.548047 
L 153.817272 -237.050983 
L 153.826147 -238.55392 
L 153.83538 -240.056856 
L 153.844929 -241.559792 
L 153.854749 -243.062729 
L 153.864796 -244.565665 
L 153.875027 -246.068601 
L 153.885397 -247.571538 
L 153.895865 -249.074474 
L 153.906388 -250.577411 
L 153.916926 -252.080347 
L 153.927437 -253.583283 
L 153.937883 -255.08622 
L 153.948228 -256.589156 
L 153.958436 -258.092092 
L 153.968473 -259.595029 
L 153.978308 -261.097965 
L 153.98791 -262.600901 
L 153.997252 -264.103838 
L 154.006308 -265.606774 
L 154.015057 -267.10971 
L 154.023475 -268.612647 
L 154.031547 -270.115583 
L 154.039254 -271.618519 
L 154.046585 -273.121456 
L 154.053527 -274.624392 
L 154.060073 -276.127329 
L 154.066215 -277.630265 
L 154.071951 -279.133201 
L 154.077279 -280.636138 
L 154.0822 -282.139074 
L 154.086716 -283.64201 
L 154.090834 -285.144947 
L 154.09456 -286.647883 
L 154.097904 -288.150819 
L 154.100877 -289.653756 
L 154.103492 -291.156692 
L 154.105764 -292.659628 
L 154.10771 -294.162565 
L 154.109346 -295.665501 
L 154.110692 -297.168438 
L 154.111769 -298.671374 
L 154.112598 -300.17431 
L 154.113201 -301.677247 
L 154.113602 -303.180183 
L 154.113824 -304.683119 
L 154.113893 -306.186056 
L 154.113833 -307.688992 
L 154.113669 -309.191928 
L 154.113428 -310.694865 
L 154.113134 -312.197801 
L 154.112815 -313.700737 
L 154.112494 -315.203674 
L 154.112198 -316.70661 
L 154.111952 -318.209546 
L 154.111779 -319.712483 
L 154.111704 -321.215419 
L 154.111751 -322.718356 
L 154.111942 -324.221292 
L 154.112298 -325.724228 
L 154.112841 -327.227165 
L 154.113589 -328.730101 
L 154.114564 -330.233037 
L 154.11578 -331.735974 
L 154.117257 -333.23891 
L 154.119008 -334.741846 
L 154.121047 -336.244783 
L 154.123389 -337.747719 
L 154.126042 -339.250655 
L 154.129019 -340.753592 
L 154.132327 -342.256528 
L 154.135974 -343.759464 
L 154.139964 -345.262401 
L 154.144304 -346.765337 
L 154.148994 -348.268274 
L 154.154038 -349.77121 
L 154.159434 -351.274146 
L 154.165182 -352.777083 
L 154.171278 -354.280019 
L 154.177719 -355.782955 
L 154.184499 -357.285892 
L 154.191612 -358.788828 
L 154.199049 -360.291764 
L 155.309999 -360.291764 
L 155.309999 -360.291764 
L 155.317436 -358.788828 
L 155.324548 -357.285892 
L 155.331328 -355.782955 
L 155.337769 -354.280019 
L 155.343866 -352.777083 
L 155.349613 -351.274146 
L 155.35501 -349.77121 
L 155.360053 -348.268274 
L 155.364744 -346.765337 
L 155.369083 -345.262401 
L 155.373074 -343.759464 
L 155.376721 -342.256528 
L 155.380029 -340.753592 
L 155.383005 -339.250655 
L 155.385659 -337.747719 
L 155.388 -336.244783 
L 155.39004 -334.741846 
L 155.391791 -333.23891 
L 155.393267 -331.735974 
L 155.394484 -330.233037 
L 155.395458 -328.730101 
L 155.396207 -327.227165 
L 155.39675 -325.724228 
L 155.397106 -324.221292 
L 155.397297 -322.718356 
L 155.397343 -321.215419 
L 155.397269 -319.712483 
L 155.397096 -318.209546 
L 155.39685 -316.70661 
L 155.396554 -315.203674 
L 155.396233 -313.700737 
L 155.395913 -312.197801 
L 155.39562 -310.694865 
L 155.395379 -309.191928 
L 155.395215 -307.688992 
L 155.395155 -306.186056 
L 155.395223 -304.683119 
L 155.395446 -303.180183 
L 155.395847 -301.677247 
L 155.39645 -300.17431 
L 155.397279 -298.671374 
L 155.398355 -297.168438 
L 155.399702 -295.665501 
L 155.401338 -294.162565 
L 155.403283 -292.659628 
L 155.405555 -291.156692 
L 155.408171 -289.653756 
L 155.411144 -288.150819 
L 155.414488 -286.647883 
L 155.418214 -285.144947 
L 155.422331 -283.64201 
L 155.426848 -282.139074 
L 155.431768 -280.636138 
L 155.437096 -279.133201 
L 155.442832 -277.630265 
L 155.448975 -276.127329 
L 155.455521 -274.624392 
L 155.462463 -273.121456 
L 155.469793 -271.618519 
L 155.477501 -270.115583 
L 155.485572 -268.612647 
L 155.493991 -267.10971 
L 155.502739 -265.606774 
L 155.511796 -264.103838 
L 155.521138 -262.600901 
L 155.53074 -261.097965 
L 155.540574 -259.595029 
L 155.550611 -258.092092 
L 155.560819 -256.589156 
L 155.571164 -255.08622 
L 155.581611 -253.583283 
L 155.592122 -252.080347 
L 155.602659 -250.577411 
L 155.613182 -249.074474 
L 155.62365 -247.571538 
L 155.634021 -246.068601 
L 155.644252 -244.565665 
L 155.654299 -243.062729 
L 155.664119 -241.559792 
L 155.673667 -240.056856 
L 155.682901 -238.55392 
L 155.691775 -237.050983 
L 155.700248 -235.548047 
L 155.708277 -234.045111 
L 155.715819 -232.542174 
L 155.722836 -231.039238 
L 155.729288 -229.536302 
L 155.735137 -228.033365 
L 155.740349 -226.530429 
L 155.744889 -225.027493 
L 155.748726 -223.524556 
L 155.751832 -222.02162 
L 155.754178 -220.518683 
L 155.755742 -219.015747 
L 155.756501 -217.512811 
L 155.756439 -216.009874 
L 155.755538 -214.506938 
L 155.753787 -213.004002 
L 155.751176 -211.501065 
z
" id="m79d00043f0" style="stroke:#545454;stroke-width:2.5;"/>
    </defs>
    <g clip-path="url(#pfdf6180083)">
     <use style="fill:#d98b5f;stroke:#545454;stroke-width:2.5;" x="0" xlink:href="#m79d00043f0" y="503.420156"/>
    </g>
   </g>
   <g id="PolyCollection_5">
    <defs>
     <path d="M 199.269226 -211.501065 
L 177.011875 -211.501065 
L 177.547352 -213.812817 
L 179.00409 -216.124569 
L 181.000584 -218.43632 
L 183.084847 -220.748072 
L 184.896898 -223.059824 
L 186.25493 -225.371575 
L 187.14734 -227.683327 
L 187.666531 -229.995079 
L 187.935568 -232.30683 
L 188.060234 -234.618582 
L 188.112036 -236.930333 
L 188.131378 -239.242085 
L 188.137877 -241.553837 
L 188.139844 -243.865588 
L 188.140381 -246.17734 
L 188.14051 -248.489092 
L 188.140531 -250.800843 
L 188.140514 -253.112595 
L 188.140453 -255.424347 
L 188.14031 -257.736098 
L 188.140001 -260.04785 
L 188.139393 -262.359602 
L 188.138294 -264.671353 
L 188.136459 -266.983105 
L 188.133623 -269.294857 
L 188.129538 -271.606608 
L 188.124029 -273.91836 
L 188.117023 -276.230111 
L 188.108561 -278.541863 
L 188.098764 -280.853615 
L 188.087773 -283.165366 
L 188.075687 -285.477118 
L 188.062535 -287.78887 
L 188.048331 -290.100621 
L 188.03318 -292.412373 
L 188.017389 -294.724125 
L 188.001479 -297.035876 
L 187.986073 -299.347628 
L 187.971689 -301.65938 
L 187.958533 -303.971131 
L 187.946391 -306.282883 
L 187.934655 -308.594635 
L 187.922437 -310.906386 
L 187.908699 -313.218138 
L 187.892311 -315.529889 
L 187.872044 -317.841641 
L 187.846574 -320.153393 
L 187.814585 -322.465144 
L 187.775064 -324.776896 
L 187.727751 -327.088648 
L 187.673688 -329.400399 
L 187.615728 -331.712151 
L 187.558818 -334.023903 
L 187.509779 -336.335654 
L 187.476349 -338.647406 
L 187.465463 -340.959158 
L 187.481202 -343.270909 
L 187.523196 -345.582661 
L 187.586271 -347.894413 
L 187.661646 -350.206164 
L 187.739242 -352.517916 
L 187.810198 -354.829668 
L 187.868629 -357.141419 
L 187.912155 -359.453171 
L 187.941317 -361.764922 
L 187.958426 -364.076674 
L 187.966424 -366.388426 
L 187.968123 -368.700177 
L 187.965838 -371.011929 
L 187.96129 -373.323681 
L 187.955598 -375.635432 
L 187.949328 -377.947184 
L 187.942631 -380.258936 
L 187.935509 -382.570687 
L 187.928147 -384.882439 
L 187.921142 -387.194191 
L 187.91549 -389.505942 
L 187.91227 -391.817694 
L 187.912184 -394.129446 
L 187.915221 -396.441197 
L 187.920675 -398.752949 
L 187.92751 -401.0647 
L 187.934841 -403.376452 
L 187.942243 -405.688204 
L 187.949768 -407.999955 
L 187.957763 -410.311707 
L 187.966668 -412.623459 
L 187.976905 -414.93521 
L 187.988818 -417.246962 
L 188.002603 -419.558714 
L 188.018193 -421.870465 
L 188.035167 -424.182217 
L 188.052762 -426.493969 
L 188.070014 -428.80572 
L 188.085978 -431.117472 
L 188.099926 -433.429224 
L 188.111465 -435.740975 
L 188.120537 -438.052727 
L 188.127333 -440.364478 
L 188.153768 -440.364478 
L 188.153768 -440.364478 
L 188.160565 -438.052727 
L 188.169636 -435.740975 
L 188.181175 -433.429224 
L 188.195123 -431.117472 
L 188.211087 -428.80572 
L 188.228339 -426.493969 
L 188.245935 -424.182217 
L 188.262908 -421.870465 
L 188.278498 -419.558714 
L 188.292284 -417.246962 
L 188.304197 -414.93521 
L 188.314433 -412.623459 
L 188.323338 -410.311707 
L 188.331333 -407.999955 
L 188.338859 -405.688204 
L 188.346261 -403.376452 
L 188.353591 -401.0647 
L 188.360427 -398.752949 
L 188.365881 -396.441197 
L 188.368917 -394.129446 
L 188.368831 -391.817694 
L 188.365611 -389.505942 
L 188.359959 -387.194191 
L 188.352954 -384.882439 
L 188.345592 -382.570687 
L 188.338471 -380.258936 
L 188.331773 -377.947184 
L 188.325503 -375.635432 
L 188.319811 -373.323681 
L 188.315264 -371.011929 
L 188.312979 -368.700177 
L 188.314677 -366.388426 
L 188.322675 -364.076674 
L 188.339784 -361.764922 
L 188.368946 -359.453171 
L 188.412472 -357.141419 
L 188.470903 -354.829668 
L 188.541859 -352.517916 
L 188.619456 -350.206164 
L 188.69483 -347.894413 
L 188.757905 -345.582661 
L 188.799899 -343.270909 
L 188.815638 -340.959158 
L 188.804753 -338.647406 
L 188.771322 -336.335654 
L 188.722283 -334.023903 
L 188.665373 -331.712151 
L 188.607413 -329.400399 
L 188.55335 -327.088648 
L 188.506037 -324.776896 
L 188.466516 -322.465144 
L 188.434528 -320.153393 
L 188.409057 -317.841641 
L 188.38879 -315.529889 
L 188.372402 -313.218138 
L 188.358664 -310.906386 
L 188.346446 -308.594635 
L 188.33471 -306.282883 
L 188.322568 -303.971131 
L 188.309412 -301.65938 
L 188.295028 -299.347628 
L 188.279622 -297.035876 
L 188.263712 -294.724125 
L 188.247921 -292.412373 
L 188.232771 -290.100621 
L 188.218566 -287.78887 
L 188.205414 -285.477118 
L 188.193328 -283.165366 
L 188.182338 -280.853615 
L 188.17254 -278.541863 
L 188.164078 -276.230111 
L 188.157072 -273.91836 
L 188.151563 -271.606608 
L 188.147479 -269.294857 
L 188.144642 -266.983105 
L 188.142808 -264.671353 
L 188.141708 -262.359602 
L 188.1411 -260.04785 
L 188.140791 -257.736098 
L 188.140648 -255.424347 
L 188.140588 -253.112595 
L 188.14057 -250.800843 
L 188.140591 -248.489092 
L 188.140721 -246.17734 
L 188.141257 -243.865588 
L 188.143224 -241.553837 
L 188.149723 -239.242085 
L 188.169065 -236.930333 
L 188.220867 -234.618582 
L 188.345534 -232.30683 
L 188.61457 -229.995079 
L 189.133761 -227.683327 
L 190.026171 -225.371575 
L 191.384203 -223.059824 
L 193.196254 -220.748072 
L 195.280517 -218.43632 
L 197.277012 -216.124569 
L 198.733749 -213.812817 
L 199.269226 -211.501065 
z
" id="m59ddf083af" style="stroke:#545454;stroke-width:2.5;"/>
    </defs>
    <g clip-path="url(#pfdf6180083)">
     <use style="fill:#597dbf;stroke:#545454;stroke-width:2.5;" x="0" xlink:href="#m59ddf083af" y="503.420156"/>
    </g>
   </g>
   <g id="PolyCollection_6">
    <defs>
     <path d="M 211.398703 -211.501065 
L 209.397101 -211.501065 
L 209.39475 -213.444637 
L 209.393315 -215.38821 
L 209.392783 -217.331782 
L 209.393138 -219.275354 
L 209.394361 -221.218926 
L 209.39643 -223.162498 
L 209.399319 -225.10607 
L 209.402998 -227.049643 
L 209.407434 -228.993215 
L 209.412595 -230.936787 
L 209.418441 -232.880359 
L 209.424932 -234.823931 
L 209.432028 -236.767503 
L 209.439683 -238.711075 
L 209.447852 -240.654648 
L 209.456488 -242.59822 
L 209.465543 -244.541792 
L 209.474967 -246.485364 
L 209.48471 -248.428936 
L 209.494724 -250.372508 
L 209.504956 -252.316081 
L 209.515359 -254.259653 
L 209.525882 -256.203225 
L 209.536476 -258.146797 
L 209.547095 -260.090369 
L 209.557691 -262.033941 
L 209.56822 -263.977513 
L 209.578638 -265.921086 
L 209.588905 -267.864658 
L 209.598982 -269.80823 
L 209.608831 -271.751802 
L 209.618418 -273.695374 
L 209.627711 -275.638946 
L 209.636682 -277.582518 
L 209.645304 -279.526091 
L 209.653554 -281.469663 
L 209.661411 -283.413235 
L 209.668859 -285.356807 
L 209.675883 -287.300379 
L 209.682471 -289.243951 
L 209.688616 -291.187524 
L 209.694312 -293.131096 
L 209.699558 -295.074668 
L 209.704354 -297.01824 
L 209.708703 -298.961812 
L 209.712613 -300.905384 
L 209.716092 -302.848956 
L 209.719152 -304.792529 
L 209.721807 -306.736101 
L 209.724073 -308.679673 
L 209.725968 -310.623245 
L 209.727513 -312.566817 
L 209.728729 -314.510389 
L 209.729641 -316.453962 
L 209.730274 -318.397534 
L 209.730653 -320.341106 
L 209.730808 -322.284678 
L 209.730765 -324.22825 
L 209.730555 -326.171822 
L 209.730206 -328.115394 
L 209.72975 -330.058967 
L 209.729216 -332.002539 
L 209.728634 -333.946111 
L 209.728036 -335.889683 
L 209.72745 -337.833255 
L 209.726907 -339.776827 
L 209.726435 -341.720399 
L 209.726062 -343.663972 
L 209.725816 -345.607544 
L 209.725723 -347.551116 
L 209.725809 -349.494688 
L 209.726098 -351.43826 
L 209.726611 -353.381832 
L 209.727372 -355.325405 
L 209.7284 -357.268977 
L 209.729714 -359.212549 
L 209.73133 -361.156121 
L 209.733264 -363.099693 
L 209.73553 -365.043265 
L 209.73814 -366.986837 
L 209.741105 -368.93041 
L 209.744433 -370.873982 
L 209.748131 -372.817554 
L 209.752206 -374.761126 
L 209.756659 -376.704698 
L 209.761495 -378.64827 
L 209.766712 -380.591842 
L 209.772311 -382.535415 
L 209.778288 -384.478987 
L 209.784639 -386.422559 
L 209.791359 -388.366131 
L 209.79844 -390.309703 
L 209.805875 -392.253275 
L 209.813654 -394.196848 
L 209.821766 -396.14042 
L 209.830199 -398.083992 
L 209.838941 -400.027564 
L 209.847977 -401.971136 
L 209.857293 -403.914708 
L 210.938511 -403.914708 
L 210.938511 -403.914708 
L 210.947827 -401.971136 
L 210.956863 -400.027564 
L 210.965604 -398.083992 
L 210.974038 -396.14042 
L 210.98215 -394.196848 
L 210.989928 -392.253275 
L 210.997363 -390.309703 
L 211.004445 -388.366131 
L 211.011165 -386.422559 
L 211.017516 -384.478987 
L 211.023493 -382.535415 
L 211.029092 -380.591842 
L 211.034309 -378.64827 
L 211.039144 -376.704698 
L 211.043598 -374.761126 
L 211.047672 -372.817554 
L 211.051371 -370.873982 
L 211.054699 -368.93041 
L 211.057663 -366.986837 
L 211.060274 -365.043265 
L 211.06254 -363.099693 
L 211.064474 -361.156121 
L 211.06609 -359.212549 
L 211.067404 -357.268977 
L 211.068431 -355.325405 
L 211.069192 -353.381832 
L 211.069706 -351.43826 
L 211.069995 -349.494688 
L 211.07008 -347.551116 
L 211.069988 -345.607544 
L 211.069742 -343.663972 
L 211.069369 -341.720399 
L 211.068897 -339.776827 
L 211.068354 -337.833255 
L 211.067768 -335.889683 
L 211.06717 -333.946111 
L 211.066588 -332.002539 
L 211.066054 -330.058967 
L 211.065598 -328.115394 
L 211.065249 -326.171822 
L 211.065039 -324.22825 
L 211.064996 -322.284678 
L 211.06515 -320.341106 
L 211.06553 -318.397534 
L 211.066163 -316.453962 
L 211.067075 -314.510389 
L 211.068291 -312.566817 
L 211.069836 -310.623245 
L 211.071731 -308.679673 
L 211.073997 -306.736101 
L 211.076651 -304.792529 
L 211.079711 -302.848956 
L 211.08319 -300.905384 
L 211.0871 -298.961812 
L 211.09145 -297.01824 
L 211.096246 -295.074668 
L 211.101492 -293.131096 
L 211.107188 -291.187524 
L 211.113333 -289.243951 
L 211.119921 -287.300379 
L 211.126945 -285.356807 
L 211.134392 -283.413235 
L 211.14225 -281.469663 
L 211.1505 -279.526091 
L 211.159122 -277.582518 
L 211.168093 -275.638946 
L 211.177386 -273.695374 
L 211.186973 -271.751802 
L 211.196822 -269.80823 
L 211.206899 -267.864658 
L 211.217166 -265.921086 
L 211.227584 -263.977513 
L 211.238113 -262.033941 
L 211.248709 -260.090369 
L 211.259328 -258.146797 
L 211.269922 -256.203225 
L 211.280445 -254.259653 
L 211.290847 -252.316081 
L 211.30108 -250.372508 
L 211.311093 -248.428936 
L 211.320837 -246.485364 
L 211.330261 -244.541792 
L 211.339316 -242.59822 
L 211.347951 -240.654648 
L 211.356121 -238.711075 
L 211.363776 -236.767503 
L 211.370871 -234.823931 
L 211.377363 -232.880359 
L 211.383209 -230.936787 
L 211.388369 -228.993215 
L 211.392806 -227.049643 
L 211.396485 -225.10607 
L 211.399373 -223.162498 
L 211.401442 -221.218926 
L 211.402666 -219.275354 
L 211.403021 -217.331782 
L 211.402489 -215.38821 
L 211.401054 -213.444637 
L 211.398703 -211.501065 
z
" id="m1a3b9fb2a9" style="stroke:#545454;stroke-width:2.5;"/>
    </defs>
    <g clip-path="url(#pfdf6180083)">
     <use style="fill:#d98b5f;stroke:#545454;stroke-width:2.5;" x="0" xlink:href="#m1a3b9fb2a9" y="503.420156"/>
    </g>
   </g>
   <g id="PolyCollection_7">
    <defs>
     <path d="M 254.912604 -211.501065 
L 232.655253 -211.501065 
L 233.183114 -213.111672 
L 234.621163 -214.722278 
L 236.597626 -216.332885 
L 238.66975 -217.943491 
L 240.481466 -219.554098 
L 241.848882 -221.164704 
L 242.755115 -222.775311 
L 243.287596 -224.385917 
L 243.566658 -225.996524 
L 243.697627 -227.60713 
L 243.752823 -229.217737 
L 243.773756 -230.828343 
L 243.78091 -232.43895 
L 243.783116 -234.049556 
L 243.78373 -235.660163 
L 243.783884 -237.270769 
L 243.783918 -238.881376 
L 243.78392 -240.491982 
L 243.783907 -242.102589 
L 243.783869 -243.713195 
L 243.783774 -245.323802 
L 243.78356 -246.934408 
L 243.78312 -248.545015 
L 243.782289 -250.155621 
L 243.780847 -251.766228 
L 243.778543 -253.376834 
L 243.775137 -254.987441 
L 243.770459 -256.598047 
L 243.764463 -258.208654 
L 243.757235 -259.81926 
L 243.748969 -261.429867 
L 243.739867 -263.040473 
L 243.730012 -264.65108 
L 243.719236 -266.261686 
L 243.707057 -267.872293 
L 243.692738 -269.482899 
L 243.675494 -271.093506 
L 243.654812 -272.704112 
L 243.630747 -274.314719 
L 243.604058 -275.925325 
L 243.576042 -277.535932 
L 243.548052 -279.146538 
L 243.520839 -280.757145 
L 243.493994 -282.367751 
L 243.46575 -283.978358 
L 243.433321 -285.588964 
L 243.393751 -287.199571 
L 243.345138 -288.810177 
L 243.287948 -290.420784 
L 243.226017 -292.03139 
L 243.166721 -293.641997 
L 243.119856 -295.252603 
L 243.095209 -296.86321 
L 243.099493 -298.473816 
L 243.133875 -300.084423 
L 243.193303 -301.695029 
L 243.268022 -303.305636 
L 243.346634 -304.916242 
L 243.419326 -306.526849 
L 243.479952 -308.137455 
L 243.526449 -309.748062 
L 243.559887 -311.358668 
L 243.582952 -312.969275 
L 243.598609 -314.579881 
L 243.609306 -316.190488 
L 243.616694 -317.801094 
L 243.621682 -319.411701 
L 243.624608 -321.022307 
L 243.62543 -322.632914 
L 243.623897 -324.24352 
L 243.619685 -325.854127 
L 243.612511 -327.464733 
L 243.602247 -329.07534 
L 243.589046 -330.685946 
L 243.57348 -332.296553 
L 243.556612 -333.907159 
L 243.539949 -335.517766 
L 243.525248 -337.128372 
L 243.514263 -338.738979 
L 243.508509 -340.349585 
L 243.509089 -341.960192 
L 243.516494 -343.570798 
L 243.530388 -345.181405 
L 243.549465 -346.792011 
L 243.571542 -348.402618 
L 243.59401 -350.013224 
L 243.61451 -351.623831 
L 243.631577 -353.234437 
L 243.644951 -354.845044 
L 243.655449 -356.45565 
L 243.664493 -358.066257 
L 243.67352 -359.676863 
L 243.68352 -361.28747 
L 243.694854 -362.898076 
L 243.707308 -364.508683 
L 243.720308 -366.119289 
L 243.733138 -367.729896 
L 243.745104 -369.340502 
L 243.755646 -370.951109 
L 243.812211 -370.951109 
L 243.812211 -370.951109 
L 243.822753 -369.340502 
L 243.83472 -367.729896 
L 243.847549 -366.119289 
L 243.860549 -364.508683 
L 243.873004 -362.898076 
L 243.884337 -361.28747 
L 243.894338 -359.676863 
L 243.903364 -358.066257 
L 243.912408 -356.45565 
L 243.922907 -354.845044 
L 243.93628 -353.234437 
L 243.953347 -351.623831 
L 243.973848 -350.013224 
L 243.996315 -348.402618 
L 244.018393 -346.792011 
L 244.037469 -345.181405 
L 244.051364 -343.570798 
L 244.058768 -341.960192 
L 244.059348 -340.349585 
L 244.053595 -338.738979 
L 244.042609 -337.128372 
L 244.027909 -335.517766 
L 244.011246 -333.907159 
L 243.994378 -332.296553 
L 243.978811 -330.685946 
L 243.96561 -329.07534 
L 243.955346 -327.464733 
L 243.948173 -325.854127 
L 243.94396 -324.24352 
L 243.942427 -322.632914 
L 243.94325 -321.022307 
L 243.946176 -319.411701 
L 243.951164 -317.801094 
L 243.958551 -316.190488 
L 243.969248 -314.579881 
L 243.984906 -312.969275 
L 244.007971 -311.358668 
L 244.041408 -309.748062 
L 244.087905 -308.137455 
L 244.148531 -306.526849 
L 244.221223 -304.916242 
L 244.299836 -303.305636 
L 244.374554 -301.695029 
L 244.433982 -300.084423 
L 244.468365 -298.473816 
L 244.472648 -296.86321 
L 244.448002 -295.252603 
L 244.401137 -293.641997 
L 244.341841 -292.03139 
L 244.27991 -290.420784 
L 244.222719 -288.810177 
L 244.174106 -287.199571 
L 244.134536 -285.588964 
L 244.102107 -283.978358 
L 244.073863 -282.367751 
L 244.047018 -280.757145 
L 244.019806 -279.146538 
L 243.991816 -277.535932 
L 243.9638 -275.925325 
L 243.93711 -274.314719 
L 243.913045 -272.704112 
L 243.892363 -271.093506 
L 243.87512 -269.482899 
L 243.8608 -267.872293 
L 243.848621 -266.261686 
L 243.837845 -264.65108 
L 243.82799 -263.040473 
L 243.818888 -261.429867 
L 243.810622 -259.81926 
L 243.803395 -258.208654 
L 243.797398 -256.598047 
L 243.792721 -254.987441 
L 243.789315 -253.376834 
L 243.78701 -251.766228 
L 243.785569 -250.155621 
L 243.784738 -248.545015 
L 243.784297 -246.934408 
L 243.784083 -245.323802 
L 243.783988 -243.713195 
L 243.78395 -242.102589 
L 243.783937 -240.491982 
L 243.78394 -238.881376 
L 243.783973 -237.270769 
L 243.784127 -235.660163 
L 243.784742 -234.049556 
L 243.786947 -232.43895 
L 243.794101 -230.828343 
L 243.815034 -229.217737 
L 243.870231 -227.60713 
L 244.0012 -225.996524 
L 244.280262 -224.385917 
L 244.812742 -222.775311 
L 245.718975 -221.164704 
L 247.086391 -219.554098 
L 248.898108 -217.943491 
L 250.970231 -216.332885 
L 252.946695 -214.722278 
L 254.384744 -213.111672 
L 254.912604 -211.501065 
z
" id="m1cdbe4b29a" style="stroke:#545454;stroke-width:2.5;"/>
    </defs>
    <g clip-path="url(#pfdf6180083)">
     <use style="fill:#597dbf;stroke:#545454;stroke-width:2.5;" x="0" xlink:href="#m1cdbe4b29a" y="503.420156"/>
    </g>
   </g>
   <g id="PolyCollection_8">
    <defs>
     <path d="M 267.036189 -211.501065 
L 265.046371 -211.501065 
L 265.043854 -212.880223 
L 265.042242 -214.25938 
L 265.041524 -215.638538 
L 265.041685 -217.017695 
L 265.042706 -218.396853 
L 265.044565 -219.77601 
L 265.047239 -221.155167 
L 265.050698 -222.534325 
L 265.054912 -223.913482 
L 265.059847 -225.29264 
L 265.065468 -226.671797 
L 265.071734 -228.050955 
L 265.078606 -229.430112 
L 265.086042 -230.809269 
L 265.093996 -232.188427 
L 265.102424 -233.567584 
L 265.111279 -234.946742 
L 265.120513 -236.325899 
L 265.130077 -237.705057 
L 265.139924 -239.084214 
L 265.150005 -240.463372 
L 265.160272 -241.842529 
L 265.170676 -243.221686 
L 265.181171 -244.600844 
L 265.19171 -245.980001 
L 265.202248 -247.359159 
L 265.212741 -248.738316 
L 265.223148 -250.117474 
L 265.233428 -251.496631 
L 265.243542 -252.875789 
L 265.253456 -254.254946 
L 265.263135 -255.634103 
L 265.272548 -257.013261 
L 265.281666 -258.392418 
L 265.290464 -259.771576 
L 265.298917 -261.150733 
L 265.307006 -262.529891 
L 265.314712 -263.909048 
L 265.322022 -265.288205 
L 265.328923 -266.667363 
L 265.335406 -268.04652 
L 265.341466 -269.425678 
L 265.347099 -270.804835 
L 265.352305 -272.183993 
L 265.357085 -273.56315 
L 265.361445 -274.942308 
L 265.365392 -276.321465 
L 265.368935 -277.700622 
L 265.372088 -279.07978 
L 265.374863 -280.458937 
L 265.377277 -281.838095 
L 265.379349 -283.217252 
L 265.381097 -284.59641 
L 265.382544 -285.975567 
L 265.383712 -287.354724 
L 265.384624 -288.733882 
L 265.385307 -290.113039 
L 265.385786 -291.492197 
L 265.386088 -292.871354 
L 265.386241 -294.250512 
L 265.386271 -295.629669 
L 265.386207 -297.008827 
L 265.386078 -298.387984 
L 265.385911 -299.767141 
L 265.385734 -301.146299 
L 265.385576 -302.525456 
L 265.385463 -303.904614 
L 265.385421 -305.283771 
L 265.385477 -306.662929 
L 265.385657 -308.042086 
L 265.385983 -309.421243 
L 265.38648 -310.800401 
L 265.387169 -312.179558 
L 265.388072 -313.558716 
L 265.389207 -314.937873 
L 265.390594 -316.317031 
L 265.39225 -317.696188 
L 265.39419 -319.075346 
L 265.396428 -320.454503 
L 265.398976 -321.83366 
L 265.401847 -323.212818 
L 265.405049 -324.591975 
L 265.408591 -325.971133 
L 265.412479 -327.35029 
L 265.416718 -328.729448 
L 265.421311 -330.108605 
L 265.426261 -331.487763 
L 265.431568 -332.86692 
L 265.43723 -334.246077 
L 265.443246 -335.625235 
L 265.449611 -337.004392 
L 265.456321 -338.38355 
L 265.463368 -339.762707 
L 265.470745 -341.141865 
L 265.478444 -342.521022 
L 265.486454 -343.900179 
L 265.494763 -345.279337 
L 265.503361 -346.658494 
L 265.512234 -348.037652 
L 266.570326 -348.037652 
L 266.570326 -348.037652 
L 266.579199 -346.658494 
L 266.587796 -345.279337 
L 266.596106 -343.900179 
L 266.604116 -342.521022 
L 266.611814 -341.141865 
L 266.619192 -339.762707 
L 266.626239 -338.38355 
L 266.632949 -337.004392 
L 266.639314 -335.625235 
L 266.64533 -334.246077 
L 266.650992 -332.86692 
L 266.656299 -331.487763 
L 266.661249 -330.108605 
L 266.665842 -328.729448 
L 266.670081 -327.35029 
L 266.673969 -325.971133 
L 266.677511 -324.591975 
L 266.680713 -323.212818 
L 266.683583 -321.83366 
L 266.686132 -320.454503 
L 266.68837 -319.075346 
L 266.69031 -317.696188 
L 266.691965 -316.317031 
L 266.693352 -314.937873 
L 266.694488 -313.558716 
L 266.695391 -312.179558 
L 266.69608 -310.800401 
L 266.696577 -309.421243 
L 266.696903 -308.042086 
L 266.697082 -306.662929 
L 266.697139 -305.283771 
L 266.697097 -303.904614 
L 266.696984 -302.525456 
L 266.696825 -301.146299 
L 266.696649 -299.767141 
L 266.696482 -298.387984 
L 266.696352 -297.008827 
L 266.696289 -295.629669 
L 266.696319 -294.250512 
L 266.696471 -292.871354 
L 266.696773 -291.492197 
L 266.697252 -290.113039 
L 266.697935 -288.733882 
L 266.698848 -287.354724 
L 266.700016 -285.975567 
L 266.701463 -284.59641 
L 266.703211 -283.217252 
L 266.705282 -281.838095 
L 266.707697 -280.458937 
L 266.710472 -279.07978 
L 266.713624 -277.700622 
L 266.717168 -276.321465 
L 266.721115 -274.942308 
L 266.725475 -273.56315 
L 266.730255 -272.183993 
L 266.735461 -270.804835 
L 266.741094 -269.425678 
L 266.747153 -268.04652 
L 266.753637 -266.667363 
L 266.760538 -265.288205 
L 266.767848 -263.909048 
L 266.775554 -262.529891 
L 266.783643 -261.150733 
L 266.792096 -259.771576 
L 266.800893 -258.392418 
L 266.810012 -257.013261 
L 266.819424 -255.634103 
L 266.829103 -254.254946 
L 266.839017 -252.875789 
L 266.849132 -251.496631 
L 266.859412 -250.117474 
L 266.869819 -248.738316 
L 266.880312 -247.359159 
L 266.89085 -245.980001 
L 266.901389 -244.600844 
L 266.911883 -243.221686 
L 266.922288 -241.842529 
L 266.932554 -240.463372 
L 266.942635 -239.084214 
L 266.952482 -237.705057 
L 266.962047 -236.325899 
L 266.971281 -234.946742 
L 266.980135 -233.567584 
L 266.988563 -232.188427 
L 266.996518 -230.809269 
L 267.003953 -229.430112 
L 267.010826 -228.050955 
L 267.017092 -226.671797 
L 267.022712 -225.29264 
L 267.027648 -223.913482 
L 267.031862 -222.534325 
L 267.035321 -221.155167 
L 267.037994 -219.77601 
L 267.039854 -218.396853 
L 267.040875 -217.017695 
L 267.041036 -215.638538 
L 267.040318 -214.25938 
L 267.038706 -212.880223 
L 267.036189 -211.501065 
z
" id="m35504c2586" style="stroke:#545454;stroke-width:2.5;"/>
    </defs>
    <g clip-path="url(#pfdf6180083)">
     <use style="fill:#d98b5f;stroke:#545454;stroke-width:2.5;" x="0" xlink:href="#m35504c2586" y="503.420156"/>
    </g>
   </g>
   <g id="PolyCollection_9">
    <defs>
     <path d="M 310.555982 -211.501065 
L 288.298631 -211.501065 
L 288.820862 -212.390953 
L 290.24506 -213.280842 
L 292.206583 -214.17073 
L 294.269497 -215.060618 
L 296.080716 -215.950506 
L 297.454918 -216.840394 
L 298.371376 -217.730282 
L 298.913818 -218.62017 
L 299.200488 -219.510058 
L 299.336299 -220.399946 
L 299.394138 -221.289834 
L 299.416326 -222.179722 
L 299.424004 -223.069611 
L 299.426405 -223.959499 
L 299.427083 -224.849387 
L 299.427256 -225.739275 
L 299.427296 -226.629163 
L 299.427305 -227.519051 
L 299.427306 -228.408939 
L 299.427306 -229.298827 
L 299.427305 -230.188715 
L 299.4273 -231.078603 
L 299.427286 -231.968491 
L 299.427245 -232.85838 
L 299.427142 -233.748268 
L 299.426902 -234.638156 
L 299.426395 -235.528044 
L 299.425411 -236.417932 
L 299.423661 -237.30782 
L 299.420796 -238.197708 
L 299.416454 -239.087596 
L 299.41033 -239.977484 
L 299.402226 -240.867372 
L 299.392072 -241.75726 
L 299.379903 -242.647149 
L 299.365818 -243.537037 
L 299.349934 -244.426925 
L 299.332331 -245.316813 
L 299.312982 -246.206701 
L 299.291639 -247.096589 
L 299.26769 -247.986477 
L 299.240037 -248.876365 
L 299.207071 -249.766253 
L 299.166815 -250.656141 
L 299.117288 -251.54603 
L 299.057144 -252.435918 
L 298.986554 -253.325806 
L 298.908233 -254.215694 
L 298.828212 -255.105582 
L 298.755772 -255.99547 
L 298.702013 -256.885358 
L 298.677061 -257.775246 
L 298.686782 -258.665134 
L 298.730445 -259.555022 
L 298.800564 -260.44491 
L 298.885139 -261.334799 
L 298.97128 -262.224687 
L 299.048614 -263.114575 
L 299.11119 -264.004463 
L 299.157518 -264.894351 
L 299.189283 -265.784239 
L 299.209633 -266.674127 
L 299.221791 -267.564015 
L 299.228303 -268.453903 
L 299.230913 -269.343791 
L 299.230795 -270.233679 
L 299.228891 -271.123568 
L 299.226132 -272.013456 
L 299.223441 -272.903344 
L 299.221532 -273.793232 
L 299.220618 -274.68312 
L 299.220232 -275.573008 
L 299.219303 -276.462896 
L 299.216523 -277.352784 
L 299.210872 -278.242672 
L 299.20209 -279.13256 
L 299.190893 -280.022448 
L 299.178854 -280.912337 
L 299.16804 -281.802225 
L 299.16053 -282.692113 
L 299.157994 -283.582001 
L 299.161392 -284.471889 
L 299.17082 -285.361777 
L 299.18551 -286.251665 
L 299.203981 -287.141553 
L 299.224357 -288.031441 
L 299.244776 -288.921329 
L 299.263802 -289.811217 
L 299.280679 -290.701106 
L 299.29538 -291.590994 
L 299.308435 -292.480882 
L 299.320638 -293.37077 
L 299.332736 -294.260658 
L 299.345183 -295.150546 
L 299.35803 -296.040434 
L 299.370942 -296.930322 
L 299.383344 -297.82021 
L 299.394603 -298.710098 
L 299.404206 -299.599986 
L 299.450407 -299.599986 
L 299.450407 -299.599986 
L 299.460011 -298.710098 
L 299.471269 -297.82021 
L 299.483671 -296.930322 
L 299.496584 -296.040434 
L 299.50943 -295.150546 
L 299.521878 -294.260658 
L 299.533976 -293.37077 
L 299.546178 -292.480882 
L 299.559233 -291.590994 
L 299.573934 -290.701106 
L 299.590812 -289.811217 
L 299.609837 -288.921329 
L 299.630256 -288.031441 
L 299.650632 -287.141553 
L 299.669104 -286.251665 
L 299.683794 -285.361777 
L 299.693221 -284.471889 
L 299.696619 -283.582001 
L 299.694083 -282.692113 
L 299.686574 -281.802225 
L 299.675759 -280.912337 
L 299.663721 -280.022448 
L 299.652523 -279.13256 
L 299.643741 -278.242672 
L 299.638091 -277.352784 
L 299.63531 -276.462896 
L 299.634381 -275.573008 
L 299.633995 -274.68312 
L 299.633081 -273.793232 
L 299.631172 -272.903344 
L 299.628482 -272.013456 
L 299.625722 -271.123568 
L 299.623818 -270.233679 
L 299.6237 -269.343791 
L 299.626311 -268.453903 
L 299.632823 -267.564015 
L 299.64498 -266.674127 
L 299.665331 -265.784239 
L 299.697095 -264.894351 
L 299.743423 -264.004463 
L 299.805999 -263.114575 
L 299.883334 -262.224687 
L 299.969474 -261.334799 
L 300.054049 -260.44491 
L 300.124168 -259.555022 
L 300.167831 -258.665134 
L 300.177553 -257.775246 
L 300.152601 -256.885358 
L 300.098842 -255.99547 
L 300.026402 -255.105582 
L 299.94638 -254.215694 
L 299.868059 -253.325806 
L 299.797469 -252.435918 
L 299.737325 -251.54603 
L 299.687799 -250.656141 
L 299.647542 -249.766253 
L 299.614576 -248.876365 
L 299.586924 -247.986477 
L 299.562975 -247.096589 
L 299.541632 -246.206701 
L 299.522282 -245.316813 
L 299.504679 -244.426925 
L 299.488795 -243.537037 
L 299.474711 -242.647149 
L 299.462541 -241.75726 
L 299.452387 -240.867372 
L 299.444283 -239.977484 
L 299.43816 -239.087596 
L 299.433818 -238.197708 
L 299.430952 -237.30782 
L 299.429202 -236.417932 
L 299.428218 -235.528044 
L 299.427711 -234.638156 
L 299.427471 -233.748268 
L 299.427368 -232.85838 
L 299.427328 -231.968491 
L 299.427313 -231.078603 
L 299.427309 -230.188715 
L 299.427307 -229.298827 
L 299.427307 -228.408939 
L 299.427309 -227.519051 
L 299.427317 -226.629163 
L 299.427357 -225.739275 
L 299.42753 -224.849387 
L 299.428209 -223.959499 
L 299.430609 -223.069611 
L 299.438288 -222.179722 
L 299.460476 -221.289834 
L 299.518315 -220.399946 
L 299.654125 -219.510058 
L 299.940795 -218.62017 
L 300.483237 -217.730282 
L 301.399695 -216.840394 
L 302.773897 -215.950506 
L 304.585116 -215.060618 
L 306.648031 -214.17073 
L 308.609553 -213.280842 
L 310.033752 -212.390953 
L 310.555982 -211.501065 
z
" id="m1d139f9a81" style="stroke:#545454;stroke-width:2.5;"/>
    </defs>
    <g clip-path="url(#pfdf6180083)">
     <use style="fill:#597dbf;stroke:#545454;stroke-width:2.5;" x="0" xlink:href="#m1d139f9a81" y="503.420156"/>
    </g>
   </g>
   <g id="PolyCollection_10">
    <defs>
     <path d="M 322.702323 -211.501065 
L 320.666993 -211.501065 
L 320.664908 -212.198056 
L 320.663654 -212.895047 
L 320.66322 -213.592037 
L 320.663595 -214.289028 
L 320.664763 -214.986018 
L 320.666706 -215.683009 
L 320.669403 -216.38 
L 320.672831 -217.07699 
L 320.676965 -217.773981 
L 320.681777 -218.470972 
L 320.687235 -219.167962 
L 320.693309 -219.864953 
L 320.699963 -220.561943 
L 320.707162 -221.258934 
L 320.714868 -221.955925 
L 320.723043 -222.652915 
L 320.731647 -223.349906 
L 320.740638 -224.046896 
L 320.749974 -224.743887 
L 320.759614 -225.440878 
L 320.769515 -226.137868 
L 320.779632 -226.834859 
L 320.789924 -227.53185 
L 320.800348 -228.22884 
L 320.810861 -228.925831 
L 320.821421 -229.622821 
L 320.831988 -230.319812 
L 320.842521 -231.016803 
L 320.852981 -231.713793 
L 320.863331 -232.410784 
L 320.873534 -233.107774 
L 320.883555 -233.804765 
L 320.893363 -234.501756 
L 320.902925 -235.198746 
L 320.912212 -235.895737 
L 320.921198 -236.592728 
L 320.929858 -237.289718 
L 320.938168 -237.986709 
L 320.946109 -238.683699 
L 320.953663 -239.38069 
L 320.960814 -240.077681 
L 320.967548 -240.774671 
L 320.973856 -241.471662 
L 320.979728 -242.168652 
L 320.985159 -242.865643 
L 320.990146 -243.562634 
L 320.994686 -244.259624 
L 320.998783 -244.956615 
L 321.002438 -245.653606 
L 321.005659 -246.350596 
L 321.008452 -247.047587 
L 321.010829 -247.744577 
L 321.012801 -248.441568 
L 321.014382 -249.138559 
L 321.015587 -249.835549 
L 321.016435 -250.53254 
L 321.016945 -251.229531 
L 321.017136 -251.926521 
L 321.017031 -252.623512 
L 321.016654 -253.320502 
L 321.016027 -254.017493 
L 321.015177 -254.714484 
L 321.014129 -255.411474 
L 321.01291 -256.108465 
L 321.011548 -256.805455 
L 321.01007 -257.502446 
L 321.008505 -258.199437 
L 321.00688 -258.896427 
L 321.005225 -259.593418 
L 321.003566 -260.290409 
L 321.001933 -260.987399 
L 321.000354 -261.68439 
L 320.998854 -262.38138 
L 320.997463 -263.078371 
L 320.996204 -263.775362 
L 320.995105 -264.472352 
L 320.99419 -265.169343 
L 320.993482 -265.866333 
L 320.993004 -266.563324 
L 320.992777 -267.260315 
L 320.992823 -267.957305 
L 320.993159 -268.654296 
L 320.993805 -269.351287 
L 320.994776 -270.048277 
L 320.996087 -270.745268 
L 320.997753 -271.442258 
L 320.999784 -272.139249 
L 321.002192 -272.83624 
L 321.004986 -273.53323 
L 321.008173 -274.230221 
L 321.01176 -274.927212 
L 321.01575 -275.624202 
L 321.020146 -276.321193 
L 321.02495 -277.018183 
L 321.03016 -277.715174 
L 321.035776 -278.412165 
L 321.041795 -279.109155 
L 321.04821 -279.806146 
L 321.055016 -280.503136 
L 322.314299 -280.503136 
L 322.314299 -280.503136 
L 322.321106 -279.806146 
L 322.327521 -279.109155 
L 322.333539 -278.412165 
L 322.339155 -277.715174 
L 322.344366 -277.018183 
L 322.34917 -276.321193 
L 322.353566 -275.624202 
L 322.357556 -274.927212 
L 322.361142 -274.230221 
L 322.364329 -273.53323 
L 322.367123 -272.83624 
L 322.369532 -272.139249 
L 322.371563 -271.442258 
L 322.373229 -270.745268 
L 322.37454 -270.048277 
L 322.375511 -269.351287 
L 322.376156 -268.654296 
L 322.376493 -267.957305 
L 322.376538 -267.260315 
L 322.376312 -266.563324 
L 322.375834 -265.866333 
L 322.375126 -265.169343 
L 322.37421 -264.472352 
L 322.373111 -263.775362 
L 322.371853 -263.078371 
L 322.370461 -262.38138 
L 322.368962 -261.68439 
L 322.367382 -260.987399 
L 322.365749 -260.290409 
L 322.364091 -259.593418 
L 322.362435 -258.896427 
L 322.360811 -258.199437 
L 322.359245 -257.502446 
L 322.357767 -256.805455 
L 322.356405 -256.108465 
L 322.355187 -255.411474 
L 322.354139 -254.714484 
L 322.353289 -254.017493 
L 322.352662 -253.320502 
L 322.352284 -252.623512 
L 322.35218 -251.926521 
L 322.352371 -251.229531 
L 322.35288 -250.53254 
L 322.353728 -249.835549 
L 322.354934 -249.138559 
L 322.356515 -248.441568 
L 322.358487 -247.744577 
L 322.360863 -247.047587 
L 322.363657 -246.350596 
L 322.366877 -245.653606 
L 322.370533 -244.956615 
L 322.374629 -244.259624 
L 322.37917 -243.562634 
L 322.384157 -242.865643 
L 322.389588 -242.168652 
L 322.39546 -241.471662 
L 322.401767 -240.774671 
L 322.408502 -240.077681 
L 322.415652 -239.38069 
L 322.423206 -238.683699 
L 322.431147 -237.986709 
L 322.439458 -237.289718 
L 322.448118 -236.592728 
L 322.457104 -235.895737 
L 322.466391 -235.198746 
L 322.475953 -234.501756 
L 322.485761 -233.804765 
L 322.495782 -233.107774 
L 322.505985 -232.410784 
L 322.516335 -231.713793 
L 322.526795 -231.016803 
L 322.537328 -230.319812 
L 322.547894 -229.622821 
L 322.558455 -228.925831 
L 322.568968 -228.22884 
L 322.579391 -227.53185 
L 322.589683 -226.834859 
L 322.599801 -226.137868 
L 322.609701 -225.440878 
L 322.619341 -224.743887 
L 322.628678 -224.046896 
L 322.637669 -223.349906 
L 322.646272 -222.652915 
L 322.654447 -221.955925 
L 322.662154 -221.258934 
L 322.669353 -220.561943 
L 322.676007 -219.864953 
L 322.68208 -219.167962 
L 322.687539 -218.470972 
L 322.69235 -217.773981 
L 322.696484 -217.07699 
L 322.699913 -216.38 
L 322.70261 -215.683009 
L 322.704553 -214.986018 
L 322.705721 -214.289028 
L 322.706096 -213.592037 
L 322.705662 -212.895047 
L 322.704408 -212.198056 
L 322.702323 -211.501065 
z
" id="maece238769" style="stroke:#545454;stroke-width:2.5;"/>
    </defs>
    <g clip-path="url(#pfdf6180083)">
     <use style="fill:#d98b5f;stroke:#545454;stroke-width:2.5;" x="0" xlink:href="#maece238769" y="503.420156"/>
    </g>
   </g>
   <g id="patch_3">
    <path clip-path="url(#pfdf6180083)" d="M 87.98247 291.919091 
L 87.98247 291.919091 
L 87.98247 291.919091 
L 87.98247 291.919091 
z
" style="fill:#597dbf;stroke:#545454;stroke-linejoin:miter;stroke-width:1.25;"/>
   </g>
   <g id="patch_4">
    <path clip-path="url(#pfdf6180083)" d="M 87.98247 291.919091 
L 87.98247 291.919091 
L 87.98247 291.919091 
L 87.98247 291.919091 
z
" style="fill:#d98b5f;stroke:#545454;stroke-linejoin:miter;stroke-width:1.25;"/>
   </g>
   <g id="line2d_1">
    <path clip-path="url(#pfdf6180083)" d="M 76.853795 291.919091 
L 76.853795 291.919091 
" style="fill:none;stroke:#545454;stroke-linecap:round;stroke-width:2.5;"/>
   </g>
   <g id="line2d_2">
    <path clip-path="url(#pfdf6180083)" d="M 76.853795 291.919091 
L 76.853795 291.919091 
" style="fill:none;stroke:#545454;stroke-linecap:round;stroke-width:7.5;"/>
   </g>
   <g id="line2d_3">
    <path clip-path="url(#pfdf6180083)" d="M 99.111146 291.919091 
L 99.111146 74.492339 
" style="fill:none;stroke:#545454;stroke-linecap:round;stroke-width:2.5;"/>
   </g>
   <g id="line2d_4">
    <path clip-path="url(#pfdf6180083)" d="M 99.111146 291.919091 
L 99.111146 132.277107 
" style="fill:none;stroke:#545454;stroke-linecap:round;stroke-width:7.5;"/>
   </g>
   <g id="line2d_5">
    <path clip-path="url(#pfdf6180083)" d="M 132.497173 291.919091 
L 132.497173 291.919091 
" style="fill:none;stroke:#545454;stroke-linecap:round;stroke-width:2.5;"/>
   </g>
   <g id="line2d_6">
    <path clip-path="url(#pfdf6180083)" d="M 132.497173 291.919091 
L 132.497173 291.919091 
" style="fill:none;stroke:#545454;stroke-linecap:round;stroke-width:7.5;"/>
   </g>
   <g id="line2d_7">
    <path clip-path="url(#pfdf6180083)" d="M 154.754524 291.919091 
L 154.754524 143.128392 
" style="fill:none;stroke:#545454;stroke-linecap:round;stroke-width:2.5;"/>
   </g>
   <g id="line2d_8">
    <path clip-path="url(#pfdf6180083)" d="M 154.754524 291.919091 
L 154.754524 183.63071 
" style="fill:none;stroke:#545454;stroke-linecap:round;stroke-width:7.5;"/>
   </g>
   <g id="line2d_9">
    <path clip-path="url(#pfdf6180083)" d="M 188.140551 291.919091 
L 188.140551 291.919091 
" style="fill:none;stroke:#545454;stroke-linecap:round;stroke-width:2.5;"/>
   </g>
   <g id="line2d_10">
    <path clip-path="url(#pfdf6180083)" d="M 188.140551 291.919091 
L 188.140551 291.919091 
" style="fill:none;stroke:#545454;stroke-linecap:round;stroke-width:7.5;"/>
   </g>
   <g id="line2d_11">
    <path clip-path="url(#pfdf6180083)" d="M 210.397902 291.919091 
L 210.397902 99.505448 
" style="fill:none;stroke:#545454;stroke-linecap:round;stroke-width:2.5;"/>
   </g>
   <g id="line2d_12">
    <path clip-path="url(#pfdf6180083)" d="M 210.397902 291.919091 
L 210.397902 156.405593 
" style="fill:none;stroke:#545454;stroke-linecap:round;stroke-width:7.5;"/>
   </g>
   <g id="line2d_13">
    <path clip-path="url(#pfdf6180083)" d="M 243.783929 291.919091 
L 243.783929 291.919091 
" style="fill:none;stroke:#545454;stroke-linecap:round;stroke-width:2.5;"/>
   </g>
   <g id="line2d_14">
    <path clip-path="url(#pfdf6180083)" d="M 243.783929 291.919091 
L 243.783929 291.919091 
" style="fill:none;stroke:#545454;stroke-linecap:round;stroke-width:7.5;"/>
   </g>
   <g id="line2d_15">
    <path clip-path="url(#pfdf6180083)" d="M 266.04128 291.919091 
L 266.04128 155.382504 
" style="fill:none;stroke:#545454;stroke-linecap:round;stroke-width:2.5;"/>
   </g>
   <g id="line2d_16">
    <path clip-path="url(#pfdf6180083)" d="M 266.04128 291.919091 
L 266.04128 196.635244 
" style="fill:none;stroke:#545454;stroke-linecap:round;stroke-width:7.5;"/>
   </g>
   <g id="line2d_17">
    <path clip-path="url(#pfdf6180083)" d="M 299.427307 291.919091 
L 299.427307 291.919091 
" style="fill:none;stroke:#545454;stroke-linecap:round;stroke-width:2.5;"/>
   </g>
   <g id="line2d_18">
    <path clip-path="url(#pfdf6180083)" d="M 299.427307 291.919091 
L 299.427307 291.919091 
" style="fill:none;stroke:#545454;stroke-linecap:round;stroke-width:7.5;"/>
   </g>
   <g id="line2d_19">
    <path clip-path="url(#pfdf6180083)" d="M 321.684658 291.919091 
L 321.684658 222.91702 
" style="fill:none;stroke:#545454;stroke-linecap:round;stroke-width:2.5;"/>
   </g>
   <g id="line2d_20">
    <path clip-path="url(#pfdf6180083)" d="M 321.684658 291.919091 
L 321.684658 237.200966 
" style="fill:none;stroke:#545454;stroke-linecap:round;stroke-width:7.5;"/>
   </g>
   <g id="patch_5">
    <path d="M 60.160781 304.3 
L 338.377671 304.3 
" style="fill:none;stroke:#262626;stroke-linecap:square;stroke-linejoin:miter;stroke-width:1.875;"/>
   </g>
   <g id="PathCollection_1">
    <defs>
     <path d="M 0 2.5 
C 0.663008 2.5 1.29895 2.236584 1.767767 1.767767 
C 2.236584 1.29895 2.5 0.663008 2.5 0 
C 2.5 -0.663008 2.236584 -1.29895 1.767767 -1.767767 
C 1.29895 -2.236584 0.663008 -2.5 0 -2.5 
C -0.663008 -2.5 -1.29895 -2.236584 -1.767767 -1.767767 
C -2.236584 -1.29895 -2.5 -0.663008 -2.5 0 
C -2.5 0.663008 -2.236584 1.29895 -1.767767 1.767767 
C -1.29895 2.236584 -0.663008 2.5 0 2.5 
z
" id="mf47a192413" style="stroke:#545454;stroke-width:1.5;"/>
    </defs>
    <g clip-path="url(#pfdf6180083)">
     <use style="fill:#ffffff;stroke:#545454;stroke-width:1.5;" x="76.853795" xlink:href="#mf47a192413" y="291.919091"/>
    </g>
   </g>
   <g id="PathCollection_2">
    <g clip-path="url(#pfdf6180083)">
     <use style="fill:#ffffff;stroke:#545454;stroke-width:1.5;" x="99.111146" xlink:href="#mf47a192413" y="291.640892"/>
    </g>
   </g>
   <g id="PathCollection_3">
    <g clip-path="url(#pfdf6180083)">
     <use style="fill:#ffffff;stroke:#545454;stroke-width:1.5;" x="132.497173" xlink:href="#mf47a192413" y="291.919091"/>
    </g>
   </g>
   <g id="PathCollection_4">
    <g clip-path="url(#pfdf6180083)">
     <use style="fill:#ffffff;stroke:#545454;stroke-width:1.5;" x="154.754524" xlink:href="#mf47a192413" y="291.803244"/>
    </g>
   </g>
   <g id="PathCollection_5">
    <g clip-path="url(#pfdf6180083)">
     <use style="fill:#ffffff;stroke:#545454;stroke-width:1.5;" x="188.140551" xlink:href="#mf47a192413" y="291.919091"/>
    </g>
   </g>
   <g id="PathCollection_6">
    <g clip-path="url(#pfdf6180083)">
     <use style="fill:#ffffff;stroke:#545454;stroke-width:1.5;" x="210.397902" xlink:href="#mf47a192413" y="291.640892"/>
    </g>
   </g>
   <g id="PathCollection_7">
    <g clip-path="url(#pfdf6180083)">
     <use style="fill:#ffffff;stroke:#545454;stroke-width:1.5;" x="243.783929" xlink:href="#mf47a192413" y="291.919091"/>
    </g>
   </g>
   <g id="PathCollection_8">
    <g clip-path="url(#pfdf6180083)">
     <use style="fill:#ffffff;stroke:#545454;stroke-width:1.5;" x="266.04128" xlink:href="#mf47a192413" y="291.803244"/>
    </g>
   </g>
   <g id="PathCollection_9">
    <g clip-path="url(#pfdf6180083)">
     <use style="fill:#ffffff;stroke:#545454;stroke-width:1.5;" x="299.427307" xlink:href="#mf47a192413" y="291.919091"/>
    </g>
   </g>
   <g id="PathCollection_10">
    <g clip-path="url(#pfdf6180083)">
     <use style="fill:#ffffff;stroke:#545454;stroke-width:1.5;" x="321.684658" xlink:href="#mf47a192413" y="291.854563"/>
    </g>
   </g>
  </g>
  <g id="text_15">
   <!-- PEA -->
   <g style="fill:#262626;" transform="translate(200.189084 16.412625)scale(0.216 -0.216)">
    <defs>
     <path d="M 19.671875 64.796875 
L 19.671875 37.40625 
L 32.078125 37.40625 
Q 38.96875 37.40625 42.71875 40.96875 
Q 46.484375 44.53125 46.484375 51.125 
Q 46.484375 57.671875 42.71875 61.234375 
Q 38.96875 64.796875 32.078125 64.796875 
z
M 9.8125 72.90625 
L 32.078125 72.90625 
Q 44.34375 72.90625 50.609375 67.359375 
Q 56.890625 61.8125 56.890625 51.125 
Q 56.890625 40.328125 50.609375 34.8125 
Q 44.34375 29.296875 32.078125 29.296875 
L 19.671875 29.296875 
L 19.671875 0 
L 9.8125 0 
z
" id="DejaVuSans-80"/>
     <path d="M 9.8125 72.90625 
L 55.90625 72.90625 
L 55.90625 64.59375 
L 19.671875 64.59375 
L 19.671875 43.015625 
L 54.390625 43.015625 
L 54.390625 34.71875 
L 19.671875 34.71875 
L 19.671875 8.296875 
L 56.78125 8.296875 
L 56.78125 0 
L 9.8125 0 
z
" id="DejaVuSans-69"/>
     <path d="M 34.1875 63.1875 
L 20.796875 26.90625 
L 47.609375 26.90625 
z
M 28.609375 72.90625 
L 39.796875 72.90625 
L 67.578125 0 
L 57.328125 0 
L 50.6875 18.703125 
L 17.828125 18.703125 
L 11.1875 0 
L 0.78125 0 
z
" id="DejaVuSans-65"/>
    </defs>
    <use xlink:href="#DejaVuSans-80"/>
    <use x="60.302734" xlink:href="#DejaVuSans-69"/>
    <use x="123.486328" xlink:href="#DejaVuSans-65"/>
   </g>
  </g>
  <g id="legend_1">
   <g id="patch_6">
    <path d="M 333.280381 244.153594 
L 366.280381 244.153594 
L 366.280381 232.603594 
L 333.280381 232.603594 
z
" style="fill:#597dbf;stroke:#545454;stroke-linejoin:miter;stroke-width:1.25;"/>
   </g>
   <g id="text_16">
    <!-- actual -->
    <g style="fill:#262626;" transform="translate(379.480381 244.153594)scale(0.165 -0.165)">
     <defs>
      <path d="M 48.78125 52.59375 
L 48.78125 44.1875 
Q 44.96875 46.296875 41.140625 47.34375 
Q 37.3125 48.390625 33.40625 48.390625 
Q 24.65625 48.390625 19.8125 42.84375 
Q 14.984375 37.3125 14.984375 27.296875 
Q 14.984375 17.28125 19.8125 11.734375 
Q 24.65625 6.203125 33.40625 6.203125 
Q 37.3125 6.203125 41.140625 7.25 
Q 44.96875 8.296875 48.78125 10.40625 
L 48.78125 2.09375 
Q 45.015625 0.34375 40.984375 -0.53125 
Q 36.96875 -1.421875 32.421875 -1.421875 
Q 20.0625 -1.421875 12.78125 6.34375 
Q 5.515625 14.109375 5.515625 27.296875 
Q 5.515625 40.671875 12.859375 48.328125 
Q 20.21875 56 33.015625 56 
Q 37.15625 56 41.109375 55.140625 
Q 45.0625 54.296875 48.78125 52.59375 
z
" id="DejaVuSans-99"/>
      <path d="M 8.5 21.578125 
L 8.5 54.6875 
L 17.484375 54.6875 
L 17.484375 21.921875 
Q 17.484375 14.15625 20.5 10.265625 
Q 23.53125 6.390625 29.59375 6.390625 
Q 36.859375 6.390625 41.078125 11.03125 
Q 45.3125 15.671875 45.3125 23.6875 
L 45.3125 54.6875 
L 54.296875 54.6875 
L 54.296875 0 
L 45.3125 0 
L 45.3125 8.40625 
Q 42.046875 3.421875 37.71875 1 
Q 33.40625 -1.421875 27.6875 -1.421875 
Q 18.265625 -1.421875 13.375 4.4375 
Q 8.5 10.296875 8.5 21.578125 
z
M 31.109375 56 
z
" id="DejaVuSans-117"/>
     </defs>
     <use xlink:href="#DejaVuSans-97"/>
     <use x="61.279297" xlink:href="#DejaVuSans-99"/>
     <use x="116.259766" xlink:href="#DejaVuSans-116"/>
     <use x="155.46875" xlink:href="#DejaVuSans-117"/>
     <use x="218.847656" xlink:href="#DejaVuSans-97"/>
     <use x="280.126953" xlink:href="#DejaVuSans-108"/>
    </g>
   </g>
   <g id="patch_7">
    <path d="M 333.280381 268.3725 
L 366.280381 268.3725 
L 366.280381 256.8225 
L 333.280381 256.8225 
z
" style="fill:#d98b5f;stroke:#545454;stroke-linejoin:miter;stroke-width:1.25;"/>
   </g>
   <g id="text_17">
    <!-- cluster -->
    <g style="fill:#262626;" transform="translate(379.480381 268.3725)scale(0.165 -0.165)">
     <defs>
      <path d="M 44.28125 53.078125 
L 44.28125 44.578125 
Q 40.484375 46.53125 36.375 47.5 
Q 32.28125 48.484375 27.875 48.484375 
Q 21.1875 48.484375 17.84375 46.4375 
Q 14.5 44.390625 14.5 40.28125 
Q 14.5 37.15625 16.890625 35.375 
Q 19.28125 33.59375 26.515625 31.984375 
L 29.59375 31.296875 
Q 39.15625 29.25 43.1875 25.515625 
Q 47.21875 21.78125 47.21875 15.09375 
Q 47.21875 7.46875 41.1875 3.015625 
Q 35.15625 -1.421875 24.609375 -1.421875 
Q 20.21875 -1.421875 15.453125 -0.5625 
Q 10.6875 0.296875 5.421875 2 
L 5.421875 11.28125 
Q 10.40625 8.6875 15.234375 7.390625 
Q 20.0625 6.109375 24.8125 6.109375 
Q 31.15625 6.109375 34.5625 8.28125 
Q 37.984375 10.453125 37.984375 14.40625 
Q 37.984375 18.0625 35.515625 20.015625 
Q 33.0625 21.96875 24.703125 23.78125 
L 21.578125 24.515625 
Q 13.234375 26.265625 9.515625 29.90625 
Q 5.8125 33.546875 5.8125 39.890625 
Q 5.8125 47.609375 11.28125 51.796875 
Q 16.75 56 26.8125 56 
Q 31.78125 56 36.171875 55.265625 
Q 40.578125 54.546875 44.28125 53.078125 
z
" id="DejaVuSans-115"/>
     </defs>
     <use xlink:href="#DejaVuSans-99"/>
     <use x="54.980469" xlink:href="#DejaVuSans-108"/>
     <use x="82.763672" xlink:href="#DejaVuSans-117"/>
     <use x="146.142578" xlink:href="#DejaVuSans-115"/>
     <use x="198.242188" xlink:href="#DejaVuSans-116"/>
     <use x="237.451172" xlink:href="#DejaVuSans-101"/>
     <use x="298.974609" xlink:href="#DejaVuSans-114"/>
    </g>
   </g>
  </g>
 </g>
 <defs>
  <clipPath id="pfdf6180083">
   <rect height="272.38" width="278.21689" x="60.160781" y="31.92"/>
  </clipPath>
 </defs>
</svg>
