<?xml version="1.0" encoding="utf-8" standalone="no"?>
<!DOCTYPE svg PUBLIC "-//W3C//DTD SVG 1.1//EN"
  "http://www.w3.org/Graphics/SVG/1.1/DTD/svg11.dtd">
<!-- Created with matplotlib (https://matplotlib.org/) -->
<svg height="503.420156pt" version="1.1" viewBox="0 0 452.213875 503.420156" width="452.213875pt" xmlns="http://www.w3.org/2000/svg" xmlns:xlink="http://www.w3.org/1999/xlink">
 <metadata>
  <rdf:RDF xmlns:cc="http://creativecommons.org/ns#" xmlns:dc="http://purl.org/dc/elements/1.1/" xmlns:rdf="http://www.w3.org/1999/02/22-rdf-syntax-ns#">
   <cc:Work>
    <dc:type rdf:resource="http://purl.org/dc/dcmitype/StillImage"/>
    <dc:date>2021-01-22T11:01:14.952329</dc:date>
    <dc:format>image/svg+xml</dc:format>
    <dc:creator>
     <cc:Agent>
      <dc:title>Matplotlib v3.3.2, https://matplotlib.org/</dc:title>
     </cc:Agent>
    </dc:creator>
   </cc:Work>
  </rdf:RDF>
 </metadata>
 <defs>
  <style type="text/css">*{stroke-linecap:butt;stroke-linejoin:round;}</style>
 </defs>
 <g id="figure_1">
  <g id="patch_1">
   <path d="M 0 503.420156 
L 452.213875 503.420156 
L 452.213875 0 
L 0 0 
z
" style="fill:#ffffff;"/>
  </g>
  <g id="axes_1">
   <g id="patch_2">
    <path d="M 54.916875 304.3 
L 340.148275 304.3 
L 340.148275 31.92 
L 54.916875 31.92 
z
" style="fill:#ffffff;"/>
   </g>
   <g id="matplotlib.axis_1">
    <g id="xtick_1">
     <g id="text_1">
      <!-- Irrigation High -->
      <g style="fill:#262626;" transform="translate(87.992984 434.888437)rotate(-90)scale(0.165 -0.165)">
       <defs>
        <path d="M 9.8125 72.90625 
L 19.671875 72.90625 
L 19.671875 0 
L 9.8125 0 
z
" id="DejaVuSans-73"/>
        <path d="M 41.109375 46.296875 
Q 39.59375 47.171875 37.8125 47.578125 
Q 36.03125 48 33.890625 48 
Q 26.265625 48 22.1875 43.046875 
Q 18.109375 38.09375 18.109375 28.8125 
L 18.109375 0 
L 9.078125 0 
L 9.078125 54.6875 
L 18.109375 54.6875 
L 18.109375 46.1875 
Q 20.953125 51.171875 25.484375 53.578125 
Q 30.03125 56 36.53125 56 
Q 37.453125 56 38.578125 55.875 
Q 39.703125 55.765625 41.0625 55.515625 
z
" id="DejaVuSans-114"/>
        <path d="M 9.421875 54.6875 
L 18.40625 54.6875 
L 18.40625 0 
L 9.421875 0 
z
M 9.421875 75.984375 
L 18.40625 75.984375 
L 18.40625 64.59375 
L 9.421875 64.59375 
z
" id="DejaVuSans-105"/>
        <path d="M 45.40625 27.984375 
Q 45.40625 37.75 41.375 43.109375 
Q 37.359375 48.484375 30.078125 48.484375 
Q 22.859375 48.484375 18.828125 43.109375 
Q 14.796875 37.75 14.796875 27.984375 
Q 14.796875 18.265625 18.828125 12.890625 
Q 22.859375 7.515625 30.078125 7.515625 
Q 37.359375 7.515625 41.375 12.890625 
Q 45.40625 18.265625 45.40625 27.984375 
z
M 54.390625 6.78125 
Q 54.390625 -7.171875 48.1875 -13.984375 
Q 42 -20.796875 29.203125 -20.796875 
Q 24.46875 -20.796875 20.265625 -20.09375 
Q 16.0625 -19.390625 12.109375 -17.921875 
L 12.109375 -9.1875 
Q 16.0625 -11.328125 19.921875 -12.34375 
Q 23.78125 -13.375 27.78125 -13.375 
Q 36.625 -13.375 41.015625 -8.765625 
Q 45.40625 -4.15625 45.40625 5.171875 
L 45.40625 9.625 
Q 42.625 4.78125 38.28125 2.390625 
Q 33.9375 0 27.875 0 
Q 17.828125 0 11.671875 7.65625 
Q 5.515625 15.328125 5.515625 27.984375 
Q 5.515625 40.671875 11.671875 48.328125 
Q 17.828125 56 27.875 56 
Q 33.9375 56 38.28125 53.609375 
Q 42.625 51.21875 45.40625 46.390625 
L 45.40625 54.6875 
L 54.390625 54.6875 
z
" id="DejaVuSans-103"/>
        <path d="M 34.28125 27.484375 
Q 23.390625 27.484375 19.1875 25 
Q 14.984375 22.515625 14.984375 16.5 
Q 14.984375 11.71875 18.140625 8.90625 
Q 21.296875 6.109375 26.703125 6.109375 
Q 34.1875 6.109375 38.703125 11.40625 
Q 43.21875 16.703125 43.21875 25.484375 
L 43.21875 27.484375 
z
M 52.203125 31.203125 
L 52.203125 0 
L 43.21875 0 
L 43.21875 8.296875 
Q 40.140625 3.328125 35.546875 0.953125 
Q 30.953125 -1.421875 24.3125 -1.421875 
Q 15.921875 -1.421875 10.953125 3.296875 
Q 6 8.015625 6 15.921875 
Q 6 25.140625 12.171875 29.828125 
Q 18.359375 34.515625 30.609375 34.515625 
L 43.21875 34.515625 
L 43.21875 35.40625 
Q 43.21875 41.609375 39.140625 45 
Q 35.0625 48.390625 27.6875 48.390625 
Q 23 48.390625 18.546875 47.265625 
Q 14.109375 46.140625 10.015625 43.890625 
L 10.015625 52.203125 
Q 14.9375 54.109375 19.578125 55.046875 
Q 24.21875 56 28.609375 56 
Q 40.484375 56 46.34375 49.84375 
Q 52.203125 43.703125 52.203125 31.203125 
z
" id="DejaVuSans-97"/>
        <path d="M 18.3125 70.21875 
L 18.3125 54.6875 
L 36.8125 54.6875 
L 36.8125 47.703125 
L 18.3125 47.703125 
L 18.3125 18.015625 
Q 18.3125 11.328125 20.140625 9.421875 
Q 21.96875 7.515625 27.59375 7.515625 
L 36.8125 7.515625 
L 36.8125 0 
L 27.59375 0 
Q 17.1875 0 13.234375 3.875 
Q 9.28125 7.765625 9.28125 18.015625 
L 9.28125 47.703125 
L 2.6875 47.703125 
L 2.6875 54.6875 
L 9.28125 54.6875 
L 9.28125 70.21875 
z
" id="DejaVuSans-116"/>
        <path d="M 30.609375 48.390625 
Q 23.390625 48.390625 19.1875 42.75 
Q 14.984375 37.109375 14.984375 27.296875 
Q 14.984375 17.484375 19.15625 11.84375 
Q 23.34375 6.203125 30.609375 6.203125 
Q 37.796875 6.203125 41.984375 11.859375 
Q 46.1875 17.53125 46.1875 27.296875 
Q 46.1875 37.015625 41.984375 42.703125 
Q 37.796875 48.390625 30.609375 48.390625 
z
M 30.609375 56 
Q 42.328125 56 49.015625 48.375 
Q 55.71875 40.765625 55.71875 27.296875 
Q 55.71875 13.875 49.015625 6.21875 
Q 42.328125 -1.421875 30.609375 -1.421875 
Q 18.84375 -1.421875 12.171875 6.21875 
Q 5.515625 13.875 5.515625 27.296875 
Q 5.515625 40.765625 12.171875 48.375 
Q 18.84375 56 30.609375 56 
z
" id="DejaVuSans-111"/>
        <path d="M 54.890625 33.015625 
L 54.890625 0 
L 45.90625 0 
L 45.90625 32.71875 
Q 45.90625 40.484375 42.875 44.328125 
Q 39.84375 48.1875 33.796875 48.1875 
Q 26.515625 48.1875 22.3125 43.546875 
Q 18.109375 38.921875 18.109375 30.90625 
L 18.109375 0 
L 9.078125 0 
L 9.078125 54.6875 
L 18.109375 54.6875 
L 18.109375 46.1875 
Q 21.34375 51.125 25.703125 53.5625 
Q 30.078125 56 35.796875 56 
Q 45.21875 56 50.046875 50.171875 
Q 54.890625 44.34375 54.890625 33.015625 
z
" id="DejaVuSans-110"/>
        <path id="DejaVuSans-32"/>
        <path d="M 9.8125 72.90625 
L 19.671875 72.90625 
L 19.671875 43.015625 
L 55.515625 43.015625 
L 55.515625 72.90625 
L 65.375 72.90625 
L 65.375 0 
L 55.515625 0 
L 55.515625 34.71875 
L 19.671875 34.71875 
L 19.671875 0 
L 9.8125 0 
z
" id="DejaVuSans-72"/>
        <path d="M 54.890625 33.015625 
L 54.890625 0 
L 45.90625 0 
L 45.90625 32.71875 
Q 45.90625 40.484375 42.875 44.328125 
Q 39.84375 48.1875 33.796875 48.1875 
Q 26.515625 48.1875 22.3125 43.546875 
Q 18.109375 38.921875 18.109375 30.90625 
L 18.109375 0 
L 9.078125 0 
L 9.078125 75.984375 
L 18.109375 75.984375 
L 18.109375 46.1875 
Q 21.34375 51.125 25.703125 53.5625 
Q 30.078125 56 35.796875 56 
Q 45.21875 56 50.046875 50.171875 
Q 54.890625 44.34375 54.890625 33.015625 
z
" id="DejaVuSans-104"/>
       </defs>
       <use xlink:href="#DejaVuSans-73"/>
       <use x="29.492188" xlink:href="#DejaVuSans-114"/>
       <use x="68.855469" xlink:href="#DejaVuSans-114"/>
       <use x="109.96875" xlink:href="#DejaVuSans-105"/>
       <use x="137.751953" xlink:href="#DejaVuSans-103"/>
       <use x="201.228516" xlink:href="#DejaVuSans-97"/>
       <use x="262.507812" xlink:href="#DejaVuSans-116"/>
       <use x="301.716797" xlink:href="#DejaVuSans-105"/>
       <use x="329.5" xlink:href="#DejaVuSans-111"/>
       <use x="390.681641" xlink:href="#DejaVuSans-110"/>
       <use x="454.060547" xlink:href="#DejaVuSans-32"/>
       <use x="485.847656" xlink:href="#DejaVuSans-72"/>
       <use x="561.042969" xlink:href="#DejaVuSans-105"/>
       <use x="588.826172" xlink:href="#DejaVuSans-103"/>
       <use x="652.302734" xlink:href="#DejaVuSans-104"/>
      </g>
     </g>
    </g>
    <g id="xtick_2">
     <g id="text_2">
      <!-- Irrigation Intermediate -->
      <g style="fill:#262626;" transform="translate(145.039264 503.420156)rotate(-90)scale(0.165 -0.165)">
       <defs>
        <path d="M 56.203125 29.59375 
L 56.203125 25.203125 
L 14.890625 25.203125 
Q 15.484375 15.921875 20.484375 11.0625 
Q 25.484375 6.203125 34.421875 6.203125 
Q 39.59375 6.203125 44.453125 7.46875 
Q 49.3125 8.734375 54.109375 11.28125 
L 54.109375 2.78125 
Q 49.265625 0.734375 44.1875 -0.34375 
Q 39.109375 -1.421875 33.890625 -1.421875 
Q 20.796875 -1.421875 13.15625 6.1875 
Q 5.515625 13.8125 5.515625 26.8125 
Q 5.515625 40.234375 12.765625 48.109375 
Q 20.015625 56 32.328125 56 
Q 43.359375 56 49.78125 48.890625 
Q 56.203125 41.796875 56.203125 29.59375 
z
M 47.21875 32.234375 
Q 47.125 39.59375 43.09375 43.984375 
Q 39.0625 48.390625 32.421875 48.390625 
Q 24.90625 48.390625 20.390625 44.140625 
Q 15.875 39.890625 15.1875 32.171875 
z
" id="DejaVuSans-101"/>
        <path d="M 52 44.1875 
Q 55.375 50.25 60.0625 53.125 
Q 64.75 56 71.09375 56 
Q 79.640625 56 84.28125 50.015625 
Q 88.921875 44.046875 88.921875 33.015625 
L 88.921875 0 
L 79.890625 0 
L 79.890625 32.71875 
Q 79.890625 40.578125 77.09375 44.375 
Q 74.3125 48.1875 68.609375 48.1875 
Q 61.625 48.1875 57.5625 43.546875 
Q 53.515625 38.921875 53.515625 30.90625 
L 53.515625 0 
L 44.484375 0 
L 44.484375 32.71875 
Q 44.484375 40.625 41.703125 44.40625 
Q 38.921875 48.1875 33.109375 48.1875 
Q 26.21875 48.1875 22.15625 43.53125 
Q 18.109375 38.875 18.109375 30.90625 
L 18.109375 0 
L 9.078125 0 
L 9.078125 54.6875 
L 18.109375 54.6875 
L 18.109375 46.1875 
Q 21.1875 51.21875 25.484375 53.609375 
Q 29.78125 56 35.6875 56 
Q 41.65625 56 45.828125 52.96875 
Q 50 49.953125 52 44.1875 
z
" id="DejaVuSans-109"/>
        <path d="M 45.40625 46.390625 
L 45.40625 75.984375 
L 54.390625 75.984375 
L 54.390625 0 
L 45.40625 0 
L 45.40625 8.203125 
Q 42.578125 3.328125 38.25 0.953125 
Q 33.9375 -1.421875 27.875 -1.421875 
Q 17.96875 -1.421875 11.734375 6.484375 
Q 5.515625 14.40625 5.515625 27.296875 
Q 5.515625 40.1875 11.734375 48.09375 
Q 17.96875 56 27.875 56 
Q 33.9375 56 38.25 53.625 
Q 42.578125 51.265625 45.40625 46.390625 
z
M 14.796875 27.296875 
Q 14.796875 17.390625 18.875 11.75 
Q 22.953125 6.109375 30.078125 6.109375 
Q 37.203125 6.109375 41.296875 11.75 
Q 45.40625 17.390625 45.40625 27.296875 
Q 45.40625 37.203125 41.296875 42.84375 
Q 37.203125 48.484375 30.078125 48.484375 
Q 22.953125 48.484375 18.875 42.84375 
Q 14.796875 37.203125 14.796875 27.296875 
z
" id="DejaVuSans-100"/>
       </defs>
       <use xlink:href="#DejaVuSans-73"/>
       <use x="29.492188" xlink:href="#DejaVuSans-114"/>
       <use x="68.855469" xlink:href="#DejaVuSans-114"/>
       <use x="109.96875" xlink:href="#DejaVuSans-105"/>
       <use x="137.751953" xlink:href="#DejaVuSans-103"/>
       <use x="201.228516" xlink:href="#DejaVuSans-97"/>
       <use x="262.507812" xlink:href="#DejaVuSans-116"/>
       <use x="301.716797" xlink:href="#DejaVuSans-105"/>
       <use x="329.5" xlink:href="#DejaVuSans-111"/>
       <use x="390.681641" xlink:href="#DejaVuSans-110"/>
       <use x="454.060547" xlink:href="#DejaVuSans-32"/>
       <use x="485.847656" xlink:href="#DejaVuSans-73"/>
       <use x="515.339844" xlink:href="#DejaVuSans-110"/>
       <use x="578.71875" xlink:href="#DejaVuSans-116"/>
       <use x="617.927734" xlink:href="#DejaVuSans-101"/>
       <use x="679.451172" xlink:href="#DejaVuSans-114"/>
       <use x="718.814453" xlink:href="#DejaVuSans-109"/>
       <use x="816.226562" xlink:href="#DejaVuSans-101"/>
       <use x="877.75" xlink:href="#DejaVuSans-100"/>
       <use x="941.226562" xlink:href="#DejaVuSans-105"/>
       <use x="969.009766" xlink:href="#DejaVuSans-97"/>
       <use x="1030.289062" xlink:href="#DejaVuSans-116"/>
       <use x="1069.498047" xlink:href="#DejaVuSans-101"/>
      </g>
     </g>
    </g>
    <g id="xtick_3">
     <g id="text_3">
      <!-- Rain-fed High -->
      <g style="fill:#262626;" transform="translate(202.085544 428.602969)rotate(-90)scale(0.165 -0.165)">
       <defs>
        <path d="M 44.390625 34.1875 
Q 47.5625 33.109375 50.5625 29.59375 
Q 53.5625 26.078125 56.59375 19.921875 
L 66.609375 0 
L 56 0 
L 46.6875 18.703125 
Q 43.0625 26.03125 39.671875 28.421875 
Q 36.28125 30.8125 30.421875 30.8125 
L 19.671875 30.8125 
L 19.671875 0 
L 9.8125 0 
L 9.8125 72.90625 
L 32.078125 72.90625 
Q 44.578125 72.90625 50.734375 67.671875 
Q 56.890625 62.453125 56.890625 51.90625 
Q 56.890625 45.015625 53.6875 40.46875 
Q 50.484375 35.9375 44.390625 34.1875 
z
M 19.671875 64.796875 
L 19.671875 38.921875 
L 32.078125 38.921875 
Q 39.203125 38.921875 42.84375 42.21875 
Q 46.484375 45.515625 46.484375 51.90625 
Q 46.484375 58.296875 42.84375 61.546875 
Q 39.203125 64.796875 32.078125 64.796875 
z
" id="DejaVuSans-82"/>
        <path d="M 4.890625 31.390625 
L 31.203125 31.390625 
L 31.203125 23.390625 
L 4.890625 23.390625 
z
" id="DejaVuSans-45"/>
        <path d="M 37.109375 75.984375 
L 37.109375 68.5 
L 28.515625 68.5 
Q 23.6875 68.5 21.796875 66.546875 
Q 19.921875 64.59375 19.921875 59.515625 
L 19.921875 54.6875 
L 34.71875 54.6875 
L 34.71875 47.703125 
L 19.921875 47.703125 
L 19.921875 0 
L 10.890625 0 
L 10.890625 47.703125 
L 2.296875 47.703125 
L 2.296875 54.6875 
L 10.890625 54.6875 
L 10.890625 58.5 
Q 10.890625 67.625 15.140625 71.796875 
Q 19.390625 75.984375 28.609375 75.984375 
z
" id="DejaVuSans-102"/>
       </defs>
       <use xlink:href="#DejaVuSans-82"/>
       <use x="67.232422" xlink:href="#DejaVuSans-97"/>
       <use x="128.511719" xlink:href="#DejaVuSans-105"/>
       <use x="156.294922" xlink:href="#DejaVuSans-110"/>
       <use x="219.673828" xlink:href="#DejaVuSans-45"/>
       <use x="255.757812" xlink:href="#DejaVuSans-102"/>
       <use x="290.962891" xlink:href="#DejaVuSans-101"/>
       <use x="352.486328" xlink:href="#DejaVuSans-100"/>
       <use x="415.962891" xlink:href="#DejaVuSans-32"/>
       <use x="447.75" xlink:href="#DejaVuSans-72"/>
       <use x="522.945312" xlink:href="#DejaVuSans-105"/>
       <use x="550.728516" xlink:href="#DejaVuSans-103"/>
       <use x="614.205078" xlink:href="#DejaVuSans-104"/>
      </g>
     </g>
    </g>
    <g id="xtick_4">
     <g id="text_4">
      <!-- Rain-fed Intermediate -->
      <g style="fill:#262626;" transform="translate(259.131824 497.134687)rotate(-90)scale(0.165 -0.165)">
       <use xlink:href="#DejaVuSans-82"/>
       <use x="67.232422" xlink:href="#DejaVuSans-97"/>
       <use x="128.511719" xlink:href="#DejaVuSans-105"/>
       <use x="156.294922" xlink:href="#DejaVuSans-110"/>
       <use x="219.673828" xlink:href="#DejaVuSans-45"/>
       <use x="255.757812" xlink:href="#DejaVuSans-102"/>
       <use x="290.962891" xlink:href="#DejaVuSans-101"/>
       <use x="352.486328" xlink:href="#DejaVuSans-100"/>
       <use x="415.962891" xlink:href="#DejaVuSans-32"/>
       <use x="447.75" xlink:href="#DejaVuSans-73"/>
       <use x="477.242188" xlink:href="#DejaVuSans-110"/>
       <use x="540.621094" xlink:href="#DejaVuSans-116"/>
       <use x="579.830078" xlink:href="#DejaVuSans-101"/>
       <use x="641.353516" xlink:href="#DejaVuSans-114"/>
       <use x="680.716797" xlink:href="#DejaVuSans-109"/>
       <use x="778.128906" xlink:href="#DejaVuSans-101"/>
       <use x="839.652344" xlink:href="#DejaVuSans-100"/>
       <use x="903.128906" xlink:href="#DejaVuSans-105"/>
       <use x="930.912109" xlink:href="#DejaVuSans-97"/>
       <use x="992.191406" xlink:href="#DejaVuSans-116"/>
       <use x="1031.400391" xlink:href="#DejaVuSans-101"/>
      </g>
     </g>
    </g>
    <g id="xtick_5">
     <g id="text_5">
      <!-- Rain-fed Low -->
      <g style="fill:#262626;" transform="translate(316.178104 423.173437)rotate(-90)scale(0.165 -0.165)">
       <defs>
        <path d="M 9.8125 72.90625 
L 19.671875 72.90625 
L 19.671875 8.296875 
L 55.171875 8.296875 
L 55.171875 0 
L 9.8125 0 
z
" id="DejaVuSans-76"/>
        <path d="M 4.203125 54.6875 
L 13.1875 54.6875 
L 24.421875 12.015625 
L 35.59375 54.6875 
L 46.1875 54.6875 
L 57.421875 12.015625 
L 68.609375 54.6875 
L 77.59375 54.6875 
L 63.28125 0 
L 52.6875 0 
L 40.921875 44.828125 
L 29.109375 0 
L 18.5 0 
z
" id="DejaVuSans-119"/>
       </defs>
       <use xlink:href="#DejaVuSans-82"/>
       <use x="67.232422" xlink:href="#DejaVuSans-97"/>
       <use x="128.511719" xlink:href="#DejaVuSans-105"/>
       <use x="156.294922" xlink:href="#DejaVuSans-110"/>
       <use x="219.673828" xlink:href="#DejaVuSans-45"/>
       <use x="255.757812" xlink:href="#DejaVuSans-102"/>
       <use x="290.962891" xlink:href="#DejaVuSans-101"/>
       <use x="352.486328" xlink:href="#DejaVuSans-100"/>
       <use x="415.962891" xlink:href="#DejaVuSans-32"/>
       <use x="447.75" xlink:href="#DejaVuSans-76"/>
       <use x="501.712891" xlink:href="#DejaVuSans-111"/>
       <use x="562.894531" xlink:href="#DejaVuSans-119"/>
      </g>
     </g>
    </g>
   </g>
   <g id="matplotlib.axis_2">
    <g id="ytick_1">
     <g id="text_6">
      <!-- 0 -->
      <g style="fill:#262626;" transform="translate(31.91875 298.187802)scale(0.165 -0.165)">
       <defs>
        <path d="M 31.78125 66.40625 
Q 24.171875 66.40625 20.328125 58.90625 
Q 16.5 51.421875 16.5 36.375 
Q 16.5 21.390625 20.328125 13.890625 
Q 24.171875 6.390625 31.78125 6.390625 
Q 39.453125 6.390625 43.28125 13.890625 
Q 47.125 21.390625 47.125 36.375 
Q 47.125 51.421875 43.28125 58.90625 
Q 39.453125 66.40625 31.78125 66.40625 
z
M 31.78125 74.21875 
Q 44.046875 74.21875 50.515625 64.515625 
Q 56.984375 54.828125 56.984375 36.375 
Q 56.984375 17.96875 50.515625 8.265625 
Q 44.046875 -1.421875 31.78125 -1.421875 
Q 19.53125 -1.421875 13.0625 8.265625 
Q 6.59375 17.96875 6.59375 36.375 
Q 6.59375 54.828125 13.0625 64.515625 
Q 19.53125 74.21875 31.78125 74.21875 
z
" id="DejaVuSans-48"/>
       </defs>
       <use xlink:href="#DejaVuSans-48"/>
      </g>
     </g>
    </g>
    <g id="ytick_2">
     <g id="text_7">
      <!-- 2 -->
      <g style="fill:#262626;" transform="translate(31.91875 253.071982)scale(0.165 -0.165)">
       <defs>
        <path d="M 19.1875 8.296875 
L 53.609375 8.296875 
L 53.609375 0 
L 7.328125 0 
L 7.328125 8.296875 
Q 12.9375 14.109375 22.625 23.890625 
Q 32.328125 33.6875 34.8125 36.53125 
Q 39.546875 41.84375 41.421875 45.53125 
Q 43.3125 49.21875 43.3125 52.78125 
Q 43.3125 58.59375 39.234375 62.25 
Q 35.15625 65.921875 28.609375 65.921875 
Q 23.96875 65.921875 18.8125 64.3125 
Q 13.671875 62.703125 7.8125 59.421875 
L 7.8125 69.390625 
Q 13.765625 71.78125 18.9375 73 
Q 24.125 74.21875 28.421875 74.21875 
Q 39.75 74.21875 46.484375 68.546875 
Q 53.21875 62.890625 53.21875 53.421875 
Q 53.21875 48.921875 51.53125 44.890625 
Q 49.859375 40.875 45.40625 35.40625 
Q 44.1875 33.984375 37.640625 27.21875 
Q 31.109375 20.453125 19.1875 8.296875 
z
" id="DejaVuSans-50"/>
       </defs>
       <use xlink:href="#DejaVuSans-50"/>
      </g>
     </g>
    </g>
    <g id="ytick_3">
     <g id="text_8">
      <!-- 4 -->
      <g style="fill:#262626;" transform="translate(31.91875 207.956162)scale(0.165 -0.165)">
       <defs>
        <path d="M 37.796875 64.3125 
L 12.890625 25.390625 
L 37.796875 25.390625 
z
M 35.203125 72.90625 
L 47.609375 72.90625 
L 47.609375 25.390625 
L 58.015625 25.390625 
L 58.015625 17.1875 
L 47.609375 17.1875 
L 47.609375 0 
L 37.796875 0 
L 37.796875 17.1875 
L 4.890625 17.1875 
L 4.890625 26.703125 
z
" id="DejaVuSans-52"/>
       </defs>
       <use xlink:href="#DejaVuSans-52"/>
      </g>
     </g>
    </g>
    <g id="ytick_4">
     <g id="text_9">
      <!-- 6 -->
      <g style="fill:#262626;" transform="translate(31.91875 162.840343)scale(0.165 -0.165)">
       <defs>
        <path d="M 33.015625 40.375 
Q 26.375 40.375 22.484375 35.828125 
Q 18.609375 31.296875 18.609375 23.390625 
Q 18.609375 15.53125 22.484375 10.953125 
Q 26.375 6.390625 33.015625 6.390625 
Q 39.65625 6.390625 43.53125 10.953125 
Q 47.40625 15.53125 47.40625 23.390625 
Q 47.40625 31.296875 43.53125 35.828125 
Q 39.65625 40.375 33.015625 40.375 
z
M 52.59375 71.296875 
L 52.59375 62.3125 
Q 48.875 64.0625 45.09375 64.984375 
Q 41.3125 65.921875 37.59375 65.921875 
Q 27.828125 65.921875 22.671875 59.328125 
Q 17.53125 52.734375 16.796875 39.40625 
Q 19.671875 43.65625 24.015625 45.921875 
Q 28.375 48.1875 33.59375 48.1875 
Q 44.578125 48.1875 50.953125 41.515625 
Q 57.328125 34.859375 57.328125 23.390625 
Q 57.328125 12.15625 50.6875 5.359375 
Q 44.046875 -1.421875 33.015625 -1.421875 
Q 20.359375 -1.421875 13.671875 8.265625 
Q 6.984375 17.96875 6.984375 36.375 
Q 6.984375 53.65625 15.1875 63.9375 
Q 23.390625 74.21875 37.203125 74.21875 
Q 40.921875 74.21875 44.703125 73.484375 
Q 48.484375 72.75 52.59375 71.296875 
z
" id="DejaVuSans-54"/>
       </defs>
       <use xlink:href="#DejaVuSans-54"/>
      </g>
     </g>
    </g>
    <g id="ytick_5">
     <g id="text_10">
      <!-- 8 -->
      <g style="fill:#262626;" transform="translate(31.91875 117.724523)scale(0.165 -0.165)">
       <defs>
        <path d="M 31.78125 34.625 
Q 24.75 34.625 20.71875 30.859375 
Q 16.703125 27.09375 16.703125 20.515625 
Q 16.703125 13.921875 20.71875 10.15625 
Q 24.75 6.390625 31.78125 6.390625 
Q 38.8125 6.390625 42.859375 10.171875 
Q 46.921875 13.96875 46.921875 20.515625 
Q 46.921875 27.09375 42.890625 30.859375 
Q 38.875 34.625 31.78125 34.625 
z
M 21.921875 38.8125 
Q 15.578125 40.375 12.03125 44.71875 
Q 8.5 49.078125 8.5 55.328125 
Q 8.5 64.0625 14.71875 69.140625 
Q 20.953125 74.21875 31.78125 74.21875 
Q 42.671875 74.21875 48.875 69.140625 
Q 55.078125 64.0625 55.078125 55.328125 
Q 55.078125 49.078125 51.53125 44.71875 
Q 48 40.375 41.703125 38.8125 
Q 48.828125 37.15625 52.796875 32.3125 
Q 56.78125 27.484375 56.78125 20.515625 
Q 56.78125 9.90625 50.3125 4.234375 
Q 43.84375 -1.421875 31.78125 -1.421875 
Q 19.734375 -1.421875 13.25 4.234375 
Q 6.78125 9.90625 6.78125 20.515625 
Q 6.78125 27.484375 10.78125 32.3125 
Q 14.796875 37.15625 21.921875 38.8125 
z
M 18.3125 54.390625 
Q 18.3125 48.734375 21.84375 45.5625 
Q 25.390625 42.390625 31.78125 42.390625 
Q 38.140625 42.390625 41.71875 45.5625 
Q 45.3125 48.734375 45.3125 54.390625 
Q 45.3125 60.0625 41.71875 63.234375 
Q 38.140625 66.40625 31.78125 66.40625 
Q 25.390625 66.40625 21.84375 63.234375 
Q 18.3125 60.0625 18.3125 54.390625 
z
" id="DejaVuSans-56"/>
       </defs>
       <use xlink:href="#DejaVuSans-56"/>
      </g>
     </g>
    </g>
    <g id="ytick_6">
     <g id="text_11">
      <!-- 10 -->
      <g style="fill:#262626;" transform="translate(21.420625 72.608703)scale(0.165 -0.165)">
       <defs>
        <path d="M 12.40625 8.296875 
L 28.515625 8.296875 
L 28.515625 63.921875 
L 10.984375 60.40625 
L 10.984375 69.390625 
L 28.421875 72.90625 
L 38.28125 72.90625 
L 38.28125 8.296875 
L 54.390625 8.296875 
L 54.390625 0 
L 12.40625 0 
z
" id="DejaVuSans-49"/>
       </defs>
       <use xlink:href="#DejaVuSans-49"/>
       <use x="63.623047" xlink:href="#DejaVuSans-48"/>
      </g>
     </g>
    </g>
    <g id="text_12">
     <!-- Yield (t/ha) -->
     <g style="fill:#262626;" transform="translate(13.677188 217.195156)rotate(-90)scale(0.18 -0.18)">
      <defs>
       <path d="M -0.203125 72.90625 
L 10.40625 72.90625 
L 30.609375 42.921875 
L 50.6875 72.90625 
L 61.28125 72.90625 
L 35.5 34.71875 
L 35.5 0 
L 25.59375 0 
L 25.59375 34.71875 
z
" id="DejaVuSans-89"/>
       <path d="M 9.421875 75.984375 
L 18.40625 75.984375 
L 18.40625 0 
L 9.421875 0 
z
" id="DejaVuSans-108"/>
       <path d="M 31 75.875 
Q 24.46875 64.65625 21.28125 53.65625 
Q 18.109375 42.671875 18.109375 31.390625 
Q 18.109375 20.125 21.3125 9.0625 
Q 24.515625 -2 31 -13.1875 
L 23.1875 -13.1875 
Q 15.875 -1.703125 12.234375 9.375 
Q 8.59375 20.453125 8.59375 31.390625 
Q 8.59375 42.28125 12.203125 53.3125 
Q 15.828125 64.359375 23.1875 75.875 
z
" id="DejaVuSans-40"/>
       <path d="M 25.390625 72.90625 
L 33.6875 72.90625 
L 8.296875 -9.28125 
L 0 -9.28125 
z
" id="DejaVuSans-47"/>
       <path d="M 8.015625 75.875 
L 15.828125 75.875 
Q 23.140625 64.359375 26.78125 53.3125 
Q 30.421875 42.28125 30.421875 31.390625 
Q 30.421875 20.453125 26.78125 9.375 
Q 23.140625 -1.703125 15.828125 -13.1875 
L 8.015625 -13.1875 
Q 14.5 -2 17.703125 9.0625 
Q 20.90625 20.125 20.90625 31.390625 
Q 20.90625 42.671875 17.703125 53.65625 
Q 14.5 64.65625 8.015625 75.875 
z
" id="DejaVuSans-41"/>
      </defs>
      <use xlink:href="#DejaVuSans-89"/>
      <use x="57.458984" xlink:href="#DejaVuSans-105"/>
      <use x="85.242188" xlink:href="#DejaVuSans-101"/>
      <use x="146.765625" xlink:href="#DejaVuSans-108"/>
      <use x="174.548828" xlink:href="#DejaVuSans-100"/>
      <use x="238.025391" xlink:href="#DejaVuSans-32"/>
      <use x="269.8125" xlink:href="#DejaVuSans-40"/>
      <use x="308.826172" xlink:href="#DejaVuSans-116"/>
      <use x="348.035156" xlink:href="#DejaVuSans-47"/>
      <use x="381.726562" xlink:href="#DejaVuSans-104"/>
      <use x="445.105469" xlink:href="#DejaVuSans-97"/>
      <use x="506.384766" xlink:href="#DejaVuSans-41"/>
     </g>
    </g>
   </g>
   <g id="PolyCollection_1">
    <defs>
     <path d="M 83.440015 -211.501065 
L 60.621503 -211.501065 
L 61.171266 -214.002259 
L 62.669761 -216.503453 
L 64.714211 -219.004647 
L 66.830215 -221.50584 
L 68.643786 -224.007034 
L 69.971282 -226.508228 
L 70.809036 -229.009422 
L 71.261592 -231.510615 
L 71.463009 -234.011809 
L 71.525658 -236.513003 
L 71.522399 -239.014197 
L 71.49093 -241.51539 
L 71.44645 -244.016584 
L 71.393627 -246.517778 
L 71.334373 -249.018972 
L 71.271335 -251.520165 
L 71.208399 -254.021359 
L 71.149719 -256.522553 
L 71.098421 -259.023747 
L 71.05561 -261.52494 
L 71.019873 -264.026134 
L 70.987269 -266.527328 
L 70.951822 -269.028522 
L 70.90669 -271.529715 
L 70.846183 -274.030909 
L 70.768494 -276.532103 
L 70.678359 -279.033297 
L 70.588214 -281.534491 
L 70.516394 -284.035684 
L 70.481999 -286.536878 
L 70.497982 -289.038072 
L 70.565533 -291.539266 
L 70.6728 -294.040459 
L 70.798879 -296.541653 
L 70.921199 -299.042847 
L 71.022735 -301.544041 
L 71.095928 -304.045234 
L 71.14237 -306.546428 
L 71.16945 -309.047622 
L 71.186235 -311.548816 
L 71.200384 -314.050009 
L 71.21676 -316.551203 
L 71.237357 -319.052397 
L 71.261886 -321.553591 
L 71.288539 -324.054784 
L 71.314811 -326.555978 
L 71.33837 -329.057172 
L 71.357819 -331.558366 
L 71.373139 -334.059559 
L 71.385631 -336.560753 
L 71.397403 -339.061947 
L 71.410628 -341.563141 
L 71.426868 -344.064334 
L 71.44669 -346.565528 
L 71.469633 -349.066722 
L 71.494478 -351.567916 
L 71.519699 -354.069109 
L 71.543955 -356.570303 
L 71.566469 -359.071497 
L 71.587121 -361.572691 
L 71.606214 -364.073884 
L 71.624049 -366.575078 
L 71.640599 -369.076272 
L 71.655459 -371.577466 
L 71.668058 -374.078659 
L 71.677934 -376.579853 
L 71.684831 -379.081047 
L 71.688625 -381.582241 
L 71.689188 -384.083434 
L 71.686379 -386.584628 
L 71.680192 -389.085822 
L 71.670918 -391.587016 
L 71.65914 -394.08821 
L 71.645552 -396.589403 
L 71.630811 -399.090597 
L 71.615704 -401.591791 
L 71.601667 -404.092985 
L 71.591323 -406.594178 
L 71.588508 -409.095372 
L 71.59745 -411.596566 
L 71.621278 -414.09776 
L 71.660514 -416.598953 
L 71.712346 -419.100147 
L 71.771135 -421.601341 
L 71.829993 -424.102535 
L 71.882738 -426.603728 
L 71.925399 -429.104922 
L 71.956742 -431.606116 
L 71.977833 -434.10731 
L 71.991067 -436.608503 
L 71.999162 -439.109697 
L 72.004459 -441.610891 
L 72.008582 -444.112085 
L 72.012398 -446.613278 
L 72.016156 -449.114472 
L 72.019729 -451.615666 
L 72.022865 -454.11686 
L 72.025376 -456.618053 
L 72.027222 -459.119247 
L 72.034296 -459.119247 
L 72.034296 -459.119247 
L 72.036142 -456.618053 
L 72.038653 -454.11686 
L 72.041789 -451.615666 
L 72.045362 -449.114472 
L 72.04912 -446.613278 
L 72.052936 -444.112085 
L 72.057059 -441.610891 
L 72.062356 -439.109697 
L 72.070451 -436.608503 
L 72.083685 -434.10731 
L 72.104776 -431.606116 
L 72.136119 -429.104922 
L 72.17878 -426.603728 
L 72.231525 -424.102535 
L 72.290383 -421.601341 
L 72.349172 -419.100147 
L 72.401004 -416.598953 
L 72.44024 -414.09776 
L 72.464068 -411.596566 
L 72.47301 -409.095372 
L 72.470195 -406.594178 
L 72.459851 -404.092985 
L 72.445814 -401.591791 
L 72.430707 -399.090597 
L 72.415966 -396.589403 
L 72.402378 -394.08821 
L 72.3906 -391.587016 
L 72.381326 -389.085822 
L 72.375139 -386.584628 
L 72.37233 -384.083434 
L 72.372893 -381.582241 
L 72.376687 -379.081047 
L 72.383584 -376.579853 
L 72.39346 -374.078659 
L 72.406059 -371.577466 
L 72.420919 -369.076272 
L 72.437469 -366.575078 
L 72.455304 -364.073884 
L 72.474397 -361.572691 
L 72.495049 -359.071497 
L 72.517563 -356.570303 
L 72.541819 -354.069109 
L 72.56704 -351.567916 
L 72.591885 -349.066722 
L 72.614828 -346.565528 
L 72.63465 -344.064334 
L 72.65089 -341.563141 
L 72.664115 -339.061947 
L 72.675887 -336.560753 
L 72.688379 -334.059559 
L 72.703699 -331.558366 
L 72.723148 -329.057172 
L 72.746707 -326.555978 
L 72.772979 -324.054784 
L 72.799632 -321.553591 
L 72.824161 -319.052397 
L 72.844758 -316.551203 
L 72.861134 -314.050009 
L 72.875283 -311.548816 
L 72.892068 -309.047622 
L 72.919148 -306.546428 
L 72.96559 -304.045234 
L 73.038783 -301.544041 
L 73.140319 -299.042847 
L 73.262639 -296.541653 
L 73.388718 -294.040459 
L 73.495985 -291.539266 
L 73.563536 -289.038072 
L 73.579519 -286.536878 
L 73.545124 -284.035684 
L 73.473304 -281.534491 
L 73.383159 -279.033297 
L 73.293024 -276.532103 
L 73.215335 -274.030909 
L 73.154828 -271.529715 
L 73.109696 -269.028522 
L 73.074249 -266.527328 
L 73.041645 -264.026134 
L 73.005908 -261.52494 
L 72.963097 -259.023747 
L 72.911799 -256.522553 
L 72.853119 -254.021359 
L 72.790183 -251.520165 
L 72.727145 -249.018972 
L 72.667891 -246.517778 
L 72.615068 -244.016584 
L 72.570588 -241.51539 
L 72.539119 -239.014197 
L 72.53586 -236.513003 
L 72.598509 -234.011809 
L 72.799926 -231.510615 
L 73.252482 -229.009422 
L 74.090236 -226.508228 
L 75.417732 -224.007034 
L 77.231303 -221.50584 
L 79.347307 -219.004647 
L 81.391757 -216.503453 
L 82.890252 -214.002259 
L 83.440015 -211.501065 
z
" id="m12dfbe04f3" style="stroke:#545454;stroke-width:2.5;"/>
    </defs>
    <g clip-path="url(#pa3ad3877ee)">
     <use style="fill:#597dbf;stroke:#545454;stroke-width:2.5;" x="0" xlink:href="#m12dfbe04f3" y="503.420156"/>
    </g>
   </g>
   <g id="PolyCollection_2">
    <defs>
     <path d="M 95.665604 -211.501065 
L 94.032938 -211.501065 
L 94.010345 -213.429345 
L 93.987654 -215.357625 
L 93.964863 -217.285905 
L 93.941965 -219.214184 
L 93.918957 -221.142464 
L 93.895832 -223.070744 
L 93.872585 -224.999023 
L 93.849208 -226.927303 
L 93.825698 -228.855583 
L 93.80205 -230.783863 
L 93.77826 -232.712142 
L 93.754327 -234.640422 
L 93.730251 -236.568702 
L 93.706035 -238.496982 
L 93.681684 -240.425261 
L 93.657205 -242.353541 
L 93.632611 -244.281821 
L 93.607916 -246.2101 
L 93.58314 -248.13838 
L 93.558303 -250.06666 
L 93.533435 -251.99494 
L 93.508564 -253.923219 
L 93.483725 -255.851499 
L 93.458959 -257.779779 
L 93.434307 -259.708059 
L 93.409817 -261.636338 
L 93.385539 -263.564618 
L 93.361527 -265.492898 
L 93.337839 -267.421178 
L 93.314533 -269.349457 
L 93.291672 -271.277737 
L 93.26932 -273.206017 
L 93.247542 -275.134296 
L 93.226404 -277.062576 
L 93.205972 -278.990856 
L 93.186311 -280.919136 
L 93.167486 -282.847415 
L 93.14956 -284.775695 
L 93.132593 -286.703975 
L 93.116644 -288.632255 
L 93.101765 -290.560534 
L 93.088007 -292.488814 
L 93.075415 -294.417094 
L 93.064029 -296.345373 
L 93.053883 -298.273653 
L 93.045007 -300.201933 
L 93.037421 -302.130213 
L 93.031143 -304.058492 
L 93.02618 -305.986772 
L 93.022536 -307.915052 
L 93.020204 -309.843332 
L 93.019174 -311.771611 
L 93.019427 -313.699891 
L 93.02094 -315.628171 
L 93.023681 -317.556451 
L 93.027614 -319.48473 
L 93.032697 -321.41301 
L 93.038885 -323.34129 
L 93.046127 -325.269569 
L 93.05437 -327.197849 
L 93.063556 -329.126129 
L 93.073627 -331.054409 
L 93.084523 -332.982688 
L 93.096184 -334.910968 
L 93.108548 -336.839248 
L 93.121556 -338.767528 
L 93.13515 -340.695807 
L 93.149273 -342.624087 
L 93.163872 -344.552367 
L 93.178898 -346.480647 
L 93.194304 -348.408926 
L 93.210049 -350.337206 
L 93.226096 -352.265486 
L 93.242413 -354.193765 
L 93.258973 -356.122045 
L 93.275756 -358.050325 
L 93.292745 -359.978605 
L 93.309931 -361.906884 
L 93.327308 -363.835164 
L 93.344875 -365.763444 
L 93.362638 -367.691724 
L 93.380605 -369.620003 
L 93.398789 -371.548283 
L 93.417206 -373.476563 
L 93.435876 -375.404842 
L 93.45482 -377.333122 
L 93.474061 -379.261402 
L 93.493623 -381.189682 
L 93.51353 -383.117961 
L 93.533808 -385.046241 
L 93.55448 -386.974521 
L 93.575566 -388.902801 
L 93.597088 -390.83108 
L 93.619063 -392.75936 
L 93.641505 -394.68764 
L 93.664423 -396.61592 
L 93.687825 -398.544199 
L 93.711713 -400.472479 
L 93.736084 -402.400759 
L 95.962458 -402.400759 
L 95.962458 -402.400759 
L 95.986829 -400.472479 
L 96.010717 -398.544199 
L 96.034119 -396.61592 
L 96.057037 -394.68764 
L 96.079479 -392.75936 
L 96.101454 -390.83108 
L 96.122976 -388.902801 
L 96.144062 -386.974521 
L 96.164734 -385.046241 
L 96.185012 -383.117961 
L 96.204919 -381.189682 
L 96.224481 -379.261402 
L 96.243722 -377.333122 
L 96.262666 -375.404842 
L 96.281336 -373.476563 
L 96.299753 -371.548283 
L 96.317937 -369.620003 
L 96.335904 -367.691724 
L 96.353667 -365.763444 
L 96.371234 -363.835164 
L 96.388611 -361.906884 
L 96.405797 -359.978605 
L 96.422786 -358.050325 
L 96.439569 -356.122045 
L 96.456129 -354.193765 
L 96.472446 -352.265486 
L 96.488493 -350.337206 
L 96.504238 -348.408926 
L 96.519644 -346.480647 
L 96.53467 -344.552367 
L 96.549269 -342.624087 
L 96.563392 -340.695807 
L 96.576986 -338.767528 
L 96.589994 -336.839248 
L 96.602358 -334.910968 
L 96.614019 -332.982688 
L 96.624915 -331.054409 
L 96.634986 -329.126129 
L 96.644172 -327.197849 
L 96.652415 -325.269569 
L 96.659657 -323.34129 
L 96.665845 -321.41301 
L 96.670928 -319.48473 
L 96.674861 -317.556451 
L 96.677602 -315.628171 
L 96.679115 -313.699891 
L 96.679368 -311.771611 
L 96.678338 -309.843332 
L 96.676006 -307.915052 
L 96.672362 -305.986772 
L 96.667399 -304.058492 
L 96.661121 -302.130213 
L 96.653535 -300.201933 
L 96.644659 -298.273653 
L 96.634513 -296.345373 
L 96.623127 -294.417094 
L 96.610535 -292.488814 
L 96.596777 -290.560534 
L 96.581898 -288.632255 
L 96.565949 -286.703975 
L 96.548982 -284.775695 
L 96.531056 -282.847415 
L 96.512231 -280.919136 
L 96.49257 -278.990856 
L 96.472138 -277.062576 
L 96.451 -275.134296 
L 96.429222 -273.206017 
L 96.40687 -271.277737 
L 96.384009 -269.349457 
L 96.360703 -267.421178 
L 96.337015 -265.492898 
L 96.313003 -263.564618 
L 96.288725 -261.636338 
L 96.264235 -259.708059 
L 96.239583 -257.779779 
L 96.214817 -255.851499 
L 96.189978 -253.923219 
L 96.165107 -251.99494 
L 96.140239 -250.06666 
L 96.115402 -248.13838 
L 96.090626 -246.2101 
L 96.065931 -244.281821 
L 96.041337 -242.353541 
L 96.016858 -240.425261 
L 95.992507 -238.496982 
L 95.968291 -236.568702 
L 95.944215 -234.640422 
L 95.920282 -232.712142 
L 95.896492 -230.783863 
L 95.872844 -228.855583 
L 95.849334 -226.927303 
L 95.825957 -224.999023 
L 95.80271 -223.070744 
L 95.779585 -221.142464 
L 95.756577 -219.214184 
L 95.733679 -217.285905 
L 95.710888 -215.357625 
L 95.688197 -213.429345 
L 95.665604 -211.501065 
z
" id="m2c2c610399" style="stroke:#545454;stroke-width:2.5;"/>
    </defs>
    <g clip-path="url(#pa3ad3877ee)">
     <use style="fill:#d98b5f;stroke:#545454;stroke-width:2.5;" x="0" xlink:href="#m2c2c610399" y="503.420156"/>
    </g>
   </g>
   <g id="PolyCollection_3">
    <defs>
     <path d="M 140.486295 -211.501065 
L 117.667783 -211.501065 
L 118.221407 -213.0726 
L 119.73163 -214.644134 
L 121.786406 -216.215668 
L 123.90328 -217.787203 
L 125.706052 -219.358737 
L 127.014973 -220.930271 
L 127.833007 -222.501806 
L 128.270025 -224.07334 
L 128.461919 -225.644874 
L 128.519663 -227.216409 
L 128.513248 -228.787943 
L 128.477949 -230.359478 
L 128.428116 -231.931012 
L 128.369247 -233.502546 
L 128.305059 -235.074081 
L 128.239959 -236.645615 
L 128.178645 -238.217149 
L 128.12458 -239.788684 
L 128.078583 -241.360218 
L 128.03819 -242.931752 
L 127.997989 -244.503287 
L 127.951025 -246.074821 
L 127.891227 -247.646355 
L 127.816527 -249.21789 
L 127.73169 -250.789424 
L 127.649305 -252.360958 
L 127.587522 -253.932493 
L 127.564483 -255.504027 
L 127.591374 -257.075561 
L 127.667384 -258.647096 
L 127.779303 -260.21863 
L 127.906102 -261.790165 
L 128.026199 -263.361699 
L 128.123931 -264.933233 
L 128.192667 -266.504768 
L 128.234113 -268.076302 
L 128.255157 -269.647836 
L 128.264232 -271.219371 
L 128.268671 -272.790905 
L 128.273538 -274.362439 
L 128.281662 -275.933974 
L 128.294186 -277.505508 
L 128.311072 -279.077042 
L 128.33136 -280.648577 
L 128.353361 -282.220111 
L 128.375035 -283.791645 
L 128.394598 -285.36318 
L 128.411134 -286.934714 
L 128.424914 -288.506248 
L 128.437254 -290.077783 
L 128.450009 -291.649317 
L 128.464924 -293.220852 
L 128.483079 -294.792386 
L 128.504601 -296.36392 
L 128.528681 -297.935455 
L 128.553875 -299.506989 
L 128.578598 -301.078523 
L 128.601642 -302.650058 
L 128.622519 -304.221592 
L 128.64145 -305.793126 
L 128.659006 -307.364661 
L 128.675618 -308.936195 
L 128.69125 -310.507729 
L 128.705423 -312.079264 
L 128.717494 -313.650798 
L 128.726947 -315.222332 
L 128.733498 -316.793867 
L 128.736993 -318.365401 
L 128.73728 -319.936935 
L 128.734223 -321.50847 
L 128.727863 -323.080004 
L 128.718563 -324.651538 
L 128.706966 -326.223073 
L 128.693765 -327.794607 
L 128.679562 -329.366142 
L 128.665078 -330.937676 
L 128.651717 -332.50921 
L 128.642117 -334.080745 
L 128.640129 -335.652279 
L 128.649929 -337.223813 
L 128.674507 -338.795348 
L 128.714199 -340.366882 
L 128.766041 -341.938416 
L 128.824348 -343.509951 
L 128.882306 -345.081485 
L 128.933901 -346.653019 
L 128.975356 -348.224554 
L 129.005604 -349.796088 
L 129.02581 -351.367622 
L 129.038398 -352.939157 
L 129.046065 -354.510691 
L 129.051102 -356.082225 
L 129.055084 -357.65376 
L 129.058833 -359.225294 
L 129.062564 -360.796829 
L 129.066125 -362.368363 
L 129.069249 -363.939897 
L 129.071743 -365.511432 
L 129.073568 -367.082966 
L 129.08051 -367.082966 
L 129.08051 -367.082966 
L 129.082335 -365.511432 
L 129.084829 -363.939897 
L 129.087953 -362.368363 
L 129.091514 -360.796829 
L 129.095245 -359.225294 
L 129.098994 -357.65376 
L 129.102976 -356.082225 
L 129.108013 -354.510691 
L 129.11568 -352.939157 
L 129.128268 -351.367622 
L 129.148474 -349.796088 
L 129.178722 -348.224554 
L 129.220177 -346.653019 
L 129.271772 -345.081485 
L 129.32973 -343.509951 
L 129.388037 -341.938416 
L 129.439879 -340.366882 
L 129.479571 -338.795348 
L 129.504149 -337.223813 
L 129.513949 -335.652279 
L 129.511961 -334.080745 
L 129.502361 -332.50921 
L 129.489 -330.937676 
L 129.474516 -329.366142 
L 129.460313 -327.794607 
L 129.447112 -326.223073 
L 129.435515 -324.651538 
L 129.426215 -323.080004 
L 129.419855 -321.50847 
L 129.416798 -319.936935 
L 129.417085 -318.365401 
L 129.42058 -316.793867 
L 129.427131 -315.222332 
L 129.436584 -313.650798 
L 129.448655 -312.079264 
L 129.462828 -310.507729 
L 129.47846 -308.936195 
L 129.495072 -307.364661 
L 129.512628 -305.793126 
L 129.531559 -304.221592 
L 129.552436 -302.650058 
L 129.57548 -301.078523 
L 129.600203 -299.506989 
L 129.625397 -297.935455 
L 129.649477 -296.36392 
L 129.670999 -294.792386 
L 129.689154 -293.220852 
L 129.704069 -291.649317 
L 129.716824 -290.077783 
L 129.729164 -288.506248 
L 129.742944 -286.934714 
L 129.75948 -285.36318 
L 129.779043 -283.791645 
L 129.800717 -282.220111 
L 129.822718 -280.648577 
L 129.843006 -279.077042 
L 129.859892 -277.505508 
L 129.872416 -275.933974 
L 129.88054 -274.362439 
L 129.885407 -272.790905 
L 129.889846 -271.219371 
L 129.898921 -269.647836 
L 129.919965 -268.076302 
L 129.961411 -266.504768 
L 130.030147 -264.933233 
L 130.127879 -263.361699 
L 130.247976 -261.790165 
L 130.374775 -260.21863 
L 130.486694 -258.647096 
L 130.562704 -257.075561 
L 130.589595 -255.504027 
L 130.566556 -253.932493 
L 130.504773 -252.360958 
L 130.422388 -250.789424 
L 130.337551 -249.21789 
L 130.262851 -247.646355 
L 130.203053 -246.074821 
L 130.156089 -244.503287 
L 130.115888 -242.931752 
L 130.075495 -241.360218 
L 130.029498 -239.788684 
L 129.975433 -238.217149 
L 129.914119 -236.645615 
L 129.849019 -235.074081 
L 129.784831 -233.502546 
L 129.725962 -231.931012 
L 129.676129 -230.359478 
L 129.64083 -228.787943 
L 129.634415 -227.216409 
L 129.692159 -225.644874 
L 129.884053 -224.07334 
L 130.321071 -222.501806 
L 131.139105 -220.930271 
L 132.448026 -219.358737 
L 134.250798 -217.787203 
L 136.367672 -216.215668 
L 138.422448 -214.644134 
L 139.932671 -213.0726 
L 140.486295 -211.501065 
z
" id="m1eaf12e6a8" style="stroke:#545454;stroke-width:2.5;"/>
    </defs>
    <g clip-path="url(#pa3ad3877ee)">
     <use style="fill:#597dbf;stroke:#545454;stroke-width:2.5;" x="0" xlink:href="#m1eaf12e6a8" y="503.420156"/>
    </g>
   </g>
   <g id="PolyCollection_4">
    <defs>
     <path d="M 152.729659 -211.501065 
L 151.061443 -211.501065 
L 151.038069 -212.709823 
L 151.0146 -213.918581 
L 150.991037 -215.127339 
L 150.967378 -216.336098 
L 150.943625 -217.544856 
L 150.919775 -218.753614 
L 150.895829 -219.962372 
L 150.871786 -221.17113 
L 150.847645 -222.379888 
L 150.823409 -223.588646 
L 150.799078 -224.797404 
L 150.774658 -226.006162 
L 150.750154 -227.21492 
L 150.725575 -228.423678 
L 150.70093 -229.632436 
L 150.676234 -230.841194 
L 150.651503 -232.049952 
L 150.626756 -233.25871 
L 150.602018 -234.467468 
L 150.577314 -235.676226 
L 150.552676 -236.884984 
L 150.528138 -238.093742 
L 150.503736 -239.3025 
L 150.479513 -240.511258 
L 150.455514 -241.720016 
L 150.431786 -242.928774 
L 150.408381 -244.137533 
L 150.385353 -245.346291 
L 150.362758 -246.555049 
L 150.340655 -247.763807 
L 150.319103 -248.972565 
L 150.298165 -250.181323 
L 150.2779 -251.390081 
L 150.258372 -252.598839 
L 150.239641 -253.807597 
L 150.221768 -255.016355 
L 150.20481 -256.225113 
L 150.188824 -257.433871 
L 150.173864 -258.642629 
L 150.159978 -259.851387 
L 150.147212 -261.060145 
L 150.135608 -262.268903 
L 150.125202 -263.477661 
L 150.116025 -264.686419 
L 150.1081 -265.895177 
L 150.101448 -267.103935 
L 150.09608 -268.312693 
L 150.092003 -269.521451 
L 150.089215 -270.730209 
L 150.087709 -271.938968 
L 150.087471 -273.147726 
L 150.088481 -274.356484 
L 150.090711 -275.565242 
L 150.094129 -276.774 
L 150.098696 -277.982758 
L 150.10437 -279.191516 
L 150.111102 -280.400274 
L 150.11884 -281.609032 
L 150.127528 -282.81779 
L 150.137109 -284.026548 
L 150.147521 -285.235306 
L 150.158704 -286.444064 
L 150.170594 -287.652822 
L 150.18313 -288.86158 
L 150.19625 -290.070338 
L 150.209894 -291.279096 
L 150.224005 -292.487854 
L 150.238527 -293.696612 
L 150.25341 -294.90537 
L 150.268606 -296.114128 
L 150.284072 -297.322886 
L 150.29977 -298.531644 
L 150.315667 -299.740403 
L 150.331735 -300.949161 
L 150.347954 -302.157919 
L 150.364306 -303.366677 
L 150.380782 -304.575435 
L 150.397375 -305.784193 
L 150.414087 -306.992951 
L 150.430922 -308.201709 
L 150.447892 -309.410467 
L 150.46501 -310.619225 
L 150.482295 -311.827983 
L 150.499768 -313.036741 
L 150.517455 -314.245499 
L 150.535381 -315.454257 
L 150.553575 -316.663015 
L 150.572066 -317.871773 
L 150.590884 -319.080531 
L 150.610055 -320.289289 
L 150.62961 -321.498047 
L 150.649573 -322.706805 
L 150.669967 -323.915563 
L 150.690815 -325.124321 
L 150.712132 -326.333079 
L 150.733933 -327.541838 
L 150.756227 -328.750596 
L 150.779019 -329.959354 
L 150.802308 -331.168112 
L 152.988794 -331.168112 
L 152.988794 -331.168112 
L 153.012083 -329.959354 
L 153.034875 -328.750596 
L 153.057169 -327.541838 
L 153.07897 -326.333079 
L 153.100287 -325.124321 
L 153.121135 -323.915563 
L 153.141529 -322.706805 
L 153.161492 -321.498047 
L 153.181047 -320.289289 
L 153.200218 -319.080531 
L 153.219036 -317.871773 
L 153.237527 -316.663015 
L 153.255721 -315.454257 
L 153.273647 -314.245499 
L 153.291334 -313.036741 
L 153.308807 -311.827983 
L 153.326092 -310.619225 
L 153.34321 -309.410467 
L 153.36018 -308.201709 
L 153.377015 -306.992951 
L 153.393727 -305.784193 
L 153.41032 -304.575435 
L 153.426796 -303.366677 
L 153.443148 -302.157919 
L 153.459367 -300.949161 
L 153.475435 -299.740403 
L 153.491332 -298.531644 
L 153.50703 -297.322886 
L 153.522496 -296.114128 
L 153.537692 -294.90537 
L 153.552575 -293.696612 
L 153.567097 -292.487854 
L 153.581208 -291.279096 
L 153.594852 -290.070338 
L 153.607972 -288.86158 
L 153.620508 -287.652822 
L 153.632398 -286.444064 
L 153.643581 -285.235306 
L 153.653993 -284.026548 
L 153.663574 -282.81779 
L 153.672262 -281.609032 
L 153.68 -280.400274 
L 153.686732 -279.191516 
L 153.692406 -277.982758 
L 153.696973 -276.774 
L 153.700391 -275.565242 
L 153.702621 -274.356484 
L 153.703631 -273.147726 
L 153.703393 -271.938968 
L 153.701887 -270.730209 
L 153.699099 -269.521451 
L 153.695022 -268.312693 
L 153.689654 -267.103935 
L 153.683002 -265.895177 
L 153.675077 -264.686419 
L 153.6659 -263.477661 
L 153.655494 -262.268903 
L 153.64389 -261.060145 
L 153.631124 -259.851387 
L 153.617238 -258.642629 
L 153.602278 -257.433871 
L 153.586292 -256.225113 
L 153.569334 -255.016355 
L 153.551461 -253.807597 
L 153.53273 -252.598839 
L 153.513202 -251.390081 
L 153.492937 -250.181323 
L 153.471999 -248.972565 
L 153.450447 -247.763807 
L 153.428344 -246.555049 
L 153.405749 -245.346291 
L 153.382721 -244.137533 
L 153.359316 -242.928774 
L 153.335588 -241.720016 
L 153.311589 -240.511258 
L 153.287366 -239.3025 
L 153.262964 -238.093742 
L 153.238426 -236.884984 
L 153.213788 -235.676226 
L 153.189084 -234.467468 
L 153.164346 -233.25871 
L 153.139599 -232.049952 
L 153.114868 -230.841194 
L 153.090172 -229.632436 
L 153.065527 -228.423678 
L 153.040948 -227.21492 
L 153.016444 -226.006162 
L 152.992024 -224.797404 
L 152.967693 -223.588646 
L 152.943457 -222.379888 
L 152.919316 -221.17113 
L 152.895273 -219.962372 
L 152.871327 -218.753614 
L 152.847477 -217.544856 
L 152.823724 -216.336098 
L 152.800065 -215.127339 
L 152.776502 -213.918581 
L 152.753033 -212.709823 
L 152.729659 -211.501065 
z
" id="m15fcae6187" style="stroke:#545454;stroke-width:2.5;"/>
    </defs>
    <g clip-path="url(#pa3ad3877ee)">
     <use style="fill:#d98b5f;stroke:#545454;stroke-width:2.5;" x="0" xlink:href="#m15fcae6187" y="503.420156"/>
    </g>
   </g>
   <g id="PolyCollection_5">
    <defs>
     <path d="M 197.532575 -211.501065 
L 174.714063 -211.501065 
L 175.202808 -213.713108 
L 176.549098 -215.92515 
L 178.429568 -218.137192 
L 180.446778 -220.349235 
L 182.261709 -222.561277 
L 183.675845 -224.773319 
L 184.641536 -226.985362 
L 185.219003 -229.197404 
L 185.516009 -231.409447 
L 185.639476 -233.621489 
L 185.670425 -235.833531 
L 185.658958 -238.045574 
L 185.630245 -240.257616 
L 185.593648 -242.469658 
L 185.550675 -244.681701 
L 185.500366 -246.893743 
L 185.442237 -249.105785 
L 185.37741 -251.317828 
L 185.308583 -253.52987 
L 185.239338 -255.741912 
L 185.173236 -257.953955 
L 185.112979 -260.165997 
L 185.059869 -262.378039 
L 185.01364 -264.590082 
L 184.972652 -266.802124 
L 184.934346 -269.014167 
L 184.895908 -271.226209 
L 184.855081 -273.438251 
L 184.811088 -275.650294 
L 184.765486 -277.862336 
L 184.722674 -280.074378 
L 184.689645 -282.286421 
L 184.674711 -284.498463 
L 184.685274 -286.710505 
L 184.725234 -288.922548 
L 184.793041 -291.13459 
L 184.881362 -293.346632 
L 184.978725 -295.558675 
L 185.072646 -297.770717 
L 185.15302 -299.982759 
L 185.214477 -302.194802 
L 185.256934 -304.406844 
L 185.284445 -306.618887 
L 185.303091 -308.830929 
L 185.318874 -311.042971 
L 185.336273 -313.255014 
L 185.357634 -315.467056 
L 185.383179 -317.679098 
L 185.411387 -319.891141 
L 185.439595 -322.103183 
L 185.464785 -324.315225 
L 185.48449 -326.527268 
L 185.497576 -328.73931 
L 185.504629 -330.951352 
L 185.507751 -333.163395 
L 185.509872 -335.375437 
L 185.513848 -337.587479 
L 185.521688 -339.799522 
L 185.534152 -342.011564 
L 185.550774 -344.223607 
L 185.570218 -346.435649 
L 185.590775 -348.647691 
L 185.610844 -350.859734 
L 185.629272 -353.071776 
L 185.645541 -355.283818 
L 185.659799 -357.495861 
L 185.672742 -359.707903 
L 185.685345 -361.919945 
L 185.698506 -364.131988 
L 185.712702 -366.34403 
L 185.727835 -368.556072 
L 185.743358 -370.768115 
L 185.758608 -372.980157 
L 185.773179 -375.1922 
L 185.787132 -377.404242 
L 185.800928 -379.616284 
L 185.815153 -381.828327 
L 185.830162 -384.040369 
L 185.845823 -386.252411 
L 185.861444 -388.464454 
L 185.875845 -390.676496 
L 185.88751 -392.888538 
L 185.894783 -395.100581 
L 185.89615 -397.312623 
L 185.890674 -399.524665 
L 185.878571 -401.736708 
L 185.861706 -403.94875 
L 185.843695 -406.160792 
L 185.82937 -408.372835 
L 185.823632 -410.584877 
L 185.830068 -412.79692 
L 185.849871 -415.008962 
L 185.881488 -417.221004 
L 185.92111 -419.433047 
L 185.963784 -421.645089 
L 186.004708 -423.857131 
L 186.040264 -426.069174 
L 186.068527 -428.281216 
L 186.089217 -430.493258 
L 186.157421 -430.493258 
L 186.157421 -430.493258 
L 186.178111 -428.281216 
L 186.206374 -426.069174 
L 186.24193 -423.857131 
L 186.282854 -421.645089 
L 186.325528 -419.433047 
L 186.36515 -417.221004 
L 186.396767 -415.008962 
L 186.41657 -412.79692 
L 186.423006 -410.584877 
L 186.417268 -408.372835 
L 186.402943 -406.160792 
L 186.384932 -403.94875 
L 186.368067 -401.736708 
L 186.355964 -399.524665 
L 186.350488 -397.312623 
L 186.351855 -395.100581 
L 186.359128 -392.888538 
L 186.370793 -390.676496 
L 186.385194 -388.464454 
L 186.400815 -386.252411 
L 186.416476 -384.040369 
L 186.431485 -381.828327 
L 186.44571 -379.616284 
L 186.459506 -377.404242 
L 186.473459 -375.1922 
L 186.48803 -372.980157 
L 186.50328 -370.768115 
L 186.518803 -368.556072 
L 186.533936 -366.34403 
L 186.548132 -364.131988 
L 186.561293 -361.919945 
L 186.573896 -359.707903 
L 186.586839 -357.495861 
L 186.601097 -355.283818 
L 186.617366 -353.071776 
L 186.635794 -350.859734 
L 186.655863 -348.647691 
L 186.67642 -346.435649 
L 186.695864 -344.223607 
L 186.712486 -342.011564 
L 186.72495 -339.799522 
L 186.73279 -337.587479 
L 186.736766 -335.375437 
L 186.738887 -333.163395 
L 186.742009 -330.951352 
L 186.749062 -328.73931 
L 186.762148 -326.527268 
L 186.781853 -324.315225 
L 186.807043 -322.103183 
L 186.835251 -319.891141 
L 186.863459 -317.679098 
L 186.889004 -315.467056 
L 186.910365 -313.255014 
L 186.927764 -311.042971 
L 186.943547 -308.830929 
L 186.962193 -306.618887 
L 186.989704 -304.406844 
L 187.032161 -302.194802 
L 187.093618 -299.982759 
L 187.173992 -297.770717 
L 187.267913 -295.558675 
L 187.365276 -293.346632 
L 187.453597 -291.13459 
L 187.521404 -288.922548 
L 187.561364 -286.710505 
L 187.571927 -284.498463 
L 187.556993 -282.286421 
L 187.523964 -280.074378 
L 187.481152 -277.862336 
L 187.43555 -275.650294 
L 187.391557 -273.438251 
L 187.35073 -271.226209 
L 187.312292 -269.014167 
L 187.273986 -266.802124 
L 187.232998 -264.590082 
L 187.186769 -262.378039 
L 187.133659 -260.165997 
L 187.073402 -257.953955 
L 187.0073 -255.741912 
L 186.938055 -253.52987 
L 186.869228 -251.317828 
L 186.804401 -249.105785 
L 186.746272 -246.893743 
L 186.695963 -244.681701 
L 186.65299 -242.469658 
L 186.616393 -240.257616 
L 186.58768 -238.045574 
L 186.576213 -235.833531 
L 186.607162 -233.621489 
L 186.730629 -231.409447 
L 187.027635 -229.197404 
L 187.605102 -226.985362 
L 188.570793 -224.773319 
L 189.984929 -222.561277 
L 191.79986 -220.349235 
L 193.81707 -218.137192 
L 195.69754 -215.92515 
L 197.04383 -213.713108 
L 197.532575 -211.501065 
z
" id="m567d052d4e" style="stroke:#545454;stroke-width:2.5;"/>
    </defs>
    <g clip-path="url(#pa3ad3877ee)">
     <use style="fill:#597dbf;stroke:#545454;stroke-width:2.5;" x="0" xlink:href="#m567d052d4e" y="503.420156"/>
    </g>
   </g>
   <g id="PolyCollection_6">
    <defs>
     <path d="M 209.754405 -211.501065 
L 208.129257 -211.501065 
L 208.106002 -213.424115 
L 208.082683 -215.347164 
L 208.059304 -217.270214 
L 208.035863 -219.193263 
L 208.01236 -221.116313 
L 207.988794 -223.039362 
L 207.965162 -224.962412 
L 207.941464 -226.885461 
L 207.917697 -228.808511 
L 207.89386 -230.73156 
L 207.869954 -232.65461 
L 207.84598 -234.577659 
L 207.82194 -236.500708 
L 207.797841 -238.423758 
L 207.773688 -240.346807 
L 207.749493 -242.269857 
L 207.725269 -244.192906 
L 207.70103 -246.115956 
L 207.676797 -248.039005 
L 207.652593 -249.962055 
L 207.628445 -251.885104 
L 207.604382 -253.808154 
L 207.580438 -255.731203 
L 207.556652 -257.654253 
L 207.533064 -259.577302 
L 207.509719 -261.500352 
L 207.486665 -263.423401 
L 207.463953 -265.346451 
L 207.441635 -267.2695 
L 207.419768 -269.19255 
L 207.398408 -271.115599 
L 207.377614 -273.038648 
L 207.357447 -274.961698 
L 207.337965 -276.884747 
L 207.319228 -278.807797 
L 207.301297 -280.730846 
L 207.284228 -282.653896 
L 207.268078 -284.576945 
L 207.2529 -286.499995 
L 207.238746 -288.423044 
L 207.225662 -290.346094 
L 207.213692 -292.269143 
L 207.202875 -294.192193 
L 207.193246 -296.115242 
L 207.184835 -298.038292 
L 207.177666 -299.961341 
L 207.171757 -301.884391 
L 207.167121 -303.80744 
L 207.163767 -305.73049 
L 207.161694 -307.653539 
L 207.160899 -309.576588 
L 207.161372 -311.499638 
L 207.163097 -313.422687 
L 207.166053 -315.345737 
L 207.170216 -317.268786 
L 207.175554 -319.191836 
L 207.182033 -321.114885 
L 207.189615 -323.037935 
L 207.198258 -324.960984 
L 207.207919 -326.884034 
L 207.21855 -328.807083 
L 207.230104 -330.730133 
L 207.242532 -332.653182 
L 207.255784 -334.576232 
L 207.26981 -336.499281 
L 207.284561 -338.422331 
L 207.299989 -340.34538 
L 207.316048 -342.26843 
L 207.332691 -344.191479 
L 207.349878 -346.114528 
L 207.367568 -348.037578 
L 207.385724 -349.960627 
L 207.404312 -351.883677 
L 207.423303 -353.806726 
L 207.442667 -355.729776 
L 207.462382 -357.652825 
L 207.482428 -359.575875 
L 207.502786 -361.498924 
L 207.523444 -363.421974 
L 207.544389 -365.345023 
L 207.565614 -367.268073 
L 207.587113 -369.191122 
L 207.608881 -371.114172 
L 207.630918 -373.037221 
L 207.653222 -374.960271 
L 207.675794 -376.88332 
L 207.698636 -378.806369 
L 207.721748 -380.729419 
L 207.745132 -382.652468 
L 207.768788 -384.575518 
L 207.792716 -386.498567 
L 207.816915 -388.421617 
L 207.841381 -390.344666 
L 207.86611 -392.267716 
L 207.891094 -394.190765 
L 207.916323 -396.113815 
L 207.941786 -398.036864 
L 207.967467 -399.959914 
L 207.99335 -401.882963 
L 209.890312 -401.882963 
L 209.890312 -401.882963 
L 209.916195 -399.959914 
L 209.941876 -398.036864 
L 209.967339 -396.113815 
L 209.992568 -394.190765 
L 210.017552 -392.267716 
L 210.042281 -390.344666 
L 210.066747 -388.421617 
L 210.090946 -386.498567 
L 210.114874 -384.575518 
L 210.13853 -382.652468 
L 210.161914 -380.729419 
L 210.185026 -378.806369 
L 210.207868 -376.88332 
L 210.23044 -374.960271 
L 210.252744 -373.037221 
L 210.274781 -371.114172 
L 210.296549 -369.191122 
L 210.318048 -367.268073 
L 210.339273 -365.345023 
L 210.360218 -363.421974 
L 210.380876 -361.498924 
L 210.401234 -359.575875 
L 210.42128 -357.652825 
L 210.440995 -355.729776 
L 210.460359 -353.806726 
L 210.47935 -351.883677 
L 210.497938 -349.960627 
L 210.516094 -348.037578 
L 210.533784 -346.114528 
L 210.550971 -344.191479 
L 210.567614 -342.26843 
L 210.583673 -340.34538 
L 210.599101 -338.422331 
L 210.613852 -336.499281 
L 210.627878 -334.576232 
L 210.64113 -332.653182 
L 210.653558 -330.730133 
L 210.665112 -328.807083 
L 210.675743 -326.884034 
L 210.685404 -324.960984 
L 210.694047 -323.037935 
L 210.701629 -321.114885 
L 210.708108 -319.191836 
L 210.713446 -317.268786 
L 210.717609 -315.345737 
L 210.720565 -313.422687 
L 210.72229 -311.499638 
L 210.722763 -309.576588 
L 210.721968 -307.653539 
L 210.719895 -305.73049 
L 210.716541 -303.80744 
L 210.711905 -301.884391 
L 210.705996 -299.961341 
L 210.698827 -298.038292 
L 210.690416 -296.115242 
L 210.680787 -294.192193 
L 210.66997 -292.269143 
L 210.658 -290.346094 
L 210.644916 -288.423044 
L 210.630762 -286.499995 
L 210.615584 -284.576945 
L 210.599434 -282.653896 
L 210.582365 -280.730846 
L 210.564434 -278.807797 
L 210.545697 -276.884747 
L 210.526215 -274.961698 
L 210.506048 -273.038648 
L 210.485254 -271.115599 
L 210.463894 -269.19255 
L 210.442027 -267.2695 
L 210.419709 -265.346451 
L 210.396997 -263.423401 
L 210.373943 -261.500352 
L 210.350598 -259.577302 
L 210.32701 -257.654253 
L 210.303224 -255.731203 
L 210.27928 -253.808154 
L 210.255217 -251.885104 
L 210.231069 -249.962055 
L 210.206865 -248.039005 
L 210.182632 -246.115956 
L 210.158393 -244.192906 
L 210.134169 -242.269857 
L 210.109974 -240.346807 
L 210.085821 -238.423758 
L 210.061722 -236.500708 
L 210.037682 -234.577659 
L 210.013708 -232.65461 
L 209.989802 -230.73156 
L 209.965965 -228.808511 
L 209.942198 -226.885461 
L 209.9185 -224.962412 
L 209.894868 -223.039362 
L 209.871302 -221.116313 
L 209.847799 -219.193263 
L 209.824358 -217.270214 
L 209.800979 -215.347164 
L 209.77766 -213.424115 
L 209.754405 -211.501065 
z
" id="m62566862ce" style="stroke:#545454;stroke-width:2.5;"/>
    </defs>
    <g clip-path="url(#pa3ad3877ee)">
     <use style="fill:#d98b5f;stroke:#545454;stroke-width:2.5;" x="0" xlink:href="#m62566862ce" y="503.420156"/>
    </g>
   </g>
   <g id="PolyCollection_7">
    <defs>
     <path d="M 254.578855 -211.501065 
L 231.760343 -211.501065 
L 232.236243 -212.890997 
L 233.552323 -214.280929 
L 235.397397 -215.670861 
L 237.386789 -217.060793 
L 239.188807 -218.450724 
L 240.605017 -219.840656 
L 241.582896 -221.230588 
L 242.176609 -222.62052 
L 242.489348 -224.010452 
L 242.625616 -225.400383 
L 242.665576 -226.790315 
L 242.659263 -228.180247 
L 242.632219 -229.570179 
L 242.594645 -230.960111 
L 242.54942 -232.350042 
L 242.497343 -233.739974 
L 242.43969 -235.129906 
L 242.378844 -236.519838 
L 242.317824 -237.909769 
L 242.259404 -239.299701 
L 242.205281 -240.689633 
L 242.15555 -242.079565 
L 242.108597 -243.469497 
L 242.061432 -244.859428 
L 242.010488 -246.24936 
L 241.952832 -247.639292 
L 241.887682 -249.029224 
L 241.817833 -250.419156 
L 241.750367 -251.809087 
L 241.695969 -253.199019 
L 241.666555 -254.588951 
L 241.671722 -255.978883 
L 241.715284 -257.368815 
L 241.79342 -258.758746 
L 241.895388 -260.148678 
L 242.006568 -261.53861 
L 242.11255 -262.928542 
L 242.202633 -264.318474 
L 242.271561 -265.708405 
L 242.319305 -267.098337 
L 242.349473 -268.488269 
L 242.367291 -269.878201 
L 242.377932 -271.268133 
L 242.385559 -272.658064 
L 242.393089 -274.047996 
L 242.402393 -275.437928 
L 242.414604 -276.82786 
L 242.430267 -278.217792 
L 242.449298 -279.607723 
L 242.470856 -280.997655 
L 242.493358 -282.387587 
L 242.514748 -283.777519 
L 242.532995 -285.167451 
L 242.546662 -286.557382 
L 242.555342 -287.947314 
L 242.559838 -289.337246 
L 242.562012 -290.727178 
L 242.564355 -292.11711 
L 242.569356 -293.507041 
L 242.578872 -294.896973 
L 242.593662 -296.286905 
L 242.613246 -297.676837 
L 242.636111 -299.066769 
L 242.660181 -300.4567 
L 242.683391 -301.846632 
L 242.704186 -303.236564 
L 242.721817 -304.626496 
L 242.736363 -306.016428 
L 242.748505 -307.406359 
L 242.759158 -308.796291 
L 242.769122 -310.186223 
L 242.778879 -311.576155 
L 242.788576 -312.966087 
L 242.798165 -314.356018 
L 242.80759 -315.74595 
L 242.816942 -317.135882 
L 242.826521 -318.525814 
L 242.836768 -319.915746 
L 242.848083 -321.305677 
L 242.860562 -322.695609 
L 242.873719 -324.085541 
L 242.886326 -325.475473 
L 242.896485 -326.865405 
L 242.902032 -328.255336 
L 242.901259 -329.645268 
L 242.893754 -331.0352 
L 242.881024 -332.425132 
L 242.866568 -333.815064 
L 242.855222 -335.204995 
L 242.851926 -336.594927 
L 242.860324 -337.984859 
L 242.881715 -339.374791 
L 242.914712 -340.764723 
L 242.955703 -342.154654 
L 242.999887 -343.544586 
L 243.042503 -344.934518 
L 243.079853 -346.32445 
L 243.109861 -347.714382 
L 243.132087 -349.104313 
L 243.207111 -349.104313 
L 243.207111 -349.104313 
L 243.229337 -347.714382 
L 243.259345 -346.32445 
L 243.296695 -344.934518 
L 243.339311 -343.544586 
L 243.383495 -342.154654 
L 243.424486 -340.764723 
L 243.457483 -339.374791 
L 243.478874 -337.984859 
L 243.487272 -336.594927 
L 243.483976 -335.204995 
L 243.47263 -333.815064 
L 243.458174 -332.425132 
L 243.445444 -331.0352 
L 243.437939 -329.645268 
L 243.437166 -328.255336 
L 243.442713 -326.865405 
L 243.452872 -325.475473 
L 243.465479 -324.085541 
L 243.478636 -322.695609 
L 243.491115 -321.305677 
L 243.50243 -319.915746 
L 243.512677 -318.525814 
L 243.522256 -317.135882 
L 243.531608 -315.74595 
L 243.541033 -314.356018 
L 243.550622 -312.966087 
L 243.560319 -311.576155 
L 243.570076 -310.186223 
L 243.58004 -308.796291 
L 243.590693 -307.406359 
L 243.602835 -306.016428 
L 243.617381 -304.626496 
L 243.635012 -303.236564 
L 243.655807 -301.846632 
L 243.679017 -300.4567 
L 243.703087 -299.066769 
L 243.725952 -297.676837 
L 243.745536 -296.286905 
L 243.760326 -294.896973 
L 243.769842 -293.507041 
L 243.774843 -292.11711 
L 243.777186 -290.727178 
L 243.77936 -289.337246 
L 243.783856 -287.947314 
L 243.792536 -286.557382 
L 243.806203 -285.167451 
L 243.82445 -283.777519 
L 243.84584 -282.387587 
L 243.868342 -280.997655 
L 243.8899 -279.607723 
L 243.908931 -278.217792 
L 243.924594 -276.82786 
L 243.936805 -275.437928 
L 243.946109 -274.047996 
L 243.953639 -272.658064 
L 243.961266 -271.268133 
L 243.971907 -269.878201 
L 243.989725 -268.488269 
L 244.019893 -267.098337 
L 244.067637 -265.708405 
L 244.136565 -264.318474 
L 244.226648 -262.928542 
L 244.33263 -261.53861 
L 244.44381 -260.148678 
L 244.545778 -258.758746 
L 244.623914 -257.368815 
L 244.667476 -255.978883 
L 244.672643 -254.588951 
L 244.643229 -253.199019 
L 244.588831 -251.809087 
L 244.521365 -250.419156 
L 244.451516 -249.029224 
L 244.386366 -247.639292 
L 244.32871 -246.24936 
L 244.277766 -244.859428 
L 244.230601 -243.469497 
L 244.183648 -242.079565 
L 244.133917 -240.689633 
L 244.079794 -239.299701 
L 244.021374 -237.909769 
L 243.960354 -236.519838 
L 243.899508 -235.129906 
L 243.841855 -233.739974 
L 243.789778 -232.350042 
L 243.744553 -230.960111 
L 243.706979 -229.570179 
L 243.679935 -228.180247 
L 243.673622 -226.790315 
L 243.713582 -225.400383 
L 243.84985 -224.010452 
L 244.162589 -222.62052 
L 244.756302 -221.230588 
L 245.734181 -219.840656 
L 247.150391 -218.450724 
L 248.952409 -217.060793 
L 250.941801 -215.670861 
L 252.786875 -214.280929 
L 254.102955 -212.890997 
L 254.578855 -211.501065 
z
" id="md14cba030e" style="stroke:#545454;stroke-width:2.5;"/>
    </defs>
    <g clip-path="url(#pa3ad3877ee)">
     <use style="fill:#597dbf;stroke:#545454;stroke-width:2.5;" x="0" xlink:href="#md14cba030e" y="503.420156"/>
    </g>
   </g>
   <g id="PolyCollection_8">
    <defs>
     <path d="M 266.81186 -211.501065 
L 265.164362 -211.501065 
L 265.14079 -212.70931 
L 265.117147 -213.917554 
L 265.093435 -215.125799 
L 265.069655 -216.334043 
L 265.045809 -217.542288 
L 265.021897 -218.750532 
L 264.997919 -219.958777 
L 264.973874 -221.167021 
L 264.949765 -222.375266 
L 264.925592 -223.58351 
L 264.901357 -224.791755 
L 264.877065 -225.999999 
L 264.852721 -227.208244 
L 264.828333 -228.416488 
L 264.803911 -229.624733 
L 264.779469 -230.832977 
L 264.755021 -232.041222 
L 264.730587 -233.249466 
L 264.70619 -234.457711 
L 264.681854 -235.665955 
L 264.65761 -236.8742 
L 264.633489 -238.082444 
L 264.609529 -239.290689 
L 264.58577 -240.498933 
L 264.562255 -241.707178 
L 264.53903 -242.915422 
L 264.516145 -244.123667 
L 264.493652 -245.331911 
L 264.471606 -246.540156 
L 264.450063 -247.7484 
L 264.429081 -248.956645 
L 264.408719 -250.164889 
L 264.389037 -251.373134 
L 264.370093 -252.581378 
L 264.351948 -253.789623 
L 264.334658 -254.997867 
L 264.31828 -256.206112 
L 264.302868 -257.414356 
L 264.288473 -258.6226 
L 264.275143 -259.830845 
L 264.262921 -261.039089 
L 264.251847 -262.247334 
L 264.241957 -263.455578 
L 264.233279 -264.663823 
L 264.225839 -265.872067 
L 264.219654 -267.080312 
L 264.214737 -268.288556 
L 264.211096 -269.496801 
L 264.20873 -270.705045 
L 264.207634 -271.91329 
L 264.207798 -273.121534 
L 264.209202 -274.329779 
L 264.211825 -275.538023 
L 264.215638 -276.746268 
L 264.220609 -277.954512 
L 264.226699 -279.162757 
L 264.233867 -280.371001 
L 264.242068 -281.579246 
L 264.251254 -282.78749 
L 264.261375 -283.995735 
L 264.272377 -285.203979 
L 264.284209 -286.412224 
L 264.296815 -287.620468 
L 264.310143 -288.828713 
L 264.324139 -290.036957 
L 264.338752 -291.245202 
L 264.353932 -292.453446 
L 264.369631 -293.661691 
L 264.385804 -294.869935 
L 264.40241 -296.07818 
L 264.419411 -297.286424 
L 264.436772 -298.494669 
L 264.454463 -299.702913 
L 264.472459 -300.911158 
L 264.490736 -302.119402 
L 264.509278 -303.327647 
L 264.52807 -304.535891 
L 264.547104 -305.744136 
L 264.566373 -306.95238 
L 264.585875 -308.160625 
L 264.605611 -309.368869 
L 264.625584 -310.577114 
L 264.645801 -311.785358 
L 264.66627 -312.993603 
L 264.687001 -314.201847 
L 264.708003 -315.410092 
L 264.729289 -316.618336 
L 264.75087 -317.826581 
L 264.772756 -319.034825 
L 264.794958 -320.24307 
L 264.817483 -321.451314 
L 264.840339 -322.659559 
L 264.86353 -323.867803 
L 264.887058 -325.076048 
L 264.910922 -326.284292 
L 264.935117 -327.492536 
L 264.959638 -328.700781 
L 264.984472 -329.909025 
L 265.009606 -331.11727 
L 266.966616 -331.11727 
L 266.966616 -331.11727 
L 266.99175 -329.909025 
L 267.016584 -328.700781 
L 267.041105 -327.492536 
L 267.0653 -326.284292 
L 267.089164 -325.076048 
L 267.112692 -323.867803 
L 267.135883 -322.659559 
L 267.158739 -321.451314 
L 267.181264 -320.24307 
L 267.203466 -319.034825 
L 267.225352 -317.826581 
L 267.246933 -316.618336 
L 267.268219 -315.410092 
L 267.289221 -314.201847 
L 267.309952 -312.993603 
L 267.330421 -311.785358 
L 267.350638 -310.577114 
L 267.370611 -309.368869 
L 267.390347 -308.160625 
L 267.409849 -306.95238 
L 267.429118 -305.744136 
L 267.448152 -304.535891 
L 267.466944 -303.327647 
L 267.485486 -302.119402 
L 267.503763 -300.911158 
L 267.521759 -299.702913 
L 267.53945 -298.494669 
L 267.556811 -297.286424 
L 267.573812 -296.07818 
L 267.590418 -294.869935 
L 267.606591 -293.661691 
L 267.62229 -292.453446 
L 267.63747 -291.245202 
L 267.652083 -290.036957 
L 267.666079 -288.828713 
L 267.679407 -287.620468 
L 267.692013 -286.412224 
L 267.703845 -285.203979 
L 267.714847 -283.995735 
L 267.724968 -282.78749 
L 267.734154 -281.579246 
L 267.742355 -280.371001 
L 267.749523 -279.162757 
L 267.755613 -277.954512 
L 267.760584 -276.746268 
L 267.764397 -275.538023 
L 267.76702 -274.329779 
L 267.768424 -273.121534 
L 267.768588 -271.91329 
L 267.767492 -270.705045 
L 267.765126 -269.496801 
L 267.761485 -268.288556 
L 267.756568 -267.080312 
L 267.750383 -265.872067 
L 267.742943 -264.663823 
L 267.734265 -263.455578 
L 267.724375 -262.247334 
L 267.713301 -261.039089 
L 267.701079 -259.830845 
L 267.687749 -258.6226 
L 267.673354 -257.414356 
L 267.657942 -256.206112 
L 267.641564 -254.997867 
L 267.624274 -253.789623 
L 267.606129 -252.581378 
L 267.587185 -251.373134 
L 267.567503 -250.164889 
L 267.547141 -248.956645 
L 267.526159 -247.7484 
L 267.504616 -246.540156 
L 267.48257 -245.331911 
L 267.460077 -244.123667 
L 267.437192 -242.915422 
L 267.413967 -241.707178 
L 267.390452 -240.498933 
L 267.366693 -239.290689 
L 267.342733 -238.082444 
L 267.318612 -236.8742 
L 267.294368 -235.665955 
L 267.270032 -234.457711 
L 267.245635 -233.249466 
L 267.221201 -232.041222 
L 267.196753 -230.832977 
L 267.172311 -229.624733 
L 267.147889 -228.416488 
L 267.123501 -227.208244 
L 267.099157 -225.999999 
L 267.074865 -224.791755 
L 267.05063 -223.58351 
L 267.026457 -222.375266 
L 267.002348 -221.167021 
L 266.978303 -219.958777 
L 266.954325 -218.750532 
L 266.930413 -217.542288 
L 266.906567 -216.334043 
L 266.882787 -215.125799 
L 266.859075 -213.917554 
L 266.835432 -212.70931 
L 266.81186 -211.501065 
z
" id="m876d922d38" style="stroke:#545454;stroke-width:2.5;"/>
    </defs>
    <g clip-path="url(#pa3ad3877ee)">
     <use style="fill:#d98b5f;stroke:#545454;stroke-width:2.5;" x="0" xlink:href="#m876d922d38" y="503.420156"/>
    </g>
   </g>
   <g id="PolyCollection_9">
    <defs>
     <path d="M 311.625135 -211.501065 
L 288.806623 -211.501065 
L 289.226878 -212.104888 
L 290.404838 -212.708711 
L 292.088925 -213.312534 
L 293.957727 -213.916357 
L 295.717123 -214.52018 
L 297.169592 -215.124003 
L 298.236003 -215.727825 
L 298.935234 -216.331648 
L 299.342507 -216.935471 
L 299.54841 -217.539294 
L 299.631644 -218.143117 
L 299.647896 -218.74694 
L 299.630413 -219.350763 
L 299.596146 -219.954585 
L 299.552678 -220.558408 
L 299.503526 -221.162231 
L 299.451175 -221.766054 
L 299.398204 -222.369877 
L 299.347161 -222.9737 
L 299.299867 -223.577523 
L 299.256679 -224.181345 
L 299.216084 -224.785168 
L 299.174829 -225.388991 
L 299.128682 -225.992814 
L 299.073757 -226.596637 
L 299.008189 -227.20046 
L 298.93373 -227.804283 
L 298.856679 -228.408105 
L 298.787515 -229.011928 
L 298.738928 -229.615751 
L 298.72254 -230.219574 
L 298.745328 -230.823397 
L 298.80711 -231.42722 
L 298.900195 -232.031043 
L 299.01142 -232.634865 
L 299.125758 -233.238688 
L 299.230064 -233.842511 
L 299.315645 -234.446334 
L 299.379036 -235.050157 
L 299.421209 -235.65398 
L 299.445938 -236.257803 
L 299.458117 -236.861626 
L 299.462498 -237.465448 
L 299.462995 -238.069271 
L 299.462443 -238.673094 
L 299.462642 -239.276917 
L 299.464535 -239.88074 
L 299.468462 -240.484563 
L 299.474422 -241.088386 
L 299.482301 -241.692208 
L 299.491994 -242.296031 
L 299.5034 -242.899854 
L 299.516325 -243.503677 
L 299.53039 -244.1075 
L 299.545018 -244.711323 
L 299.559534 -245.315146 
L 299.573335 -245.918968 
L 299.58608 -246.522791 
L 299.597812 -247.126614 
L 299.608991 -247.730437 
L 299.620381 -248.33426 
L 299.632791 -248.938083 
L 299.646738 -249.541906 
L 299.662147 -250.145728 
L 299.678268 -250.749551 
L 299.693874 -251.353374 
L 299.707724 -251.957197 
L 299.719093 -252.56102 
L 299.728119 -253.164843 
L 299.735799 -253.768666 
L 299.743592 -254.372488 
L 299.752803 -254.976311 
L 299.764015 -255.580134 
L 299.776838 -256.183957 
L 299.790057 -256.78778 
L 299.802093 -257.391603 
L 299.811514 -257.995426 
L 299.817386 -258.599249 
L 299.819351 -259.203071 
L 299.817503 -259.806894 
L 299.812198 -260.410717 
L 299.803926 -261.01454 
L 299.793287 -261.618363 
L 299.781032 -262.222186 
L 299.768134 -262.826009 
L 299.755839 -263.429831 
L 299.745701 -264.033654 
L 299.739601 -264.637477 
L 299.739706 -265.2413 
L 299.748286 -265.845123 
L 299.767328 -266.448946 
L 299.797967 -267.052769 
L 299.8399 -267.656591 
L 299.891049 -268.260414 
L 299.947705 -268.864237 
L 300.005207 -269.46806 
L 300.058941 -270.071883 
L 300.105313 -270.675706 
L 300.142353 -271.279529 
L 300.289405 -271.279529 
L 300.289405 -271.279529 
L 300.326445 -270.675706 
L 300.372817 -270.071883 
L 300.426551 -269.46806 
L 300.484053 -268.864237 
L 300.540709 -268.260414 
L 300.591858 -267.656591 
L 300.633791 -267.052769 
L 300.66443 -266.448946 
L 300.683472 -265.845123 
L 300.692052 -265.2413 
L 300.692157 -264.637477 
L 300.686057 -264.033654 
L 300.675919 -263.429831 
L 300.663624 -262.826009 
L 300.650726 -262.222186 
L 300.638471 -261.618363 
L 300.627832 -261.01454 
L 300.61956 -260.410717 
L 300.614255 -259.806894 
L 300.612407 -259.203071 
L 300.614372 -258.599249 
L 300.620244 -257.995426 
L 300.629665 -257.391603 
L 300.641701 -256.78778 
L 300.65492 -256.183957 
L 300.667743 -255.580134 
L 300.678955 -254.976311 
L 300.688166 -254.372488 
L 300.695959 -253.768666 
L 300.703639 -253.164843 
L 300.712665 -252.56102 
L 300.724034 -251.957197 
L 300.737884 -251.353374 
L 300.75349 -250.749551 
L 300.769611 -250.145728 
L 300.78502 -249.541906 
L 300.798967 -248.938083 
L 300.811377 -248.33426 
L 300.822767 -247.730437 
L 300.833946 -247.126614 
L 300.845678 -246.522791 
L 300.858423 -245.918968 
L 300.872224 -245.315146 
L 300.88674 -244.711323 
L 300.901368 -244.1075 
L 300.915433 -243.503677 
L 300.928358 -242.899854 
L 300.939764 -242.296031 
L 300.949457 -241.692208 
L 300.957336 -241.088386 
L 300.963296 -240.484563 
L 300.967223 -239.88074 
L 300.969116 -239.276917 
L 300.969315 -238.673094 
L 300.968763 -238.069271 
L 300.96926 -237.465448 
L 300.973641 -236.861626 
L 300.98582 -236.257803 
L 301.010549 -235.65398 
L 301.052722 -235.050157 
L 301.116113 -234.446334 
L 301.201694 -233.842511 
L 301.306 -233.238688 
L 301.420338 -232.634865 
L 301.531563 -232.031043 
L 301.624648 -231.42722 
L 301.68643 -230.823397 
L 301.709218 -230.219574 
L 301.69283 -229.615751 
L 301.644243 -229.011928 
L 301.575079 -228.408105 
L 301.498028 -227.804283 
L 301.423569 -227.20046 
L 301.358001 -226.596637 
L 301.303076 -225.992814 
L 301.256929 -225.388991 
L 301.215674 -224.785168 
L 301.175079 -224.181345 
L 301.131891 -223.577523 
L 301.084597 -222.9737 
L 301.033554 -222.369877 
L 300.980583 -221.766054 
L 300.928232 -221.162231 
L 300.87908 -220.558408 
L 300.835612 -219.954585 
L 300.801345 -219.350763 
L 300.783862 -218.74694 
L 300.800114 -218.143117 
L 300.883348 -217.539294 
L 301.089251 -216.935471 
L 301.496524 -216.331648 
L 302.195755 -215.727825 
L 303.262166 -215.124003 
L 304.714635 -214.52018 
L 306.474031 -213.916357 
L 308.342833 -213.312534 
L 310.02692 -212.708711 
L 311.20488 -212.104888 
L 311.625135 -211.501065 
z
" id="m4290a374ad" style="stroke:#545454;stroke-width:2.5;"/>
    </defs>
    <g clip-path="url(#pa3ad3877ee)">
     <use style="fill:#597dbf;stroke:#545454;stroke-width:2.5;" x="0" xlink:href="#m4290a374ad" y="503.420156"/>
    </g>
   </g>
   <g id="PolyCollection_10">
    <defs>
     <path d="M 323.864426 -211.501065 
L 322.204356 -211.501065 
L 322.181732 -212.023643 
L 322.159039 -212.546221 
L 322.136275 -213.068799 
L 322.113438 -213.591377 
L 322.090524 -214.113955 
L 322.067531 -214.636533 
L 322.044452 -215.15911 
L 322.021283 -215.681688 
L 321.998021 -216.204266 
L 321.974661 -216.726844 
L 321.951201 -217.249422 
L 321.927639 -217.772 
L 321.903975 -218.294578 
L 321.88021 -218.817156 
L 321.85635 -219.339733 
L 321.832401 -219.862311 
L 321.808372 -220.384889 
L 321.784276 -220.907467 
L 321.760129 -221.430045 
L 321.73595 -221.952623 
L 321.711763 -222.475201 
L 321.687594 -222.997778 
L 321.663474 -223.520356 
L 321.639437 -224.042934 
L 321.615522 -224.565512 
L 321.59177 -225.08809 
L 321.568227 -225.610668 
L 321.544942 -226.133246 
L 321.521966 -226.655824 
L 321.499353 -227.178401 
L 321.47716 -227.700979 
L 321.455445 -228.223557 
L 321.434269 -228.746135 
L 321.413693 -229.268713 
L 321.393778 -229.791291 
L 321.374585 -230.313869 
L 321.356174 -230.836446 
L 321.338605 -231.359024 
L 321.321936 -231.881602 
L 321.306221 -232.40418 
L 321.291513 -232.926758 
L 321.277858 -233.449336 
L 321.265303 -233.971914 
L 321.253885 -234.494492 
L 321.243641 -235.017069 
L 321.234598 -235.539647 
L 321.226782 -236.062225 
L 321.220207 -236.584803 
L 321.214887 -237.107381 
L 321.210826 -237.629959 
L 321.208022 -238.152537 
L 321.206467 -238.675115 
L 321.206147 -239.197692 
L 321.207041 -239.72027 
L 321.209123 -240.242848 
L 321.212361 -240.765426 
L 321.216719 -241.288004 
L 321.222154 -241.810582 
L 321.22862 -242.33316 
L 321.236069 -242.855737 
L 321.244448 -243.378315 
L 321.253703 -243.900893 
L 321.263776 -244.423471 
L 321.274611 -244.946049 
L 321.286151 -245.468627 
L 321.298338 -245.991205 
L 321.311117 -246.513783 
L 321.324434 -247.03636 
L 321.338237 -247.558938 
L 321.352478 -248.081516 
L 321.367111 -248.604094 
L 321.382095 -249.126672 
L 321.397395 -249.64925 
L 321.412977 -250.171828 
L 321.428816 -250.694405 
L 321.444889 -251.216983 
L 321.46118 -251.739561 
L 321.477678 -252.262139 
L 321.494376 -252.784717 
L 321.511272 -253.307295 
L 321.528371 -253.829873 
L 321.545681 -254.352451 
L 321.563213 -254.875028 
L 321.580982 -255.397606 
L 321.599008 -255.920184 
L 321.61731 -256.442762 
L 321.635914 -256.96534 
L 321.654841 -257.487918 
L 321.674118 -258.010496 
L 321.69377 -258.533074 
L 321.713822 -259.055651 
L 321.734295 -259.578229 
L 321.755213 -260.100807 
L 321.776594 -260.623385 
L 321.798455 -261.145963 
L 321.820808 -261.668541 
L 321.843664 -262.191119 
L 321.867026 -262.713696 
L 321.890896 -263.236274 
L 324.177886 -263.236274 
L 324.177886 -263.236274 
L 324.201756 -262.713696 
L 324.225118 -262.191119 
L 324.247974 -261.668541 
L 324.270327 -261.145963 
L 324.292188 -260.623385 
L 324.313569 -260.100807 
L 324.334487 -259.578229 
L 324.35496 -259.055651 
L 324.375012 -258.533074 
L 324.394664 -258.010496 
L 324.413941 -257.487918 
L 324.432868 -256.96534 
L 324.451472 -256.442762 
L 324.469774 -255.920184 
L 324.4878 -255.397606 
L 324.505569 -254.875028 
L 324.523101 -254.352451 
L 324.540411 -253.829873 
L 324.55751 -253.307295 
L 324.574406 -252.784717 
L 324.591104 -252.262139 
L 324.607602 -251.739561 
L 324.623893 -251.216983 
L 324.639966 -250.694405 
L 324.655805 -250.171828 
L 324.671387 -249.64925 
L 324.686687 -249.126672 
L 324.701671 -248.604094 
L 324.716304 -248.081516 
L 324.730545 -247.558938 
L 324.744348 -247.03636 
L 324.757665 -246.513783 
L 324.770444 -245.991205 
L 324.782631 -245.468627 
L 324.794171 -244.946049 
L 324.805006 -244.423471 
L 324.815079 -243.900893 
L 324.824334 -243.378315 
L 324.832713 -242.855737 
L 324.840162 -242.33316 
L 324.846628 -241.810582 
L 324.852063 -241.288004 
L 324.856421 -240.765426 
L 324.859659 -240.242848 
L 324.861741 -239.72027 
L 324.862635 -239.197692 
L 324.862315 -238.675115 
L 324.86076 -238.152537 
L 324.857956 -237.629959 
L 324.853895 -237.107381 
L 324.848575 -236.584803 
L 324.842 -236.062225 
L 324.834184 -235.539647 
L 324.825141 -235.017069 
L 324.814897 -234.494492 
L 324.803479 -233.971914 
L 324.790924 -233.449336 
L 324.777269 -232.926758 
L 324.762561 -232.40418 
L 324.746846 -231.881602 
L 324.730177 -231.359024 
L 324.712608 -230.836446 
L 324.694197 -230.313869 
L 324.675004 -229.791291 
L 324.655089 -229.268713 
L 324.634513 -228.746135 
L 324.613337 -228.223557 
L 324.591622 -227.700979 
L 324.569429 -227.178401 
L 324.546816 -226.655824 
L 324.52384 -226.133246 
L 324.500555 -225.610668 
L 324.477012 -225.08809 
L 324.45326 -224.565512 
L 324.429345 -224.042934 
L 324.405308 -223.520356 
L 324.381188 -222.997778 
L 324.357019 -222.475201 
L 324.332832 -221.952623 
L 324.308653 -221.430045 
L 324.284506 -220.907467 
L 324.26041 -220.384889 
L 324.236381 -219.862311 
L 324.212432 -219.339733 
L 324.188572 -218.817156 
L 324.164807 -218.294578 
L 324.141143 -217.772 
L 324.117581 -217.249422 
L 324.094121 -216.726844 
L 324.070761 -216.204266 
L 324.047499 -215.681688 
L 324.02433 -215.15911 
L 324.001251 -214.636533 
L 323.978258 -214.113955 
L 323.955344 -213.591377 
L 323.932507 -213.068799 
L 323.909743 -212.546221 
L 323.88705 -212.023643 
L 323.864426 -211.501065 
z
" id="m78b092cd1c" style="stroke:#545454;stroke-width:2.5;"/>
    </defs>
    <g clip-path="url(#pa3ad3877ee)">
     <use style="fill:#d98b5f;stroke:#545454;stroke-width:2.5;" x="0" xlink:href="#m78b092cd1c" y="503.420156"/>
    </g>
   </g>
   <g id="patch_3">
    <path clip-path="url(#pa3ad3877ee)" d="M 83.440015 291.919091 
L 83.440015 291.919091 
L 83.440015 291.919091 
L 83.440015 291.919091 
z
" style="fill:#597dbf;stroke:#545454;stroke-linejoin:miter;stroke-width:1.25;"/>
   </g>
   <g id="patch_4">
    <path clip-path="url(#pa3ad3877ee)" d="M 83.440015 291.919091 
L 83.440015 291.919091 
L 83.440015 291.919091 
L 83.440015 291.919091 
z
" style="fill:#d98b5f;stroke:#545454;stroke-linejoin:miter;stroke-width:1.25;"/>
   </g>
   <g id="line2d_1">
    <path clip-path="url(#pa3ad3877ee)" d="M 72.030759 291.919091 
L 72.030759 108.365377 
" style="fill:none;stroke:#545454;stroke-linecap:round;stroke-width:2.5;"/>
   </g>
   <g id="line2d_2">
    <path clip-path="url(#pa3ad3877ee)" d="M 72.030759 291.919091 
L 72.030759 218.493092 
" style="fill:none;stroke:#545454;stroke-linecap:round;stroke-width:7.5;"/>
   </g>
   <g id="line2d_3">
    <path clip-path="url(#pa3ad3877ee)" d="M 94.849271 291.919091 
L 94.849271 101.019398 
" style="fill:none;stroke:#545454;stroke-linecap:round;stroke-width:2.5;"/>
   </g>
   <g id="line2d_4">
    <path clip-path="url(#pa3ad3877ee)" d="M 94.849271 218.54869 
L 94.849271 146.469747 
" style="fill:none;stroke:#545454;stroke-linecap:round;stroke-width:7.5;"/>
   </g>
   <g id="line2d_5">
    <path clip-path="url(#pa3ad3877ee)" d="M 129.077039 291.919091 
L 129.077039 182.693691 
" style="fill:none;stroke:#545454;stroke-linecap:round;stroke-width:2.5;"/>
   </g>
   <g id="line2d_6">
    <path clip-path="url(#pa3ad3877ee)" d="M 129.077039 291.919091 
L 129.077039 248.224419 
" style="fill:none;stroke:#545454;stroke-linecap:round;stroke-width:7.5;"/>
   </g>
   <g id="line2d_7">
    <path clip-path="url(#pa3ad3877ee)" d="M 151.895551 291.919091 
L 151.895551 172.252045 
" style="fill:none;stroke:#545454;stroke-linecap:round;stroke-width:2.5;"/>
   </g>
   <g id="line2d_8">
    <path clip-path="url(#pa3ad3877ee)" d="M 151.895551 247.447897 
L 151.895551 201.114116 
" style="fill:none;stroke:#545454;stroke-linecap:round;stroke-width:7.5;"/>
   </g>
   <g id="line2d_9">
    <path clip-path="url(#pa3ad3877ee)" d="M 186.123319 291.919091 
L 186.123319 120.298517 
" style="fill:none;stroke:#545454;stroke-linecap:round;stroke-width:2.5;"/>
   </g>
   <g id="line2d_10">
    <path clip-path="url(#pa3ad3877ee)" d="M 186.123319 291.919091 
L 186.123319 223.252815 
" style="fill:none;stroke:#545454;stroke-linecap:round;stroke-width:7.5;"/>
   </g>
   <g id="line2d_11">
    <path clip-path="url(#pa3ad3877ee)" d="M 208.941831 291.919091 
L 208.941831 101.537193 
" style="fill:none;stroke:#545454;stroke-linecap:round;stroke-width:2.5;"/>
   </g>
   <g id="line2d_12">
    <path clip-path="url(#pa3ad3877ee)" d="M 208.941831 224.005923 
L 208.941831 155.304546 
" style="fill:none;stroke:#545454;stroke-linecap:round;stroke-width:7.5;"/>
   </g>
   <g id="line2d_13">
    <path clip-path="url(#pa3ad3877ee)" d="M 243.169599 291.919091 
L 243.169599 185.242733 
" style="fill:none;stroke:#545454;stroke-linecap:round;stroke-width:2.5;"/>
   </g>
   <g id="line2d_14">
    <path clip-path="url(#pa3ad3877ee)" d="M 243.169599 291.919091 
L 243.169599 249.239526 
" style="fill:none;stroke:#545454;stroke-linecap:round;stroke-width:7.5;"/>
   </g>
   <g id="line2d_15">
    <path clip-path="url(#pa3ad3877ee)" d="M 265.988111 291.919091 
L 265.988111 172.302886 
" style="fill:none;stroke:#545454;stroke-linecap:round;stroke-width:2.5;"/>
   </g>
   <g id="line2d_16">
    <path clip-path="url(#pa3ad3877ee)" d="M 265.988111 249.404595 
L 265.988111 205.2248 
" style="fill:none;stroke:#545454;stroke-linecap:round;stroke-width:7.5;"/>
   </g>
   <g id="line2d_17">
    <path clip-path="url(#pa3ad3877ee)" d="M 300.215879 291.919091 
L 300.215879 244.773061 
" style="fill:none;stroke:#545454;stroke-linecap:round;stroke-width:2.5;"/>
   </g>
   <g id="line2d_18">
    <path clip-path="url(#pa3ad3877ee)" d="M 300.215879 291.919091 
L 300.215879 273.060678 
" style="fill:none;stroke:#545454;stroke-linecap:round;stroke-width:7.5;"/>
   </g>
   <g id="line2d_19">
    <path clip-path="url(#pa3ad3877ee)" d="M 323.034391 291.919091 
L 323.034391 240.183882 
" style="fill:none;stroke:#545454;stroke-linecap:round;stroke-width:2.5;"/>
   </g>
   <g id="line2d_20">
    <path clip-path="url(#pa3ad3877ee)" d="M 323.034391 272.387452 
L 323.034391 252.011314 
" style="fill:none;stroke:#545454;stroke-linecap:round;stroke-width:7.5;"/>
   </g>
   <g id="patch_5">
    <path d="M 54.916875 304.3 
L 340.148275 304.3 
" style="fill:none;stroke:#262626;stroke-linecap:square;stroke-linejoin:miter;stroke-width:1.875;"/>
   </g>
   <g id="PathCollection_1">
    <defs>
     <path d="M 0 2.5 
C 0.663008 2.5 1.29895 2.236584 1.767767 1.767767 
C 2.236584 1.29895 2.5 0.663008 2.5 0 
C 2.5 -0.663008 2.236584 -1.29895 1.767767 -1.767767 
C 1.29895 -2.236584 0.663008 -2.5 0 -2.5 
C -0.663008 -2.5 -1.29895 -2.236584 -1.767767 -1.767767 
C -2.236584 -1.29895 -2.5 -0.663008 -2.5 0 
C -2.5 0.663008 -2.236584 1.29895 -1.767767 1.767767 
C -1.29895 2.236584 -0.663008 2.5 0 2.5 
z
" id="m42d85e310b" style="stroke:#545454;stroke-width:1.5;"/>
    </defs>
    <g clip-path="url(#pa3ad3877ee)">
     <use style="fill:#ffffff;stroke:#545454;stroke-width:1.5;" x="72.030759" xlink:href="#m42d85e310b" y="291.919091"/>
    </g>
   </g>
   <g id="PathCollection_2">
    <g clip-path="url(#pa3ad3877ee)">
     <use style="fill:#ffffff;stroke:#545454;stroke-width:1.5;" x="94.849271" xlink:href="#m42d85e310b" y="196.693358"/>
    </g>
   </g>
   <g id="PathCollection_3">
    <g clip-path="url(#pa3ad3877ee)">
     <use style="fill:#ffffff;stroke:#545454;stroke-width:1.5;" x="129.077039" xlink:href="#m42d85e310b" y="291.919091"/>
    </g>
   </g>
   <g id="PathCollection_4">
    <g clip-path="url(#pa3ad3877ee)">
     <use style="fill:#ffffff;stroke:#545454;stroke-width:1.5;" x="151.895551" xlink:href="#m42d85e310b" y="232.70597"/>
    </g>
   </g>
   <g id="PathCollection_5">
    <g clip-path="url(#pa3ad3877ee)">
     <use style="fill:#ffffff;stroke:#545454;stroke-width:1.5;" x="186.123319" xlink:href="#m42d85e310b" y="291.919091"/>
    </g>
   </g>
   <g id="PathCollection_6">
    <g clip-path="url(#pa3ad3877ee)">
     <use style="fill:#ffffff;stroke:#545454;stroke-width:1.5;" x="208.941831" xlink:href="#m42d85e310b" y="200.701484"/>
    </g>
   </g>
   <g id="PathCollection_7">
    <g clip-path="url(#pa3ad3877ee)">
     <use style="fill:#ffffff;stroke:#545454;stroke-width:1.5;" x="243.169599" xlink:href="#m42d85e310b" y="291.919091"/>
    </g>
   </g>
   <g id="PathCollection_8">
    <g clip-path="url(#pa3ad3877ee)">
     <use style="fill:#ffffff;stroke:#545454;stroke-width:1.5;" x="265.988111" xlink:href="#m42d85e310b" y="234.103152"/>
    </g>
   </g>
   <g id="PathCollection_9">
    <g clip-path="url(#pa3ad3877ee)">
     <use style="fill:#ffffff;stroke:#545454;stroke-width:1.5;" x="300.215879" xlink:href="#m42d85e310b" y="291.919091"/>
    </g>
   </g>
   <g id="PathCollection_10">
    <g clip-path="url(#pa3ad3877ee)">
     <use style="fill:#ffffff;stroke:#545454;stroke-width:1.5;" x="323.034391" xlink:href="#m42d85e310b" y="265.143991"/>
    </g>
   </g>
  </g>
  <g id="text_13">
   <!-- BAR -->
   <g style="fill:#262626;" transform="translate(200.381875 16.412625)scale(0.216 -0.216)">
    <defs>
     <path d="M 19.671875 34.8125 
L 19.671875 8.109375 
L 35.5 8.109375 
Q 43.453125 8.109375 47.28125 11.40625 
Q 51.125 14.703125 51.125 21.484375 
Q 51.125 28.328125 47.28125 31.5625 
Q 43.453125 34.8125 35.5 34.8125 
z
M 19.671875 64.796875 
L 19.671875 42.828125 
L 34.28125 42.828125 
Q 41.5 42.828125 45.03125 45.53125 
Q 48.578125 48.25 48.578125 53.8125 
Q 48.578125 59.328125 45.03125 62.0625 
Q 41.5 64.796875 34.28125 64.796875 
z
M 9.8125 72.90625 
L 35.015625 72.90625 
Q 46.296875 72.90625 52.390625 68.21875 
Q 58.5 63.53125 58.5 54.890625 
Q 58.5 48.1875 55.375 44.234375 
Q 52.25 40.28125 46.1875 39.3125 
Q 53.46875 37.75 57.5 32.78125 
Q 61.53125 27.828125 61.53125 20.40625 
Q 61.53125 10.640625 54.890625 5.3125 
Q 48.25 0 35.984375 0 
L 9.8125 0 
z
" id="DejaVuSans-66"/>
     <path d="M 34.1875 63.1875 
L 20.796875 26.90625 
L 47.609375 26.90625 
z
M 28.609375 72.90625 
L 39.796875 72.90625 
L 67.578125 0 
L 57.328125 0 
L 50.6875 18.703125 
L 17.828125 18.703125 
L 11.1875 0 
L 0.78125 0 
z
" id="DejaVuSans-65"/>
    </defs>
    <use xlink:href="#DejaVuSans-66"/>
    <use x="68.603516" xlink:href="#DejaVuSans-65"/>
    <use x="137.011719" xlink:href="#DejaVuSans-82"/>
   </g>
  </g>
  <g id="legend_1">
   <g id="patch_6">
    <path d="M 335.050984 244.153594 
L 368.050984 244.153594 
L 368.050984 232.603594 
L 335.050984 232.603594 
z
" style="fill:#597dbf;stroke:#545454;stroke-linejoin:miter;stroke-width:1.25;"/>
   </g>
   <g id="text_14">
    <!-- actual -->
    <g style="fill:#262626;" transform="translate(381.250984 244.153594)scale(0.165 -0.165)">
     <defs>
      <path d="M 48.78125 52.59375 
L 48.78125 44.1875 
Q 44.96875 46.296875 41.140625 47.34375 
Q 37.3125 48.390625 33.40625 48.390625 
Q 24.65625 48.390625 19.8125 42.84375 
Q 14.984375 37.3125 14.984375 27.296875 
Q 14.984375 17.28125 19.8125 11.734375 
Q 24.65625 6.203125 33.40625 6.203125 
Q 37.3125 6.203125 41.140625 7.25 
Q 44.96875 8.296875 48.78125 10.40625 
L 48.78125 2.09375 
Q 45.015625 0.34375 40.984375 -0.53125 
Q 36.96875 -1.421875 32.421875 -1.421875 
Q 20.0625 -1.421875 12.78125 6.34375 
Q 5.515625 14.109375 5.515625 27.296875 
Q 5.515625 40.671875 12.859375 48.328125 
Q 20.21875 56 33.015625 56 
Q 37.15625 56 41.109375 55.140625 
Q 45.0625 54.296875 48.78125 52.59375 
z
" id="DejaVuSans-99"/>
      <path d="M 8.5 21.578125 
L 8.5 54.6875 
L 17.484375 54.6875 
L 17.484375 21.921875 
Q 17.484375 14.15625 20.5 10.265625 
Q 23.53125 6.390625 29.59375 6.390625 
Q 36.859375 6.390625 41.078125 11.03125 
Q 45.3125 15.671875 45.3125 23.6875 
L 45.3125 54.6875 
L 54.296875 54.6875 
L 54.296875 0 
L 45.3125 0 
L 45.3125 8.40625 
Q 42.046875 3.421875 37.71875 1 
Q 33.40625 -1.421875 27.6875 -1.421875 
Q 18.265625 -1.421875 13.375 4.4375 
Q 8.5 10.296875 8.5 21.578125 
z
M 31.109375 56 
z
" id="DejaVuSans-117"/>
     </defs>
     <use xlink:href="#DejaVuSans-97"/>
     <use x="61.279297" xlink:href="#DejaVuSans-99"/>
     <use x="116.259766" xlink:href="#DejaVuSans-116"/>
     <use x="155.46875" xlink:href="#DejaVuSans-117"/>
     <use x="218.847656" xlink:href="#DejaVuSans-97"/>
     <use x="280.126953" xlink:href="#DejaVuSans-108"/>
    </g>
   </g>
   <g id="patch_7">
    <path d="M 335.050984 268.3725 
L 368.050984 268.3725 
L 368.050984 256.8225 
L 335.050984 256.8225 
z
" style="fill:#d98b5f;stroke:#545454;stroke-linejoin:miter;stroke-width:1.25;"/>
   </g>
   <g id="text_15">
    <!-- cluster -->
    <g style="fill:#262626;" transform="translate(381.250984 268.3725)scale(0.165 -0.165)">
     <defs>
      <path d="M 44.28125 53.078125 
L 44.28125 44.578125 
Q 40.484375 46.53125 36.375 47.5 
Q 32.28125 48.484375 27.875 48.484375 
Q 21.1875 48.484375 17.84375 46.4375 
Q 14.5 44.390625 14.5 40.28125 
Q 14.5 37.15625 16.890625 35.375 
Q 19.28125 33.59375 26.515625 31.984375 
L 29.59375 31.296875 
Q 39.15625 29.25 43.1875 25.515625 
Q 47.21875 21.78125 47.21875 15.09375 
Q 47.21875 7.46875 41.1875 3.015625 
Q 35.15625 -1.421875 24.609375 -1.421875 
Q 20.21875 -1.421875 15.453125 -0.5625 
Q 10.6875 0.296875 5.421875 2 
L 5.421875 11.28125 
Q 10.40625 8.6875 15.234375 7.390625 
Q 20.0625 6.109375 24.8125 6.109375 
Q 31.15625 6.109375 34.5625 8.28125 
Q 37.984375 10.453125 37.984375 14.40625 
Q 37.984375 18.0625 35.515625 20.015625 
Q 33.0625 21.96875 24.703125 23.78125 
L 21.578125 24.515625 
Q 13.234375 26.265625 9.515625 29.90625 
Q 5.8125 33.546875 5.8125 39.890625 
Q 5.8125 47.609375 11.28125 51.796875 
Q 16.75 56 26.8125 56 
Q 31.78125 56 36.171875 55.265625 
Q 40.578125 54.546875 44.28125 53.078125 
z
" id="DejaVuSans-115"/>
     </defs>
     <use xlink:href="#DejaVuSans-99"/>
     <use x="54.980469" xlink:href="#DejaVuSans-108"/>
     <use x="82.763672" xlink:href="#DejaVuSans-117"/>
     <use x="146.142578" xlink:href="#DejaVuSans-115"/>
     <use x="198.242188" xlink:href="#DejaVuSans-116"/>
     <use x="237.451172" xlink:href="#DejaVuSans-101"/>
     <use x="298.974609" xlink:href="#DejaVuSans-114"/>
    </g>
   </g>
  </g>
 </g>
 <defs>
  <clipPath id="pa3ad3877ee">
   <rect height="272.38" width="285.2314" x="54.916875" y="31.92"/>
  </clipPath>
 </defs>
</svg>
