<?xml version="1.0" encoding="utf-8" standalone="no"?>
<!DOCTYPE svg PUBLIC "-//W3C//DTD SVG 1.1//EN"
  "http://www.w3.org/Graphics/SVG/1.1/DTD/svg11.dtd">
<!-- Created with matplotlib (https://matplotlib.org/) -->
<svg height="503.420156pt" version="1.1" viewBox="0 0 452.213875 503.420156" width="452.213875pt" xmlns="http://www.w3.org/2000/svg" xmlns:xlink="http://www.w3.org/1999/xlink">
 <metadata>
  <rdf:RDF xmlns:cc="http://creativecommons.org/ns#" xmlns:dc="http://purl.org/dc/elements/1.1/" xmlns:rdf="http://www.w3.org/1999/02/22-rdf-syntax-ns#">
   <cc:Work>
    <dc:type rdf:resource="http://purl.org/dc/dcmitype/StillImage"/>
    <dc:date>2021-01-22T11:01:20.236644</dc:date>
    <dc:format>image/svg+xml</dc:format>
    <dc:creator>
     <cc:Agent>
      <dc:title>Matplotlib v3.3.2, https://matplotlib.org/</dc:title>
     </cc:Agent>
    </dc:creator>
   </cc:Work>
  </rdf:RDF>
 </metadata>
 <defs>
  <style type="text/css">*{stroke-linecap:butt;stroke-linejoin:round;}</style>
 </defs>
 <g id="figure_1">
  <g id="patch_1">
   <path d="M 0 503.420156 
L 452.213875 503.420156 
L 452.213875 0 
L 0 0 
z
" style="fill:#ffffff;"/>
  </g>
  <g id="axes_1">
   <g id="patch_2">
    <path d="M 54.916875 304.3 
L 340.148275 304.3 
L 340.148275 31.92 
L 54.916875 31.92 
z
" style="fill:#ffffff;"/>
   </g>
   <g id="matplotlib.axis_1">
    <g id="xtick_1">
     <g id="text_1">
      <!-- Irrigation High -->
      <g style="fill:#262626;" transform="translate(87.992984 434.888437)rotate(-90)scale(0.165 -0.165)">
       <defs>
        <path d="M 9.8125 72.90625 
L 19.671875 72.90625 
L 19.671875 0 
L 9.8125 0 
z
" id="DejaVuSans-73"/>
        <path d="M 41.109375 46.296875 
Q 39.59375 47.171875 37.8125 47.578125 
Q 36.03125 48 33.890625 48 
Q 26.265625 48 22.1875 43.046875 
Q 18.109375 38.09375 18.109375 28.8125 
L 18.109375 0 
L 9.078125 0 
L 9.078125 54.6875 
L 18.109375 54.6875 
L 18.109375 46.1875 
Q 20.953125 51.171875 25.484375 53.578125 
Q 30.03125 56 36.53125 56 
Q 37.453125 56 38.578125 55.875 
Q 39.703125 55.765625 41.0625 55.515625 
z
" id="DejaVuSans-114"/>
        <path d="M 9.421875 54.6875 
L 18.40625 54.6875 
L 18.40625 0 
L 9.421875 0 
z
M 9.421875 75.984375 
L 18.40625 75.984375 
L 18.40625 64.59375 
L 9.421875 64.59375 
z
" id="DejaVuSans-105"/>
        <path d="M 45.40625 27.984375 
Q 45.40625 37.75 41.375 43.109375 
Q 37.359375 48.484375 30.078125 48.484375 
Q 22.859375 48.484375 18.828125 43.109375 
Q 14.796875 37.75 14.796875 27.984375 
Q 14.796875 18.265625 18.828125 12.890625 
Q 22.859375 7.515625 30.078125 7.515625 
Q 37.359375 7.515625 41.375 12.890625 
Q 45.40625 18.265625 45.40625 27.984375 
z
M 54.390625 6.78125 
Q 54.390625 -7.171875 48.1875 -13.984375 
Q 42 -20.796875 29.203125 -20.796875 
Q 24.46875 -20.796875 20.265625 -20.09375 
Q 16.0625 -19.390625 12.109375 -17.921875 
L 12.109375 -9.1875 
Q 16.0625 -11.328125 19.921875 -12.34375 
Q 23.78125 -13.375 27.78125 -13.375 
Q 36.625 -13.375 41.015625 -8.765625 
Q 45.40625 -4.15625 45.40625 5.171875 
L 45.40625 9.625 
Q 42.625 4.78125 38.28125 2.390625 
Q 33.9375 0 27.875 0 
Q 17.828125 0 11.671875 7.65625 
Q 5.515625 15.328125 5.515625 27.984375 
Q 5.515625 40.671875 11.671875 48.328125 
Q 17.828125 56 27.875 56 
Q 33.9375 56 38.28125 53.609375 
Q 42.625 51.21875 45.40625 46.390625 
L 45.40625 54.6875 
L 54.390625 54.6875 
z
" id="DejaVuSans-103"/>
        <path d="M 34.28125 27.484375 
Q 23.390625 27.484375 19.1875 25 
Q 14.984375 22.515625 14.984375 16.5 
Q 14.984375 11.71875 18.140625 8.90625 
Q 21.296875 6.109375 26.703125 6.109375 
Q 34.1875 6.109375 38.703125 11.40625 
Q 43.21875 16.703125 43.21875 25.484375 
L 43.21875 27.484375 
z
M 52.203125 31.203125 
L 52.203125 0 
L 43.21875 0 
L 43.21875 8.296875 
Q 40.140625 3.328125 35.546875 0.953125 
Q 30.953125 -1.421875 24.3125 -1.421875 
Q 15.921875 -1.421875 10.953125 3.296875 
Q 6 8.015625 6 15.921875 
Q 6 25.140625 12.171875 29.828125 
Q 18.359375 34.515625 30.609375 34.515625 
L 43.21875 34.515625 
L 43.21875 35.40625 
Q 43.21875 41.609375 39.140625 45 
Q 35.0625 48.390625 27.6875 48.390625 
Q 23 48.390625 18.546875 47.265625 
Q 14.109375 46.140625 10.015625 43.890625 
L 10.015625 52.203125 
Q 14.9375 54.109375 19.578125 55.046875 
Q 24.21875 56 28.609375 56 
Q 40.484375 56 46.34375 49.84375 
Q 52.203125 43.703125 52.203125 31.203125 
z
" id="DejaVuSans-97"/>
        <path d="M 18.3125 70.21875 
L 18.3125 54.6875 
L 36.8125 54.6875 
L 36.8125 47.703125 
L 18.3125 47.703125 
L 18.3125 18.015625 
Q 18.3125 11.328125 20.140625 9.421875 
Q 21.96875 7.515625 27.59375 7.515625 
L 36.8125 7.515625 
L 36.8125 0 
L 27.59375 0 
Q 17.1875 0 13.234375 3.875 
Q 9.28125 7.765625 9.28125 18.015625 
L 9.28125 47.703125 
L 2.6875 47.703125 
L 2.6875 54.6875 
L 9.28125 54.6875 
L 9.28125 70.21875 
z
" id="DejaVuSans-116"/>
        <path d="M 30.609375 48.390625 
Q 23.390625 48.390625 19.1875 42.75 
Q 14.984375 37.109375 14.984375 27.296875 
Q 14.984375 17.484375 19.15625 11.84375 
Q 23.34375 6.203125 30.609375 6.203125 
Q 37.796875 6.203125 41.984375 11.859375 
Q 46.1875 17.53125 46.1875 27.296875 
Q 46.1875 37.015625 41.984375 42.703125 
Q 37.796875 48.390625 30.609375 48.390625 
z
M 30.609375 56 
Q 42.328125 56 49.015625 48.375 
Q 55.71875 40.765625 55.71875 27.296875 
Q 55.71875 13.875 49.015625 6.21875 
Q 42.328125 -1.421875 30.609375 -1.421875 
Q 18.84375 -1.421875 12.171875 6.21875 
Q 5.515625 13.875 5.515625 27.296875 
Q 5.515625 40.765625 12.171875 48.375 
Q 18.84375 56 30.609375 56 
z
" id="DejaVuSans-111"/>
        <path d="M 54.890625 33.015625 
L 54.890625 0 
L 45.90625 0 
L 45.90625 32.71875 
Q 45.90625 40.484375 42.875 44.328125 
Q 39.84375 48.1875 33.796875 48.1875 
Q 26.515625 48.1875 22.3125 43.546875 
Q 18.109375 38.921875 18.109375 30.90625 
L 18.109375 0 
L 9.078125 0 
L 9.078125 54.6875 
L 18.109375 54.6875 
L 18.109375 46.1875 
Q 21.34375 51.125 25.703125 53.5625 
Q 30.078125 56 35.796875 56 
Q 45.21875 56 50.046875 50.171875 
Q 54.890625 44.34375 54.890625 33.015625 
z
" id="DejaVuSans-110"/>
        <path id="DejaVuSans-32"/>
        <path d="M 9.8125 72.90625 
L 19.671875 72.90625 
L 19.671875 43.015625 
L 55.515625 43.015625 
L 55.515625 72.90625 
L 65.375 72.90625 
L 65.375 0 
L 55.515625 0 
L 55.515625 34.71875 
L 19.671875 34.71875 
L 19.671875 0 
L 9.8125 0 
z
" id="DejaVuSans-72"/>
        <path d="M 54.890625 33.015625 
L 54.890625 0 
L 45.90625 0 
L 45.90625 32.71875 
Q 45.90625 40.484375 42.875 44.328125 
Q 39.84375 48.1875 33.796875 48.1875 
Q 26.515625 48.1875 22.3125 43.546875 
Q 18.109375 38.921875 18.109375 30.90625 
L 18.109375 0 
L 9.078125 0 
L 9.078125 75.984375 
L 18.109375 75.984375 
L 18.109375 46.1875 
Q 21.34375 51.125 25.703125 53.5625 
Q 30.078125 56 35.796875 56 
Q 45.21875 56 50.046875 50.171875 
Q 54.890625 44.34375 54.890625 33.015625 
z
" id="DejaVuSans-104"/>
       </defs>
       <use xlink:href="#DejaVuSans-73"/>
       <use x="29.492188" xlink:href="#DejaVuSans-114"/>
       <use x="68.855469" xlink:href="#DejaVuSans-114"/>
       <use x="109.96875" xlink:href="#DejaVuSans-105"/>
       <use x="137.751953" xlink:href="#DejaVuSans-103"/>
       <use x="201.228516" xlink:href="#DejaVuSans-97"/>
       <use x="262.507812" xlink:href="#DejaVuSans-116"/>
       <use x="301.716797" xlink:href="#DejaVuSans-105"/>
       <use x="329.5" xlink:href="#DejaVuSans-111"/>
       <use x="390.681641" xlink:href="#DejaVuSans-110"/>
       <use x="454.060547" xlink:href="#DejaVuSans-32"/>
       <use x="485.847656" xlink:href="#DejaVuSans-72"/>
       <use x="561.042969" xlink:href="#DejaVuSans-105"/>
       <use x="588.826172" xlink:href="#DejaVuSans-103"/>
       <use x="652.302734" xlink:href="#DejaVuSans-104"/>
      </g>
     </g>
    </g>
    <g id="xtick_2">
     <g id="text_2">
      <!-- Irrigation Intermediate -->
      <g style="fill:#262626;" transform="translate(145.039264 503.420156)rotate(-90)scale(0.165 -0.165)">
       <defs>
        <path d="M 56.203125 29.59375 
L 56.203125 25.203125 
L 14.890625 25.203125 
Q 15.484375 15.921875 20.484375 11.0625 
Q 25.484375 6.203125 34.421875 6.203125 
Q 39.59375 6.203125 44.453125 7.46875 
Q 49.3125 8.734375 54.109375 11.28125 
L 54.109375 2.78125 
Q 49.265625 0.734375 44.1875 -0.34375 
Q 39.109375 -1.421875 33.890625 -1.421875 
Q 20.796875 -1.421875 13.15625 6.1875 
Q 5.515625 13.8125 5.515625 26.8125 
Q 5.515625 40.234375 12.765625 48.109375 
Q 20.015625 56 32.328125 56 
Q 43.359375 56 49.78125 48.890625 
Q 56.203125 41.796875 56.203125 29.59375 
z
M 47.21875 32.234375 
Q 47.125 39.59375 43.09375 43.984375 
Q 39.0625 48.390625 32.421875 48.390625 
Q 24.90625 48.390625 20.390625 44.140625 
Q 15.875 39.890625 15.1875 32.171875 
z
" id="DejaVuSans-101"/>
        <path d="M 52 44.1875 
Q 55.375 50.25 60.0625 53.125 
Q 64.75 56 71.09375 56 
Q 79.640625 56 84.28125 50.015625 
Q 88.921875 44.046875 88.921875 33.015625 
L 88.921875 0 
L 79.890625 0 
L 79.890625 32.71875 
Q 79.890625 40.578125 77.09375 44.375 
Q 74.3125 48.1875 68.609375 48.1875 
Q 61.625 48.1875 57.5625 43.546875 
Q 53.515625 38.921875 53.515625 30.90625 
L 53.515625 0 
L 44.484375 0 
L 44.484375 32.71875 
Q 44.484375 40.625 41.703125 44.40625 
Q 38.921875 48.1875 33.109375 48.1875 
Q 26.21875 48.1875 22.15625 43.53125 
Q 18.109375 38.875 18.109375 30.90625 
L 18.109375 0 
L 9.078125 0 
L 9.078125 54.6875 
L 18.109375 54.6875 
L 18.109375 46.1875 
Q 21.1875 51.21875 25.484375 53.609375 
Q 29.78125 56 35.6875 56 
Q 41.65625 56 45.828125 52.96875 
Q 50 49.953125 52 44.1875 
z
" id="DejaVuSans-109"/>
        <path d="M 45.40625 46.390625 
L 45.40625 75.984375 
L 54.390625 75.984375 
L 54.390625 0 
L 45.40625 0 
L 45.40625 8.203125 
Q 42.578125 3.328125 38.25 0.953125 
Q 33.9375 -1.421875 27.875 -1.421875 
Q 17.96875 -1.421875 11.734375 6.484375 
Q 5.515625 14.40625 5.515625 27.296875 
Q 5.515625 40.1875 11.734375 48.09375 
Q 17.96875 56 27.875 56 
Q 33.9375 56 38.25 53.625 
Q 42.578125 51.265625 45.40625 46.390625 
z
M 14.796875 27.296875 
Q 14.796875 17.390625 18.875 11.75 
Q 22.953125 6.109375 30.078125 6.109375 
Q 37.203125 6.109375 41.296875 11.75 
Q 45.40625 17.390625 45.40625 27.296875 
Q 45.40625 37.203125 41.296875 42.84375 
Q 37.203125 48.484375 30.078125 48.484375 
Q 22.953125 48.484375 18.875 42.84375 
Q 14.796875 37.203125 14.796875 27.296875 
z
" id="DejaVuSans-100"/>
       </defs>
       <use xlink:href="#DejaVuSans-73"/>
       <use x="29.492188" xlink:href="#DejaVuSans-114"/>
       <use x="68.855469" xlink:href="#DejaVuSans-114"/>
       <use x="109.96875" xlink:href="#DejaVuSans-105"/>
       <use x="137.751953" xlink:href="#DejaVuSans-103"/>
       <use x="201.228516" xlink:href="#DejaVuSans-97"/>
       <use x="262.507812" xlink:href="#DejaVuSans-116"/>
       <use x="301.716797" xlink:href="#DejaVuSans-105"/>
       <use x="329.5" xlink:href="#DejaVuSans-111"/>
       <use x="390.681641" xlink:href="#DejaVuSans-110"/>
       <use x="454.060547" xlink:href="#DejaVuSans-32"/>
       <use x="485.847656" xlink:href="#DejaVuSans-73"/>
       <use x="515.339844" xlink:href="#DejaVuSans-110"/>
       <use x="578.71875" xlink:href="#DejaVuSans-116"/>
       <use x="617.927734" xlink:href="#DejaVuSans-101"/>
       <use x="679.451172" xlink:href="#DejaVuSans-114"/>
       <use x="718.814453" xlink:href="#DejaVuSans-109"/>
       <use x="816.226562" xlink:href="#DejaVuSans-101"/>
       <use x="877.75" xlink:href="#DejaVuSans-100"/>
       <use x="941.226562" xlink:href="#DejaVuSans-105"/>
       <use x="969.009766" xlink:href="#DejaVuSans-97"/>
       <use x="1030.289062" xlink:href="#DejaVuSans-116"/>
       <use x="1069.498047" xlink:href="#DejaVuSans-101"/>
      </g>
     </g>
    </g>
    <g id="xtick_3">
     <g id="text_3">
      <!-- Rain-fed High -->
      <g style="fill:#262626;" transform="translate(202.085544 428.602969)rotate(-90)scale(0.165 -0.165)">
       <defs>
        <path d="M 44.390625 34.1875 
Q 47.5625 33.109375 50.5625 29.59375 
Q 53.5625 26.078125 56.59375 19.921875 
L 66.609375 0 
L 56 0 
L 46.6875 18.703125 
Q 43.0625 26.03125 39.671875 28.421875 
Q 36.28125 30.8125 30.421875 30.8125 
L 19.671875 30.8125 
L 19.671875 0 
L 9.8125 0 
L 9.8125 72.90625 
L 32.078125 72.90625 
Q 44.578125 72.90625 50.734375 67.671875 
Q 56.890625 62.453125 56.890625 51.90625 
Q 56.890625 45.015625 53.6875 40.46875 
Q 50.484375 35.9375 44.390625 34.1875 
z
M 19.671875 64.796875 
L 19.671875 38.921875 
L 32.078125 38.921875 
Q 39.203125 38.921875 42.84375 42.21875 
Q 46.484375 45.515625 46.484375 51.90625 
Q 46.484375 58.296875 42.84375 61.546875 
Q 39.203125 64.796875 32.078125 64.796875 
z
" id="DejaVuSans-82"/>
        <path d="M 4.890625 31.390625 
L 31.203125 31.390625 
L 31.203125 23.390625 
L 4.890625 23.390625 
z
" id="DejaVuSans-45"/>
        <path d="M 37.109375 75.984375 
L 37.109375 68.5 
L 28.515625 68.5 
Q 23.6875 68.5 21.796875 66.546875 
Q 19.921875 64.59375 19.921875 59.515625 
L 19.921875 54.6875 
L 34.71875 54.6875 
L 34.71875 47.703125 
L 19.921875 47.703125 
L 19.921875 0 
L 10.890625 0 
L 10.890625 47.703125 
L 2.296875 47.703125 
L 2.296875 54.6875 
L 10.890625 54.6875 
L 10.890625 58.5 
Q 10.890625 67.625 15.140625 71.796875 
Q 19.390625 75.984375 28.609375 75.984375 
z
" id="DejaVuSans-102"/>
       </defs>
       <use xlink:href="#DejaVuSans-82"/>
       <use x="67.232422" xlink:href="#DejaVuSans-97"/>
       <use x="128.511719" xlink:href="#DejaVuSans-105"/>
       <use x="156.294922" xlink:href="#DejaVuSans-110"/>
       <use x="219.673828" xlink:href="#DejaVuSans-45"/>
       <use x="255.757812" xlink:href="#DejaVuSans-102"/>
       <use x="290.962891" xlink:href="#DejaVuSans-101"/>
       <use x="352.486328" xlink:href="#DejaVuSans-100"/>
       <use x="415.962891" xlink:href="#DejaVuSans-32"/>
       <use x="447.75" xlink:href="#DejaVuSans-72"/>
       <use x="522.945312" xlink:href="#DejaVuSans-105"/>
       <use x="550.728516" xlink:href="#DejaVuSans-103"/>
       <use x="614.205078" xlink:href="#DejaVuSans-104"/>
      </g>
     </g>
    </g>
    <g id="xtick_4">
     <g id="text_4">
      <!-- Rain-fed Intermediate -->
      <g style="fill:#262626;" transform="translate(259.131824 497.134687)rotate(-90)scale(0.165 -0.165)">
       <use xlink:href="#DejaVuSans-82"/>
       <use x="67.232422" xlink:href="#DejaVuSans-97"/>
       <use x="128.511719" xlink:href="#DejaVuSans-105"/>
       <use x="156.294922" xlink:href="#DejaVuSans-110"/>
       <use x="219.673828" xlink:href="#DejaVuSans-45"/>
       <use x="255.757812" xlink:href="#DejaVuSans-102"/>
       <use x="290.962891" xlink:href="#DejaVuSans-101"/>
       <use x="352.486328" xlink:href="#DejaVuSans-100"/>
       <use x="415.962891" xlink:href="#DejaVuSans-32"/>
       <use x="447.75" xlink:href="#DejaVuSans-73"/>
       <use x="477.242188" xlink:href="#DejaVuSans-110"/>
       <use x="540.621094" xlink:href="#DejaVuSans-116"/>
       <use x="579.830078" xlink:href="#DejaVuSans-101"/>
       <use x="641.353516" xlink:href="#DejaVuSans-114"/>
       <use x="680.716797" xlink:href="#DejaVuSans-109"/>
       <use x="778.128906" xlink:href="#DejaVuSans-101"/>
       <use x="839.652344" xlink:href="#DejaVuSans-100"/>
       <use x="903.128906" xlink:href="#DejaVuSans-105"/>
       <use x="930.912109" xlink:href="#DejaVuSans-97"/>
       <use x="992.191406" xlink:href="#DejaVuSans-116"/>
       <use x="1031.400391" xlink:href="#DejaVuSans-101"/>
      </g>
     </g>
    </g>
    <g id="xtick_5">
     <g id="text_5">
      <!-- Rain-fed Low -->
      <g style="fill:#262626;" transform="translate(316.178104 423.173437)rotate(-90)scale(0.165 -0.165)">
       <defs>
        <path d="M 9.8125 72.90625 
L 19.671875 72.90625 
L 19.671875 8.296875 
L 55.171875 8.296875 
L 55.171875 0 
L 9.8125 0 
z
" id="DejaVuSans-76"/>
        <path d="M 4.203125 54.6875 
L 13.1875 54.6875 
L 24.421875 12.015625 
L 35.59375 54.6875 
L 46.1875 54.6875 
L 57.421875 12.015625 
L 68.609375 54.6875 
L 77.59375 54.6875 
L 63.28125 0 
L 52.6875 0 
L 40.921875 44.828125 
L 29.109375 0 
L 18.5 0 
z
" id="DejaVuSans-119"/>
       </defs>
       <use xlink:href="#DejaVuSans-82"/>
       <use x="67.232422" xlink:href="#DejaVuSans-97"/>
       <use x="128.511719" xlink:href="#DejaVuSans-105"/>
       <use x="156.294922" xlink:href="#DejaVuSans-110"/>
       <use x="219.673828" xlink:href="#DejaVuSans-45"/>
       <use x="255.757812" xlink:href="#DejaVuSans-102"/>
       <use x="290.962891" xlink:href="#DejaVuSans-101"/>
       <use x="352.486328" xlink:href="#DejaVuSans-100"/>
       <use x="415.962891" xlink:href="#DejaVuSans-32"/>
       <use x="447.75" xlink:href="#DejaVuSans-76"/>
       <use x="501.712891" xlink:href="#DejaVuSans-111"/>
       <use x="562.894531" xlink:href="#DejaVuSans-119"/>
      </g>
     </g>
    </g>
   </g>
   <g id="matplotlib.axis_2">
    <g id="ytick_1">
     <g id="text_6">
      <!-- 0 -->
      <g style="fill:#262626;" transform="translate(31.91875 298.187802)scale(0.165 -0.165)">
       <defs>
        <path d="M 31.78125 66.40625 
Q 24.171875 66.40625 20.328125 58.90625 
Q 16.5 51.421875 16.5 36.375 
Q 16.5 21.390625 20.328125 13.890625 
Q 24.171875 6.390625 31.78125 6.390625 
Q 39.453125 6.390625 43.28125 13.890625 
Q 47.125 21.390625 47.125 36.375 
Q 47.125 51.421875 43.28125 58.90625 
Q 39.453125 66.40625 31.78125 66.40625 
z
M 31.78125 74.21875 
Q 44.046875 74.21875 50.515625 64.515625 
Q 56.984375 54.828125 56.984375 36.375 
Q 56.984375 17.96875 50.515625 8.265625 
Q 44.046875 -1.421875 31.78125 -1.421875 
Q 19.53125 -1.421875 13.0625 8.265625 
Q 6.59375 17.96875 6.59375 36.375 
Q 6.59375 54.828125 13.0625 64.515625 
Q 19.53125 74.21875 31.78125 74.21875 
z
" id="DejaVuSans-48"/>
       </defs>
       <use xlink:href="#DejaVuSans-48"/>
      </g>
     </g>
    </g>
    <g id="ytick_2">
     <g id="text_7">
      <!-- 2 -->
      <g style="fill:#262626;" transform="translate(31.91875 256.511765)scale(0.165 -0.165)">
       <defs>
        <path d="M 19.1875 8.296875 
L 53.609375 8.296875 
L 53.609375 0 
L 7.328125 0 
L 7.328125 8.296875 
Q 12.9375 14.109375 22.625 23.890625 
Q 32.328125 33.6875 34.8125 36.53125 
Q 39.546875 41.84375 41.421875 45.53125 
Q 43.3125 49.21875 43.3125 52.78125 
Q 43.3125 58.59375 39.234375 62.25 
Q 35.15625 65.921875 28.609375 65.921875 
Q 23.96875 65.921875 18.8125 64.3125 
Q 13.671875 62.703125 7.8125 59.421875 
L 7.8125 69.390625 
Q 13.765625 71.78125 18.9375 73 
Q 24.125 74.21875 28.421875 74.21875 
Q 39.75 74.21875 46.484375 68.546875 
Q 53.21875 62.890625 53.21875 53.421875 
Q 53.21875 48.921875 51.53125 44.890625 
Q 49.859375 40.875 45.40625 35.40625 
Q 44.1875 33.984375 37.640625 27.21875 
Q 31.109375 20.453125 19.1875 8.296875 
z
" id="DejaVuSans-50"/>
       </defs>
       <use xlink:href="#DejaVuSans-50"/>
      </g>
     </g>
    </g>
    <g id="ytick_3">
     <g id="text_8">
      <!-- 4 -->
      <g style="fill:#262626;" transform="translate(31.91875 214.835728)scale(0.165 -0.165)">
       <defs>
        <path d="M 37.796875 64.3125 
L 12.890625 25.390625 
L 37.796875 25.390625 
z
M 35.203125 72.90625 
L 47.609375 72.90625 
L 47.609375 25.390625 
L 58.015625 25.390625 
L 58.015625 17.1875 
L 47.609375 17.1875 
L 47.609375 0 
L 37.796875 0 
L 37.796875 17.1875 
L 4.890625 17.1875 
L 4.890625 26.703125 
z
" id="DejaVuSans-52"/>
       </defs>
       <use xlink:href="#DejaVuSans-52"/>
      </g>
     </g>
    </g>
    <g id="ytick_4">
     <g id="text_9">
      <!-- 6 -->
      <g style="fill:#262626;" transform="translate(31.91875 173.159691)scale(0.165 -0.165)">
       <defs>
        <path d="M 33.015625 40.375 
Q 26.375 40.375 22.484375 35.828125 
Q 18.609375 31.296875 18.609375 23.390625 
Q 18.609375 15.53125 22.484375 10.953125 
Q 26.375 6.390625 33.015625 6.390625 
Q 39.65625 6.390625 43.53125 10.953125 
Q 47.40625 15.53125 47.40625 23.390625 
Q 47.40625 31.296875 43.53125 35.828125 
Q 39.65625 40.375 33.015625 40.375 
z
M 52.59375 71.296875 
L 52.59375 62.3125 
Q 48.875 64.0625 45.09375 64.984375 
Q 41.3125 65.921875 37.59375 65.921875 
Q 27.828125 65.921875 22.671875 59.328125 
Q 17.53125 52.734375 16.796875 39.40625 
Q 19.671875 43.65625 24.015625 45.921875 
Q 28.375 48.1875 33.59375 48.1875 
Q 44.578125 48.1875 50.953125 41.515625 
Q 57.328125 34.859375 57.328125 23.390625 
Q 57.328125 12.15625 50.6875 5.359375 
Q 44.046875 -1.421875 33.015625 -1.421875 
Q 20.359375 -1.421875 13.671875 8.265625 
Q 6.984375 17.96875 6.984375 36.375 
Q 6.984375 53.65625 15.1875 63.9375 
Q 23.390625 74.21875 37.203125 74.21875 
Q 40.921875 74.21875 44.703125 73.484375 
Q 48.484375 72.75 52.59375 71.296875 
z
" id="DejaVuSans-54"/>
       </defs>
       <use xlink:href="#DejaVuSans-54"/>
      </g>
     </g>
    </g>
    <g id="ytick_5">
     <g id="text_10">
      <!-- 8 -->
      <g style="fill:#262626;" transform="translate(31.91875 131.483654)scale(0.165 -0.165)">
       <defs>
        <path d="M 31.78125 34.625 
Q 24.75 34.625 20.71875 30.859375 
Q 16.703125 27.09375 16.703125 20.515625 
Q 16.703125 13.921875 20.71875 10.15625 
Q 24.75 6.390625 31.78125 6.390625 
Q 38.8125 6.390625 42.859375 10.171875 
Q 46.921875 13.96875 46.921875 20.515625 
Q 46.921875 27.09375 42.890625 30.859375 
Q 38.875 34.625 31.78125 34.625 
z
M 21.921875 38.8125 
Q 15.578125 40.375 12.03125 44.71875 
Q 8.5 49.078125 8.5 55.328125 
Q 8.5 64.0625 14.71875 69.140625 
Q 20.953125 74.21875 31.78125 74.21875 
Q 42.671875 74.21875 48.875 69.140625 
Q 55.078125 64.0625 55.078125 55.328125 
Q 55.078125 49.078125 51.53125 44.71875 
Q 48 40.375 41.703125 38.8125 
Q 48.828125 37.15625 52.796875 32.3125 
Q 56.78125 27.484375 56.78125 20.515625 
Q 56.78125 9.90625 50.3125 4.234375 
Q 43.84375 -1.421875 31.78125 -1.421875 
Q 19.734375 -1.421875 13.25 4.234375 
Q 6.78125 9.90625 6.78125 20.515625 
Q 6.78125 27.484375 10.78125 32.3125 
Q 14.796875 37.15625 21.921875 38.8125 
z
M 18.3125 54.390625 
Q 18.3125 48.734375 21.84375 45.5625 
Q 25.390625 42.390625 31.78125 42.390625 
Q 38.140625 42.390625 41.71875 45.5625 
Q 45.3125 48.734375 45.3125 54.390625 
Q 45.3125 60.0625 41.71875 63.234375 
Q 38.140625 66.40625 31.78125 66.40625 
Q 25.390625 66.40625 21.84375 63.234375 
Q 18.3125 60.0625 18.3125 54.390625 
z
" id="DejaVuSans-56"/>
       </defs>
       <use xlink:href="#DejaVuSans-56"/>
      </g>
     </g>
    </g>
    <g id="ytick_6">
     <g id="text_11">
      <!-- 10 -->
      <g style="fill:#262626;" transform="translate(21.420625 89.807617)scale(0.165 -0.165)">
       <defs>
        <path d="M 12.40625 8.296875 
L 28.515625 8.296875 
L 28.515625 63.921875 
L 10.984375 60.40625 
L 10.984375 69.390625 
L 28.421875 72.90625 
L 38.28125 72.90625 
L 38.28125 8.296875 
L 54.390625 8.296875 
L 54.390625 0 
L 12.40625 0 
z
" id="DejaVuSans-49"/>
       </defs>
       <use xlink:href="#DejaVuSans-49"/>
       <use x="63.623047" xlink:href="#DejaVuSans-48"/>
      </g>
     </g>
    </g>
    <g id="ytick_7">
     <g id="text_12">
      <!-- 12 -->
      <g style="fill:#262626;" transform="translate(21.420625 48.13158)scale(0.165 -0.165)">
       <use xlink:href="#DejaVuSans-49"/>
       <use x="63.623047" xlink:href="#DejaVuSans-50"/>
      </g>
     </g>
    </g>
    <g id="text_13">
     <!-- Yield (t/ha) -->
     <g style="fill:#262626;" transform="translate(13.677188 217.195156)rotate(-90)scale(0.18 -0.18)">
      <defs>
       <path d="M -0.203125 72.90625 
L 10.40625 72.90625 
L 30.609375 42.921875 
L 50.6875 72.90625 
L 61.28125 72.90625 
L 35.5 34.71875 
L 35.5 0 
L 25.59375 0 
L 25.59375 34.71875 
z
" id="DejaVuSans-89"/>
       <path d="M 9.421875 75.984375 
L 18.40625 75.984375 
L 18.40625 0 
L 9.421875 0 
z
" id="DejaVuSans-108"/>
       <path d="M 31 75.875 
Q 24.46875 64.65625 21.28125 53.65625 
Q 18.109375 42.671875 18.109375 31.390625 
Q 18.109375 20.125 21.3125 9.0625 
Q 24.515625 -2 31 -13.1875 
L 23.1875 -13.1875 
Q 15.875 -1.703125 12.234375 9.375 
Q 8.59375 20.453125 8.59375 31.390625 
Q 8.59375 42.28125 12.203125 53.3125 
Q 15.828125 64.359375 23.1875 75.875 
z
" id="DejaVuSans-40"/>
       <path d="M 25.390625 72.90625 
L 33.6875 72.90625 
L 8.296875 -9.28125 
L 0 -9.28125 
z
" id="DejaVuSans-47"/>
       <path d="M 8.015625 75.875 
L 15.828125 75.875 
Q 23.140625 64.359375 26.78125 53.3125 
Q 30.421875 42.28125 30.421875 31.390625 
Q 30.421875 20.453125 26.78125 9.375 
Q 23.140625 -1.703125 15.828125 -13.1875 
L 8.015625 -13.1875 
Q 14.5 -2 17.703125 9.0625 
Q 20.90625 20.125 20.90625 31.390625 
Q 20.90625 42.671875 17.703125 53.65625 
Q 14.5 64.65625 8.015625 75.875 
z
" id="DejaVuSans-41"/>
      </defs>
      <use xlink:href="#DejaVuSans-89"/>
      <use x="57.458984" xlink:href="#DejaVuSans-105"/>
      <use x="85.242188" xlink:href="#DejaVuSans-101"/>
      <use x="146.765625" xlink:href="#DejaVuSans-108"/>
      <use x="174.548828" xlink:href="#DejaVuSans-100"/>
      <use x="238.025391" xlink:href="#DejaVuSans-32"/>
      <use x="269.8125" xlink:href="#DejaVuSans-40"/>
      <use x="308.826172" xlink:href="#DejaVuSans-116"/>
      <use x="348.035156" xlink:href="#DejaVuSans-47"/>
      <use x="381.726562" xlink:href="#DejaVuSans-104"/>
      <use x="445.105469" xlink:href="#DejaVuSans-97"/>
      <use x="506.384766" xlink:href="#DejaVuSans-41"/>
     </g>
    </g>
   </g>
   <g id="PolyCollection_1">
    <defs>
     <path d="M 83.440015 -211.501065 
L 60.621503 -211.501065 
L 61.149294 -214.002259 
L 62.590609 -216.503453 
L 64.58002 -219.004647 
L 66.678173 -221.50584 
L 68.525145 -224.007034 
L 69.926743 -226.508228 
L 70.854081 -229.009422 
L 71.385907 -231.510615 
L 71.63982 -234.011809 
L 71.724198 -236.513003 
L 71.718407 -239.014197 
L 71.672728 -241.51539 
L 71.616086 -244.016584 
L 71.563818 -246.517778 
L 71.522889 -249.018972 
L 71.494941 -251.520165 
L 71.478205 -254.021359 
L 71.468949 -256.522553 
L 71.462639 -259.023747 
L 71.454744 -261.52494 
L 71.441193 -264.026134 
L 71.418539 -266.527328 
L 71.384049 -269.028522 
L 71.335898 -271.529715 
L 71.273535 -274.030909 
L 71.198128 -276.532103 
L 71.112844 -279.033297 
L 71.022686 -281.534491 
L 70.933751 -284.035684 
L 70.852019 -286.536878 
L 70.78208 -289.038072 
L 70.726297 -291.539266 
L 70.68476 -294.040459 
L 70.65598 -296.541653 
L 70.637911 -299.042847 
L 70.628771 -301.544041 
L 70.627374 -304.045234 
L 70.633044 -306.546428 
L 70.645476 -309.047622 
L 70.664795 -311.548816 
L 70.691762 -314.050009 
L 70.727779 -316.551203 
L 70.774403 -319.052397 
L 70.832424 -321.553591 
L 70.900964 -324.054784 
L 70.97717 -326.555978 
L 71.056805 -329.057172 
L 71.135479 -331.558366 
L 71.209897 -334.059559 
L 71.278486 -336.560753 
L 71.341153 -339.061947 
L 71.398451 -341.563141 
L 71.450708 -344.064334 
L 71.497612 -346.565528 
L 71.538395 -349.066722 
L 71.572373 -351.567916 
L 71.599455 -354.069109 
L 71.620305 -356.570303 
L 71.636122 -359.071497 
L 71.648201 -361.572691 
L 71.657528 -364.073884 
L 71.664575 -366.575078 
L 71.669344 -369.076272 
L 71.671633 -371.577466 
L 71.671439 -374.078659 
L 71.669377 -376.579853 
L 71.666898 -379.081047 
L 71.66612 -381.582241 
L 71.66923 -384.083434 
L 71.677672 -386.584628 
L 71.691485 -389.085822 
L 71.709118 -391.587016 
L 71.727789 -394.08821 
L 71.744225 -396.589403 
L 71.755537 -399.090597 
L 71.760042 -401.591791 
L 71.757851 -404.092985 
L 71.751059 -406.594178 
L 71.743339 -409.095372 
L 71.738884 -411.596566 
L 71.740959 -414.09776 
L 71.750664 -416.598953 
L 71.766537 -419.100147 
L 71.785287 -421.601341 
L 71.803339 -424.102535 
L 71.818417 -426.603728 
L 71.8304 -429.104922 
L 71.841067 -431.606116 
L 71.853003 -434.10731 
L 71.868264 -436.608503 
L 71.887466 -439.109697 
L 71.909641 -441.610891 
L 71.932786 -444.112085 
L 71.954713 -446.613278 
L 71.973778 -449.114472 
L 71.989218 -451.615666 
L 72.001074 -454.11686 
L 72.00988 -456.618053 
L 72.016318 -459.119247 
L 72.0452 -459.119247 
L 72.0452 -459.119247 
L 72.051638 -456.618053 
L 72.060444 -454.11686 
L 72.0723 -451.615666 
L 72.08774 -449.114472 
L 72.106805 -446.613278 
L 72.128732 -444.112085 
L 72.151877 -441.610891 
L 72.174052 -439.109697 
L 72.193254 -436.608503 
L 72.208515 -434.10731 
L 72.220451 -431.606116 
L 72.231118 -429.104922 
L 72.243101 -426.603728 
L 72.258179 -424.102535 
L 72.276231 -421.601341 
L 72.294981 -419.100147 
L 72.310854 -416.598953 
L 72.320559 -414.09776 
L 72.322634 -411.596566 
L 72.318179 -409.095372 
L 72.310459 -406.594178 
L 72.303667 -404.092985 
L 72.301476 -401.591791 
L 72.305981 -399.090597 
L 72.317293 -396.589403 
L 72.333729 -394.08821 
L 72.3524 -391.587016 
L 72.370033 -389.085822 
L 72.383846 -386.584628 
L 72.392288 -384.083434 
L 72.395398 -381.582241 
L 72.39462 -379.081047 
L 72.392141 -376.579853 
L 72.390079 -374.078659 
L 72.389885 -371.577466 
L 72.392174 -369.076272 
L 72.396943 -366.575078 
L 72.40399 -364.073884 
L 72.413317 -361.572691 
L 72.425396 -359.071497 
L 72.441213 -356.570303 
L 72.462063 -354.069109 
L 72.489145 -351.567916 
L 72.523123 -349.066722 
L 72.563906 -346.565528 
L 72.61081 -344.064334 
L 72.663067 -341.563141 
L 72.720365 -339.061947 
L 72.783032 -336.560753 
L 72.851621 -334.059559 
L 72.926039 -331.558366 
L 73.004713 -329.057172 
L 73.084348 -326.555978 
L 73.160554 -324.054784 
L 73.229094 -321.553591 
L 73.287115 -319.052397 
L 73.333739 -316.551203 
L 73.369756 -314.050009 
L 73.396723 -311.548816 
L 73.416042 -309.047622 
L 73.428474 -306.546428 
L 73.434144 -304.045234 
L 73.432747 -301.544041 
L 73.423607 -299.042847 
L 73.405538 -296.541653 
L 73.376758 -294.040459 
L 73.335221 -291.539266 
L 73.279438 -289.038072 
L 73.209499 -286.536878 
L 73.127767 -284.035684 
L 73.038832 -281.534491 
L 72.948674 -279.033297 
L 72.86339 -276.532103 
L 72.787983 -274.030909 
L 72.72562 -271.529715 
L 72.677469 -269.028522 
L 72.642979 -266.527328 
L 72.620325 -264.026134 
L 72.606774 -261.52494 
L 72.598879 -259.023747 
L 72.592569 -256.522553 
L 72.583313 -254.021359 
L 72.566577 -251.520165 
L 72.538629 -249.018972 
L 72.4977 -246.517778 
L 72.445432 -244.016584 
L 72.38879 -241.51539 
L 72.343111 -239.014197 
L 72.33732 -236.513003 
L 72.421698 -234.011809 
L 72.675611 -231.510615 
L 73.207437 -229.009422 
L 74.134775 -226.508228 
L 75.536373 -224.007034 
L 77.383345 -221.50584 
L 79.481498 -219.004647 
L 81.470909 -216.503453 
L 82.912224 -214.002259 
L 83.440015 -211.501065 
z
" id="m9d31c85750" style="stroke:#545454;stroke-width:2.5;"/>
    </defs>
    <g clip-path="url(#p59df6b0db3)">
     <use style="fill:#597dbf;stroke:#545454;stroke-width:2.5;" x="0" xlink:href="#m9d31c85750" y="503.420156"/>
    </g>
   </g>
   <g id="PolyCollection_2">
    <defs>
     <path d="M 95.662308 -211.715912 
L 94.036234 -211.715912 
L 94.013398 -213.821802 
L 93.990602 -215.927692 
L 93.967852 -218.033582 
L 93.945156 -220.139472 
L 93.92252 -222.245362 
L 93.899948 -224.351252 
L 93.877444 -226.457142 
L 93.855009 -228.563032 
L 93.832645 -230.668922 
L 93.810352 -232.774812 
L 93.788132 -234.880702 
L 93.765986 -236.986592 
L 93.743914 -239.092482 
L 93.721917 -241.198372 
L 93.699998 -243.304262 
L 93.678161 -245.410152 
L 93.65641 -247.516042 
L 93.634752 -249.621932 
L 93.613194 -251.727822 
L 93.591746 -253.833712 
L 93.570421 -255.939601 
L 93.549233 -258.045491 
L 93.528198 -260.151381 
L 93.507336 -262.257271 
L 93.486669 -264.363161 
L 93.46622 -266.469051 
L 93.446016 -268.574941 
L 93.426088 -270.680831 
L 93.406465 -272.786721 
L 93.387181 -274.892611 
L 93.368274 -276.998501 
L 93.349779 -279.104391 
L 93.331737 -281.210281 
L 93.314188 -283.316171 
L 93.297173 -285.422061 
L 93.280736 -287.527951 
L 93.26492 -289.633841 
L 93.249766 -291.739731 
L 93.23532 -293.845621 
L 93.221622 -295.951511 
L 93.208715 -298.057401 
L 93.196639 -300.163291 
L 93.185433 -302.269181 
L 93.175134 -304.375071 
L 93.165776 -306.480961 
L 93.157392 -308.586851 
L 93.150012 -310.692741 
L 93.143661 -312.798631 
L 93.138363 -314.904521 
L 93.134138 -317.010411 
L 93.131001 -319.116301 
L 93.128967 -321.222191 
L 93.128043 -323.328081 
L 93.128234 -325.433971 
L 93.129542 -327.53986 
L 93.131964 -329.64575 
L 93.135494 -331.75164 
L 93.140122 -333.85753 
L 93.145836 -335.96342 
L 93.152618 -338.06931 
L 93.160449 -340.1752 
L 93.169307 -342.28109 
L 93.179168 -344.38698 
L 93.190004 -346.49287 
L 93.201785 -348.59876 
L 93.214482 -350.70465 
L 93.228063 -352.81054 
L 93.242493 -354.91643 
L 93.257738 -357.02232 
L 93.273765 -359.12821 
L 93.290539 -361.2341 
L 93.308024 -363.33999 
L 93.326186 -365.44588 
L 93.344992 -367.55177 
L 93.364407 -369.65766 
L 93.3844 -371.76355 
L 93.404939 -373.86944 
L 93.425994 -375.97533 
L 93.447535 -378.08122 
L 93.469535 -380.18711 
L 93.491968 -382.293 
L 93.514807 -384.39889 
L 93.53803 -386.50478 
L 93.561611 -388.61067 
L 93.585531 -390.71656 
L 93.609768 -392.82245 
L 93.634301 -394.92834 
L 93.659111 -397.03423 
L 93.684178 -399.14012 
L 93.709485 -401.246009 
L 93.735012 -403.351899 
L 93.76074 -405.457789 
L 93.786651 -407.563679 
L 93.812725 -409.669569 
L 93.838942 -411.775459 
L 93.865282 -413.881349 
L 93.891724 -415.987239 
L 93.918245 -418.093129 
L 93.944822 -420.199019 
L 95.75372 -420.199019 
L 95.75372 -420.199019 
L 95.780297 -418.093129 
L 95.806818 -415.987239 
L 95.83326 -413.881349 
L 95.8596 -411.775459 
L 95.885817 -409.669569 
L 95.911891 -407.563679 
L 95.937802 -405.457789 
L 95.96353 -403.351899 
L 95.989057 -401.246009 
L 96.014364 -399.14012 
L 96.039431 -397.03423 
L 96.064241 -394.92834 
L 96.088774 -392.82245 
L 96.113011 -390.71656 
L 96.136931 -388.61067 
L 96.160512 -386.50478 
L 96.183735 -384.39889 
L 96.206574 -382.293 
L 96.229007 -380.18711 
L 96.251007 -378.08122 
L 96.272548 -375.97533 
L 96.293603 -373.86944 
L 96.314142 -371.76355 
L 96.334135 -369.65766 
L 96.35355 -367.55177 
L 96.372356 -365.44588 
L 96.390518 -363.33999 
L 96.408003 -361.2341 
L 96.424777 -359.12821 
L 96.440804 -357.02232 
L 96.456049 -354.91643 
L 96.470479 -352.81054 
L 96.48406 -350.70465 
L 96.496757 -348.59876 
L 96.508538 -346.49287 
L 96.519374 -344.38698 
L 96.529235 -342.28109 
L 96.538093 -340.1752 
L 96.545924 -338.06931 
L 96.552706 -335.96342 
L 96.55842 -333.85753 
L 96.563048 -331.75164 
L 96.566578 -329.64575 
L 96.569 -327.53986 
L 96.570308 -325.433971 
L 96.570499 -323.328081 
L 96.569575 -321.222191 
L 96.567541 -319.116301 
L 96.564404 -317.010411 
L 96.560179 -314.904521 
L 96.554881 -312.798631 
L 96.54853 -310.692741 
L 96.54115 -308.586851 
L 96.532766 -306.480961 
L 96.523408 -304.375071 
L 96.513109 -302.269181 
L 96.501903 -300.163291 
L 96.489827 -298.057401 
L 96.47692 -295.951511 
L 96.463222 -293.845621 
L 96.448776 -291.739731 
L 96.433622 -289.633841 
L 96.417806 -287.527951 
L 96.401369 -285.422061 
L 96.384354 -283.316171 
L 96.366805 -281.210281 
L 96.348763 -279.104391 
L 96.330268 -276.998501 
L 96.311361 -274.892611 
L 96.292077 -272.786721 
L 96.272454 -270.680831 
L 96.252526 -268.574941 
L 96.232322 -266.469051 
L 96.211873 -264.363161 
L 96.191206 -262.257271 
L 96.170344 -260.151381 
L 96.149309 -258.045491 
L 96.128121 -255.939601 
L 96.106796 -253.833712 
L 96.085348 -251.727822 
L 96.06379 -249.621932 
L 96.042132 -247.516042 
L 96.020381 -245.410152 
L 95.998544 -243.304262 
L 95.976625 -241.198372 
L 95.954628 -239.092482 
L 95.932556 -236.986592 
L 95.91041 -234.880702 
L 95.88819 -232.774812 
L 95.865897 -230.668922 
L 95.843533 -228.563032 
L 95.821098 -226.457142 
L 95.798594 -224.351252 
L 95.776022 -222.245362 
L 95.753386 -220.139472 
L 95.73069 -218.033582 
L 95.70794 -215.927692 
L 95.685144 -213.821802 
L 95.662308 -211.715912 
z
" id="m3336ca3c17" style="stroke:#545454;stroke-width:2.5;"/>
    </defs>
    <g clip-path="url(#p59df6b0db3)">
     <use style="fill:#d98b5f;stroke:#545454;stroke-width:2.5;" x="0" xlink:href="#m3336ca3c17" y="503.420156"/>
    </g>
   </g>
   <g id="PolyCollection_3">
    <defs>
     <path d="M 140.486295 -211.501065 
L 117.667783 -211.501065 
L 118.220079 -213.181999 
L 119.721607 -214.862932 
L 121.775827 -216.543866 
L 123.913643 -218.224799 
L 125.762177 -219.905733 
L 127.13343 -221.586666 
L 128.015133 -223.2676 
L 128.502028 -224.948533 
L 128.720847 -226.629467 
L 128.782069 -228.3104 
L 128.76314 -229.991334 
L 128.711375 -231.672267 
L 128.653188 -233.353201 
L 128.602112 -235.034134 
L 128.563793 -236.715068 
L 128.53883 -238.396001 
L 128.524645 -240.076935 
L 128.516969 -241.757868 
L 128.510995 -243.438802 
L 128.502137 -245.119735 
L 128.486372 -246.800669 
L 128.460354 -248.481602 
L 128.421506 -250.162536 
L 128.368288 -251.843469 
L 128.300638 -253.524403 
L 128.220406 -255.205337 
L 128.131502 -256.88627 
L 128.039508 -258.567204 
L 127.950719 -260.248137 
L 127.870881 -261.929071 
L 127.804062 -263.610004 
L 127.752134 -265.290938 
L 127.714984 -266.971871 
L 127.691236 -268.652805 
L 127.679013 -270.333738 
L 127.676412 -272.014672 
L 127.681683 -273.695605 
L 127.693396 -275.376539 
L 127.710795 -277.057472 
L 127.734239 -278.738406 
L 127.765338 -280.419339 
L 127.806435 -282.100273 
L 127.859459 -283.781206 
L 127.924643 -285.46214 
L 127.999803 -287.143073 
L 128.08065 -288.824007 
L 128.16201 -290.50494 
L 128.239361 -292.185874 
L 128.309918 -293.866807 
L 128.372814 -295.547741 
L 128.428474 -297.228674 
L 128.477687 -298.909608 
L 128.52095 -300.590541 
L 128.558367 -302.271475 
L 128.589974 -303.952408 
L 128.616114 -305.633342 
L 128.63755 -307.314275 
L 128.65525 -308.995209 
L 128.670021 -310.676142 
L 128.682229 -312.357076 
L 128.691758 -314.038009 
L 128.698249 -315.718943 
L 128.701544 -317.399876 
L 128.702193 -319.08081 
L 128.701757 -320.761743 
L 128.702688 -322.442677 
L 128.707685 -324.12361 
L 128.718738 -325.804544 
L 128.736272 -327.485477 
L 128.758763 -329.166411 
L 128.783025 -330.847344 
L 128.805047 -332.528278 
L 128.821129 -334.209211 
L 128.829005 -335.890145 
L 128.828655 -337.571078 
L 128.822517 -339.252012 
L 128.814877 -340.932945 
L 128.810509 -342.613879 
L 128.812989 -344.294812 
L 128.823372 -345.975746 
L 128.83988 -347.656679 
L 128.858779 -349.337613 
L 128.876038 -351.018546 
L 128.888994 -352.69948 
L 128.897296 -354.380413 
L 128.902789 -356.061347 
L 128.908528 -357.74228 
L 128.917413 -359.423214 
L 128.931049 -361.104147 
L 128.949256 -362.785081 
L 128.970326 -364.466014 
L 128.991823 -366.146948 
L 129.011491 -367.827881 
L 129.027899 -369.508815 
L 129.04063 -371.189748 
L 129.050065 -372.870682 
L 129.056979 -374.551615 
L 129.062153 -376.232549 
L 129.066163 -377.913482 
L 129.087915 -377.913482 
L 129.087915 -377.913482 
L 129.091925 -376.232549 
L 129.097099 -374.551615 
L 129.104013 -372.870682 
L 129.113448 -371.189748 
L 129.126179 -369.508815 
L 129.142587 -367.827881 
L 129.162255 -366.146948 
L 129.183752 -364.466014 
L 129.204822 -362.785081 
L 129.223029 -361.104147 
L 129.236665 -359.423214 
L 129.24555 -357.74228 
L 129.251289 -356.061347 
L 129.256782 -354.380413 
L 129.265084 -352.69948 
L 129.27804 -351.018546 
L 129.295299 -349.337613 
L 129.314198 -347.656679 
L 129.330706 -345.975746 
L 129.341089 -344.294812 
L 129.343569 -342.613879 
L 129.339201 -340.932945 
L 129.331561 -339.252012 
L 129.325423 -337.571078 
L 129.325073 -335.890145 
L 129.332949 -334.209211 
L 129.349031 -332.528278 
L 129.371053 -330.847344 
L 129.395315 -329.166411 
L 129.417806 -327.485477 
L 129.43534 -325.804544 
L 129.446393 -324.12361 
L 129.45139 -322.442677 
L 129.452321 -320.761743 
L 129.451885 -319.08081 
L 129.452534 -317.399876 
L 129.455829 -315.718943 
L 129.46232 -314.038009 
L 129.471849 -312.357076 
L 129.484057 -310.676142 
L 129.498828 -308.995209 
L 129.516528 -307.314275 
L 129.537964 -305.633342 
L 129.564104 -303.952408 
L 129.595711 -302.271475 
L 129.633128 -300.590541 
L 129.676391 -298.909608 
L 129.725604 -297.228674 
L 129.781264 -295.547741 
L 129.84416 -293.866807 
L 129.914717 -292.185874 
L 129.992068 -290.50494 
L 130.073428 -288.824007 
L 130.154275 -287.143073 
L 130.229435 -285.46214 
L 130.294619 -283.781206 
L 130.347643 -282.100273 
L 130.38874 -280.419339 
L 130.419839 -278.738406 
L 130.443283 -277.057472 
L 130.460682 -275.376539 
L 130.472395 -273.695605 
L 130.477666 -272.014672 
L 130.475065 -270.333738 
L 130.462842 -268.652805 
L 130.439094 -266.971871 
L 130.401944 -265.290938 
L 130.350016 -263.610004 
L 130.283197 -261.929071 
L 130.203359 -260.248137 
L 130.11457 -258.567204 
L 130.022576 -256.88627 
L 129.933672 -255.205337 
L 129.85344 -253.524403 
L 129.78579 -251.843469 
L 129.732572 -250.162536 
L 129.693724 -248.481602 
L 129.667706 -246.800669 
L 129.651941 -245.119735 
L 129.643083 -243.438802 
L 129.637109 -241.757868 
L 129.629433 -240.076935 
L 129.615248 -238.396001 
L 129.590285 -236.715068 
L 129.551966 -235.034134 
L 129.50089 -233.353201 
L 129.442703 -231.672267 
L 129.390938 -229.991334 
L 129.372009 -228.3104 
L 129.433231 -226.629467 
L 129.65205 -224.948533 
L 130.138945 -223.2676 
L 131.020648 -221.586666 
L 132.391901 -219.905733 
L 134.240435 -218.224799 
L 136.378251 -216.543866 
L 138.432471 -214.862932 
L 139.933999 -213.181999 
L 140.486295 -211.501065 
z
" id="m23a5a563be" style="stroke:#545454;stroke-width:2.5;"/>
    </defs>
    <g clip-path="url(#p59df6b0db3)">
     <use style="fill:#597dbf;stroke:#545454;stroke-width:2.5;" x="0" xlink:href="#m23a5a563be" y="503.420156"/>
    </g>
   </g>
   <g id="PolyCollection_4">
    <defs>
     <path d="M 152.704319 -211.643464 
L 151.086783 -211.643464 
L 151.064081 -213.022362 
L 151.04141 -214.40126 
L 151.018777 -215.780158 
L 150.996186 -217.159056 
L 150.973642 -218.537954 
L 150.951145 -219.916852 
L 150.928699 -221.29575 
L 150.906302 -222.674648 
L 150.883954 -224.053546 
L 150.861654 -225.432444 
L 150.839401 -226.811343 
L 150.817192 -228.190241 
L 150.795028 -229.569139 
L 150.772908 -230.948037 
L 150.750833 -232.326935 
L 150.728804 -233.705833 
L 150.706825 -235.084731 
L 150.684901 -236.463629 
L 150.663039 -237.842527 
L 150.641249 -239.221425 
L 150.619542 -240.600323 
L 150.597932 -241.979222 
L 150.576436 -243.35812 
L 150.555074 -244.737018 
L 150.533869 -246.115916 
L 150.512845 -247.494814 
L 150.492031 -248.873712 
L 150.471459 -250.25261 
L 150.45116 -251.631508 
L 150.431173 -253.010406 
L 150.411535 -254.389304 
L 150.392286 -255.768202 
L 150.37347 -257.1471 
L 150.355131 -258.525999 
L 150.337315 -259.904897 
L 150.320068 -261.283795 
L 150.303437 -262.662693 
L 150.287471 -264.041591 
L 150.272216 -265.420489 
L 150.25772 -266.799387 
L 150.244029 -268.178285 
L 150.231188 -269.557183 
L 150.219241 -270.936081 
L 150.20823 -272.314979 
L 150.198192 -273.693877 
L 150.189165 -275.072776 
L 150.181183 -276.451674 
L 150.174274 -277.830572 
L 150.168467 -279.20947 
L 150.163784 -280.588368 
L 150.160243 -281.967266 
L 150.15786 -283.346164 
L 150.156646 -284.725062 
L 150.156607 -286.10396 
L 150.157744 -287.482858 
L 150.160057 -288.861756 
L 150.16354 -290.240655 
L 150.168181 -291.619553 
L 150.173966 -292.998451 
L 150.18088 -294.377349 
L 150.188899 -295.756247 
L 150.197999 -297.135145 
L 150.208154 -298.514043 
L 150.219333 -299.892941 
L 150.231504 -301.271839 
L 150.244633 -302.650737 
L 150.258684 -304.029635 
L 150.273619 -305.408533 
L 150.289402 -306.787432 
L 150.305991 -308.16633 
L 150.32335 -309.545228 
L 150.341438 -310.924126 
L 150.360218 -312.303024 
L 150.37965 -313.681922 
L 150.399699 -315.06082 
L 150.420326 -316.439718 
L 150.441498 -317.818616 
L 150.46318 -319.197514 
L 150.48534 -320.576412 
L 150.507947 -321.95531 
L 150.530972 -323.334209 
L 150.554387 -324.713107 
L 150.578165 -326.092005 
L 150.602283 -327.470903 
L 150.626716 -328.849801 
L 150.651441 -330.228699 
L 150.676439 -331.607597 
L 150.701689 -332.986495 
L 150.72717 -334.365393 
L 150.752865 -335.744291 
L 150.778753 -337.123189 
L 150.804819 -338.502088 
L 150.831041 -339.880986 
L 150.857403 -341.259884 
L 150.883885 -342.638782 
L 150.910467 -344.01768 
L 150.937129 -345.396578 
L 150.96385 -346.775476 
L 150.990608 -348.154374 
L 152.800494 -348.154374 
L 152.800494 -348.154374 
L 152.827252 -346.775476 
L 152.853973 -345.396578 
L 152.880635 -344.01768 
L 152.907217 -342.638782 
L 152.933699 -341.259884 
L 152.960061 -339.880986 
L 152.986283 -338.502088 
L 153.012349 -337.123189 
L 153.038237 -335.744291 
L 153.063932 -334.365393 
L 153.089413 -332.986495 
L 153.114663 -331.607597 
L 153.139661 -330.228699 
L 153.164386 -328.849801 
L 153.188819 -327.470903 
L 153.212937 -326.092005 
L 153.236715 -324.713107 
L 153.26013 -323.334209 
L 153.283155 -321.95531 
L 153.305762 -320.576412 
L 153.327922 -319.197514 
L 153.349604 -317.818616 
L 153.370776 -316.439718 
L 153.391403 -315.06082 
L 153.411452 -313.681922 
L 153.430884 -312.303024 
L 153.449664 -310.924126 
L 153.467752 -309.545228 
L 153.485111 -308.16633 
L 153.5017 -306.787432 
L 153.517483 -305.408533 
L 153.532418 -304.029635 
L 153.546469 -302.650737 
L 153.559598 -301.271839 
L 153.571769 -299.892941 
L 153.582948 -298.514043 
L 153.593103 -297.135145 
L 153.602203 -295.756247 
L 153.610222 -294.377349 
L 153.617136 -292.998451 
L 153.622921 -291.619553 
L 153.627562 -290.240655 
L 153.631045 -288.861756 
L 153.633358 -287.482858 
L 153.634495 -286.10396 
L 153.634456 -284.725062 
L 153.633242 -283.346164 
L 153.630859 -281.967266 
L 153.627318 -280.588368 
L 153.622635 -279.20947 
L 153.616828 -277.830572 
L 153.609919 -276.451674 
L 153.601937 -275.072776 
L 153.59291 -273.693877 
L 153.582872 -272.314979 
L 153.571861 -270.936081 
L 153.559914 -269.557183 
L 153.547073 -268.178285 
L 153.533382 -266.799387 
L 153.518886 -265.420489 
L 153.503631 -264.041591 
L 153.487665 -262.662693 
L 153.471034 -261.283795 
L 153.453787 -259.904897 
L 153.435971 -258.525999 
L 153.417632 -257.1471 
L 153.398816 -255.768202 
L 153.379567 -254.389304 
L 153.359929 -253.010406 
L 153.339942 -251.631508 
L 153.319643 -250.25261 
L 153.299071 -248.873712 
L 153.278257 -247.494814 
L 153.257233 -246.115916 
L 153.236028 -244.737018 
L 153.214666 -243.35812 
L 153.19317 -241.979222 
L 153.17156 -240.600323 
L 153.149853 -239.221425 
L 153.128063 -237.842527 
L 153.106201 -236.463629 
L 153.084277 -235.084731 
L 153.062298 -233.705833 
L 153.040269 -232.326935 
L 153.018194 -230.948037 
L 152.996074 -229.569139 
L 152.97391 -228.190241 
L 152.951701 -226.811343 
L 152.929448 -225.432444 
L 152.907148 -224.053546 
L 152.8848 -222.674648 
L 152.862403 -221.29575 
L 152.839957 -219.916852 
L 152.81746 -218.537954 
L 152.794916 -217.159056 
L 152.772325 -215.780158 
L 152.749692 -214.40126 
L 152.727021 -213.022362 
L 152.704319 -211.643464 
z
" id="m024d1ab8c1" style="stroke:#545454;stroke-width:2.5;"/>
    </defs>
    <g clip-path="url(#p59df6b0db3)">
     <use style="fill:#d98b5f;stroke:#545454;stroke-width:2.5;" x="0" xlink:href="#m024d1ab8c1" y="503.420156"/>
    </g>
   </g>
   <g id="PolyCollection_5">
    <defs>
     <path d="M 197.532575 -211.501065 
L 174.714063 -211.501065 
L 175.246234 -213.705686 
L 176.698355 -215.910306 
L 178.70035 -218.114926 
L 180.808665 -220.319546 
L 182.662131 -222.524167 
L 184.0685 -224.728787 
L 185.002184 -226.933407 
L 185.544165 -229.138027 
L 185.811689 -231.342648 
L 185.910199 -233.547268 
L 185.91483 -235.751888 
L 185.872157 -237.956508 
L 185.809407 -240.161129 
L 185.742718 -242.365749 
L 185.681774 -244.570369 
L 185.631603 -246.774989 
L 185.593309 -248.97961 
L 185.564951 -251.18423 
L 185.542871 -253.38885 
L 185.52313 -255.59347 
L 185.50257 -257.798091 
L 185.479228 -260.002711 
L 185.452131 -262.207331 
L 185.420701 -264.411952 
L 185.38414 -266.616572 
L 185.341138 -268.821192 
L 185.290173 -271.025812 
L 185.230369 -273.230433 
L 185.162549 -275.435053 
L 185.089916 -277.639673 
L 185.017853 -279.844293 
L 184.952747 -282.048914 
L 184.900237 -284.253534 
L 184.863613 -286.458154 
L 184.843018 -288.662774 
L 184.835734 -290.867395 
L 184.837363 -293.072015 
L 184.843394 -295.276635 
L 184.850593 -297.481255 
L 184.857785 -299.685876 
L 184.865845 -301.890496 
L 184.877045 -304.095116 
L 184.894042 -306.299736 
L 184.918947 -308.504357 
L 184.952742 -310.708977 
L 184.995142 -312.913597 
L 185.044779 -315.118217 
L 185.099537 -317.322838 
L 185.156916 -319.527458 
L 185.214387 -321.732078 
L 185.26977 -323.936698 
L 185.321618 -326.141319 
L 185.369512 -328.345939 
L 185.41414 -330.550559 
L 185.457032 -332.755179 
L 185.499956 -334.9598 
L 185.544149 -337.16442 
L 185.589695 -339.36904 
L 185.635344 -341.573661 
L 185.678877 -343.778281 
L 185.717853 -345.982901 
L 185.750382 -348.187521 
L 185.775618 -350.392142 
L 185.793806 -352.596762 
L 185.806 -354.801382 
L 185.813645 -357.006002 
L 185.818226 -359.210623 
L 185.82107 -361.415243 
L 185.823283 -363.619863 
L 185.825754 -365.824483 
L 185.829181 -368.029104 
L 185.834069 -370.233724 
L 185.84073 -372.438344 
L 185.849264 -374.642964 
L 185.859555 -376.847585 
L 185.871266 -379.052205 
L 185.883844 -381.256825 
L 185.896542 -383.461445 
L 185.908474 -385.666066 
L 185.918737 -387.870686 
L 185.926595 -390.075306 
L 185.931687 -392.279926 
L 185.93417 -394.484547 
L 185.934761 -396.689167 
L 185.934635 -398.893787 
L 185.935248 -401.098407 
L 185.938095 -403.303028 
L 185.944423 -405.507648 
L 185.954935 -407.712268 
L 185.96954 -409.916888 
L 185.987308 -412.121509 
L 186.006685 -414.326129 
L 186.025942 -416.530749 
L 186.043658 -418.73537 
L 186.059042 -420.93999 
L 186.071956 -423.14461 
L 186.082708 -425.34923 
L 186.091747 -427.553851 
L 186.09943 -429.758471 
L 186.147208 -429.758471 
L 186.147208 -429.758471 
L 186.154891 -427.553851 
L 186.16393 -425.34923 
L 186.174682 -423.14461 
L 186.187596 -420.93999 
L 186.20298 -418.73537 
L 186.220696 -416.530749 
L 186.239953 -414.326129 
L 186.25933 -412.121509 
L 186.277098 -409.916888 
L 186.291703 -407.712268 
L 186.302215 -405.507648 
L 186.308543 -403.303028 
L 186.31139 -401.098407 
L 186.312003 -398.893787 
L 186.311877 -396.689167 
L 186.312468 -394.484547 
L 186.314951 -392.279926 
L 186.320043 -390.075306 
L 186.327901 -387.870686 
L 186.338164 -385.666066 
L 186.350096 -383.461445 
L 186.362794 -381.256825 
L 186.375372 -379.052205 
L 186.387083 -376.847585 
L 186.397374 -374.642964 
L 186.405908 -372.438344 
L 186.412569 -370.233724 
L 186.417457 -368.029104 
L 186.420884 -365.824483 
L 186.423355 -363.619863 
L 186.425568 -361.415243 
L 186.428412 -359.210623 
L 186.432993 -357.006002 
L 186.440638 -354.801382 
L 186.452832 -352.596762 
L 186.47102 -350.392142 
L 186.496256 -348.187521 
L 186.528785 -345.982901 
L 186.567761 -343.778281 
L 186.611294 -341.573661 
L 186.656943 -339.36904 
L 186.702489 -337.16442 
L 186.746682 -334.9598 
L 186.789606 -332.755179 
L 186.832498 -330.550559 
L 186.877126 -328.345939 
L 186.92502 -326.141319 
L 186.976868 -323.936698 
L 187.032251 -321.732078 
L 187.089722 -319.527458 
L 187.147101 -317.322838 
L 187.201859 -315.118217 
L 187.251496 -312.913597 
L 187.293896 -310.708977 
L 187.327691 -308.504357 
L 187.352596 -306.299736 
L 187.369593 -304.095116 
L 187.380793 -301.890496 
L 187.388853 -299.685876 
L 187.396045 -297.481255 
L 187.403244 -295.276635 
L 187.409275 -293.072015 
L 187.410904 -290.867395 
L 187.40362 -288.662774 
L 187.383025 -286.458154 
L 187.346401 -284.253534 
L 187.293891 -282.048914 
L 187.228785 -279.844293 
L 187.156722 -277.639673 
L 187.084089 -275.435053 
L 187.016269 -273.230433 
L 186.956465 -271.025812 
L 186.9055 -268.821192 
L 186.862498 -266.616572 
L 186.825937 -264.411952 
L 186.794507 -262.207331 
L 186.76741 -260.002711 
L 186.744068 -257.798091 
L 186.723508 -255.59347 
L 186.703767 -253.38885 
L 186.681687 -251.18423 
L 186.653329 -248.97961 
L 186.615035 -246.774989 
L 186.564864 -244.570369 
L 186.50392 -242.365749 
L 186.437231 -240.161129 
L 186.374481 -237.956508 
L 186.331808 -235.751888 
L 186.336439 -233.547268 
L 186.434949 -231.342648 
L 186.702473 -229.138027 
L 187.244454 -226.933407 
L 188.178138 -224.728787 
L 189.584507 -222.524167 
L 191.437973 -220.319546 
L 193.546288 -218.114926 
L 195.548283 -215.910306 
L 197.000404 -213.705686 
L 197.532575 -211.501065 
z
" id="mb51014cfe0" style="stroke:#545454;stroke-width:2.5;"/>
    </defs>
    <g clip-path="url(#p59df6b0db3)">
     <use style="fill:#597dbf;stroke:#545454;stroke-width:2.5;" x="0" xlink:href="#mb51014cfe0" y="503.420156"/>
    </g>
   </g>
   <g id="PolyCollection_6">
    <defs>
     <path d="M 209.73164 -211.630042 
L 208.152022 -211.630042 
L 208.130447 -213.487648 
L 208.10897 -215.345253 
L 208.087597 -217.202858 
L 208.066334 -219.060463 
L 208.045184 -220.918069 
L 208.024147 -222.775674 
L 208.003223 -224.633279 
L 207.98241 -226.490884 
L 207.961703 -228.34849 
L 207.941097 -230.206095 
L 207.920586 -232.0637 
L 207.900164 -233.921305 
L 207.879822 -235.778911 
L 207.859554 -237.636516 
L 207.839351 -239.494121 
L 207.819207 -241.351726 
L 207.799115 -243.209331 
L 207.779069 -245.066937 
L 207.759066 -246.924542 
L 207.739102 -248.782147 
L 207.719176 -250.639752 
L 207.699288 -252.497358 
L 207.679442 -254.354963 
L 207.659643 -256.212568 
L 207.639897 -258.070173 
L 207.620216 -259.927779 
L 207.600612 -261.785384 
L 207.581101 -263.642989 
L 207.5617 -265.500594 
L 207.542433 -267.3582 
L 207.523322 -269.215805 
L 207.504394 -271.07341 
L 207.485681 -272.931015 
L 207.467213 -274.788621 
L 207.449026 -276.646226 
L 207.431158 -278.503831 
L 207.413647 -280.361436 
L 207.396537 -282.219041 
L 207.37987 -284.076647 
L 207.363692 -285.934252 
L 207.34805 -287.791857 
L 207.33299 -289.649462 
L 207.318562 -291.507068 
L 207.304814 -293.364673 
L 207.291795 -295.222278 
L 207.279554 -297.079883 
L 207.26814 -298.937489 
L 207.2576 -300.795094 
L 207.247981 -302.652699 
L 207.239327 -304.510304 
L 207.231681 -306.36791 
L 207.225084 -308.225515 
L 207.219574 -310.08312 
L 207.215187 -311.940725 
L 207.211955 -313.79833 
L 207.209907 -315.655936 
L 207.209069 -317.513541 
L 207.209461 -319.371146 
L 207.211103 -321.228751 
L 207.214006 -323.086357 
L 207.21818 -324.943962 
L 207.22363 -326.801567 
L 207.230356 -328.659172 
L 207.238354 -330.516778 
L 207.247614 -332.374383 
L 207.258124 -334.231988 
L 207.269866 -336.089593 
L 207.282819 -337.947199 
L 207.296957 -339.804804 
L 207.312249 -341.662409 
L 207.328664 -343.520014 
L 207.346164 -345.37762 
L 207.36471 -347.235225 
L 207.38426 -349.09283 
L 207.404768 -350.950435 
L 207.426187 -352.80804 
L 207.44847 -354.665646 
L 207.471565 -356.523251 
L 207.49542 -358.380856 
L 207.519985 -360.238461 
L 207.545206 -362.096067 
L 207.57103 -363.953672 
L 207.597404 -365.811277 
L 207.624277 -367.668882 
L 207.651596 -369.526488 
L 207.679311 -371.384093 
L 207.707372 -373.241698 
L 207.73573 -375.099303 
L 207.764339 -376.956909 
L 207.793153 -378.814514 
L 207.822127 -380.672119 
L 207.851219 -382.529724 
L 207.880389 -384.387329 
L 207.909597 -386.244935 
L 207.938805 -388.10254 
L 207.967977 -389.960145 
L 207.997078 -391.81775 
L 208.026076 -393.675356 
L 208.054937 -395.532961 
L 209.828725 -395.532961 
L 209.828725 -395.532961 
L 209.857586 -393.675356 
L 209.886584 -391.81775 
L 209.915685 -389.960145 
L 209.944857 -388.10254 
L 209.974065 -386.244935 
L 210.003273 -384.387329 
L 210.032443 -382.529724 
L 210.061535 -380.672119 
L 210.090509 -378.814514 
L 210.119323 -376.956909 
L 210.147932 -375.099303 
L 210.17629 -373.241698 
L 210.204351 -371.384093 
L 210.232066 -369.526488 
L 210.259385 -367.668882 
L 210.286258 -365.811277 
L 210.312632 -363.953672 
L 210.338456 -362.096067 
L 210.363677 -360.238461 
L 210.388242 -358.380856 
L 210.412097 -356.523251 
L 210.435192 -354.665646 
L 210.457475 -352.80804 
L 210.478894 -350.950435 
L 210.499402 -349.09283 
L 210.518952 -347.235225 
L 210.537498 -345.37762 
L 210.554998 -343.520014 
L 210.571413 -341.662409 
L 210.586705 -339.804804 
L 210.600843 -337.947199 
L 210.613796 -336.089593 
L 210.625538 -334.231988 
L 210.636048 -332.374383 
L 210.645308 -330.516778 
L 210.653306 -328.659172 
L 210.660032 -326.801567 
L 210.665482 -324.943962 
L 210.669656 -323.086357 
L 210.672559 -321.228751 
L 210.674201 -319.371146 
L 210.674593 -317.513541 
L 210.673755 -315.655936 
L 210.671707 -313.79833 
L 210.668475 -311.940725 
L 210.664088 -310.08312 
L 210.658578 -308.225515 
L 210.651981 -306.36791 
L 210.644335 -304.510304 
L 210.635681 -302.652699 
L 210.626062 -300.795094 
L 210.615522 -298.937489 
L 210.604108 -297.079883 
L 210.591867 -295.222278 
L 210.578848 -293.364673 
L 210.5651 -291.507068 
L 210.550672 -289.649462 
L 210.535612 -287.791857 
L 210.51997 -285.934252 
L 210.503792 -284.076647 
L 210.487125 -282.219041 
L 210.470015 -280.361436 
L 210.452504 -278.503831 
L 210.434636 -276.646226 
L 210.416449 -274.788621 
L 210.397981 -272.931015 
L 210.379268 -271.07341 
L 210.36034 -269.215805 
L 210.341229 -267.3582 
L 210.321962 -265.500594 
L 210.302561 -263.642989 
L 210.28305 -261.785384 
L 210.263446 -259.927779 
L 210.243765 -258.070173 
L 210.224019 -256.212568 
L 210.20422 -254.354963 
L 210.184374 -252.497358 
L 210.164486 -250.639752 
L 210.14456 -248.782147 
L 210.124596 -246.924542 
L 210.104593 -245.066937 
L 210.084547 -243.209331 
L 210.064455 -241.351726 
L 210.044311 -239.494121 
L 210.024108 -237.636516 
L 210.00384 -235.778911 
L 209.983498 -233.921305 
L 209.963076 -232.0637 
L 209.942565 -230.206095 
L 209.921959 -228.34849 
L 209.901252 -226.490884 
L 209.880439 -224.633279 
L 209.859515 -222.775674 
L 209.838478 -220.918069 
L 209.817328 -219.060463 
L 209.796065 -217.202858 
L 209.774692 -215.345253 
L 209.753215 -213.487648 
L 209.73164 -211.630042 
z
" id="me1cdb1fd10" style="stroke:#545454;stroke-width:2.5;"/>
    </defs>
    <g clip-path="url(#p59df6b0db3)">
     <use style="fill:#d98b5f;stroke:#545454;stroke-width:2.5;" x="0" xlink:href="#me1cdb1fd10" y="503.420156"/>
    </g>
   </g>
   <g id="PolyCollection_7">
    <defs>
     <path d="M 254.578855 -211.501065 
L 231.760343 -211.501065 
L 232.320269 -213.03508 
L 233.840446 -214.569095 
L 235.915151 -216.10311 
L 238.066937 -217.637125 
L 239.920079 -219.17114 
L 241.289534 -220.705155 
L 242.168487 -222.23917 
L 242.655742 -223.773185 
L 242.878693 -225.3072 
L 242.945488 -226.841215 
L 242.930097 -228.37523 
L 242.877162 -229.909245 
L 242.812327 -231.44326 
L 242.750225 -232.977275 
L 242.698603 -234.51129 
L 242.660111 -236.045305 
L 242.633497 -237.57932 
L 242.615039 -239.113335 
L 242.60015 -240.64735 
L 242.584703 -242.181365 
L 242.565769 -243.71538 
L 242.541701 -245.249394 
L 242.511765 -246.783409 
L 242.475593 -248.317424 
L 242.432737 -249.851439 
L 242.382536 -251.385454 
L 242.324427 -252.919469 
L 242.258629 -254.453484 
L 242.186884 -255.987499 
L 242.1128 -257.521514 
L 242.041477 -259.055529 
L 241.978417 -260.589544 
L 241.928121 -262.123559 
L 241.892968 -263.657574 
L 241.872821 -265.191589 
L 241.865467 -266.725604 
L 241.867599 -268.259619 
L 241.875845 -269.793634 
L 241.887449 -271.327649 
L 241.900521 -272.861664 
L 241.914063 -274.395679 
L 241.928063 -275.929694 
L 241.943676 -277.463709 
L 241.963256 -278.997724 
L 241.989906 -280.531739 
L 242.026475 -282.065754 
L 242.074325 -283.599769 
L 242.132464 -285.133783 
L 242.197567 -286.667798 
L 242.264984 -288.201813 
L 242.330325 -289.735828 
L 242.39086 -291.269843 
L 242.446106 -292.803858 
L 242.497376 -294.337873 
L 242.546625 -295.871888 
L 242.595162 -297.405903 
L 242.642869 -298.939918 
L 242.688198 -300.473933 
L 242.728894 -302.007948 
L 242.763012 -303.541963 
L 242.789704 -305.075978 
L 242.809452 -306.609993 
L 242.823732 -308.144008 
L 242.834368 -309.678023 
L 242.84295 -311.212038 
L 242.850546 -312.746053 
L 242.857746 -314.280068 
L 242.864894 -315.814083 
L 242.872293 -317.348098 
L 242.880282 -318.882113 
L 242.889172 -320.416128 
L 242.899158 -321.950143 
L 242.910265 -323.484158 
L 242.922337 -325.018172 
L 242.935029 -326.552187 
L 242.947788 -328.086202 
L 242.959883 -329.620217 
L 242.970524 -331.154232 
L 242.979055 -332.688247 
L 242.98518 -334.222262 
L 242.989108 -335.756277 
L 242.991595 -337.290292 
L 242.99382 -338.824307 
L 242.997157 -340.358322 
L 243.002865 -341.892337 
L 243.01178 -343.426352 
L 243.024118 -344.960367 
L 243.039424 -346.494382 
L 243.056699 -348.028397 
L 243.074647 -349.562412 
L 243.09196 -351.096427 
L 243.107558 -352.630442 
L 243.120732 -354.164457 
L 243.131203 -355.698472 
L 243.139107 -357.232487 
L 243.144905 -358.766502 
L 243.149246 -360.300517 
L 243.152773 -361.834532 
L 243.155953 -363.368547 
L 243.183245 -363.368547 
L 243.183245 -363.368547 
L 243.186425 -361.834532 
L 243.189952 -360.300517 
L 243.194293 -358.766502 
L 243.200091 -357.232487 
L 243.207995 -355.698472 
L 243.218466 -354.164457 
L 243.23164 -352.630442 
L 243.247238 -351.096427 
L 243.264551 -349.562412 
L 243.282499 -348.028397 
L 243.299774 -346.494382 
L 243.31508 -344.960367 
L 243.327418 -343.426352 
L 243.336333 -341.892337 
L 243.342041 -340.358322 
L 243.345378 -338.824307 
L 243.347603 -337.290292 
L 243.35009 -335.756277 
L 243.354018 -334.222262 
L 243.360143 -332.688247 
L 243.368674 -331.154232 
L 243.379315 -329.620217 
L 243.39141 -328.086202 
L 243.404169 -326.552187 
L 243.416861 -325.018172 
L 243.428933 -323.484158 
L 243.44004 -321.950143 
L 243.450026 -320.416128 
L 243.458916 -318.882113 
L 243.466905 -317.348098 
L 243.474304 -315.814083 
L 243.481452 -314.280068 
L 243.488652 -312.746053 
L 243.496248 -311.212038 
L 243.50483 -309.678023 
L 243.515466 -308.144008 
L 243.529746 -306.609993 
L 243.549494 -305.075978 
L 243.576186 -303.541963 
L 243.610304 -302.007948 
L 243.651 -300.473933 
L 243.696329 -298.939918 
L 243.744036 -297.405903 
L 243.792573 -295.871888 
L 243.841822 -294.337873 
L 243.893092 -292.803858 
L 243.948338 -291.269843 
L 244.008873 -289.735828 
L 244.074214 -288.201813 
L 244.141631 -286.667798 
L 244.206734 -285.133783 
L 244.264873 -283.599769 
L 244.312723 -282.065754 
L 244.349292 -280.531739 
L 244.375942 -278.997724 
L 244.395522 -277.463709 
L 244.411135 -275.929694 
L 244.425135 -274.395679 
L 244.438677 -272.861664 
L 244.451749 -271.327649 
L 244.463353 -269.793634 
L 244.471599 -268.259619 
L 244.473731 -266.725604 
L 244.466377 -265.191589 
L 244.44623 -263.657574 
L 244.411077 -262.123559 
L 244.360781 -260.589544 
L 244.297721 -259.055529 
L 244.226398 -257.521514 
L 244.152314 -255.987499 
L 244.080569 -254.453484 
L 244.014771 -252.919469 
L 243.956662 -251.385454 
L 243.906461 -249.851439 
L 243.863605 -248.317424 
L 243.827433 -246.783409 
L 243.797497 -245.249394 
L 243.773429 -243.71538 
L 243.754495 -242.181365 
L 243.739048 -240.64735 
L 243.724159 -239.113335 
L 243.705701 -237.57932 
L 243.679087 -236.045305 
L 243.640595 -234.51129 
L 243.588973 -232.977275 
L 243.526871 -231.44326 
L 243.462036 -229.909245 
L 243.409101 -228.37523 
L 243.39371 -226.841215 
L 243.460505 -225.3072 
L 243.683456 -223.773185 
L 244.170711 -222.23917 
L 245.049664 -220.705155 
L 246.419119 -219.17114 
L 248.272261 -217.637125 
L 250.424047 -216.10311 
L 252.498752 -214.569095 
L 254.018929 -213.03508 
L 254.578855 -211.501065 
z
" id="m1e5cabdfc5" style="stroke:#545454;stroke-width:2.5;"/>
    </defs>
    <g clip-path="url(#p59df6b0db3)">
     <use style="fill:#597dbf;stroke:#545454;stroke-width:2.5;" x="0" xlink:href="#m1e5cabdfc5" y="503.420156"/>
    </g>
   </g>
   <g id="PolyCollection_8">
    <defs>
     <path d="M 266.771286 -211.606613 
L 265.204936 -211.606613 
L 265.183394 -212.866364 
L 265.161925 -214.126114 
L 265.140533 -215.385865 
L 265.119219 -216.645616 
L 265.097983 -217.905367 
L 265.076821 -219.165117 
L 265.05573 -220.424868 
L 265.034703 -221.684619 
L 265.013733 -222.94437 
L 264.992809 -224.20412 
L 264.971924 -225.463871 
L 264.951067 -226.723622 
L 264.930227 -227.983373 
L 264.909393 -229.243123 
L 264.888556 -230.502874 
L 264.867706 -231.762625 
L 264.846836 -233.022376 
L 264.825938 -234.282126 
L 264.805006 -235.541877 
L 264.784038 -236.801628 
L 264.763033 -238.061379 
L 264.741991 -239.321129 
L 264.720918 -240.58088 
L 264.699821 -241.840631 
L 264.678709 -243.100381 
L 264.657596 -244.360132 
L 264.636499 -245.619883 
L 264.615439 -246.879634 
L 264.59444 -248.139384 
L 264.57353 -249.399135 
L 264.552739 -250.658886 
L 264.532102 -251.918637 
L 264.511658 -253.178387 
L 264.491447 -254.438138 
L 264.471516 -255.697889 
L 264.45191 -256.95764 
L 264.43268 -258.21739 
L 264.413879 -259.477141 
L 264.395561 -260.736892 
L 264.377784 -261.996643 
L 264.360604 -263.256393 
L 264.344082 -264.516144 
L 264.328277 -265.775895 
L 264.313249 -267.035646 
L 264.299058 -268.295396 
L 264.285764 -269.555147 
L 264.273424 -270.814898 
L 264.262096 -272.074648 
L 264.251834 -273.334399 
L 264.24269 -274.59415 
L 264.234715 -275.853901 
L 264.227953 -277.113651 
L 264.222449 -278.373402 
L 264.218239 -279.633153 
L 264.215359 -280.892904 
L 264.213837 -282.152654 
L 264.213697 -283.412405 
L 264.21496 -284.672156 
L 264.217638 -285.931907 
L 264.221739 -287.191657 
L 264.227266 -288.451408 
L 264.234216 -289.711159 
L 264.242579 -290.97091 
L 264.25234 -292.23066 
L 264.263479 -293.490411 
L 264.275972 -294.750162 
L 264.289786 -296.009913 
L 264.304886 -297.269663 
L 264.321233 -298.529414 
L 264.338781 -299.789165 
L 264.357482 -301.048915 
L 264.377285 -302.308666 
L 264.398135 -303.568417 
L 264.419974 -304.828168 
L 264.442744 -306.087918 
L 264.466383 -307.347669 
L 264.49083 -308.60742 
L 264.516021 -309.867171 
L 264.541895 -311.126921 
L 264.568387 -312.386672 
L 264.595438 -313.646423 
L 264.622984 -314.906174 
L 264.650968 -316.165924 
L 264.679331 -317.425675 
L 264.708016 -318.685426 
L 264.736971 -319.945177 
L 264.766144 -321.204927 
L 264.795485 -322.464678 
L 264.824949 -323.724429 
L 264.854491 -324.98418 
L 264.88407 -326.24393 
L 264.913648 -327.503681 
L 264.943188 -328.763432 
L 264.972656 -330.023182 
L 265.002022 -331.282933 
L 265.031254 -332.542684 
L 265.060326 -333.802435 
L 265.089212 -335.062185 
L 265.117887 -336.321936 
L 266.858335 -336.321936 
L 266.858335 -336.321936 
L 266.88701 -335.062185 
L 266.915896 -333.802435 
L 266.944968 -332.542684 
L 266.9742 -331.282933 
L 267.003566 -330.023182 
L 267.033034 -328.763432 
L 267.062574 -327.503681 
L 267.092152 -326.24393 
L 267.121731 -324.98418 
L 267.151273 -323.724429 
L 267.180737 -322.464678 
L 267.210078 -321.204927 
L 267.239251 -319.945177 
L 267.268206 -318.685426 
L 267.296891 -317.425675 
L 267.325254 -316.165924 
L 267.353238 -314.906174 
L 267.380784 -313.646423 
L 267.407835 -312.386672 
L 267.434327 -311.126921 
L 267.460201 -309.867171 
L 267.485392 -308.60742 
L 267.509839 -307.347669 
L 267.533478 -306.087918 
L 267.556248 -304.828168 
L 267.578087 -303.568417 
L 267.598937 -302.308666 
L 267.61874 -301.048915 
L 267.637441 -299.789165 
L 267.654989 -298.529414 
L 267.671336 -297.269663 
L 267.686436 -296.009913 
L 267.70025 -294.750162 
L 267.712743 -293.490411 
L 267.723882 -292.23066 
L 267.733643 -290.97091 
L 267.742006 -289.711159 
L 267.748956 -288.451408 
L 267.754483 -287.191657 
L 267.758584 -285.931907 
L 267.761262 -284.672156 
L 267.762525 -283.412405 
L 267.762385 -282.152654 
L 267.760863 -280.892904 
L 267.757983 -279.633153 
L 267.753773 -278.373402 
L 267.748269 -277.113651 
L 267.741507 -275.853901 
L 267.733532 -274.59415 
L 267.724388 -273.334399 
L 267.714126 -272.074648 
L 267.702798 -270.814898 
L 267.690458 -269.555147 
L 267.677164 -268.295396 
L 267.662973 -267.035646 
L 267.647945 -265.775895 
L 267.63214 -264.516144 
L 267.615618 -263.256393 
L 267.598438 -261.996643 
L 267.580661 -260.736892 
L 267.562343 -259.477141 
L 267.543542 -258.21739 
L 267.524312 -256.95764 
L 267.504706 -255.697889 
L 267.484775 -254.438138 
L 267.464564 -253.178387 
L 267.44412 -251.918637 
L 267.423483 -250.658886 
L 267.402692 -249.399135 
L 267.381782 -248.139384 
L 267.360783 -246.879634 
L 267.339723 -245.619883 
L 267.318626 -244.360132 
L 267.297513 -243.100381 
L 267.276401 -241.840631 
L 267.255304 -240.58088 
L 267.234231 -239.321129 
L 267.213189 -238.061379 
L 267.192184 -236.801628 
L 267.171216 -235.541877 
L 267.150284 -234.282126 
L 267.129386 -233.022376 
L 267.108516 -231.762625 
L 267.087666 -230.502874 
L 267.066829 -229.243123 
L 267.045995 -227.983373 
L 267.025155 -226.723622 
L 267.004298 -225.463871 
L 266.983413 -224.20412 
L 266.962489 -222.94437 
L 266.941519 -221.684619 
L 266.920492 -220.424868 
L 266.899401 -219.165117 
L 266.878239 -217.905367 
L 266.857003 -216.645616 
L 266.835689 -215.385865 
L 266.814297 -214.126114 
L 266.792828 -212.866364 
L 266.771286 -211.606613 
z
" id="mbad3385af0" style="stroke:#545454;stroke-width:2.5;"/>
    </defs>
    <g clip-path="url(#p59df6b0db3)">
     <use style="fill:#d98b5f;stroke:#545454;stroke-width:2.5;" x="0" xlink:href="#mbad3385af0" y="503.420156"/>
    </g>
   </g>
   <g id="PolyCollection_9">
    <defs>
     <path d="M 311.625135 -211.501065 
L 288.806623 -211.501065 
L 289.37287 -212.317537 
L 290.908446 -213.134008 
L 292.999326 -213.95048 
L 295.160348 -214.766951 
L 297.012752 -215.583423 
L 298.373537 -216.399894 
L 299.240468 -217.216365 
L 299.716515 -218.032837 
L 299.931332 -218.849308 
L 299.993523 -219.66578 
L 299.976544 -220.482251 
L 299.92426 -221.298723 
L 299.861604 -222.115194 
L 299.802631 -222.931666 
L 299.754652 -223.748137 
L 299.720074 -224.564608 
L 299.697651 -225.38108 
L 299.683892 -226.197551 
L 299.674485 -227.014023 
L 299.665383 -227.830494 
L 299.653336 -228.646966 
L 299.635936 -229.463437 
L 299.61142 -230.279909 
L 299.578481 -231.09638 
L 299.536252 -231.912851 
L 299.4845 -232.729323 
L 299.423886 -233.545794 
L 299.356111 -234.362266 
L 299.283802 -235.178737 
L 299.210184 -235.995209 
L 299.138617 -236.81168 
L 299.07218 -237.628151 
L 299.013421 -238.444623 
L 298.964322 -239.261094 
L 298.926389 -240.077566 
L 298.900632 -240.894037 
L 298.887253 -241.710509 
L 298.885131 -242.52698 
L 298.891505 -243.343452 
L 298.902384 -244.159923 
L 298.913792 -244.976394 
L 298.923422 -245.792866 
L 298.931863 -246.609337 
L 298.942694 -247.425809 
L 298.961316 -248.24228 
L 298.99295 -249.058752 
L 299.040627 -249.875223 
L 299.103911 -250.691695 
L 299.178784 -251.508166 
L 299.258673 -252.324637 
L 299.336245 -253.141109 
L 299.405381 -253.95758 
L 299.462702 -254.774052 
L 299.508159 -255.590523 
L 299.544514 -256.406995 
L 299.575933 -257.223466 
L 299.606289 -258.039938 
L 299.637866 -258.856409 
L 299.670931 -259.67288 
L 299.704242 -260.489352 
L 299.736119 -261.305823 
L 299.765504 -262.122295 
L 299.79251 -262.938766 
L 299.818278 -263.755238 
L 299.844339 -264.571709 
L 299.871855 -265.388181 
L 299.901065 -266.204652 
L 299.931111 -267.021123 
L 299.96022 -267.837595 
L 299.986168 -268.654066 
L 300.006899 -269.470538 
L 300.021173 -270.287009 
L 300.02905 -271.103481 
L 300.032016 -271.919952 
L 300.032634 -272.736423 
L 300.033771 -273.552895 
L 300.037672 -274.369366 
L 300.045254 -275.185838 
L 300.055921 -276.002309 
L 300.067962 -276.818781 
L 300.079306 -277.635252 
L 300.0883 -278.451724 
L 300.094185 -279.268195 
L 300.097182 -280.084666 
L 300.098233 -280.901138 
L 300.098605 -281.717609 
L 300.09953 -282.534081 
L 300.102002 -283.350552 
L 300.106722 -284.167024 
L 300.114098 -284.983495 
L 300.124199 -285.799967 
L 300.136658 -286.616438 
L 300.150625 -287.432909 
L 300.164886 -288.249381 
L 300.17815 -289.065852 
L 300.189407 -289.882324 
L 300.198157 -290.698795 
L 300.204442 -291.515267 
L 300.208673 -292.331738 
L 300.223085 -292.331738 
L 300.223085 -292.331738 
L 300.227316 -291.515267 
L 300.233601 -290.698795 
L 300.242351 -289.882324 
L 300.253608 -289.065852 
L 300.266872 -288.249381 
L 300.281133 -287.432909 
L 300.2951 -286.616438 
L 300.307559 -285.799967 
L 300.31766 -284.983495 
L 300.325036 -284.167024 
L 300.329756 -283.350552 
L 300.332228 -282.534081 
L 300.333153 -281.717609 
L 300.333525 -280.901138 
L 300.334576 -280.084666 
L 300.337573 -279.268195 
L 300.343458 -278.451724 
L 300.352452 -277.635252 
L 300.363796 -276.818781 
L 300.375837 -276.002309 
L 300.386504 -275.185838 
L 300.394086 -274.369366 
L 300.397987 -273.552895 
L 300.399124 -272.736423 
L 300.399742 -271.919952 
L 300.402708 -271.103481 
L 300.410585 -270.287009 
L 300.424859 -269.470538 
L 300.44559 -268.654066 
L 300.471538 -267.837595 
L 300.500647 -267.021123 
L 300.530693 -266.204652 
L 300.559903 -265.388181 
L 300.587419 -264.571709 
L 300.61348 -263.755238 
L 300.639248 -262.938766 
L 300.666254 -262.122295 
L 300.695639 -261.305823 
L 300.727516 -260.489352 
L 300.760827 -259.67288 
L 300.793892 -258.856409 
L 300.825469 -258.039938 
L 300.855825 -257.223466 
L 300.887244 -256.406995 
L 300.923599 -255.590523 
L 300.969056 -254.774052 
L 301.026377 -253.95758 
L 301.095513 -253.141109 
L 301.173085 -252.324637 
L 301.252974 -251.508166 
L 301.327847 -250.691695 
L 301.391131 -249.875223 
L 301.438808 -249.058752 
L 301.470442 -248.24228 
L 301.489064 -247.425809 
L 301.499895 -246.609337 
L 301.508336 -245.792866 
L 301.517966 -244.976394 
L 301.529374 -244.159923 
L 301.540253 -243.343452 
L 301.546627 -242.52698 
L 301.544505 -241.710509 
L 301.531126 -240.894037 
L 301.505369 -240.077566 
L 301.467436 -239.261094 
L 301.418337 -238.444623 
L 301.359578 -237.628151 
L 301.293141 -236.81168 
L 301.221574 -235.995209 
L 301.147956 -235.178737 
L 301.075647 -234.362266 
L 301.007872 -233.545794 
L 300.947258 -232.729323 
L 300.895506 -231.912851 
L 300.853277 -231.09638 
L 300.820338 -230.279909 
L 300.795822 -229.463437 
L 300.778422 -228.646966 
L 300.766375 -227.830494 
L 300.757273 -227.014023 
L 300.747866 -226.197551 
L 300.734107 -225.38108 
L 300.711684 -224.564608 
L 300.677106 -223.748137 
L 300.629127 -222.931666 
L 300.570154 -222.115194 
L 300.507498 -221.298723 
L 300.455214 -220.482251 
L 300.438235 -219.66578 
L 300.500426 -218.849308 
L 300.715243 -218.032837 
L 301.19129 -217.216365 
L 302.058221 -216.399894 
L 303.419006 -215.583423 
L 305.27141 -214.766951 
L 307.432432 -213.95048 
L 309.523312 -213.134008 
L 311.058888 -212.317537 
L 311.625135 -211.501065 
z
" id="mf354f475a6" style="stroke:#545454;stroke-width:2.5;"/>
    </defs>
    <g clip-path="url(#p59df6b0db3)">
     <use style="fill:#597dbf;stroke:#545454;stroke-width:2.5;" x="0" xlink:href="#mf354f475a6" y="503.420156"/>
    </g>
   </g>
   <g id="PolyCollection_10">
    <defs>
     <path d="M 323.804298 -211.561107 
L 322.264484 -211.561107 
L 322.243279 -212.225301 
L 322.222112 -212.889496 
L 322.20098 -213.55369 
L 322.179875 -214.217885 
L 322.15879 -214.88208 
L 322.137713 -215.546274 
L 322.11663 -216.210469 
L 322.095528 -216.874663 
L 322.07439 -217.538858 
L 322.053198 -218.203053 
L 322.031935 -218.867247 
L 322.010582 -219.531442 
L 321.989121 -220.195637 
L 321.967535 -220.859831 
L 321.945807 -221.524026 
L 321.923922 -222.18822 
L 321.901868 -222.852415 
L 321.879633 -223.51661 
L 321.857208 -224.180804 
L 321.83459 -224.844999 
L 321.811777 -225.509193 
L 321.78877 -226.173388 
L 321.765578 -226.837583 
L 321.742209 -227.501777 
L 321.718681 -228.165972 
L 321.695014 -228.830167 
L 321.671232 -229.494361 
L 321.647366 -230.158556 
L 321.623453 -230.82275 
L 321.599533 -231.486945 
L 321.575651 -232.15114 
L 321.551859 -232.815334 
L 321.528211 -233.479529 
L 321.504769 -234.143724 
L 321.481596 -234.807918 
L 321.45876 -235.472113 
L 321.436333 -236.136307 
L 321.414389 -236.800502 
L 321.393007 -237.464697 
L 321.372264 -238.128891 
L 321.352242 -238.793086 
L 321.333023 -239.45728 
L 321.314687 -240.121475 
L 321.297316 -240.78567 
L 321.28099 -241.449864 
L 321.265788 -242.114059 
L 321.251784 -242.778254 
L 321.239052 -243.442448 
L 321.22766 -244.106643 
L 321.217672 -244.770837 
L 321.209148 -245.435032 
L 321.20214 -246.099227 
L 321.196697 -246.763421 
L 321.192857 -247.427616 
L 321.190656 -248.09181 
L 321.190119 -248.756005 
L 321.191265 -249.4202 
L 321.194103 -250.084394 
L 321.198637 -250.748589 
L 321.204861 -251.412784 
L 321.212762 -252.076978 
L 321.222318 -252.741173 
L 321.2335 -253.405367 
L 321.246272 -254.069562 
L 321.260591 -254.733757 
L 321.276406 -255.397951 
L 321.293661 -256.062146 
L 321.312295 -256.72634 
L 321.332241 -257.390535 
L 321.353429 -258.05473 
L 321.375783 -258.718924 
L 321.399226 -259.383119 
L 321.42368 -260.047314 
L 321.449061 -260.711508 
L 321.47529 -261.375703 
L 321.502284 -262.039897 
L 321.52996 -262.704092 
L 321.55824 -263.368287 
L 321.587045 -264.032481 
L 321.616298 -264.696676 
L 321.645926 -265.360871 
L 321.67586 -266.025065 
L 321.706033 -266.68926 
L 321.736383 -267.353454 
L 321.76685 -268.017649 
L 321.797382 -268.681844 
L 321.827927 -269.346038 
L 321.858442 -270.010233 
L 321.888884 -270.674427 
L 321.919216 -271.338622 
L 321.949407 -272.002817 
L 321.979425 -272.667011 
L 322.009247 -273.331206 
L 322.038848 -273.995401 
L 322.068211 -274.659595 
L 322.097317 -275.32379 
L 322.126151 -275.987984 
L 322.154702 -276.652179 
L 322.182957 -277.316374 
L 323.885825 -277.316374 
L 323.885825 -277.316374 
L 323.91408 -276.652179 
L 323.942631 -275.987984 
L 323.971465 -275.32379 
L 324.000571 -274.659595 
L 324.029934 -273.995401 
L 324.059535 -273.331206 
L 324.089357 -272.667011 
L 324.119375 -272.002817 
L 324.149566 -271.338622 
L 324.179898 -270.674427 
L 324.21034 -270.010233 
L 324.240855 -269.346038 
L 324.2714 -268.681844 
L 324.301932 -268.017649 
L 324.332399 -267.353454 
L 324.362749 -266.68926 
L 324.392922 -266.025065 
L 324.422856 -265.360871 
L 324.452484 -264.696676 
L 324.481737 -264.032481 
L 324.510542 -263.368287 
L 324.538822 -262.704092 
L 324.566498 -262.039897 
L 324.593492 -261.375703 
L 324.619721 -260.711508 
L 324.645102 -260.047314 
L 324.669556 -259.383119 
L 324.692999 -258.718924 
L 324.715353 -258.05473 
L 324.736541 -257.390535 
L 324.756487 -256.72634 
L 324.775121 -256.062146 
L 324.792376 -255.397951 
L 324.808191 -254.733757 
L 324.82251 -254.069562 
L 324.835282 -253.405367 
L 324.846464 -252.741173 
L 324.85602 -252.076978 
L 324.863921 -251.412784 
L 324.870145 -250.748589 
L 324.874679 -250.084394 
L 324.877517 -249.4202 
L 324.878663 -248.756005 
L 324.878126 -248.09181 
L 324.875925 -247.427616 
L 324.872085 -246.763421 
L 324.866642 -246.099227 
L 324.859634 -245.435032 
L 324.85111 -244.770837 
L 324.841122 -244.106643 
L 324.82973 -243.442448 
L 324.816998 -242.778254 
L 324.802994 -242.114059 
L 324.787792 -241.449864 
L 324.771466 -240.78567 
L 324.754095 -240.121475 
L 324.735759 -239.45728 
L 324.71654 -238.793086 
L 324.696518 -238.128891 
L 324.675775 -237.464697 
L 324.654393 -236.800502 
L 324.632449 -236.136307 
L 324.610022 -235.472113 
L 324.587186 -234.807918 
L 324.564013 -234.143724 
L 324.540571 -233.479529 
L 324.516923 -232.815334 
L 324.493131 -232.15114 
L 324.469249 -231.486945 
L 324.445329 -230.82275 
L 324.421416 -230.158556 
L 324.39755 -229.494361 
L 324.373768 -228.830167 
L 324.350101 -228.165972 
L 324.326573 -227.501777 
L 324.303204 -226.837583 
L 324.280012 -226.173388 
L 324.257005 -225.509193 
L 324.234192 -224.844999 
L 324.211574 -224.180804 
L 324.189149 -223.51661 
L 324.166914 -222.852415 
L 324.14486 -222.18822 
L 324.122975 -221.524026 
L 324.101247 -220.859831 
L 324.079661 -220.195637 
L 324.0582 -219.531442 
L 324.036847 -218.867247 
L 324.015584 -218.203053 
L 323.994392 -217.538858 
L 323.973254 -216.874663 
L 323.952152 -216.210469 
L 323.931069 -215.546274 
L 323.909992 -214.88208 
L 323.888907 -214.217885 
L 323.867802 -213.55369 
L 323.84667 -212.889496 
L 323.825503 -212.225301 
L 323.804298 -211.561107 
z
" id="m5b8c7a43b8" style="stroke:#545454;stroke-width:2.5;"/>
    </defs>
    <g clip-path="url(#p59df6b0db3)">
     <use style="fill:#d98b5f;stroke:#545454;stroke-width:2.5;" x="0" xlink:href="#m5b8c7a43b8" y="503.420156"/>
    </g>
   </g>
   <g id="patch_3">
    <path clip-path="url(#p59df6b0db3)" d="M 83.440015 291.919091 
L 83.440015 291.919091 
L 83.440015 291.919091 
L 83.440015 291.919091 
z
" style="fill:#597dbf;stroke:#545454;stroke-linejoin:miter;stroke-width:1.25;"/>
   </g>
   <g id="patch_4">
    <path clip-path="url(#p59df6b0db3)" d="M 83.440015 291.919091 
L 83.440015 291.919091 
L 83.440015 291.919091 
L 83.440015 291.919091 
z
" style="fill:#d98b5f;stroke:#545454;stroke-linejoin:miter;stroke-width:1.25;"/>
   </g>
   <g id="line2d_1">
    <path clip-path="url(#p59df6b0db3)" d="M 72.030759 291.919091 
L 72.030759 89.102661 
" style="fill:none;stroke:#545454;stroke-linecap:round;stroke-width:2.5;"/>
   </g>
   <g id="line2d_2">
    <path clip-path="url(#p59df6b0db3)" d="M 72.030759 291.919091 
L 72.030759 210.775846 
" style="fill:none;stroke:#545454;stroke-linecap:round;stroke-width:7.5;"/>
   </g>
   <g id="line2d_3">
    <path clip-path="url(#p59df6b0db3)" d="M 94.849271 291.704244 
L 94.849271 83.221137 
" style="fill:none;stroke:#545454;stroke-linecap:round;stroke-width:2.5;"/>
   </g>
   <g id="line2d_4">
    <path clip-path="url(#p59df6b0db3)" d="M 94.849271 223.647237 
L 94.849271 144.275917 
" style="fill:none;stroke:#545454;stroke-linecap:round;stroke-width:7.5;"/>
   </g>
   <g id="line2d_5">
    <path clip-path="url(#p59df6b0db3)" d="M 129.077039 291.919091 
L 129.077039 157.638904 
" style="fill:none;stroke:#545454;stroke-linecap:round;stroke-width:2.5;"/>
   </g>
   <g id="line2d_6">
    <path clip-path="url(#p59df6b0db3)" d="M 129.077039 291.919091 
L 129.077039 238.157005 
" style="fill:none;stroke:#545454;stroke-linecap:round;stroke-width:7.5;"/>
   </g>
   <g id="line2d_7">
    <path clip-path="url(#p59df6b0db3)" d="M 151.895551 291.776693 
L 151.895551 155.265782 
" style="fill:none;stroke:#545454;stroke-linecap:round;stroke-width:2.5;"/>
   </g>
   <g id="line2d_8">
    <path clip-path="url(#p59df6b0db3)" d="M 151.895551 246.789226 
L 151.895551 195.717773 
" style="fill:none;stroke:#545454;stroke-linecap:round;stroke-width:7.5;"/>
   </g>
   <g id="line2d_9">
    <path clip-path="url(#p59df6b0db3)" d="M 186.123319 291.919091 
L 186.123319 110.253237 
" style="fill:none;stroke:#545454;stroke-linecap:round;stroke-width:2.5;"/>
   </g>
   <g id="line2d_10">
    <path clip-path="url(#p59df6b0db3)" d="M 186.123319 291.919091 
L 186.123319 219.194406 
" style="fill:none;stroke:#545454;stroke-linecap:round;stroke-width:7.5;"/>
   </g>
   <g id="line2d_11">
    <path clip-path="url(#p59df6b0db3)" d="M 208.941831 291.790114 
L 208.941831 107.887195 
" style="fill:none;stroke:#545454;stroke-linecap:round;stroke-width:2.5;"/>
   </g>
   <g id="line2d_12">
    <path clip-path="url(#p59df6b0db3)" d="M 208.941831 230.613147 
L 208.941831 160.910085 
" style="fill:none;stroke:#545454;stroke-linecap:round;stroke-width:7.5;"/>
   </g>
   <g id="line2d_13">
    <path clip-path="url(#p59df6b0db3)" d="M 243.169599 291.919091 
L 243.169599 166.765951 
" style="fill:none;stroke:#545454;stroke-linecap:round;stroke-width:2.5;"/>
   </g>
   <g id="line2d_14">
    <path clip-path="url(#p59df6b0db3)" d="M 243.169599 291.919091 
L 243.169599 241.803657 
" style="fill:none;stroke:#545454;stroke-linecap:round;stroke-width:7.5;"/>
   </g>
   <g id="line2d_15">
    <path clip-path="url(#p59df6b0db3)" d="M 265.988111 291.813543 
L 265.988111 167.09822 
" style="fill:none;stroke:#545454;stroke-linecap:round;stroke-width:2.5;"/>
   </g>
   <g id="line2d_16">
    <path clip-path="url(#p59df6b0db3)" d="M 265.988111 249.843132 
L 265.988111 204.540751 
" style="fill:none;stroke:#545454;stroke-linecap:round;stroke-width:7.5;"/>
   </g>
   <g id="line2d_17">
    <path clip-path="url(#p59df6b0db3)" d="M 300.215879 291.919091 
L 300.215879 223.507876 
" style="fill:none;stroke:#545454;stroke-linecap:round;stroke-width:2.5;"/>
   </g>
   <g id="line2d_18">
    <path clip-path="url(#p59df6b0db3)" d="M 300.215879 291.919091 
L 300.215879 264.537934 
" style="fill:none;stroke:#545454;stroke-linecap:round;stroke-width:7.5;"/>
   </g>
   <g id="line2d_19">
    <path clip-path="url(#p59df6b0db3)" d="M 323.034391 291.85905 
L 323.034391 226.103783 
" style="fill:none;stroke:#545454;stroke-linecap:round;stroke-width:2.5;"/>
   </g>
   <g id="line2d_20">
    <path clip-path="url(#p59df6b0db3)" d="M 323.034391 269.062147 
L 323.034391 247.17809 
" style="fill:none;stroke:#545454;stroke-linecap:round;stroke-width:7.5;"/>
   </g>
   <g id="patch_5">
    <path d="M 54.916875 304.3 
L 340.148275 304.3 
" style="fill:none;stroke:#262626;stroke-linecap:square;stroke-linejoin:miter;stroke-width:1.875;"/>
   </g>
   <g id="PathCollection_1">
    <defs>
     <path d="M 0 2.5 
C 0.663008 2.5 1.29895 2.236584 1.767767 1.767767 
C 2.236584 1.29895 2.5 0.663008 2.5 0 
C 2.5 -0.663008 2.236584 -1.29895 1.767767 -1.767767 
C 1.29895 -2.236584 0.663008 -2.5 0 -2.5 
C -0.663008 -2.5 -1.29895 -2.236584 -1.767767 -1.767767 
C -2.236584 -1.29895 -2.5 -0.663008 -2.5 0 
C -2.5 0.663008 -2.236584 1.29895 -1.767767 1.767767 
C -1.29895 2.236584 -0.663008 2.5 0 2.5 
z
" id="mc6aabca1b9" style="stroke:#545454;stroke-width:1.5;"/>
    </defs>
    <g clip-path="url(#p59df6b0db3)">
     <use style="fill:#ffffff;stroke:#545454;stroke-width:1.5;" x="72.030759" xlink:href="#mc6aabca1b9" y="291.919091"/>
    </g>
   </g>
   <g id="PathCollection_2">
    <g clip-path="url(#p59df6b0db3)">
     <use style="fill:#ffffff;stroke:#545454;stroke-width:1.5;" x="94.849271" xlink:href="#mc6aabca1b9" y="181.129815"/>
    </g>
   </g>
   <g id="PathCollection_3">
    <g clip-path="url(#p59df6b0db3)">
     <use style="fill:#ffffff;stroke:#545454;stroke-width:1.5;" x="129.077039" xlink:href="#mc6aabca1b9" y="291.919091"/>
    </g>
   </g>
   <g id="PathCollection_4">
    <g clip-path="url(#p59df6b0db3)">
     <use style="fill:#ffffff;stroke:#545454;stroke-width:1.5;" x="151.895551" xlink:href="#mc6aabca1b9" y="218.502516"/>
    </g>
   </g>
   <g id="PathCollection_5">
    <g clip-path="url(#p59df6b0db3)">
     <use style="fill:#ffffff;stroke:#545454;stroke-width:1.5;" x="186.123319" xlink:href="#mc6aabca1b9" y="291.919091"/>
    </g>
   </g>
   <g id="PathCollection_6">
    <g clip-path="url(#p59df6b0db3)">
     <use style="fill:#ffffff;stroke:#545454;stroke-width:1.5;" x="208.941831" xlink:href="#mc6aabca1b9" y="194.345532"/>
    </g>
   </g>
   <g id="PathCollection_7">
    <g clip-path="url(#p59df6b0db3)">
     <use style="fill:#ffffff;stroke:#545454;stroke-width:1.5;" x="243.169599" xlink:href="#mc6aabca1b9" y="291.919091"/>
    </g>
   </g>
   <g id="PathCollection_8">
    <g clip-path="url(#p59df6b0db3)">
     <use style="fill:#ffffff;stroke:#545454;stroke-width:1.5;" x="265.988111" xlink:href="#mc6aabca1b9" y="224.498196"/>
    </g>
   </g>
   <g id="PathCollection_9">
    <g clip-path="url(#p59df6b0db3)">
     <use style="fill:#ffffff;stroke:#545454;stroke-width:1.5;" x="300.215879" xlink:href="#mc6aabca1b9" y="291.919091"/>
    </g>
   </g>
   <g id="PathCollection_10">
    <g clip-path="url(#p59df6b0db3)">
     <use style="fill:#ffffff;stroke:#545454;stroke-width:1.5;" x="323.034391" xlink:href="#mc6aabca1b9" y="255.091793"/>
    </g>
   </g>
  </g>
  <g id="text_14">
   <!-- PTW -->
   <g style="fill:#262626;" transform="translate(198.896875 16.412625)scale(0.216 -0.216)">
    <defs>
     <path d="M 19.671875 64.796875 
L 19.671875 37.40625 
L 32.078125 37.40625 
Q 38.96875 37.40625 42.71875 40.96875 
Q 46.484375 44.53125 46.484375 51.125 
Q 46.484375 57.671875 42.71875 61.234375 
Q 38.96875 64.796875 32.078125 64.796875 
z
M 9.8125 72.90625 
L 32.078125 72.90625 
Q 44.34375 72.90625 50.609375 67.359375 
Q 56.890625 61.8125 56.890625 51.125 
Q 56.890625 40.328125 50.609375 34.8125 
Q 44.34375 29.296875 32.078125 29.296875 
L 19.671875 29.296875 
L 19.671875 0 
L 9.8125 0 
z
" id="DejaVuSans-80"/>
     <path d="M -0.296875 72.90625 
L 61.375 72.90625 
L 61.375 64.59375 
L 35.5 64.59375 
L 35.5 0 
L 25.59375 0 
L 25.59375 64.59375 
L -0.296875 64.59375 
z
" id="DejaVuSans-84"/>
     <path d="M 3.328125 72.90625 
L 13.28125 72.90625 
L 28.609375 11.28125 
L 43.890625 72.90625 
L 54.984375 72.90625 
L 70.3125 11.28125 
L 85.59375 72.90625 
L 95.609375 72.90625 
L 77.296875 0 
L 64.890625 0 
L 49.515625 63.28125 
L 33.984375 0 
L 21.578125 0 
z
" id="DejaVuSans-87"/>
    </defs>
    <use xlink:href="#DejaVuSans-80"/>
    <use x="60.302734" xlink:href="#DejaVuSans-84"/>
    <use x="121.386719" xlink:href="#DejaVuSans-87"/>
   </g>
  </g>
  <g id="legend_1">
   <g id="patch_6">
    <path d="M 335.050984 244.153594 
L 368.050984 244.153594 
L 368.050984 232.603594 
L 335.050984 232.603594 
z
" style="fill:#597dbf;stroke:#545454;stroke-linejoin:miter;stroke-width:1.25;"/>
   </g>
   <g id="text_15">
    <!-- actual -->
    <g style="fill:#262626;" transform="translate(381.250984 244.153594)scale(0.165 -0.165)">
     <defs>
      <path d="M 48.78125 52.59375 
L 48.78125 44.1875 
Q 44.96875 46.296875 41.140625 47.34375 
Q 37.3125 48.390625 33.40625 48.390625 
Q 24.65625 48.390625 19.8125 42.84375 
Q 14.984375 37.3125 14.984375 27.296875 
Q 14.984375 17.28125 19.8125 11.734375 
Q 24.65625 6.203125 33.40625 6.203125 
Q 37.3125 6.203125 41.140625 7.25 
Q 44.96875 8.296875 48.78125 10.40625 
L 48.78125 2.09375 
Q 45.015625 0.34375 40.984375 -0.53125 
Q 36.96875 -1.421875 32.421875 -1.421875 
Q 20.0625 -1.421875 12.78125 6.34375 
Q 5.515625 14.109375 5.515625 27.296875 
Q 5.515625 40.671875 12.859375 48.328125 
Q 20.21875 56 33.015625 56 
Q 37.15625 56 41.109375 55.140625 
Q 45.0625 54.296875 48.78125 52.59375 
z
" id="DejaVuSans-99"/>
      <path d="M 8.5 21.578125 
L 8.5 54.6875 
L 17.484375 54.6875 
L 17.484375 21.921875 
Q 17.484375 14.15625 20.5 10.265625 
Q 23.53125 6.390625 29.59375 6.390625 
Q 36.859375 6.390625 41.078125 11.03125 
Q 45.3125 15.671875 45.3125 23.6875 
L 45.3125 54.6875 
L 54.296875 54.6875 
L 54.296875 0 
L 45.3125 0 
L 45.3125 8.40625 
Q 42.046875 3.421875 37.71875 1 
Q 33.40625 -1.421875 27.6875 -1.421875 
Q 18.265625 -1.421875 13.375 4.4375 
Q 8.5 10.296875 8.5 21.578125 
z
M 31.109375 56 
z
" id="DejaVuSans-117"/>
     </defs>
     <use xlink:href="#DejaVuSans-97"/>
     <use x="61.279297" xlink:href="#DejaVuSans-99"/>
     <use x="116.259766" xlink:href="#DejaVuSans-116"/>
     <use x="155.46875" xlink:href="#DejaVuSans-117"/>
     <use x="218.847656" xlink:href="#DejaVuSans-97"/>
     <use x="280.126953" xlink:href="#DejaVuSans-108"/>
    </g>
   </g>
   <g id="patch_7">
    <path d="M 335.050984 268.3725 
L 368.050984 268.3725 
L 368.050984 256.8225 
L 335.050984 256.8225 
z
" style="fill:#d98b5f;stroke:#545454;stroke-linejoin:miter;stroke-width:1.25;"/>
   </g>
   <g id="text_16">
    <!-- cluster -->
    <g style="fill:#262626;" transform="translate(381.250984 268.3725)scale(0.165 -0.165)">
     <defs>
      <path d="M 44.28125 53.078125 
L 44.28125 44.578125 
Q 40.484375 46.53125 36.375 47.5 
Q 32.28125 48.484375 27.875 48.484375 
Q 21.1875 48.484375 17.84375 46.4375 
Q 14.5 44.390625 14.5 40.28125 
Q 14.5 37.15625 16.890625 35.375 
Q 19.28125 33.59375 26.515625 31.984375 
L 29.59375 31.296875 
Q 39.15625 29.25 43.1875 25.515625 
Q 47.21875 21.78125 47.21875 15.09375 
Q 47.21875 7.46875 41.1875 3.015625 
Q 35.15625 -1.421875 24.609375 -1.421875 
Q 20.21875 -1.421875 15.453125 -0.5625 
Q 10.6875 0.296875 5.421875 2 
L 5.421875 11.28125 
Q 10.40625 8.6875 15.234375 7.390625 
Q 20.0625 6.109375 24.8125 6.109375 
Q 31.15625 6.109375 34.5625 8.28125 
Q 37.984375 10.453125 37.984375 14.40625 
Q 37.984375 18.0625 35.515625 20.015625 
Q 33.0625 21.96875 24.703125 23.78125 
L 21.578125 24.515625 
Q 13.234375 26.265625 9.515625 29.90625 
Q 5.8125 33.546875 5.8125 39.890625 
Q 5.8125 47.609375 11.28125 51.796875 
Q 16.75 56 26.8125 56 
Q 31.78125 56 36.171875 55.265625 
Q 40.578125 54.546875 44.28125 53.078125 
z
" id="DejaVuSans-115"/>
     </defs>
     <use xlink:href="#DejaVuSans-99"/>
     <use x="54.980469" xlink:href="#DejaVuSans-108"/>
     <use x="82.763672" xlink:href="#DejaVuSans-117"/>
     <use x="146.142578" xlink:href="#DejaVuSans-115"/>
     <use x="198.242188" xlink:href="#DejaVuSans-116"/>
     <use x="237.451172" xlink:href="#DejaVuSans-101"/>
     <use x="298.974609" xlink:href="#DejaVuSans-114"/>
    </g>
   </g>
  </g>
 </g>
 <defs>
  <clipPath id="p59df6b0db3">
   <rect height="272.38" width="285.2314" x="54.916875" y="31.92"/>
  </clipPath>
 </defs>
</svg>
